<svg xmlns="http://www.w3.org/2000/svg" width="40" height="40" viewBox="0 0 40 40" fill="none"><g id="40x40"><g id="Group"><path id="Oval" d="M21.6401 36.1242C25.8278 34.0817 27.5833 29.0647 25.561 24.9185C23.5388 20.7723 18.5046 19.0669 14.3169 21.1094C10.1292 23.1519 8.37373 28.1688 10.396 32.315C12.4182 36.4612 17.4524 38.1666 21.6401 36.1242Z" fill="#FFAADE"/><path id="Rectangle" d="M24.7882 27.5536L24.8781 27.5564C26.0482 27.5924 26.9675 28.5701 26.9314 29.7402C26.9312 29.746 26.931 29.7518 26.9308 29.7577L26.6481 36.9935C26.6027 38.1564 25.6282 39.0651 24.465 39.0293L24.375 39.0265C23.2049 38.9905 22.2857 38.0128 22.3217 36.8427C22.3219 36.8369 22.3221 36.8311 22.3223 36.8252L22.605 29.5894C22.6504 28.4265 23.6249 27.5178 24.7882 27.5536Z" fill="#FFAADE"/><mask id="mask0_8543_1523" style="mask-type:alpha" maskUnits="userSpaceOnUse" x="0" y="1" width="40" height="32"><path id="Vector" d="M10.7198 2.24819C11.2009 2.0409 11.7047 1.8691 12.229 1.73676C12.9069 1.56562 13.6011 1.46664 14.2999 1.44147L26.3078 1.00892C31.7135 0.814192 36.7264 3.82253 39.0977 8.68429C41.2514 13.1002 39.4176 18.4259 35.0018 20.5796L34.1293 21.0052C34.4746 21.8037 34.6876 22.6756 34.739 23.5949C34.7401 23.613 34.741 23.6311 34.7419 23.6492L34.7489 23.7933C34.9514 27.9415 31.7689 31.4759 27.6222 31.7081L17.0034 32.3026C16.3472 32.3394 15.7059 32.2913 15.0902 32.1679C9.48266 32.0799 4.14641 28.9473 1.53968 23.6027C-2.16815 16.0005 1.05052 6.80185 8.72877 3.05692C9.38265 2.738 10.0478 2.46892 10.7198 2.24819Z" fill="white"/></mask><g mask="url(#mask0_8543_1523)"><path id="Mask" d="M10.7198 2.24819C11.2009 2.0409 11.7047 1.8691 12.229 1.73676C12.9069 1.56562 13.6011 1.46664 14.2999 1.44147L26.3078 1.00892C31.7135 0.814192 36.7264 3.82253 39.0977 8.68429C41.2514 13.1002 39.4176 18.4259 35.0018 20.5796L34.1293 21.0052C34.4746 21.8037 34.6876 22.6756 34.739 23.5949C34.7401 23.613 34.741 23.6311 34.7419 23.6492L34.7489 23.7933C34.9514 27.9415 31.7689 31.4759 27.6222 31.7081L17.0034 32.3026C16.3472 32.3394 15.7059 32.2913 15.0902 32.1679C9.48266 32.0799 4.14641 28.9473 1.53968 23.6027C-2.16815 16.0005 1.05052 6.80185 8.72877 3.05692C9.38265 2.738 10.0478 2.46892 10.7198 2.24819Z" fill="#FFAADE"/><path id="Vector_2" d="M35.6368 20.1658C35.9578 20.5863 35.8731 21.1885 35.4475 21.5109C35.0219 21.8333 34.4166 21.7538 34.0956 21.3333C32.9598 19.8458 31.5574 19.0146 29.8437 18.8002C27.9608 18.5647 25.6379 18.6311 22.8809 19.0049C22.3521 19.0766 21.8684 18.7092 21.8005 18.1842C21.7325 17.6593 22.1061 17.1756 22.6348 17.1039C25.5467 16.7091 28.0329 16.6381 30.0997 16.8966C32.3355 17.1762 34.1962 18.2791 35.6368 20.1658Z" fill="#E889C4"/><path id="Path" d="M10.9834 20.652C11.0945 20.1337 11.6062 19.8077 12.1262 19.9239C12.6462 20.0401 12.9776 20.5545 12.8665 21.0728C12.4691 22.9262 13.6544 24.7655 15.5139 25.181C16.3046 25.3577 17.1297 25.2513 17.8443 24.8805L17.9622 24.8194C18.4321 24.5755 19.0148 24.7604 19.2636 25.2323C19.5124 25.7042 19.3331 26.2845 18.8632 26.5283L18.7453 26.5895C17.631 27.1677 16.3445 27.3335 15.1115 27.058C12.212 26.4102 10.3638 23.5421 10.9834 20.652Z" fill="#E889C4"/><g id="Vector_3"><path d="M10.8898 23.4618C11.2917 23.1106 11.9015 23.1475 12.2516 23.5442C12.6018 23.9409 12.5598 24.5472 12.1579 24.8984L5.57615 30.6486C5.17419 30.9997 4.56446 30.9628 4.21428 30.5661C3.8641 30.1694 3.90607 29.5631 4.30803 29.2119L10.8898 23.4618Z" fill="#E889C4"/><path d="M30.1577 12.3393C30.2342 11.8144 30.724 11.4471 31.2515 11.519C31.7791 11.5909 32.1448 12.0747 32.0683 12.5996L31.4146 17.0838C31.3381 17.6087 30.8483 17.976 30.3208 17.9041C29.7932 17.8322 29.4275 17.3484 29.504 16.8235L30.1577 12.3393Z" fill="#E889C4"/><path d="M12.618 5.0685C12.6923 4.54327 13.1804 4.17392 13.7083 4.24353C14.2362 4.31314 14.604 4.79535 14.5298 5.32057C14.1912 7.71642 15.8689 9.91605 18.277 10.2336C19.532 10.399 20.8021 10.0185 21.7625 9.18937L22.9361 8.17629C23.3401 7.82748 23.9496 7.86801 24.2974 8.26681C24.6451 8.66561 24.5995 9.27166 24.1955 9.62046L23.022 10.6336C21.6404 11.8263 19.8134 12.3736 18.0082 12.1356C14.5443 11.6788 12.131 8.51479 12.618 5.0685Z" fill="#E889C4"/></g></g></g></g></svg>