<svg xmlns="http://www.w3.org/2000/svg" width="40" height="40" viewBox="0 0 40 40" fill="none"><g id="40x40"><g id="Suitcase2"><path id="Path" d="M16.1801 8.84173C16.1801 9.67689 15.5031 10.3539 14.668 10.3539C13.8328 10.3539 13.1558 9.67689 13.1558 8.84173V7.18062C13.1558 5.15091 14.784 3.59204 16.8274 3.59204H23.3057C25.3491 3.59204 26.9774 5.15091 26.9774 7.18062V8.84173C26.9774 9.67689 26.3003 10.3539 25.4652 10.3539C24.63 10.3539 23.953 9.67689 23.953 8.84173V7.18062C23.953 6.8514 23.7076 6.61643 23.3057 6.61643H16.8274C16.4256 6.61643 16.1801 6.8514 16.1801 7.18062V8.84173Z" fill="#995632"/><path id="Rectangle 76" fill-rule="evenodd" clip-rule="evenodd" d="M12.718 8.01123H16.6178C17.3757 8.01123 17.9902 8.62564 17.9902 9.38354V11.207C17.9902 11.9649 17.3757 12.5793 16.6178 12.5793H12.718C11.9601 12.5793 11.3457 11.9649 11.3457 11.207V9.38354C11.3457 8.62564 11.9601 8.01123 12.718 8.01123Z" fill="#FFCA09"/><path id="Rectangle 76_2" fill-rule="evenodd" clip-rule="evenodd" d="M23.5154 8.01123H27.4152C28.1731 8.01123 28.7875 8.62564 28.7875 9.38354V11.207C28.7875 11.9649 28.1731 12.5793 27.4152 12.5793H23.5154C22.7575 12.5793 22.1431 11.9649 22.1431 11.207V9.38354C22.1431 8.62564 22.7575 8.01123 23.5154 8.01123Z" fill="#FFCA09"/><path id="Mask" fill-rule="evenodd" clip-rule="evenodd" d="M3.91358 11.3489C2.5899 11.3489 1.51685 12.4219 1.51685 13.7456V31.5166C1.51685 32.8403 2.5899 33.9133 3.91358 33.9133H36.2193C37.543 33.9133 38.616 32.8403 38.616 31.5166V13.7456C38.616 12.4219 37.543 11.3489 36.2193 11.3489H3.91358Z" fill="#A56644"/><path id="Mask (Stroke)" fill-rule="evenodd" clip-rule="evenodd" d="M0.133301 13.7456C0.133301 11.6577 1.82588 9.96509 3.91378 9.96509H36.2195C38.3074 9.96509 40 11.6577 40 13.7456V31.5166C40 33.6045 38.3074 35.297 36.2195 35.297H3.91378C1.82588 35.297 0.133301 33.6045 0.133301 31.5166V13.7456ZM3.91378 12.7326C3.35433 12.7326 2.9008 13.1861 2.9008 13.7456V31.5166C2.9008 32.076 3.35433 32.5295 3.91378 32.5295H36.2195C36.7789 32.5295 37.2325 32.076 37.2325 31.5166V13.7456C37.2325 13.1861 36.7789 12.7326 36.2195 12.7326H3.91378Z" fill="#995632"/><path id="Rectangle 2 Copy" fill-rule="evenodd" clip-rule="evenodd" d="M6.45045 8.42603H10.8427C11.1206 8.42603 11.3459 8.65131 11.3459 8.92921V36.577C11.3459 36.8549 11.1206 37.0802 10.8427 37.0802H6.45045C6.17255 37.0802 5.94727 36.8549 5.94727 36.577V8.92921C5.94727 8.65131 6.17255 8.42603 6.45045 8.42603Z" fill="#C17750"/><path id="Rectangle 2 Copy_2" fill-rule="evenodd" clip-rule="evenodd" d="M29.2905 8.42603H33.6828C33.9607 8.42603 34.186 8.65131 34.186 8.92921V36.577C34.186 36.8549 33.9607 37.0802 33.6828 37.0802H29.2905C29.0126 37.0802 28.7874 36.8549 28.7874 36.577V8.92921C28.7874 8.65131 29.0126 8.42603 29.2905 8.42603Z" fill="#C17750"/></g></g></svg>