<?xml version="1.0" encoding="UTF-8"?>
<!DOCTYPE svg PUBLIC "-//W3C//DTD SVG 1.1//EN" "http://www.w3.org/Graphics/SVG/1.1/DTD/svg11.dtd">
<svg xmlns="http://www.w3.org/2000/svg" version="1.1" width="648px" height="648px" style="shape-rendering:geometricPrecision; text-rendering:geometricPrecision; image-rendering:optimizeQuality; fill-rule:evenodd; clip-rule:evenodd" xmlns:xlink="http://www.w3.org/1999/xlink">
<g><path style="opacity:0.999" fill="#e5a259" d="M 493.5,186.5 C 392.207,164.958 290.874,143.624 189.5,122.5C 193.191,107.924 198.358,93.9237 205,80.5C 219.177,62.2163 237.677,55.383 260.5,60C 265.728,61.4097 270.728,63.4097 275.5,66C 299.96,83.1201 324.96,99.4535 350.5,115C 361.769,121.468 373.435,127.134 385.5,132C 398.939,134.889 411.939,133.556 424.5,128C 430.287,125.606 435.954,122.94 441.5,120C 463.297,113.043 480.797,118.877 494,137.5C 499.156,147.226 500.822,157.56 499,168.5C 497.256,174.564 495.422,180.564 493.5,186.5 Z"/></g>
<g><path style="opacity:0.999" fill="#cd7902" d="M 189.5,122.5 C 290.874,143.624 392.207,164.958 493.5,186.5C 491.166,194.501 488.833,202.501 486.5,210.5C 485.735,210.923 484.902,211.257 484,211.5C 383.054,190.145 282.221,168.478 181.5,146.5C 183.965,138.437 186.632,130.437 189.5,122.5 Z"/></g>
<g><path style="opacity:0.999" fill="#e4a258" d="M 181.5,146.5 C 282.221,168.478 383.054,190.145 484,211.5C 484.902,211.257 485.735,210.923 486.5,210.5C 497.771,213.126 509.104,215.96 520.5,219C 530.162,227.864 530.495,236.864 521.5,246C 518.361,247.728 515.028,248.894 511.5,249.5C 498.86,246.705 486.193,244.039 473.5,241.5C 469.774,239.87 465.774,238.87 461.5,238.5C 444.68,234.525 427.68,230.858 410.5,227.5C 385.24,221.955 359.907,216.622 334.5,211.5C 308.555,206.109 282.555,200.442 256.5,194.5C 228.605,188.321 200.605,182.654 172.5,177.5C 156.227,173.812 139.894,170.312 123.5,167C 113.701,162.903 110.201,155.736 113,145.5C 115.672,138.665 120.672,135.331 128,135.5C 145.977,138.621 163.81,142.287 181.5,146.5 Z"/></g>
<g><path style="opacity:0.996" fill="#58cb03" d="M 172.5,177.5 C 200.605,182.654 228.605,188.321 256.5,194.5C 252.148,198.202 247.482,201.702 242.5,205C 237.954,209.877 233.787,215.044 230,220.5C 221.45,240.966 215.283,261.966 211.5,283.5C 190.617,270.899 170.284,257.566 150.5,243.5C 158.008,221.643 165.341,199.643 172.5,177.5 Z"/></g>
<g><path style="opacity:1" fill="#89e11a" d="M 256.5,194.5 C 282.555,200.442 308.555,206.109 334.5,211.5C 333.427,212.251 333.26,213.251 334,214.5C 337.394,222.288 341.061,229.955 345,237.5C 355.18,248.696 367.346,251.53 381.5,246C 391.609,240.365 401.275,234.198 410.5,227.5C 427.68,230.858 444.68,234.525 461.5,238.5C 460.624,238.369 459.957,238.702 459.5,239.5C 460.911,246.956 459.911,254.123 456.5,261C 459.092,269.293 460.092,277.793 459.5,286.5C 454.843,305.137 449.177,323.47 442.5,341.5C 431.794,346.129 420.794,350.296 409.5,354C 404.96,358.046 400.293,361.879 395.5,365.5C 384.167,362.5 372.833,359.5 361.5,356.5C 359.153,353.139 357.319,349.472 356,345.5C 355.329,344.748 354.496,344.414 353.5,344.5C 356.544,342.091 358.878,339.091 360.5,335.5C 363.391,334.597 366.391,334.264 369.5,334.5C 369.5,331.167 369.5,327.833 369.5,324.5C 381.1,326.633 392.767,328.3 404.5,329.5C 410.792,331.193 417.292,332.526 424,333.5C 425.436,333.441 426.769,333.108 428,332.5C 433.512,317.474 437.679,302.141 440.5,286.5C 440.672,278.509 438.005,271.676 432.5,266C 415.83,265.323 399.163,264.99 382.5,265C 379.707,268.081 377.54,271.581 376,275.5C 372.055,287.169 368.221,298.836 364.5,310.5C 353.168,298.4 339.834,295.567 324.5,302C 319.833,305.333 315.833,309.333 312.5,314C 314.364,315.431 316.364,316.597 318.5,317.5C 318.672,318.492 318.338,319.158 317.5,319.5C 310.018,327.743 301.018,333.743 290.5,337.5C 288.139,337.326 285.806,336.993 283.5,336.5C 281.303,332.611 278.97,328.778 276.5,325C 254.659,311.304 232.993,297.47 211.5,283.5C 215.283,261.966 221.45,240.966 230,220.5C 233.787,215.044 237.954,209.877 242.5,205C 247.482,201.702 252.148,198.202 256.5,194.5 Z"/></g>
<g><path style="opacity:1" fill="#59cb03" d="M 334.5,211.5 C 359.907,216.622 385.24,221.955 410.5,227.5C 401.275,234.198 391.609,240.365 381.5,246C 367.346,251.53 355.18,248.696 345,237.5C 341.061,229.955 337.394,222.288 334,214.5C 333.26,213.251 333.427,212.251 334.5,211.5 Z"/></g>
<g><path style="opacity:1" fill="#fdfefc" d="M 309.5,256.5 C 303.374,268.643 294.874,270.643 284,262.5C 281.475,267.574 279.642,272.907 278.5,278.5C 264.616,272.975 250.783,267.309 237,261.5C 238.555,246.167 244.721,233 255.5,222C 256.5,221.333 257.5,221.333 258.5,222C 275.912,233.028 292.912,244.528 309.5,256.5 Z"/></g>
<g><path style="opacity:1" fill="#f8b163" d="M 150.5,243.5 C 170.284,257.566 190.617,270.899 211.5,283.5C 232.993,297.47 254.659,311.304 276.5,325C 278.97,328.778 281.303,332.611 283.5,336.5C 293.659,358.151 304.325,379.484 315.5,400.5C 319.795,410.423 324.628,420.09 330,429.5C 336.671,423.996 342.837,417.996 348.5,411.5C 364.803,396.864 380.47,381.531 395.5,365.5C 400.293,361.879 404.96,358.046 409.5,354C 420.794,350.296 431.794,346.129 442.5,341.5C 446.077,341.205 449.243,342.205 452,344.5C 456.918,352 461.584,359.667 466,367.5C 466.667,369.833 466.667,372.167 466,374.5C 464.004,377.986 461.837,381.319 459.5,384.5C 452.667,391.095 446.5,398.429 441,406.5C 437.341,410.115 433.341,410.448 429,407.5C 424.745,399.991 420.745,392.324 417,384.5C 415.537,395.793 414.204,407.126 413,418.5C 411.878,420.624 410.378,422.457 408.5,424C 381.641,430.641 354.641,436.307 327.5,441C 299.082,424.374 270.582,407.874 242,391.5C 239.826,388.454 239.159,385.12 240,381.5C 244.833,371.833 249.667,362.167 254.5,352.5C 254.167,352.167 253.833,351.833 253.5,351.5C 242.5,356.667 231.5,361.833 220.5,367C 217.594,368.318 214.594,368.652 211.5,368C 172.27,339.257 132.937,310.757 93.5,282.5C 88.0346,279.7 84.3679,275.367 82.5,269.5C 83.123,266.833 84.123,264.333 85.5,262C 101.221,253.473 117.221,245.473 133.5,238C 135.833,237.333 138.167,237.333 140.5,238C 144.021,239.592 147.354,241.425 150.5,243.5 Z"/></g>
<g><path style="opacity:0.963" fill="#5bcd06" d="M 461.5,238.5 C 465.774,238.87 469.774,239.87 473.5,241.5C 470.013,256.955 465.347,271.955 459.5,286.5C 460.092,277.793 459.092,269.293 456.5,261C 459.911,254.123 460.911,246.956 459.5,239.5C 459.957,238.702 460.624,238.369 461.5,238.5 Z"/></g>
<g><path style="opacity:0.977" fill="#8aa1a9" d="M 597.5,252.5 C 587.323,249.501 577.323,250.001 567.5,254C 547.546,263.287 532.046,277.453 521,296.5C 508.105,317.412 502.772,340.079 505,364.5C 506.384,376.266 511.218,386.266 519.5,394.5C 517.167,393.833 514.833,393.167 512.5,392.5C 502.903,386.011 496.737,377.011 494,365.5C 489.018,325.284 501.185,291.117 530.5,263C 542.698,251.487 557.198,244.987 574,243.5C 582.973,243.918 590.807,246.918 597.5,252.5 Z"/></g>
<g><path style="opacity:0.99" fill="#507482" d="M 597.5,252.5 C 605.515,255.009 612.015,259.676 617,266.5C 624.731,280.551 627.398,295.551 625,311.5C 619.95,345.457 603.783,372.623 576.5,393C 561.361,403.707 545.028,406.207 527.5,400.5C 525.14,398.147 522.473,396.147 519.5,394.5C 511.218,386.266 506.384,376.266 505,364.5C 502.772,340.079 508.105,317.412 521,296.5C 532.046,277.453 547.546,263.287 567.5,254C 577.323,250.001 587.323,249.501 597.5,252.5 Z"/></g>
<g><path style="opacity:1" fill="#4c4c4b" d="M 309.5,256.5 C 314.614,258.711 318.947,261.878 322.5,266C 319.726,274.819 317.06,283.653 314.5,292.5C 302.288,288.428 290.288,283.762 278.5,278.5C 279.642,272.907 281.475,267.574 284,262.5C 294.874,270.643 303.374,268.643 309.5,256.5 Z"/></g>
<g><path style="opacity:1" fill="#fdfefd" d="M 440.5,286.5 C 436.983,283.744 432.983,282.077 428.5,281.5C 429.322,293.852 423.488,300.518 411,301.5C 407.475,310.561 405.309,319.895 404.5,329.5C 392.767,328.3 381.1,326.633 369.5,324.5C 368.942,319.394 367.275,314.727 364.5,310.5C 368.221,298.836 372.055,287.169 376,275.5C 377.54,271.581 379.707,268.081 382.5,265C 399.163,264.99 415.83,265.323 432.5,266C 438.005,271.676 440.672,278.509 440.5,286.5 Z"/></g>
<g><path style="opacity:0.502" fill="#d2fafe" d="M 588.5,267.5 C 595.703,278.015 598.203,289.681 596,302.5C 591.783,329.106 579.617,351.272 559.5,369C 551.718,374.722 543.051,378.555 533.5,380.5C 531.793,380.272 530.126,379.938 528.5,379.5C 524.97,374.766 522.803,369.433 522,363.5C 520.529,328.277 533.362,299.444 560.5,277C 568.764,270.703 578.097,267.536 588.5,267.5 Z"/></g>
<g><path style="opacity:1" fill="#adcdd3" d="M 588.5,267.5 C 600.119,270.693 606.619,278.36 608,290.5C 609,324.993 596.5,353.493 570.5,376C 561.077,383.364 550.41,386.697 538.5,386C 534.472,384.788 531.138,382.621 528.5,379.5C 530.126,379.938 531.793,380.272 533.5,380.5C 543.051,378.555 551.718,374.722 559.5,369C 579.617,351.272 591.783,329.106 596,302.5C 598.203,289.681 595.703,278.015 588.5,267.5 Z"/></g>
<g><path style="opacity:1" fill="#4d4d4c" d="M 440.5,286.5 C 437.679,302.141 433.512,317.474 428,332.5C 426.769,333.108 425.436,333.441 424,333.5C 417.292,332.526 410.792,331.193 404.5,329.5C 405.309,319.895 407.475,310.561 411,301.5C 423.488,300.518 429.322,293.852 428.5,281.5C 432.983,282.077 436.983,283.744 440.5,286.5 Z"/></g>
<g><path style="opacity:0.999" fill="#e4a259" d="M 93.5,282.5 C 132.937,310.757 172.27,339.257 211.5,368C 214.594,368.652 217.594,368.318 220.5,367C 231.5,361.833 242.5,356.667 253.5,351.5C 253.833,351.833 254.167,352.167 254.5,352.5C 249.667,362.167 244.833,371.833 240,381.5C 239.159,385.12 239.826,388.454 242,391.5C 270.582,407.874 299.082,424.374 327.5,441C 354.641,436.307 381.641,430.641 408.5,424C 410.378,422.457 411.878,420.624 413,418.5C 414.204,407.126 415.537,395.793 417,384.5C 420.745,392.324 424.745,399.991 429,407.5C 433.341,410.448 437.341,410.115 441,406.5C 446.5,398.429 452.667,391.095 459.5,384.5C 470.833,395.167 482.167,405.833 493.5,416.5C 482.115,438.607 470.781,460.607 459.5,482.5C 444.329,484.083 429.329,483.083 414.5,479.5C 413.3,483.934 411.8,488.268 410,492.5C 408.062,495.106 405.562,496.939 402.5,498C 384.164,498.389 365.83,498.222 347.5,497.5C 295.695,494.509 243.695,492.509 191.5,491.5C 157.175,490 122.842,488.5 88.5,487C 78.0242,483.556 74.1909,476.389 77,465.5C 80.4284,452.949 83.9284,440.449 87.5,428C 71.6376,412.471 56.1376,396.638 41,380.5C 28.335,362.825 28.335,345.158 41,327.5C 58.6646,312.601 76.1646,297.601 93.5,282.5 Z"/></g>
<g><path style="opacity:1" fill="#fec201" d="M 364.5,310.5 C 367.275,314.727 368.942,319.394 369.5,324.5C 369.5,327.833 369.5,331.167 369.5,334.5C 366.391,334.264 363.391,334.597 360.5,335.5C 346.208,330.701 332.208,324.701 318.5,317.5C 316.364,316.597 314.364,315.431 312.5,314C 315.833,309.333 319.833,305.333 324.5,302C 339.834,295.567 353.168,298.4 364.5,310.5 Z"/></g>
<g><path style="opacity:1" fill="#ffdd00" d="M 337.5,303.5 C 344.948,302.65 351.448,304.65 357,309.5C 358.073,313.095 356.739,315.095 353,315.5C 348.489,313.161 343.656,311.661 338.5,311C 336.285,308.758 335.952,306.258 337.5,303.5 Z"/></g>
<g><path style="opacity:1" fill="#f29000" d="M 318.5,317.5 C 332.208,324.701 346.208,330.701 360.5,335.5C 358.878,339.091 356.544,342.091 353.5,344.5C 337.097,352.533 325.263,348.2 318,331.5C 317.501,327.514 317.334,323.514 317.5,319.5C 318.338,319.158 318.672,318.492 318.5,317.5 Z"/></g>
<g><path style="opacity:1" fill="#61cd15" d="M 317.5,319.5 C 317.334,323.514 317.501,327.514 318,331.5C 325.263,348.2 337.097,352.533 353.5,344.5C 354.496,344.414 355.329,344.748 356,345.5C 357.319,349.472 359.153,353.139 361.5,356.5C 337.604,350.611 313.937,344.278 290.5,337.5C 301.018,333.743 310.018,327.743 317.5,319.5 Z"/></g>
<g><path style="opacity:1" fill="#fdfdfc" d="M 283.5,336.5 C 285.806,336.993 288.139,337.326 290.5,337.5C 313.937,344.278 337.604,350.611 361.5,356.5C 372.833,359.5 384.167,362.5 395.5,365.5C 380.47,381.531 364.803,396.864 348.5,411.5C 348.813,402.116 349.646,392.783 351,383.5C 358.415,380.325 360.415,374.992 357,367.5C 355.786,365.951 354.286,364.785 352.5,364C 346.623,362.573 340.79,361.073 335,359.5C 328.833,360.333 325.333,363.833 324.5,370C 325.276,373.323 326.109,376.489 327,379.5C 323.154,386.527 319.321,393.527 315.5,400.5C 304.325,379.484 293.659,358.151 283.5,336.5 Z"/></g>
<g><path style="opacity:1" fill="#4c4c4c" d="M 348.5,411.5 C 342.837,417.996 336.671,423.996 330,429.5C 324.628,420.09 319.795,410.423 315.5,400.5C 319.321,393.527 323.154,386.527 327,379.5C 326.109,376.489 325.276,373.323 324.5,370C 325.333,363.833 328.833,360.333 335,359.5C 340.79,361.073 346.623,362.573 352.5,364C 354.286,364.785 355.786,365.951 357,367.5C 360.415,374.992 358.415,380.325 351,383.5C 349.646,392.783 348.813,402.116 348.5,411.5 Z"/></g>
<g><path style="opacity:1" fill="#cd7a02" d="M 186.5,374.5 C 192.53,373.868 195.863,376.535 196.5,382.5C 196.023,402.288 188.023,418.121 172.5,430C 159.833,437.333 147.167,444.667 134.5,452C 130.731,454.515 126.731,455.015 122.5,453.5C 118.554,449.706 118.554,445.872 122.5,442C 135.833,434.333 149.167,426.667 162.5,419C 175.768,409.296 182.268,396.13 182,379.5C 183.025,377.313 184.525,375.646 186.5,374.5 Z"/></g>
<g><path style="opacity:0.991" fill="#bed3da" d="M 512.5,392.5 C 514.833,393.167 517.167,393.833 519.5,394.5C 522.473,396.147 525.14,398.147 527.5,400.5C 524.991,406.192 521.991,411.526 518.5,416.5C 512.984,414.578 507.984,411.912 503.5,408.5C 506.991,403.526 509.991,398.192 512.5,392.5 Z"/></g>
<g><path style="opacity:0.989" fill="#507380" d="M 503.5,408.5 C 507.984,411.912 512.984,414.578 518.5,416.5C 522.218,421.051 522.218,425.718 518.5,430.5C 500.804,424.177 492.471,430.511 493.5,449.5C 493.967,458.497 494.3,467.497 494.5,476.5C 491.188,481.113 488.354,486.113 486,491.5C 481.384,496.304 476.217,496.804 470.5,493C 468.33,491.414 465.996,490.08 463.5,489C 461.266,487.362 459.933,485.195 459.5,482.5C 470.781,460.607 482.115,438.607 493.5,416.5C 494.741,411.263 498.074,408.596 503.5,408.5 Z"/></g>
<g><path style="opacity:0.987" fill="#58cb05" d="M 518.5,430.5 C 525.448,440.515 525.948,450.848 520,461.5C 517.833,465 515,467.833 511.5,470C 505.922,472.469 500.255,474.636 494.5,476.5C 494.3,467.497 493.967,458.497 493.5,449.5C 492.471,430.511 500.804,424.177 518.5,430.5 Z"/></g>
<g><path style="opacity:0.98" fill="#59cc05" d="M 191.5,491.5 C 243.695,492.509 295.695,494.509 347.5,497.5C 296.461,523.26 245.794,522.427 195.5,495C 193.907,494.051 192.574,492.885 191.5,491.5 Z"/></g>
<g><path style="opacity:0.973" fill="#f49000" d="M 191.5,572.5 C 188.185,573.164 184.852,573.831 181.5,574.5C 177.87,573.574 174.203,572.907 170.5,572.5C 155.77,565.602 145.27,554.602 139,539.5C 137.765,519.737 146.932,511.57 166.5,515C 173.248,518.485 177.914,523.818 180.5,531C 184.683,533.257 189.016,535.257 193.5,537C 205.644,549.549 204.977,561.382 191.5,572.5 Z"/></g>
<g><path style="opacity:0.975" fill="#f49000" d="M 357.5,572.5 C 347.478,575.086 337.478,575.086 327.5,572.5C 317.217,564.985 314.717,555.318 320,543.5C 326.654,535.721 335.154,532.221 345.5,533C 348.5,530.667 351.5,528.333 354.5,526C 371.874,519.02 382.541,524.687 386.5,543C 386.086,547.077 384.919,550.91 383,554.5C 375.94,562.756 367.44,568.756 357.5,572.5 Z"/></g>
<g><path style="opacity:0.301" fill="#b2b2b2" d="M 170.5,572.5 C 174.203,572.907 177.87,573.574 181.5,574.5C 184.852,573.831 188.185,573.164 191.5,572.5C 236.833,572.5 282.167,572.5 327.5,572.5C 337.478,575.086 347.478,575.086 357.5,572.5C 397.206,572.029 436.873,572.529 476.5,574C 487.144,581.607 487.144,589.274 476.5,597C 351.167,597.667 225.833,597.667 100.5,597C 93.4505,592.513 91.6172,586.346 95,578.5C 96.5429,576.622 98.3762,575.122 100.5,574C 123.789,572.552 147.122,572.052 170.5,572.5 Z"/></g>
</svg>
