<svg xmlns="http://www.w3.org/2000/svg" xmlns:xlink="http://www.w3.org/1999/xlink" width="4100" height="2300" style="width:100%;height:100%;transform:translate3d(0,0,0);content-visibility:visible"><defs><mask id="aA" mask-type="alpha"><use xlink:href="#a"/></mask><mask id="ay" mask-type="alpha"><use xlink:href="#b"/></mask><mask id="ax" mask-type="alpha"><use xlink:href="#c"/></mask><mask id="av" mask-type="alpha"><use xlink:href="#d"/></mask><mask id="au" mask-type="alpha"><use xlink:href="#e"/></mask><mask id="as" mask-type="alpha"><use xlink:href="#f"/></mask><mask id="aq" mask-type="alpha"><g filter="url(#g)"><use xlink:href="#h"/></g></mask><mask id="ap" mask-type="alpha"><use xlink:href="#i"/></mask><mask id="ao" mask-type="alpha"><use xlink:href="#j"/></mask><mask id="am" mask-type="alpha"><use xlink:href="#k"/></mask><mask id="al" mask-type="alpha"><use xlink:href="#l"/></mask><mask id="aj" mask-type="alpha"><use xlink:href="#m"/></mask><mask id="ai" mask-type="alpha"><use xlink:href="#n"/></mask><mask id="ah" mask-type="alpha"><use xlink:href="#o"/></mask><mask id="af" mask-type="alpha"><use xlink:href="#p"/></mask><mask id="ae" mask-type="alpha"><use xlink:href="#q"/></mask><mask id="ad" mask-type="alpha"><use xlink:href="#r"/></mask><mask id="ac" mask-type="alpha"><use xlink:href="#s"/></mask><mask id="aa" mask-type="alpha"><use xlink:href="#t"/></mask><mask id="Z" mask-type="alpha"><g filter="url(#u)"><use xlink:href="#v"/></g></mask><mask id="X" mask-type="alpha"><use xlink:href="#w"/></mask><mask id="W" mask-type="alpha"><use xlink:href="#x"/></mask><mask id="U" mask-type="alpha"><use xlink:href="#y"/></mask><mask id="T" mask-type="alpha"><use xlink:href="#z"/></mask><mask id="S" mask-type="alpha"><use xlink:href="#A"/></mask><mask id="Q" mask-type="alpha"><use xlink:href="#B"/></mask><mask id="P" mask-type="alpha"><use xlink:href="#C"/></mask><mask id="N" mask-type="alpha"><use xlink:href="#D"/></mask><mask id="M" mask-type="alpha"><use xlink:href="#E"/></mask><mask id="L" mask-type="alpha"><use xlink:href="#F"/></mask><mask id="K" mask-type="alpha"><use xlink:href="#G"/></mask><g id="a" style="display:block"><path fill="#FFF" d="M978.4 52.72c12.76 11.43 297.75 272.46 308.8 284.45 18.3 19.83 15.2 35.01 2.8 52.73-12.5 17.85-80.75 116.6-100.05 143.88-8.7 12.3-19.63 15.21-37.2-3-13.79-14.32-274.08-270.5-288.44-286.65-12.6-14.17-14.8-25.34-4.63-45.24 6.35-12.43 81.07-130.39 91.58-146.7 5.39-8.35 15.99-9.44 27.14.53z"/><path fill-opacity="0" stroke="#3D3D3D" stroke-width="0" d="M978.4 52.72c12.76 11.43 297.75 272.46 308.8 284.45 18.3 19.83 15.2 35.01 2.8 52.73-12.5 17.85-80.75 116.6-100.05 143.88-8.7 12.3-19.63 15.21-37.2-3-13.79-14.32-274.08-270.5-288.44-286.65-12.6-14.17-14.8-25.34-4.63-45.24 6.35-12.43 81.07-130.39 91.58-146.7 5.39-8.35 15.99-9.44 27.14.53z"/></g><g id="b" style="display:block"><path fill="#FFF" d="M368.71 745.89C357.34 733.08 113 441 101.2 425.99c-14.24-18.11-14.45-37.74-10.87-50.75 5.5-19.94 39.17-140.74 48.32-171.88 4.25-14.45 15.85-10.61 23.46-.62 7.62 10 236.89 308.26 250.66 326.84 12.26 16.54 12.48 27.32 9.8 49.5-1.67 13.86-24.2 147.74-28.72 169.93C391 763 383 762 368.7 745.9z"/><path fill-opacity="0" stroke="#3D3D3D" stroke-width="0" d="M368.71 745.89C357.34 733.08 113 441 101.2 425.99c-14.24-18.11-14.45-37.74-10.87-50.75 5.5-19.94 39.17-140.74 48.32-171.88 4.25-14.45 15.85-10.61 23.46-.62 7.62 10 236.89 308.26 250.66 326.84 12.26 16.54 12.48 27.32 9.8 49.5-1.67 13.86-24.2 147.74-28.72 169.93C391 763 383 762 368.7 745.9z"/></g><g id="d" style="display:block"><path fill="#FFF" d="M368.71 745.89C357.34 733.08 113 441 101.2 425.99 86.96 407.88 207.3 126.72 394.65 51.36 582-24 924.23 1.5 977.61 51.24 1031 101 1258 309 1286.77 336.58c2.84 2.73 18.23 16.17 11.64 39.06-26.57 92.23-118.76 334.35-356.56 469.37C647.7 1012.03 383 762 368.7 745.9z"/><path fill-opacity="0" stroke="#3D3D3D" stroke-width="0" d="M368.71 745.89C357.34 733.08 113 441 101.2 425.99 86.96 407.88 207.3 126.72 394.65 51.36 582-24 924.23 1.5 977.61 51.24 1031 101 1258 309 1286.77 336.58c2.84 2.73 18.23 16.17 11.64 39.06-26.57 92.23-118.76 334.35-356.56 469.37C647.7 1012.03 383 762 368.7 745.9z"/></g><g id="c" style="display:block"><path fill="#00C0FF" d="M531.16 277.65c-20.49 18.22-16.84 45.95.74 64.11 19.1 19.74 50.72 17.86 72.59 12.35 20.94-5.28 52.02-23.93 64.1-34.81 17.11-15.43 36.41-42.8 10-76.07-23.65-29.79-58.06-18.94-73.56-7.71-22.8 16.52-50.42 21.28-73.87 42.13z"/><path fill-opacity="0" stroke="#3D3D3D" stroke-width="0" d="M531.16 277.65c-20.49 18.22-16.84 45.95.74 64.11 19.1 19.74 50.72 17.86 72.59 12.35 20.94-5.28 52.02-23.93 64.1-34.81 17.11-15.43 36.41-42.8 10-76.07-23.65-29.79-58.06-18.94-73.56-7.71-22.8 16.52-50.42 21.28-73.87 42.13z"/></g><g id="e" style="display:block"><path fill="#FFF" d="M978.4 52.72c12.76 11.43 297.75 272.46 308.8 284.45 18.3 19.83 15.2 35.01 2.8 52.73-12.5 17.85-80.75 116.6-100.05 143.88-8.7 12.3-19.63 15.21-37.2-3-13.79-14.32-274.08-270.5-288.44-286.65-12.6-14.17-14.8-25.34-4.63-45.24 6.35-12.43 81.07-130.39 91.58-146.7 5.39-8.35 15.99-9.44 27.14.53z"/><path fill-opacity="0" stroke="#3D3D3D" stroke-width="0" d="M978.4 52.72c12.76 11.43 297.75 272.46 308.8 284.45 18.3 19.83 15.2 35.01 2.8 52.73-12.5 17.85-80.75 116.6-100.05 143.88-8.7 12.3-19.63 15.21-37.2-3-13.79-14.32-274.08-270.5-288.44-286.65-12.6-14.17-14.8-25.34-4.63-45.24 6.35-12.43 81.07-130.39 91.58-146.7 5.39-8.35 15.99-9.44 27.14.53z"/></g><g id="h" style="display:block"><path fill="#FFF" d="M368.71 745.89c-5.44-6.13-125.35-149.27-125.35-149.27s172.14-50.87 177.68-52.63c3.84 10.02 3.37 19.87 1.53 35.1-1.67 13.85-24.2 147.73-28.72 169.92C391 763 383 762 368.7 745.9z"/><path fill-opacity="0" stroke="#3D3D3D" stroke-width="0" d="M368.71 745.89c-5.44-6.13-125.35-149.27-125.35-149.27s172.14-50.87 177.68-52.63c3.84 10.02 3.37 19.87 1.53 35.1-1.67 13.85-24.2 147.73-28.72 169.92C391 763 383 762 368.7 745.9z"/></g><g id="f" style="display:block"><path fill="#FFF" d="M368.71 745.89C357.34 733.08 113 441 101.2 425.99c-14.24-18.11-14.45-37.74-10.87-50.75 5.5-19.94 39.17-140.74 48.32-171.88 4.25-14.45 15.85-10.61 23.46-.62 7.62 10 236.89 308.26 250.66 326.84 12.26 16.54 12.48 27.32 9.8 49.5-1.67 13.86-24.2 147.74-28.72 169.93C391 763 383 762 368.7 745.9z"/><path fill-opacity="0" stroke="#3D3D3D" stroke-width="0" d="M368.71 745.89C357.34 733.08 113 441 101.2 425.99c-14.24-18.11-14.45-37.74-10.87-50.75 5.5-19.94 39.17-140.74 48.32-171.88 4.25-14.45 15.85-10.61 23.46-.62 7.62 10 236.89 308.26 250.66 326.84 12.26 16.54 12.48 27.32 9.8 49.5-1.67 13.86-24.2 147.74-28.72 169.93C391 763 383 762 368.7 745.9z"/></g><g id="i" style="display:block"><path fill="#FFF" d="M368.71 745.89C357.34 733.08 113 441 101.2 425.99c-14.24-18.11-14.45-37.74-10.87-50.75 5.5-19.94 39.17-140.74 48.32-171.88 4.25-14.45 15.85-10.61 23.46-.62 7.62 10 236.89 308.26 250.66 326.84 12.26 16.54 12.48 27.32 9.8 49.5-1.67 13.86-24.2 147.74-28.72 169.93C391 763 383 762 368.7 745.9z"/><path fill-opacity="0" stroke="#3D3D3D" stroke-width="0" d="M368.71 745.89C357.34 733.08 113 441 101.2 425.99c-14.24-18.11-14.45-37.74-10.87-50.75 5.5-19.94 39.17-140.74 48.32-171.88 4.25-14.45 15.85-10.61 23.46-.62 7.62 10 236.89 308.26 250.66 326.84 12.26 16.54 12.48 27.32 9.8 49.5-1.67 13.86-24.2 147.74-28.72 169.93C391 763 383 762 368.7 745.9z"/></g><g id="j" style="display:block"><path fill="#FFF" d="M368.71 745.89C357.34 733.08 113 441 101.2 425.99c-14.24-18.11-14.45-37.74-10.87-50.75 5.5-19.94 39.17-140.74 48.32-171.88 4.25-14.45 15.85-10.61 23.46-.62 7.62 10 236.89 308.26 250.66 326.84 12.26 16.54 12.48 27.32 9.8 49.5-1.67 13.86-24.2 147.74-28.72 169.93C391 763 383 762 368.7 745.9z"/><path fill-opacity="0" stroke="#3D3D3D" stroke-width="0" d="M368.71 745.89C357.34 733.08 113 441 101.2 425.99c-14.24-18.11-14.45-37.74-10.87-50.75 5.5-19.94 39.17-140.74 48.32-171.88 4.25-14.45 15.85-10.61 23.46-.62 7.62 10 236.89 308.26 250.66 326.84 12.26 16.54 12.48 27.32 9.8 49.5-1.67 13.86-24.2 147.74-28.72 169.93C391 763 383 762 368.7 745.9z"/></g><g id="k" style="display:block"><path fill="#FFF" d="M500.32 932.72c17.16 5.5 418.92 66.72 435.47 68.88 22.64 2.94 42.04 1.4 60.15-3.19 18.11-4.58 165.81-40.66 199.7-48.37 11.81-2.68 16.13-9.55.35-12.08-24.74-3.96-419.74-59.46-440.66-61.7-19.46-2.1-37.08-1.43-50.24.96-16.59 3.03-186.42 41.83-200.54 45.26-9.69 2.35-12.63 7.55-4.23 10.24z"/><path fill-opacity="0" stroke="#3D3D3D" stroke-width="0" d="M500.32 932.72c17.16 5.5 418.92 66.72 435.47 68.88 22.64 2.94 42.04 1.4 60.15-3.19 18.11-4.58 165.81-40.66 199.7-48.37 11.81-2.68 16.13-9.55.35-12.08-24.74-3.96-419.74-59.46-440.66-61.7-19.46-2.1-37.08-1.43-50.24.96-16.59 3.03-186.42 41.83-200.54 45.26-9.69 2.35-12.63 7.55-4.23 10.24z"/></g><g id="l" style="display:block"><path fill="#FFF" d="M74.58 513.85c5.96-16.05 151.42-390.6 157.8-405.6 9.02-21.2 27-28.34 46.29-28.25 20.68.1 144.83.75 179.03-.11 15.06-.38 31.05 6.11 22.4 29.9-6.8 18.67-150.6 383.46-158.8 403.46-7.2 17.54-22.55 27.5-44.9 27.1-13.95-.24-171.05-2-188.59-2.2-9.93-.12-17.56-12.65-13.23-24.3z"/><path fill-opacity="0" stroke="#3D3D3D" stroke-width="0" d="M74.58 513.85c5.96-16.05 151.42-390.6 157.8-405.6 9.02-21.2 27-28.34 46.29-28.25 20.68.1 144.83.75 179.03-.11 15.06-.38 31.05 6.11 22.4 29.9-6.8 18.67-150.6 383.46-158.8 403.46-7.2 17.54-22.55 27.5-44.9 27.1-13.95-.24-171.05-2-188.59-2.2-9.93-.12-17.56-12.65-13.23-24.3z"/></g><g id="p" style="display:block"><path fill="#FFF" d="M74.58 513.85c5.96-16.05 151.42-390.6 157.8-405.6 9.02-21.2 27-28.34 46.29-28.25 20.68.1 144.83.75 179.03-.11 15.06-.38 716.3 52.11 738.4 869.9-20.6 5.21-156.67 37.95-186.8 45.96-34.8 9.25-62.8 8.75-94.4 3.6-13.77-2.23-381.9-60.35-413.59-65.7-9.8-1.66-431.06-408.15-426.73-419.8z"/><path fill-opacity="0" stroke="#3D3D3D" stroke-width="0" d="M74.58 513.85c5.96-16.05 151.42-390.6 157.8-405.6 9.02-21.2 27-28.34 46.29-28.25 20.68.1 144.83.75 179.03-.11 15.06-.38 716.3 52.11 738.4 869.9-20.6 5.21-156.67 37.95-186.8 45.96-34.8 9.25-62.8 8.75-94.4 3.6-13.77-2.23-381.9-60.35-413.59-65.7-9.8-1.66-431.06-408.15-426.73-419.8z"/></g><g id="m" style="display:block"><path fill="#00C0FF" d="M807.5 604c-15.07 0-43.14.22-55 28.5-13 31 6 51.5 26.5 59s32 16.5 43 25 40.5 30.5 69 8 12-60.09 0-75C874.5 629 839 604 807.5 604z"/><path fill-opacity="0" stroke="#3D3D3D" stroke-width="0" d="M807.5 604c-15.07 0-43.14.22-55 28.5-13 31 6 51.5 26.5 59s32 16.5 43 25 40.5 30.5 69 8 12-60.09 0-75C874.5 629 839 604 807.5 604z"/></g><g id="n" style="display:block"><path fill="#00C0FF" d="M807.5 604c-15.07 0-43.14.22-55 28.5-13 31 6 51.5 26.5 59s32 16.5 43 25 40.5 30.5 69 8 12-60.09 0-75C874.5 629 839 604 807.5 604z"/><path fill-opacity="0" stroke="#3D3D3D" stroke-width="0" d="M807.5 604c-15.07 0-43.14.22-55 28.5-13 31 6 51.5 26.5 59s32 16.5 43 25 40.5 30.5 69 8 12-60.09 0-75C874.5 629 839 604 807.5 604z"/></g><g id="o" style="display:block"><path fill="#00C0FF" d="M807.5 604c-15.07 0-43.14.22-55 28.5-13 31 6 51.5 26.5 59s32 16.5 43 25 40.5 30.5 69 8 12-60.09 0-75C874.5 629 839 604 807.5 604z"/><path fill-opacity="0" stroke="#3D3D3D" stroke-width="0" d="M807.5 604c-15.07 0-43.14.22-55 28.5-13 31 6 51.5 26.5 59s32 16.5 43 25 40.5 30.5 69 8 12-60.09 0-75C874.5 629 839 604 807.5 604z"/></g><g id="t" style="display:block"><path fill="#FFF" d="M74.58 513.85c5.96-16.05 151.42-390.6 157.8-405.6 9.02-21.2 27-28.34 46.29-28.25 20.68.1 144.83.75 179.03-.11 15.06-.38 716.3 52.11 738.4 869.9-20.6 5.21-156.67 37.95-186.8 45.96-34.8 9.25-62.8 8.75-94.4 3.6-13.77-2.23-381.9-60.35-413.59-65.7-9.8-1.66-431.06-408.15-426.73-419.8z"/><path fill-opacity="0" stroke="#3D3D3D" stroke-width="0" d="M74.58 513.85c5.96-16.05 151.42-390.6 157.8-405.6 9.02-21.2 27-28.34 46.29-28.25 20.68.1 144.83.75 179.03-.11 15.06-.38 716.3 52.11 738.4 869.9-20.6 5.21-156.67 37.95-186.8 45.96-34.8 9.25-62.8 8.75-94.4 3.6-13.77-2.23-381.9-60.35-413.59-65.7-9.8-1.66-431.06-408.15-426.73-419.8z"/></g><g id="q" style="display:block"><path fill="#9F9F9F" d="M525.25 336.5c-40.25-1.5-67.36 21.4-66 50.75 1.25 27 10.02 33 26.5 41.75 16 8.5 38.02 10.14 53.5 11 22.5 1.25 30.75-18.5 31.25-23.75 59 0 113.25-2 113.25-2s32.75-62-41.75-71.25c-35.83-4.45-66.72-4.64-116.75-6.5z"/><path fill-opacity="0" stroke="#3D3D3D" stroke-width="0" d="M525.25 336.5c-40.25-1.5-67.36 21.4-66 50.75 1.25 27 10.02 33 26.5 41.75 16 8.5 38.02 10.14 53.5 11 22.5 1.25 30.75-18.5 31.25-23.75 59 0 113.25-2 113.25-2s32.75-62-41.75-71.25c-35.83-4.45-66.72-4.64-116.75-6.5z"/></g><g id="r" style="display:block"><path fill="#3D3D3D" d="M602.75 433c-20.19 2.38-19.25 22.25-18.75 39 6.5-1.5 27.75 0 36.25 6.5 6.75-16.75 3.75-48-17.5-45.5z"/><path fill-opacity="0" stroke="#FF8E00" stroke-width="0" d="M602.75 433c-20.19 2.38-19.25 22.25-18.75 39 6.5-1.5 27.75 0 36.25 6.5 6.75-16.75 3.75-48-17.5-45.5z"/><path fill="#3D3D3D" d="M652.5 434.75C632 437 637 461.25 638 479c12.75-9.25 25.25-11.75 34.5-13.25.5-11 .5-33.25-20-31z"/><path fill-opacity="0" stroke="#FF8E00" stroke-width="0" d="M652.5 434.75C632 437 637 461.25 638 479c12.75-9.25 25.25-11.75 34.5-13.25.5-11 .5-33.25-20-31z"/></g><g id="s" style="display:block"><path fill="#FF3743" d="M633.88 491.63c-8-4.25-12.75.37-16.88 6-4.13 5.62-5.73 13.76 1.75 18.25 6.88 4.12 13.5.12 17.25-5 3.75-5.13 7.04-14.39-2.13-19.25z"/><path fill-opacity="0" stroke="#FF8E00" stroke-width="0" d="M633.88 491.63c-8-4.25-12.75.37-16.88 6-4.13 5.62-5.73 13.76 1.75 18.25 6.88 4.12 13.5.12 17.25-5 3.75-5.13 7.04-14.39-2.13-19.25z"/></g><g id="w" style="display:block"><path fill="#FFF" d="M74.58 513.85c5.96-16.05 151.42-390.6 157.8-405.6 9.02-21.2 27-28.34 46.29-28.25 20.68.1 144.83.75 179.03-.11 15.06-.38 31.05 6.11 22.4 29.9-6.8 18.67-150.6 383.46-158.8 403.46-7.2 17.54-22.55 27.5-44.9 27.1-13.95-.24-171.05-2-188.59-2.2-9.93-.12-17.56-12.65-13.23-24.3z"/><path fill-opacity="0" stroke="#3D3D3D" stroke-width="0" d="M74.58 513.85c5.96-16.05 151.42-390.6 157.8-405.6 9.02-21.2 27-28.34 46.29-28.25 20.68.1 144.83.75 179.03-.11 15.06-.38 31.05 6.11 22.4 29.9-6.8 18.67-150.6 383.46-158.8 403.46-7.2 17.54-22.55 27.5-44.9 27.1-13.95-.24-171.05-2-188.59-2.2-9.93-.12-17.56-12.65-13.23-24.3z"/></g><g id="v" style="display:block"><path fill="#C4F3FF" d="M224 72 48.5 536l53.5 8s32-88 36-99.5 15.5-15 23.5-4 88 125.5 88 125.5l85.5-6L516 74l-292-2z"/><path fill-opacity="0" stroke="#E5E5E5" stroke-width="0" d="M224 72 48.5 536l53.5 8s32-88 36-99.5 15.5-15 23.5-4 88 125.5 88 125.5l85.5-6L516 74l-292-2z"/></g><g id="x" style="display:block"><path fill="#FFF" d="M74.58 513.85c5.96-16.05 151.42-390.6 157.8-405.6 9.02-21.2 27-28.34 46.29-28.25 20.68.1 144.83.75 179.03-.11 15.06-.38 31.05 6.11 22.4 29.9-6.8 18.67-150.6 383.46-158.8 403.46-7.2 17.54-22.55 27.5-44.9 27.1-13.95-.24-171.05-2-188.59-2.2-9.93-.12-17.56-12.65-13.23-24.3z"/><path fill-opacity="0" stroke="#3D3D3D" stroke-width="0" d="M74.58 513.85c5.96-16.05 151.42-390.6 157.8-405.6 9.02-21.2 27-28.34 46.29-28.25 20.68.1 144.83.75 179.03-.11 15.06-.38 31.05 6.11 22.4 29.9-6.8 18.67-150.6 383.46-158.8 403.46-7.2 17.54-22.55 27.5-44.9 27.1-13.95-.24-171.05-2-188.59-2.2-9.93-.12-17.56-12.65-13.23-24.3z"/></g><g id="y" style="display:block"><path fill="#FFF" d="M500.32 932.72c17.16 5.5 418.92 66.72 435.47 68.88 22.64 2.94 42.04 1.4 60.15-3.19 18.11-4.58 165.81-40.66 199.7-48.37 11.81-2.68 16.13-9.55.35-12.08-24.74-3.96-419.74-59.46-440.66-61.7-19.46-2.1-37.08-1.43-50.24.96-16.59 3.03-186.42 41.83-200.54 45.26-9.69 2.35-12.63 7.55-4.23 10.24z"/><path fill-opacity="0" stroke="#3D3D3D" stroke-width="0" d="M500.32 932.72c17.16 5.5 418.92 66.72 435.47 68.88 22.64 2.94 42.04 1.4 60.15-3.19 18.11-4.58 165.81-40.66 199.7-48.37 11.81-2.68 16.13-9.55.35-12.08-24.74-3.96-419.74-59.46-440.66-61.7-19.46-2.1-37.08-1.43-50.24.96-16.59 3.03-186.42 41.83-200.54 45.26-9.69 2.35-12.63 7.55-4.23 10.24z"/></g><g id="z" style="display:block"><path fill="#FFF" d="M74.58 513.85c5.96-16.05 151.42-390.6 157.8-405.6 9.02-21.2 27-28.34 46.29-28.25 20.68.1 144.83.75 179.03-.11 15.06-.38 31.05 6.11 22.4 29.9-6.8 18.67-150.6 383.46-158.8 403.46-7.2 17.54-22.55 27.5-44.9 27.1-13.95-.24-171.05-2-188.59-2.2-9.93-.12-17.56-12.65-13.23-24.3z"/><path fill-opacity="0" stroke="#3D3D3D" stroke-width="0" d="M74.58 513.85c5.96-16.05 151.42-390.6 157.8-405.6 9.02-21.2 27-28.34 46.29-28.25 20.68.1 144.83.75 179.03-.11 15.06-.38 31.05 6.11 22.4 29.9-6.8 18.67-150.6 383.46-158.8 403.46-7.2 17.54-22.55 27.5-44.9 27.1-13.95-.24-171.05-2-188.59-2.2-9.93-.12-17.56-12.65-13.23-24.3z"/></g><g id="A" style="display:block"><path fill="#090709" d="M465.5 938.45c0 7.3.73 20.5.89 24.75.26 7.26 2.86 15.8 17.06 18.28 21.22 3.71 427.43 67.3 445.27 69.99 17.84 2.7 58.66 4.03 78.3-.95 19.65-4.97-13.05-37.56-35.94-36.38-16.58.86-26.33-.39-38.7-2.35-12.36-1.96-416.28-67.77-446.54-72.72-25.71-4.2-15.84-15.57-13.65-18.23-7.81 3.16-6.68 11.53-6.68 17.6z"/><path fill-opacity="0" stroke="#3D3D3D" stroke-width="0" d="M465.5 938.45c0 7.3.73 20.5.89 24.75.26 7.26 2.86 15.8 17.06 18.28 21.22 3.71 427.43 67.3 445.27 69.99 17.84 2.7 58.66 4.03 78.3-.95 19.65-4.97-13.05-37.56-35.94-36.38-16.58.86-26.33-.39-38.7-2.35-12.36-1.96-416.28-67.77-446.54-72.72-25.71-4.2-15.84-15.57-13.65-18.23-7.81 3.16-6.68 11.53-6.68 17.6z"/></g><g id="B" style="display:block"><path fill="#FFF" d="M1127 154.78c10.25 13.72 239.87 320.08 249.33 334.01 12.94 19.07 19.59 37.74 19.75 57.03.17 20.68-3.83 143.18-4.64 176.5-.48 19.42-10.44 16.93-17.13 7.85-11.78-16-235.45-329.7-246.4-346.16-10.66-16.01-13.71-26.79-14.66-40.7-.95-13.93-1-169.06-1.02-186.6-.01-9.94 9.49-8.99 14.76-1.93z"/><path fill-opacity="0" stroke="#3D3D3D" stroke-width="0" d="M1127 154.78c10.25 13.72 239.87 320.08 249.33 334.01 12.94 19.07 19.59 37.74 19.75 57.03.17 20.68-3.83 143.18-4.64 176.5-.48 19.42-10.44 16.93-17.13 7.85-11.78-16-235.45-329.7-246.4-346.16-10.66-16.01-13.71-26.79-14.66-40.7-.95-13.93-1-169.06-1.02-186.6-.01-9.94 9.49-8.99 14.76-1.93z"/></g><g id="C" style="display:block"><path fill="#FFF" d="M328.4 332.2c6.46 16.83 140.76 339.65 147.45 355.13 9.15 21.17 22.02 35.87 37.92 46.93 15.9 11.06 139.98 100.24 168.06 120.8 9.77 7.15 16.5 5.47 9.81-9.05-8.32-18.07-164.2-344.54-172.5-362.52-8.3-17.98-18.96-31.87-30.26-40.16C477.6 435.03 349.5 336.25 338 327.39c-7.9-6.1-12.74-3.42-9.58 4.82z"/><path fill-opacity="0" stroke="#3D3D3D" stroke-width="0" d="M328.4 332.2c6.46 16.83 140.76 339.65 147.45 355.13 9.15 21.17 22.02 35.87 37.92 46.93 15.9 11.06 139.98 100.24 168.06 120.8 9.77 7.15 16.5 5.47 9.81-9.05-8.32-18.07-164.2-344.54-172.5-362.52-8.3-17.98-18.96-31.87-30.26-40.16C477.6 435.03 349.5 336.25 338 327.39c-7.9-6.1-12.74-3.42-9.58 4.82z"/></g><g id="D" style="display:block"><path fill="#FFF" d="M328.4 332.2c6.46 16.83 140.84 339.62 147.45 355.13 5.4 12.67 16.15 32.17 32.52 43.22 24.76 16.7 116.63 83.45 176.8 127.3 52.08 37.95 310.66 139.2 310.66 139.2l391.81-130.79s6.11-189.51 8.96-309.77c.7-29.73-5.2-47.7-23.44-72.17L1030.64 24.99l-415.76 86.34L310 115.39s15.26 208.58 18.42 216.82z"/><path fill-opacity="0" stroke="#3D3D3D" stroke-width="0" d="M328.4 332.2c6.46 16.83 140.84 339.62 147.45 355.13 5.4 12.67 16.15 32.17 32.52 43.22 24.76 16.7 116.63 83.45 176.8 127.3 52.08 37.95 310.66 139.2 310.66 139.2l391.81-130.79s6.11-189.51 8.96-309.77c.7-29.73-5.2-47.7-23.44-72.17L1030.64 24.99l-415.76 86.34L310 115.39s15.26 208.58 18.42 216.82z"/></g><g id="E" style="display:block"><path fill="#FFF" d="M1127 154.78c10.25 13.72 239.87 320.08 249.33 334.01 12.94 19.07 19.59 37.74 19.75 57.03.17 20.68-3.83 143.18-4.64 176.5-.48 19.42-10.44 16.93-17.13 7.85-11.78-16-235.45-329.7-246.4-346.16-10.66-16.01-13.71-26.79-14.66-40.7-.95-13.93-1-169.06-1.02-186.6-.01-9.94 9.49-8.99 14.76-1.93z"/><path fill-opacity="0" stroke="#3D3D3D" stroke-width="0" d="M1127 154.78c10.25 13.72 239.87 320.08 249.33 334.01 12.94 19.07 19.59 37.74 19.75 57.03.17 20.68-3.83 143.18-4.64 176.5-.48 19.42-10.44 16.93-17.13 7.85-11.78-16-235.45-329.7-246.4-346.16-10.66-16.01-13.71-26.79-14.66-40.7-.95-13.93-1-169.06-1.02-186.6-.01-9.94 9.49-8.99 14.76-1.93z"/></g><g id="F" style="display:block"><path fill="#FFF" d="M1127 154.78c10.25 13.72 239.87 320.08 249.33 334.01 12.94 19.07 19.59 37.74 19.75 57.03.17 20.68-3.83 143.18-4.64 176.5-.48 19.42-10.44 16.93-17.13 7.85-11.78-16-235.45-329.7-246.4-346.16-10.66-16.01-13.71-26.79-14.66-40.7-.95-13.93-1-169.06-1.02-186.6-.01-9.94 9.49-8.99 14.76-1.93z"/><path fill-opacity="0" stroke="#3D3D3D" stroke-width="0" d="M1127 154.78c10.25 13.72 239.87 320.08 249.33 334.01 12.94 19.07 19.59 37.74 19.75 57.03.17 20.68-3.83 143.18-4.64 176.5-.48 19.42-10.44 16.93-17.13 7.85-11.78-16-235.45-329.7-246.4-346.16-10.66-16.01-13.71-26.79-14.66-40.7-.95-13.93-1-169.06-1.02-186.6-.01-9.94 9.49-8.99 14.76-1.93z"/></g><g id="G" style="display:block"><path fill="#FFF" d="M328.4 332.2c6.46 16.83 140.76 339.65 147.45 355.13 9.15 21.17 22.02 35.87 37.92 46.93 15.9 11.06 139.98 100.24 168.06 120.8 9.77 7.15 16.5 5.47 9.81-9.05-8.32-18.07-164.2-344.54-172.5-362.52-8.3-17.98-18.96-31.87-30.26-40.16C477.6 435.03 349.5 336.25 338 327.39c-7.9-6.1-12.74-3.42-9.58 4.82z"/><path fill-opacity="0" stroke="#3D3D3D" stroke-width="0" d="M328.4 332.2c6.46 16.83 140.76 339.65 147.45 355.13 9.15 21.17 22.02 35.87 37.92 46.93 15.9 11.06 139.98 100.24 168.06 120.8 9.77 7.15 16.5 5.47 9.81-9.05-8.32-18.07-164.2-344.54-172.5-362.52-8.3-17.98-18.96-31.87-30.26-40.16C477.6 435.03 349.5 336.25 338 327.39c-7.9-6.1-12.74-3.42-9.58 4.82z"/></g><clipPath id="H"><path d="M0 0h4100v2300H0z"/></clipPath><clipPath id="I"><path d="M0 0h5646v2890H0z"/></clipPath><clipPath id="an"><path d="M0 0h1376v804H0z"/></clipPath><clipPath id="az"><path d="M0 0h1376v804H0z"/></clipPath><clipPath id="aw"><path d="M0 0h1376v804H0z"/></clipPath><clipPath id="at"><path d="M0 0h1376v804H0z"/></clipPath><clipPath id="ar"><path d="M0 0h1376v804H0z"/></clipPath><clipPath id="R"><path d="M0 0h1283v1084H0z"/></clipPath><clipPath id="ak"><path d="M0 0h1283v1084H0z"/></clipPath><clipPath id="ag"><path d="M0 0h1283v1084H0z"/></clipPath><clipPath id="ab"><path d="M0 0h1283v1084H0z"/></clipPath><clipPath id="Y"><path d="M0 0h1283v1084H0z"/></clipPath><clipPath id="V"><path d="M0 0h1283v1084H0z"/></clipPath><clipPath id="J"><path d="M0 0h1670v1063H0z"/></clipPath><clipPath id="O"><path d="M0 0h1670v1063H0z"/></clipPath><filter id="g" width="100%" height="100%" x="0%" y="0%" filterUnits="objectBoundingBox"><feComponentTransfer in="SourceGraphic"><feFuncA tableValues="1.0 0.0" type="table"/></feComponentTransfer></filter><filter id="u" width="100%" height="100%" x="0%" y="0%" filterUnits="objectBoundingBox"><feComponentTransfer in="SourceGraphic"><feFuncA tableValues="1.0 0.0" type="table"/></feComponentTransfer></filter></defs><g clip-path="url(#H)"><g clip-path="url(#I)" style="display:block" transform="translate(-217 51)"><g clip-path="url(#J)" style="display:block" transform="translate(1.11 243.16)"><g style="display:block"><path fill="#231D24" d="M306.25 303.75c-2.75 2.5-19.28 16.72-22.5 19.5-5.5 4.75-8 8.5-3.75 19.75 7.61 20.15 140.25 361 147 378s14.5 34.5 31.75 46.5 189.16 134.26 202.5 143.25c12.25 8.25 16.75 7 23.25 1 3.9-3.6 15-13.25 19.5-18.25s11.75-11.25 4.5-27c-9.02-19.6-179.75-373.75-188.75-393.25s-16.5-30.5-28.75-39.5S331.5 312 323.25 305s-14.25-3.75-17-1.25z"/><path fill="none" d="M306.25 303.75c-2.75 2.5-19.28 16.72-22.5 19.5-5.5 4.75-8 8.5-3.75 19.75 7.61 20.15 140.25 361 147 378s14.5 34.5 31.75 46.5 189.16 134.26 202.5 143.25c12.25 8.25 16.75 7 23.25 1 3.9-3.6 15-13.25 19.5-18.25s11.75-11.25 4.5-27c-9.02-19.6-179.75-373.75-188.75-393.25s-16.5-30.5-28.75-39.5S331.5 312 323.25 305s-14.25-3.75-17-1.25z"/><path fill="#39517A" d="M311.5 310.5c7 18.25 153.72 371.87 160.75 388.75 7.5 18 15.75 30.5 33 42.5s185.59 133.37 191.25 137c9.75 6.25 19.25 3.5 12-12.25-9.02-19.6-179.75-373.75-188.75-393.25s-16.5-30.5-28.75-39.5S331.5 312 323.25 305s-15.18-3.43-11.75 5.5z"/><path fill="none" d="M311.5 310.5c7 18.25 153.72 371.87 160.75 388.75 7.5 18 15.75 30.5 33 42.5s185.59 133.37 191.25 137c9.75 6.25 19.25 3.5 12-12.25-9.02-19.6-179.75-373.75-188.75-393.25s-16.5-30.5-28.75-39.5S331.5 312 323.25 305s-15.18-3.43-11.75 5.5z"/><path fill="#3772AD" d="M311.5 310.5c2.7 7.02 54.23 131.76 54.23 131.76l20.24-25.71 31.96 60.19-23.6 34.58 55.2 133.17 24.72-52.24s-.5-61-9.5-80.5-62-112.25-62-112.25l16.35-20.55S327.85 308.9 323.25 305c-8.25-7-15.18-3.43-11.75 5.5z"/><path fill="none" d="M311.5 310.5c2.7 7.02 54.23 131.76 54.23 131.76l20.24-25.71 31.96 60.19-23.6 34.58 55.2 133.17 24.72-52.24s-.5-61-9.5-80.5-62-112.25-62-112.25l16.35-20.55S327.85 308.9 323.25 305c-8.25-7-15.18-3.43-11.75 5.5z"/><path fill="#FFF" d="M328.4 332.2c6.46 16.83 140.76 339.65 147.45 355.13 9.15 21.17 22.02 35.87 37.92 46.93 15.9 11.06 139.98 100.24 168.06 120.8 9.77 7.15 16.5 5.47 9.81-9.05-8.32-18.07-164.2-344.54-172.5-362.52-8.3-17.98-18.96-31.87-30.26-40.16C477.6 435.03 349.5 336.25 338 327.39c-7.9-6.1-12.74-3.42-9.58 4.82z"/><path fill="none" d="M328.4 332.2c6.46 16.83 140.76 339.65 147.45 355.13 9.15 21.17 22.02 35.87 37.92 46.93 15.9 11.06 139.98 100.24 168.06 120.8 9.77 7.15 16.5 5.47 9.81-9.05-8.32-18.07-164.2-344.54-172.5-362.52-8.3-17.98-18.96-31.87-30.26-40.16C477.6 435.03 349.5 336.25 338 327.39c-7.9-6.1-12.74-3.42-9.58 4.82z"/><path fill="#534A5E" d="M539.25 778.25s0 14.5-13.5 15.75c-12.54 1.16-18-11-18-11s.25 20 19.25 18.75 12.25-23.5 12.25-23.5z"/><path fill="none" d="M539.25 778.25s0 14.5-13.5 15.75c-12.54 1.16-18-11-18-11s.25 20 19.25 18.75 12.25-23.5 12.25-23.5z"/></g><g style="display:block"><path fill="#231D24" d="M1118.05 126.17c5.95-1.67 30.91-4.34 35.15-4.53 8.3-.39 17.23-.04 24.44 9.57 12.9 17.23 247.8 326.02 259.2 340.32 26.66 33.47 28.71 46.97 28.69 75.62-.03 33.85-3.03 160.35-4.16 197.7-.44 14.69-3.06 17.79-11.6 20-5.12 1.32-29.19 5.42-35.8 6.5-6.63 1.07-15.77 3.77-25.16-10.78-11.7-18.11-249.88-353.1-262.36-370.56-12.48-17.45-15.12-25.74-16.15-40.84-1.03-15.1-2.68-195.42-2.21-206.19.47-10.77 6.4-15.81 9.96-16.81z"/><path fill="none" d="M1118.05 126.17c5.95-1.67 30.91-4.34 35.15-4.53 8.3-.39 17.23-.04 24.44 9.57 12.9 17.23 247.8 326.02 259.2 340.32 26.66 33.47 28.71 46.97 28.69 75.62-.03 33.85-3.03 160.35-4.16 197.7-.44 14.69-3.06 17.79-11.6 20-5.12 1.32-29.19 5.42-35.8 6.5-6.63 1.07-15.77 3.77-25.16-10.78-11.7-18.11-249.88-353.1-262.36-370.56-12.48-17.45-15.12-25.74-16.15-40.84-1.03-15.1-2.68-195.42-2.21-206.19.47-10.77 6.4-15.81 9.96-16.81z"/><path fill="#3A5179" d="M1120.7 136.17c12.8 15.83 257.13 341.05 267.6 356.03 11.15 15.97 17.95 34.3 17.9 58.02-.05 20.92-2.65 183.96-2.65 190.65 0 22.88-9.05 23.38-14.74 19.7-11.7-18.11-249.88-353.1-262.36-370.56-12.48-17.45-15.37-25.24-16.4-40.34-1.03-15.1-2.43-195.92-1.96-206.69.47-10.77 6.6-14.24 12.61-6.8z"/><path fill="none" d="M1120.7 136.17c12.8 15.83 257.13 341.05 267.6 356.03 11.15 15.97 17.95 34.3 17.9 58.02-.05 20.92-2.65 183.96-2.65 190.65 0 22.88-9.05 23.38-14.74 19.7-11.7-18.11-249.88-353.1-262.36-370.56-12.48-17.45-15.37-25.24-16.4-40.34-1.03-15.1-2.43-195.92-1.96-206.69.47-10.77 6.6-14.24 12.61-6.8z"/><path fill="#FFF" d="M1127 154.78c10.25 13.72 239.87 320.08 249.33 334.01 12.94 19.07 19.59 37.74 19.75 57.03.17 20.68-3.83 143.18-4.64 176.5-.48 19.42-10.44 16.93-17.13 7.85-11.78-16-235.45-329.7-246.4-346.16-10.66-16.01-13.71-26.79-14.66-40.7-.95-13.93-1-169.06-1.02-186.6-.01-9.94 9.49-8.99 14.76-1.93z"/><path fill="none" d="M1127 154.78c10.25 13.72 239.87 320.08 249.33 334.01 12.94 19.07 19.59 37.74 19.75 57.03.17 20.68-3.83 143.18-4.64 176.5-.48 19.42-10.44 16.93-17.13 7.85-11.78-16-235.45-329.7-246.4-346.16-10.66-16.01-13.71-26.79-14.66-40.7-.95-13.93-1-169.06-1.02-186.6-.01-9.94 9.49-8.99 14.76-1.93z"/><path fill="#395179" d="M1213.75 206.75c-8.28-11.6-25.9-2.16-18.5 9.5 6.5 10.25 19.51 27.8 27.25 38.25 10 13.5 27 3.25 19.75-7.75-5.34-8.1-21-29.5-28.5-40z"/><path fill="none" d="M1213.75 206.75c-8.28-11.6-25.9-2.16-18.5 9.5 6.5 10.25 19.51 27.8 27.25 38.25 10 13.5 27 3.25 19.75-7.75-5.34-8.1-21-29.5-28.5-40z"/></g><g mask="url(#K)" style="display:block"><path fill="#FF878D" d="M437 471.5c-8.03-.3-3.5 13.75 6.25 26.75s47.75 59.5 47.75 59.5 2.26 1.67 3.71.42c2.4-2.09 6.04-6.84 8.29-9.42 5.25-6-4.69-22.88-19.75-41C467.25 488.5 462 494 462 494s-18.25-22.25-25-22.5z"/><path fill="none" d="M437 471.5c-8.03-.3-3.5 13.75 6.25 26.75s47.75 59.5 47.75 59.5 2.26 1.67 3.71.42c2.4-2.09 6.04-6.84 8.29-9.42 5.25-6-4.69-22.88-19.75-41C467.25 488.5 462 494 462 494s-18.25-22.25-25-22.5z"/><path fill="#FFF" d="M446.88 489c-2.5 1.75 3.5 10.88 5.37 13.75 1.88 2.88 9.88 11.88 12.13 10.25 2.25-1.63-4-12.5-5.88-14.88-1.88-2.37-9.13-10.87-11.63-9.12z"/><path fill="none" d="M446.88 489c-2.5 1.75 3.5 10.88 5.37 13.75 1.88 2.88 9.88 11.88 12.13 10.25 2.25-1.63-4-12.5-5.88-14.88-1.88-2.37-9.13-10.87-11.63-9.12z"/><path fill="#E1E3E4" d="M393.13 407.5c-8.17 2.76-8.25 11.5-7.13 17.13.34 1.71 7.03 9.55 8.25 8.87 1.13-.63-.13-11.75 5.25-14.13 5.38-2.37 11.75-1.62 23.63 5.25 2.47 1.44-1.69-7.85-3.25-9.12-5.88-4.75-17.13-11.25-26.75-8z"/><path fill="none" d="M393.13 407.5c-8.17 2.76-8.25 11.5-7.13 17.13.34 1.71 7.03 9.55 8.25 8.87 1.13-.63-.13-11.75 5.25-14.13 5.38-2.37 11.75-1.62 23.63 5.25 2.47 1.44-1.69-7.85-3.25-9.12-5.88-4.75-17.13-11.25-26.75-8z"/><path fill="#E1E3E4" d="M391.5 448.63c7 20.62 34.54 75.8 63.25 108.62 1.75 2 1.85-2.94.38-5-21.38-29.75-44.13-64.75-55.25-95.88-1.26-3.5-9.97-12.43-8.38-7.75z"/><path fill="none" d="M391.5 448.63c7 20.62 34.54 75.8 63.25 108.62 1.75 2 1.85-2.94.38-5-21.38-29.75-44.13-64.75-55.25-95.88-1.26-3.5-9.97-12.43-8.38-7.75z"/><path fill="#E1E3E4" d="M480.25 582.88c-3.12-3.27-1.33 3.78 1.13 6.62 19.25 22.25 51.87 52.88 72.75 56.63 3.08.55-3.43-12.42-8.38-13.5-23.25-5.13-48.88-32.38-65.5-49.75z"/><path fill="none" d="M480.25 582.88c-3.12-3.27-1.33 3.78 1.13 6.62 19.25 22.25 51.87 52.88 72.75 56.63 3.08.55-3.43-12.42-8.38-13.5-23.25-5.13-48.88-32.38-65.5-49.75z"/><path fill="#FF878D" d="M538.25 556.38c-1.39-2.08-3.68.13-2.5 2.37 6.25 11.88 25 41.88 20.75 68.88-.53 3.39 8.94 14.76 9.88 11.25 5.12-19.25-12-58.38-28.13-82.5z"/><path fill="none" d="M538.25 556.38c-1.39-2.08-3.68.13-2.5 2.37 6.25 11.88 25 41.88 20.75 68.88-.53 3.39 8.94 14.76 9.88 11.25 5.12-19.25-12-58.38-28.13-82.5z"/><path fill="#FF878D" d="M443 433c-4.09-3.66-3.97 2.22.75 6.75 19.25 18.5 48.5 48.25 72 85.5 2.33 3.7 7.58 7.21 5.75 3.5-7.75-15.75-50-70.25-78.5-95.75z"/><path fill="none" d="M443 433c-4.09-3.66-3.97 2.22.75 6.75 19.25 18.5 48.5 48.25 72 85.5 2.33 3.7 7.58 7.21 5.75 3.5-7.75-15.75-50-70.25-78.5-95.75z"/></g><g mask="url(#L)" style="display:block"><path fill="#D9D9D9" d="M1140 216.5v143.75c0 13 11 26.75 11 16.25v-142c0-13-11-27-11-18z"/><path fill="none" d="M1140 216.5v143.75c0 13 11 26.75 11 16.25v-142c0-13-11-27-11-18z"/><path fill="#79C800" d="M1140 305v55.25c0 13 11 26.75 11 16.25V323c0-13-11-27-11-18z"/><path fill="none" d="M1140 305v55.25c0 13 11 26.75 11 16.25V323c0-13-11-27-11-18z"/></g><g mask="url(#M)" style="display:block"><path fill="#1CB0F6" d="M1217.5 344.5c-5.5-7-12-6.5-12 9s0 49.25.25 61.5 8.5 30.5 14.25 38.75 40.84 56.51 45.5 63.5c5.5 8.25 13.75 7.25 13.75-3.75s.75-40.25.75-55c0-16-4-36.5-18-54s-39-53-44.5-60z"/><path fill="none" d="M1217.5 344.5c-5.5-7-12-6.5-12 9s0 49.25.25 61.5 8.5 30.5 14.25 38.75 40.84 56.51 45.5 63.5c5.5 8.25 13.75 7.25 13.75-3.75s.75-40.25.75-55c0-16-4-36.5-18-54s-39-53-44.5-60z"/><path fill="#FFF" d="M1228 399c-5-6.75-7.5-3.25-7.5 4.25s3.75 15.75 6.75 20 10.5 15 14 19.5 6.5 4.25 6.5-2.5-2.75-18-6.25-22.75-8.5-11.75-13.5-18.5z"/><path fill="none" d="M1228 399c-5-6.75-7.5-3.25-7.5 4.25s3.75 15.75 6.75 20 10.5 15 14 19.5 6.5 4.25 6.5-2.5-2.75-18-6.25-22.75-8.5-11.75-13.5-18.5z"/><path fill="#FFF" d="M1242.25 409c-2-3.5-2.73.37-1 3.25 4.13 6.88 9.25 13.5 9.25 34.25 0 10.88-4.75 7.88-8.63 1.75-1.19-1.88-2.05 1.14-1.24 2.75 1 2 3.87 7.75 8.5 8.13 4.62.37 4.87-8.88 4.87-8.88l4.75 6.13v4.12c0 3.25 3.25 5.88 3.25 2v-8.88s.25-3.5-1.63-5.25c-1.87-1.75-1.5 3.25-1.5 3.25s-3.62-4.87-4.62-6.12c0-17.25-10-33-12-36.5z"/><path fill="none" d="M1242.25 409c-2-3.5-2.73.37-1 3.25 4.13 6.88 9.25 13.5 9.25 34.25 0 10.88-4.75 7.88-8.63 1.75-1.19-1.88-2.05 1.14-1.24 2.75 1 2 3.87 7.75 8.5 8.13 4.62.37 4.87-8.88 4.87-8.88l4.75 6.13v4.12c0 3.25 3.25 5.88 3.25 2v-8.88s.25-3.5-1.63-5.25c-1.87-1.75-1.5 3.25-1.5 3.25s-3.62-4.87-4.62-6.12c0-17.25-10-33-12-36.5z"/></g><g mask="url(#N)" style="display:block"><g clip-path="url(#O)" transform="rotate(25 662.32 -1027.3)"><path fill="#00C1DE" d="M973.59 713.83c7.47-19.63-89.16 22.03-82.75 28.66 6.4 6.63 15 13.24 24.01 13.58 9 .35 13.97-.97 19.73-3.44 5.76-2.47 14.34-7.04 19.99-10.04 7.68-4.09 12.68-12.09 19.02-28.76zM831.08 447.92C837.63 457.15 840 473 836 490c-2.98 12.65-7 19.5-5.75 36.75 1.29 17.75 28.31 11.31 35.75 1.25 8.5-11.5 20.66-36.05 26.9-50.72 15.6-36.78 1.2-56.56-5.04-64.4-4.5-5.65-9.04-9.03-17.61-3.54-8.57 5.49-27.1 15.78-32.84 19.02-5.75 3.25-12.88 10.33-6.33 19.56z" style="display:block"/><path fill="#AF623C" d="M129.5-34C74-8.5 45-6-2.53-8.78-50.18-11.58-65.5-21-114-19.75c-35.33.91-49.34 24.34-60.5 43.75-12.5 21.75-28 57.75-29.5 78.75-1.25 17.52 5.5 36.25 10.75 48 5.35 11.98 14.6 26.53 24.5 38.5 15.5 18.75 23.25 26.25 51.5 33.75 46.94 12.46 127.25 11.5 172.5-1 84.51-23.35 127.48-68 142.5-82.75 14-13.75 19.25-17 24.25-31 5.54-15.52 9.31-23.14 15-40.75 5.25-16.25 4.14-27.93-5.5-42.75C221.25 9 203-18 189-28.5s-31.82-18.22-59.5-5.5z" style="display:block" transform="translate(835 531.5)"/><path fill="#00C1DE" d="M79.17 56.64c-15.77-13.11-48.4 4.9-48.4 4.9s39.44 59.19 45.02 70.24c5.58 11.05 10.26 23.39 5.62 38.97-4.63 15.57-6.78 41.25-7.69 49.67 3.65 2.65 13.56 2.87 20.6.26 7.03-2.6 32.66-13.76 35.96-19.94 3.47-6.49 8.7-15.42 11.63-26.55 4-15.23 2.31-25.33-2.7-36.07-6.96-14.87-39.46-64.37-60.04-81.48z" style="display:block" transform="translate(835 531.5)"/><g style="display:block"><path fill="#FFF" d="M1002.7 525.05c-6.37-5.99-19.4-11.4-32.14-3.98-10.81 6.3-13.81 18.68-8.61 28.17 5.95 10.86 19.5 12.66 19.5 12.66s-6.66 9.19-1.46 15.25c20.85 3.9 31.02 27.6 31.02 27.6s10.74-4 17.23-14.28c6.8-10.76 4.26-23.47-4.19-30.24-7.7-6.18-19.51-7.28-19.51-7.28s11.96-14.95-1.83-27.9z"/><path fill="#3D3D3D" d="M974.64 527.3c-8.82 3.49-11.49 14.38-9 21.88 3.99 12.07 20.17 16.72 20.17 16.72s-8.93 14.1 4.52 23c9.8 6.48 18.86 3.83 22.1 1.43 3.25-2.4 15.52-16.2 2.02-29.96-6.05-6.17-15.62-3.24-15.62-3.24s5.82-12.31 1.35-21.13c-3.55-7-12.18-14-25.54-8.7z"/><path fill="#FFF" d="M1015.02 571.44c-2.66-.06-4.07-.52-5.57-1.72.65 2.33-.34 3.76-.84 5.36 2.44-.48 4.26.12 6.18 1.34-1.12-2.13-.53-3.7.23-4.98zm-5.73-16.2c-4.3-1.3-3.97.68-3.97.68s-3.42 3.62-1.32 7.58c2.13 4 6.16 3.1 8.22 1.5 2.53-1.93 2.25-6.25 2.25-6.25s-.89-2.22-5.18-3.5zm-11.59 19.92c-3.3-3.42-7.84-.24-5.35 4.2 1.99 3.57 9.86 6.73 13.63 5.37 4.1-1.5.41-7.78-4.07-7.31-1.3.13-2.92-.91-4.22-2.26zm-2.16-36.88c-2.57.12-3.97-.3-5.49-1.53.78 2.55-.1 4.22-.48 6.04 2.33-.72 4.12-.18 6.05 1.05a5.84 5.84 0 0 1-.08-5.56zm-7.04-14.58c-4.3-1.3-2.98-2.2-2.98-2.2s-3.6 5.84-1.94 9.33c1.67 3.54 6.66 3.72 8.72 2.14 2.53-1.95 3-6.76 3-6.76s-2.51-1.22-6.8-2.51zm-11.77 21.68c-3.44-3.28-7.83.1-5.16 4.43 2.14 3.48 10.15 6.3 13.85 4.77 4.03-1.67.08-7.8-4.38-7.13-1.3.19-2.95-.78-4.31-2.08z"/><path fill="#AF623C" d="M973.25 576c-19.75 36.5 39.75 32.5 39.75 32.5s-12.5-30.75-39.75-32.5z"/></g><g style="display:block"><path fill="#F19E49" d="M947.04 551.73c-11.5 4.5-80.68 31.23-80.68 31.23l28.23 43.6 61.21-23.21s1.2 3.9 3.9 10.12c5.05 11.6 14.47 10.98 19.5 10.86 5.05-.12 11.46-5.83 13-11.98 1.55-6.14-1.45-21.6-7.48-27.36 13.78-29.74-8.97-44.49-37.68-33.26z"/><path fill="#3D3D3D" d="M949.8 569.26s-.1 1.33.96 3.57c1.4 2.95 4.8 7.46 13.1 12.61-8.36-5.23-11.75-9.82-13.12-12.76-1.01-2.15-.93-3.42-.93-3.42z"/><path fill="none" stroke="#C56700" stroke-linecap="round" stroke-linejoin="round" stroke-width="5" d="M949.8 569.26s-.1 1.33.96 3.57c1.4 2.95 4.8 7.46 13.1 12.61-8.36-5.23-11.75-9.82-13.12-12.76-1.01-2.15-.93-3.42-.93-3.42z"/><path fill="#F19E49" d="M973.2 585.39c-8.08-2.64-13.08.74-15.32 8.51-2.56 8.83 15.33-8.51 15.33-8.51"/><path fill="none" stroke="#C56700" stroke-linecap="round" stroke-linejoin="round" stroke-width="5" d="M973.2 585.39c-8.08-2.64-13.08.74-15.32 8.51"/><path fill="#3D3D3D" d="M984.66 558.55a8.03 8.03 0 0 0-8.52-3.75c-3.08.52-6.08 5.06-4.15 9.05a8.19 8.19 0 0 0 9.56 4.46c3.54-1.02 5.33-6.33 3.1-9.76z"/></g><path fill="none" stroke="#AF623C" stroke-linecap="round" stroke-linejoin="round" stroke-width="26" d="M196.75-60.75 203-68.5m71 117.75 12 2.25" style="display:block" transform="translate(835 531.5)"/><g style="display:block"><path fill="none" stroke="#874627" stroke-width="10" d="M703.25 676.5c-2.13 6.58-3.5 11-2.75 18 1.1 10.2 16.14 12.1 22 6.25 3.5-3.5 6.75-6.5 10.75-14.75 8.09-16.68-24.5-26.5-30-9.5z"/><path fill="#AF623C" d="M632.02 498c-2.16 6.4-2.77 17-1.84 21.58 2.74 13.56 19.31 10.68 22.44 5.8 3.13-4.88 5.63-12.13 6.43-17.93 2.76-19.9-22.55-22.7-27.03-9.45zm71.23 178.5c-2.13 6.58-3.5 11-2.75 18 1.1 10.2 16.14 12.1 22 6.25 3.5-3.5 6.75-6.5 10.75-14.75 8.09-16.68-24.5-26.5-30-9.5z"/></g><g style="display:block"><path fill="#AF623C" d="M805.75 472.25c-41.75 24.5-61 57.5-61 57.5l118.5 2s1.86-.14 4.83-.59c1.97-.3 4.43-.73 7.16-1.35 15.11-3.47 38.47-12.74 32.51-36.56-7.75-31-73.5-37.72-102-21z"/><path fill="#FFAD00" d="M893.12 483.47c-12.87 1.9-25.56 7.78-24.14 17.29 1.42 9.51 10.9 12.29 27.39 11.51 18-.85 28.07-9.27 26.81-18.91-1.26-9.65-14.04-12.25-30.06-9.89z"/><path fill="#AF623C" d="M884.84 457.16c-32.84-14.16-57.09-.41-79.96 14.8-23.61 15.7 40.12 43.79 80.5 43.07 23.37-21.28 28.3-45.44-.54-57.87z"/></g><g style="display:block"><path fill="#FFAC01" d="m733 516.5 9.95 18.21-4.05 9.1 10.5 14.4-3.5 9.1 10.32 12.04-3.69 10.87 11.06 13.51-1.91 20.64 24.32.38-29.42-103.55-23.58-4.7z"/><path fill="#FFCA59" d="M782.75 513.78c-21.75-.28-28.5 3.47-32 7.5 2.25 18.49 10.5 53.72 25 96.75 4.32 12.82 18.13 15.65 34.5 17.78 15 1.94 41 .82 61 .54 20-.28 46.2-5.33 53.75-13.59 10.75-11.76 10.25-24.51 3-47.77-6.2-19.88-10-32.49-14.75-39.2-6.62-9.38-26.25-14.95-40.25-16.37-14-1.43-65.2-5.3-90.25-5.64z"/><path fill="none" stroke="#FFAD00" stroke-linecap="round" stroke-linejoin="round" stroke-width="5" d="M780.75 623s3.75-13.25 59-10.28c43.7 2.34 64.5 3.6 64.5 3.6"/><path fill="#FFF" d="M851.75 531.99C821.5 533 812 550 814.75 569.42c2.4 16.95 17.48 29.14 48.25 28.45 27.5-.62 37.8-15.37 34.75-32.97-3.5-20.15-17.24-33.88-46-32.91z"/></g><g style="display:block"><path fill="#AF623C" d="M876.01 580.94c-13.04 5.1-31.26 19.31-22.92 48.1 7.14 24.6 16.91 29.21 15.85 53.16-.6 13.64-3.56 21.06-4.5 37.5-.96 16.85-10.19 39.8 43 29.89 25.86-4.82 44.75-27.55 51.63-62.2 5.43-27.39-15.04-62.55-28.99-87.3C914.25 572 895 573.5 876.01 580.94z"/><path fill="none" stroke="#884626" stroke-linecap="round" stroke-linejoin="round" stroke-width="5" d="M855.36 637.19c6.14 13.81 15.14 25.06 13.46 45.5-1.2 14.59-3.87 25.47-4.38 37"/></g><path fill="#AF623C" d="M49.84-74.34C17-88.5-7.25-74.75-30.12-59.54-53.73-43.84 10-15.75 50.38-16.47c23.37-21.28 28.3-45.44-.54-57.87z" style="display:block" transform="translate(835 531.5)"/></g></g><g mask="url(#P)" style="display:block"><path fill="#1CB0F6" d="M479 634.75c-7.25-6-11.5-6.5-8 1.75s6.75 15.25 9.75 22.75 7.5 14 19 23.25S637 784.25 645.25 790.75c9.05 7.13 9 3.5 6.5-2S641.5 766 637 758s-8-11.5-17-17.5-136.52-102.04-141-105.75z"/><path fill="none" d="M479 634.75c-7.25-6-11.5-6.5-8 1.75s6.75 15.25 9.75 22.75 7.5 14 19 23.25S637 784.25 645.25 790.75c9.05 7.13 9 3.5 6.5-2S641.5 766 637 758s-8-11.5-17-17.5-136.52-102.04-141-105.75z"/></g><g mask="url(#Q)" style="display:block"><path fill="#E5E5E5" d="M1344 469.25c-4.63-4.88-7.25-1-7.25 6.5s-3 149.25-3 162 1.5 19.5 4.25 24 9.75 15.75 13 20.25 9 7.5 9.25-5.25 4.5-151 4.5-163.75-3.82-22.48-6.75-26.25c-3.5-4.5-9.25-12.5-14-17.5z"/><path fill="none" d="M1344 469.25c-4.63-4.88-7.25-1-7.25 6.5s-3 149.25-3 162 1.5 19.5 4.25 24 9.75 15.75 13 20.25 9 7.5 9.25-5.25 4.5-151 4.5-163.75-3.82-22.48-6.75-26.25c-3.5-4.5-9.25-12.5-14-17.5z"/></g></g><g clip-path="url(#R)" style="display:block" transform="translate(1547.5 911)"><g style="display:block"><path fill="#090709" d="M465.5 938.45c.25 7.3.73 20.5.89 24.75.26 7.26 2.86 15.8 17.06 18.28 21.22 3.71 427.43 67.3 445.27 69.99 17.84 2.7 58.66 4.03 78.3-.95 19.65-4.97 191.45-52.23 207.06-56.13 14.33-3.57 16.41-7.75 16.3-16.6-.06-5.31.87-17.54 1.09-24.6.2-6.72 3.6-15.55-13.04-20.46-20.7-6.11-449.03-64.64-470.2-66.18-21.18-1.54-34.5-1.55-48.84.6-14.35 2.16-212.66 48.7-223.02 51.82-10.36 3.12-11.14 11-10.86 19.48z"/><path fill="none" d="M465.5 938.45c.25 7.3.73 20.5.89 24.75.26 7.26 2.86 15.8 17.06 18.28 21.22 3.71 427.43 67.3 445.27 69.99 17.84 2.7 58.66 4.03 78.3-.95 19.65-4.97 191.45-52.23 207.06-56.13 14.33-3.57 16.41-7.75 16.3-16.6-.06-5.31.87-17.54 1.09-24.6.2-6.72 3.6-15.55-13.04-20.46-20.7-6.11-449.03-64.64-470.2-66.18-21.18-1.54-34.5-1.55-48.84.6-14.35 2.16-212.66 48.7-223.02 51.82-10.36 3.12-11.14 11-10.86 19.48z"/><path fill="#2B7EB4" d="M474.3 937.07c20.95 6.18 448.14 73.01 466.04 75.5 19.1 2.67 37.32 2.84 56.96-2.14 19.65-4.97 212.88-54.25 219.45-55.66 11.32-2.44 18.31-17.13 1.68-22.04-20.7-6.11-449.03-64.64-470.2-66.18-21.18-1.54-34.5-1.55-48.84.6-14.35 2.16-212.66 48.7-223.02 51.82-10.36 3.12-11.24 15.4-2.06 18.1z"/><path fill="none" d="M474.3 937.07c20.95 6.18 448.14 73.01 466.04 75.5 19.1 2.67 37.32 2.84 56.96-2.14 19.65-4.97 212.88-54.25 219.45-55.66 11.32-2.44 18.31-17.13 1.68-22.04-20.7-6.11-449.03-64.64-470.2-66.18-21.18-1.54-34.5-1.55-48.84.6-14.35 2.16-212.66 48.7-223.02 51.82-10.36 3.12-11.24 15.4-2.06 18.1z"/><path fill="#FFF" d="M500.32 932.72c17.16 5.5 418.92 66.72 435.47 68.88 22.64 2.94 42.04 1.4 60.15-3.19 18.11-4.58 165.81-40.66 199.7-48.37 11.81-2.68 16.13-9.55.35-12.08-24.74-3.96-419.74-59.46-440.66-61.7-19.46-2.1-37.08-1.43-50.24.96-16.59 3.03-186.42 41.83-200.54 45.26-9.69 2.35-12.63 7.55-4.23 10.24z"/><path fill="none" d="M500.32 932.72c17.16 5.5 418.92 66.72 435.47 68.88 22.64 2.94 42.04 1.4 60.15-3.19 18.11-4.58 165.81-40.66 199.7-48.37 11.81-2.68 16.13-9.55.35-12.08-24.74-3.96-419.74-59.46-440.66-61.7-19.46-2.1-37.08-1.43-50.24.96-16.59 3.03-186.42 41.83-200.54 45.26-9.69 2.35-12.63 7.55-4.23 10.24z"/></g><g mask="url(#S)" style="display:block"><path fill="#1D2F5D" d="m440 862 9 133 506 75.5v-84l-11.5-14v92l-40.5-9V968L440 862z"/><path fill="none" d="m440 862 9 133 506 75.5v-84l-11.5-14v92l-40.5-9V968L440 862z"/></g><g style="display:block"><path fill="#231D24" d="M54.35 542.17c-3.6-4.42-15.88-19.76-18.33-23.23-4.8-6.78-9.32-14.5-5.1-25.74 7.54-20.16 157.58-407.45 164-425.2 14.58-40.24 25.33-44.51 60.26-44.68 33.84-.17 151.87.9 189.23.9 21.84 0 26.78 7.05 32.13 14.06a811.22 811.22 0 0 1 18.1 24.76c3.88 5.48 10.11 8.7 4.87 23.45-7.2 20.32-162.99 415.52-171 437.39-8.01 21.86-26.26 31.26-45.72 31.42-19.47.16-199.5-2.6-210.26-3.2-10.76-.62-15.84-7.07-18.18-9.94z"/><path fill="none" d="M54.35 542.17c-3.6-4.42-15.88-19.76-18.33-23.23-4.8-6.78-9.32-14.5-5.1-25.74 7.54-20.16 157.58-407.45 164-425.2 14.58-40.24 25.33-44.51 60.26-44.68 33.84-.17 151.87.9 189.23.9 21.84 0 26.78 7.05 32.13 14.06a811.22 811.22 0 0 1 18.1 24.76c3.88 5.48 10.11 8.7 4.87 23.45-7.2 20.32-162.99 415.52-171 437.39-8.01 21.86-26.26 31.26-45.72 31.42-19.47.16-199.5-2.6-210.26-3.2-10.76-.62-15.84-7.07-18.18-9.94z"/><path fill="#2B6087" d="M60.39 521.15c7.2-19.04 155.9-403.72 162.3-420.83 5.56-14.82 18.05-37.68 46.5-37.63 32.56.06 193.94.56 200.63.56 17.68 0 31.93 7.75 29.7 23.25-6.82 20.46-163 415.52-171.01 437.39-8.01 21.86-25.63 31.62-45.1 31.78-19.47.16-200.12-2.96-210.88-3.57-10.76-.6-17.28-17.35-12.14-30.95z"/><path fill="none" d="M60.39 521.15c7.2-19.04 155.9-403.72 162.3-420.83 5.56-14.82 18.05-37.68 46.5-37.63 32.56.06 193.94.56 200.63.56 17.68 0 31.93 7.75 29.7 23.25-6.82 20.46-163 415.52-171.01 437.39-8.01 21.86-25.63 31.62-45.1 31.78-19.47.16-200.12-2.96-210.88-3.57-10.76-.6-17.28-17.35-12.14-30.95z"/><path fill="#FFF" d="M74.58 513.85c5.96-16.05 151.42-390.6 157.8-405.6 9.02-21.2 27-28.34 46.29-28.25 20.68.1 144.83.75 179.03-.11 15.06-.38 31.05 6.11 22.4 29.9-6.8 18.67-150.6 383.46-158.8 403.46-7.2 17.54-22.55 27.5-44.9 27.1-13.95-.24-171.05-2-188.59-2.2-9.93-.12-17.56-12.65-13.23-24.3z"/><path fill="none" d="M74.58 513.85c5.96-16.05 151.42-390.6 157.8-405.6 9.02-21.2 27-28.34 46.29-28.25 20.68.1 144.83.75 179.03-.11 15.06-.38 31.05 6.11 22.4 29.9-6.8 18.67-150.6 383.46-158.8 403.46-7.2 17.54-22.55 27.5-44.9 27.1-13.95-.24-171.05-2-188.59-2.2-9.93-.12-17.56-12.65-13.23-24.3z"/></g><g mask="url(#T)" style="display:block"><path fill="#C4F3FF" d="M224 72 48.5 536l53.5 8s32-88 36-99.5 15.5-15 23.5-4 88 125.5 88 125.5l85.5-6L516 74l-292-2z"/><path fill="none" d="M224 72 48.5 536l53.5 8s32-88 36-99.5 15.5-15 23.5-4 88 125.5 88 125.5l85.5-6L516 74l-292-2z"/></g><g mask="url(#U)" style="display:block"><path fill="#FEDC28" d="m725.75 899-16.25.13 1.75 2.75 16.63-.25-2.13-2.63z"/><path fill="none" d="m725.75 899-16.25.13 1.75 2.75 16.63-.25-2.13-2.63z"/><path fill="#FED101" d="M814.63 902.88 807 903l1.75 2 8.38-.13-2.5-2z"/><path fill="none" d="M814.63 902.88 807 903l1.75 2 8.38-.13-2.5-2z"/><path fill="#FED101" d="M698.75 940.63c-1.63-.13-13.13-.5-14.13.37-1 .88.75 2 2.13 2.13 1.73.15 8.25.5 13.13.12 4.87-.38.5-2.5-1.13-2.63z"/><path fill="none" d="M698.75 940.63c-1.63-.13-13.13-.5-14.13.37-1 .88.75 2 2.13 2.13 1.73.15 8.25.5 13.13.12 4.87-.38.5-2.5-1.13-2.63z"/><path fill="#FED101" d="M748.75 916.25c-3.38 0-32.25.38-35.88.38-3.62 0-6.12.5-4.37 2.87 1.38 1.87 3.88 6.13 6.13 6 3.25-.18 11-1.5 12.25-1.75s16.12 2.23 18.62 2.63c4 .62 22.88-4.13 18.88-4.63s-14.75-2.25-14.75-2.25 7.75-2 6.37-2.5-3.88-.75-7.25-.75z"/><path fill="none" d="M748.75 916.25c-3.38 0-32.25.38-35.88.38-3.62 0-6.12.5-4.37 2.87 1.38 1.87 3.88 6.13 6.13 6 3.25-.18 11-1.5 12.25-1.75s16.12 2.23 18.62 2.63c4 .62 22.88-4.13 18.88-4.63s-14.75-2.25-14.75-2.25 7.75-2 6.37-2.5-3.88-.75-7.25-.75z"/><path fill="#FED101" d="M722.63 906.38c-5 .25-4.75 2.5.5 2.37 5.25-.13 75.75-.25 79 11.75 2.42 8.97-42.75 11.63-46.38 11.75-3.63.13-2 2.88 2.5 2.75 3.75-.1 61.38-4.88 56.88-14.63-6.52-14.12-87.5-14.25-92.5-14z"/><path fill="none" d="M722.63 906.38c-5 .25-4.75 2.5.5 2.37 5.25-.13 75.75-.25 79 11.75 2.42 8.97-42.75 11.63-46.38 11.75-3.63.13-2 2.88 2.5 2.75 3.75-.1 61.38-4.88 56.88-14.63-6.52-14.12-87.5-14.25-92.5-14z"/><path fill="#1EB0F8" d="M711.38 907.13c-17.13 0-61.8 4.59-58.75 13.75 4.87 14.62 85.87 14.75 90.75 14.62 4.87-.13 1.25-2.63-2.75-2.63s-73.13.38-76.13-12.25c-1.9-7.96 36.75-11.12 47.88-11.37 4.38-.1 2.87-2.13-1-2.13z"/><path fill="none" d="M711.38 907.13c-17.13 0-61.8 4.59-58.75 13.75 4.87 14.62 85.87 14.75 90.75 14.62 4.87-.13 1.25-2.63-2.75-2.63s-73.13.38-76.13-12.25c-1.9-7.96 36.75-11.12 47.88-11.37 4.38-.1 2.87-2.13-1-2.13z"/><path fill="#FFE877" d="M714.63 919.25c-2.75-.38-.88 2.13-.13 3 .75.88 1.38 1.88 3 1.25 1.63-.63 7.13-2.25 6-2.75s-6.47-1.17-8.88-1.5z"/><path fill="none" d="M714.63 919.25c-2.75-.38-.88 2.13-.13 3 .75.88 1.38 1.88 3 1.25 1.63-.63 7.13-2.25 6-2.75s-6.47-1.17-8.88-1.5z"/></g><g clip-path="url(#V)" mask="url(#W)" style="display:block"><g style="display:block"><path fill="none" stroke="#66E1FF" stroke-width="5" d="M358.5 320.5H297c-15.75 0-23.75 10.75-27.75 20.75-4.17 10.43-19.5 49.5-24.75 61.75s-3.25 24.5 9.5 24.5h65.75c11.5 0 21.75-11.25 25.25-20s23-57.75 26.5-67 1-20-13-20z"/><path fill="#66E1FF" d="M317.13 344.63c-3.14 2.6-15 11.87-15 11.87s-1.25-.88-4-3.88-7-1.87-8.88 2.13c-1.4 2.99-7.13 14.63-12.25 25.88-5.13 11.25-8.5 32.75 15 32.75 21.63 0 44.75-21.88 39.13-46.5-1.7-7.46-3.88-14.38-5.25-20-1.27-5.2-4.25-6-8.75-2.25z"/><path fill="none" d="M317.13 344.63c-3.14 2.6-15 11.87-15 11.87s-1.25-.88-4-3.88-7-1.87-8.88 2.13c-1.4 2.99-7.13 14.63-12.25 25.88-5.13 11.25-8.5 32.75 15 32.75 21.63 0 44.75-21.88 39.13-46.5-1.7-7.46-3.88-14.38-5.25-20-1.27-5.2-4.25-6-8.75-2.25z"/></g><g style="display:block"><path fill="none" stroke="#66E1FF" stroke-width="5" d="M405.75 200.75h-61.5c-15.75 0-23.75 10.75-27.75 20.75-4.17 10.43-19.5 49.5-24.75 61.75s-3.25 24.5 9.5 24.5H367c11.5 0 21.75-11.25 25.25-20s23-57.75 26.5-67 1-20-13-20z"/><path fill="#66E1FF" d="M394.5 211.25c-16.5 5.25-22.25 13.25-25.5 19 6.5 1.25 22.5-3.25 25.5-19z"/><path fill="none" d="M394.5 211.25c-16.5 5.25-22.25 13.25-25.5 19 6.5 1.25 22.5-3.25 25.5-19z"/><path fill="#66E1FF" d="M367 222.38c-6.13 0-7.5 15.87-7.5 15.87s-2.13-7.13-12.13-7.13-25.5 7.88-27 25.5c-1.48 17.44-.62 32.25 11.75 32.25 5.63 0 6.31-1.62 9.38-1.62 2.79 0 1.75 1.63 7.5 1.63 13.25 0 24-15 36.88-30.88 12.87-15.88 4-26-5.38-26.88-9.38-.87-17.88 6.75-17.88 6.75s10.5-15.5 4.38-15.5z"/><path fill="none" d="M367 222.38c-6.13 0-7.5 15.87-7.5 15.87s-2.13-7.13-12.13-7.13-25.5 7.88-27 25.5c-1.48 17.44-.62 32.25 11.75 32.25 5.63 0 6.31-1.62 9.38-1.62 2.79 0 1.75 1.63 7.5 1.63 13.25 0 24-15 36.88-30.88 12.87-15.88 4-26-5.38-26.88-9.38-.87-17.88 6.75-17.88 6.75s10.5-15.5 4.38-15.5z"/></g><g style="display:block"><path fill="#66E1FF" d="M306.75 456.75c-18.25 0-151.75-1-176.75-1-26.25 0-43.25 42.5-16 42.5 12.5 0 147.75 2 175.25 2 25 0 44.5-43.5 17.5-43.5z"/><path fill="none" d="M306.75 456.75c-18.25 0-151.75-1-176.75-1-26.25 0-43.25 42.5-16 42.5 12.5 0 147.75 2 175.25 2 25 0 44.5-43.5 17.5-43.5z"/></g></g><g mask="url(#X)" style="display:block"><g clip-path="url(#Y)" mask="url(#Z)" style="display:block"><path fill="#E5E5E5" d="M306.75 456.75c-18.25 0-151.75-1-176.75-1-26.25 0-43.25 42.5-16 42.5 12.5 0 147.75 2 175.25 2 25 0 44.5-43.5 17.5-43.5z"/><path fill="none" d="M306.75 456.75c-18.25 0-151.75-1-176.75-1-26.25 0-43.25 42.5-16 42.5 12.5 0 147.75 2 175.25 2 25 0 44.5-43.5 17.5-43.5z"/></g></g><g mask="url(#aa)" style="display:block"><g clip-path="url(#ab)" transform="rotate(-10 -1667.63 4948.58)"><g fill="none" stroke-linecap="round" stroke-linejoin="round" style="display:block"><path stroke="#FFAD00" stroke-width="47" d="M618 506.5c15 22 31 49 82.75 89"/><path stroke="#FFC99D" stroke-width="51" d="m700.69 595.44.06.06"/></g><g style="display:block"><path fill="#FFAD00" d="M469 396c-71 31-98 97-69 175.5 14.65 39.65 55.5 68.23 101.28 76.89 49.96 9.44 105.76-4.85 139.72-54.39 85-124-68.62-243.14-172-198z"/><path fill="none" d="M469 396c-71 31-98 97-69 175.5 14.65 39.65 55.5 68.23 101.28 76.89 49.96 9.44 105.76-4.85 139.72-54.39 85-124-68.62-243.14-172-198z"/><path fill="#FFF" d="M602.13 586.01c7.13-2.85 14.37-1.5 16.18 3.01 1.8 4.52-2.51 10.49-9.65 13.34-7.13 2.85-14.37 1.5-16.18-3-1.8-4.52 2.52-10.5 9.65-13.35z"/><path fill="none" d="M602.13 586.01c7.13-2.85 14.37-1.5 16.18 3.01 1.8 4.52-2.51 10.49-9.65 13.34-7.13 2.85-14.37 1.5-16.18-3-1.8-4.52 2.52-10.5 9.65-13.35z"/><path fill="#FFF" d="M654.25 527.25S577.75 510 540 541.5c3.75 13.75 15.68 33 38.75 32.75 22.5-.25 27.75-15 27.75-15S611.75 573 630 569c23.34-5.11 24.25-41.75 24.25-41.75z"/><path fill="none" d="M654.25 527.25S577.75 510 540 541.5c3.75 13.75 15.68 33 38.75 32.75 22.5-.25 27.75-15 27.75-15S611.75 573 630 569c23.34-5.11 24.25-41.75 24.25-41.75z"/><path fill="#FF8E00" d="M468 396.5c-22 9.5-60 28-70.5 93s36 107.5 56 122 34 10 45-1 78-80.5 78-80.5S490 387 468 396.5z"/><path fill="none" d="M468 396.5c-22 9.5-60 28-70.5 93s36 107.5 56 122 34 10 45-1 78-80.5 78-80.5S490 387 468 396.5z"/><path fill="#FF8E00" d="m663 497.25-33 6.25s22.25 31.63 23.25 69.13C673 532.38 663 497.25 663 497.25z"/><path fill="none" d="m663 497.25-33 6.25s22.25 31.63 23.25 69.13C673 532.38 663 497.25 663 497.25z"/></g><path fill="none" stroke="#FF8E00" stroke-linecap="round" stroke-linejoin="round" stroke-width="24" d="M356.5 376.5s4 17.5 9.5 25.5m67.5-35.5 4 20" style="display:block"/><g style="display:block"><path fill="#9F9F9F" d="M632.5 342.5C591 341.2 612.82 516.43 676 464c47-39 36-119-43.5-121.5z"/><path fill="none" d="M632.5 342.5C591 341.2 612.82 516.43 676 464c47-39 36-119-43.5-121.5z"/><path fill="#3D3D3D" d="M632.5 342.33c-71.25-1.7-19.68 150.67 43.5 105.25 47-33.78 27-103.58-43.5-105.25z"/><path fill="none" d="M632.5 342.33c-71.25-1.7-19.68 150.67 43.5 105.25 47-33.78 27-103.58-43.5-105.25z"/></g><g fill="none" stroke-linecap="round" stroke-linejoin="round" style="display:block"><path stroke="#FFAD00" stroke-width="48" d="M507 541c15 22 43.5 56 82.75 89"/><path stroke="#FFC99D" stroke-width="52" d="m589.69 629.94.06.06"/></g><g style="display:block"><path fill="#FFC99D" d="M672 404s-121-36.5-180.5 20.5C497 462.5 508 543.98 611 545c100.5 1 61-141 61-141z"/><path fill="none" d="M672 404s-121-36.5-180.5 20.5C497 462.5 508 543.98 611 545c100.5 1 61-141 61-141z"/></g><g style="display:block"><path fill="#B40000" d="M633.88 491.63c-8-4.25-12.75.37-16.88 6-4.13 5.62-5.73 13.76 1.75 18.25 6.88 4.12 13.5.12 17.25-5 3.75-5.13 7.04-14.39-2.13-19.25z"/><path fill="none" d="M633.88 491.63c-8-4.25-12.75.37-16.88 6-4.13 5.62-5.73 13.76 1.75 18.25 6.88 4.12 13.5.12 17.25-5 3.75-5.13 7.04-14.39-2.13-19.25z"/></g><g mask="url(#ac)" style="display:block"><path fill="#FF3743" d="M626.38 499.38c-8-4.25-12.75.37-16.88 6-4.13 5.62-5.73 13.76 1.75 18.25 6.88 4.12 13.5.12 17.25-5 3.75-5.13 7.04-14.39-2.13-19.25z"/><path fill="none" d="M626.38 499.38c-8-4.25-12.75.37-16.88 6-4.13 5.62-5.73 13.76 1.75 18.25 6.88 4.12 13.5.12 17.25-5 3.75-5.13 7.04-14.39-2.13-19.25z"/></g><g style="display:block"><path fill="none" stroke="#FFB080" stroke-linecap="round" stroke-linejoin="round" stroke-width="3" d="M610.25 517.75s5.75 7 14.75 7m-62.5-64.5 13.25 8-16.75 2.5"/><path fill="#FFF" d="M602.75 433c-20.19 2.38-19.25 22.25-18.75 39 6.5-1.5 27.75 0 36.25 6.5 6.75-16.75 3.75-48-17.5-45.5z"/><path fill="none" d="M602.75 433c-20.19 2.38-19.25 22.25-18.75 39 6.5-1.5 27.75 0 36.25 6.5 6.75-16.75 3.75-48-17.5-45.5z"/><path fill="#FFF" d="M652.5 434.75C632 437 637 461.25 638 479c12.75-9.25 25.25-11.75 34.5-13.25.5-11 .5-33.25-20-31z"/><path fill="none" d="M652.5 434.75C632 437 637 461.25 638 479c12.75-9.25 25.25-11.75 34.5-13.25.5-11 .5-33.25-20-31z"/><path fill="#F5915A" d="M634.5 464s-4.5 10.5-3 17c.97 4.2 5 6.25 8.25 5.75s6.25-3 5.75-8-11-14.75-11-14.75z"/><path fill="none" d="M634.5 464s-4.5 10.5-3 17c.97 4.2 5 6.25 8.25 5.75s6.25-3 5.75-8-11-14.75-11-14.75z"/></g><g mask="url(#ad)" style="display:block"><path fill="#3D3D3D" d="M607 451c1 11.25-8.75 8.75-8.75 8.75l-1 18.25 17.75 4s1.75-12 2.25-17.75S617 451.75 607 451z"/><path fill="none" d="M607 451c1 11.25-8.75 8.75-8.75 8.75l-1 18.25 17.75 4s1.75-12 2.25-17.75S617 451.75 607 451z"/><path fill="#3D3D3D" d="M652.5 450.25c1 11-7.25 9-7.25 9l1 19.5 15.75-3.5s-.25-13.5-.25-15.75-2.5-10-9.25-9.25z"/><path fill="none" d="M652.5 450.25c1 11-7.25 9-7.25 9l1 19.5 15.75-3.5s-.25-13.5-.25-15.75-2.5-10-9.25-9.25z"/></g><path fill="none" stroke="#3D3D3D" stroke-linecap="round" stroke-linejoin="round" stroke-width="13" d="M595.26 437.5s13 1 19.75-5.25m39.62-18.99s15.87-1.18 23.1 5.46" style="display:block"/><g style="display:block"><path fill="#9F9F9F" d="M467.5 381.25c-8.76 13.33-17.25 34.25-3.25 64 13.41 28.5 54.24 52.99 73.25 24 15.25-23.25 7.75-67.75 7.75-67.75s-70.69-31-77.75-20.25z"/><path fill="none" d="M467.5 381.25c-8.76 13.33-17.25 34.25-3.25 64 13.41 28.5 54.24 52.99 73.25 24 15.25-23.25 7.75-67.75 7.75-67.75s-70.69-31-77.75-20.25z"/><path fill="#3D3D3D" d="M525.25 336.5c-40.25-1.5-67.36 21.4-66 50.75 1.25 27 10.02 33 26.5 41.75 16 8.5 38.02 10.14 53.5 11 22.5 1.25 30.75-18.5 31.25-23.75 59 0 113.25-2 113.25-2s32.75-62-41.75-71.25c-35.83-4.45-66.72-4.64-116.75-6.5z"/><path fill="none" d="M525.25 336.5c-40.25-1.5-67.36 21.4-66 50.75 1.25 27 10.02 33 26.5 41.75 16 8.5 38.02 10.14 53.5 11 22.5 1.25 30.75-18.5 31.25-23.75 59 0 113.25-2 113.25-2s32.75-62-41.75-71.25c-35.83-4.45-66.72-4.64-116.75-6.5z"/></g><g mask="url(#ae)" style="display:block"><path fill="#323232" d="M586.95 273.34a48.17 48.17 0 0 1 48.14 48.15 48.17 48.17 0 0 1-48.14 48.14 48.17 48.17 0 0 1-48.15-48.14 48.17 48.17 0 0 1 48.15-48.15z"/><path fill="none" d="M586.95 273.34a48.17 48.17 0 0 1 48.14 48.15 48.17 48.17 0 0 1-48.14 48.14 48.17 48.17 0 0 1-48.15-48.14 48.17 48.17 0 0 1 48.15-48.15z"/></g><g style="display:block"><path fill="#3D3D3D" d="M586.95 278.5a43 43 0 0 1 42.98 42.99 43 43 0 0 1-42.98 42.98 43 43 0 0 1-43-42.98 43 43 0 0 1 43-43z"/><path fill="none" d="M586.95 278.5a43 43 0 0 1 42.98 42.99 43 43 0 0 1-42.98 42.98 43 43 0 0 1-43-42.98 43 43 0 0 1 43-43z"/></g></g></g><g mask="url(#af)" style="display:block"><g clip-path="url(#ag)" transform="rotate(-10 -1667.63 4948.58)"><path fill="none" stroke="#00C0FF" stroke-linecap="round" stroke-linejoin="round" stroke-width="21" d="M77 109.5s-16.6 28.64 3.75 44.75c18 14.25 37.75 2.5 49.75-21.75" style="display:block" transform="translate(641.5 542)"/><path fill="none" stroke="#00C0FF" stroke-linecap="round" stroke-linejoin="round" stroke-width="24" d="m754 619.5 9.25 19m16.5-37 15 15" style="display:block"/><g style="display:block"><path fill="#00C0FF" d="M807.5 604c-15.07 0-43.14.22-55 28.5-13 31 6 51.5 26.5 59s32 16.5 43 25 40.5 30.5 69 8 12-60.09 0-75C874.5 629 839 604 807.5 604z"/><path fill="none" d="M807.5 604c-15.07 0-43.14.22-55 28.5-13 31 6 51.5 26.5 59s32 16.5 43 25 40.5 30.5 69 8 12-60.09 0-75C874.5 629 839 604 807.5 604z"/><path fill="#00C0FF" d="M889.75 715.75 863.5 725s3.65 14.2 4.75 18.25c2.25 8.25 12.75 9.5 15.5-1.25 2.12-8.29 6-26.25 6-26.25z"/><path fill="none" d="M889.75 715.75 863.5 725s3.65 14.2 4.75 18.25c2.25 8.25 12.75 9.5 15.5-1.25 2.12-8.29 6-26.25 6-26.25z"/><path fill="#00C0FF" d="m898.61 694.56-15 26.07s11.26 5 17.67 7.2c8.08 2.77 15.9-2.27 9.05-14.26-4.25-7.42-11.72-19-11.72-19z"/><path fill="none" d="m898.61 694.56-15 26.07s11.26 5 17.67 7.2c8.08 2.77 15.9-2.27 9.05-14.26-4.25-7.42-11.72-19-11.72-19z"/></g><g style="display:block"><path fill="#00C0FF" d="M859.38 631.5s-6.63 4-10.25 8.25c-3.63 4.25-2.38 9.5.62 13.38 3 3.87 9.81 4 14 2.12 4.75-2.13 9.88-6.25 9.88-6.25"/><path fill="none" d="M859.38 631.5s-6.63 4-10.25 8.25c-3.63 4.25-2.38 9.5.62 13.38 3 3.87 9.81 4 14 2.12 4.75-2.13 9.88-6.25 9.88-6.25"/></g><g mask="url(#ah)" style="display:block"><path fill="none" stroke="#00A9E5" stroke-linecap="round" stroke-linejoin="round" stroke-width="4" d="M859.38 631.5s-6.63 4-10.25 8.25c-3.63 4.25-2.38 9.5.62 13.38 3 3.87 9.81 4 14 2.12 4.75-2.13 9.88-6.25 9.88-6.25"/></g><g style="display:block"><path fill="#00759C" d="M891.58 705.63a4.74 4.74 0 1 1 0 9.47 4.74 4.74 0 0 1 0-9.47zm-7.36 4.76a4.74 4.74 0 1 1 0 9.47 4.74 4.74 0 0 1 0-9.47z"/><path fill="none" d="M891.58 705.63a4.74 4.74 0 1 1 0 9.47 4.74 4.74 0 0 1 0-9.47zm-7.36 4.76a4.74 4.74 0 1 1 0 9.47 4.74 4.74 0 0 1 0-9.47z"/><path fill="#231C23" d="m870 702.25 14.75-9.75"/><path fill="none" stroke="#FFFEFF" stroke-linecap="round" stroke-linejoin="round" stroke-width="28" d="m870 702.25 14.75-9.75"/><path fill="#FE979A" d="m880.38 698.13-.75 10 10.12-6.88-9.38-3.13z"/><path fill="none" d="m880.38 698.13-.75 10 10.12-6.88-9.38-3.13z"/></g><g mask="url(#ai)" style="display:block"><path fill="none" stroke="#00A9E5" stroke-linecap="round" stroke-linejoin="round" stroke-width="18" d="M785.75 686s-.25 10.5 2.75 31.75m23.75-17s1.25 19 4.5 33.25"/></g><g style="display:block"><path fill="#00C0FF" d="M816 670s6.63-7.25 9.13-9.5c2.5-2.25 8.37-6.88 14.25-3.25 5.87 3.63 4.37 10.63 3.12 13.5-1.25 2.88-7.63 13.25-7.63 13.25"/><path fill="none" d="M816 670s6.63-7.25 9.13-9.5c2.5-2.25 8.37-6.88 14.25-3.25 5.87 3.63 4.37 10.63 3.12 13.5-1.25 2.88-7.63 13.25-7.63 13.25"/></g><g mask="url(#aj)" style="display:block"><path fill="none" stroke="#00A9E5" stroke-linecap="round" stroke-linejoin="round" stroke-width="4" d="M816 670s6.63-7.25 9.13-9.5c2.5-2.25 8.37-6.88 14.25-3.25 5.87 3.63 4.37 10.63 3.12 13.5-1.25 2.88-7.63 13.25-7.63 13.25"/></g></g></g><g clip-path="url(#ak)" mask="url(#al)" style="display:block"><g style="display:block"><path fill="#C4F3FF" d="M245 320.5h-61.5c-15.75 0-23.75 10.75-27.75 20.75-4.17 10.43-19.5 49.5-24.75 61.75s-3.25 24.5 9.5 24.5h65.75c11.5 0 21.75-11.25 25.25-20s23-57.75 26.5-67 1-20-13-20z"/><path fill="none" stroke="#66E1FF" stroke-width="5" d="M245 320.5h-61.5c-15.75 0-23.75 10.75-27.75 20.75-4.17 10.43-19.5 49.5-24.75 61.75s-3.25 24.5 9.5 24.5h65.75c11.5 0 21.75-11.25 25.25-20s23-57.75 26.5-67 1-20-13-20z"/><path fill="#66E1FF" d="M208.75 340.63c-16.5 0-31.5 10.25-41.38 27.12-8.7 14.88-6.37 36.66 12.88 36.66 22 0 36.84-15.12 44.38-30.04 6.12-12.12 3.12-33.75-15.88-33.75z"/><path fill="none" d="M208.75 340.63c-16.5 0-31.5 10.25-41.38 27.12-8.7 14.88-6.37 36.66 12.88 36.66 22 0 36.84-15.12 44.38-30.04 6.12-12.12 3.12-33.75-15.88-33.75z"/></g><g style="display:block"><path fill="#C4F3FF" d="M292.25 200.75h-61.5C215 200.75 207 211.5 203 221.5c-4.17 10.43-19.5 49.5-24.75 61.75s-3.25 24.5 9.5 24.5h65.75c11.5 0 21.75-11.25 25.25-20s23-57.75 26.5-67 1-20-13-20z"/><path fill="none" stroke="#66E1FF" stroke-width="5" d="M292.25 200.75h-61.5C215 200.75 207 211.5 203 221.5c-4.17 10.43-19.5 49.5-24.75 61.75s-3.25 24.5 9.5 24.5h65.75c11.5 0 21.75-11.25 25.25-20s23-57.75 26.5-67 1-20-13-20z"/><path fill="#66E1FF" d="M279.25 228h-4.88c4-15.25-13.5-14.63-19.87-6.63-2.13-9.75-18.75-7.75-25 6.63h-6.25c-4.63 0-5.13 1.5-6.38 4.13a268.23 268.23 0 0 0-6 14.25c-.87 2.5-1.75 5.62 4 5.62-2.25 5.13-11 27.63-12.25 30.88s-.12 6.37 2.88 6.37h42.88c4.62 0 7.12-.25 9.37-6 2.25-5.75 11-30.5 11-30.5s5.31 1.1 7.88-5.13c1.75-4.25 3.73-8.54 4.75-11.5 1.37-4 2-8.12-2.13-8.12z"/><path fill="none" d="M279.25 228h-4.88c4-15.25-13.5-14.63-19.87-6.63-2.13-9.75-18.75-7.75-25 6.63h-6.25c-4.63 0-5.13 1.5-6.38 4.13a268.23 268.23 0 0 0-6 14.25c-.87 2.5-1.75 5.62 4 5.62-2.25 5.13-11 27.63-12.25 30.88s-.12 6.37 2.88 6.37h42.88c4.62 0 7.12-.25 9.37-6 2.25-5.75 11-30.5 11-30.5s5.31 1.1 7.88-5.13c1.75-4.25 3.73-8.54 4.75-11.5 1.37-4 2-8.12-2.13-8.12z"/></g><g style="display:block"><path fill="#66E1FF" d="M434.51 120.46c-8.6 0-152.57.29-164.36.29-12.38 0-20.4 20.05-7.55 20.05 5.9 0 150.69.18 163.66.18 11.8 0 20.99-20.52 8.25-20.52z"/><path fill="none" d="M434.51 120.46c-8.6 0-152.57.29-164.36.29-12.38 0-20.4 20.05-7.55 20.05 5.9 0 150.69.18 163.66.18 11.8 0 20.99-20.52 8.25-20.52z"/></g></g><g mask="url(#am)" style="display:block"><path fill="#00ABFD" d="M1083.25 928.5c-9-1-15-2-28 1s-162.24 40.33-186.75 45c-10.5 2-7.25 3.75-2 4.75s26 4.25 39.25 6.25 20.75.75 34-2 176.75-43.5 186-45.25 5-3.25-1-4-32.5-4.75-41.5-5.75z"/><path fill="none" d="M1083.25 928.5c-9-1-15-2-28 1s-162.24 40.33-186.75 45c-10.5 2-7.25 3.75-2 4.75s26 4.25 39.25 6.25 20.75.75 34-2 176.75-43.5 186-45.25 5-3.25-1-4-32.5-4.75-41.5-5.75z"/></g></g><g clip-path="url(#an)" style="display:block" transform="translate(2742 988)"><g style="display:block"><path fill="#242F62" d="M969.35 32.61c10.4 1.39 21.04 3.2 28.16 5 8.49 2.14 17.99 6.39 27.63 15.47C1040.8 67.83 1317 316.14 1331.3 328.44c25.95 22.31 22.95 41.06 11.42 57.75-19.23 27.86-74.72 112.56-96.43 144.85-12.19 18.13-17.79 20.21-27 22.7-11.48 3.09-14.29 4.26-20.95 5.38-6.61 1.1-18.21 5.97-31.08-2.95-17.71-12.28-298.22-290.32-313.68-307.74-15.44-17.41-13.04-35.81-4.64-53.37 8.4-17.56 89.47-145.58 94.75-154.98 5.27-9.4 21.99-7.96 25.66-7.47z"/><path fill="none" d="M969.35 32.61c10.4 1.39 21.04 3.2 28.16 5 8.49 2.14 17.99 6.39 27.63 15.47C1040.8 67.83 1317 316.14 1331.3 328.44c25.95 22.31 22.95 41.06 11.42 57.75-19.23 27.86-74.72 112.56-96.43 144.85-12.19 18.13-17.79 20.21-27 22.7-11.48 3.09-14.29 4.26-20.95 5.38-6.61 1.1-18.21 5.97-31.08-2.95-17.71-12.28-298.22-290.32-313.68-307.74-15.44-17.41-13.04-35.81-4.64-53.37 8.4-17.56 89.47-145.58 94.75-154.98 5.27-9.4 21.99-7.96 25.66-7.47z"/><path fill="#026CB2" d="M985.58 44.27c17.42 14.48 297.35 274.5 310.75 286.93 15.67 14.55 26.09 32.14 7.62 60.55-18.2 28-88.95 136.5-99.38 152.23-8.74 13.18-22.93 18.42-37.3 12.2-17.96-11.94-298.23-290.33-313.69-307.75-15.44-17.41-13.64-35.41-5.24-52.97 8.4-17.56 90.07-145.98 95.35-155.38 5.27-9.4 24.47-10.29 41.89 4.2z"/><path fill="none" d="M985.58 44.27c17.42 14.48 297.35 274.5 310.75 286.93 15.67 14.55 26.09 32.14 7.62 60.55-18.2 28-88.95 136.5-99.38 152.23-8.74 13.18-22.93 18.42-37.3 12.2-17.96-11.94-298.23-290.33-313.69-307.75-15.44-17.41-13.64-35.41-5.24-52.97 8.4-17.56 90.07-145.98 95.35-155.38 5.27-9.4 24.47-10.29 41.89 4.2z"/><path fill="#252F62" d="M842.43 213.85c.88-6.16 3-12.3 5.91-18.4 8.4-17.55 90.07-145.97 95.35-155.37 3.7-6.6 14.26-9 26.25-4.84 1.31 5.76 7.5 31.12 7.5 31.12L858.73 214.73s-10.73-.48-16.3-.88z"/><path fill="none" d="M842.43 213.85c.88-6.16 3-12.3 5.91-18.4 8.4-17.55 90.07-145.97 95.35-155.37 3.7-6.6 14.26-9 26.25-4.84 1.31 5.76 7.5 31.12 7.5 31.12L858.73 214.73s-10.73-.48-16.3-.88z"/><path fill="#3FA0D2" d="m1247.95 354.75 9.97 108.03s-47.87 72.8-53.6 81.45c-8.74 13.18-22.93 18.42-37.3 12.2-8.78-5.84-152.43-146.78-152.43-146.78l-31-128.22 264.36 73.32z"/><path fill="none" d="m1247.95 354.75 9.97 108.03s-47.87 72.8-53.6 81.45c-8.74 13.18-22.93 18.42-37.3 12.2-8.78-5.84-152.43-146.78-152.43-146.78l-31-128.22 264.36 73.32z"/><path fill="#FFF" d="M978.4 52.72c12.76 11.43 297.75 272.46 308.8 284.45 18.3 19.83 15.2 35.01 2.8 52.73-12.5 17.85-80.75 116.6-100.05 143.88-8.7 12.3-19.63 15.21-37.2-3-13.79-14.32-274.08-270.5-288.44-286.65-12.6-14.17-14.8-25.34-4.63-45.24 6.35-12.43 81.07-130.39 91.58-146.7 5.39-8.35 15.99-9.44 27.14.53z"/><path fill="none" d="M978.4 52.72c12.76 11.43 297.75 272.46 308.8 284.45 18.3 19.83 15.2 35.01 2.8 52.73-12.5 17.85-80.75 116.6-100.05 143.88-8.7 12.3-19.63 15.21-37.2-3-13.79-14.32-274.08-270.5-288.44-286.65-12.6-14.17-14.8-25.34-4.63-45.24 6.35-12.43 81.07-130.39 91.58-146.7 5.39-8.35 15.99-9.44 27.14.53z"/></g><g style="display:block"><path fill="#304974" d="M383.9 780.05c-5.54 1.32-19.4 4.2-27.92 6.42-8.73 2.28-23.63-.3-31.86-9.06C309.38 761.73 62.75 467.75 38.05 439.3 13.36 410.87 21 395.75 28.36 373c10.42-32.2 41.39-134.24 50.99-166.07 5.4-17.92 14.4-18.17 25.07-20.1 11.7-2.12 20.16-3.68 30.22-5.29 6.62-1.06 12.86-6.03 24.1 7.41 13.84 16.54 251.74 324.85 265.5 343.63 13.77 18.78 13.27 25.72 10.1 44.93-3.19 19.2-25.92 182.26-31.23 191.64-5.3 9.38-11.61 9.11-19.2 10.91z"/><path fill="none" d="M383.9 780.05c-5.54 1.32-19.4 4.2-27.92 6.42-8.73 2.28-23.63-.3-31.86-9.06C309.38 761.73 62.75 467.75 38.05 439.3 13.36 410.87 21 395.75 28.36 373c10.42-32.2 41.39-134.24 50.99-166.07 5.4-17.92 14.4-18.17 25.07-20.1 11.7-2.12 20.16-3.68 30.22-5.29 6.62-1.06 12.86-6.03 24.1 7.41 13.84 16.54 251.74 324.85 265.5 343.63 13.77 18.78 13.27 25.72 10.1 44.93-3.19 19.2-25.92 182.26-31.23 191.64-5.3 9.38-11.61 9.11-19.2 10.91z"/><path fill="#231D24" d="M172.03 597.97S49.61 452.61 38.04 439.3C13.36 410.87 21 395.75 28.36 373c10.42-32.2 41.39-134.24 50.99-166.07 5.4-17.92 14.4-18.17 25.07-20.1 11.7-2.12 20.16-3.68 30.22-5.29 6.62-1.06 12.86-6.03 24.1 7.41 13.84 16.54 79.54 406.13 79.54 406.13l-66.25 2.9z"/><path fill="none" d="M172.03 597.97S49.61 452.61 38.04 439.3C13.36 410.87 21 395.75 28.36 373c10.42-32.2 41.39-134.24 50.99-166.07 5.4-17.92 14.4-18.17 25.07-20.1 11.7-2.12 20.16-3.68 30.22-5.29 6.62-1.06 12.86-6.03 24.1 7.41 13.84 16.54 79.54 406.13 79.54 406.13l-66.25 2.9z"/><path fill="#598EC0" d="M372.23 765.6C358.43 750.62 105.5 446.24 91.3 428.16c-14.42-18.36-16.81-34.92-10.44-55.84 9.48-31.14 48.3-164.32 52.22-179.45 3.91-15.13 14.66-16.38 25.66-3.94 14.06 16.34 251.73 324.85 265.5 343.63 13.76 18.78 13.72 25.17 10.54 44.38-3.18 19.2-26.37 182.8-31.68 192.2-5.3 9.37-20.36 7.85-30.88-3.56z"/><path fill="none" d="M372.23 765.6C358.43 750.62 105.5 446.24 91.3 428.16c-14.42-18.36-16.81-34.92-10.44-55.84 9.48-31.14 48.3-164.32 52.22-179.45 3.91-15.13 14.66-16.38 25.66-3.94 14.06 16.34 251.73 324.85 265.5 343.63 13.76 18.78 13.72 25.17 10.54 44.38-3.18 19.2-26.37 182.8-31.68 192.2-5.3 9.37-20.36 7.85-30.88-3.56z"/><path fill="#2F4A75" d="M230 595.75S98.34 437.12 91.3 428.17c-14.4-18.36-16.8-34.92-10.43-55.84 9.48-31.14 48.3-164.32 52.22-179.45 3.91-15.13 14.66-16.38 25.66-3.94 14.06 16.34 251.73 324.85 265.5 343.63 2.77 3.78 4.98 7.07 6.72 10.05-2.12.4-13.78 2.08-13.78 2.08l-154.04 49.8-33.15 1.25z"/><path fill="none" d="M230 595.75S98.34 437.12 91.3 428.17c-14.4-18.36-16.8-34.92-10.43-55.84 9.48-31.14 48.3-164.32 52.22-179.45 3.91-15.13 14.66-16.38 25.66-3.94 14.06 16.34 251.73 324.85 265.5 343.63 2.77 3.78 4.98 7.07 6.72 10.05-2.12.4-13.78 2.08-13.78 2.08l-154.04 49.8-33.15 1.25z"/><path fill="#FFF" d="M368.71 745.89C357.34 733.08 113 441 101.2 425.99c-14.24-18.11-14.45-37.74-10.87-50.75 5.5-19.94 39.17-140.74 48.32-171.88 4.25-14.45 15.85-10.61 23.46-.62 7.62 10 236.89 308.26 250.66 326.84 12.26 16.54 12.48 27.32 9.8 49.5-1.67 13.86-24.2 147.74-28.72 169.93C391 763 383 762 368.7 745.9z"/><path fill="none" d="M368.71 745.89C357.34 733.08 113 441 101.2 425.99c-14.24-18.11-14.45-37.74-10.87-50.75 5.5-19.94 39.17-140.74 48.32-171.88 4.25-14.45 15.85-10.61 23.46-.62 7.62 10 236.89 308.26 250.66 326.84 12.26 16.54 12.48 27.32 9.8 49.5-1.67 13.86-24.2 147.74-28.72 169.93C391 763 383 762 368.7 745.9z"/><path fill="#283C60" d="M104.5 471.75c-11.75-12-27.75.5-17.5 13 6.17 7.53 35.82 39.18 42 45.5C140.5 542 155 526 146.5 517c-6.92-7.33-35.32-38.43-42-45.25z"/><path fill="none" d="M104.5 471.75c-11.75-12-27.75.5-17.5 13 6.17 7.53 35.82 39.18 42 45.5C140.5 542 155 526 146.5 517c-6.92-7.33-35.32-38.43-42-45.25z"/><path fill="#332E3B" d="M95 201c-17.75 7.75-.5 20.5-.5 20.5s-2.25-9.25 6.75-13S117 212 117 212s1.02-21.05-22-11z"/><path fill="none" d="M95 201c-17.75 7.75-.5 20.5-.5 20.5s-2.25-9.25 6.75-13S117 212 117 212s1.02-21.05-22-11z"/></g><g mask="url(#ao)" style="display:block"><path fill="#9DEBFF" d="M140 162 54 411l185 187 196-58-295-378z"/><path fill="none" d="M140 162 54 411l185 187 196-58-295-378z"/></g><g mask="url(#ap)" style="display:block"><path fill="#E5E5E5" d="M385.75 516.75c-3.54-4.43-8.25-3.75-9.5 4.25s-28 149.25-29.75 160.25 2.25 18 4.5 21.5 5.5 7 11.25 14.25 9.25-.75 10.25-6.25 26.25-147 28-159c1.54-10.53-1.5-17.75-3.75-20.75s-7-9.25-11-14.25z"/><path fill="none" d="M385.75 516.75c-3.54-4.43-8.25-3.75-9.5 4.25s-28 149.25-29.75 160.25 2.25 18 4.5 21.5 5.5 7 11.25 14.25 9.25-.75 10.25-6.25 26.25-147 28-159c1.54-10.53-1.5-17.75-3.75-20.75s-7-9.25-11-14.25z"/><path fill="none" stroke="#E5E5E5" stroke-width="5" d="M294 399c-3.54-4.43-8.5-3.75-9.75 4.25s-33.25 147.5-35 158.5 1.5 17.25 3.75 20.75 9.75 12 16.25 19.25c6.18 6.89 9.25-.75 10.25-6.25s31.25-145 33-157c1.54-10.53-1.5-17.75-3.75-20.75S298 404 294 399z"/></g><g mask="url(#aq)" style="display:block"><g clip-path="url(#ar)" mask="url(#as)" style="display:block"><path fill="#3DBCF8" d="M385.75 516.75c-3.54-4.43-8.25-3.75-9.5 4.25s-28 149.25-29.75 160.25 2.25 18 4.5 21.5 5.5 7 11.25 14.25 9.25-.75 10.25-6.25 26.25-147 28-159c1.54-10.53-1.5-17.75-3.75-20.75s-7-9.25-11-14.25z"/><path fill="none" d="M385.75 516.75c-3.54-4.43-8.25-3.75-9.5 4.25s-28 149.25-29.75 160.25 2.25 18 4.5 21.5 5.5 7 11.25 14.25 9.25-.75 10.25-6.25 26.25-147 28-159c1.54-10.53-1.5-17.75-3.75-20.75s-7-9.25-11-14.25z"/><path fill="none" stroke="#3DBCF8" stroke-width="5" d="M294 399c-3.54-4.43-8.5-3.75-9.75 4.25s-33.25 147.5-35 158.5 1.5 17.25 3.75 20.75 9.75 12 16.25 19.25c6.18 6.89 9.25-.75 10.25-6.25s31.25-145 33-157c1.54-10.53-1.5-17.75-3.75-20.75S298 404 294 399z"/></g></g><g clip-path="url(#at)" mask="url(#au)" style="display:block"><g style="display:block"><path fill="#FFF" d="M1056.43 321.3c-5.39 9.3-15.11 24.74-22.04 36.92-6.14 10.78-.89 26.03 7.4 34.79 7.73 8.16 25.71 25.74 35.58 35.5 9.47 9.37 22.88 10.74 30.5-.7 6.97-10.5 17.63-27.56 24.26-38.31 6.04-9.79 3.62-25.75-4.24-33.2-6.83-6.5-34.09-33.58-41.4-40.24-10.24-9.31-23.24-6.56-30.06 5.23z"/><path fill="none" stroke="#D9D9D9" stroke-width="5" d="M1056.43 321.3c-5.39 9.3-15.11 24.74-22.04 36.92-6.14 10.78-.89 26.03 7.4 34.79 7.73 8.16 25.71 25.74 35.58 35.5 9.47 9.37 22.88 10.74 30.5-.7 6.97-10.5 17.63-27.56 24.26-38.31 6.04-9.79 3.62-25.75-4.24-33.2-6.83-6.5-34.09-33.58-41.4-40.24-10.24-9.31-23.24-6.56-30.06 5.23z"/><path fill="#1CB0F6" d="M1061.5 351.7c-6.5 12.56-4.1 27.46 6.9 40.7 9.72 11.67 29.37 16.53 36.94 1.88 8.66-16.74 1.9-32.4-8.3-43.2-8.3-8.78-28.07-13.83-35.55.63z"/><path fill="none" d="M1061.5 351.7c-6.5 12.56-4.1 27.46 6.9 40.7 9.72 11.67 29.37 16.53 36.94 1.88 8.66-16.74 1.9-32.4-8.3-43.2-8.3-8.78-28.07-13.83-35.55.63z"/><path fill="#0390D4" d="M1070.38 358.5c-7.63-2.88-12.38 6-3.63 16.88-1.38 10.12 9 20.87 15.5 8 7.13 4.5 11.38-7.13 3.88-14.88 2.12-13.5-13.38-19-15.76-10z"/><path fill="none" d="M1070.38 358.5c-7.63-2.88-12.38 6-3.63 16.88-1.38 10.12 9 20.87 15.5 8 7.13 4.5 11.38-7.13 3.88-14.88 2.12-13.5-13.38-19-15.76-10z"/></g><g style="display:block"><path fill="#FFF" d="M979.24 241.15c-5.49 8.85-16.67 26.9-22.98 38.15-7.26 12.95-1.6 27.14 4.22 33.16 7.77 8.04 31.91 31.57 39.42 38.73 6.35 6.06 19.48 7.46 25.41-1.14 6.94-10.05 20.53-31.5 24.46-39.16 6.23-12.14 3.23-25.39-5.4-35.28-4.82-5.53-35.03-33.56-40.7-38.75-5.66-5.2-18.38-5.45-24.43 4.3z"/><path fill="none" stroke="#DADADA" stroke-width="5" d="M979.24 241.15c-5.49 8.85-16.67 26.9-22.98 38.15-7.26 12.95-1.6 27.14 4.22 33.16 7.77 8.04 31.91 31.57 39.42 38.73 6.35 6.06 19.48 7.46 25.41-1.14 6.94-10.05 20.53-31.5 24.46-39.16 6.23-12.14 3.23-25.39-5.4-35.28-4.82-5.53-35.03-33.56-40.7-38.75-5.66-5.2-18.38-5.45-24.43 4.3z"/><path fill="#9A75D9" d="M999.4 257.89c-.26.46-1.93 2.33-2.65 4.23-10.75-8.37-18.07 5.26-14.14 12.32-8.61-1.94-14.99 10.44-5.55 20.22a65.89 65.89 0 0 1-3.17 4.66c-1.39 1.56-1.28 3.46.26 5.14a332.9 332.9 0 0 0 11.18 11.09c1.55 1.35 3.8 2.49 5.46-1.92 3.04 3.12 18.12 18.2 20.12 20.02 2.84 2.6 5.34 1.71 6.67-.35 2.8-4.3 16.56-26.94 18.62-30.12 2.05-3.18 3.62-5.03.12-8.32s-21.59-20.83-21.59-20.83 2.77-3.4.33-5.68c-2.62-2.44-8.6-8.29-10.43-9.89-1.38-1.21-3.88-2.96-5.22-.57z"/><path fill="none" d="M999.4 257.89c-.26.46-1.93 2.33-2.65 4.23-10.75-8.37-18.07 5.26-14.14 12.32-8.61-1.94-14.99 10.44-5.55 20.22a65.89 65.89 0 0 1-3.17 4.66c-1.39 1.56-1.28 3.46.26 5.14a332.9 332.9 0 0 0 11.18 11.09c1.55 1.35 3.8 2.49 5.46-1.92 3.04 3.12 18.12 18.2 20.12 20.02 2.84 2.6 5.34 1.71 6.67-.35 2.8-4.3 16.56-26.94 18.62-30.12 2.05-3.18 3.62-5.03.12-8.32s-21.59-20.83-21.59-20.83 2.77-3.4.33-5.68c-2.62-2.44-8.6-8.29-10.43-9.89-1.38-1.21-3.88-2.96-5.22-.57z"/><path fill="#FFC800" d="M996.75 262.12c-10.75-8.37-18.07 5.26-14.14 12.32-8.61-1.94-14.99 10.44-5.55 20.22-1.43 2.21 4.33-7.46 4.33-7.46l13.5 12.76.69-1.04 27.5 25.88 8.62-13.62-26.88-26.32.91-1.7-13.67-13.06s5.4-9.88 4.69-7.98z"/><path fill="none" d="M996.75 262.12c-10.75-8.37-18.07 5.26-14.14 12.32-8.61-1.94-14.99 10.44-5.55 20.22-1.43 2.21 4.33-7.46 4.33-7.46l13.5 12.76.69-1.04 27.5 25.88 8.62-13.62-26.88-26.32.91-1.7-13.67-13.06s5.4-9.88 4.69-7.98z"/></g><g style="display:block"><path fill="#D9D9D9" d="M971.5 103.75c-4.75 8-61.45 105.03-70.5 120.75-4.75 8.25 6.15 21.24 12.25 10.75 6.25-10.75 64.25-107.5 70.5-118.5s-7.5-21-12.25-13z"/><path fill="none" d="M971.5 103.75c-4.75 8-61.45 105.03-70.5 120.75-4.75 8.25 6.15 21.24 12.25 10.75 6.25-10.75 64.25-107.5 70.5-118.5s-7.5-21-12.25-13z"/><path fill="#79C700" d="M918.13 195.38c-4.75 8-8.08 13.4-17.13 29.12-4.75 8.25 6.15 21.24 12.25 10.75 6.25-10.75 9.75-16.38 16.88-28.25 6.5-10.85-7.25-19.63-12-11.63z"/><path fill="none" d="M918.13 195.38c-4.75 8-8.08 13.4-17.13 29.12-4.75 8.25 6.15 21.24 12.25 10.75 6.25-10.75 9.75-16.38 16.88-28.25 6.5-10.85-7.25-19.63-12-11.63z"/></g><g style="display:block"><path fill="#FFF" d="M1029.3 156.87c-5.54 9.2-14.5 23.9-22.9 38.91-7.4 13.22-.87 29.61 7.08 36.88 9.64 8.84 25.52 23.21 34.77 32.81 9.24 9.6 23.25 9.4 29.01.15 5.95-9.55 17.74-29.12 24.57-40.2 6.62-10.77 3.09-26.42-3.62-33.04-6.7-6.63-33.01-31.64-40.17-38.46-7.17-6.83-21.29-9.42-28.73 2.95z"/><path fill="none" stroke="#D8D8D8" stroke-width="5" d="M1029.3 156.87c-5.54 9.2-14.5 23.9-22.9 38.91-7.4 13.22-.87 29.61 7.08 36.88 9.64 8.84 25.52 23.21 34.77 32.81 9.24 9.6 23.25 9.4 29.01.15 5.95-9.55 17.74-29.12 24.57-40.2 6.62-10.77 3.09-26.42-3.62-33.04-6.7-6.63-33.01-31.64-40.17-38.46-7.17-6.83-21.29-9.42-28.73 2.95z"/><path fill="#A7ED6E" d="M1035.32 165.5c-3.44 13.75 1.77 22.38 5.47 27.07 3.38-4.93 6.79-19.1-5.47-27.07z"/><path fill="none" d="M1035.32 165.5c-3.44 13.75 1.77 22.38 5.47 27.07 3.38-4.93 6.79-19.1-5.47-27.07z"/><path fill="#F8526B" d="M1044.6 202.65s-9.6-1.8-13.87 5.77c-4.26 7.56-3.44 21.39 9.04 28.15 13.73 7.43 28.27 12.35 33.55 3 2.4-4.25 1.6-5.75 2.9-8.07 1.2-2.1 2.22-.6 4.67-4.94 5.65-10.02-2.77-25.44-10.2-39.5-7.72-14.62-21.44-9.56-24.83-4.44-5.33 8.04-1.27 20.03-1.27 20.03z"/><path fill="none" d="M1044.6 202.65s-9.6-1.8-13.87 5.77c-4.26 7.56-3.44 21.39 9.04 28.15 13.73 7.43 28.27 12.35 33.55 3 2.4-4.25 1.6-5.75 2.9-8.07 1.2-2.1 2.22-.6 4.67-4.94 5.65-10.02-2.77-25.44-10.2-39.5-7.72-14.62-21.44-9.56-24.83-4.44-5.33 8.04-1.27 20.03-1.27 20.03z"/><path fill="#8B4C32" d="M1036.38 191c-2.76-3.25-6.13.75-3.13 3.25s6.78 6.42 10.38 8.56c.58.35 1.5-.64 1.16-1.23-2.1-3.65-6.97-8.88-8.41-10.58z"/><path fill="none" d="M1036.38 191c-2.76-3.25-6.13.75-3.13 3.25s6.78 6.42 10.38 8.56c.58.35 1.5-.64 1.16-1.23-2.1-3.65-6.97-8.88-8.41-10.58z"/></g></g><g mask="url(#av)" style="display:block"><g clip-path="url(#aw)" transform="rotate(-25 1006.99 1599.44)"><g style="display:block"><path fill="#0FB000" d="M572.09 468.04s-54.52-61.48-23.58-134.4c18.5-43.61 35.46-25.26 40.76-10.13 5.3 15.13 30.44 83.75 30.44 83.75"/><path fill="none" d="M572.09 468.04s-54.52-61.48-23.58-134.4c18.5-43.61 35.46-25.26 40.76-10.13 5.3 15.13 30.44 83.75 30.44 83.75"/></g><g style="display:block"><path fill="#00CF00" d="M627.5 360.5c-18 6-55.76 20.74-91.25 42.25-33 20-69.75 42.25-46.25 86.25 24.9 46.6 86.5 31 111.5 20.5s74-35 111-57.5c34.24-20.82 20-67.5-8.5-77.5-27.07-9.5-6.32-6.05-25-21-12.5-10-33.5 1-51.5 7z"/><path fill="none" d="M627.5 360.5c-18 6-55.76 20.74-91.25 42.25-33 20-69.75 42.25-46.25 86.25 24.9 46.6 86.5 31 111.5 20.5s74-35 111-57.5c34.24-20.82 20-67.5-8.5-77.5-27.07-9.5-6.32-6.05-25-21-12.5-10-33.5 1-51.5 7z"/><path fill="#67E500" d="M609.75 367.25c-11.22 4.49-28.75 11.5-38.75 16.25s-13.5 6.25-10.25 10.5c8.51 11.13 48.25-.25 48.25-.25S567.5 409 578 423s34.75 5.25 54.25-2c15.63-5.81 44.75-24.75 35.5-34s-28.5-6-32-8.5 4-6.5-.75-12.75-14-3-25.25 1.5z"/><path fill="none" d="M609.75 367.25c-11.22 4.49-28.75 11.5-38.75 16.25s-13.5 6.25-10.25 10.5c8.51 11.13 48.25-.25 48.25-.25S567.5 409 578 423s34.75 5.25 54.25-2c15.63-5.81 44.75-24.75 35.5-34s-28.5-6-32-8.5 4-6.5-.75-12.75-14-3-25.25 1.5z"/><path fill="#67E500" d="M534.55 411.33s-8.8 6.36-7.3 10.37c1.71 4.57 12.5-.82 12.5-.82l-5.2-9.55z"/><path fill="none" d="M534.55 411.33s-8.8 6.36-7.3 10.37c1.71 4.57 12.5-.82 12.5-.82l-5.2-9.55z"/><path fill="#67E500" d="M541.86 425.69s-9.04 6.27-6.76 10.26c2.29 4 12.55-1.47 12.55-1.47l-5.79-8.8z"/><path fill="none" d="M541.86 425.69s-9.04 6.27-6.76 10.26c2.29 4 12.55-1.47 12.55-1.47l-5.79-8.8z"/><path fill="#67E500" d="M520.23 430.32s-9.2 6.36-7.06 10.45c2.29 4.38 11.95-.7 11.95-.7l-4.9-9.75z"/><path fill="none" d="M520.23 430.32s-9.2 6.36-7.06 10.45c2.29 4.38 11.95-.7 11.95-.7l-4.9-9.75z"/><path fill="#FFF" d="M593 374c-17.75 7.75-22.5 10.25-19.25 13.25s16.59 5.15 33-3.75c14.75-8 20.5-11.25 18-15.25s-14-2-31.75 5.75z"/><path fill="none" d="M593 374c-17.75 7.75-22.5 10.25-19.25 13.25s16.59 5.15 33-3.75c14.75-8 20.5-11.25 18-15.25s-14-2-31.75 5.75z"/><path fill="#FFF" d="M616.71 394.73c-14.8 3.99-30.92 14.78-26.03 22.76 3.82 6.26 16.67 3.27 31.43-2 14.76-5.26 28.08-12.06 23.86-18.65-4.22-6.59-9.59-7.41-29.26-2.1z"/><path fill="none" d="M616.71 394.73c-14.8 3.99-30.92 14.78-26.03 22.76 3.82 6.26 16.67 3.27 31.43-2 14.76-5.26 28.08-12.06 23.86-18.65-4.22-6.59-9.59-7.41-29.26-2.1z"/><path fill="#3C3C3C" d="M625.43 396.06s-23.93 5.44-20.8 11.94c3.13 6.5 24.07-3.03 30-6.58 5.94-3.55 7.4-8.63 1.93-6.27-5.47 2.37-11.13.91-11.13.91z"/><path fill="none" d="M625.43 396.06s-23.93 5.44-20.8 11.94c3.13 6.5 24.07-3.03 30-6.58 5.94-3.55 7.4-8.63 1.93-6.27-5.47 2.37-11.13.91-11.13.91z"/><path fill="#3C3C3C" d="M605.19 369.6c-3.6 1.55-7.13 2.95-11.37 4.98-4.24 2.04-7.7 5.04-6.23 7.6 1.4 2.47 8.09.72 10.53-.11 2.44-.83 7.62-2.67 13.04-5.05 7.28-3.19 9.84-7.42 6.16-9.2-5.26 3.34-10.83 3.4-12.13 1.78z"/><path fill="none" d="M605.19 369.6c-3.6 1.55-7.13 2.95-11.37 4.98-4.24 2.04-7.7 5.04-6.23 7.6 1.4 2.47 8.09.72 10.53-.11 2.44-.83 7.62-2.67 13.04-5.05 7.28-3.19 9.84-7.42 6.16-9.2-5.26 3.34-10.83 3.4-12.13 1.78z"/><path fill="#F28E00" d="M596.67 390.88s-13.74 5.43-20.36 8.15c-6.62 2.73-10.22 5.08-8.83 7.64 1.4 2.56 4.5 5.8 13.16 2.17 8.66-3.64 18.64-9.6 18.64-9.6l-2.61-8.36z"/><path fill="none" d="M596.67 390.88s-13.74 5.43-20.36 8.15c-6.62 2.73-10.22 5.08-8.83 7.64 1.4 2.56 4.5 5.8 13.16 2.17 8.66-3.64 18.64-9.6 18.64-9.6l-2.61-8.36z"/><path fill="#AF6802" d="M594.91 388.05s-10.7-8.27-8.91-.82c.5 2.11 3.38 7.47 4.72 9.1-3.09 1.16-7.39 2.64-11.62 4.28-7.25 2.83-6.78 7.79.72 4.98 6.6-2.48 22.1-8.86 22.1-8.86l-7-8.68z"/><path fill="none" d="M594.91 388.05s-10.7-8.27-8.91-.82c.5 2.11 3.38 7.47 4.72 9.1-3.09 1.16-7.39 2.64-11.62 4.28-7.25 2.83-6.78 7.79.72 4.98 6.6-2.48 22.1-8.86 22.1-8.86l-7-8.68z"/><path fill="#FFB9D3" d="M576.43 401.7c-3.54 3.79-3.26 6.12 3.35 3.64 2.68-1 5.4-1.69 8.08-3.08-3.14-2.63-7.14-1.57-11.43-.56z"/><path fill="none" d="M576.43 401.7c-3.54 3.79-3.26 6.12 3.35 3.64 2.68-1 5.4-1.69 8.08-3.08-3.14-2.63-7.14-1.57-11.43-.56z"/><path fill="#FFC100" d="M601.4 385.03c-7.18-8.71-19.15-4.13-15.08 3-.76-1.5-.06-3.27-.06-3.27s4.57 11.93 8.75 16.86c1.58-.45 10.65-4.38 10.94-6.26.63-4.08-1.44-6.55-4.55-10.33z"/><path fill="none" d="M601.4 385.03c-7.18-8.71-19.15-4.13-15.08 3-.76-1.5-.06-3.27-.06-3.27s4.57 11.93 8.75 16.86c1.58-.45 10.65-4.38 10.94-6.26.63-4.08-1.44-6.55-4.55-10.33z"/></g><path fill="none" stroke="#FF8A00" stroke-linecap="round" stroke-linejoin="round" stroke-width="23" d="M485 458s2.5-15 6.25-25.5m-14.74 17.45s-.1-14.5 5.9-22.6" style="display:block"/><path fill="none" stroke="#00C0FF" stroke-linecap="round" stroke-linejoin="round" stroke-width="21" d="M130.08 204.9s-21.47-11.72-21.15-34.15c.31-22.43 8.75-31.17 21.57-38.25" style="display:block" transform="rotate(86 228.8 440.72)"/><path fill="none" stroke="#00C0FF" stroke-linecap="round" stroke-linejoin="round" stroke-width="24" d="m581.52 236.43 13.92 26.16m-64.67-2.03L541 287.84" style="display:block"/><g style="display:block"><path fill="#00C0FF" d="M531.16 277.65c-20.49 18.22-16.84 45.95.74 64.11 19.1 19.74 50.72 17.86 72.59 12.35 20.94-5.28 52.02-23.93 64.1-34.81 17.11-15.43 36.41-42.8 10-76.07-23.65-29.79-58.06-18.94-73.56-7.71-22.8 16.52-50.42 21.28-73.87 42.13z"/><path fill="none" d="M531.16 277.65c-20.49 18.22-16.84 45.95.74 64.11 19.1 19.74 50.72 17.86 72.59 12.35 20.94-5.28 52.02-23.93 64.1-34.81 17.11-15.43 36.41-42.8 10-76.07-23.65-29.79-58.06-18.94-73.56-7.71-22.8 16.52-50.42 21.28-73.87 42.13z"/><path fill="#00C0FF" d="m661.52 236.66 19.89 25.52s10.88-10.05 14.87-14.46c5.74-6.34 2.99-15.59-8.05-14.46-8.51.86-26.71 3.4-26.71 3.4z"/><path fill="none" d="m661.52 236.66 19.89 25.52s10.88-10.05 14.87-14.46c5.74-6.34 2.99-15.59-8.05-14.46-8.51.86-26.71 3.4-26.71 3.4z"/><path fill="#00C0FF" d="m665 235.49 18.02 28.94s8.03-9.5 13.28-15.57c5.6-6.47 4.75-16.05-9.04-15.3-8.54.45-22.25 1.93-22.25 1.93z"/><path fill="none" d="m665 235.49 18.02 28.94s8.03-9.5 13.28-15.57c5.6-6.47 4.75-16.05-9.04-15.3-8.54.45-22.25 1.93-22.25 1.93z"/></g><g style="display:block"><path fill="#00759C" d="M635.92 226.65a4.74 4.74 0 1 1 9.35-1.5 4.74 4.74 0 0 1-9.35 1.5zm2.37 2.64a4.74 4.74 0 1 1 9.35-1.5 4.74 4.74 0 0 1-9.35 1.5z"/><path fill="none" d="M635.92 226.65a4.74 4.74 0 1 1 9.35-1.5 4.74 4.74 0 0 1-9.35 1.5zm2.37 2.64a4.74 4.74 0 1 1 9.35-1.5 4.74 4.74 0 0 1-9.35 1.5z"/><path fill="#231C23" d="m623.78 237.73-3.43-2.4"/><path fill="none" stroke="#FFFEFF" stroke-linecap="round" stroke-linejoin="round" stroke-width="32" d="m623.78 237.73-3.43-2.4"/><path fill="#FE979A" d="m617.73 226.25 8.8-.3 1.08-1.76-4.42-4.66-1.96.07-3.5 6.65z"/><path fill="none" d="m617.73 226.25 8.8-.3 1.08-1.76-4.42-4.66-1.96.07-3.5 6.65z"/></g><g style="display:block"><path fill="#00C0FF" d="M612.78 251.15s-3.88-9.7-5.94-14.9c-2.8-7.08-8.65-10.4-15.08-7-6.43 3.4-6.32 10.67-4.79 15 2 5.63 6.22 15.54 6.22 15.54"/><path fill="none" d="M612.78 251.15s-3.88-9.7-5.94-14.9c-2.8-7.08-8.65-10.4-15.08-7-6.43 3.4-6.32 10.67-4.79 15 2 5.63 6.22 15.54 6.22 15.54"/></g><path fill="none" stroke="#00A9E5" stroke-linecap="round" stroke-linejoin="round" stroke-width="4" d="M228.26 112.24s6.6-8.1 10.15-12.42c4.83-5.88 4.9-12.61-1.2-16.59-6.08-3.97-12.39-.35-15.43 3.08a363.13 363.13 0 0 0-10.58 12.98" style="display:block" transform="rotate(-61 538.43 -144.7)"/><g mask="url(#ax)" style="display:block"><path fill="none" stroke="#00A9E5" stroke-linecap="round" stroke-linejoin="round" stroke-width="18" d="M649.66 343.34c5.09-26.84-15.97-58.98-15.97-58.98m-17.79 71.06c-1.9-21.17-14.42-55.15-14.42-55.15"/></g><g style="display:block"><path fill="#00C0FF" d="M542.26 283.96s-4.15-9.6-5.7-13.4c-1.26-3.11-3.22-11.15 4.39-15.04 7.6-3.9 11.77 1.69 14.05 5.87l6.82 12.44"/><path fill="none" d="M542.26 283.96s-4.15-9.6-5.7-13.4c-1.26-3.11-3.22-11.15 4.39-15.04 7.6-3.9 11.77 1.69 14.05 5.87l6.82 12.44"/></g><path fill="none" stroke="#00A9E5" stroke-linecap="round" stroke-linejoin="round" stroke-width="4" d="M165.37 66.46s6.38-8.27 8.96-11.47c2.11-2.62 8.19-8.23 15.28-3.46 7.1 4.76 4.23 11.11 1.68 15.14l-7.58 11.99" style="display:block" transform="rotate(-61 538.43 -144.7)"/><g style="display:block"><path fill="#00CF00" d="M641.82 458.88s-49.98-49.7-36.93-112.53c10.37-49.96 35.11-62.99 46.46-34.07 2.7 6.91 13.65 29.62 20.84 47.18 8.33 20.35 24.34 56.82 24.34 56.82"/><path fill="none" d="M641.82 458.88s-49.98-49.7-36.93-112.53c10.37-49.96 35.11-62.99 46.46-34.07 2.7 6.91 13.65 29.62 20.84 47.18 8.33 20.35 24.34 56.82 24.34 56.82"/></g></g></g><g mask="url(#ay)" style="display:block"><path fill="#3DBCF8" d="M258 352.75c-3.54-4.43-8.5-3.75-9.75 4.25s-35.25 147-37 158 1.5 17.25 3.75 20.75 9.75 12 16.25 19.25c6.18 6.89 9.25-.75 10.25-6.25s33.25-144.5 35-156.5c1.54-10.53-1.5-17.75-3.75-20.75S262 357.75 258 352.75z"/><path fill="none" d="M258 352.75c-3.54-4.43-8.5-3.75-9.75 4.25s-35.25 147-37 158 1.5 17.25 3.75 20.75 9.75 12 16.25 19.25c6.18 6.89 9.25-.75 10.25-6.25s33.25-144.5 35-156.5c1.54-10.53-1.5-17.75-3.75-20.75S262 357.75 258 352.75z"/><path fill="#3DBCF8" d="M172.23 258.55c-1.55-2-3.76-1.72-4.37 1.83-.6 3.56-36.85 140.03-37.7 144.92-.84 4.89.57 7.7 1.55 9.26.98 1.58 4.27 5.41 7.12 8.68 2.71 3.1 4.13-.28 4.6-2.72.48-2.45 35.95-138.93 36.8-144.26.75-4.68-.56-7.92-1.54-9.27-.98-1.35-4.7-6.19-6.46-8.44z"/><path fill="none" d="M172.23 258.55c-1.55-2-3.76-1.72-4.37 1.83-.6 3.56-36.85 140.03-37.7 144.92-.84 4.89.57 7.7 1.55 9.26.98 1.58 4.27 5.41 7.12 8.68 2.71 3.1 4.13-.28 4.6-2.72.48-2.45 35.95-138.93 36.8-144.26.75-4.68-.56-7.92-1.54-9.27-.98-1.35-4.7-6.19-6.46-8.44z"/><path fill="#3DBCF8" d="M215.97 411.72c-.8-1-1.92-.85-2.2.96-.29 1.8-20.98 86.5-21.37 88.98-.4 2.49.33 3.9.84 4.7.51.79 2.2 2.7 3.68 4.35 1.4 1.56 2.1-.17 2.32-1.42.22-1.24 20.52-85.92 20.91-88.64.35-2.38-.34-4.01-.85-4.7-.5-.67-2.43-3.1-3.33-4.23z"/><path fill="none" d="M215.97 411.72c-.8-1-1.92-.85-2.2.96-.29 1.8-20.98 86.5-21.37 88.98-.4 2.49.33 3.9.84 4.7.51.79 2.2 2.7 3.68 4.35 1.4 1.56 2.1-.17 2.32-1.42.22-1.24 20.52-85.92 20.91-88.64.35-2.38-.34-4.01-.85-4.7-.5-.67-2.43-3.1-3.33-4.23z"/></g><g clip-path="url(#az)" mask="url(#aA)" style="display:block"><g style="display:block"><path fill="#FFF" d="M1112.1 232c-6.85 10.5-17.6 27.5-25.4 40.3-8.2 13.46-.2 29.57 7.43 37.18 7.96 7.93 27.89 26.85 37.33 36.25 6.04 6.02 21.79 9.27 28.01.13 6.33-9.3 19.03-29.36 26.07-40.47 6.15-9.71 5.07-26.75-2.99-34.57-8.05-7.82-31.65-30-38.71-36.93-9.84-9.64-24.5-13.03-31.75-1.9z"/><path fill="none" stroke="#D8D8D8" stroke-width="5" d="M1112.1 232c-6.85 10.5-17.6 27.5-25.4 40.3-8.2 13.46-.2 29.57 7.43 37.18 7.96 7.93 27.89 26.85 37.33 36.25 6.04 6.02 21.79 9.27 28.01.13 6.33-9.3 19.03-29.36 26.07-40.47 6.15-9.71 5.07-26.75-2.99-34.57-8.05-7.82-31.65-30-38.71-36.93-9.84-9.64-24.5-13.03-31.75-1.9z"/><path fill="#FF9600" d="M1115.54 272.52c1.17 3.9 3.28 13.96 3.28 13.96s-3.3 1.05-7.14 2.4c-3.84 1.36-2.47 4.46.47 7.75 2.2 2.46 9.78 10.9 18.5 19.68 11.35 11.44 24.65 8.43 33-1.69 8.35-10.12 4.6-41.37-18.9-45.99-7.51-1.48-20-3.08-25.71-4.02-5.27-.88-5.19 2.3-3.5 7.91z"/><path fill="none" d="M1115.54 272.52c1.17 3.9 3.28 13.96 3.28 13.96s-3.3 1.05-7.14 2.4c-3.84 1.36-2.47 4.46.47 7.75 2.2 2.46 9.78 10.9 18.5 19.68 11.35 11.44 24.65 8.43 33-1.69 8.35-10.12 4.6-41.37-18.9-45.99-7.51-1.48-20-3.08-25.71-4.02-5.27-.88-5.19 2.3-3.5 7.91z"/><path fill="#FFC800" d="M1138.25 285.25c-5.35-1.34-4.3 2.73-3.63 5.5.88 3.63 2.02 7.21 3.13 11.75 1.75 7.13 11.75 12.88 17.25 6.5 2.83-3.28 3.57-8.72 1.5-14-2.5-6.38-11.75-8.13-18.25-9.75z"/><path fill="none" d="M1138.25 285.25c-5.35-1.34-4.3 2.73-3.63 5.5.88 3.63 2.02 7.21 3.13 11.75 1.75 7.13 11.75 12.88 17.25 6.5 2.83-3.28 3.57-8.72 1.5-14-2.5-6.38-11.75-8.13-18.25-9.75z"/></g><g style="display:block"><path fill="#E5E5E5" d="M1217.5 328.25c-6.31 9.96-70.72 109.77-82.5 128.75-13.5 21.75 13.95 54.97 30.75 29.25 8-12.25 72.79-111.73 83-128.25 13.75-22.25-15.25-55-31.25-29.75z"/><path fill="none" d="M1217.5 328.25c-6.31 9.96-70.72 109.77-82.5 128.75-13.5 21.75 13.95 54.97 30.75 29.25 8-12.25 72.79-111.73 83-128.25 13.75-22.25-15.25-55-31.25-29.75z"/></g></g></g></g></g></svg>