<svg xmlns="http://www.w3.org/2000/svg" xmlns:xlink="http://www.w3.org/1999/xlink" viewBox="0 0 1080 1080"><defs><clipPath id="v"><path d="M0 0h1080v1080H0z"/></clipPath><clipPath id="aJ"/><clipPath id="aI"/><clipPath id="aH"/><clipPath id="aG"/><clipPath id="aF"/><clipPath id="aE"/><clipPath id="aD"/><clipPath id="aC"/><clipPath id="aB"/><clipPath id="aA"/><clipPath id="Y"><path d="M0 0h1080v1080H0z"/></clipPath><clipPath id="ay"/><clipPath id="ax"/><clipPath id="aw"/><clipPath id="av"/><clipPath id="au"/><clipPath id="at"/><clipPath id="as"/><clipPath id="ar"/><clipPath id="aq"/><clipPath id="ap"/><clipPath id="b"><path d="M0 0h1080v1080H0z"/></clipPath><clipPath id="c"><path d="M0 0h1080v1080H0z"/></clipPath><clipPath id="d"><path d="M0 0h1080v1080H0z"/></clipPath><clipPath id="f"><path d="M0 0h1080v1080H0z"/></clipPath><clipPath id="h"><path d="M0 0h1080v1080H0z"/></clipPath><clipPath id="j"><path d="M0 0h1080v1080H0z"/></clipPath><clipPath id="l"><path d="M0 0h1080v1080H0z"/></clipPath><clipPath id="n"><path d="M0 0h1080v1080H0z"/></clipPath><clipPath id="ae"><path d="M0 0h1080v1080H0z"/></clipPath><clipPath id="ad"><path d="M0 0h1080v1080H0z"/></clipPath><clipPath id="ac"><path d="M0 0h1080v1080H0z"/></clipPath><clipPath id="p"><path d="M0 0h1080v1080H0z"/></clipPath><clipPath id="r"><path d="M0 0h1080v1080H0z"/></clipPath><clipPath id="X"><path d="M0 0h1080v1080H0z"/></clipPath><clipPath id="W"><path d="M0 0h1080v1080H0z"/></clipPath><clipPath id="V"><path d="M0 0h1080v1080H0z"/></clipPath><clipPath id="Q"><path d="M0 0h1080v1080H0z"/></clipPath><clipPath id="T"><path fill="#fff" d="m265.5-280-70.443 25.538L356.5-183.5l-13-57S322-250.5 313-255c-12.665-6.333-47.5-25-47.5-25"/></clipPath><clipPath id="R"><path fill="#fff" d="m-46-284-6.536 39.217L-55-230l200 33-15-58-176-29"/></clipPath><clipPath id="M"><path d="M0 0h1080v1080H0z"/></clipPath><clipPath id="P"/><clipPath id="N"/><clipPath id="I"><path d="M0 0h1080v1080H0z"/></clipPath><clipPath id="L"><path fill="#fff" d="m-360-322-188 94 24 44 228-96-64-42"/></clipPath><clipPath id="J"><path fill="#fff" d="m18-260-110 70 10 28 122-64-22-34"/></clipPath><clipPath id="A"><path d="M0 0h1080v1080H0z"/></clipPath><clipPath id="H"><path fill="#fff" d="m-302-416-24 26 118 62 18-32-112-56"/></clipPath><clipPath id="F"><path fill="#fff" d="m-298-150-16 38 84 64 32-36-100-66"/></clipPath><clipPath id="D"><path fill="#fff" d="m-470-266-16 48 208 14v-48l-192-14"/></clipPath><clipPath id="B"><path fill="#fff" d="m60-190-158 80 8 54 182-84-32-50"/></clipPath><clipPath id="w"><path d="M0 0h1080v1080H0z"/></clipPath><clipPath id="z"/><clipPath id="x"/><mask id="az" mask-type="alpha"><use xlink:href="#a"/></mask><mask id="ao" mask-type="alpha"><use xlink:href="#e"/></mask><mask id="an" mask-type="alpha"><use xlink:href="#g"/></mask><mask id="am" mask-type="alpha"><use xlink:href="#i"/></mask><mask id="al"><path fill="#fff" d="M0 0h1080v1080H0z"/></mask><mask id="ak" mask-type="alpha"><use xlink:href="#k"/></mask><mask id="aj" mask-type="alpha"><use xlink:href="#m"/></mask><mask id="ah" mask-type="alpha"><use xlink:href="#o"/></mask><mask id="ab" mask-type="alpha"><use xlink:href="#q"/></mask><mask id="aa" mask-type="alpha"><use xlink:href="#s"/></mask><mask id="af" mask-type="alpha"><use xlink:href="#t"/></mask><mask id="Z" mask-type="alpha"><use xlink:href="#u"/></mask><g id="u" clip-path="url(#b)" style="display:block"><g style="display:block"><path fill="#FFC7B8" fill-opacity="0" d="M312.021 114.36s-108.77 499.593-105.425 536.088c3.046 33.237 711.181 11.751 711.222 11.313 2.924-21.303-59.738-523.923-63.379-551.266-2.77-20.805-542.418 3.865-542.418 3.865z"/><path fill="#FFC7B8" d="m545.754 217.915-65.03 63.096s13.105 34.602 22.37 74.328c7.582 32.505 24.91 91.255 24.91 91.255l84.782 23.32 79.15-59.542s-.236-1.333-.674-3.728c-2.357-12.882-10.554-56.487-19.269-88.685-6.718-24.827-18.71-51.654-26.113-67.08-3.838-7.995-6.443-12.927-6.443-12.927l-93.683-20.037z"/><path fill-opacity="0" stroke="#FFC7B8" stroke-linecap="round" stroke-linejoin="round" stroke-width="68" d="m545.754 217.915-65.03 63.096s13.105 34.602 22.37 74.328c7.582 32.505 24.91 91.255 24.91 91.255l84.782 23.32 79.15-59.542s-.236-1.333-.674-3.728c-2.357-12.882-10.554-56.487-19.269-88.685-6.718-24.827-18.71-51.654-26.113-67.08-3.838-7.995-6.443-12.927-6.443-12.927l-93.683-20.037z"/></g></g><g id="e" clip-path="url(#c)" style="display:block"><g style="display:block"><path fill="#FFC7B8" fill-opacity="0" d="M312.021 114.36s-108.77 499.593-105.425 536.088c3.046 33.237 711.181 11.751 711.222 11.313 2.924-21.303-59.738-523.923-63.379-551.266-2.77-20.805-542.418 3.865-542.418 3.865z"/><path fill="#FFC7B8" d="m545.754 217.915-65.03 63.096s13.105 34.602 22.37 74.328c7.582 32.505 24.91 91.255 24.91 91.255l84.782 23.32 79.15-59.542s-.236-1.333-.674-3.728c-2.357-12.882-10.554-56.487-19.269-88.685-6.718-24.827-18.71-51.654-26.113-67.08-3.838-7.995-6.443-12.927-6.443-12.927l-93.683-20.037z"/><path fill-opacity="0" stroke="#FFC7B8" stroke-linecap="round" stroke-linejoin="round" stroke-width="68" d="m545.754 217.915-65.03 63.096s13.105 34.602 22.37 74.328c7.582 32.505 24.91 91.255 24.91 91.255l84.782 23.32 79.15-59.542s-.236-1.333-.674-3.728c-2.357-12.882-10.554-56.487-19.269-88.685-6.718-24.827-18.71-51.654-26.113-67.08-3.838-7.995-6.443-12.927-6.443-12.927l-93.683-20.037z"/></g></g><g id="t" clip-path="url(#d)" style="display:block"><g style="display:block"><path fill="#FFC7B8" fill-opacity="0" d="M312.021 114.36s-108.77 499.593-105.425 536.088c3.046 33.237 711.181 11.751 711.222 11.313 2.924-21.303-59.738-523.923-63.379-551.266-2.77-20.805-542.418 3.865-542.418 3.865z"/><path fill="#FFC7B8" d="m545.754 217.915-65.03 63.096s13.105 34.602 22.37 74.328c7.582 32.505 24.91 91.255 24.91 91.255l84.782 23.32 79.15-59.542s-.236-1.333-.674-3.728c-2.357-12.882-10.554-56.487-19.269-88.685-6.718-24.827-18.71-51.654-26.113-67.08-3.838-7.995-6.443-12.927-6.443-12.927l-93.683-20.037z"/><path fill-opacity="0" stroke="#FFC7B8" stroke-linecap="round" stroke-linejoin="round" stroke-width="68" d="m545.754 217.915-65.03 63.096s13.105 34.602 22.37 74.328c7.582 32.505 24.91 91.255 24.91 91.255l84.782 23.32 79.15-59.542s-.236-1.333-.674-3.728c-2.357-12.882-10.554-56.487-19.269-88.685-6.718-24.827-18.71-51.654-26.113-67.08-3.838-7.995-6.443-12.927-6.443-12.927l-93.683-20.037z"/></g></g><g id="g" clip-path="url(#f)" style="display:block"><g style="display:block"><path fill="#FFC7B8" fill-opacity="0" d="M312.021 114.36s-108.77 499.593-105.425 536.088c3.046 33.237 711.181 11.751 711.222 11.313 2.924-21.303-59.738-523.923-63.379-551.266-2.77-20.805-542.418 3.865-542.418 3.865z"/><path fill="#FFC7B8" d="m545.754 217.915-65.03 63.096s13.105 34.602 22.37 74.328c7.582 32.505 24.91 91.255 24.91 91.255l84.782 23.32 79.15-59.542s-.236-1.333-.674-3.728c-2.357-12.882-10.554-56.487-19.269-88.685-6.718-24.827-18.71-51.654-26.113-67.08-3.838-7.995-6.443-12.927-6.443-12.927l-93.683-20.037z"/><path fill-opacity="0" stroke="#FFC7B8" stroke-linecap="round" stroke-linejoin="round" stroke-width="68" d="m545.754 217.915-65.03 63.096s13.105 34.602 22.37 74.328c7.582 32.505 24.91 91.255 24.91 91.255l84.782 23.32 79.15-59.542s-.236-1.333-.674-3.728c-2.357-12.882-10.554-56.487-19.269-88.685-6.718-24.827-18.71-51.654-26.113-67.08-3.838-7.995-6.443-12.927-6.443-12.927l-93.683-20.037z"/></g></g><g id="i" clip-path="url(#h)" style="display:block"><g style="display:block"><path fill="#FFC7B8" fill-opacity="0" d="M312.021 114.36s-108.77 499.593-105.425 536.088c3.046 33.237 711.181 11.751 711.222 11.313 2.924-21.303-59.738-523.923-63.379-551.266-2.77-20.805-542.418 3.865-542.418 3.865z"/><path fill="#FFC7B8" d="m545.754 217.915-65.03 63.096s13.105 34.602 22.37 74.328c7.582 32.505 24.91 91.255 24.91 91.255l84.782 23.32 79.15-59.542s-.236-1.333-.674-3.728c-2.357-12.882-10.554-56.487-19.269-88.685-6.718-24.827-18.71-51.654-26.113-67.08-3.838-7.995-6.443-12.927-6.443-12.927l-93.683-20.037z"/><path fill-opacity="0" stroke="#FFC7B8" stroke-linecap="round" stroke-linejoin="round" stroke-width="68" d="m545.754 217.915-65.03 63.096s13.105 34.602 22.37 74.328c7.582 32.505 24.91 91.255 24.91 91.255l84.782 23.32 79.15-59.542s-.236-1.333-.674-3.728c-2.357-12.882-10.554-56.487-19.269-88.685-6.718-24.827-18.71-51.654-26.113-67.08-3.838-7.995-6.443-12.927-6.443-12.927l-93.683-20.037z"/></g></g><g id="k" clip-path="url(#j)" style="display:block"><g style="display:block"><path fill="#FFC7B8" fill-opacity="0" d="M312.021 114.36s-108.77 499.593-105.425 536.088c3.046 33.237 711.181 11.751 711.222 11.313 2.924-21.303-59.738-523.923-63.379-551.266-2.77-20.805-542.418 3.865-542.418 3.865z"/><path fill="#FFC7B8" d="m545.754 217.915-65.03 63.096s13.105 34.602 22.37 74.328c7.582 32.505 24.91 91.255 24.91 91.255l84.782 23.32 79.15-59.542s-.236-1.333-.674-3.728c-2.357-12.882-10.554-56.487-19.269-88.685-6.718-24.827-18.71-51.654-26.113-67.08-3.838-7.995-6.443-12.927-6.443-12.927l-93.683-20.037z"/><path fill-opacity="0" stroke="#FFC7B8" stroke-linecap="round" stroke-linejoin="round" stroke-width="68" d="m545.754 217.915-65.03 63.096s13.105 34.602 22.37 74.328c7.582 32.505 24.91 91.255 24.91 91.255l84.782 23.32 79.15-59.542s-.236-1.333-.674-3.728c-2.357-12.882-10.554-56.487-19.269-88.685-6.718-24.827-18.71-51.654-26.113-67.08-3.838-7.995-6.443-12.927-6.443-12.927l-93.683-20.037z"/></g></g><g id="m" clip-path="url(#l)" style="display:block"><g style="display:block"><path fill="#FFC7B8" fill-opacity="0" d="M312.021 114.36s-108.77 499.593-105.425 536.088c3.046 33.237 711.181 11.751 711.222 11.313 2.924-21.303-59.738-523.923-63.379-551.266-2.77-20.805-542.418 3.865-542.418 3.865z"/><path fill="#FFC7B8" d="m545.754 217.915-65.03 63.096s13.105 34.602 22.37 74.328c7.582 32.505 24.91 91.255 24.91 91.255l84.782 23.32 79.15-59.542s-.236-1.333-.674-3.728c-2.357-12.882-10.554-56.487-19.269-88.685-6.718-24.827-18.71-51.654-26.113-67.08-3.838-7.995-6.443-12.927-6.443-12.927l-93.683-20.037z"/><path fill-opacity="0" stroke="#FFC7B8" stroke-linecap="round" stroke-linejoin="round" stroke-width="68" d="m545.754 217.915-65.03 63.096s13.105 34.602 22.37 74.328c7.582 32.505 24.91 91.255 24.91 91.255l84.782 23.32 79.15-59.542s-.236-1.333-.674-3.728c-2.357-12.882-10.554-56.487-19.269-88.685-6.718-24.827-18.71-51.654-26.113-67.08-3.838-7.995-6.443-12.927-6.443-12.927l-93.683-20.037z"/></g></g><g id="o" clip-path="url(#n)" style="display:block"><g style="display:block"><path fill="#FFC7B8" fill-opacity="0" d="M312.021 114.36s-108.77 499.593-105.425 536.088c3.046 33.237 711.181 11.751 711.222 11.313 2.924-21.303-59.738-523.923-63.379-551.266-2.77-20.805-542.418 3.865-542.418 3.865z"/><path fill="#FFC7B8" d="m545.754 217.915-65.03 63.096s13.105 34.602 22.37 74.328c7.582 32.505 24.91 91.255 24.91 91.255l84.782 23.32 79.15-59.542s-.236-1.333-.674-3.728c-2.357-12.882-10.554-56.487-19.269-88.685-6.718-24.827-18.71-51.654-26.113-67.08-3.838-7.995-6.443-12.927-6.443-12.927l-93.683-20.037z"/><path fill-opacity="0" stroke="#FFC7B8" stroke-linecap="round" stroke-linejoin="round" stroke-width="68" d="m545.754 217.915-65.03 63.096s13.105 34.602 22.37 74.328c7.582 32.505 24.91 91.255 24.91 91.255l84.782 23.32 79.15-59.542s-.236-1.333-.674-3.728c-2.357-12.882-10.554-56.487-19.269-88.685-6.718-24.827-18.71-51.654-26.113-67.08-3.838-7.995-6.443-12.927-6.443-12.927l-93.683-20.037z"/></g></g><g id="q" clip-path="url(#p)" style="display:block"><g style="display:block"><path fill="#FFC7B8" fill-opacity="0" d="M312.021 114.36s-108.77 499.593-105.425 536.088c3.046 33.237 711.181 11.751 711.222 11.313 2.924-21.303-59.738-523.923-63.379-551.266-2.77-20.805-542.418 3.865-542.418 3.865z"/><path fill="#FFC7B8" d="m545.754 217.915-65.03 63.096s13.105 34.602 22.37 74.328c7.582 32.505 24.91 91.255 24.91 91.255l84.782 23.32 79.15-59.542s-.236-1.333-.674-3.728c-2.357-12.882-10.554-56.487-19.269-88.685-6.718-24.827-18.71-51.654-26.113-67.08-3.838-7.995-6.443-12.927-6.443-12.927l-93.683-20.037z"/><path fill-opacity="0" stroke="#FFC7B8" stroke-linecap="round" stroke-linejoin="round" stroke-width="68" d="m545.754 217.915-65.03 63.096s13.105 34.602 22.37 74.328c7.582 32.505 24.91 91.255 24.91 91.255l84.782 23.32 79.15-59.542s-.236-1.333-.674-3.728c-2.357-12.882-10.554-56.487-19.269-88.685-6.718-24.827-18.71-51.654-26.113-67.08-3.838-7.995-6.443-12.927-6.443-12.927l-93.683-20.037z"/></g></g><g id="s" clip-path="url(#r)" style="display:block"><g style="display:block"><path fill="#FFC7B8" fill-opacity="0" d="M312.021 114.36s-108.77 499.593-105.425 536.088c3.046 33.237 711.181 11.751 711.222 11.313 2.924-21.303-59.738-523.923-63.379-551.266-2.77-20.805-542.418 3.865-542.418 3.865z"/><path fill="#FFC7B8" d="m545.754 217.915-65.03 63.096s13.105 34.602 22.37 74.328c7.582 32.505 24.91 91.255 24.91 91.255l84.782 23.32 79.15-59.542s-.236-1.333-.674-3.728c-2.357-12.882-10.554-56.487-19.269-88.685-6.718-24.827-18.71-51.654-26.113-67.08-3.838-7.995-6.443-12.927-6.443-12.927l-93.683-20.037z"/><path fill-opacity="0" stroke="#FFC7B8" stroke-linecap="round" stroke-linejoin="round" stroke-width="68" d="m545.754 217.915-65.03 63.096s13.105 34.602 22.37 74.328c7.582 32.505 24.91 91.255 24.91 91.255l84.782 23.32 79.15-59.542s-.236-1.333-.674-3.728c-2.357-12.882-10.554-56.487-19.269-88.685-6.718-24.827-18.71-51.654-26.113-67.08-3.838-7.995-6.443-12.927-6.443-12.927l-93.683-20.037z"/></g></g><radialGradient id="S" cx="212.763" cy="-278.899" r="55.853" fx="212.763" fy="-278.899" gradientUnits="userSpaceOnUse" spreadMethod="pad"><stop offset="0%" stop-color="#9CD6E4"/><stop offset="50%" stop-color="#ADE1EE"/><stop offset="100%" stop-color="#BFEDF8"/></radialGradient><radialGradient id="K" cx="-416.644" cy="-196.493" r="76.675" fx="-416.644" fy="-196.493" gradientUnits="userSpaceOnUse" spreadMethod="pad"><stop offset="0%" stop-color="#9CD6E4"/><stop offset="50%" stop-color="#ADE1EE"/><stop offset="100%" stop-color="#BFEDF8"/></radialGradient><radialGradient id="G" cx="-211.925" cy="-123.501" r="135.866" fx="-211.925" fy="-123.501" gradientUnits="userSpaceOnUse" spreadMethod="pad"><stop offset="0%" stop-color="#9CD6E4"/><stop offset="50%" stop-color="#ADE1EE"/><stop offset="100%" stop-color="#BFEDF8"/></radialGradient><radialGradient id="E" cx="-364.417" cy="-157.743" r="75.041" fx="-364.417" fy="-157.743" gradientUnits="userSpaceOnUse" spreadMethod="pad"><stop offset="0%" stop-color="#9CD6E4"/><stop offset="50%" stop-color="#ADE1EE"/><stop offset="100%" stop-color="#BFEDF8"/></radialGradient><radialGradient id="C" cx="-306.972" cy="-283.071" r="74.748" fx="-306.972" fy="-283.071" gradientUnits="userSpaceOnUse" spreadMethod="pad"><stop offset="0%" stop-color="#9CD6E4"/><stop offset="50%" stop-color="#ADE1EE"/><stop offset="100%" stop-color="#BFEDF8"/></radialGradient><linearGradient id="ag" x1="25.995" x2="80.923" y1="-64.263" y2="56.518" gradientUnits="userSpaceOnUse" spreadMethod="pad"><stop offset="42%" stop-color="#FFA75F"/><stop offset="64%" stop-color="#FFAE6C" stop-opacity=".5"/><stop offset="86%" stop-color="#FFB67A" stop-opacity="0"/></linearGradient><linearGradient id="ai" x1="118.131" x2="73.319" y1="-101.456" y2="23.56" gradientUnits="userSpaceOnUse" spreadMethod="pad"><stop offset="42%" stop-color="#FFA75F"/><stop offset="64%" stop-color="#FFAE6C" stop-opacity=".5"/><stop offset="86%" stop-color="#FFB67A" stop-opacity="0"/></linearGradient><linearGradient id="U" x1="390.734" x2="351.241" y1="-301.316" y2="-356.442" gradientUnits="userSpaceOnUse" spreadMethod="pad"><stop offset="0%" stop-color="#BFEDF8"/><stop offset="49%" stop-color="#ADE1EE"/><stop offset="99%" stop-color="#9CD6E4"/><stop offset="99%" stop-color="#ADE1EE"/><stop offset="100%" stop-color="#BFEDF8"/></linearGradient><linearGradient id="O" gradientUnits="userSpaceOnUse" spreadMethod="pad"><stop/><stop/><stop/></linearGradient><linearGradient id="y" gradientUnits="userSpaceOnUse" spreadMethod="pad"><stop/><stop/><stop/></linearGradient><path id="a" fill="#FCD838" d="m190.215 23.209-301.642 132.69c-47.078 20.709-102.03-.667-122.739-47.745l-3.793-8.624c-20.709-47.078.666-102.03 47.744-122.739l301.642-132.69c47.078-20.709 102.03.667 122.739 47.745l3.793 8.624c20.709 47.078-.666 102.03-47.744 122.739z" style="display:block" transform="rotate(-1.819 18424.21 -20829.11)"/></defs><g clip-path="url(#v)"><path fill="#58CC02" d="m9.495 33.272 25.103-66.544-69.196 22.126L9.495 33.272z" style="display:block" transform="translate(822.327 788.628)"/><path fill="#58CC02" d="m-14.344 36.507-13.754-73.014 56.196 48.629-42.442 24.385z" style="display:block" transform="translate(119.004 558.467)"/><path fill="#58CC02" d="M342.515 122.469 57.638 251.019c-26.259 11.849-64.774 5.233-83.597-14.362l-330.56-344.114c-13.117-13.655-9.118-30.566 9.181-38.823l235.024-106.054c18.349-8.28 44.868-5.061 60.803 7.381L348.897 67.682c22.747 17.761 19.811 42.967-6.382 54.787z" style="display:block" transform="translate(468.876 719.619)"/><g style="display:block"><path fill="#FFF" d="M834.842 778.596 534.971 913.912c-27.641 12.473-68.184 5.508-87.997-15.118L99.017 536.569c-13.807-14.373-9.597-32.175 9.665-40.867l247.393-111.636c19.314-8.715 47.229-5.326 64.002 7.77L841.56 720.925c23.945 18.696 20.854 45.229-6.718 57.671z"/><path fill="none" stroke="#89E219" stroke-width="9.435" d="M834.842 778.596 534.971 913.912c-27.641 12.473-68.184 5.508-87.997-15.118L99.017 536.569c-13.807-14.373-9.597-32.175 9.665-40.867l247.393-111.636c19.314-8.715 47.229-5.326 64.002 7.77L841.56 720.925c23.945 18.696 20.854 45.229-6.718 57.671z"/></g><path fill="#89E219" d="m161.219-34.067-265.97 120.019c-8.712 3.931-21.481 1.783-27.822-4.682l-32.477-33.109c-5.767-5.879-4.092-13.222 3.831-16.797L98.765-85.953c7.923-3.575 19.382-2.158 26.212 3.241l38.464 30.406c7.511 5.937 6.49 14.308-2.222 18.239z" style="display:block" transform="translate(612.568 780.823)"/><path fill="#E5E5E5" d="M124.654-43.204-105.278 60.552c-6.633 2.993-16.293 1.584-21.578-3.148l-.239-.213c-5.285-4.732-4.192-10.994 2.441-13.987L105.278-60.552c6.633-2.993 16.293-1.584 21.578 3.148l.239.213c5.285 4.732 4.192 10.994-2.441 13.987z" style="display:block" transform="translate(279.077 477.407)"/><path fill="#89E219" d="M95.442-30.022-76.065 47.37c-6.633 2.993-16.294 1.584-21.579-3.148l-.239-.213c-5.285-4.732-4.192-10.994 2.441-13.987L76.065-47.37c6.633-2.993 16.294-1.584 21.579 3.148l.239.213c5.285 4.732 4.192 10.994-2.441 13.987z" style="display:block" transform="translate(249.864 490.589)"/><path fill="#E5E5E5" d="M125.45-48.553-113.485 59.266c-4.147 1.871-10.187.99-13.491-1.968-3.304-2.958-2.621-6.874 1.526-8.745L113.485-59.266c4.147-1.871 10.187-.99 13.491 1.968 3.304 2.958 2.621 6.874-1.526 8.745z" style="display:block" transform="translate(323.298 517)"/><path fill="#78C800" d="M88.059 7.331c-2.245-13.784-5.55-28.751-8.383-41.278-4.784-21.148-6.943-27.944-6.943-27.944-5.413-15.587-23.456-25.116-39.61-28.474l-55.133-11.462a40.226 40.226 0 0 0-35.695 10.032l-21.91 22.59a40.234 40.234 0 0 0-10.581 42.296c5.656 16.665 8.673 21.591 13.359 39.652 4.497 17.329 9.819 52.328 9.819 52.328a46.932 46.932 0 0 0 33.428 36.971l42.143.385c15.532.426 34.647 1.234 47.587-7.095l20.486-14.411c13.288-8.553 17.416-33.238 15.098-48.87l-3.665-24.72c-.215-.116.227.115 0 0z" style="display:block" transform="rotate(-1.819 13509.79 -16325.596)"/><g clip-path="url(#A)" style="display:block"><g clip-path="url(#B)" style="display:block" transform="translate(540 540)"><path fill="#BFEDF8" d="M-186-370c-102 6-122 88-122 88s52.071-34.337 118-38c108-6 126 172 126 172l56-36s-43.993-193.883-178-186z"/><path fill="url(#C)" d="M-186-370c-102 6-122 88-122 88s52.071-34.337 118-38c108-6 126 172 126 172l56-36s-43.993-193.883-178-186z"/></g><g clip-path="url(#D)" style="display:block" transform="translate(540 540)"><path fill="#BFEDF8" d="M-372.5-155.5C-378-130.75-391-63.5-332 35c39.657 66.207 165 115 165 115l40-71s-105-18-155-90-80.5-115.5-90.5-144.5z"/><path fill="url(#E)" d="M-372.5-155.5C-378-130.75-391-63.5-332 35c39.657 66.207 165 115 165 115l40-71s-105-18-155-90-80.5-115.5-90.5-144.5z"/></g><g clip-path="url(#F)" style="display:block" transform="translate(540 540)"><path fill="#BFEDF8" d="M-249-231c53 13 42 61 26 105 33-24 68-41 63-102s-224-49.25-218 124.75c33-49 76-140.75 129-127.75z"/><path fill="url(#G)" d="M-249-231c53 13 42 61 26 105 33-24 68-41 63-102s-224-49.25-218 124.75c33-49 76-140.75 129-127.75z"/></g><g clip-path="url(#H)" style="display:block" transform="translate(540 540)"><path fill="#BFEDF8" d="M-280-325s-60 52-49 138 103 80.25 137.25 38c-51 0-77.567-13.657-94.25-60-18-50 6-116 6-116z"/></g></g><g clip-path="url(#I)" style="display:block"><g clip-path="url(#J)" style="display:block" transform="translate(540 540)"><path fill="#BFEDF8" d="M-142-324c-127.785 8.425-161.992 227.25-218 229-64 2-88-71-42-115-22 6-64 21-64 87 0 86.023 138.973 135.988 205-14 81-184 145-155 197-87 18-10 43-33 43-33s-30-73-121-67z"/><path fill="url(#K)" d="M-142-324c-127.785 8.425-161.992 227.25-218 229-64 2-88-71-42-115-22 6-64 21-64 87 0 86.023 138.973 135.988 205-14 81-184 145-155 197-87 18-10 43-33 43-33s-30-73-121-67z"/></g><g clip-path="url(#L)" style="display:block" transform="translate(540 540)"><path fill="#BFEDF8" d="M-431-197.25c28.75 2.75 65.823 38.814 145 189.25 50 95 133 175 133 175l55-32s-96-84-150-181c-61.607-110.664-94.5-202.5-183-151.25z"/></g></g><g clip-path="url(#Q)" style="display:block"><g clip-path="url(#R)" style="display:block" transform="translate(540 540)"><path fill="#BFEDF8" d="M156-456C-28-486 8-294 8-294l78 21s-5-47-1-89 40.057-71.722 70-69c44 4 75.38 37.759 83 73 8 37-24.25 75-32.25 78.375C324-253.5 340-426 156-456z"/><path fill="url(#S)" d="M156-456C-28-486 8-294 8-294l78 21s-5-47-1-89 40.057-71.722 70-69c44 4 75.38 37.759 83 73 8 37-24.25 75-32.25 78.375C324-253.5 340-426 156-456z"/></g><g clip-path="url(#T)" style="display:block" transform="translate(540 540)"><path fill="#BFEDF8" d="M165-346c-2.463-27.091 16-50 72-58s146 54 172 102 20 118 10 162-27.632 78.75-76 142c-52 68-178 54-178 54s41.714-16.299 96-68c42-40 82-86 94-138 15.843-68.651 30-182-22-250-65.492-85.643-194-28-210 22s2 92 106 102c-9.625-4.25-60-26-64-70z"/><path fill="url(#U)" d="M164-346c-2.463-27.091 16-50 72-58s146 54 172 102 20 118 10 162-27.632 78.75-76 142c-52 68-178 54-178 54s41.714-16.299 96-68c42-40 82-86 94-138 15.843-68.651 30-182-22-250-65.492-85.643-194-28-210 22s2 92 106 102c-9.625-4.25-60-26-64-70z" transform="translate(1)"/></g></g><path fill="none" stroke="#78C800" stroke-linecap="round" stroke-linejoin="round" stroke-width="26" d="M27.909 8.838C.537 4.163-36.228-3.037-57.566-8.106" style="display:block" transform="rotate(-1.819 10498.734 -15304.705)"/><g clip-path="url(#V)" style="display:block" transform="matrix(1.00983 -.05162 .05049 .98781 -23.14 28.28)"><g style="display:block"><path fill="none" d="M482.884 670.94 287.763 249.971l615.4-285.241 195.122 420.968L482.884 670.94z"/><path fill="none" stroke="#FFC6B7" stroke-linecap="round" stroke-linejoin="round" stroke-width="15" d="M448.201 339.836s-4.774-2.059-8.566-3.689c-3.009-1.294-11.261-4.001-11.261-4.001M445.565 351.813s-7.7.916-11.212.958c-3.703.045-14.002-1.528-14.002-1.528M447.532 363.862s-5.32 2.586-10.466 4.173c-4.55 1.403-10.87 2.081-10.87 2.081" transform="matrix(-.75698 .63919 -.64285 -.77806 1300.642 319.093)"/><path fill="none" stroke="#FFC6B7" stroke-linecap="round" stroke-linejoin="round" stroke-width="15" d="M469.834 363.277s-1.988 5.486-4.407 10.65c-2.047 4.37-3.851 9.781-3.851 9.781" transform="matrix(-.89757 .41603 -.42503 -.91699 1291.332 470.157)"/><path fill="none" stroke="#FFC6B7" stroke-linecap="round" stroke-linejoin="round" stroke-width="47" d="m467.909 349.594-5.494 1.508" transform="matrix(-.89757 .41603 -.42503 -.91699 1291.332 470.157)"/><path fill="none" stroke="#EE9583" stroke-linecap="round" stroke-width="5.336" d="M451.926 392.271c-4.347-5.364-7.71-12.622-6.083-19.153" transform="matrix(-.89757 .41603 -.42503 -.91699 1295.184 491.56)"/><path fill="none" stroke="#33E3FF" stroke-linecap="round" stroke-linejoin="round" stroke-width="50" d="M521.757 344.674s-14.236-1.944-19.728-1.724c-6.513.261-19.373 1.522-19.373 1.522" transform="matrix(-.89757 .41603 -.42503 -.91699 1291.332 470.157)"/></g></g><path fill="#FF9500" d="M28.333-17.524c9.93 15.584 3.054 32.674-12.53 42.603-15.585 9.929-33.976 8.938-43.906-6.646s-3.97-34.111 11.614-44.04c15.584-9.929 34.892-7.501 44.822 8.083z" style="display:block" transform="rotate(-1.819 6707.186 -16096.657)"/><path fill="#FF9500" d="M32.03-20.408C43.301-2.718 38.097 20.76 20.408 32.03 2.717 43.302-20.76 38.098-32.031 20.408-43.3 2.717-38.097-20.76-20.408-32.03c17.691-11.272 41.167-6.068 52.438 11.622z" style="display:block" transform="rotate(-1.819 5701.13 -17085.816)"/><g clip-path="url(#Y)" style="display:block"><g style="display:block"><path fill="none" d="M312.021 114.36s-108.77 499.593-105.425 536.088c3.046 33.237 711.181 11.751 711.222 11.313 2.924-21.303-59.738-523.923-63.379-551.266-2.77-20.805-542.418 3.865-542.418 3.865z"/><path fill="#FFC7B8" d="m545.754 217.915-65.03 63.096s13.105 34.602 22.37 74.328c7.582 32.505 24.91 91.255 24.91 91.255l84.782 23.32 79.15-59.542s-.236-1.333-.674-3.728c-2.357-12.882-10.554-56.487-19.269-88.685-6.718-24.827-18.71-51.654-26.113-67.08-3.838-7.995-6.443-12.927-6.443-12.927l-93.683-20.037z"/><path fill="none" stroke="#FFC7B8" stroke-linecap="round" stroke-linejoin="round" stroke-width="68" d="m545.754 217.915-65.03 63.096s13.105 34.602 22.37 74.328c7.582 32.505 24.91 91.255 24.91 91.255l84.782 23.32 79.15-59.542s-.236-1.333-.674-3.728c-2.357-12.882-10.554-56.487-19.269-88.685-6.718-24.827-18.71-51.654-26.113-67.08-3.838-7.995-6.443-12.927-6.443-12.927l-93.683-20.037z"/></g></g><g mask="url(#Z)" style="display:block"><path fill="none" d="M690.578 90.602c-67.965-.081-269.535 130.385-336.092 215.217-29.468 37.56 196.917 313.335 196.917 313.335L809.727 501.56S709.44 90.624 690.578 90.6z"/><path fill="none" stroke="#33E3FF" stroke-width="72" d="M467.527 432.507s65.717-66.071 115.56-78.708c33.758-8.559 94.077 2.874 129.2 11.06 16.508 3.848 27.451 6.977 27.451 6.977"/></g><g mask="url(#aa)" style="display:block"><path fill="#58A700" d="M467.304 361.764s2.572-24.712 27.64-32.181c0 0 51.808 33.042 32.284 34.562-10.007.78-26.436 3.051-26.436 3.051l-31.26 8.426-2.228-13.858z"/></g><g mask="url(#ab)" style="display:block"><path fill="#58A700" d="M760.824 278.897s-4.066-24.28-4.207-31.025c0 0 7.912 33.816 7.295 34.836-.317.523-.669 2.359-.669 2.359l.025 7.535-2.444-13.705z"/></g><g clip-path="url(#ac)" style="display:block"><g style="display:block"><path fill="none" d="m814.439 179.507 14.572 458.847-685.283 21.763-14.573-458.847 685.284-21.763z"/><path fill="none" stroke="#FFC6B7" stroke-linecap="round" stroke-linejoin="round" stroke-width="15" d="M438.999 393.5s1-5.75-1.5-13c-2.5-7.251-8-13.25-8-13.25M440 397s-2.25-4-9-8.75c-5.67-3.99-15.5-7.5-15.5-7.5M440 408.125s-6.125-4.75-11.125-6.75c-4.625-1.85-15.376-3.75-15.376-3.75M453.5 408.125s-5.922 3.377-9.626 6.125c-3.875 2.875-8.5 7.875-8.5 7.875"/><path fill="none" stroke="#FFC6B7" stroke-linecap="round" stroke-linejoin="round" stroke-width="50" d="m449.25 393.375 5.25-1.5"/><path fill="none" stroke="#33E3FF" stroke-linecap="round" stroke-linejoin="round" stroke-width="50" d="M468 386.75s10.893-7.334 22-9c10-1.5 25.5 2.25 25.5 2.25"/></g></g><g mask="url(#af)" style="display:block"><path fill="url(#ag)" d="m57.993-65.976-5.949-1.152c-15.46-2.24-31.153 2.432-42.913 12.796l-4.046 3.724-46.206 43.3C-56.41 7.019-61.891 28.96-55.157 48.801a1117.28 1117.28 0 0 1 6.222 18.877L44.229-6.819l-7.108-38.46c-2.278-12.326 8.566-23.079 20.872-20.697z" transform="rotate(-1.819 8211.523 -15767.32)"/></g><g mask="url(#ah)" style="display:block"><path fill="url(#ai)" d="m185.744-78.47 6.082.556c15.597 2.168 20.112 6.997 34.019 16.448l4.874 2.777 51.928 45.868c15.414 14.327 35.593 35.639 29.037 57.075-1.807 5.907-7.991 24.634-10.135 31.289L206.098-.416l3.345-46.255c.725-11.914-11.117-30.649-23.699-31.799z" transform="rotate(-19.819 1171.83 -1332.266)"/></g><g mask="url(#aj)" style="display:block"><path fill="none" d="m245.062 463.243 486.114 489.823 387.201-536.556-513.85-130.54-359.465 177.273z"/><path fill="#0084C2" d="M628.223 546.463 526.34 614.73l250.476-51.977-54.32-5.956-94.272-10.335z"/><path fill="none" stroke="#0084C2" stroke-linecap="round" stroke-linejoin="round" stroke-width="380" d="M628.223 546.463 526.34 614.73l250.476-51.977-54.32-5.956-94.272-10.335z"/></g><g mask="url(#am)" style="display:block"><path fill="#58A700" d="M557.793 370.412c-2.976-26.386-26.758-45.578-53.09-42.873a47.8 47.8 0 0 0-9.76 2.045l9.785 22.437c13.45-.73 24.451 9.115 26.075 20.832 1.45 15.311-6.121 29.858-18.436 35.947l-28.218 9.523 4.877 22.388c64.784-13.494 71.387-44.579 68.767-70.299z"/></g><g mask="url(#an)" style="display:block"><path fill="#FFC7B8" d="M503.946 295.515c-7.486 5.34-16.599 3.799-20.352-3.44-3.752-7.24-.728-17.434 6.757-22.774 7.485-5.339 16.599-3.8 20.351 3.44 3.753 7.239.73 17.435-6.756 22.774z"/></g><g mask="url(#ao)" style="display:block"><path fill="#FFC7B8" d="M728.737 253.369c-1.041 9.135-8.284 14.877-16.174 12.822-7.891-2.055-13.444-11.124-12.404-20.26 1.041-9.135 8.283-14.877 16.174-12.822 7.89 2.055 13.445 11.124 12.404 20.26z"/></g><path fill="none" stroke="#FFF" stroke-linecap="round" stroke-linejoin="round" stroke-width="10" d="M-1.82-9.2C-.535-2.406.58 1.881 1.639 7.918" style="display:block" transform="rotate(-1.819 10975.923 -21087.242)"/><g fill="none" stroke="#FFF" stroke-linecap="round" stroke-width="10" style="display:block"><path d="M648.75 324.501c1.5 6.75 2.751 11 4.001 17"/><path stroke-linejoin="round" d="M648.75 324.501c1.5 6.75 2.751 11 4.001 17"/></g><path fill="#393939" d="M-18.353 12.724c5.791 8.353 17.261 10.432 25.614 4.641l6.454-4.474c8.353-5.791 10.43-17.259 4.638-25.614S1.094-23.156-7.261-17.364l-6.454 4.474c-8.353 5.791-10.43 17.259-4.638 25.614z" style="display:block" transform="rotate(-1.819 15603.718 -16585.698)"/><path fill="#393939" d="M18.89-11.4c-4.378-7.257-13.808-9.588-21.064-5.208l-11.509 6.945c-7.254 4.379-9.585 13.809-5.208 21.064 4.38 7.256 13.81 9.587 21.064 5.208l11.509-6.945c7.256-4.38 9.587-13.81 5.208-21.064z" style="display:block" transform="rotate(3.181 -8087.46 12239.28)"/><path fill="#FFF" d="M-22.104-8.904c-2.706-9.89 2.428-17.706 12.018-18.295 11.61-.714 24.859 9.308 28.135 21.281l4.055 14.822c2.706 9.89-2.428 17.706-12.018 18.295-11.61.714-24.859-9.308-28.135-21.281l-4.055-14.822z" style="display:block" transform="rotate(-1.819 7676.71 -20188.762)"/><path fill="#FFF" d="M-23.932-4.597c-3.15-11.512 3.825-21.868 15.721-23.34C4.112-29.461 16.96-20.888 20.223-8.961l3.709 13.558c3.15 11.512-3.827 21.869-15.721 23.34-12.325 1.525-25.171-7.049-28.434-18.976l-3.709-13.558z" style="display:block" transform="rotate(-1.819 7413.346 -18622.56)"/><path fill="#4B4B4B" d="M-23.932-4.597c-3.15-11.512 3.825-21.868 15.721-23.34C4.112-29.461 16.96-20.888 20.223-8.961l3.709 13.558c3.15 11.512-3.827 21.869-15.721 23.34-12.325 1.525-25.171-7.049-28.434-18.976l-3.709-13.558z" style="display:block" transform="rotate(-1.819 7548.116 -18936.335) scale(.47 .5)"/><path fill="#4B4B4B" d="M-22.104-8.904c-2.706-9.89 2.428-17.706 12.018-18.295 11.61-.714 24.859 9.308 28.135 21.281l4.055 14.822c2.706 9.89-2.428 17.706-12.018 18.295-11.61.714-24.859-9.308-28.135-21.281l-4.055-14.822z" style="display:block" transform="rotate(-1.819 7765.388 -20076.145) scale(.53)"/><path fill="#FFF" d="M5.712-1.563A5.923 5.923 0 1 1-5.714 1.562 5.923 5.923 0 0 1 5.712-1.563z" style="display:block" transform="rotate(-1.819 7292.002 -18629.865)"/><path fill="#FFF" d="M5.712-1.563a5.923 5.923 0 0 1-4.149 7.275c-3.154.863-2.892-2.319-3.755-5.473s.714-3.207 2.026-4.03c1.604-1.006 2.29-2.008 3.701-.96a5.892 5.892 0 0 1 2.177 3.188z" style="display:block" transform="rotate(-1.819 7483.38 -19711.845)"/><path fill="#D04040" d="M-31.02-16.921c.463-7.682 9.268-11.366 17.167-7.397 8.935 4.49 19.404 9.387 25.412 10.945a84.56 84.56 0 0 0 13.004 2.32c3.786.367 7.26 3.755 6.953 7.171l-.694 7.711c-1.438 16-17.327 25.527-34.952 20.957C-20.428 20.56-32.384 5.724-31.487-9.162l.467-7.759z" style="display:block" transform="rotate(-1.819 8919.009 -19112.593)"/><path fill="#FFF" d="M-3.922 4.678a10.993 10.993 0 0 0 2.791-.623c2.705 3.631 7.357 5.926 11.932 5.501 3.704-.344 6.505-2.39 7.773-5.248a86.53 86.53 0 0 1-6.923-1.496C5.644 1.254-4.827-3.642-13.762-8.132a15.137 15.137 0 0 0-4.645-1.475c-.272 1.416-.219 2.954.215 4.539 1.631 5.962 8.02 10.326 14.27 9.746z" style="display:block" transform="rotate(-1.819 8409.294 -19101.666)"/><path fill="#F05C53" d="M19.617 10.498c-4.918 1.224-10.453 1.224-16.17-.258-9.954-2.581-18.288-9.119-23.064-17.21 2.84-2.359 6.542-3.916 10.857-4.316 12.179-1.13 24.629 7.372 27.808 18.991.257.941.446 1.873.569 2.793z" style="display:block" transform="rotate(-1.819 9380.936 -18881.192)"/><path fill="#FFC6B7" d="m117.517-299.085-.693 7.711c-1.687 18.766-20.322 29.94-40.994 24.58-19.115-4.956-33.138-22.356-32.086-39.815l.468-7.759c.673-11.161 13.348-16.27 24.513-10.66 9.072 4.558 18.899 9.103 24.117 10.456a78.36 78.36 0 0 0 12.052 2.151c6.593.638 13.231 6.575 12.623 13.336zm-50.749-21.622c-7.899-3.969-16.703-.285-17.166 7.397l-.468 7.759c-.897 14.886 11.059 29.722 27.357 33.948 17.625 4.57 33.515-4.958 34.953-20.958l.693-7.711c.307-3.416-3.166-6.804-6.952-7.171a84.56 84.56 0 0 1-13.004-2.32c-6.008-1.558-16.477-6.454-25.413-10.944z" style="display:block" transform="rotate(-1.819 18294.346 -16721.565)"/><path fill="#EE9583" d="M6.653-3.125C9.518 1.249 8.269 5.799 4.619 8.19s-8.32 1.719-11.185-2.655S-7.939-8.8-6.939-9.455c.998-.655 10.727 1.956 13.592 6.33z" style="display:block" transform="rotate(-1.819 8289.878 -19886.484)"/><path fill="#FCAE9B" d="m185.44 25.309-292.092 128.489c-47.078 20.709-102.03-.666-122.739-47.744l-3.794-8.624c-20.709-47.078.667-102.03 47.745-122.739l292.092-128.489c47.078-20.709 102.03.666 122.739 47.744l3.794 8.624c20.709 47.078-.667 102.03-47.745 122.739z" style="display:block" transform="rotate(-1.819 20087.98 -17204.14)"/><path fill="#DAF4FC" d="m183.663 26.091-288.538 126.926c-47.078 20.709-102.03-.667-122.739-47.745l-3.794-8.624c-20.709-47.078.667-102.03 47.745-122.739l288.538-126.926c47.078-20.709 102.031.667 122.74 47.745l3.793 8.624c20.709 47.078-.667 102.03-47.745 122.739z" style="display:block" transform="rotate(-1.819 19089.686 -19379.191)"/><path fill="#FCD838" d="m190.215 23.209-301.642 132.69c-47.078 20.709-102.03-.667-122.739-47.745l-3.793-8.624c-20.709-47.078.666-102.03 47.744-122.739l301.642-132.69c47.078-20.709 102.03.667 122.739 47.745l3.793 8.624c20.709 47.078-.666 102.03-47.744 122.739z" style="display:block" transform="rotate(-1.819 18424.21 -20829.11)"/><g mask="url(#az)" style="display:block"><path fill="#FCE369" d="M889.022 433.626 384.494 674.96l-28.144-58.84 504.527-241.33 28.145 58.837z"/><path fill="#FCCA45" d="M945.31 551.304 440.785 792.636l-28.145-58.839 504.527-241.331 28.145 58.838z"/><path fill="#FCE369" d="M1121.058 903.767 616.53 1145.099l-28.144-58.839 504.527-241.331 28.145 58.838z"/><path fill="#FCCA45" d="M1177.347 1021.445 672.82 1262.777l-28.145-58.84 504.527-241.33 28.145 58.838z"/><path fill="#FCE369" d="M1002.665 664.338 498.138 905.671l-28.144-58.84 504.527-241.33 28.144 58.837z"/><path fill="#FCCA45" d="m1058.954 782.016-504.527 241.332-28.145-58.839 504.527-241.331 28.145 58.838z"/></g><path fill="#FDF4BF" d="M98.158-77.002.986-95.067c-20.163-4.917-42.042-3.491-62.506 5.511-49.459 21.757-71.917 79.489-50.16 128.948 21.757 49.459 79.489 71.917 128.948 50.16C37.732 80.55 53.567 65.385 63.567 47.2l52.347-83.838c9.961-15.952.734-36.927-17.756-40.364z" style="display:block" transform="rotate(-1.819 16236.671 -26261.11)"/><path fill="#3D3D3D" d="m31.4-38.942-.033-.009a27.996 27.996 0 0 0-1.804-.401l-49.069-9.122a51.09 51.09 0 0 0-1.878.77C-46.766-36.539-58.29-6.912-47.125 18.47-35.96 43.852-6.333 55.376 19.049 44.211a50.59 50.59 0 0 0 1.837-.863L47.319 1.013c.33-.528.636-1.063.924-1.601l.015-.03C56.35-15.787 48.05-34.657 31.4-38.942z" style="display:block" transform="rotate(-1.819 15011.004 -28387.187)"/></g></svg>