<svg xmlns="http://www.w3.org/2000/svg" xmlns:xlink="http://www.w3.org/1999/xlink" width="916" height="939" style="width:100%;height:100%;transform:translate3d(0,0,0);content-visibility:visible"><defs><clipPath id="f"><path d="M0 0h916v939H0z"/></clipPath><clipPath id="H"><path d="M0 0h916v939H0z"/></clipPath><clipPath id="ad"><path d="M0 0h42v76H0z"/></clipPath><clipPath id="ac"><path d="M0 0h42v76H0z"/></clipPath><clipPath id="ab"><path d="M0 0h632v620H0z"/></clipPath><clipPath id="aa"><path d="M0 0h916v939H0z"/></clipPath><clipPath id="Z"><path d="M0 0h916v939H0z"/></clipPath><clipPath id="Y"><path d="M0 0h916v939H0z"/></clipPath><clipPath id="X"><path d="M0 0h916v939H0z"/></clipPath><clipPath id="W"><path d="M0 0h916v939H0z"/></clipPath><clipPath id="V"><path d="M0 0h834v773H0z"/></clipPath><clipPath id="M"><path d="M0 0h440v476H0z"/></clipPath><clipPath id="U"><path d="M0 0h440v476H0z"/></clipPath><clipPath id="T"><path d="M0 0h440v476H0z"/></clipPath><clipPath id="S"><path d="M0 0h440v476H0z"/></clipPath><clipPath id="L"><path d="M0 0h440v476H0z"/></clipPath><clipPath id="K"><path d="M0 0h440v476H0z"/></clipPath><clipPath id="J"><path d="M0 0h374v367H0z"/></clipPath><clipPath id="I"><path d="M0 0h374v367H0z"/></clipPath><clipPath id="g"><path d="M0 0h916v939H0z"/></clipPath><clipPath id="G"><path d="M0 0h1080v1920H0z"/></clipPath><clipPath id="F"><path d="M0 0h834v773H0z"/></clipPath><clipPath id="B"><path d="M0 0h440v476H0z"/></clipPath><clipPath id="E"><path d="M0 0h440v476H0z"/></clipPath><clipPath id="D"><path d="M0 0h440v476H0z"/></clipPath><clipPath id="C"><path d="M0 0h440v476H0z"/></clipPath><clipPath id="x"><path d="M0 0h440v476H0z"/></clipPath><clipPath id="A"><path d="M0 0h440v476H0z"/></clipPath><clipPath id="z"><path d="M0 0h440v476H0z"/></clipPath><clipPath id="y"><path d="M0 0h440v476H0z"/></clipPath><clipPath id="t"><path d="M0 0h440v476H0z"/></clipPath><clipPath id="w"><path d="M0 0h440v476H0z"/></clipPath><clipPath id="v"><path d="M0 0h440v476H0z"/></clipPath><clipPath id="u"><path d="M0 0h440v476H0z"/></clipPath><clipPath id="p"><path d="M0 0h440v476H0z"/></clipPath><clipPath id="s"><path d="M0 0h440v476H0z"/></clipPath><clipPath id="r"><path d="M0 0h440v476H0z"/></clipPath><clipPath id="q"><path d="M0 0h440v476H0z"/></clipPath><clipPath id="l"><path d="M0 0h440v476H0z"/></clipPath><clipPath id="o"><path d="M0 0h440v476H0z"/></clipPath><clipPath id="n"><path d="M0 0h440v476H0z"/></clipPath><clipPath id="m"><path d="M0 0h440v476H0z"/></clipPath><clipPath id="h"><path d="M0 0h440v476H0z"/></clipPath><clipPath id="k"><path d="M0 0h440v476H0z"/></clipPath><clipPath id="j"><path d="M0 0h440v476H0z"/></clipPath><clipPath id="i"><path d="M0 0h440v476H0z"/></clipPath><mask id="R" mask-type="alpha"><use xlink:href="#a"/></mask><mask id="Q" mask-type="alpha"><use xlink:href="#b"/></mask><mask id="O" mask-type="alpha"><use xlink:href="#c"/></mask><mask id="N" mask-type="alpha"><use xlink:href="#d"/></mask><mask id="P" mask-type="alpha"><use xlink:href="#e"/></mask></defs><g clip-path="url(#f)"><g clip-path="url(#g)" style="display:block"><g opacity=".3" style="display:block"><path fill="#AFAFAF" d="M448.687 935.173c83.978 0 152.057-53.009 152.057-118.395 0-65.385-68.079-118.394-152.057-118.394s-152.056 53.009-152.056 118.394c0 65.386 68.078 118.395 152.056 118.395z" opacity="1"/></g><path fill="#58CC02" d="M0-46.177c-5.403 0-9.466-.919-13.344-2.302-3.54-1.262-6.927-2.469-11.037-2.469-13.78 0-18.197 15.459-18.02 20.538V5.764c0 35.299 28.709 44.831 42.401 45.184 13.692-.353 42.401-9.885 42.401-45.184V-30.41c.177-5.079-4.24-20.538-18.02-20.538-4.11 0-7.497 1.207-11.037 2.469C9.466-47.096 5.403-46.177 0-46.177z" style="display:block" transform="matrix(3.11802 0 0 3.12208 448.098 722.522)"/><g style="display:block"><path fill="#58CC02" d="M277.512 704.665c-20.946 1.095-14.023 36.029 2.825 60.621 15.67 22.875 40.206 36.998 49.169 36.173l136.991 22.138 12.104-126.741s-180.143 6.715-201.089 7.81z"/></g><path fill="#58CC02" d="M-14.824 10.439C-17.636 16.55-5.091 21.65 4.03 18.811c7.638-2.378 17.334-7.52 18.436-10.188L53.21-27.958 12.938-47.826s-24.95 52.154-27.762 58.265z" style="display:block" transform="matrix(-1.54475 2.71199 2.70846 1.54677 565.938 730.122)"/><g style="display:block"><path fill="#8EE000" d="m460.207 829.413 32.44-4.742c1.74-.253 3.134 1.005 2.76 2.486-1.811 7.118-8.78 12.873-17.352 14.125-8.572 1.251-16.609-2.307-19.957-8.672-.698-1.325.37-2.944 2.11-3.197z"/><path fill="#89E219" d="M461.938 849.362c-12.444-.065-17.168-.001-29.767-.003-11.022 0 1.575 10.753 14.174 10.755 12.599.001 24.043-10.71 15.593-10.752z"/><path fill="#8EE000" d="m401.937 824.863 32.539 4.036c1.745.218 2.74 1.799 1.972 3.126-3.704 6.373-11.998 10.066-20.596 8.998-8.598-1.068-15.355-6.625-16.826-13.64-.308-1.462 1.166-2.737 2.911-2.52z"/></g><g clip-path="url(#h)" style="display:block" transform="matrix(.7795 0 0 .78052 275.685 554.699)"><path fill="#89E219" d="M9.372-13.906c-5.343 4.932-13.893 4.932-18.743 0-3.206-3.288-2.877 6.248.987 28.444h8.303c5.754-.082 8.631 0 8.631 0 0 .164 6.165-33.376.822-28.444z" style="display:block" transform="matrix(4 0 0 4 221.832 193.013)"/><path fill="#89E219" d="M-8.312 5.786 4.759-8.765c.74-.74 1.973-.657 2.384.329 2.548 4.357 1.973 9.865-1.48 13.729C2.21 9.157-3.215 10.307-7.819 8.252c-.904-.493-1.233-1.726-.493-2.466z" style="display:block" transform="matrix(4 0 0 4 316.573 135.621)"/><path fill="#89E219" d="M-8.312 5.748 4.759-8.72c.658-.74 1.891-.657 2.384.247 2.548 4.357 1.973 9.864-1.48 13.728C2.21 9.119-3.215 10.269-7.819 8.214c-.904-.493-1.233-1.726-.493-2.466z" style="display:block" transform="matrix(4 0 0 4 286.321 121.631)"/><path fill="#89E219" d="M8.32 5.748-4.997-8.72c-.74-.74-1.645-.657-2.22.247-2.466 4.357-1.891 9.864 1.562 13.728 3.453 3.864 8.878 5.014 13.482 2.959.904-.493 1.233-1.726.493-2.466z" style="display:block" transform="matrix(4 0 0 4 158.303 121.631)"/><path fill="#89E219" d="M8.312 5.786-4.677-8.765c-.74-.74-1.973-.657-2.466.329-2.548 4.357-1.973 9.865 1.48 13.729 3.453 3.864 8.878 5.014 13.482 2.959.904-.493 1.233-1.726.493-2.466z" style="display:block" transform="matrix(4 0 0 4 127.756 135.621)"/><path fill="#89E219" d="M-1.434-22.041c10.908-.904 19.919 8.391 18.676 19.266L16.098 7.226A16.782 16.782 0 0 1 .499 22.067c-9.671.62-17.855-7.056-17.855-16.747V-4.746c0-9.029 6.923-16.55 15.922-17.295z" style="display:block" transform="matrix(4 0 0 4 309.426 207.15)"/><path fill="#89E219" d="M1.434-22.041c-10.908-.904-19.919 8.391-18.676 19.266l1.144 10.001A16.782 16.782 0 0 0-.499 22.067c9.671.62 17.855-7.056 17.855-16.747V-4.746c0-9.029-6.923-16.55-15.922-17.295z" style="display:block" transform="matrix(4 0 0 4 134.574 207.15)"/><path fill="#FFF" d="M1.871-15.593c-7.624-1.22-14.356 5.066-13.663 12.755l.733 8.136a11.474 11.474 0 0 0 9.385 10.26c7.04 1.273 13.515-4.136 13.515-11.29v-8.169a11.841 11.841 0 0 0-9.97-11.692z" style="display:block" transform="matrix(4 0 0 4 136.635 207.989)"/><path fill="#4B4B4B" d="M0-9a6.14 6.14 0 0 0-6.102 6.818l.669 6.018A5.805 5.805 0 0 0 6.14 3.195V-2.86A6.14 6.14 0 0 0 0-9z" style="display:block" transform="matrix(4 0 0 4 147.439 205)"/><path fill="#FFF" d="M0 3.699a3.699 3.699 0 1 0 0-7.398A3.699 3.699 0 0 0 0 3.7z" style="display:block" transform="matrix(4 0 0 4 124.797 183.797)"/><path fill="#FFF" d="M-1.871-15.593c7.624-1.22 14.356 5.066 13.663 12.755l-.733 8.136a11.474 11.474 0 0 1-9.385 10.26c-7.04 1.273-13.515-4.136-13.515-11.29v-8.169a11.841 11.841 0 0 1 9.97-11.692z" style="display:block" transform="matrix(4 0 0 4 307.365 207.989)"/><path fill="#4B4B4B" d="M0-9a6.14 6.14 0 0 0-6.14 6.14v6.055a5.804 5.804 0 0 0 11.573.641l.669-6.018A6.14 6.14 0 0 0 0-9z" style="display:block" transform="matrix(4 0 0 4 296.561 205)"/><path fill="#FFF" d="M0 3.699a3.699 3.699 0 1 0 0-7.398A3.699 3.699 0 0 0 0 3.7z" style="display:block" transform="matrix(3.88 0 0 3.88 275.547 183.797)"/><path fill="#89E219" d="M191.658 52.297s-38.777 93.697-134.41 1.683C-27.841 175.74-79 72.888-79 72.888s26.365 59.121 80.001 36.522c38.612-16.269 55.692-58.911 55.692-58.911s40.258 59.911 92.894 44.312c37.036-10.976 42.071-42.514 42.071-42.514zM147.5-47C100.364-55.531 83.047-11.678 58-7 23.364-.531 11.864-28.531-34-26.5c-54.483 2.413-53.5 47-53.5 47s2.364-75.031 140-26c86.864-67.031 126.723-19.489 126.723-19.489S180.288-41.066 147.5-47z" style="display:block" transform="rotate(7 -1270.208 1497.653)"/><g style="display:block"><path fill="#F49000" d="M247.153 247.878c0-13.48-11.18-24.664-24.66-24.664s-24.66 11.184-24.66 24.664v7.888c0 13.48 11.18 24.664 24.66 24.664s24.66-11.184 24.66-24.664v-7.888z"/><path fill="#B06800" d="M240.499 240c0-7.932-8.164-14.508-18.008-14.508s-18.008 6.576-18.008 14.508v4.64c0 7.932 8.164 14.508 18.008 14.508s18.008-6.576 18.008-14.508V240z"/></g><path fill="#F49000" d="M24.103-7.369V7.369c0 13.302-10.8 24.103-24.103 24.103-13.302 0-24.103-10.8-24.103-24.103V-7.369c0-13.302 10.8-24.103 24.103-24.103 13.302 0 24.103 10.8 24.103 24.103z" style="display:block" transform="matrix(1.05117 0 0 1.17 222.503 270.448)"/><path fill="#A96606" d="M25.066-5.497V5.497c0 12.693-10.307 23-23 23h-4.132c-12.693 0-23-10.307-23-23V-5.497c0-12.693 10.307-23 23-23h4.132c12.693 0 23 10.307 23 23z" style="display:block" transform="matrix(.75 0 0 1.04337 222.902 261.737)"/><path fill="#FFCAFF" d="M2.438 36.875c-11 0-15.25 6.937-15.25 6.937s4.187 9.876 15.187 9.876c12.25 0 15.75-9.563 15.75-9.563s-4.749-7.25-15.687-7.25z" style="display:block" transform="matrix(1 0 0 1 219.998 238)"/><path fill="#FFC200" d="M.164-4.816c-4.275 0-7.891 2.796-8.631 6.577v.328c0 .247.082.329.329.329L.273 4.827c.164 0 7.865-2.409 7.865-2.409.247.082.329-.082.329-.329v-.328C7.727-1.938 4.192-4.816.164-4.816z" style="display:block" transform="matrix(4 0 0 4 222.164 242.477)"/><path fill="none" stroke="#FFDE00" stroke-linecap="round" stroke-width="15.445" d="M-18.807 38.848c2.522-1.54 9.117-3.012 14.974-.122" style="display:block" transform="rotate(1.719 -6491.107 7927.82)"/></g><g clip-path="url(#p)" style="display:block" transform="matrix(.7795 0 0 .78052 275.685 554.699)"><path fill="#89E219" d="M9.372-13.906c-5.343 4.932-13.893 4.932-18.743 0-3.206-3.288-2.877 6.248.987 28.444h8.303c5.754-.082 8.631 0 8.631 0 0 .164 6.165-33.376.822-28.444z" style="display:block" transform="matrix(4 0 0 4 221.832 193.013)"/><path fill="#89E219" d="M-8.312 5.786 4.759-8.765c.74-.74 1.973-.657 2.384.329 2.548 4.357 1.973 9.865-1.48 13.729C2.21 9.157-3.215 10.307-7.819 8.252c-.904-.493-1.233-1.726-.493-2.466z" style="display:block" transform="matrix(4 0 0 4 316.573 135.621)"/><path fill="#89E219" d="M-8.312 5.748 4.759-8.72c.658-.74 1.891-.657 2.384.247 2.548 4.357 1.973 9.864-1.48 13.728C2.21 9.119-3.215 10.269-7.819 8.214c-.904-.493-1.233-1.726-.493-2.466z" style="display:block" transform="matrix(4 0 0 4 286.321 121.631)"/><path fill="#89E219" d="M8.32 5.748-4.997-8.72c-.74-.74-1.645-.657-2.22.247-2.466 4.357-1.891 9.864 1.562 13.728 3.453 3.864 8.878 5.014 13.482 2.959.904-.493 1.233-1.726.493-2.466z" style="display:block" transform="matrix(4 0 0 4 158.303 121.631)"/><path fill="#89E219" d="M8.312 5.786-4.677-8.765c-.74-.74-1.973-.657-2.466.329-2.548 4.357-1.973 9.865 1.48 13.729 3.453 3.864 8.878 5.014 13.482 2.959.904-.493 1.233-1.726.493-2.466z" style="display:block" transform="matrix(4 0 0 4 127.756 135.621)"/><path fill="#89E219" d="M-1.434-22.041c10.908-.904 19.919 8.391 18.676 19.266L16.098 7.226A16.782 16.782 0 0 1 .499 22.067c-9.671.62-17.855-7.056-17.855-16.747V-4.746c0-9.029 6.923-16.55 15.922-17.295z" style="display:block" transform="matrix(4 0 0 4 309.426 207.15)"/><path fill="#89E219" d="M1.434-22.041c-10.908-.904-19.919 8.391-18.676 19.266l1.144 10.001A16.782 16.782 0 0 0-.499 22.067c9.671.62 17.855-7.056 17.855-16.747V-4.746c0-9.029-6.923-16.55-15.922-17.295z" style="display:block" transform="matrix(4 0 0 4 134.574 207.15)"/><path fill="#FFF" d="M1.871-15.593c-7.624-1.22-14.356 5.066-13.663 12.755l.733 8.136a11.474 11.474 0 0 0 9.385 10.26c7.04 1.273 13.515-4.136 13.515-11.29v-8.169a11.841 11.841 0 0 0-9.97-11.692z" style="display:block" transform="matrix(4 0 0 4 136.635 207.989)"/><path fill="#FFF" d="M-1.871-15.593c7.624-1.22 14.356 5.066 13.663 12.755l-.733 8.136a11.474 11.474 0 0 1-9.385 10.26c-7.04 1.273-13.515-4.136-13.515-11.29v-8.169a11.841 11.841 0 0 1 9.97-11.692z" style="display:block" transform="matrix(4 0 0 4 307.365 207.989)"/><g style="display:block"><path fill="#F49000" d="M247.153 247.878c0-13.48-11.18-24.664-24.66-24.664s-24.66 11.184-24.66 24.664v7.888c0 13.48 11.18 24.664 24.66 24.664s24.66-11.184 24.66-24.664v-7.888z"/><path fill="#B06800" d="M240.499 240c0-7.932-8.164-14.508-18.008-14.508s-18.008 6.576-18.008 14.508v4.64c0 7.932 8.164 14.508 18.008 14.508s18.008-6.576 18.008-14.508V240z"/></g><path fill="#F49000" d="M24.103-7.369V7.369c0 13.302-10.8 24.103-24.103 24.103-13.302 0-24.103-10.8-24.103-24.103V-7.369c0-13.302 10.8-24.103 24.103-24.103 13.302 0 24.103 10.8 24.103 24.103z" style="display:block" transform="matrix(1.05117 0 0 1.17 222.503 270.448)"/><path fill="#A96606" d="M25.066-5.497V5.497c0 12.693-10.307 23-23 23h-4.132c-12.693 0-23-10.307-23-23V-5.497c0-12.693 10.307-23 23-23h4.132c12.693 0 23 10.307 23 23z" style="display:block" transform="matrix(.75 0 0 1.04337 222.902 261.737)"/><path fill="#FFCAFF" d="M2.438 36.875c-11 0-15.25 6.937-15.25 6.937s4.187 9.876 15.187 9.876c12.25 0 15.75-9.563 15.75-9.563s-4.749-7.25-15.687-7.25z" style="display:block" transform="matrix(1 0 0 1 219.998 238)"/><g clip-path="url(#r)" style="display:block"><g style="display:block"><path fill="#FFF" d="M302.872 143.146c36.163 0 65.525 29.362 65.525 65.525 0 36.163-29.362 65.525-65.525 65.525-36.163 0-65.525-29.362-65.525-65.525 0-36.163 29.362-65.525 65.525-65.525z"/><path fill="#4B4B4B" d="M345.521 209.698c-2.876 24.656-20.146 43.88-44.946 44.946-25.024 1.076-43.877-20.146-44.946-44.946-1.077-24.977 20.211-42.851 44.946-44.946 23.976-2.031 47.977 18.969 44.946 44.946z"/><path fill="#FFF" d="M295.123 186.195s2.674-12.838-13.27-23.324c-18.43-12.122-29.42 4.919-30.628 13.68-1.208 8.763 5.63 25.572 23.116 25.073 17.484-.5 20.782-15.43 20.782-15.43z"/><path fill="none" stroke="#FFF" stroke-linecap="round" stroke-width="17" d="M288.496 234.376s-6.514-2.449-12.144-9.6"/><path fill="#FFF" d="M314.593 178.972s.372 15.25-14.11 18.569c13.482 3.431 15.396 17.492 15.396 17.492s1.586-13.81 14.466-18.322c-14.13-1.24-15.752-17.739-15.752-17.739zM143.532 142.924c36.163 0 65.525 29.362 65.525 65.525 0 36.163-29.362 65.525-65.525 65.525-36.163 0-65.525-29.362-65.525-65.525 0-36.163 29.362-65.525 65.525-65.525z"/><path fill="#4B4B4B" d="M146.235 164.53c24.656 2.876 43.88 20.146 44.946 44.946 1.076 25.024-20.146 43.877-44.946 44.946-24.977 1.077-42.851-20.211-44.946-44.946-2.031-23.976 18.969-47.976 44.946-44.946z"/><path fill="#FFF" d="M135.545 185.973s2.674-12.838-13.27-23.324c-18.43-12.122-29.42 4.919-30.628 13.68-1.208 8.763 5.63 25.572 23.116 25.073 17.484-.5 20.782-15.43 20.782-15.43z"/><path fill="none" stroke="#FFF" stroke-linecap="round" stroke-width="17" d="M134.457 236.13s-6.272-2.373-11.068-10.57"/><path fill="#FFF" d="M157.886 178.75s.372 15.25-14.11 18.569c13.482 3.431 15.396 17.492 15.396 17.492s1.586-13.81 14.466-18.322c-14.13-1.24-15.752-17.739-15.752-17.739z"/></g></g><path fill="#FFC200" d="M.164-4.816c-4.275 0-7.891 2.796-8.631 6.577v.328c0 .247.082.329.329.329L.273 4.827c.164 0 7.865-2.409 7.865-2.409.247.082.329-.082.329-.329v-.328C7.727-1.938 4.192-4.816.164-4.816z" style="display:block" transform="matrix(4 0 0 4 222.164 242.477)"/><path fill="none" stroke="#FFDE00" stroke-linecap="round" stroke-width="15.445" d="M-18.807 38.848c2.522-1.54 9.117-3.012 14.974-.122" style="display:block" transform="rotate(1.719 -6491.107 7927.82)"/></g><path fill="#F49000" d="M0-9.58a7.15 7.15 0 0 0-7.149 7.149v4.862a7.15 7.15 0 0 0 14.298 0v-4.862A7.15 7.15 0 0 0 0-9.58z" style="display:block" transform="rotate(-43.853 1253.383 -20.236) scale(3.12)"/><path fill="#F49000" d="M0-9.58a7.15 7.15 0 0 0-7.149 7.149v4.862a7.15 7.15 0 0 0 14.298 0v-4.862A7.15 7.15 0 0 0 0-9.58z" style="display:block" transform="scale(-3.12 3.12) rotate(-42.853 267.269 352.15)"/></g></g></svg>