<svg xmlns="http://www.w3.org/2000/svg" width="340" height="56" fill="none"><path fill="url(#a)" fill-rule="evenodd" d="M220.784 29.967a3.631 3.631 0 0 0-1.3-1.3c-.557-.297-1.04-.445-1.782-.445l-15.376.074c-1.3 0-2.117.223-3.232.854-1.114.632-1.671 1.597-2.302 2.711l-8.877 15.488-1.337 2.488c-.334.557-.52 1.152-.52 1.783s.149 1.263.483 1.783a3.133 3.133 0 0 0 1.3 1.3c.52.297 1.151.482 1.783.445h14.633a7.271 7.271 0 0 0 3.602-.965c1.115-.632 2.006-1.56 2.637-2.637l9.063-16.008 1.188-2.005c.334-.52.483-1.152.483-1.783.037-.631-.149-1.226-.446-1.783Zm-12.553 6.017c-.176.312-.352.618-.527.922-.303.529-.601 1.047-.884 1.566l-.002.002c-.519.891-1.039 1.782-1.558 2.71a120.92 120.92 0 0 0-1.337 2.302l-.138.236-.001.001c-.115.197-.239.407-.344.617-.354.59-.693 1.18-1.026 1.76-.192.334-.382.664-.571.989l-.335.557-.029.037c-.134.169-.243.305-.416.409-.223.111-.446.185-.669.185h-1.671c-.111 0-.186-.037-.297-.111-.186-.074-.334-.297-.26-.52.037-.111.074-.186.148-.297.409-.706.818-1.42 1.226-2.136.409-.715.817-1.43 1.226-2.135.334-.576.668-1.161 1.003-1.746l.002-.005c.334-.583.667-1.166 1-1.74l.297-.558c.149-.222.298-.445.409-.705.218-.327.416-.674.608-1.011l.209-.363c.072-.116.139-.231.204-.344v-.001c.103-.178.203-.35.316-.51.037-.074.074-.139.111-.204a3.41 3.41 0 0 0 .112-.204.805.805 0 0 1 .408-.371c.223-.15.446-.186.669-.186h1.671c.088 0 .153.023.232.051l.065.023c.05.025.099.083.149.14.025.03.049.058.074.083.112.223.037.371-.074.557Zm-62.458-5.051a4.416 4.416 0 0 1 3.789-2.191h7.279c7.725 0 10.994 4.27 8.542 9.285l-5.868 11.03a11.068 11.068 0 0 1-9.656 5.646H138.16l-1.486-.038c-1.968 0-3.157-2.08-2.191-3.788l11.29-19.944Zm8.988 7.65.149-.296c1.077-2.08-.409-2.563-1.152-2.674-.297-.038-.594.074-.742.334h-.037a1.364 1.364 0 0 1-.075.167 1.354 1.354 0 0 0-.074.167c-.093.13-.176.269-.259.408h-.001v.001h-.001c-.083.14-.166.279-.259.408l-.78 1.337a4.436 4.436 0 0 1-.228.441v.001l-.001.001c-.05.09-.099.176-.142.263l-.297.52c-.469.781-.92 1.562-1.377 2.356l-.002.003-.001.002-.589 1.019-2.34 4.122a.679.679 0 0 0-.122.202l-.026.058c-.075.223.074.446.26.52a.42.42 0 0 0 .297.111h1.597c.223 0 .408-.074.594-.148.186-.111.297-.223.409-.371.148-.223.26-.409.371-.632a165.2 165.2 0 0 0 1.56-2.637c.074-.148.158-.288.241-.427.084-.14.167-.278.242-.427.204-.371.418-.743.631-1.114.214-.372.427-.743.631-1.114.26-.427.511-.864.762-1.3.251-.437.501-.873.761-1.3Zm39.47-9.581c.335.185.557.445.743.742.186.297.26.632.26.966 0 .371-.074.706-.26 1.003L184.426 50.69a8.695 8.695 0 0 1-3.194 3.269 8.726 8.726 0 0 1-4.382 1.188h-12.145c-.78 0-1.523-.185-2.191-.557-.669-.371-1.263-.928-1.634-1.597-.409-.668-.595-1.411-.595-2.191 0-.743.186-1.523.557-2.191l10.325-18.348c.223-.445.595-.817 1.04-1.114a2.98 2.98 0 0 1 1.486-.408h5.571c.371 0 .706.111 1.003.297.297.148.557.408.705.705.186.297.297.632.297 1.003 0 .334-.111.669-.26 1.003l-7.836 13.816a.63.63 0 0 0-.112.371c0 .15.038.26.112.372.074.111.148.223.26.26.111.074.26.111.371.111h1.077c.26 0 .557-.074.817-.222.223-.15.446-.335.595-.595l8.69-15.636c.26-.445.632-.817 1.078-1.077a2.84 2.84 0 0 1 1.448-.408h5.757c.334 0 .668.111.965.26Zm32.713 17.678h8.319c1.449 0 2.377 1.597 1.671 2.897l-2.191 3.9s-.78 1.226-2.525 1.226H213.09c-1.188 0-1.931-1.3-1.337-2.303l3.566-6.203h.001c.371-.632.742-1.263 1.113-1.93.137-.193.254-.405.365-.607.04-.072.079-.143.118-.21.185-.335.371-.632.557-.929l.631-1.115 1.115-1.894c.111-.185.185-.334.222-.483.07-.093.126-.186.176-.27v-.001c.029-.05.057-.096.084-.137.223-.39.446-.79.669-1.188.223-.4.446-.8.668-1.189l3.194-5.571a3.795 3.795 0 0 1 3.306-1.931h5.98c1.114 0 1.819 1.225 1.262 2.19l-1.671 2.935-1.114 1.931-5.646 9.917a.658.658 0 0 0 .595.965Zm30.876-17.976h-6.017c-1.337 0-2.6.743-3.305 1.932l-3.157 5.57a175.28 175.28 0 0 0-1.374 2.378l-.223.408-.055.114c-.058.123-.121.257-.205.37l-1.114 1.93-.632 1.078c-.093.167-.185.325-.278.482-.093.158-.186.316-.279.483l-.117.21v.001c-.112.202-.229.414-.366.606-.185.316-.371.64-.557.966-.185.325-.371.65-.557.965l-4.122 7.094c-.335.632.111 1.412.817 1.412h5.199l2.749-.038c.817 0 1.522-.445 1.931-1.15l1.374-2.304 8.765-15.413 1.114-1.968 1.672-2.934c.557-.966-.149-2.192-1.263-2.192Zm20.528.075h5.98c1.077 0 1.783 1.188 1.263 2.154l-1.672 2.971-1.114 1.931-8.728 15.376-1.374 2.303a2.348 2.348 0 0 1-1.931 1.151l-2.749.038h-5.162c-.594 0-1.077-.558-.929-1.152l1.746-7.688c.037-.185-.186-.26-.26-.111l-3.12 5.46-1.337 2.302c-.408.706-1.151 1.114-1.968 1.151l-2.712.038h-5.199c-.706 0-1.151-.78-.817-1.412l4.122-7.093 1.115-1.895c.148-.297.297-.557.482-.854.093-.148.177-.306.26-.464.084-.158.167-.316.26-.464l.632-1.077 1.151-1.932c.019-.055.046-.111.074-.167.028-.056.056-.111.075-.167l.26-.52c.295-.477.576-.968.86-1.464l.003-.005c.18-.313.361-.63.548-.945l3.157-5.571a3.802 3.802 0 0 1 3.305-1.894h5.98c1.003 0 1.671.965 1.374 1.857v.037l-1.783 7.985c-.037.186.223.26.297.111l1.412-2.525 3.194-5.571c.668-1.189 1.931-1.894 3.305-1.894Zm32.419 1.188a3.133 3.133 0 0 0-1.3-1.3c-.52-.297-1.003-.445-1.746-.445l-15.302.074c-1.299 0-2.117.223-3.194.854-1.101.624-1.657 1.574-2.28 2.636l-.022.038-8.84 15.413-1.337 2.489c-.334.557-.482 1.151-.52 1.783 0 .63.149 1.262.483 1.782a3.133 3.133 0 0 0 1.3 1.3 3.59 3.59 0 0 0 1.746.446h14.596a7.27 7.27 0 0 0 3.602-.966c1.077-.631 1.56-.965 2.526-2.6l2.377-4.16a1.204 1.204 0 0 1 1.077-.63c.52 0 1.04-.15 1.486-.41.482-.296.854-.668 1.077-1.15l1.04-1.82c.148-.297.222-.632.222-.929 0-.334-.074-.668-.26-.966a1.915 1.915 0 0 0-.668-.668c-.297-.149-.632-.26-.966-.26h-10.882c-.928 0-1.783.52-2.228 1.374l-1.932 3.454c-.445.743-.408 1.374.335 1.374h.068l.034-.002c.31-.008.872-.022.641.374l-.298.483c-.111.185-.222.334-.408.445-.223.112-.446.186-.669.186h-1.671c-.088 0-.153-.023-.232-.051l-.028-.01a1.58 1.58 0 0 0-.037-.013c-.186-.112-.334-.297-.26-.557l6.797-11.811a.903.903 0 0 1 .334-.408c.223-.15.52-.223.78-.223h1.411c.112 0 .223 0 .297.074a.334.334 0 0 1 .223.223c.111.185.037.334-.074.557a3.128 3.128 0 0 0-.034.051l-.045.084h-.001c-.042.08-.126.238-.329.608-.408.742.074 1.634.929 1.634h7.836c1.04 0 1.672-.409 2.08-1.04l1.077-1.783 1.152-2.005c.334-.52.52-1.152.52-1.783 0-.594-.149-1.226-.483-1.746Zm26.485-1.3c.557.335 1.003.78 1.3 1.3.297.557.483 1.152.446 1.783 0 .631-.149 1.263-.483 1.783l-1.189 2.005-9.062 16.008c-.631 1.077-1.523 2.005-2.637 2.637a7.274 7.274 0 0 1-3.602.965h-14.634c-.631.037-1.262-.148-1.782-.445a3.127 3.127 0 0 1-1.3-1.3c-.335-.52-.483-1.152-.483-1.783s.186-1.226.52-1.783l1.337-2.488 8.876-15.488c.632-1.114 1.189-2.08 2.303-2.71 1.114-.632 1.931-.855 3.231-.855l15.376-.074c.743 0 1.226.148 1.783.445Zm-11.78 8.24.527-.923c.111-.186.185-.334.074-.557a1.178 1.178 0 0 1-.074-.083c-.05-.057-.099-.115-.149-.14l-.066-.023a.636.636 0 0 0-.231-.051h-1.671c-.223 0-.446.037-.669.185a.807.807 0 0 0-.409.372c-.037.074-.074.14-.111.204-.037.065-.074.13-.111.204-.114.16-.214.333-.317.51-.065.114-.131.23-.203.345-.068.115-.135.234-.204.353l-.001.003-.004.007c-.193.337-.39.684-.608 1.01-.112.26-.26.483-.409.706l-.297.558c-.334.575-.669 1.16-1.003 1.745-.334.585-.668 1.17-1.003 1.746-.408.705-.817 1.42-1.225 2.136h-.001c-.408.715-.817 1.43-1.225 2.135a1.114 1.114 0 0 0-.148.297c-.075.223.074.446.26.52.111.074.185.111.297.111h1.671c.223 0 .446-.074.668-.185.173-.104.282-.24.416-.408h.001l.029-.038.334-.557c.19-.325.38-.656.572-.989.333-.58.672-1.17 1.025-1.76.106-.21.229-.42.346-.618l.137-.236c.446-.78.892-1.56 1.337-2.302.52-.929 1.04-1.82 1.56-2.712.283-.517.58-1.035.883-1.563l.002-.003Zm-291.34-6.494c-.372-.631-.892-1.189-1.56-1.56a4.195 4.195 0 0 0-2.117-.557H17.159c-1.412 0-2.823.371-4.011 1.114-1.226.706-2.229 1.746-2.934 2.971l-2.192 3.826c-.52.965-.705 2.08-.483 3.12a4.639 4.639 0 0 0 1.672 2.71l5.57 4.235c.41.26.706.668.818 1.114.111.483.037.966-.223 1.374a1.814 1.814 0 0 1-.668.52c-.26.112-.558.149-.855.112-1.188 0-1.82-.558-1.337-1.449.149-.297.26-.631.223-.928 0-.335-.074-.669-.26-.929a1.928 1.928 0 0 0-.706-.631 2.129 2.129 0 0 0-.928-.223H4.717a3.46 3.46 0 0 0-1.486.446c-.445.26-.817.668-1.077 1.114L.557 49.577A4.017 4.017 0 0 0 0 51.434c0 .632.149 1.263.483 1.857a3.65 3.65 0 0 0 1.337 1.375 4.065 4.065 0 0 0 1.857.482h14.299a8.308 8.308 0 0 0 3.974-1.002 7.748 7.748 0 0 0 2.934-2.86l1.745-3.009c.669-1.15.892-2.562.632-3.9-.297-1.336-1.04-2.525-2.117-3.305l-4.94-3.677a1.417 1.417 0 0 1-.52-.408 2.651 2.651 0 0 1-.297-.557c-.037-.223-.074-.446-.037-.632.037-.223.111-.445.223-.631.223-.297.52-.594.891-.78a2.788 2.788 0 0 1 1.114-.334c.223-.037.446 0 .669.111.223.112.371.26.52.446.111.223.149.446.149.668-.038.26-.112.483-.26.669a1.068 1.068 0 0 0-.186.743c0 .26.074.52.223.78.111.223.334.408.557.52.26.111.52.185.78.148h6.462a3.01 3.01 0 0 0 1.523-.408c.483-.26.854-.669 1.114-1.115l1.077-1.968c.371-.669.557-1.374.52-2.117a4.23 4.23 0 0 0-.594-2.117Zm27.559-.669c-.186-.297-.409-.557-.743-.742-.297-.149-.631-.26-.965-.26h-5.757c-.52 0-1.003.148-1.449.408-.445.26-.817.632-1.077 1.077l-8.69 15.636c-.15.26-.372.446-.595.595-.26.148-.557.222-.817.222h-1.077a.716.716 0 0 1-.371-.111c-.112-.037-.186-.149-.26-.26a.627.627 0 0 1-.112-.371c0-.149.037-.26.112-.372l7.836-13.816c.149-.334.26-.669.26-1.003 0-.371-.111-.705-.297-1.003a1.62 1.62 0 0 0-.706-.705 1.868 1.868 0 0 0-1.002-.297H40.41c-.52 0-1.04.148-1.486.408-.446.297-.817.669-1.04 1.114L27.56 48.612a4.575 4.575 0 0 0-.557 2.19c0 .78.186 1.524.594 2.192.372.669.966 1.226 1.634 1.597a4.47 4.47 0 0 0 2.192.557h12.145a8.727 8.727 0 0 0 4.382-1.188 8.7 8.7 0 0 0 3.194-3.269l10.548-18.978c.186-.297.26-.632.26-1.003a1.8 1.8 0 0 0-.26-.966Zm21.205-.222a5.351 5.351 0 0 1 1.968 1.894c.446.817.706 1.708.706 2.637 0 .928-.223 1.82-.669 2.637l-3.714 6.685c-.743 1.3-1.82 2.414-3.12 3.157a8.327 8.327 0 0 1-4.27 1.188h-8.58l-.149.223a13.017 13.017 0 0 1-4.79 4.94c-2.006 1.188-4.272 1.782-6.612 1.782-.297 0-.594-.074-.854-.222-.26-.112-.445-.335-.594-.595a2.109 2.109 0 0 1-.26-.817c0-.297.074-.594.223-.854L64.4 30.302c.26-.446.594-.817 1.04-1.078.445-.26.928-.408 1.448-.408h13.37c.93 0 1.858.26 2.638.706ZM72.682 40.218l1.709-2.86c.074-.185.148-.371.148-.557a.853.853 0 0 0-.148-.52c-.075-.186-.223-.297-.372-.408-.186-.075-.371-.149-.557-.149h-1.337a.244.244 0 0 0-.132.045l-.054.03c-.024 0-.05.032-.074.065-.012.017-.025.033-.037.046l-2.637 4.42c-.037.037-.037.11-.037.148 0 .074 0 .148.037.186l.111.111c.037.037.112.037.149.037h2.117c.223 0 .446-.037.631-.148.223-.112.372-.26.483-.446Zm38.171-10.325a1.926 1.926 0 0 0-.705-.743 2.317 2.317 0 0 0-.966-.334H91.875c-.446 0-.929.149-1.337.371a3.23 3.23 0 0 0-1.003 1.003L78.02 50.654c-.222.409-.297.892-.297 1.375 0 .482.149.928.372 1.337.26.408.594.742 1.002 1.002.409.223.892.335 1.375.372H96.33c.52 0 1.003-.149 1.412-.372.445-.26.78-.631 1.04-1.04l2.117-3.676c.185-.297.26-.669.26-1.04a2.462 2.462 0 0 0-.335-1.003 2.018 2.018 0 0 0-.78-.706c-.334-.148-.705-.223-1.04-.185h-9.619l1.04-1.82h7.205c.483 0 1.003-.149 1.449-.409.445-.26.817-.668 1.077-1.114l1.003-1.783c.148-.297.222-.631.222-.928 0-.335-.074-.669-.259-.929-.149-.297-.409-.52-.669-.668a1.676 1.676 0 0 0-.928-.26h-5.683l1.04-1.82h11.105a3.66 3.66 0 0 0 1.783-.483 3.63 3.63 0 0 0 1.299-1.3l1.858-3.305a2.46 2.46 0 0 0 .222-1.003c0-.372-.111-.706-.297-1.003Zm20.754-.446a5.554 5.554 0 0 1 1.968 1.969c.446.817.706 1.745.706 2.674 0 .928-.26 1.857-.706 2.674l-2.822 4.902a8.687 8.687 0 0 1-3.232 3.12 8.973 8.973 0 0 1-4.382 1.152h-.854c.334 1.597.854 3.454 1.337 5.05.111.41.148.855.074 1.263-.074.446-.223.855-.483 1.189-.223.371-.557.668-.928.891-.372.186-.78.334-1.226.372h-3.306c-.631 0-1.262-.149-1.782-.52a3.159 3.159 0 0 1-1.114-1.486 23.585 23.585 0 0 1-.595-5.348V47.2l-3.342 6.017c-.26.483-.595.854-1.04 1.114-.409.26-.929.372-1.412.372h-4.196c-.483 0-.966-.112-1.412-.372-.445-.26-.817-.594-1.04-1.04-.26-.445-.408-.928-.408-1.411 0-.52.111-1.003.371-1.449L113 30.227c.26-.445.631-.817 1.077-1.077a2.84 2.84 0 0 1 1.448-.408h13.408c.928 0 1.857.26 2.674.705Zm-10.028 10.771 1.745-2.897a.85.85 0 0 0 .149-.52c0-.186-.037-.371-.149-.557a.89.89 0 0 0-.371-.371 1.048 1.048 0 0 0-.557-.149h-1.411c-.075 0-.112 0-.186.037l-.111.112-2.6 4.494c-.037.037-.037.074-.037.148 0 .037 0 .111.037.149.037.074.074.111.111.148.016 0 .037.007.063.014.036.01.079.023.123.023h2.117c.223 0 .446-.074.631-.185.186-.112.334-.26.446-.446Z" clip-rule="evenodd"/><path fill="#fff" d="M76.485 2.836a3.758 3.758 0 0 0-1.382-1.33 3.782 3.782 0 0 0-1.852-.496h-9.39c-.365 0-.704.104-1.017.287a2.033 2.033 0 0 0-.73.756l-8.582 15.364a1.212 1.212 0 0 0-.157.6c.026.209.078.391.183.574.104.182.234.339.417.417.182.104.391.157.6.157a9.053 9.053 0 0 0 4.643-1.252 9.142 9.142 0 0 0 3.365-3.47l.104-.156h6.025a5.848 5.848 0 0 0 3-.835 5.956 5.956 0 0 0 2.191-2.217l2.608-4.695c.313-.574.47-1.2.47-1.852 0-.652-.183-1.278-.496-1.852ZM69.13 7.009l-1.2 2.009a.792.792 0 0 1-.34.313.857.857 0 0 1-.443.104H65.66c-.026 0-.078 0-.104-.026l-.078-.078c-.026-.026-.026-.078-.026-.13 0-.027 0-.079.026-.105l1.852-3.104c.026-.026.052-.078.078-.078.052-.026.078-.052.13-.052h.94c.13 0 .26.052.39.104.105.078.21.157.262.287a.6.6 0 0 1 .104.365c0 .13-.052.261-.104.391ZM97.816 1.819a2.55 2.55 0 0 0-.913-.913A2.411 2.411 0 0 0 95.65.593L84.852.645c-.913 0-1.487.156-2.27.6-.782.443-1.173 1.121-1.616 1.904L74.73 14.026l-.939 1.748a2.407 2.407 0 0 0-.365 1.252c0 .443.104.887.34 1.252.208.39.521.704.912.913.365.208.809.339 1.252.313h10.277c.887 0 1.748-.235 2.53-.679a5.045 5.045 0 0 0 1.852-1.851L96.955 5.73l.835-1.408c.234-.365.339-.809.339-1.252.026-.444-.105-.861-.313-1.252Zm-8.817 4.225c-.339.6-.678 1.174-.99 1.748-.366.626-.731 1.252-1.096 1.904-.313.522-.626 1.07-.94 1.617-.104.183-.234.391-.338.6-.392.652-.757 1.304-1.122 1.93l-.235.392c-.104.13-.183.234-.313.313-.156.078-.313.13-.47.13h-1.173c-.078 0-.13-.026-.209-.078-.13-.052-.235-.209-.182-.365a.776.776 0 0 1 .104-.209c.574-.991 1.148-2.008 1.721-3 .47-.808.94-1.643 1.409-2.452l.209-.39c.104-.157.208-.314.287-.496.208-.313.39-.652.573-.966.13-.208.235-.417.366-.6.052-.104.104-.182.156-.286a.566.566 0 0 1 .287-.261.805.805 0 0 1 .47-.13h1.173c.078 0 .13.025.209.052.052.026.104.104.157.156.078.157.026.26-.053.391ZM120.296.906h-3.939c-.808 0-1.46.391-1.878 1.121l-.6 1.018-2.843 4.72a.36.36 0 0 1-.287.157c-.208 0-.365-.234-.287-.443l.809-2.113c.13-.47-.131-.86-.574-.86h-1.408c-.47 0-.913.208-1.2.6l-1.931 2.608a.236.236 0 0 1-.208.104c-.235.026-.391-.235-.287-.417l1.904-3.548.626-1.252a1.123 1.123 0 0 0-.991-1.643h-3.313a2.4 2.4 0 0 0-2.113 1.278l-.834 1.617-6.365 11.764-.443.783c-.704 1.252.208 2.79 1.617 2.79l2.66.027c2.061 0 2.974-1.044 3.574-1.617l2.791-2.844a.27.27 0 0 1 .469.235l-.313 2.739c-.182 1.434 1.305 1.408 2.113 1.408h2.87a3.491 3.491 0 0 0 3.025-1.721l2.087-3.521c.339-.574.652-1.148.991-1.696l.183-.365c.026-.078.078-.157.13-.235l.783-1.356.443-.757c.131-.234.261-.443.391-.652.105-.208.209-.417.339-.6.261-.443.522-.913.783-1.356l2.348-4.043c.495-.86-.131-1.93-1.122-1.93ZM139.851 1.767a1.36 1.36 0 0 0-.496-.522 1.622 1.622 0 0 0-.678-.235h-12.155c-.313 0-.652.104-.939.261a2.26 2.26 0 0 0-.704.704l-8.086 14.373c-.157.286-.209.626-.209.965 0 .339.104.652.261.939.182.287.417.521.704.704.287.156.626.235.965.26h11.138c.365 0 .704-.104.991-.26.313-.183.548-.444.73-.73l1.487-2.583c.131-.209.183-.47.183-.73a1.738 1.738 0 0 0-.235-.704 1.42 1.42 0 0 0-.548-.496 1.448 1.448 0 0 0-.73-.13h-6.756l.731-1.279h5.06a2.07 2.07 0 0 0 1.017-.287 2.18 2.18 0 0 0 .757-.782l.704-1.252a1.5 1.5 0 0 0 .156-.652c0-.235-.052-.47-.182-.652a1.165 1.165 0 0 0-.47-.47 1.175 1.175 0 0 0-.652-.182h-3.991l.731-1.278h7.799c.443 0 .887-.13 1.252-.34.391-.234.704-.547.913-.912l1.304-2.322c.104-.235.156-.47.156-.704 0-.261-.078-.496-.208-.704ZM157.634 2.836a3.897 3.897 0 0 0-1.382-1.382 3.96 3.96 0 0 0-1.878-.496h-9.416c-.366 0-.705.104-1.018.287a2.105 2.105 0 0 0-.756.756l-7.877 14.19a1.968 1.968 0 0 0 .026 2.008c.156.313.417.548.73.73.313.183.652.262.991.262h2.948c.339 0 .704-.079.991-.261.313-.183.548-.444.73-.783l2.348-4.225v.104c0 1.252.13 2.53.417 3.756.157.417.417.783.783 1.043.365.261.808.366 1.252.366h2.321c.313-.026.6-.13.861-.261.261-.157.496-.365.652-.626.183-.235.287-.522.339-.835.052-.287.026-.6-.052-.887-.339-1.121-.704-2.426-.939-3.547h.6a6.305 6.305 0 0 0 3.078-.809 6.1 6.1 0 0 0 2.269-2.19l1.982-3.444a3.959 3.959 0 0 0 .496-1.878c0-.652-.183-1.304-.496-1.878Zm-7.199 4.147-1.226 2.035a.892.892 0 0 1-.313.313.878.878 0 0 1-.443.13h-1.487c-.052 0-.104-.026-.13-.026-.026-.026-.052-.052-.079-.104-.026-.026-.026-.078-.026-.104 0-.053 0-.079.026-.105l1.826-3.156.079-.078c.052-.026.078-.026.13-.026h.991c.131 0 .261.026.391.104a.624.624 0 0 1 .261.26.73.73 0 0 1 .105.392c0 .13-.026.261-.105.365ZM186.475 1.662a1.425 1.425 0 0 0-.522-.521 1.545 1.545 0 0 0-.678-.183h-4.043c-.365 0-.704.104-1.017.287a2.108 2.108 0 0 0-.757.756l-6.103 10.982a1.277 1.277 0 0 1-.417.417 1.193 1.193 0 0 1-.574.156h-.757a.506.506 0 0 1-.261-.078c-.078-.026-.13-.104-.182-.182a.442.442 0 0 1-.078-.261c0-.104.026-.183.078-.261l5.504-9.703c.104-.235.182-.47.182-.705 0-.26-.078-.495-.209-.704a1.133 1.133 0 0 0-.495-.495 1.314 1.314 0 0 0-.704-.21h-3.913c-.365 0-.73.105-1.043.288-.313.209-.574.47-.731.782l-7.251 12.886a3.212 3.212 0 0 0-.391 1.539c0 .548.13 1.07.417 1.539.261.47.678.86 1.148 1.121.469.261.991.392 1.539.392h8.529c1.07 0 2.139-.287 3.078-.835a6.104 6.104 0 0 0 2.243-2.296l7.408-13.328c.13-.209.183-.444.183-.705 0-.234-.053-.47-.183-.678ZM204.576 2.836a3.758 3.758 0 0 0-1.383-1.33 3.783 3.783 0 0 0-1.852-.496h-9.39c-.365 0-.704.104-1.017.287a2.038 2.038 0 0 0-.731.756l-8.581 15.364a1.216 1.216 0 0 0-.157.6c.026.209.079.391.183.574.104.182.235.339.417.417.183.104.392.157.6.157a9.052 9.052 0 0 0 4.643-1.252 9.143 9.143 0 0 0 3.365-3.47l.104-.156h6.026a5.847 5.847 0 0 0 2.999-.835 5.951 5.951 0 0 0 2.191-2.217l2.609-4.695c.313-.574.469-1.2.469-1.852 0-.652-.182-1.278-.495-1.852Zm-7.356 4.173-1.2 2.009a.788.788 0 0 1-.339.313.856.856 0 0 1-.443.104h-1.487c-.026 0-.078 0-.104-.026a5.798 5.798 0 0 1-.079-.078c-.026-.026-.026-.078-.026-.13 0-.027 0-.079.026-.105l1.852-3.104c.026-.026.052-.078.078-.078.053-.026.079-.052.131-.052h.939c.13 0 .261.052.391.104.105.078.209.157.261.287a.6.6 0 0 1 .104.365c0 .13-.052.261-.104.391ZM235.008.906h-3.939c-.808 0-1.46.391-1.878 1.121l-.6 1.018-2.843 4.72a.36.36 0 0 1-.287.157c-.208 0-.365-.234-.287-.443l.809-2.113c.13-.47-.13-.86-.574-.86h-1.408c-.47 0-.913.208-1.2.6l-1.93 2.608a.239.239 0 0 1-.209.104c-.235.026-.391-.235-.287-.417l1.904-3.548.626-1.252a1.122 1.122 0 0 0-.991-1.643h-3.313a2.4 2.4 0 0 0-2.113 1.278l-.834 1.617-6.365 11.764-.443.783c-.704 1.252.209 2.79 1.617 2.79l2.661.027c2.06 0 2.973-1.044 3.573-1.617l2.791-2.844a.27.27 0 0 1 .47.235l-.313 2.739c-.183 1.434 1.304 1.408 2.112 1.408h2.87a3.491 3.491 0 0 0 3.025-1.721l2.087-3.521c.339-.574.652-1.148.991-1.696l.183-.365c.026-.078.078-.157.13-.235l.783-1.356.443-.757c.131-.234.261-.443.392-.652.104-.208.208-.417.339-.6.26-.443.521-.913.782-1.356l2.348-4.043c.495-.86-.131-1.93-1.122-1.93ZM246.164.932h-4.226c-.939 0-1.826.522-2.321 1.356L237.4 6.201c-.339.574-.653 1.121-.966 1.67l-.156.286c-.052.104-.104.235-.183.34l-.782 1.356-.444.756c-.13.235-.26.443-.391.678-.104.183-.208.391-.339.574-.261.444-.522.913-.782 1.356l-2.896 4.982c-.234.444.079.992.574.992h3.652l1.93-.026c.574 0 1.07-.313 1.356-.81l.966-1.616 6.155-10.825.783-1.383 1.174-2.06c.391-.678-.105-1.54-.887-1.54ZM266.137 1.688a1.495 1.495 0 0 0-.496-.495 1.617 1.617 0 0 0-.678-.235H250.747c-1.226.026-1.773.86-1.773.86l-1.852 3.34c-.365.625.104 1.408.808 1.408h4.409c-.261.47-.548.939-.809 1.435l-.157.26c-.052.13-.104.235-.182.34l-.783 1.356-.443.756c-.13.209-.235.418-.365.652-.105.183-.235.392-.339.574l-.783 1.33-2.869 4.957c-.235.443.078.99.574.99h3.625l1.905-.025a1.65 1.65 0 0 0 1.356-.809l.939-1.617 5.791-10.199h3.051c.392 0 .809-.13 1.148-.313.365-.235.678-.548.887-.913l1.304-2.27c.104-.208.131-.443.131-.677 0-.261-.079-.496-.183-.705ZM285.195.932h-4.2c-.965 0-1.852.522-2.321 1.356l-2.244 3.913-1.017 1.8c-.156.313-.496.495-.835.495h-.965c-.287.026-.469-.313-.313-.548l1.148-2.034.782-1.383 1.174-2.06c.391-.678-.104-1.54-.887-1.54h-4.225c-.965 0-1.826.523-2.322 1.357l-2.217 3.913c-.339.574-.652 1.121-.965 1.67-.052.104-.104.208-.156.286-.053.13-.105.235-.183.34l-.783 1.356-.443.756-.391.678c-.105.183-.209.391-.339.574-.261.444-.522.913-.783 1.356l-2.895 5.008c-.235.418.078.966.574.966h3.651l1.931-.026a1.59 1.59 0 0 0 1.356-.783l.965-1.643 2.556-4.513a.834.834 0 0 1 .731-.417h.965c.313 0 .495.313.339.574-.157.287-.313.548-.496.834l-2.869 5.008c-.261.418.052.966.548.966h3.678l1.904-.026c.574 0 1.095-.313 1.382-.783l.939-1.643 6.156-10.825.783-1.383 1.173-2.06c.392-.678-.104-1.54-.886-1.54Z"/><defs><linearGradient id="a" x1="-4.571" x2="179.52" y1="22.681" y2="213.497" gradientUnits="userSpaceOnUse"><stop stop-color="#26FF55"/><stop offset=".524" stop-color="#268AFF"/><stop offset="1" stop-color="#FC55FF"/></linearGradient></defs></svg>