<svg xmlns="http://www.w3.org/2000/svg" xmlns:xlink="http://www.w3.org/1999/xlink" width="1080" height="1080" style="width:100%;height:100%;transform:translate3d(0,0,0);content-visibility:visible"><defs><clipPath id="s"><path d="M0 0h1080v1080H0z"/></clipPath><clipPath id="t"><path d="M0 0h1080v1080H0z"/></clipPath><clipPath id="B"><path d="M0 0h1080v1080H0z"/></clipPath><clipPath id="l"><path fill="#fff" d="m-320.68 207.98.2 14.23s5.74 2.45 16.98 3.13c8.49.5 17.5-1.58 17.5-1.58l.04-14.2s-6.25-.77-16.73-1.04c-10.05-.26-17.99-.54-17.99-.54"/></clipPath><clipPath id="m"><path fill="#fff" d="m-320.68 207.98.2 14.23s5.74 2.45 16.98 3.13c8.49.5 17.5-1.58 17.5-1.58l.04-14.2s-6.25-.77-16.73-1.04c-10.05-.26-17.99-.54-17.99-.54"/></clipPath><clipPath id="n"><path d="M0 0h1080v1080H0z"/></clipPath><clipPath id="K"><path fill="#fff" d="m-320.68 207.98.2 14.23s5.74 2.45 16.98 3.13c8.49.5 17.5-1.58 17.5-1.58l.04-14.2s-6.25-.77-16.73-1.04c-10.05-.26-17.99-.54-17.99-.54"/></clipPath><clipPath id="o"><path d="M0 0h1080v1080H0z"/></clipPath><clipPath id="I"><path fill="#fff" d="m-320.68 207.98.2 14.23s5.74 2.45 16.98 3.13c8.49.5 17.5-1.58 17.5-1.58l.04-14.2s-6.25-.77-16.73-1.04c-10.05-.26-17.99-.54-17.99-.54"/></clipPath><clipPath id="q"><path d="M0 0h1080v1080H0z"/></clipPath><clipPath id="r"><path d="M0 0h1080v1080H0z"/></clipPath><clipPath id="C"><path d="M0 0h1080v1080H0z"/></clipPath><clipPath id="A"><path d="M0 0h182v187H0z"/></clipPath><clipPath id="z"><path d="M0 0h182v187H0z"/></clipPath><clipPath id="w"><path d="M0 0h182v187H0z"/></clipPath><mask id="M" mask-type="alpha"><use xlink:href="#a"/></mask><mask id="L" mask-type="alpha"><use xlink:href="#b"/></mask><mask id="J" mask-type="alpha"><use xlink:href="#c"/></mask><mask id="H" mask-type="alpha"><use xlink:href="#d"/></mask><mask id="p"><path fill="#fff" d="M-540-540H540V540H-540z"/><path d="m-311.53 285.18 31.84 37.84 26.72-44.72-58.56 6.88"/></mask><mask id="G" mask-type="alpha"><use xlink:href="#e"/></mask><mask id="F"><path fill="#fff" d="M-540-540H540V540H-540z"/><path d="m-311.53 285.18 31.84 37.84 26.72-44.72-58.56 6.88"/></mask><mask id="E" mask-type="alpha"><use xlink:href="#f"/></mask><mask id="D" mask-type="alpha"><use xlink:href="#g"/></mask><mask id="y" mask-type="alpha"><use xlink:href="#h"/></mask><mask id="x" mask-type="alpha"><use xlink:href="#i"/></mask><mask id="v" mask-type="alpha"><use xlink:href="#j"/></mask><mask id="u" mask-type="alpha"><use xlink:href="#k"/></mask><g id="a" clip-path="url(#l)" style="display:block" transform="scale(-1 1) rotate(6 -5440.5 784.81)"><path fill="#FFF" d="M-287.96 213.82v11.81a13.87 13.87 0 0 1-27.72 0v-11.81a13.87 13.87 0 0 1 27.72 0z"/></g><g id="b" clip-path="url(#m)" style="display:block" transform="rotate(-6 5157.87 -4658.86)"><path fill="#FFF" d="M-287.96 213.82v11.81a13.87 13.87 0 0 1-27.72 0v-11.81a13.87 13.87 0 0 1 27.72 0z"/></g><g id="c" clip-path="url(#n)" style="display:block"><path fill-opacity="0" stroke="#DA8E74" stroke-linecap="round" stroke-linejoin="round" stroke-width="125" d="M-298 235c7 29.5 11.5 88.5 9 112.5" style="display:block" transform="translate(540 540)"/></g><g id="d" clip-path="url(#o)" style="display:block"><path fill-opacity="0" stroke="#DA8E74" stroke-linecap="round" stroke-linejoin="round" stroke-width="125" d="M-298 235c7 29.5 11.5 88.5 9 112.5" style="display:block" transform="translate(540 540)"/></g><g id="e" mask="url(#p)" style="display:block" transform="translate(540 540)"><path fill-opacity="0" stroke="#A56644" stroke-width="18" d="M-190.5 464V353s-32-10-84.5-9.5-97 18.5-97 18.5l3.5 102h178z"/></g><g id="f" clip-path="url(#q)" style="display:block"><path fill-opacity="0" stroke="#DA8E74" stroke-linecap="round" stroke-linejoin="round" stroke-width="125" d="M-298 235c7 29.5 11.5 88.5 9 112.5" style="display:block" transform="translate(540 540)"/></g><g id="g" clip-path="url(#r)" style="display:block"><path fill-opacity="0" stroke="#DA8E74" stroke-linecap="round" stroke-linejoin="round" stroke-width="125" d="M-298 235c7 29.5 11.5 88.5 9 112.5" style="display:block" transform="translate(540 540)"/></g><g id="k" style="display:block"><path fill="#FDE371" d="M633 788.1v53.8a5 5 0 0 1-5 5H435a5 5 0 0 1-5-5v-53.8a5 5 0 0 1 5-5h193a5 5 0 0 1 5 5z"/><path fill-opacity="0" stroke="#F8C55A" stroke-width="10" d="M633 788.1v53.8a5 5 0 0 1-5 5H435a5 5 0 0 1-5-5v-53.8a5 5 0 0 1 5-5h193a5 5 0 0 1 5 5z"/></g><path id="h" fill="#FFF" d="M28.88 0c0 8.07-6.56 14.63-14.63 14.63h-28.5a14.63 14.63 0 0 1 0-29.25h28.5c8.07 0 14.63 6.55 14.63 14.62z" style="display:block" transform="translate(91 105.38)"/><path id="i" fill="#1EB0F6" d="M0-65.5c35.25.23 60.07 29.63 60.5 58.64C60.76 9.5 45.5 10 45.5 10h-91S-61 9.87-60.78-8.04C-60.47-32.37-38.38-65.75 0-65.5z" style="display:block" transform="translate(91.14 121.25)"/><path id="j" fill="#FDE371" d="M97-26.9v53.8H-97v-53.8H97z" style="display:block" transform="translate(531.5 815.5)"/></defs><g clip-path="url(#s)"><g clip-path="url(#t)" style="display:block"><g style="display:block"><path fill="#FFF" d="M721 157.27v565.46c0 20.98-17.03 38-38 38H377c-20.97 0-38-17.02-38-38V157.27c0-20.98 17.03-38 38-38h306c20.97 0 38 17.02 38 38z"/><path fill="none" stroke="#F3C35B" stroke-linecap="round" stroke-linejoin="round" stroke-width="15" d="M721 157.27v565.46c0 20.98-17.03 38-38 38H377c-20.97 0-38-17.02-38-38V157.27c0-20.98 17.03-38 38-38h306c20.97 0 38 17.02 38 38z"/><path fill="#FFF" d="M390 197h278.5"/><path fill="none" stroke="#E5E5E5" stroke-linecap="round" stroke-linejoin="round" stroke-width="26" d="M390 197h278.5"/><path fill="#FFF" d="M390 197h80.76"/><path fill="none" stroke="#89E219" stroke-linecap="round" stroke-linejoin="round" stroke-width="26" d="M390 197h80.76"/></g><g mask="url(#u)" style="display:block"><path fill="#FCE272" d="m763.5 766.75-107 109.75-44.5-.25L719 766.5l44.5.25z"/></g><g mask="url(#v)" style="display:block"><path fill="#FEF18F" d="m763.5 766.75-107 109.75-44.5-.25L719 766.5l44.5.25z"/></g><g style="display:block"><path fill="#FFF" d="m594.27 815.42.04.04.05.04-.05.04-.04.04-.04-.04-.04-.04.04-.04.04-.04z"/><path fill="none" stroke="#FFF" stroke-linecap="round" stroke-linejoin="round" stroke-width=".01" d="m594.27 815.42.04.04.05.04-.05.04-.04.04-.04-.04-.04-.04.04-.04.04-.04z"/></g><g style="display:block"><path fill="#FDE371" d="M633 788.1v53.8a5 5 0 0 1-5 5H435a5 5 0 0 1-5-5v-53.8a5 5 0 0 1 5-5h193a5 5 0 0 1 5 5z"/><path fill="none" stroke="#F8C55A" stroke-width="10" d="M633 788.1v53.8a5 5 0 0 1-5 5H435a5 5 0 0 1-5-5v-53.8a5 5 0 0 1 5-5h193a5 5 0 0 1 5 5z"/></g><path fill="#FFF" d="M546.27 829.23c0 2.55 1.6 4.1 3.87 4.1 2.22 0 3.88-1.55 3.88-4.1v-29.52c0-2.82-1.66-4.7-4.32-4.7a8.1 8.1 0 0 0-4.7 1.71l-5.93 4.1a3.96 3.96 0 0 0-1.94 3.27 3.2 3.2 0 0 0 3.21 3.26c.78 0 1.6-.22 2.33-.71l3.48-2.39h.12v24.98zm-31.97-12.51.77-5.65h5.82l-.78 5.65h-5.81zm-7.81 13.07c-.28 2.1 1.05 3.54 2.93 3.54 1.61 0 2.77-1.05 3-2.77l1.1-8.36h5.87l-1.05 7.59c-.28 2.1 1.05 3.54 2.94 3.54 1.6 0 2.77-1.05 2.99-2.77l1.1-8.36h2.39c1.94 0 3.04-1.1 3.04-2.77 0-1.66-1.1-2.71-3.04-2.71h-1.6l.77-5.65h2.27c1.94 0 3.04-1.11 3.04-2.77 0-1.67-1.1-2.72-3.04-2.72h-1.55l1-7.03c.27-2.1-1.06-3.55-2.94-3.55-1.6 0-2.77 1.06-3 2.77l-1.1 7.81h-5.82l1-7.03c.28-2.1-1.05-3.55-2.94-3.55-1.6 0-2.76 1.06-2.99 2.77l-1.1 7.81h-2.22c-1.94 0-3.05 1.05-3.05 2.72 0 1.66 1.11 2.77 3.05 2.77h1.5l-.78 5.65h-2.16c-1.94 0-3.05 1.05-3.05 2.71s1.11 2.77 3.05 2.77h1.44l-1.05 7.59z" style="display:block"/><g fill="none" stroke-linejoin="round" stroke-width="25" style="display:block"><path stroke="#FDE371" stroke-linecap="round" d="M718.75 800.75S678.16 904.79 532.17 905c-146 .21-181.67-104.5-181.67-104.5"/><path stroke="#EB6C6C" d="M707.96 820.38c-19.9 30.16-70.35 84.47-175.8 84.62-105.11.15-153.04-54.09-171.63-84.48"/></g><g style="display:block"><path fill="#FEE472" d="M800.25 940.75a13 13 0 0 1-13 13h-65a13 13 0 0 1 0-26h65a13 13 0 0 1 13 13z"/><path fill="#FEE472" d="M767.25 809.75v122h-25v-122h25z"/><path fill="#FEE472" d="M775.75 807.75a7.5 7.5 0 0 1-7.5 7.5h-27a7.5 7.5 0 0 1 0-15h27a7.5 7.5 0 0 1 7.5 7.5z"/><path fill="#FEE472" d="M771.75 788.75a17 17 0 0 1-34 0 17 17 0 0 1 34 0z"/><path fill="#F8C55A" d="M800.25 940.75a13 13 0 0 1-13 13h-65a13 13 0 0 1-13-13c16.19.06 72.5.06 91 0zm-33-125.25v9.38h-25v-9.38h25zm4.5-26.75c0 4.23-1.63 8.34-4.18 11.31-7.57.13-18.88.19-25.48.03a16.9 16.9 0 0 1-4.34-11.34c-.06.06 4 7.5 17.5 7.63 12.19.1 16.63-7.63 16.5-7.63z"/></g><g style="display:block"><path fill="#FEE472" d="M359.75 940.75a13 13 0 0 1-13 13h-65a13 13 0 0 1 0-26h65a13 13 0 0 1 13 13z"/><path fill="#FEE472" d="M326.75 809.75v122h-25v-122h25z"/><path fill="#FEE472" d="M335.25 807.75a7.5 7.5 0 0 1-7.5 7.5h-27a7.5 7.5 0 0 1 0-15h27a7.5 7.5 0 0 1 7.5 7.5z"/><path fill="#FEE472" d="M331.25 788.75a17 17 0 0 1-34 0 17 17 0 0 1 34 0z"/><path fill="#F8C55A" d="M359.75 940.75a13 13 0 0 1-13 13h-65a13 13 0 0 1-13-13c16.19.06 72.5.06 91 0zm-33-125.25v9.38h-25v-9.38h25zm4.5-26.75c0 4.23-1.63 8.34-4.18 11.31-7.57.13-18.88.19-25.48.03a16.9 16.9 0 0 1-4.34-11.34c-.06.06 4 7.5 17.5 7.63 12.19.1 16.63-7.63 16.5-7.63z"/></g><g clip-path="url(#w)" style="display:block" transform="translate(352.5 296.75)"><path fill="#F1F1F1" d="M77.75-57.5v115a20 20 0 0 1-20 20h-115.5a20 20 0 0 1-20-20v-115a20 20 0 0 1 20-20h115.5a20 20 0 0 1 20 20z" style="display:block" transform="translate(91 93.5)"/><path fill="#1EB0F6" d="M0-65.5c35.25.23 60.07 29.63 60.5 58.64C60.76 9.5 45.5 10 45.5 10h-91S-61 9.87-60.78-8.04C-60.47-32.37-38.38-65.75 0-65.5z" style="display:block" transform="translate(91.14 121.25)"/><path fill="#FFF" d="M28.88 0c0 8.07-6.56 14.63-14.63 14.63h-28.5a14.63 14.63 0 0 1 0-29.25h28.5c8.07 0 14.63 6.55 14.63 14.62z" style="display:block" transform="translate(91 105.38)"/><g style="display:block"><path fill="#1EB0F6" d="M44.14 56.63 48 82.25l15.75-12.37-19.62-13.25z"/><path fill="none" stroke="#1EB0F6" stroke-linecap="round" stroke-linejoin="round" stroke-width="13" d="M44.14 56.63 48 82.25l15.75-12.37-19.62-13.25z"/><path fill="#1EB0F6" d="M137.89 56.63 134 82.25l-15.75-12.37 19.63-13.25z"/><path fill="none" stroke="#1EB0F6" stroke-linecap="round" stroke-linejoin="round" stroke-width="13" d="M137.89 56.63 134 82.25l-15.75-12.37 19.63-13.25z"/></g><g mask="url(#x)" style="display:block"><path fill="none" stroke="#0498DE" stroke-linecap="round" stroke-linejoin="round" stroke-width="14" d="M44.39 112H20.5V94.25h31M137.6 112h23.88V94.25h-31"/></g><g mask="url(#y)" style="display:block"><path fill="none" stroke="#FFC5DF" stroke-linecap="round" stroke-linejoin="round" stroke-width="12" d="M91 84v11.5"/></g></g><g clip-path="url(#z)" style="display:block" transform="translate(352.5 468.25)"><path fill="#F1F1F1" d="M77.75-57.5v115a20 20 0 0 1-20 20h-115.5a20 20 0 0 1-20-20v-115a20 20 0 0 1 20-20h115.5a20 20 0 0 1 20 20z" style="display:block" transform="translate(91 93.5)"/><path fill="#F48F00" d="M7.14-56.01c16.43.1 12.31 7 20.41 10.9 8.1 3.9 13.33 1.42 20.1 8.45 6.64 6.9 2.95 11.63 4.95 20.4 2 8.75 8.83 6.78 8.75 20.37-.08 14.51-6.76 14.12-11.69 21.64-5.09 7.77.28 15.47-12.79 21.77-2.84 1.36-7.1 3.19-12.33 3.16-13.9-.09-30.76-.02-44.87-.15-5.76-.05-10.49-1.97-13.54-3.44-13.07-6.3-7.76-15.17-13.36-22.2-5.6-7.03-12.2-9.23-10.84-22.63 1.16-11.38 7.32-9.34 9.32-18.1 2-8.76-3.05-11.06 3.67-20.1 7.08-9.54 11.86-5.27 19.96-9.17 7.8-3.76 5.82-10.33 19.13-10.93.5-.03 12.6.03 13.13.03z" style="display:block" transform="translate(89.37 95.94)"/><path fill="#FFD2A6" d="m28.38-7.13.01 21.83C28.4 30.37 15.67 35.5 0 35.5s-28.36-5.13-28.36-20.8l-.02-21.82a28.38 28.38 0 0 1 56.75 0z" style="display:block" transform="translate(91 93.5)"/><path fill="#FFD2A6" d="M61.23 85.6a9.57 9.57 0 1 1 0 19.14 9.57 9.57 0 0 1 0-19.13zm58.29 0a9.57 9.57 0 1 1-.01 19.14 9.57 9.57 0 0 1 0-19.13z" style="display:block"/><path fill="#F48F00" d="M16.4 24a29.07 29.07 0 0 1-43.08-35.58c4.48-10.3 50.75 30.34 43.1 35.58z" style="display:block" transform="translate(121.3 56.96)"/></g><path fill="#F1F1F1" d="M77.75-57.5v115a20 20 0 0 1-20 20h-115.5a20 20 0 0 1-20-20v-115a20 20 0 0 1 20-20h115.5a20 20 0 0 1 20 20z" style="display:block" transform="translate(617 390.25)"/><g clip-path="url(#A)" style="display:block" transform="translate(526 468.25)"><path fill="#F1F1F1" d="M77.75-57.5v115a20 20 0 0 1-20 20h-115.5a20 20 0 0 1-20-20v-115a20 20 0 0 1 20-20h115.5a20 20 0 0 1 20 20z" style="display:block" transform="translate(91 93.5)"/><path fill="#E4976D" d="M36.38-23v46c0 11.04-8.97 20-20 20h-32.75a20 20 0 0 1-20-20v-46a20 20 0 0 1 20-20h32.75c11.03 0 20 8.96 20 20z" style="display:block" transform="translate(92.63 96.63)"/><path fill="#E4976D" d="M56.44 91a9.57 9.57 0 1 1-.01 19.13 9.57 9.57 0 0 1 0-19.13zm72 0a9.57 9.57 0 1 1-.01 19.13 9.57 9.57 0 0 1 0-19.13z" style="display:block"/><g fill="#824E33" style="display:block"><path d="M132.5 64.5v26.75c-.06 2.38-4.4 2-4.35.12.22-11.06 2.16-25.12-7.84-24.75H72.75c-11.05 0-20-2.12-20-2.12a20 20 0 0 1 20-20h39.75a20 20 0 0 1 20 20z"/><path d="M69.19 36a21.57 21.57 0 0 1 0 43.13 21.57 21.57 0 0 1 0-43.13z"/><path d="M59.07 96.6a17.44 17.44 0 0 1 0-34.58c-.04.1 0 34.6 0 34.59z"/></g><path fill="none" stroke="#824E33" stroke-linecap="round" stroke-linejoin="round" stroke-width="15" d="m-10.75 21.47 13-6.34 13 6.34" style="display:block" transform="translate(91 93.5)"/><g style="display:block"><path fill="#CC7D52" d="M93.25 89.13s-12 17.18 0 17.18 0-17.19 0-17.19z"/><path fill="none" stroke="#CC7D52" stroke-linecap="round" stroke-linejoin="round" stroke-width="5" d="M93.25 89.13s-12 17.18 0 17.18 0-17.19 0-17.19z"/></g></g><g clip-path="url(#B)" style="display:block" transform="translate(36)"><g fill="#3D3D3D" style="display:block"><path d="M183.39 725.6a28.3 28.3 0 0 1 32.35 23.5 28.3 28.3 0 0 1-23.5 32.35 28.3 28.3 0 0 1-32.36-23.5 28.3 28.3 0 0 1 23.5-32.36zm91.19-21.1a28.3 28.3 0 0 1 32.36 23.5 28.3 28.3 0 0 1-23.5 32.35 28.3 28.3 0 0 1-32.36-23.5 28.3 28.3 0 0 1 23.5-32.36z"/><path d="M210.37 673.12a37.3 37.3 0 0 1 42.65 30.99 37.3 37.3 0 0 1-30.99 42.65 37.3 37.3 0 0 1-42.65-30.99 37.3 37.3 0 0 1 30.99-42.65z"/><path d="M249.26 692.63s-27.17 1.01-24.86 25.2c2.31 24.19 48.49 21.68 52.7 19.5 4.2-2.19 18.03-36.65-9.04-31.48-15.48 2.96-18.8-13.22-18.8-13.22z"/></g><path fill="none" stroke="#DA8E74" stroke-linecap="round" stroke-linejoin="round" stroke-width="12" d="m-183.75 271.5 4.52-13.29" style="display:block" transform="rotate(-59 573.52 69.08)"/><g style="display:block"><path fill="#DA8E74" d="m351.12 808.93 45.78-.07a7.43 7.43 0 0 1 0 14.86c-.03 0-35.73 9.4-35.78 9.4-6.67 0-12.08-5.4-12.08-12.08 0-6.67-4.59-12.11 2.08-12.11z"/><path fill="none" d="m351.12 808.93 45.78-.07a7.43 7.43 0 0 1 0 14.86c-.03 0-35.73 9.4-35.78 9.4-6.67 0-12.08-5.4-12.08-12.08 0-6.67-4.59-12.11 2.08-12.11z"/></g><path fill="none" stroke="#FFAADE" stroke-width="30" d="M-241 317.75c19.5 3.5 55 9.5 56 8.5s9.25-41.25 9.25-41.25" style="display:block" transform="translate(540 540)"/><g clip-path="url(#C)" style="display:block"><path fill="none" stroke="#DA8E74" stroke-linecap="round" stroke-linejoin="round" stroke-width="122.6" d="M-298 235c7 29.5 11.5 88.5 9 112.5" style="display:block" transform="translate(540 540)"/></g><g fill="#3D3D3D" mask="url(#D)" style="display:block"><path d="m159.61 769.19 3.36 27.38a20.01 20.01 0 0 1-17.4 22.29l-30.98 3.8a20.01 20.01 0 0 1-22.3-17.41l-3.35-27.38a20.01 20.01 0 0 1 17.41-22.3l30.97-3.8a20.01 20.01 0 0 1 22.3 17.42z"/><path d="m200.64 735.63 3.36 27.38a20.01 20.01 0 0 1-17.42 22.3l-30.97 3.8a20.01 20.01 0 0 1-22.29-17.42l-3.36-27.38a20.01 20.01 0 0 1 17.41-22.29l30.98-3.8a20.01 20.01 0 0 1 22.29 17.41zm176.09-21.62 3.37 27.38a20.01 20.01 0 0 1-17.42 22.29l-30.97 3.8a20.01 20.01 0 0 1-22.29-17.41l-3.36-27.38a20.01 20.01 0 0 1 17.41-22.29l30.98-3.8a20.01 20.01 0 0 1 22.28 17.4z"/></g><g mask="url(#E)" style="display:block"><g mask="url(#F)" transform="translate(540 540)"><path fill="#FFAADE" d="M-282 300.5c-52.5.5-97 18.5-97 18.5l3.5 102h178V310s-32-10-84.5-9.5z"/><path fill="#2BE69C" d="M-190.5 464V353s-32-10-84.5-9.5-97 18.5-97 18.5l3.5 102h178z"/><path fill="none" stroke="#A56644" stroke-width="16.1" d="M-190.5 464V353s-32-10-84.5-9.5-97 18.5-97 18.5l3.5 102h178z"/></g></g><g mask="url(#G)" style="display:block"><path fill="#3D3D3D" d="m224 872 4.5 29.75"/><path fill="none" stroke="#2BE69C" stroke-width="13" d="m224 872 4.5 29.75"/><path fill="#3D3D3D" d="m291.45 869.36-1.77 30.03"/><path fill="none" stroke="#2BE69C" stroke-width="13" d="m291.45 869.36-1.77 30.03"/></g><path fill="#F1F1F1" d="M195.77 904.11z" style="display:block"/><path fill="none" stroke="#FFAADE" stroke-linecap="round" stroke-linejoin="round" stroke-width="30" d="m-345.25 329.75-39.5 16.75 36 19" style="display:block" transform="translate(540 535)"/><g style="display:block"><path fill="#3D3D3D" d="M188.55 893.22c3.45-7.72 11.65-.66 11.65-.66"/><path fill="none" stroke="#DA8E74" stroke-linecap="round" stroke-width="12" d="M188.55 893.22c3.45-7.72 11.65-.66 11.65-.66"/></g><path fill="#DA8E74" d="M0-17.86a17.87 17.87 0 1 1-.02 35.74A17.87 17.87 0 0 1 0-17.86z" style="display:block" transform="translate(190.86 899.86)"/><path fill="none" stroke="#1CB0F6" stroke-linecap="round" stroke-linejoin="round" stroke-width="19" d="M207.06 968.13h31.25m39.44-.13H309" style="display:block"/><path fill="#DA8E74" d="M0-10a10 10 0 1 1-.01 20.01A10 10 0 0 1 0-10z" style="display:block" transform="translate(179.71 788.74)"/><g mask="url(#H)" style="display:block"><g clip-path="url(#I)" transform="rotate(-6 5157.87 -4658.86)"><path fill="#FFF" d="M-287.96 213.82v11.81a13.87 13.87 0 0 1-27.72 0v-11.81a13.87 13.87 0 0 1 27.72 0z"/></g></g><g mask="url(#J)" style="display:block"><g clip-path="url(#K)" transform="scale(-1 1) rotate(6 -5440.5 784.81)"><path fill="#FFF" d="M-287.96 213.82v11.81a13.87 13.87 0 0 1-27.72 0v-11.81a13.87 13.87 0 0 1 27.72 0z"/></g></g><g mask="url(#L)" style="display:block"><path fill="#3D3D3D" d="m233.64 752.52.47 5.4a5.67 5.67 0 0 1-11.29.99l-.47-5.4a5.67 5.67 0 0 1 11.29-.99z"/></g><g mask="url(#M)" style="display:block"><path fill="#3D3D3D" d="m267.01 749.6.47 5.4a5.67 5.67 0 0 1-11.29.99l-.47-5.4a5.67 5.67 0 0 1 11.29-.99z"/></g><path fill="none" stroke="#3D3D3D" stroke-linecap="round" stroke-linejoin="round" stroke-width="32" d="m-304.05 264.3 24.3-15.8 26.8 11.95" style="display:block" transform="rotate(-10 3078.22 -2567.38)"/><path fill="#DA8E74" d="M0-8.24a8.25 8.25 0 1 1 0 16.5 8.25 8.25 0 0 1 0-16.5z" style="display:block" transform="translate(258.24 776.74)"/><path fill="none" stroke="#3D3D3D" stroke-linecap="round" stroke-width="14" d="M-318.5 190.5s2.75-3.75 9-4.75a18.55 18.55 0 0 1 11.5 1.75" style="display:block" transform="translate(540 540)"/><path fill="none" stroke="#3D3D3D" stroke-linecap="round" stroke-width="14" d="M-318.5 190.5s4.25 1.25 10.5.25c6.7-1.07 10-3.25 10-3.25" style="display:block" transform="rotate(13 -2447.75 3005.66)"/></g></g><g style="display:block"><path fill="#57CC02" d="M563.76 352.64c0-12.53 13.28-20.75 24.83-15.9 10.77 4.53 22.3 8.68 28.4 8.68 6.12 0 17.65-4.15 28.42-8.67 11.56-4.86 24.83 3.36 24.83 15.89v39.3a53.24 53.24 0 0 1-106.48 0v-39.3z"/><path fill="#88E118" d="M605.5 360.28c5.85 5.95 16.16 5.95 22.67 0 6.5-5.94-.98 34.61-.98 34.5 0-.04-3.48-.05-10.44-.03l-10.09.04c-4.67-26.97-5.06-38.47-1.16-34.5z"/><path fill="#8EDF00" d="m642.01 344.98-15.77 17.56c-.85.94-.53 2.43.62 2.94a14.2 14.2 0 0 0 16.31-3.56A14.28 14.28 0 0 0 645 345.3a1.85 1.85 0 0 0-2.99-.31z"/><path fill="#8EDF00" d="m651.2 349.16-15.77 17.57c-.85.94-.54 2.43.62 2.94a14.2 14.2 0 0 0 16.3-3.56 14.28 14.28 0 0 0 1.84-16.63 1.86 1.86 0 0 0-3-.32z"/><path fill="#88E118" d="m591.88 344.93 15.3 17.19c.81.92.5 2.36-.64 2.85a13.93 13.93 0 0 1-15.9-3.6 13.8 13.8 0 0 1-1.68-16.17 1.82 1.82 0 0 1 2.92-.27z"/><path fill="#88E118" d="m582.53 349.18 14.38 16.17a1.7 1.7 0 0 1-.6 2.69 13.11 13.11 0 0 1-14.96-3.4 13 13 0 0 1-1.57-15.2 1.7 1.7 0 0 1 2.75-.26z"/><path fill="#88E118" d="M569.03 375.44a21.36 21.36 0 0 1 42.7 0v10.52a21.36 21.36 0 1 1-42.7 0v-10.52zm52.92 0a21.36 21.36 0 0 1 42.72 0v10.52a21.36 21.36 0 0 1-42.72 0v-10.52z"/><path fill="#FFF" d="M642.69 361.51c8.2 0 14.86 6.65 14.86 14.86v8.36a14.86 14.86 0 1 1-29.72 0v-8.36c0-8.2 6.66-14.86 14.86-14.86zm-51.69 0c8.2 0 14.86 6.65 14.86 14.86v8.36a14.86 14.86 0 0 1-29.71 0v-8.36c0-8.2 6.65-14.86 14.85-14.86z"/><path fill="#F49000" d="M616.85 386.27a7.27 7.27 0 0 1 7.27 7.28v2.47a7.27 7.27 0 1 1-14.55 0v-2.47a7.27 7.27 0 0 1 7.28-7.28z"/><path fill="#FFC200" d="M627.32 394.33a.6.6 0 0 1-.48.72l-9.87 1.75-9.87-1.75a.6.6 0 0 1-.49-.72 10.68 10.68 0 0 1 20.7 0z"/><path fill="none" stroke="#FFDE00" stroke-linecap="round" stroke-linejoin="round" stroke-width="3.1" d="M614.81 389.19c.7-.3 2.6-.52 4.03 0"/><path fill="#4A4A4A" d="M631.24 378.54a5.57 5.57 0 0 0 4.84-8.34 6.95 6.95 0 0 1 9.09 6.63v7.43a6.96 6.96 0 0 1-13.93 0v-5.72zm-42.71 0a5.57 5.57 0 0 0 4.84-8.34 6.95 6.95 0 0 1 9.09 6.63v7.43a6.96 6.96 0 0 1-13.93 0v-5.72z"/><path fill="#89E219" d="M575.16 386.78s-.52 16.8 12.26 16.8c6.69 0 13.75-1.66 16.53-4.44-27.45 9.36-28.79-12.36-28.79-12.36z"/><path fill="none" d="M575.16 386.78s-.52 16.8 12.26 16.8c6.69 0 13.75-1.66 16.53-4.44-27.45 9.36-28.79-12.36-28.79-12.36z"/><path fill="#89E219" d="M658.84 386.78s-1.84 16.8-12.14 16.8c-6.63 0-13.62-1.66-16.37-4.44 25.67 9.36 28.51-12.36 28.51-12.36z"/><path fill="none" d="M658.84 386.78s-1.84 16.8-12.14 16.8c-6.63 0-13.62-1.66-16.37-4.44 25.67 9.36 28.51-12.36 28.51-12.36z"/></g></g></svg>