<svg xmlns="http://www.w3.org/2000/svg" xmlns:xlink="http://www.w3.org/1999/xlink" width="1080" height="1080" style="width:100%;height:100%;transform:translate3d(0,0,0);content-visibility:visible"><defs><mask id="Q" mask-type="alpha"><use xlink:href="#a"/></mask><mask id="P" mask-type="alpha"><use xlink:href="#b"/></mask><mask id="O" mask-type="alpha"><g filter="url(#c)"><use xlink:href="#d"/></g></mask><mask id="J" mask-type="alpha"><use xlink:href="#e"/></mask><mask id="I" mask-type="alpha"><use xlink:href="#f"/></mask><mask id="G" mask-type="alpha"><use xlink:href="#g"/></mask><mask id="C" mask-type="alpha"><use xlink:href="#h"/></mask><mask id="A" mask-type="alpha"><use xlink:href="#i"/></mask><mask id="z" mask-type="alpha"><use xlink:href="#j"/></mask><mask id="y" mask-type="alpha"><use xlink:href="#k"/></mask><mask id="w" mask-type="alpha"><use xlink:href="#l"/></mask><mask id="u" mask-type="alpha"><use xlink:href="#m"/></mask><mask id="t" mask-type="alpha"><use xlink:href="#n"/></mask><mask id="s" mask-type="alpha"><use xlink:href="#o"/></mask><clipPath id="p"><path d="M0 0h1080v1080H0z"/></clipPath><clipPath id="M"><path d="M0 0h1920v1079H0z"/></clipPath><clipPath id="N"><path d="M0 0h1920v1079H0z"/></clipPath><clipPath id="L"><path d="M0 0h1920v1079H0z"/></clipPath><clipPath id="K"><path d="M0 0h1920v1079H0z"/></clipPath><clipPath id="H"><path d="M0 0h1920v1079H0z"/></clipPath><clipPath id="F"><path d="M0 0h1920v1079H0z"/></clipPath><clipPath id="B"><path d="M0 0h1920v1079H0z"/></clipPath><clipPath id="D"><path d="M0 0h1920v1079H0z"/></clipPath><clipPath id="x"><path d="M0 0h1920v1079H0z"/></clipPath><clipPath id="q"><path d="M0 0h1920v1079H0z"/></clipPath><clipPath id="v"><path d="M0 0h1920v1079H0z"/></clipPath><clipPath id="r"><path d="M0 0h1920v1079H0z"/></clipPath><path id="b" fill="#DB8D74" d="M521.5 303c-16.5 11-42 12.5-66 13.5s-53.83 22.53-51 52c2.5 26 27.5 43 54.5 43.5 30.01.56 61-2.5 100.5-24s36.5-55.5 23.5-77-45-19-61.5-8z" style="display:block" transform="translate(975 551.5)"/><path id="e" fill="#FFCBA3" d="M208.59-408.86c-7.84-3.64-36.84-2.64-50.54 21.24a45.1 45.1 0 0 0 16.49 61.54s2.21 1.58 4.2 2.6C165-376.5 201.24-403.25 213.77-407c-1.28-1-5.2-1.86-5.2-1.86z" style="display:block" transform="rotate(.85 -39173.55 69800.36)"/><path id="f" fill="#B23232" d="m183.82-391.39 1.17 3.35a5.85 5.85 0 0 1-3.97 7.54 6.5 6.5 0 0 1-7.99-3.9l-1.17-3.36a5.85 5.85 0 0 1 3.98-7.53c3.3-1 6.87.74 7.98 3.9z" style="display:block" transform="rotate(.85 -39173.55 69800.36)"/><path id="g" fill="#58CC02" d="M318.2-45.46c15.25 95-31.57 144.03-95.65 159.53C138.1 134.5 87.75 70.93 71.5 17.37 16-165.5 158.63-177.94 166.59-174.4a21.64 21.64 0 0 0 13.9 1.28c13.72-3.34 29.36-13.46 52.06-24.71 28.63-14.2 72.55 1.4 71.32 40.68 0 0 5.5 56.71 14.33 111.68zm-15 4c15.25 95-16.57 140.03-80.65 155.53C138.1 134.5 78.39 78.98 54.5 28.37 36.4-9.99 31.2-79.32 31.2-79.32c-2.43-42.4 8.58-88.44 47.16-106.22 17.57-8.1 35.66-11.37 49.82-6.28 21.93 7.88 30.45 13.88 38.41 17.42 4.36 1.94 127.79 77.96 136.61 132.93z" style="display:block" transform="rotate(-2.53 14606.27 -23261.04)"/><path id="h" fill="#FFC7B8" d="M552.81-154.96c-14.87-8.98-34.96-11.23-52.18-1.89l-28.25 15.34a51.11 51.11 0 0 0-25.62 34.32l-7.98 37.63C434.57-49.71 440-30 458.98-17.43c19 12.57 51.52 29.43 69.52 61.28 6.9 12.2 42.97 11.6 54.93 7.15l38.7-9.37a38.33 38.33 0 0 0 29.8-32.8l6.32-51.71c-.57-6.32-6.97-19.3-11.52-26.1C621-107.5 590-132.5 552.81-154.96z" style="display:block" transform="rotate(-6.52 6109.72 -8350.86)"/><path id="i" fill="#CC348D" d="M745.23-224.14a51.5 51.5 0 1 1 103-1.1 51.5 51.5 0 0 1-103 1.1z" style="display:block" transform="rotate(-5.99 6934.08 -9712.1)"/><path id="j" fill="#0084C2" d="M732.86-124.38a46.92 46.92 0 1 1 92.24 17.23 46.92 46.92 0 0 1-92.24-17.23z" style="display:block" transform="rotate(5.99 -4300.44 9982.16)"/><path id="k" fill="#AFD5E0" d="M750.53-172.52c-2.86 6.83 153.03 310.92-59.97 264.61-213-46.3 1.1-278.5 4.91-287.63 3.82-9.13 19.24-11.37 34.44-5.02 15.2 6.36 24.43 18.91 20.62 28.04z" style="display:block" transform="rotate(-11.98 4080.43 -4797.18)"/><path id="l" fill="#FFF" d="M638.03-169.85A203546.68 203546.68 0 0 0 467.04 299.5c-11.82 32.6-21.43 51.14-71.04 55.59-84.82 7.6-163.4 13.29-252.04 16.59-15.92.59-33.23-11.41-36.9-42.62C92.51 205.82 75.37 26.16 60-152.47c-2.83-32.84 23.04-69.64 70.89-70.09 112.02-1.04 349.2-14.5 455.26-10.36 34.2 1.34 62.3 34.63 51.88 63.07z" style="display:block" transform="rotate(-145 914.89 215.66) scale(.5)"/><path id="o" fill="#FFF" d="M615.13 597.38S518.54 449.1 506.72 481.7c-11.83 32.6-61.1-131.05-110.72-126.6-84.82 7.6-163.4 13.29-252.04 16.59-15.92.59-33.23-11.41-36.9-42.62C92.51 205.82 75.37 26.16 60-152.47c-2.83-32.84 23.04-69.64 70.89-70.09 112.02-1.04 349.2-14.5 455.26-10.36 34.2 1.34 62.3 34.63 51.88 63.07C596.83-57.26 923.15 9.43 923.15 9.43s83.36 177.85 82.67 179.76c-.34.91-390.7 408.2-390.7 408.2z" style="display:block" transform="rotate(-145 914.89 215.66) scale(.5)"/><path id="m" fill="#FFF" d="M412.6 78.21c-6.13 3.04-7.26 9.11-7.45 10.04l-2.08 9.95a7.13 7.13 0 0 0 5.54 8.43l7.35 1.53a14.64 14.64 0 0 0 17.33-11.31c.5-2.37 3.31-16.43 3.31-16.43s-16.2-6.08-24-2.2zm-14.7-3.73c3.9 5.91 3.59 9.27 3.28 11.76a195.42 195.42 0 0 1-1.97 10.65 7.68 7.68 0 0 1-9.1 5.9l-7.27-1.5a15.02 15.02 0 0 1-11.74-17.74c.67-3.16 3.9-16.19 3.9-16.19s19.19 1.5 22.9 7.12z" style="display:block" transform="rotate(-5 7434.16 -10806.68)"/><path id="n" fill="#FFF" d="M412.6 78.21c-6.13 3.04-7.26 9.11-7.45 10.04l-2.08 9.95a7.13 7.13 0 0 0 5.54 8.43l7.35 1.53a14.64 14.64 0 0 0 17.33-11.31c.5-2.37 3.31-16.43 3.31-16.43s-16.2-6.08-24-2.2zm-14.7-3.73c3.9 5.91 3.59 9.27 3.28 11.76a195.42 195.42 0 0 1-1.97 10.65 7.68 7.68 0 0 1-9.1 5.9l-7.27-1.5a15.02 15.02 0 0 1-11.74-17.74c.67-3.16 3.9-16.19 3.9-16.19s19.19 1.5 22.9 7.12z" style="display:block" transform="rotate(-5 7434.16 -10806.68)"/><g id="d" style="display:block"><path fill="#FFF" d="M1230.58 803.67c49.17-34.3-406.08 145.83-333.36 94.8 14.2-9.95 309.45 207.2 331.04 219.61 36.92 21.21 659.74 8.42 696.99 32.49 6.69 4.32 21.33-112.8 13.9-98.96-29.4 54.64-285.9-12.86-330.83 64.71-3.45 5.97-145.16-143.23-152.07-140.64-9.62 3.6-21.58 2.9-33.07-4.98C1377 939 1276 876.5 1233.75 844.38c-13.63-10.36-15.59-32.05-3.17-40.71z"/><path fill-opacity="0" stroke="#9DEEC7" stroke-width="6.5" d="M1230.58 803.67c49.17-34.3-406.08 145.83-333.36 94.8 14.2-9.95 309.45 207.2 331.04 219.61 36.92 21.21 659.74 8.42 696.99 32.49 6.69 4.32 21.33-112.8 13.9-98.96-29.4 54.64-285.9-12.86-330.83 64.71-3.45 5.97-145.16-143.23-152.07-140.64-9.62 3.6-21.58 2.9-33.07-4.98C1377 939 1276 876.5 1233.75 844.38c-13.63-10.36-15.59-32.05-3.17-40.71z"/></g><g id="a" style="display:block"><path fill="#DB8D74" d="M1496.5 854.5c-16.5 11-42 12.5-66 13.5s-53.83 22.53-51 52c2.5 26 27.5 43 54.5 43.5 30.01.56 61-2.5 100.5-24s36.5-55.5 23.5-77-45-19-61.5-8z"/><path fill-opacity="0" stroke="#3D3D3D" stroke-width="2" d="M1496.5 854.5c-16.5 11-42 12.5-66 13.5s-53.83 22.53-51 52c2.5 26 27.5 43 54.5 43.5 30.01.56 61-2.5 100.5-24s36.5-55.5 23.5-77-45-19-61.5-8z"/></g><linearGradient id="E" x1="475" x2="566.07" y1="-110" y2="-38.83" gradientUnits="userSpaceOnUse" spreadMethod="pad"><stop offset="0%" stop-color="#FFA75F"/><stop offset="50%" stop-color="#FFB78B"/><stop offset="100%" stop-color="#FFC7B8"/></linearGradient><filter id="c" width="100%" height="100%" x="0%" y="0%" filterUnits="objectBoundingBox"><feComponentTransfer in="SourceGraphic"><feFuncA tableValues="1.0 0.0" type="table"/></feComponentTransfer></filter></defs><g clip-path="url(#p)"><g clip-path="url(#q)" style="display:block" transform="matrix(-1 0 0 1 1916 -23.5)"><g style="display:block"><path fill="#58CC02" d="M1230.48 803.74a99078.85 99078.85 0 0 0 204.65-143.2c2-1.4 3.9-2.7 5.76-3.88 4.8-3.03 9.26-5.15 14.24-5.77 6.72-.83 14.37 1.07 25.03 7.18 36.96 21.18 70.9 41.5 108.17 65.57 4.65 3.01 6.17 7.17 6.75 10.69.99 5.93-.9 11.44-3.94 17.28-3.01 5.76-6.24 11.55-10 18.37-30.64 55.52-79.14 141.27-108.57 191.84-4.7 8.08-10.57 15.18-16.75 21.73-4.88 5.19-14.27 14.66-20.55 18.66-11.6 7.39-24.77 4.22-34.09-2C1359 972 1261.5 906.5 1219.25 875.37c-8.65-6.37-11.98-19.71-10.5-25.73 2.25-9.15 4.91-17.38 8.08-24.26 3.17-6.89 7.33-17.23 13.65-21.65z"/><path fill="none" stroke="#58CC02" stroke-width="6.5" d="M1230.48 803.74a99078.85 99078.85 0 0 0 204.65-143.2c2-1.4 3.9-2.7 5.76-3.88 4.8-3.03 9.26-5.15 14.24-5.77 6.72-.83 14.37 1.07 25.03 7.18 36.96 21.18 70.9 41.5 108.17 65.57 4.65 3.01 6.17 7.17 6.75 10.69.99 5.93-.9 11.44-3.94 17.28-3.01 5.76-6.24 11.55-10 18.37-30.64 55.52-79.14 141.27-108.57 191.84-4.7 8.08-10.57 15.18-16.75 21.73-4.88 5.19-14.27 14.66-20.55 18.66-11.6 7.39-24.77 4.22-34.09-2C1359 972 1261.5 906.5 1219.25 875.37c-8.65-6.37-11.98-19.71-10.5-25.73 2.25-9.15 4.91-17.38 8.08-24.26 3.17-6.89 7.33-17.23 13.65-21.65z"/><path fill="#FFF" d="M1230.58 803.67c49.17-34.3 131.92-92.17 204.64-143.2 14.2-9.95 23.45-14.8 45.04-2.39 36.92 21.21 70.74 41.42 107.99 65.49 6.69 4.32 10.33 14.2 2.9 28.04-29.4 54.64-73.9 133.14-118.83 210.71-8.26 14.27-29.41 21.92-49.14 8.38C1377 939 1276 876.5 1233.75 844.38c-13.63-10.36-15.59-32.05-3.17-40.71z"/><path fill="none" stroke="#9DEEC7" stroke-width="6.5" d="M1230.58 803.67c49.17-34.3 131.92-92.17 204.64-143.2 14.2-9.95 23.45-14.8 45.04-2.39 36.92 21.21 70.74 41.42 107.99 65.49 6.69 4.32 10.33 14.2 2.9 28.04-29.4 54.64-73.9 133.14-118.83 210.71-8.26 14.27-29.41 21.92-49.14 8.38C1377 939 1276 876.5 1233.75 844.38c-13.63-10.36-15.59-32.05-3.17-40.71z"/></g><g clip-path="url(#r)" mask="url(#s)" style="display:block"><path fill="#A175F9" d="M313.52 147.27a5 5 0 0 1-2.47-6.6l35.5-79.22c12.52-26.8 39.04-43.04 67.44-37.27 27.93 5.68 46.16 30.17 46.6 59.64l2.63 84.3a5 5 0 0 1-4.58 5.14c-10.24.87-36.17 2.23-68.29-2.35-33.36-4.76-65.34-18.37-76.83-23.64z" style="display:block" transform="rotate(-9 4517.73 -5773.28)"/><g style="display:block"><path fill="#A570FF" d="M1336.28 765.01c2.96-6.88 13.32-10.04 20.2-7.08 6.89 2.96 13.1 13.88 10.14 20.76 0 0-6.5 18.73-12.43 30.02-5.2 9.92-12.82 21.27-12.82 21.27-6.06 7.41-10.95 10.07-17.83 7.1a13.57 13.57 0 0 1-7.1-17.82s5.96-13.47 9.9-24.26c3.95-10.78 9.94-29.99 9.94-29.99z"/><path fill="#593F86" d="M1336.28 765.01s7.88-30.51 10.06-56.93l36.46 5.67c-.34 25.72-15.52 63.36-15.52 63.36-3.01 1.55-13.4 4.31-20.37 1.32-6.4-2.75-9.74-10.38-10.63-13.42z"/><path fill="#FFC6B7" d="M1387.7 757.32a10.04 10.04 0 1 1-20.09-.27 10.04 10.04 0 0 1 20.09.27z"/><path fill="#593F86" d="m1360.34 703.67-47.56 29.54c-11.22 6.97-6.5 24.27 6.7 24.57l79.76 1.84c13.24.3 18.73-16.84 7.77-24.28l-46.67-31.67z"/><path fill="#FFC6B7" d="M1358.87 735.06c-7.06-4.56-10.34-7.96-15.1-8.02a10.04 10.04 0 0 0-9.81 7.39c5.11.14 17.56.44 24.91.63z"/></g><path fill="#FFC6B7" d="m452.47 91.53 4.29.87c6.08 1.25 10 7.03 8.75 12.91s-7.19 9.64-13.27 8.4l-4.29-.88c-6.08-1.25-10-7.03-8.75-12.9 1.25-5.9 7.19-9.65 13.27-8.4zM416.72 32.3a48.75 48.75 0 0 1 38.54 52.28l-5.12 39.92c-2.52 13.18-12.85 21.45-25.15 20.89-12.06-.55-19.55-1.3-35.02-2.63-15.46-1.32-26.56-9.13-26.56-9.13a24.08 24.08 0 0 1-17.69-31.79l13.57-37.44a50.2 50.2 0 0 1 57.43-32.1z" style="display:block" transform="rotate(-5 7408.37 -10691.22)"/><path fill="#FFF" d="M412.6 78.21c-6.13 3.04-7.26 9.11-7.45 10.04l-2.08 9.95a7.13 7.13 0 0 0 5.54 8.43l7.35 1.53a14.64 14.64 0 0 0 17.33-11.31c.5-2.37 3.31-16.43 3.31-16.43s-16.2-6.08-24-2.2zm-14.7-3.73c3.9 5.91 3.59 9.27 3.28 11.76a195.42 195.42 0 0 1-1.97 10.65 7.68 7.68 0 0 1-9.1 5.9l-7.27-1.5a15.02 15.02 0 0 1-11.74-17.74c.67-3.16 3.9-16.19 3.9-16.19s19.19 1.5 22.9 7.12z" style="display:block" transform="rotate(-5 7434.16 -10806.68)"/><g mask="url(#t)" style="display:block"><path fill="#3D3D3D" d="M1402.52 660.99c-.5 3.83-3.66 6.3-7.22 5.87-3.56-.44-6.06-3.78-5.68-7.45l1.04-9.9 13.08.94s-.72 6.7-1.22 10.54zm-29.2-2.1c-.36 4.32-3.65 6.3-7.21 5.86-3.57-.43-6.02-4-5.68-7.44.34-3.52.68-8.4.68-8.4l12.64 1.04s-.06 4.6-.42 8.93z"/></g><g mask="url(#u)" style="display:block"><path fill="#A570FF" d="m1415.76 645.73-1.12 16.5-71.25-6.74 2.16-17.81 70.2 8.05z"/></g><path fill="#FFC6B7" d="M392.24 134.58c-.13-2.35.05-4.75.56-7.17 3.17-15.15 18.13-24.87 33.42-21.7 4.08.85 7.06 2.54 9.23 4.5 5.04 4.5-43.12 26.18-43.21 24.37z" style="display:block" transform="rotate(-5 7434.16 -10806.68)"/><path fill="#EE9583" d="M404.94 119.17c5.95-7.41 11.46-9.77 16.12-6.04a2 2 0 0 1 .32 2.8 1.94 1.94 0 0 1-2.76.34c-2.47-1.98-5.87-.52-10.64 5.42-.68.85-1.92.99-2.76.29a2.02 2.02 0 0 1-.28-2.8zm-7.45-4.45a5.97 5.97 0 0 0 7.1-4.51c.67-3.17-3.65-11.86-3.65-11.86l-.9.79c-2.02 1.78-6.72 6.16-7.25 8.64a5.9 5.9 0 0 0 4.7 6.94z" style="display:block" transform="rotate(-5 7434.01 -10806.56)"/><path fill="#A570FF" d="M317.49 151.33c14.94-40.03 33.04-127.47 89.88-122.52.78.07 1.39.5 1.85 1.25 6.89 11.2-19.7 94.11-24.23 115.5-.55 2.6-2.98 3.87-5.62 3.92-18.1.34-47.65 2.16-61.88 1.85zm111-117.28c17.26 6.73 29.2 23.33 28.94 47.18l-26.56-5.55c-19.33-4.03-23.63-20.57-23.49-40.64l-4.76-6c8.33-.37 18.5 2.14 25.87 5.01z" style="display:block" transform="rotate(-5 7408.37 -10691.22)"/></g><g clip-path="url(#v)" mask="url(#w)" style="display:block"><path fill="#E6A000" d="M0-59.3A59.32 59.32 0 0 1 59.3 0 59.32 59.32 0 0 1 0 59.3 59.32 59.32 0 0 1-59.3 0 59.32 59.32 0 0 1 0-59.3z" style="display:block" transform="matrix(.38973 .12663 -.0618 .19021 1493.22 685.26)"/><g style="display:block"><path fill="#FFC700" d="M1479.05 669.31c9.76-2.1 24.54 2.01 33.01 9.2 8.48 7.17 7.44 14.7-2.31 16.8-9.76 2.11-24.54-2-33.01-9.18-8.48-7.18-7.44-14.71 2.31-16.82z"/><path fill="#FFE700" d="M1506.04 676.63c1.12.71 2.18 1.48 3.13 2.29a16.08 16.08 0 0 1 3.92 4.6c.16.32-.2.36-.66.46l-25.26 5.46c-.34.07-.93.2-1.8-.2a26.08 26.08 0 0 1-8.52-6.44c-.14-.18-.42-.45.6-.68 4.44-.95 20.74-4.43 26.92-5.77.82-.18 1.3.05 1.67.28zm-24.7-5.46c5.38-1.16 12.58-.08 18.92 2.51.45.18 1.58.77.25 1.08-1.33.31-21.5 4.58-23.89 5.1-1.4.3-1.72-.45-1.8-.68-1.1-3.72 1.13-6.85 6.52-8z"/></g><path fill="#E6A000" d="M0-59.3A59.32 59.32 0 0 1 59.3 0 59.32 59.32 0 0 1 0 59.3 59.32 59.32 0 0 1-59.3 0 59.32 59.32 0 0 1 0-59.3z" style="display:block" transform="matrix(.4813 .24524 -.13166 .2584 1514.03 734.63)"/><g style="display:block"><path fill="#FFC700" d="M1499.12 709.77c13.43-1.32 31.86 7 41.16 18.6 9.3 11.58 5.96 22.05-7.48 23.37-13.43 1.32-31.86-7-41.16-18.6-9.3-11.59-5.96-22.05 7.48-23.37z"/><path fill="#FFE700" d="M1532.83 724.7a35.4 35.4 0 0 1 3.53 3.76c2 2.5 3.3 4.92 3.96 7.18.13.47-.36.47-.99.53-6.34.64-31.38 3.1-34.8 3.42-.46.05-1.28.15-2.33-.57a31.96 31.96 0 0 1-9.54-10.57c-.14-.27-.43-.7.98-.84 6.1-.6 28.54-2.76 37.05-3.6 1.13-.1 1.7.29 2.14.69zm-31.18-11.92c7.41-.73 16.63 2.03 24.32 6.76.55.34 1.89 1.36.04 1.57-1.84.22-29.58 2.82-32.88 3.14-1.93.2-2.16-.91-2.19-1.25-.49-5.45 3.28-9.49 10.7-10.22z"/></g><path fill="#E6A000" d="M0-59.3A59.32 59.32 0 0 1 59.3 0 59.32 59.32 0 0 1 0 59.3 59.32 59.32 0 0 1-59.3 0 59.32 59.32 0 0 1 0-59.3z" style="display:block" transform="matrix(.6486 .38971 -.22476 .37406 1500.13 794.9)"/><g style="display:block"><path fill="#FFC700" d="M1482.48 757.5c19.29-1.18 44.28 12.17 55.82 29.82s5.25 32.92-14.04 34.1c-19.29 1.18-44.28-12.17-55.82-29.82s-5.25-32.92 14.04-34.1z"/><path fill="#FFE700" d="M1528.23 781.48a46.43 46.43 0 0 1 4.48 5.77c2.47 3.79 3.98 7.45 4.57 10.81.13.7-.57.68-1.47.74-9.1.58-45.07 2.78-49.97 3.06-.67.04-1.84.14-3.23-.98a42.5 42.5 0 0 1-8.81-10.03 34.37 34.37 0 0 1-3.22-6.12c-.17-.41-.51-1.07 1.52-1.2 8.76-.53 40.97-2.43 53.2-3.18 1.61-.1 2.37.52 2.93 1.13zm-42.6-19.38c10.65-.65 23.36 3.95 33.6 11.38.73.52 2.48 2.1-.17 2.32-2.64.21-42.46 2.46-47.2 2.75-2.77.17-2.94-1.47-2.93-1.97.1-8.08 6.04-13.83 16.7-14.48z"/></g><path fill="#E6A000" d="M0-59.3A59.32 59.32 0 0 1 59.3 0 59.32 59.32 0 0 1 0 59.3 59.32 59.32 0 0 1-59.3 0 59.32 59.32 0 0 1 0-59.3z" style="display:block" transform="matrix(.68536 .4799 -.32116 .45866 1420.6 831.34)"/><g style="display:block"><path fill="#FFC700" d="M1406.45 784.87c22.49-1.4 49.17 15.05 59.6 36.74 10.43 21.7.66 40.41-21.82 41.82-22.48 1.4-49.16-15.04-59.6-36.74-10.43-21.69-.66-40.41 21.82-41.82z"/><path fill="#FFE700" d="M1455.38 814.42a47.28 47.28 0 0 1 4.22 7.08 33.36 33.36 0 0 1 3.52 13.3c.02.85-.78.82-1.83.89-10.62.7-52.53 3.31-58.24 3.64-.78.04-2.15.17-3.57-1.21-3.72-3.6-6.4-7.91-8.53-12.33a37.46 37.46 0 0 1-2.72-7.53c-.12-.5-.41-1.31 1.95-1.46 10.21-.64 47.74-2.89 62-3.78 1.88-.11 2.65.64 3.2 1.4zm-46.03-23.9c12.4-.77 26.34 4.9 36.94 14.05.76.65 2.53 2.6-.57 2.85-3.1.26-49.47 2.92-54.99 3.27-3.23.2-3.16-1.81-3.07-2.44 1.45-9.9 9.27-16.95 21.69-17.73z"/></g><path fill="#E6A000" d="M0-59.3A59.32 59.32 0 0 1 59.3 0 59.32 59.32 0 0 1 0 59.3 59.32 59.32 0 0 1-59.3 0 59.32 59.32 0 0 1 0-59.3z" style="display:block" transform="matrix(.81915 .57358 -.43018 .61436 1303.57 843.46)"/><g style="display:block"><path fill="#FFC700" d="M1289.19 784.78c28.03-3.34 60.07 16.1 71.57 43.43 11.5 27.31-1.92 52.17-29.95 55.5-28.03 3.34-60.08-16.1-71.57-43.42-11.5-27.32 1.92-52.17 29.95-55.5z"/><path fill="#FFE700" d="M1347.98 819.64a53.73 53.73 0 0 1 4.77 8.86 41.48 41.48 0 0 1 3.47 16.94c-.03 1.11-1.02 1.12-2.33 1.28-13.24 1.62-65.5 7.84-72.62 8.65-.97.11-2.69.36-4.36-1.32-4.38-4.4-7.42-9.79-9.76-15.35a45.17 45.17 0 0 1-2.87-9.54c-.11-.64-.42-1.67 2.53-2.02 12.73-1.52 59.52-6.97 77.29-9.09 2.34-.28 3.26.65 3.88 1.59zm-55.58-27.76c15.48-1.84 32.4 4.55 44.96 15.65.9.78 2.96 3.18-.9 3.72s-61.68 7.13-68.56 7.95c-4.03.48-3.8-2.13-3.65-2.94 2.47-12.9 12.66-22.53 28.15-24.38z"/></g></g><path fill="none" stroke="#9DEEC7" stroke-width="13" d="M396 355.09c-84.82 7.6-163.4 13.29-252.04 16.59-15.92.59-33.23-11.41-36.9-42.62C92.51 205.82 75.37 26.16 60-152.47c-2.83-32.84 23.04-69.64 70.89-70.09 112.02-1.04 349.2-14.5 455.26-10.36" style="display:block" transform="rotate(-145 914.89 215.66) scale(.5)"/></g><g clip-path="url(#x)" style="display:block" transform="matrix(-1 0 0 1 1976 -43.5)"><g style="display:block"><path fill="none" stroke="#CC348D" stroke-linecap="round" stroke-miterlimit="10" stroke-width="23" d="M1744.4 392.5c-3.15-14.84 27.72-19.14 47.52-4.18"/><path fill="#C6775C" d="M1759.23 389.34a15.16 15.16 0 1 1-29.67 6.3 15.16 15.16 0 0 1 29.67-6.3z"/><path fill="#5EC6FF" d="M1782.8 417.86c-1.84 9.72-16.46 15.12-32.65 12.05-16.2-3.06-27.83-13.42-25.99-23.14 1.84-9.72 15.21-27.84 34.93-24.11 19.86 3.76 25.54 25.48 23.7 35.2z"/><path fill="#0084C2" d="M1782.8 417.86c-1.84 9.72-16.46 15.12-32.65 12.05-16.2-3.06-27.83-13.42-25.99-23.14 1.84-9.72 16.46-15.12 32.65-12.06 16.19 3.06 27.82 13.43 25.99 23.15z"/><path fill="#FFCC76" d="M1756.8 394.71c-9.18-1.74-17.85-.75-23.98 2.2.52 5.78-.84 10.93-1.1 12.67-.03.12-.1.23-.11.35-1.13 6.43 2.24 12.7 8.53 14.28a11.75 11.75 0 0 0 11.97-3.97 13.2 13.2 0 0 0 22.51-5.7 55.67 55.67 0 0 1 3.27-9.48c-4.66-4.77-12.18-8.67-21.08-10.35z"/></g><g mask="url(#y)" style="display:block"><path fill="none" stroke="#FFCC76" stroke-linecap="round" stroke-miterlimit="10" stroke-width="4.15" d="M1796.5 314.07c-14.88 6.27-35.03 29.36-25.85 34.02 9.17 4.66 18.75-25.55 42.93-19.16m-18.9 8.88c-11.46 6.26-19.47 20.4-30.8 40.85m32.8-35.01c-5.06 5.14-7.7 7.74-13.77 17.35-6.07 9.62-13.73 18.94-17.12 31.26"/></g><path fill="#0084C2" d="M732.86-124.38a46.92 46.92 0 1 1 92.24 17.23 46.92 46.92 0 0 1-92.24-17.23z" style="display:block" transform="rotate(5.99 -4300.44 9982.16)"/><g mask="url(#z)" style="display:block"><path fill="#006AAD" d="M1847.08 507.42c-17.13-1.9-34.1-4.88-48.92-21.74l-6.97.27c17.73 21.54 38.31 25.06 49.8 25.76a47.2 47.2 0 0 0 6.1-4.3z"/><path fill="#C6775C" d="M1788.3 414.2a30.23 30.23 0 0 1 57.9 17.44l-10.4 34.92a13.3 13.3 0 0 1-8.01 8.66 734.1 734.1 0 0 1-33.18 11.73 3.2 3.2 0 0 1-3.45-.97c-7.92-9.37-12.52-20-14.56-25.5-.9-2.42-.86-5.06-.1-7.54l11.8-38.73z"/><path fill="none" stroke="#FFF" stroke-linecap="round" stroke-width="20.81" d="m1786.3 456 2.81-8.35m19.83 15.63 1.82-6.1"/><path fill="none" stroke="#3D3D3D" stroke-linecap="round" stroke-width="9.4" d="M1807.36 460.61s-1.18 2.47-1.44 4.99m-18.34-12.7s-.6 3.26-2.04 5.49"/><path fill="#FFF" d="M1782.02 456.16c1.7.92 2.47 3.56 1.43 5.2-4.32 7.16-8.93-8.03-1.43-5.2zm19.25 8.17c2.03.64 3.32 2.66 2.44 4.81-2.78 4.61-6.22-4.31-2.44-4.81z"/><path fill="#C6775C" d="M1789.89 445.14a6.3 6.3 0 1 1 12 3.77 6.3 6.3 0 0 1-12-3.77z"/></g><path fill="none" stroke="#3D3D3D" stroke-linecap="round" stroke-width="47" d="M806.5-160.32c-17.75 5.03-37.77.25-40.64-7.86" style="display:block" transform="translate(1028.1 585.33)"/><path fill="#FFF" d="m756.15-159.83.8-1.8a5.8 5.8 0 0 1 10.63 4.67l-.8 1.8a5.8 5.8 0 0 1-10.63-4.67z" style="display:block" transform="translate(1028.23 585.46)"/><path fill="#CC348D" d="M745.23-224.14a51.5 51.5 0 1 1 103-1.1 51.5 51.5 0 0 1-103 1.1z" style="display:block" transform="rotate(-5.99 6934.08 -9712.1)"/><path fill="none" stroke="#CC348D" stroke-linecap="round" stroke-linejoin="round" stroke-width="23" d="M831.29-200.83s8.44 3.78 7.3 8.8c-2.77 12.13-24.63 15.5-24.63 15.5" style="display:block" transform="rotate(-5.99 6934.08 -9712.1)"/><g mask="url(#A)" style="display:block"><path fill="#0084C2" d="M1754.12 360.8c.98-24.92 15.37-54.13 56.93-58.8 41.56-4.69 81.41 14.46 75.64 40.1-4.5 19.97-24.2 31.74-70.78 32.72-44.42.93-61.9-11.39-61.79-14.02z"/><path fill="none" stroke="#00448E" stroke-width="11" d="M1754.12 360.8c.98-24.92 15.37-54.13 56.93-58.8 41.56-4.69 81.41 14.46 75.64 40.1-4.5 19.97-24.2 31.74-70.78 32.72-44.42.93-61.9-11.39-61.79-14.02z"/></g><g fill="none" stroke-linecap="round" stroke-linejoin="round" style="display:block"><path stroke="#0084C2" stroke-width="20" d="M1811.86 325.78s-35.18-9.71-46.17-17.6c1.6-12.08 17.9-29.69 26-40.8"/><path stroke="#CC348D" stroke-width="14" d="M1812.06 257.9c-2.55-5.44-7.53-11.48-11.61-14.1"/></g><g fill="none" stroke-linecap="round" stroke-linejoin="round" style="display:block"><path stroke="#0084C2" stroke-width="20" d="M1812.1 325.7s-55.1 10.47-94.74-23.55"/><path stroke="#CC348D" stroke-width="14" d="M1703.9 282.2c-2.8 1.97-9.81 7.82-14 12.75"/></g><g style="display:block"><path fill="none" stroke="#DAAF83" stroke-linecap="round" stroke-linejoin="round" stroke-width="5" d="m1873.41 419.58-59.67 4.8m57.46 4.32-56.89 1.17"/><path fill="none" stroke="#C6775C" stroke-linecap="round" stroke-linejoin="round" stroke-width="9" d="m1841.36 423.2-8.53 8.16"/><path fill="#C6775C" d="m1843.7 427.27 4.24-4.17a8.53 8.53 0 0 0 .12-12.07l-3.69-3.76a8.53 8.53 0 0 0-12.07-.11l-4.25 4.17a8.53 8.53 0 0 0-.11 12.07l3.69 3.76a8.54 8.54 0 0 0 12.07.11z"/></g></g><g clip-path="url(#B)" style="display:block" transform="matrix(-1 0 0 1 1916 -23.5)"><g fill="none" stroke-linecap="round" stroke-linejoin="round" style="display:block"><path stroke="#FFC6B7" stroke-width="12" d="M1458.23 596.6c-.16-4.86-6.59-9.37-11.84-12.47m-8.6 7.6c6.93 1.56 14.64 4.31 18.53 8.15m-19.7 5.38c10.31-1.7 16.84 1.58 20.7 3.92m-4.78 12.32s5.73-7.97 14.03-12.99"/><path stroke="#FFC6B7" stroke-width="36" d="M1487.23 594.65c-10.27 1.34-15.08 2.16-23.8 4.51"/><path stroke="#33E3FF" stroke-width="36" d="M1505.31 592.92c-8.98-.06-20.26 1.83-29.13 3.55"/></g><path fill="#33E3FF" d="M630.35-116.3c8.47-29.32-32.19-60.8-61.02-45.18-15.04 5.68-40.95 24.76-40.95 24.76-12.73 8.75 84.05 96 89.45 70.5 0 0 7.21-37.47 12.52-50.07z" style="display:block" transform="rotate(-4.2 8895.98 -13058)"/><path fill="none" stroke="#393939" stroke-linecap="round" stroke-width="27" d="m683.25 34.5 4.25 3.5" style="display:block" transform="rotate(-15.77 3088.97 -3199.64)"/><path fill="none" stroke="#393939" stroke-linecap="round" stroke-linejoin="round" stroke-width="23" d="m613.75 94-8.25 3.75" style="display:block" transform="rotate(-19.48 2679.75 -2486.36)"/><path fill="#FFC7B8" d="M552.81-154.96c-14.87-8.98-34.96-11.23-52.18-1.89l-28.25 15.34a51.11 51.11 0 0 0-25.62 34.32l-7.98 37.63C434.57-49.71 440-30 458.98-17.43c19 12.57 51.52 29.43 69.52 61.28 6.9 12.2 42.97 11.6 54.93 7.15l38.7-9.37a38.33 38.33 0 0 0 29.8-32.8l6.32-51.71c-.57-6.32-6.97-19.3-11.52-26.1C621-107.5 590-132.5 552.81-154.96z" style="display:block" transform="rotate(-6.52 6109.72 -8350.86)"/><path fill="#EE9583" d="M523.15-6.06c2.23 3.14 5.7 3.5 8.32 1.64 2.63-1.86 3.42-5.25 1.18-8.4-2.23-3.14-9.48-4.8-10.2-4.29-.72.51-1.54 7.9.7 11.05z" style="display:block" transform="rotate(-6.52 6105.61 -8349.39)"/><g style="display:block"><path fill="#FFF" d="M1485.09 552.9c-7.92-4.61-20.08-3.02-25.82 3.36-4.74 5.28-3.39 12.05 3.15 15.85l9.81 5.7c7.92 4.6 20.08 3 25.82-3.38 4.74-5.27 3.39-12.04-3.15-15.84l-9.81-5.7zm30.38-23.6c-7.89-4.58-19.08-2.44-24.78 4.75-5.5 6.93-3.8 15.99 3.82 20.41l8.97 5.21c7.89 4.59 19.09 2.44 24.78-4.74 5.5-6.93 3.8-15.99-3.82-20.41l-8.97-5.21z"/><path fill="#FFC7B8" d="M1530.7 538.54c-5.28 4.5-11.19 17.5-12.6 26.82l16.47-14.09c.9-6.12 1.4-17.24-3.88-12.73z"/><path fill="#EE9583" d="M1527 557.39c-1.2.23-2 1.4-1.77 2.6.42 2.22.44 4.4-.17 6.49a12.83 12.83 0 0 1-4.25 6.18 2.22 2.22 0 1 0 2.88 3.39 17.26 17.26 0 0 0 5.63-8.32c.86-2.93.79-5.86.28-8.57-.23-1.2-1.4-2-2.6-1.77z"/><path fill="#4B4B4B" d="M1501.44 542.16a4.25 4.25 0 0 0 2.1 3.18 4.17 4.17 0 0 0 6-2.06l4.96 2.74a6 6 0 0 1 1.86 9.3 9.04 9.04 0 0 1-11.06 2.22l-6.03-3.33a6 6 0 0 1-1.86-9.3 8.55 8.55 0 0 1 4.03-2.75zM1486.06 558c.17.08.34.17.5.27l5.2 3.01c3.83 2.23 4.66 6.18 1.94 9.3-2.36 2.71-7.48 3.4-10.82 1.47l-7.46-4.33c-3.18-1.85-3.87-5.13-1.62-7.71 1-1.16 2.43-2 4.02-2.5a4.5 4.5 0 0 0 2.1 2.66c2.07 1.2 4.66.63 5.77-1.29.16-.28.29-.58.37-.88z"/></g><g mask="url(#C)" style="display:block"><g clip-path="url(#D)" transform="rotate(-.45 1905.76 550.91) scale(1.00759)"><g style="display:block"><path fill="#FFC7B8" d="M1531.07 472.95c5.55 1.54 10.72-2.44 11.56-8.87.84-6.44-2.99-12.9-8.53-14.44-5.55-1.54-10.72 2.44-11.56 8.87-.83 6.44 2.99 12.9 8.53 14.44z"/><path fill="#0084C2" d="M1476.51 610.58s56.63 59.03 75.74 52.29l84.85-53.3c15.31-5.12 16.85-112.95 8.03-122.73l-46.15-33.2-.2-.13-6.04-4.35-7.1 111.69-109.13 49.73z"/><path fill="#33E3FF" d="M1599.23 458.01c-6.2-5.9-32.26-23.43-32.26-23.43a89.37 89.37 0 0 1 2.12 5.23c15.96 43.13 4.18 106.15 2.46 109.17-15.07 26.53-97.04 53.23-102.45 51.97l17.2 15.41c27.38 2.2 90.18-24.4 102.76-40.75 10.97-14.25 13.35-94.23 10.17-117.6z"/></g><path fill="url(#E)" d="M542.29-73.8a20.44 20.44 0 0 0-21.75-1.7l-66.34 35a7.53 7.53 0 0 0-1.52 12.33c4.62 4.06 18.8 15.09 20.93 16.44a7.43 7.43 0 0 1 3.33 7.17L456 7.56c-16.49-11.83-43.92-53.79-39.7-73.64 0 0 3.24-69.46 16.08-76.43 0 0 91.51-46.37 107.43-34.95l29.68 16.92 1.14.65-.45 92.44a8.42 8.42 0 0 1-7.2 8.17c-.64.09-20.7-14.53-20.7-14.53z" style="display:block" transform="rotate(-6.1 6395.18 -8836.62)"/></g></g><path fill="#FF9500" d="M470.81-93.55c13-.07 20.49-10.85 20.43-24.1-.06-13.26-7.65-23.97-20.65-23.9-13 .06-21.68 10.84-21.62 24.1.06 13.25 8.84 23.96 21.84 23.9zm-4.5 35.68c14.67-.8 25.88-13.83 25.01-29.1-.86-15.28-13.47-27.01-28.15-26.21-14.68.8-25.88 13.83-25.02 29.1.87 15.28 13.47 27.01 28.15 26.21z" style="display:block" transform="rotate(22.08 -562.13 2692.08)"/><path fill="#33E3FF" d="M637.81-65.14c-4.06 9.14-10.98 10.54-15.02 9.16-5.47-1.15-9.63-7.73-9.02-16.26 1.23-17.26 7.98-33.01 13.26-43.54 4.77-9.5 15.72-11.97 22.54-8.79 6.78 3.16 12.82 11.1 7.7 20.63-6.02 11.19-15.4 29.67-19.46 38.8z" style="display:block" transform="rotate(-4.2 8949.14 -13075.98)"/><g style="display:block"><path fill="#FFC6B7" d="M1632.97 453.18c-5.66-8.1-15.85-10.72-25.27-4.53-8.3 5.45-11.3 15.86-5.14 24.37 5.62 7.76 15.87 10.42 25.07 4.3 9.49-6.32 11-16.02 5.34-24.14z"/><path fill="none" stroke="#EE9583" stroke-linecap="round" stroke-width="3.8" d="M1615.84 458.28c3.35 1.53 6.54 5.3 6.38 7.89"/><path fill="none" stroke="#FFC6B7" stroke-linecap="round" stroke-linejoin="round" stroke-width="12" d="M1609.47 453c0-4.24-1.48-8.04-1.33-12m18.78-5.44c-5.39 2.56-9.65 9.92-9.47 13.53m21.07-6.82c-3.9 1.93-12.83 7.65-12.82 13.7m17.16-.64c-4.56-.48-10.3 4.03-12.2 8.89"/></g></g><g clip-path="url(#F)" style="display:block" transform="matrix(-1 0 0 1 1976 -43.5)"><path fill="#58CC02" d="M303.2-41.46c15.25 95-16.57 140.03-80.65 155.53C138.1 134.5 78.39 78.98 54.5 28.37c-18.1-38.35-24-75.7-23.95-117.53-.07-43.9 11.95-87.98 50.5-103.28 17.55-6.97 35.65-7.61 49.04-1.65 20.75 9.26 29.3 14.24 37 18.3 4.23 2.22 127.29 79.36 136.11 134.33zm15-4c15.25 95-31.57 144.03-95.65 159.53C138.1 134.5 87.75 70.93 71.5 17.37 16-165.5 159.39-179.86 167.1-175.8a21.6 21.6 0 0 0 13.78 2.18c13.9-2.43 30.59-12.18 54.44-20.68 30.58-10.88 70.06 5.91 71.88 45.16 0 0 2.18 48.71 11 103.68z" style="display:block" transform="rotate(-2.53 14606.27 -23261.04)"/><path fill="#58CC02" d="M194.4-10.92c41.2 33.25 100.11 36.26 145.73 6.36 45.63-29.9 66.6-85.24 52.87-136.5a16.18 16.18 0 0 0-24.54-9.32L195.78-37.23a16.3 16.3 0 0 0-1.38 26.3z" style="display:block" transform="rotate(14.77 -1487.23 4264.78)"/><path fill="#58CC02" d="M198.98.51C172.6 46.42 118.77 70.54 65.42 59.18 12.07 47.83-27.52 3.82-33.26-48.93a16.18 16.18 0 0 1 19.5-17.57l201.94 43a16.3 16.3 0 0 1 10.79 24z" style="display:block" transform="rotate(-19.82 2332.23 -2682.66)"/><path fill="none" stroke="#F49000" stroke-linecap="round" stroke-linejoin="round" stroke-width="35" d="M256.25 102.5 260 74.75" style="display:block" transform="rotate(7.04 -4072.09 8909.56)"/><path fill="none" stroke="#F49000" stroke-linecap="round" stroke-linejoin="round" stroke-width="35" d="m138 147-27-7.75" style="display:block" transform="rotate(16.61 -1400.7 3992.19)"/><g mask="url(#G)" style="display:block"><path fill="#89E219" d="M1235.52 635.37a21.23 21.23 0 0 1-16.87 17.85c-8.96 1.83-17.87-2.23-22.12-9.88-.89-1.6.07-3.6 1.89-3.98l34.84-4.98c1.82-.35 2.5-.83 2.26.99zm-58.55 11.73a20.93 20.93 0 0 1-19.13 15.2 20.72 20.72 0 0 1-20.55-13.04 2.7 2.7 0 0 1 2.4-3.66l34.52-1.88a2.69 2.69 0 0 1 2.76 3.38zm35.58 20.5c-1.52 8.35-8.6 15.02-17.64 16.37-9.03 1.34-17.76-2.96-21.67-10.5-.8-1.57.24-3.46 2.07-3.74l33.23-5.81c1.83-.29 4.33 1.95 4.01 3.68zm23.42-68.32a55.08 55.08 0 0 1-51.8-29.7l-17.78.86-16.01.8c-5.75 19.45-18.64 33.17-36.11 34.37-20.58 1.42-40.99-22.6-43.21-52.75-1.68-22.77-1.87-34.01-.17-46.24 1.83-13.13 6.79-22.56 14.3-29.35.5-11.9 9.82-22.2 14.21-22.3 2.48-.05 2.12.9 1.84 14.22 4.45-17.78 13.75-23.24 17.85-26.29 5.13-3.82 11.16-5.69 11.39 2.53.1 3.92 2.99 46.79 27.77 47.77 2.34.1 3.84.1 6.79-.18 15.39-1.47 44.64-33.82 56.03-47.14 7.09-8.28 11.6-6.7 13.35-4.06 3.98 6.01 5.4 12.3 4.49 18.68l9.51-11.89a4.41 4.41 0 0 1 7.12.31 32.93 32.93 0 0 1 5.27 21.6 54.95 54.95 0 0 1 25.9 43.87l1.4 27.07a55.05 55.05 0 0 1-52.14 57.82z"/></g><g style="display:block"><path fill="#F49000" d="M1191.08 568.22a19.23 19.23 0 0 0-38.43.45l-.22 25.83a20.45 20.45 0 1 0 40.86-.48l-2.21-25.8z"/><path fill="#B16900" d="M1184.26 570.17a14.02 14.02 0 1 0-28.02-.9l-.3 24.7a14.02 14.02 0 1 0 28.02.91l.3-24.7z"/><path fill="#FFB8D1" d="m1184.51 577.93-.5.02a22.91 22.91 0 0 0-20.99 28.67 14.02 14.02 0 0 0 20.94-11.73l.55-16.96z"/><path fill="#FFC200" d="M1139.66 571.59c-.14.74.3 1.46 1 1.72l10.21.43 41.28-3.42a1.53 1.53 0 0 0 1.25-1.96c-3.7-11.79-15-20.68-27.9-20.01-13.07.68-23.56 10.92-25.84 23.24z"/><path fill="#FFDE00" d="M1169.24 559.9c2.1.82 4.4-.29 5.17-2.37.77-2.08-.24-4.54-2.37-5.17-4.15-1.22-9.28-1.2-13.39.6a4.04 4.04 0 0 0-2.15 5.27 4.04 4.04 0 0 0 5.26 2.15c1.76-.7 5.39-1.3 7.48-.48z"/></g><g style="display:block"><path fill="#FFF" d="M1269.61 539.32a38.31 38.31 0 0 1-76.52 3.97l-1.12-21.52a38.31 38.31 0 0 1 76.53-3.98l1.11 21.53zm-129.55 6.72c1.1 21.13-11.14 38.95-27.35 39.79-16.2.84-30.23-15.61-31.33-36.74l-1.11-21.52c-1.1-21.14 11.15-38.95 27.35-39.79 16.2-.84 30.23 15.6 31.33 36.74l1.11 21.52z"/><path fill="#4B4B4B" d="M1105.36 542.4c.7 9.9 7.61 17.46 15.43 16.9 7.83-.55 13.6-9.01 12.9-18.9l-1.36-19.12c-12.55 6.41-20.27-10.5-11.75-16.71a8.78 8.78 0 0 0-3.69-.2c-9.64 1.87-13.63 11.46-12.58 23.3.85 9.48 1.05 14.73 1.05 14.73zm95.07-4.48a17.96 17.96 0 0 0 35.9-.98l-.52-19.14c-13.54 5.28-19.06-9.68-14.87-17.21a18.22 18.22 0 0 0-9.03.75c-9.83 4-12.03 14.99-11.88 21.82.15 6.83.4 14.76.4 14.76z"/><path fill="#8EDF00" d="M1107.89 480.43c-26 1.74-30.32 15.2-31.39 23.29-2.26 17.06 2.28-.98 2.28-.98 16.9-25.52 47.96-24.26 65.05 12.6 4.37-20.37-.37 1.16-2.51-13.48-2.14-14.65-14.91-22.66-33.43-21.43zm-20.44 107.55c6.08 2.98 8.3 7.25 22.86 10.18 14.56 2.93 10.92 2.96 13.16 3.33-3.73-2.13-29.69-10.27-36.02-13.5zm141.3-111c-30.95-.48-41.28 20.25-40.84 37.48.44 17.23.36 1.26.36 1.26 7.97-48.92 60.47-48.13 81.41-16.91-.08-8.05 2.64 21.62 1.13 6.83-1.52-14.8-20.01-28.32-42.07-28.66zm-5.59 115.1c-12.62-1.95-16.62-2.72 7.29 1.9 19.25 3.7 31.85-5.06 40.98-16.16-5.6 6.37-25.91 15.76-48.27 14.26z"/></g></g><g clip-path="url(#H)" style="display:block" transform="matrix(-1 0 0 1 1976 -43.5)"><path fill="#FFCBA3" d="M219.76-328.36c5.97 0 10.8 4.89 10.8 10.92s-4.83 10.92-10.8 10.92c-5.96 0-10.8-4.89-10.8-10.92s4.84-10.92 10.8-10.92z" style="display:block" transform="rotate(.85 -31783.87 68002.69)"/><path fill="#FFB100" d="M232.4-320.43c-6.37-4.45-11.54-2.33-14.37 1.14-2.83 3.48-3.66 10 2.26 14.45 5.91 4.47 18.6 17.61 27.1 27.95a11.3 11.3 0 0 0 16.23.69c5.5-5.06 3.4-12.55.45-16.66-5.98-8.3-25.28-23.11-31.66-27.57z" style="display:block" transform="rotate(.85 -31784.12 68036.37)"/><path fill="#3D3D3D" d="M173.35-316.4a17.31 17.31 0 1 1-34.63 0 17.31 17.31 0 0 1 34.63 0zm-19.8-8.76a32.65 32.65 0 0 1-2.86-46.08l22.65-26.7a32.64 32.64 0 1 1 47.02 45.22l-1 .6a94.76 94.76 0 0 0-10.58 11.98l-7.42 9.99a32.65 32.65 0 0 1-47.82 5z" style="display:block" transform="rotate(.85 -39173.8 69834.03)"/><path fill="#E89665" d="M170.12-403.65c2.09.94 3 3.42 2.05 5.52-.95 2.11-6.99 5.39-6.99 5.39s-1.52-6.7-.56-8.8a4.17 4.17 0 0 1 5.5-2.11z" style="display:block" transform="rotate(1 -33205.02 59544.77)"/><path fill="#FFCBA3" d="M219.59-404.1a45.04 45.04 0 0 0-45.05 78.02l29.2 16.85 45.04-78.02-29.2-16.86z" style="display:block" transform="rotate(.85 -39145.3 69741.14)"/><g style="display:block"><path fill="#FFB100" d="M1225.32 207.1c-20.55 27.17-22.27 90.92 46.33 114.89l36.06-56.97 34.51-61.42c-52.42-29.85-90.82-30.98-116.9 3.5z"/><path fill="#FFF" d="M1262.66 202.41c2.06 2.1 1.78 5.73-.64 8.1-2.41 2.38-6.05 2.6-8.11.51-2.07-2.1-1.78-5.73.64-8.1 2.41-2.38 6.04-2.6 8.1-.5zm-32.84-8.6c24.94 14.37 47.59-7.45 37.48-12.41-3.97.18-9.57 2.07-14.33 3.57-9.7-1.16-18.06 3.66-23.15 8.85zm-15.64 30.58c19.05 10.65 44.08-20.43 23.37-32.35-5.07 2.98-18.75 14.9-23.37 32.35z"/><path fill="#FF9500" d="M1293.25 255.87c-19.55 32.73-31.36 60.34-22.02 65.92 9.33 5.57 29.69-17.71 49.24-50.45 19.55-32.73 30.9-62.5 21.56-68.09-9.34-5.57-29.23 19.89-48.78 52.62zm-40.23-70.9c16.82 1.15 40.49 10.1 56.6 18.54a8 8 0 0 0 8.16-.45c2.9-1.94 5.37-5.74 9.82-7.32-30.35-14.93-54.8-18.6-74.58-10.77zM1217.73 221c-10.41 26.9-6.28 67.9 33.57 91.61-3.84-14.82 11.98-42.8 17.87-56.51a8 8 0 0 0-3.54-10.2c-9.92-5.35-32.76-18.89-47.9-24.9z"/></g><path fill="#FFCBA3" d="M208.59-408.86c-7.84-3.64-36.84-2.64-50.54 21.24a45.1 45.1 0 0 0 16.49 61.54s2.21 1.58 4.2 2.6C165-376.5 201.24-403.25 213.77-407c-1.28-1-5.2-1.86-5.2-1.86z" style="display:block" transform="rotate(.85 -39173.55 69800.36)"/><g style="display:block"><path fill="#9F9F9F" d="M1190.98 210.77c-6.07 16.84-1.98 36.62 11.35 48.8 4.28-18.07 2.92-38.8-11.35-48.8z"/><path fill="#B23232" d="m1221.46 200.6 1.13 3.37a5.85 5.85 0 0 1-4.1 7.47 6.48 6.48 0 0 1-7.92-4.02l-1.12-3.37a5.85 5.85 0 0 1 4.09-7.47 6.48 6.48 0 0 1 7.92 4.02z"/></g><g mask="url(#I)" style="display:block"><path fill="#F14C4C" d="M1215.28 206.46a6.5 6.5 0 0 1 5.29 3.93 6 6 0 0 1-10.5-1.46l-.19-.5a6.5 6.5 0 0 1 5.4-1.97z"/></g><g mask="url(#J)" style="display:block"><path fill="#FFF" d="M1197.65 181.78c2.66-4.62 5.89-7.76 7.22-7 .04.04 1.74 1.03 1.79 1.06 1.26.73.02 5.2-2.54 9.66s-5.8 7.79-7.06 7.06l-1.8-1.02c-1.34-.76-.26-5.13 2.4-9.76zm-12.01 21.07c2.65-4.62 5.88-7.76 7.21-7l1.8 1.06c1.26.73.01 5.2-2.54 9.66-2.56 4.45-5.8 7.79-7.06 7.06l-1.81-1.02c-1.33-.77-.26-5.13 2.4-9.76z"/><path fill="#4B4B4B" d="M1187.43 200.86c1.27-2.22 2.82-3.72 3.45-3.35l1.26.65c.61.34.01 2.49-1.21 4.62-1.23 2.14-2.78 3.74-3.38 3.39l-1.27-.64c2-2.42 2.65-5 1.15-4.67zm9.37-16.5c1.27-2.21 2.82-3.71 3.45-3.35l1.26.65c.61.35.01 2.5-1.21 4.63-1.23 2.13-2.78 3.73-3.38 3.38l-1.27-.63c2-2.43 2.65-5 1.15-4.68z"/><path fill="none" stroke="#E89665" stroke-linecap="round" stroke-linejoin="round" stroke-width="3" d="m-50.35 5.57 8.89 4.25-8.99 3.3M24.5 6.53 17.39 8.8l8.05 3.7" transform="matrix(.43282 -.7542 .21683 .12443 1199.48 183.93)"/></g><path fill="#FFCBA3" d="M192.88-315.78c7.2 0 13.03 5.9 13.03 13.17a13.1 13.1 0 0 1-13.03 13.17 13.1 13.1 0 0 1-13.03-13.17 13.1 13.1 0 0 1 13.03-13.17z" style="display:block" transform="rotate(.85 -35734.37 64773.59)"/><path fill="#FFB100" d="M205.24-314.45c-9.36-.24-11.47 5.93-11.73 11.3-.27 5.38 1 11.82 9.9 12.38 8.9.56 35.65 4.17 48.42 5.86 5.2.67 12.24-2.34 13.35-9.91 1.11-7.57-5.38-12.18-10.38-13.54-10.1-2.76-40.2-5.84-49.56-6.09z" style="display:block" transform="rotate(.85 -35768.55 64840.7)"/><path fill="none" stroke="#FF9500" stroke-linecap="round" stroke-linejoin="round" stroke-width="12" d="M370.75-299.25s6.52 2.5 12 6.25" style="display:block" transform="rotate(8.03 -3047.18 6821.45)"/><path fill="none" stroke="#FF9500" stroke-linecap="round" stroke-linejoin="round" stroke-width="12" d="M349-258.75s4.94 6.48 8 12.25" style="display:block" transform="rotate(-12.79 3241.83 -4286.2)"/><g style="display:block"><path fill="none" stroke="#00BDFF" stroke-linecap="round" stroke-linejoin="round" stroke-width="7" d="m1168.62 160.32 6.45-3.47m-.29 13.53 5.58-3.3m-6.15 9.93c10 6.02 16.06-4.32 20.95-.92"/><path fill="#00BDFF" d="M1122.22 191.54a2.6 2.6 0 0 1-3.08-3.48l2.23-5.51 6.59 7.47-5.74 1.52zm-4.71-8.73a2.6 2.6 0 0 1 .45-4.63l5.55-2.12-.97 9.91-5.03-3.16zm25.15 13.08a18.2 18.2 0 1 1-9.67-35.08s11.46-3.07 19.54-7.12c8.08-4.04 19.82-2.18 24.9 6.48 5.09 8.67 1.81 19.6-6.48 24.9-8.29 5.3-28.29 10.82-28.29 10.82z"/><path fill="#FFF" d="M1141.5 187.76a6.17 6.17 0 0 1-7.94-3.63l-2.57-6.9a6.17 6.17 0 1 1 11.57-4.3l2.57 6.9a6.17 6.17 0 0 1-3.63 7.93z"/><path fill="#FFA3A3" d="M1135.72 178.3c.57.24.82.92.54 1.48l-.75 1.52c-.42.86-1.65.8-1.98-.1l-.82-2.19a1.08 1.08 0 0 1 1.44-1.37l1.57.66z"/><path fill="#00729A" d="M1131.78 183.84a2.27 2.27 0 1 0-4.48-.76 2.27 2.27 0 0 0 4.48.76zm-1.34-3.75a2.27 2.27 0 1 0-4.48-.76 2.27 2.27 0 0 0 4.48.76z"/></g></g><g clip-path="url(#K)" style="display:block" transform="matrix(-1 0 0 1 1916 -23.5)"><g style="display:block"><path fill="#4CC5FF" d="M1601.1 780.25a11.06 11.06 0 0 1 15.64-.54l16.92 15.78a11.06 11.06 0 0 1 .55 15.63l-4.02 4.31c-8.32 8.66-14.85 4.26-25.8-3.45-10.19-8.19-16.18-17.18-8.63-25.84l5.35-5.9z"/><path fill="#1CB0F6" d="M1612.53 798.22c-7.51-6.67-8.97-13.92-5.32-18.09 5.7-6.52 19.54-20.75 28.81-27.8 6.18-4.68 27.31-13.48 49.52-18.5a18.22 18.22 0 0 1 8.04 35.53c-12.05 2.73-32.02 10.44-35.9 12.31-3.01 2.8-16.06 14.37-23.14 22.48-4.57 5.24-15.21.09-22-5.93z"/><path fill="none" stroke="#FF4B4B" stroke-linecap="round" stroke-width="12.77" d="M1579.49 812.25c7.69 6.84 19.97 5.34 19.97 5.34"/></g><g style="display:block"><path fill="#A46648" d="m1660.49 670.58 24.75 38.33a12.09 12.09 0 0 0 19.66-14.08l-29.99-33.17a8.48 8.48 0 1 0-14.42 8.92z"/><path fill="none" stroke="#A46648" stroke-linecap="round" stroke-linejoin="round" stroke-width="7.35" d="m1651.7 660.1 9.3 4.21m-2.78-15.95 1.32 9.94m5.74-10.8-.87 11.7m7.59-7-2.79 6.76"/></g><g style="display:block"><path fill="#3D3D3D" d="m1722.64 645.12 25.43-19.28a21.1 21.1 0 0 1 29.55 4.09l6.82 9a21.1 21.1 0 0 1-4.09 29.56l-8.05 6.1a21.1 21.1 0 0 1-29.55-4.1l-20.11-25.37zm9.4-5.66-13.92 45.37-27.35-9.01a19.17 19.17 0 0 1-11.62-24.49l3.44-9.67a19.16 19.16 0 0 1 24.49-11.62l24.96 9.42zm25.63 19.7c1.33 10.5-50.41 17.06-51.74 6.56l-4.28-33.72a19.17 19.17 0 0 1 16.6-21.42l13.72-1.74a19.17 19.17 0 0 1 21.42 16.6l4.28 33.73z"/><path fill="#A46648" d="m1737.14 713.73-37.29-11.86a17.5 17.5 0 0 1-11.93-19.67l4.2-24.1a14.64 14.64 0 0 1 10.5-11.3l27.6-7.55a19.87 19.87 0 0 1 18.44 4.31l11.56 13.24a26.8 26.8 0 0 1 5.3 25.95l-6.4 19.6a17.5 17.5 0 0 1-21.98 11.38z"/><path fill="#FDB02A" d="m1764.37 686.26 1.15-3.51a26.8 26.8 0 0 0-5.3-25.95l-11.56-13.24a19.87 19.87 0 0 0-18.45-4.3l-14.33 3.91c11.48 2.6 33.55 11.05 48.5 43.1zm-48.49-43.09-13.27 3.64a14.64 14.64 0 0 0-10.5 11.3l-1.44 8.29c8.03-11.94 25.21-23.23 25.21-23.23zm.7-1.44c.23.69-.24 1.37-.97 1.46-6.5.9-14-2.64-15.62-10.24-.16-.71.23-1.42.96-1.47 9.67-.56 13.82 5.07 15.62 10.25zm-.59 1.39a1.1 1.1 0 0 1-1.47-.97c-.32-4.18.16-12.24 10.25-15.62a1.1 1.1 0 0 1 1.46.96c.6 7.65-2.92 13.07-10.24 15.63z"/><path fill="#A46648" d="M1762.95 676.42a8.15 8.15 0 1 1-15.29-5.65 8.15 8.15 0 0 1 15.3 5.65z"/></g><g style="display:block"><path fill="#FFF" d="M1714.1 661.37a8.14 8.14 0 0 1 7.53-7.52c3.89-.15 6.66 3.04 6.07 7l-1.14 7.73a7.71 7.71 0 0 1-7.06 6.48c-3.44.13-6.45-1.3-6.27-4.78l.87-8.9z"/><path fill="#A46648" d="M1712.37 673.66c1.58-2.65 11.49-6.27 15.68-5.54l-3.91 9.48c-6.19 1.5-11.77-3.94-11.77-3.94z"/><path fill="none" stroke="#86401F" stroke-linecap="round" stroke-width="4" d="M1697.84 668.6c4.2-3.32 8.6.38 8.6.38"/><path fill="#86401F" d="M1710.77 669.36c.1 0 2.07 3.35 1.92 4.68a2.43 2.43 0 0 1-4.82-.53c.15-1.33 2.8-4.17 2.9-4.15zm-.34 7.13-2.1.19a2.5 2.5 0 0 1-.44-4.98l2.09-.19a2.5 2.5 0 0 1 .45 4.98z"/><path fill="#A41414" d="M1725.78 679.45c-1.38 5.98-11.28 10.67-18.62 6.68-2.17-1.18-1.46-4.2.84-5.09a23.94 23.94 0 0 0 8.42-5.71c2.52-2.56 5.79-3.34 7.91-.97a5.53 5.53 0 0 1 1.45 5.1z"/><path fill="none" stroke="#3D3D3D" stroke-linecap="round" stroke-width="6.09" d="m1722.07 660.51-.26 4.97"/><path fill="#E64340" d="M1715.4 684.05c-1.44-2.3 0-5.83 3.25-7.87 2.13-1.34 4.5-1.7 6.28-1.15.8 1.15 1.26 2.6.9 4.4-.74 3.67-4.26 5.72-5.85 6.47-1.95.17-3.7-.45-4.57-1.85z"/><path fill="#E7E7E7" d="M1720.63 676.95a5.57 5.57 0 0 1-9.22 2.42 19.68 19.68 0 0 0 5.06-4.07c2.23-2.33 5.8-3.35 7.91-.97.3.33.56.69.8 1.08-.34.35-1.46 2.3-4.55 1.54z"/></g><path fill="#FDB02A" d="m749.54 173.4-6.23 3.95a24.74 24.74 0 0 1-34.14-7.68l-3.94-6.23a24.47 24.47 0 0 1 7.59-33.77 32.12 32.12 0 0 1 44.32 9.96 24.47 24.47 0 0 1-7.6 33.77zm-2.5-9.68-33.43-7.52 4.6-20.5a17.13 17.13 0 1 1 33.43 7.52l-4.6 20.5z" style="display:block" transform="rotate(4.59 -5888.06 12639.29)"/><path fill="#1CB0F6" d="M740.47 155.97a28.16 28.16 0 1 1-42.13 37.37 28.16 28.16 0 1 1 42.13-37.37z" style="display:block" transform="rotate(4.59 -5894.29 12639.04)"/><g style="display:block"><path fill="none" stroke="#A46648" stroke-linecap="round" stroke-linejoin="round" stroke-width="13" d="m1760.71 730.73 5.39-24.59m3.81 24.68 13.9-13.73"/><path fill="#A46648" d="m1727.31 728.28 13.82 23.02 30.3-24.2s-30.42-10.22-32.43-10.57c-3.04-.93-6.55-1.47-9.28.5a8.59 8.59 0 0 0-2.4 11.25zm52.83 12.36-.04-.41a22.71 22.71 0 0 0-6.95-14.2 20.22 20.22 0 0 0-15.73-5.6c-11.28 1.02-18.93 11.46-17.7 23.34l.04.4c1.24 11.88 10.91 21 22.2 19.98 11.28-1.02 19.42-11.55 18.18-23.5z"/><path fill="none" stroke="#86401F" stroke-linecap="round" stroke-width="4" d="m1746 734.98 12.64-6.15a6.78 6.78 0 0 1 8.86 2.77s0 0 0 0a6.07 6.07 0 0 1-2.76 8.42l-12.64 6.16"/></g><g style="display:block"><path fill="#1CB0F6" d="M1696.26 769.45a19.99 19.99 0 0 1-20.8-13.08c-1.2-3.28-2.73-7.23-4.67-11.26-5.99 4.95-8.47 11.18-13.46 17.4a19.95 19.95 0 1 1-31.1-24.99c.3-.36 8.64-9.07 16.81-17.53 16.15-16.72 25.31-23.42 35.18-22.34 5.2.57 9.96 3.07 13.35 6.94 11.38 12.58 17.69 27.79 21.45 38.16a19.98 19.98 0 0 1-16.76 26.7z"/><path fill="none" stroke="#0395DB" stroke-linecap="round" stroke-linejoin="round" stroke-width="4" d="m1658.14 758.91 12.04-15.44s6.6 21.57 14.49 23.65"/><path fill="#5EC6FF" d="M1648.18 776.47c-3.01 3.74-13.05.63-22.43-6.94-9.38-7.56-14.54-16.72-11.52-20.45.77-.96 9.9-12.08 11.81-14.34 3.08-3.63 13.14-.25 22.14 6.85s14.43 16.36 11.48 20.44c-2.95 4.08-11.08 13.94-11.48 14.44z"/><path fill="none" stroke="#33B4F7" stroke-linecap="round" stroke-width="4.08" d="M1619.65 750.12c4.3.63 10 3.39 15.4 7.78 5.4 4.4 9.25 9.41 10.74 13.5"/><path fill="none" stroke="#FF4B4B" stroke-linecap="round" stroke-width="13.05" d="M1607.09 756.92c6.44 7.34 16.44 13.36 16.44 13.36"/></g></g><g clip-path="url(#L)" style="display:block" transform="matrix(-1 0 0 1 1916 -23.5)"><path fill="#FFB7E3" d="M467.02-248.93s-21.29-1.27-52.28-3.17c-15.68-.96-21.74 12.6-21.14 21.89.6 9.28 9.34 23.2 24.42 18.78 30.52-8.92 62.3-17.74 62.3-17.74l-13.3-19.76z" style="display:block" transform="rotate(14.35 -1303.19 3916.58)"/><g style="display:block"><path fill="#FFB7E3" d="M1394.25 303.69c-29.58-9.48-52.23-15.13-62.56-18.15-10.33-3.03-22.29 12.42-24.19 27.67-1.91 15.36 6.36 27.77 17.44 28.56 11.24.8 30.7 3.13 62.4 2.14 15.64-.5 20.3-9.08 21.95-16.4 1.65-7.32-.03-19.02-15.04-23.82z"/><path fill="#FF9BDE" d="M1338.4 319.98c-4.42 11.85-13.95 18.64-21.3 15.16-7.35-3.48-9.73-15.92-5.32-27.77 4.41-11.86 13.95-18.65 21.3-15.16 7.34 3.48 9.72 15.91 5.31 27.77z"/></g><path fill="none" stroke="#FF7AD5" stroke-linecap="round" stroke-linejoin="round" stroke-width="26.25" d="M332.1-229.74c4-8.5 8.23-18.91 13.12-28.35" style="display:block" transform="rotate(-12.88 3190.94 -4288.95)"/><path fill="none" stroke="#FF86D0" stroke-linecap="round" stroke-linejoin="round" stroke-width="15" d="M502.88-191.05c.38-4.65-.54-10.66-2.32-15.57" style="display:block" transform="rotate(-25.37 2272.17 -2076.91)"/><path fill="#FFB7E3" d="M477.64-216.17c-7.62 5.84 0 0 0 0s-18.64 14.67-50.04 24c-8.3 2.46-15.8 6.76-15.95 15.43a15.68 15.68 0 0 0 15.43 15.94c28.67.43 61.8-23.57 70.1-30.8 7.12-6.22 7.9-15.27 2.5-22.05-5.4-6.78-14.43-8.35-22.04-2.52z" style="display:block" transform="rotate(12.28 -1703.8 4601.34)"/><path fill="#FFB7E3" d="M457.46-227.35c-11.62 5.88-32.27 15.7-43.28 41.14-11 25.45 20.78 26.54 27.12 15 7.7-14.04 24.27-24.12 27.13-26.05 17.15-11.24 6.3-41.16-10.96-30.1" style="display:block" transform="rotate(8.35 -2943.8 6735.16)"/><path fill="#FFB3E6" d="M528.6-252.52c-1.32-2.08 4.66-9.7 4.66-9.7l14.96 10.26a12.76 12.76 0 0 0 7.22 2.24h22.2c4.77 0 7.82 5.1 5.57 9.3l-2.78 5.2a32.34 32.34 0 0 0-3.44 10.25 10.14 10.14 0 0 1-13.13 8.08l-5.29-1.7a42.08 42.08 0 0 1-26.15-24.4l-3.81-9.53z" style="display:block" transform="rotate(-5.63 6853.17 -9902.74)"/><g style="display:block"><path fill="#FFB7E3" d="M1470.8 303.36a40.98 40.98 0 0 1 3.48 57.86c-7.27 8.2-20.6 14.12-33.5 10.42-13.81-3.97-22.21-16.75-27.66-27.07-3.26-6.16-5.35-11.58-6.2-18.36-.87-6.78 1.2-14.26 6.02-19.36 15.55-16.44 40.91-18.5 57.85-3.49z"/><path fill="#FF86D0" d="M1483.89 341.61c.35-1.86.56-3.74.65-5.63l-5.99-16.02-17.64-23.08a40.5 40.5 0 0 0-3.75-1.53l-5.9-1.58-.07-.01c-8.54 6.9-10.77 20.5-4.23 31.37 7.7 12.78 20.65 20.33 36.93 16.48z"/><path fill="#FFB3E6" d="M1459.67 331.7a.67.67 0 0 1 .98.03l2.56 2.97c.23.26.22.66-.03.9l-4.66 4.7a.67.67 0 0 1-.95 0l-2.75-2.75a.67.67 0 0 1 0-.94l4.85-4.9zm-11.56-23.62c.37-.13.77.07.87.45l1.04 3.78c.1.34-.09.69-.42.8l-6.22 2.23a.67.67 0 0 1-.86-.4l-1.3-3.66a.67.67 0 0 1 .4-.85l6.49-2.35z"/><path fill="#1CB0F6" d="M1459.91 289.05c27.49-.48 38.94 23.32 30.7 42.33l-1.05 2.44c-3.66 8.46-23.58 10.81-35.28-7.84-13.79-19.99-4.73-36.32 5.63-36.93z"/></g><path fill="none" stroke="#1CB0F6" stroke-linecap="round" stroke-linejoin="round" stroke-width="21" d="M504.49-354.82s-6.26 26.03-8.39 38.33c-2.16 12.47-4.5 36-4.5 36" style="display:block" transform="rotate(4.35 -6523.73 12864.49)"/><path fill="none" stroke="#1CB0F6" stroke-linecap="round" stroke-width="21" d="M510.4-244.43s24.78 4.37 37.17 7.07c14.81 3.23 44.39 10.72 44.39 10.72" style="display:block" transform="rotate(4.35 -6523.73 12864.49)"/><path fill="#E18E70" d="M495.07-354.74a16.7 16.7 0 1 1-25.17-21.96 16.7 16.7 0 0 1 25.17 21.96z" style="display:block" transform="rotate(4.35 -6525.97 13201.45)"/><path fill="#E18E70" d="M592.5-232.9a18.43 18.43 0 1 1 26.06-26.05 18.43 18.43 0 0 1-26.07 26.05z" style="display:block" transform="rotate(4.35 -6791.05 12672.6)"/><path fill="#FFB3E6" d="M606.93-297.91a65.78 65.78 0 1 1-127.19-33.64 65.78 65.78 0 0 1 127.2 33.64z" style="display:block" transform="rotate(12.34 -1637.46 4499.94)"/><g style="display:block"><path fill="#E18E70" d="M1529.52 237.95c14.69 16.76 12.8 42.61-4.23 57.74-17.03 15.13-39.37 15.06-54.06-1.7-14.69-16.75-16.17-43.86.86-58.99 17.02-15.13 42.74-13.8 57.43 2.95z"/><path fill="#A70000" d="M1473.04 289c-1.73 3.33.26 10.7 13.34 15.55 13.08 4.86 17.64-3.73 18.65-5.68 1.01-1.95 4.12-10.52-2.34-12.92-5.05-1.87-12.83 2.1-19.1-.23-6.28-2.33-8.81-.07-10.55 3.27z"/><path fill="#FFF" d="M1502.7 285.95c-2.4-.88-5.4-.46-8.56-.02-3.52.5-7.25 1.01-10.56-.21-2.9-1.08-5-1.17-6.6-.63 1.27 2.11 4.08 4.55 8.4 6.55 7.79 3.55 15.68 2.75 20.57.27.77-3.04-1.24-5.21-3.25-5.96z"/><path fill="#9E4D31" d="M1484.66 270.2c.07.15-1.68 5.67-3.4 7.41-1.7 1.73-5.4.39-6.42-1.51-1.02-1.9-.08-3.17 1.94-4.1 1.55-1.06 7.8-1.94 7.88-1.8zm-9.7-18.74c-.72-.15-1.02-.9-.68-1.66.34-.76 1.2-1.26 1.92-1.1 5.14 1.1 7.55 4.33 8.41 7.9.85 3.52.22 7.35-.64 9.84-.26.77-1.08 1.35-1.84 1.27-.74-.07-1.14-.76-.87-1.53.7-2.08 1.25-5.36.53-8.32-.7-2.9-2.6-5.49-6.83-6.4zm33.51 29.56c.38.7 1.3.98 2.06.63s1.08-1.2.7-1.9a16.87 16.87 0 0 0-11.8-8.79 22.8 22.8 0 0 0-11.28.61c-.8.27-1.22 1.08-.94 1.82.29.74 1.17 1.12 1.97.86 2.2-.73 5.88-1.28 9.57-.51 3.63.75 7.3 2.77 9.72 7.28z"/><path fill="#3B3B3B" d="M1550.5 268.65c.28-2.38-1.75-4.53-3.8-4.79-1.54.1-3.34-.63-5.4-2.13-3.4-2.3-3.2-25.84-27.13-36.56-9.2-4.59-24.62-4.65-27.76 1.87-6.21 12.88-2.74 36.5 24.52 48.26 25.56 11.45 36.44.76 39.57-6.65z"/></g></g><g clip-path="url(#M)" style="display:block" transform="matrix(-1 0 0 1 1916 -23.5)"><g clip-path="url(#N)" mask="url(#O)" style="display:block"><path fill="none" stroke="#3D3D3D" stroke-linecap="round" stroke-linejoin="round" stroke-width="24" d="M541.75 368c5.75 8.75 18.25 20.25 18.25 20.25s13-6 19.75-15" style="display:block" transform="translate(975 551.5)"/><path fill="#3D3D3D" d="M522.75 276.25a32.25 32.25 0 1 1 0 64.5 32.25 32.25 0 0 1 0-64.5zM558.13 293c26.76-1.3 48.62 11.14 48.62 34.13 0 22.98-23.46 30.26-46.38 28.37-51.62-4.25-64.12-59.5-2.25-62.5z" style="display:block" transform="translate(971.5 545)"/><path fill="#DB8D74" d="M521.5 303c-16.5 11-42 12.5-66 13.5s-53.83 22.53-51 52c2.5 26 27.5 43 54.5 43.5 30.01.56 61-2.5 100.5-24s36.5-55.5 23.5-77-45-19-61.5-8z" style="display:block" transform="translate(975 551.5)"/><g mask="url(#P)" style="display:block"><path fill="#FFAADE" d="M1492.5 854.5c13.32-2.4-152.07-42.15-142.5 67 11 125.5 215.44 30.85 181 38-18.75 3.9-37.5 2.22-51.98-5.1a52.71 52.71 0 0 1-8.24-5.13 46.81 46.81 0 0 1-6.74-6.26c-6.81-7.74-11.06-17.9-11.54-30.51-.98-25.8 20.5-54.5 40-58zm-31.92 3.64S1345 834 1349.5 920s139.45 52.79 139.45 52.79-71.45-13.79-71.3-57.18c.16-42.62 42.93-57.47 42.93-57.47zm-38.43 17.95-4.67 5.16 11.08 1.18 4.35-5.39-10.76-.95zm22.45-17.85s-100.1-4.74-92.1 62.26 114.9 53.4 114.9 53.4-57.43-15.55-58.35-59.05c-.79-37.71 35.55-56.6 35.55-56.6zm-26.93 54.6-10.78.7.7 8.84 10.51-1.46-.43-8.07z"/><path fill="#A56641" d="M1460.58 858.14S1345 834 1349.5 920s139.45 52.79 139.45 52.79-71.45-13.79-71.3-57.18c.16-42.62 42.93-57.47 42.93-57.47z"/><path fill="#2CE69B" d="m1422.15 876.1-4.67 5.15 11.08 1.18 4.35-5.39-10.76-.95zm22.45-17.86s-100.1-4.74-92.1 62.26 114.9 53.4 114.9 53.4-57.43-15.55-58.35-59.05c-.79-37.71 35.55-56.6 35.55-56.6zm-26.93 54.6-10.78.7.7 8.84 10.51-1.46-.43-8.07z"/></g><g mask="url(#Q)" style="display:block"><path fill="#3D3D3D" d="M1495 807c-23.5 1.25-32.5 22.01-33.25 36.25-.75 14.25 1.25 30 20 39 19.68 9.45 45-1 49.5-31 3.25-21.65-12.75-45.5-36.25-44.25z"/></g><path fill="#3D3D3D" d="M557.75 265.5a30.69 30.69 0 0 1 30.75 30.63 30.69 30.69 0 0 1-30.75 30.62A30.69 30.69 0 0 1 527 296.12a30.69 30.69 0 0 1 30.75-30.62z" style="display:block" transform="translate(971.5 545)"/><path fill="#DB8D74" d="M512.02 320.5a12.02 12.02 0 1 1 0 24.04 12.02 12.02 0 0 1 0-24.04z" style="display:block" transform="matrix(.75 0 0 .75 1099.5 627.38)"/><g style="display:block"><path fill="#B82C2C" d="M1511.92 910.56a2.5 2.5 0 0 1 3.03 1.85l7.11 29.68a2.5 2.5 0 0 1-1.86 3.02l-.28.07a17.77 17.77 0 0 1-8.29-34.56l.29-.06z"/><path fill="#FD5050" d="M1504.4 941.55a17.69 17.69 0 0 1-5.9-9.5 17.71 17.71 0 0 1 2-13.24 17.65 17.65 0 0 1 5.92 9.51c1.13 4.7.27 9.4-2.02 13.23z" opacity=".8"/></g><path fill="none" stroke="#3D3D3D" stroke-linecap="round" stroke-linejoin="round" stroke-width="24" d="M541.75 368c5.75 8.75 18.25 20.25 18.25 20.25l-2.48-2.35" style="display:block" transform="translate(975 551.5)"/><g style="display:block"><path fill="#FFF" d="M1545.74 926.94s5.18-3.32 9.96-6.65a78.45 78.45 0 0 0 9.63-21.23c-2.64 1.32-7.74 7.56-9.72 10.95l-9.87 16.93zm4.92-28.5a8.99 8.99 0 0 0-13.54 1.76l-7.85 11.6c9.4 5.4 12.27 13.17 12.27 13.17l9-14.09c2.18-3.25 3.24-9.73.12-12.44z"/><path fill="#3D3D3D" d="M1555.35 911.97c1.5-2.38 3.53-3.8 4.55-3.15 1.02.64.64 3.09-.85 5.47l-.94 1.5c-1.5 2.38-3.53 3.8-4.55 3.16-1.03-.64-.64-3.1.85-5.48l.94-1.5zm-14.2-.85c1.5-2.38 4.02-3.5 5.64-2.48s1.72 3.77.23 6.15l-.94 1.5c-1.5 2.39-4.02 3.5-5.64 2.48-1.62-1.01-1.72-3.77-.23-6.15l.94-1.5z"/></g><path fill="none" stroke="#3D3D3D" stroke-linecap="round" stroke-linejoin="round" stroke-width="12" d="M568.75 333.5s7.5-2 11.5 1m17.6 3.47s7.35 2.52 9 7.23" style="display:block" transform="translate(971.5 546.5)"/><path fill="#DB8D74" d="M571.3 372.25a7.25 7.25 0 0 1 7.29 7.19 7.24 7.24 0 0 1-7.3 7.18 7.24 7.24 0 0 1-7.29-7.18 7.24 7.24 0 0 1 7.3-7.19z" style="display:block" transform="matrix(1.1 0 0 1.1 917.87 513.06)"/></g><g style="display:block"><path fill="#DB8D74" d="M1426.5 951.25c-8 .66-18.7 6.31-15.75 16.75 2.65 9.37 13.05 8.11 20.83 5.1 3.67 4.9 9.67 1.65 7.67-3.35-3.35-8.37-5.7-19.08-12.75-18.5z"/><path fill="none" stroke="#FFAADE" stroke-linecap="round" stroke-linejoin="round" stroke-width="25" d="m1440.25 930.75-6.5 27"/></g></g></g></svg>