<svg xmlns="http://www.w3.org/2000/svg" width="916" height="939" style="width:100%;height:100%;transform:translate3d(0,0,0);content-visibility:visible"><defs><clipPath id="a"><path d="M0 0h916v939H0z"/></clipPath><clipPath id="b"><path d="M0 0h916v939H0z"/></clipPath><clipPath id="d"><path d="M0 0h440v476H0z"/></clipPath><clipPath id="c"><path d="M0 0h645v698H0z"/></clipPath></defs><g clip-path="url(#a)"><g clip-path="url(#b)" style="display:block"><g opacity=".3" style="display:block"><path fill="#AFAFAF" d="M448.687 935.173c83.978 0 152.057-53.009 152.057-118.395 0-65.385-68.079-118.394-152.057-118.394s-152.056 53.009-152.056 118.394c0 65.386 68.078 118.395 152.056 118.395z" opacity="1"/></g><path fill="#F49000" d="M0-9.58a7.15 7.15 0 0 0-7.149 7.149v4.862a7.15 7.15 0 0 0 14.298 0v-4.862A7.15 7.15 0 0 0 0-9.58z" style="display:block" transform="rotate(38.147 -1046.474 1001.802) scale(3.12)"/><path fill="#F49000" d="M0-9.58a7.15 7.15 0 0 0-7.149 7.149v4.862a7.15 7.15 0 0 0 14.298 0v-4.862A7.15 7.15 0 0 0 0-9.58z" style="display:block" transform="scale(-3.12 3.12) rotate(38.147 -478.878 -94.585)"/><path fill="#58CC02" d="M0-46.177c-5.403 0-9.466-.919-13.344-2.302-3.54-1.262-6.927-2.469-11.037-2.469-13.78 0-18.197 15.459-18.02 20.538V5.764c0 35.299 28.709 44.831 42.401 45.184 13.692-.353 42.401-9.885 42.401-45.184V-30.41c.177-5.079-4.24-20.538-18.02-20.538-4.11 0-7.497 1.207-11.037 2.469C9.466-47.096 5.403-46.177 0-46.177z" style="display:block" transform="matrix(3.10802 .3134 -.31263 3.1005 464.026 723.622)"/><g style="display:block"><path fill="#58CC02" d="M285.022 696.617c-21.008.445-15.14 35.51.981 60.567 14.994 23.306 54.275 44.26 68.555 46.848l116.082 17.084 15.982-126.072s-180.592 1.128-201.6 1.573z"/></g><path fill="#58CC02" d="M-14.824 10.439C-17.636 16.55-5.091 21.65 4.03 18.811c7.638-2.378 17.334-7.52 18.436-10.188L53.21-27.958 12.938-47.826s-24.95 52.154-27.762 58.265z" style="display:block" transform="matrix(-3.12333 .04711 .04874 3.11594 573.438 791.927)"/><g style="display:block"><path fill="#8EE000" d="m465.316 830.73 32.567-1.511c1.747-.08 3 1.318 2.479 2.763-2.51 6.944-9.983 12.008-18.589 12.406-8.605.398-16.196-3.966-18.866-10.67-.557-1.395.663-2.909 2.41-2.989z"/><path fill="#89E219" d="M465.015 850.867c-12.303-1.305-16.982-1.713-29.445-2.971-10.902-1.1.473 10.919 12.936 12.177 12.462 1.258 24.864-8.32 16.509-9.206z"/><path fill="#8EE000" d="m408.136 820.364 31.779 7.284c1.704.392 2.53 2.074 1.635 3.325-4.307 6.01-12.884 8.878-21.28 6.952-8.398-1.926-14.521-8.162-15.268-15.33-.157-1.493 1.43-2.623 3.134-2.231z"/></g><g clip-path="url(#d)" style="display:block" transform="matrix(.777 .07835 -.07816 .77512 308.992 536.218)"><path fill="#89E219" d="M9.372-13.906c-5.343 4.932-13.893 4.932-18.743 0-3.206-3.288-2.877 6.248.987 28.444h8.303c5.754-.082 8.631 0 8.631 0 0 .164 6.165-33.376.822-28.444z" style="display:block" transform="matrix(4 0 0 4 221.832 193.013)"/><path fill="#89E219" d="M-8.312 5.786 4.759-8.765c.74-.74 1.973-.657 2.384.329 2.548 4.357 1.973 9.865-1.48 13.729C2.21 9.157-3.215 10.307-7.819 8.252c-.904-.493-1.233-1.726-.493-2.466z" style="display:block" transform="matrix(4 0 0 4 316.573 135.621)"/><path fill="#89E219" d="M-8.312 5.748 4.759-8.72c.658-.74 1.891-.657 2.384.247 2.548 4.357 1.973 9.864-1.48 13.728C2.21 9.119-3.215 10.269-7.819 8.214c-.904-.493-1.233-1.726-.493-2.466z" style="display:block" transform="matrix(4 0 0 4 286.321 121.631)"/><path fill="#89E219" d="M8.32 5.748-4.997-8.72c-.74-.74-1.645-.657-2.22.247-2.466 4.357-1.891 9.864 1.562 13.728 3.453 3.864 8.878 5.014 13.482 2.959.904-.493 1.233-1.726.493-2.466z" style="display:block" transform="matrix(4 0 0 4 158.303 121.631)"/><path fill="#89E219" d="M8.312 5.786-4.677-8.765c-.74-.74-1.973-.657-2.466.329-2.548 4.357-1.973 9.865 1.48 13.729 3.453 3.864 8.878 5.014 13.482 2.959.904-.493 1.233-1.726.493-2.466z" style="display:block" transform="matrix(4 0 0 4 127.756 135.621)"/><path fill="#89E219" d="M-1.434-22.041c10.908-.904 19.919 8.391 18.676 19.266L16.098 7.226A16.782 16.782 0 0 1 .499 22.067c-9.671.62-17.855-7.056-17.855-16.747V-4.746c0-9.029 6.923-16.55 15.922-17.295z" style="display:block" transform="matrix(4 0 0 4 309.426 207.15)"/><path fill="#89E219" d="M1.434-22.041c-10.908-.904-19.919 8.391-18.676 19.266l1.144 10.001A16.782 16.782 0 0 0-.499 22.067c9.671.62 17.855-7.056 17.855-16.747V-4.746c0-9.029-6.923-16.55-15.922-17.295z" style="display:block" transform="matrix(4 0 0 4 134.574 207.15)"/><path fill="#FFF" d="M1.871-15.593c-7.624-1.22-14.356 5.066-13.663 12.755l.733 8.136a11.474 11.474 0 0 0 9.385 10.26c7.04 1.273 13.515-4.136 13.515-11.29v-8.169a11.841 11.841 0 0 0-9.97-11.692z" style="display:block" transform="matrix(4 0 0 4 136.635 207.989)"/><path fill="#4B4B4B" d="M0-9a6.14 6.14 0 0 0-6.102 6.818l.669 6.018A5.805 5.805 0 0 0 6.14 3.195V-2.86A6.14 6.14 0 0 0 0-9z" style="display:block" transform="matrix(4 0 0 4 147.439 205)"/><path fill="#FFF" d="M0 3.699a3.699 3.699 0 1 0 0-7.398A3.699 3.699 0 0 0 0 3.7z" style="display:block" transform="matrix(4 0 0 4 124.797 183.797)"/><path fill="#FFF" d="M-1.871-15.593c7.624-1.22 14.356 5.066 13.663 12.755l-.733 8.136a11.474 11.474 0 0 1-9.385 10.26c-7.04 1.273-13.515-4.136-13.515-11.29v-8.169a11.841 11.841 0 0 1 9.97-11.692z" style="display:block" transform="matrix(4 0 0 4 307.365 207.989)"/><path fill="#4B4B4B" d="M0-9a6.14 6.14 0 0 0-6.14 6.14v6.055a5.804 5.804 0 0 0 11.573.641l.669-6.018A6.14 6.14 0 0 0 0-9z" style="display:block" transform="matrix(4 0 0 4 296.561 205)"/><path fill="#FFF" d="M0 3.699a3.699 3.699 0 1 0 0-7.398A3.699 3.699 0 0 0 0 3.7z" style="display:block" transform="matrix(3.8 0 0 3.8 277.547 183.797)"/><g style="display:block"><path fill="#F49000" d="M247.153 247.878c0-13.48-11.18-24.664-24.66-24.664s-24.66 11.184-24.66 24.664v7.888c0 13.48 11.18 24.664 24.66 24.664s24.66-11.184 24.66-24.664v-7.888z"/><path fill="#B06800" d="M240.499 240c0-7.932-8.164-14.508-18.008-14.508s-18.008 6.576-18.008 14.508v4.64c0 7.932 8.164 14.508 18.008 14.508s18.008-6.576 18.008-14.508V240z"/></g><path fill="#F49000" d="M24.103-7.369V7.369c0 13.302-10.8 24.103-24.103 24.103-13.302 0-24.103-10.8-24.103-24.103V-7.369c0-13.302 10.8-24.103 24.103-24.103 13.302 0 24.103 10.8 24.103 24.103z" style="display:block" transform="matrix(1.05117 0 0 1.17 222.503 270.448)"/><path fill="#A96606" d="M25.066-5.497V5.497c0 12.693-10.307 23-23 23h-4.132c-12.693 0-23-10.307-23-23V-5.497c0-12.693 10.307-23 23-23h4.132c12.693 0 23 10.307 23 23z" style="display:block" transform="matrix(.75 0 0 1.04337 222.902 261.737)"/><path fill="#FFCAFF" d="M2.438 36.875c-11 0-15.25 6.937-15.25 6.937s4.187 9.876 15.187 9.876c12.25 0 15.75-9.563 15.75-9.563s-4.749-7.25-15.687-7.25z" style="display:block" transform="matrix(1 0 0 1 219.998 238)"/><path fill="#FFC200" d="M.164-4.816c-4.275 0-7.891 2.796-8.631 6.577v.328c0 .247.082.329.329.329L.273 4.827c.164 0 7.865-2.409 7.865-2.409.247.082.329-.082.329-.329v-.328C7.727-1.938 4.192-4.816.164-4.816z" style="display:block" transform="matrix(4 0 0 4 222.164 242.477)"/><path fill="none" stroke="#FFDE00" stroke-linecap="round" stroke-width="15.445" d="M-18.807 38.848c2.522-1.54 9.117-3.012 14.974-.122" style="display:block" transform="rotate(1.719 -6491.107 7927.82)"/></g></g></g></svg>