<svg xmlns="http://www.w3.org/2000/svg" xmlns:xlink="http://www.w3.org/1999/xlink" width="4100" height="2300" style="width:100%;height:100%;transform:translate3d(0,0,0);content-visibility:visible"><defs><radialGradient id="i" cx="790.07" cy="517.04" r="127.94" fx="790.07" fy="517.04" gradientUnits="userSpaceOnUse" spreadMethod="pad"><stop offset="0%" stop-color="#EF7D93"/><stop offset="50%" stop-color="#EA5C81"/><stop offset="100%" stop-color="#E43B6F"/></radialGradient><radialGradient id="e" cx="-1769.68" cy="-258.69" r="49.37" fx="-1769.68" fy="-258.69" gradientUnits="userSpaceOnUse" spreadMethod="pad"><stop offset="0%" stop-color="#FDC700"/><stop offset="50%" stop-color="#F59C0A"/><stop offset="100%" stop-color="#ED7014"/></radialGradient><clipPath id="c"><path d="M0 0h4100v2300H0z"/></clipPath><clipPath id="f"><path d="M0 0h5646v2890H0z"/></clipPath><path id="a" fill="#FFC800" d="m-625-827.5-107 75.25s21.75 104 27.1 127.8c-.6-23.55 21.57-53.97 77.9-50.05 52.88 3.68 69.47 31.1 71.36 53.5C-549.5-644-527-740-527-740l-98-87.5z" style="display:block" transform="translate(2823 1445)"/><path id="b" fill="#FFC800" d="m-625-827.5-107 75.25s22 103.25 27.1 127.8c5.12 24.54 32.4 47.45 72.9 47.95 51.25.63 69.96-20.27 76.36-44.5 6.39-24.25 28.64-119 28.64-119l-98-87.5z" style="display:block" transform="translate(2823 1445)"/><mask id="h" mask-type="alpha"><use xlink:href="#a"/></mask><mask id="g" mask-type="alpha"><use xlink:href="#b"/></mask><linearGradient id="d" x1="-1717.38" x2="-1731.78" y1="-279.27" y2="-228" gradientUnits="userSpaceOnUse" spreadMethod="pad"><stop offset="0%" stop-color="#FFC600"/><stop offset="50%" stop-color="#F69B0A"/><stop offset="100%" stop-color="#ED7014"/></linearGradient></defs><g clip-path="url(#c)"><g style="display:block"><path fill="#89D877" d="m246.75 176.4-34.25 10.74-.5 31.5 13.81 9.95 34.94-42.45-14-9.75z"/><path fill="none" stroke="#89D878" stroke-linecap="round" stroke-linejoin="round" stroke-width="19" d="m246.75 176.4-34.25 10.74-.5 31.5 13.81 9.95 34.94-42.45-14-9.75z"/><path fill="#A2ECB2" d="m261.5 186.9-34.5 11-.5 31 34-11.5 1-30.5z"/><path fill="none" stroke="#A2ECB2" stroke-linecap="round" stroke-linejoin="round" stroke-width="19" d="m261.5 186.9-34.5 11-.5 31 34-11.5 1-30.5z"/></g><g style="display:block"><path fill="#C2C1EF" d="M712 183.64c-2 1-7.75 3.5-9.5 4.5s-3 2.5-3.75 4.75-2.25 10-2.75 13 0 5.75 1.5 7.5 6 5 8 6.75 4.75 1.5 7.25.5 8.75-4 10.75-5.5 3.25-3.25 3.5-4.75 2-12 2.25-14.25c.3-2.77.25-5.25-1.5-6.5s-4.9-3.85-6.75-5.5c-2.25-2-5.5-2.25-9-.5z"/><path fill="none" d="M712 183.64c-2 1-7.75 3.5-9.5 4.5s-3 2.5-3.75 4.75-2.25 10-2.75 13 0 5.75 1.5 7.5 6 5 8 6.75 4.75 1.5 7.25.5 8.75-4 10.75-5.5 3.25-3.25 3.5-4.75 2-12 2.25-14.25c.3-2.77.25-5.25-1.5-6.5s-4.9-3.85-6.75-5.5c-2.25-2-5.5-2.25-9-.5z"/></g><g style="display:block"><path fill="#6BCCF9" d="m530.97 1577.14 163.32 12.36 30.99-138.45-19.2-23.7-195.36 123.8 20.25 26z"/><path fill="none" stroke="#6BCCF9" stroke-linecap="round" stroke-linejoin="round" stroke-width="32" d="m530.97 1577.14 163.32 12.36 30.99-138.45-19.2-23.7-195.36 123.8 20.25 26z"/><path fill="#3DBCF8" d="m510.27 1550.47 164.42 12.81 31.88-135.77-164.04-7.55-32.26 130.5z"/><path fill="none" stroke="#3DBCF8" stroke-linecap="round" stroke-linejoin="round" stroke-width="32" d="m510.27 1550.47 164.42 12.81 31.88-135.77-164.04-7.55-32.26 130.5z"/></g><g style="display:block"><path fill="#1CB0F6" d="m3232.8 2007.86-29.9-8.85-28.74-47.23 8.13-31.67 29.45 19.56 23.55 42.34-2.49 25.85z"/><path fill="none" d="m3232.8 2007.86-29.9-8.85-28.74-47.23 8.13-31.67 29.45 19.56 23.55 42.34-2.49 25.85z"/><path fill="#FFF" d="m3182.49 1920.1 18.5 17.48 15.32 8.13-4.47-6.17-29.35-19.44z"/><path fill="none" d="m3182.49 1920.1 18.5 17.48 15.32 8.13-4.47-6.17-29.35-19.44z"/><path fill="#70CDF9" d="m3235.58 1982.22-3.4-8.2-15.87-28.31-4.47-6.17 23.74 42.68z"/><path fill="none" d="m3235.58 1982.22-3.4-8.2-15.87-28.31-4.47-6.17 23.74 42.68z"/><path fill="#21A6E5" d="m3235.58 1982.22-3.4-8.2-2.34 14.2 3.2 20.13 2.54-26.13z"/><path fill="none" d="m3235.58 1982.22-3.4-8.2-2.34 14.2 3.2 20.13 2.54-26.13z"/><path fill="#1C9FDD" d="m3202.76 1998.74 13.25-17.16 13.83 6.64 3.2 20.13-30.28-9.6z"/><path fill="none" d="m3202.76 1998.74 13.25-17.16 13.83 6.64 3.2 20.13-30.28-9.6z"/><path fill="#2DBCFF" d="m3202.76 1998.74 13.25-17.16-17.33-30.01-24.53.28 28.61 46.9z"/><path fill="none" d="m3202.76 1998.74 13.25-17.16-17.33-30.01-24.53.28 28.61 46.9z"/><path fill="#70CDF9" d="m3182.29 1919.91 18.7 17.67-2.31 13.99-24.53.28 8.14-31.94z"/><path fill="none" d="m3182.29 1919.91 18.7 17.67-2.31 13.99-24.53.28 8.14-31.94z"/><path fill="#1CB0F6" d="m3230.14 1988.7-14.07-6.9-17.56-30.4 2.3-14.11 15.64 8.2 16.02 28.91-2.33 14.3z"/><path fill="none" d="m3230.14 1988.7-14.07-6.9-17.56-30.4 2.3-14.11 15.64 8.2 16.02 28.91-2.33 14.3z"/></g><g style="display:block"><path fill="#00C6A0" d="m3928.05 892.51-30.77 98.8 101.34 38.85 16.7-7.83-70.48-137.75-16.8 7.93z"/><path fill="none" stroke="#00C6A0" stroke-linecap="round" stroke-linejoin="round" stroke-width="30" d="m3928.05 892.51-30.77 98.8 101.34 38.85 16.7-7.83-70.48-137.75-16.8 7.93z"/></g><g style="display:block"><path fill="#2BE69C" d="m3948.61 883.9-29.82 98.06 99.37 38.86 30.65-100.05-100.2-36.87z"/><path fill="none" stroke="#2BE69C" stroke-linecap="round" stroke-linejoin="round" stroke-width="30" d="m-2276.94-871.3-30.89 97.78 99.63 39.74 31.75-99.76-100.5-37.77z" transform="matrix(.99378 -.00893 .00899 .99996 6219.22 1734.84)"/><path fill="#FFF" d="m3982.54 905.4-11.85 8.61-16.18 52.65 12.84-9.86 15.19-51.4z"/><path fill="none" d="m3982.54 905.4-11.85 8.61-16.18 52.65 12.84-9.86 15.19-51.4z"/><path fill="#FFF" d="m3996.54 915.03-6.39 8.06 9.76 8.16 7.14-8.06-10.51-8.16z"/><path fill="none" d="m3996.54 915.03-6.39 8.06 9.76 8.16 7.14-8.06-10.51-8.16z"/><path fill="#FFF" d="m4002.27 944.98-9.1 9.83s8.55 11.93 4.63 17.46c-2.13 3-2.81 3.8-9.87 7.6-16.57 8.9-28.14-7.26-28.14-7.26.19 21.5 20.6 35.14 39.59 9.4 15.95-21.65 2.9-37.03 2.9-37.03z"/><path fill="none" d="m4002.27 944.98-9.1 9.83s8.55 11.93 4.63 17.46c-2.13 3-2.81 3.8-9.87 7.6-16.57 8.9-28.14-7.26-28.14-7.26.19 21.5 20.6 35.14 39.59 9.4 15.95-21.65 2.9-37.03 2.9-37.03z"/></g><g style="display:block"><path fill="#C2C1EF" d="M2033.78 968.73a309.5 309.5 0 0 0-10 5.04 9.4 9.4 0 0 0-4.59 5.45c-.9 2.56-1.86 9.6-2.43 13-.57 3.41.1 6.51 2.01 8.46 1.9 1.95 8.07 6.78 10.6 8.72 2.52 1.94 5.94 1.6 9.04.41 3.1-1.18 9.57-4.2 12.04-5.94 2.46-1.74 3.99-3.74 4.27-5.45.28-1.7 2.26-12.11 2.53-14.66.34-3.15.22-5.95-1.99-7.32a187.6 187.6 0 0 1-10.26-7.33c-2.84-2.22-6.9-2.43-11.22-.38z"/><path fill="none" d="M2033.78 968.73a309.5 309.5 0 0 0-10 5.04 9.4 9.4 0 0 0-4.59 5.45c-.9 2.56-1.86 9.6-2.43 13-.57 3.41.1 6.51 2.01 8.46 1.9 1.95 8.07 6.78 10.6 8.72 2.52 1.94 5.94 1.6 9.04.41 3.1-1.18 9.57-4.2 12.04-5.94 2.46-1.74 3.99-3.74 4.27-5.45.28-1.7 2.26-12.11 2.53-14.66.34-3.15.22-5.95-1.99-7.32a187.6 187.6 0 0 1-10.26-7.33c-2.84-2.22-6.9-2.43-11.22-.38z"/></g><g style="display:block"><path fill="#00C6A0" d="m3246.4 1832.6 114.87-6.45 46.65-110.5-23.48-35.1-167.56 125.28 29.51 26.77z"/><path fill="none" stroke="#00C6A0" stroke-linecap="round" stroke-linejoin="round" stroke-width="60" d="m3246.4 1832.6 114.87-6.45 46.65-110.5-23.48-35.1-167.56 125.28 29.51 26.77z"/></g><g style="display:block"><path fill="#2BE69C" d="m3205.75 1805.58 126.47-12.69 51.95-122.86-125.13 15.58-53.29 119.97z"/><path fill="none" stroke="#2BE69C" stroke-linecap="round" stroke-linejoin="round" stroke-width="40" d="m3205.75 1805.58 126.47-12.69 51.95-122.86-125.13 15.58-53.29 119.97z"/><path fill="none" stroke="#FFF" stroke-linecap="round" stroke-linejoin="round" stroke-width="9" d="m3258.88 1768.67 12.87-33.7s26.7 11.72 40.83 32.71m-46.08-54.8 72.72-1.57m-29.04-17.29-5.97 18.16"/></g><g style="display:block"><path fill="#1CB0F6" d="m1875.96 899.81-32.76 20.18-59.72-18.42-15.63-40.26 38.9-11.18 51.43 19.55 17.78 30.13z"/><path fill="none" d="m1875.96 899.81-32.76 20.18-59.72-18.42-15.63-40.26 38.9-11.18 51.43 19.55 17.78 30.13z"/><path fill="#FFF" d="m1768.03 861 27.8 2.6 16.9-6.31-6-7.32-38.7 11.03z"/><path fill="none" d="m1768.03 861 27.8 2.6 16.9-6.31-6-7.32-38.7 11.03z"/><path fill="#70CDF9" d="m1858.57 869.68-11.94 1.36-33.9-13.75-6-7.32 51.84 19.71z"/><path fill="none" d="m1858.57 869.68-11.94 1.36-33.9-13.75-6-7.32 51.84 19.71z"/><path fill="#21A6E5" d="m1858.57 869.68-11.94 1.36 10.16 16.73 19.72 12.34-17.94-30.43z"/><path fill="none" d="m1858.57 869.68-11.94 1.36 10.16 16.73 19.72 12.34-17.94-30.43z"/><path fill="#1C9FDD" d="m1842.9 919.83-.78-25.66 14.67-6.4 19.72 12.34-33.61 19.72z"/><path fill="none" d="m1842.9 919.83-.78-25.66 14.67-6.4 19.72 12.34-33.61 19.72z"/><path fill="#2DBCFF" d="m1842.9 919.83-.78-25.66-36.28-14.1-22.33 21.62 59.39 18.14z"/><path fill="none" d="m1842.9 919.83-.78-25.66-36.28-14.1-22.33 21.62 59.39 18.14z"/><path fill="#70CDF9" d="m1767.71 861.05 28.13 2.54 10 16.48-22.33 21.62-15.8-40.64z"/><path fill="none" d="m1767.71 861.05 28.13 2.54 10 16.48-22.33 21.62-15.8-40.64z"/><path fill="#1CB0F6" d="m1857.39 887.97-15.05 6.35-36.75-14.26-10.12-16.58 17.16-6.56 34.5 14.24 10.26 16.81z"/><path fill="none" d="m1857.39 887.97-15.05 6.35-36.75-14.26-10.12-16.58 17.16-6.56 34.5 14.24 10.26 16.81z"/></g><g style="display:block"><path fill="#4CE1D3" d="m2038.44 889.25 57.88-70.13-25.47-50.16-37.06-26.22-28.89 123.72 33.54 22.8z"/><path fill="none" stroke="#4CE1D3" stroke-linecap="round" stroke-linejoin="round" stroke-width="20" d="m2038.44 889.25 57.88-70.13-25.47-50.16-37.06-26.22-28.89 123.72 33.54 22.8z"/></g><g style="display:block"><path fill="#3CD598" d="m2001.75 863.47 54.4-66.98-27.62-55.37-54.92 67.66 28.14 54.69z"/><path fill="none" stroke="#3CD598" stroke-linecap="round" stroke-linejoin="round" stroke-width="20" d="m-2182.99-736.55-1.96-86.28-81.08-24.66 2.03 87.13 81.01 23.81z" transform="matrix(.53623 .44995 -.64279 .76604 2698.89 2409.93)"/><path fill="#FFF" d="M2031.85 778.23c-2.9 3.46-3.56 4.36-5.4 6.5-10.93-13.1-36.11 9.83-25 30.9l-4.99 5.93c-2.9 3.45-.1 7.75 2.8 4.3l4.81-5.74c12.82 16.3 37.4-11.37 25.04-31.2.8-.97 2.53-3.11 4.85-6.06 3.4-4.32.79-8.08-2.11-4.63z"/><path fill="none" d="M2031.85 778.23c-2.9 3.46-3.56 4.36-5.4 6.5-10.93-13.1-36.11 9.83-25 30.9l-4.99 5.93c-2.9 3.45-.1 7.75 2.8 4.3l4.81-5.74c12.82 16.3 37.4-11.37 25.04-31.2.8-.97 2.53-3.11 4.85-6.06 3.4-4.32.79-8.08-2.11-4.63z"/><path fill="#3CD598" d="m2024.4 795.07-16.33 20.08s7.05 8.69 13.8.64c9.15-10.91 2.53-20.72 2.53-20.72z"/><path fill="none" d="m2024.4 795.07-16.33 20.08s7.05 8.69 13.8.64c9.15-10.91 2.53-20.72 2.53-20.72z"/><path fill="#3CD598" d="M2022.07 790.5s-6.5-8.05-13.4.18c-6.43 7.66-2.75 19.48-2.75 19.48l16.15-19.66z"/><path fill="none" d="M2022.07 790.5s-6.5-8.05-13.4.18c-6.43 7.66-2.75 19.48-2.75 19.48l16.15-19.66z"/></g><g style="display:block"><path fill="#1CB0F6" d="m4038.83 1296.41 10.7 36.73-27.4 56.28-28.05 11.35-3.22-1.18-7.48-35.68 20.75-49.92 32.34-19.03 2.36 1.45z"/><path fill="none" d="m4038.83 1296.41 10.7 36.73-27.4 56.28-28.05 11.35-3.22-1.18-7.48-35.68 20.75-49.92 32.34-19.03 2.36 1.45z"/><path fill="#1C9FDC" d="m3990.63 1399.14.48-23.74-3.7-16.34-4.4 4.88 7.62 35.2z"/><path fill="none" d="m3990.63 1399.14.48-23.74-3.7-16.34-4.4 4.88 7.62 35.2z"/><path fill="#7CD6F6" d="m4004.2 1313.65-2.4 11.64-14.38 33.77-4.42 4.88 21.2-50.3z"/><path fill="none" d="m4004.2 1313.65-2.4 11.64-14.38 33.77-4.42 4.88 21.2-50.3z"/><path fill="#FFF" d="m4004.2 1313.65-2.4 11.64 16.57-8.77 18.28-21.6-32.45 18.73z"/><path fill="none" d="m4004.2 1313.65-2.4 11.64 16.57-8.77 18.28-21.6-32.45 18.73z"/><path fill="#70CDF9" d="m4046.6 1332.16-25.28 1.34-2.95-16.98 18.28-21.6 9.95 37.24z"/><path fill="none" d="m4046.6 1332.16-25.28 1.34-2.95-16.98 18.28-21.6 9.95 37.24z"/><path fill="#2DBCFF" d="m4046.6 1332.16-25.28 1.34-14.9 33 13.05 21.89 27.13-56.23z"/><path fill="none" d="m4046.6 1332.16-25.28 1.34-14.9 33 13.05 21.89 27.13-56.23z"/><path fill="#21A6E5" d="m3990.61 1399.41.5-24.01 15.32-8.9 13.04 21.89-28.86 11.02z"/><path fill="none" d="m3990.61 1399.41.5-24.01 15.32-8.9 13.04 21.89-28.86 11.02z"/><path fill="#1CB0F6" d="m4018.62 1315.97 2.86 17.34-15.08 33.42-15.43 9-3.91-16.63 14.9-34.28 16.66-8.85z"/><path fill="none" d="m4018.62 1315.97 2.86 17.34-15.08 33.42-15.43 9-3.91-16.63 14.9-34.28 16.66-8.85z"/></g><g style="display:block"><path fill="url(#d)" d="M-1744.5-279.5c-6.5 8.14-22.75 28.5-31.25 40s-10.76 29.65-10.5 44.75c.5 28.75 30.1 55.55 67.5 48.75 24.37-4.43 38.66-23.2 42.98-41.76 3.96-17.04 2.52-30.13-7.48-42.49-13.75-17-32.5-40.25-39.75-49s-15-8.39-21.5-.25z" transform="translate(2457 1438.48)"/><path fill="none" d="M712.5 1158.98c-6.5 8.14-22.75 28.5-31.25 40s-10.76 29.65-10.5 44.75c.5 28.75 30.1 55.55 67.5 48.75 24.37-4.43 38.66-23.2 42.98-41.76 3.96-17.04 2.52-30.13-7.48-42.5-13.75-17-32.5-40.24-39.75-49-7.25-8.74-15-8.38-21.5-.24z"/><path fill="url(#e)" d="M-1789.96-254.4c.12 5.32 2.25 44.4 3.62 59.39 1.84 20.01 42.59 29.01 59.66 7.4 7.84-9.9 15.18-40.89-19.7-59.82-9.36-5.08-21.43-11.5-26.59-14.15-10.03-5.17-17.1 1.88-16.99 7.19z" transform="translate(2457 1438.48)"/><path fill="none" d="M667.04 1184.09c.12 5.31 2.25 44.39 3.62 59.38 1.84 20 42.59 29 59.66 7.4 7.84-9.9 15.18-40.9-19.7-59.82-9.36-5.09-21.43-11.5-26.59-14.15-10.03-5.17-17.1 1.87-16.99 7.19z"/><path fill="#FFC800" d="M726.45 1216.46c-.98 5.22-3.7 19.15-4.37 34.19-.83 18.58 10.67 25.58 25.78 23.62 15.1-1.96 29.39-21.22 16.36-40.73-7.22-10.81-10.87-16.07-14.36-20.7-8.36-11.11-21.36-7.36-23.41 3.62z"/><path fill="none" d="M726.45 1216.46c-.98 5.22-3.7 19.15-4.37 34.19-.83 18.58 10.67 25.58 25.78 23.62 15.1-1.96 29.39-21.22 16.36-40.73-7.22-10.81-10.87-16.07-14.36-20.7-8.36-11.11-21.36-7.36-23.41 3.62z"/></g><g style="display:block"><path fill="#60D0FD" d="m1222.82 667.33 68.44-32.43-13.08-62.05-68.57 33.3 13.21 61.18z"/><path fill="none" stroke="#60D0FD" stroke-linecap="round" stroke-linejoin="round" stroke-width="30" d="m1222.82 667.33 68.44-32.43-13.08-62.05-68.57 33.3 13.21 61.18z"/></g><g style="display:block"><path fill="#5EC4EB" d="m433.12 433.13 50.03-3.27 31.6-40.9-6.58-15.86-84.05 45.18 9 14.85z"/><path fill="none" stroke="#5EC4EB" stroke-linecap="round" stroke-linejoin="round" stroke-width="12" d="m433.12 433.13 50.03-3.27 31.6-40.9-6.58-15.86-84.05 45.18 9 14.85z"/><path fill="#60D0FD" d="m424.32 415.06 47.94-4.43 32.92-38.04-50.07 5.8-30.79 36.67z"/><path fill="none" stroke="#60D0FD" stroke-linecap="round" stroke-linejoin="round" stroke-width="12" d="m424.32 415.06 47.94-4.43 32.92-38.04-50.07 5.8-30.79 36.67z"/><path fill="#FDFDFF" d="M479.5 375.36c-15.75 1.75-25.5 7.25-29.75 13 1.25.25 6.25 0 6.25 0s8.7-7.87 19-8.5c12.25-.75 2.5 7.5 2.5 7.5s-32.22 4.22-40.25 14c-13.75 16.75 27.25 3.25 27.25 3.25l-1.75 3.5 8.5-.25s1.25-3.5 4.5-7.75 11.5-14.5 13.5-17 6-9.5-9.75-7.75z"/><path fill="none" d="M479.5 375.36c-15.75 1.75-25.5 7.25-29.75 13 1.25.25 6.25 0 6.25 0s8.7-7.87 19-8.5c12.25-.75 2.5 7.5 2.5 7.5s-32.22 4.22-40.25 14c-13.75 16.75 27.25 3.25 27.25 3.25l-1.75 3.5 8.5-.25s1.25-3.5 4.5-7.75 11.5-14.5 13.5-17 6-9.5-9.75-7.75z"/><path fill="#60CFFB" d="M473.25 392.11s-14.75 1.25-22.5 5c-6.77 3.28-12.25 10.75.5 8.5 14.73-2.6 22-13.5 22-13.5z"/><path fill="none" d="M473.25 392.11s-14.75 1.25-22.5 5c-6.77 3.28-12.25 10.75.5 8.5 14.73-2.6 22-13.5 22-13.5z"/></g><g style="display:block"><path fill="#22A782" d="m462.03 132.98-81.45 26.63-10.2 86.94 24.26 21.03 96.5-120.91-29.11-13.7z"/><path fill="none" stroke="#22A882" stroke-linecap="round" stroke-linejoin="round" stroke-width="30" d="m462.03 132.98-81.45 26.63-10.2 86.94 24.26 21.03 96.5-120.91-29.11-13.7z"/><path fill="#22CE9B" d="m493.04 148.09-85.96 28.07-9.97 92.03 81.55-29.82 14.38-90.28z"/><path fill="none" stroke="#22CE9B" stroke-linecap="round" stroke-linejoin="round" stroke-width="30" d="m493.04 148.09-85.96 28.07-9.97 92.03 81.55-29.82 14.38-90.28z"/></g><g style="display:block"><path fill="#FF878D" d="m1243.26 1626.74-75.32-78.32-128.54 69.3-1.72 59.55 212.5 6.53-6.92-57.06z"/><path fill="none" stroke="#FF878D" stroke-linecap="round" stroke-linejoin="round" stroke-width="50" d="m1243.26 1626.74-75.32-78.32-128.54 69.3-1.72 59.55 212.5 6.53-6.92-57.06z"/></g><g style="display:block"><path fill="#D947AC" d="m1249.56 1695.35-82.38-73.72-126.44 60.93 85.15 73.43 123.67-60.64z"/><path fill="none" stroke="#D947AC" stroke-linecap="round" stroke-linejoin="round" stroke-width="45" d="m-2167.74-725.05-31.96-149.53-127.33-13.66 34.28 151.13 125.01 12.06z" transform="matrix(.95581 -.54383 .34663 .60922 3572.82 958.18)"/><path fill="#FFF" d="m1101.07 1662.34 5.6 4.27 10.67 9.86-52.68 24.72 32.58 29.45 3.35 5.35 12.36-6.63-4.87-4.68 40.33-19.72 24.03 22.21 2.99 4.15s7.9-1.68 12.69-6.62c-1.13-1.98-5.9-3.7-5.9-3.7l-22.95-21.42 41.94-20.23 5.3 4.85 11.57-5.78-36.52-33.05-53.52 26.01-11.03-11.06-3.73-4.33-12.2 6.35z"/><path fill="none" d="m1101.07 1662.34 5.6 4.27 10.67 9.86-52.68 24.72 32.58 29.45 3.35 5.35 12.36-6.63-4.87-4.68 40.33-19.72 24.03 22.21 2.99 4.15s7.9-1.68 12.69-6.62c-1.13-1.98-5.9-3.7-5.9-3.7l-22.95-21.42 41.94-20.23 5.3 4.85 11.57-5.78-36.52-33.05-53.52 26.01-11.03-11.06-3.73-4.33-12.2 6.35z"/><path fill="#D947AC" d="m1134.14 1675.98 19.08 17.97 41.86-20.39-19-17.82-41.94 20.24z"/><path fill="none" d="m1134.14 1675.98 19.08 17.97 41.86-20.39-19-17.82-41.94 20.24z"/><path fill="#D947AC" d="m1082.36 1700.6 19.84 18.75 39.9-19.78-19.71-18.11-40.03 19.14z"/><path fill="none" d="m1082.36 1700.6 19.84 18.75 39.9-19.78-19.71-18.11-40.03 19.14z"/></g><g style="display:block"><path fill="#9A75D9" d="m954.8 1370.65 120.6 27.44 55.73-95.7-2.65-37.08-183.89 74.56 10.21 30.78z"/><path fill="none" stroke="#9A75D9" stroke-linecap="round" stroke-linejoin="round" stroke-width="30" d="m954.8 1370.65 120.6 27.44 55.73-95.7-2.65-37.08-183.89 74.56 10.21 30.78z"/></g><g style="display:block"><path fill="#C29EFF" d="m946.66 1330.26 121.5 25.15 57.11-91.47-122.96-22.77-55.65 89.1z"/><path fill="none" stroke="#C29EFF" stroke-linecap="round" stroke-linejoin="round" stroke-width="30" d="m-2132.74-922.91 118.6-38.14 4.44-107.49-118.7 40.92-4.34 104.7z" transform="matrix(.86497 .49215 -.49572 .87126 2333.91 3183.98)"/><path fill="#FFF" d="M1075.37 1267.02c-10.97 4.63-18.4-.37-25.71-5.11-7.32-4.74-14.28-4.09-23.34-1.75s-5.89 11.36 1.94 9.18c5.27-1.47 10.07-4.02 14.96-.14 14.2 11.25 26.32 11.24 35.97 7.2 7.89-3.3 2.58-12.08-3.82-9.38z"/><path fill="none" d="M1075.37 1267.02c-10.97 4.63-18.4-.37-25.71-5.11-7.32-4.74-14.28-4.09-23.34-1.75s-5.89 11.36 1.94 9.18c5.27-1.47 10.07-4.02 14.96-.14 14.2 11.25 26.32 11.24 35.97 7.2 7.89-3.3 2.58-12.08-3.82-9.38z"/><path fill="#FFF" d="M1054.26 1289.03c-14.66-9.44-29.24-3.95-33.88-2.84 5.48-8.12-5.33-10.24-9.73-3.52-4.13 6.3-18.4 29.32-21.62 34.99-4.1 7.18 8.74 7.28 11.96 1.61l11.15-19.6c3.1-5.45 11.52-10.17 25.15-8.47 11.95 1.49 14.76 11.28 12.4 15.42-2.35 4.14-9.12 15.78-12.1 21.01-4.33 7.62 7.65 8.46 11.12 2.36l10.9-19.17c2.6-4.58 6.17-14.37-5.35-21.79z"/><path fill="none" d="M1054.26 1289.03c-14.66-9.44-29.24-3.95-33.88-2.84 5.48-8.12-5.33-10.24-9.73-3.52-4.13 6.3-18.4 29.32-21.62 34.99-4.1 7.18 8.74 7.28 11.96 1.61l11.15-19.6c3.1-5.45 11.52-10.17 25.15-8.47 11.95 1.49 14.76 11.28 12.4 15.42-2.35 4.14-9.12 15.78-12.1 21.01-4.33 7.62 7.65 8.46 11.12 2.36l10.9-19.17c2.6-4.58 6.17-14.37-5.35-21.79z"/></g><g clip-path="url(#f)" style="display:block" transform="rotate(69.16 1984.05 1013.24)"><g fill="#D49800" mask="url(#g)" style="display:block"><path d="M2106.14 755.18c-2.34-11.04-3.49-9.17-.75 4.3 5 24.6 18.08 83.6 18.08 83.6l5.7 1.94s-19.93-74.55-23.03-89.84zm160.49 13c1.07-10.65-10.22-13.56-16.38-4.99-16.69 23.06-86.27 124.69-86.27 124.69l91.35-.18s9.34-102.4 11.3-119.52z"/><path d="M2206.63 772.76c-3.94-8.1-12.5-8.67-17.62-.24-11.32 18.54-68.17 105.29-68.17 105.29l145.18 18.77s-53.7-112.09-59.4-123.82z"/><path d="M2142.25 766.67c-4.6-9.54-15.7-8.78-15.63 1.77.23 23.34 1.58 116.5 1.58 116.5l84.15 16.84s-65.46-125.62-70.1-135.11z"/><path d="M2109 779.5c-12-23.82-1 93-1 93l167 17s14.63-135.12 3.5-108.5c-32 76.5-137 63-169.5-1.5z"/></g><g fill="#FFC800" mask="url(#h)" style="display:block"><path d="M2285.17 752.32c2.73-10.98 1.52-10.95-1.42-.71-9.03 32.54-36.6 127.77-36.6 127.77l5.3 5.93s28.09-114.32 32.72-132.99zm-154.87-27.68c-7.08-8.82-18.06-5.64-17.54 7.55.55 24.6 2.01 109.99 2.01 109.99l74.88-42s-51.73-65.67-59.36-75.54z"/><path d="M2205.46 700.48c-5.47-9.84-13.29-9.69-18.82.81a65177.2 65177.2 0 0 0-76.39 142.34l166.37-8.22s-61.87-118.2-71.16-134.93z"/><path d="M2275.51 727.78c-.4-10.76-8.9-14.04-15.66-5.68-16.98 21-94.07 108.52-94.07 108.52l109.69 37.36s.74-121.92.04-140.2z"/></g></g><g style="display:block"><path fill="#5C6CFC" d="m3001.52 927.37-27.36-123.84-26.65-4.8-129.03 38.84 22.84 120.4 19.44 9.72 140.76-40.32z"/><path fill="none" stroke="#5C6CFC" stroke-linecap="round" stroke-linejoin="round" stroke-width="50.4" d="m3001.52 927.37-27.36-123.84-26.65-4.8-129.03 38.84 22.84 120.4 19.44 9.72 140.76-40.32z"/><path fill="#D7D9FE" d="M2918.15 898.93c-.8 1.62-4.36 7.2-5.55 9.18-1.18 1.98.2 2.52 1.39 2.34 1.19-.18 4.75-.72 6.14-1.08a3 3 0 0 0 2.18-3.24c-.2-1.44-1-5.04-1.59-6.84-.6-1.8-1.78-1.98-2.57-.36z"/><path fill="#8C87F1" d="M2974.78 804.25 2841.72 846l24.55 123.12 133.06-39.6-24.55-125.28z"/><path fill="none" stroke="#8C87F1" stroke-linecap="round" stroke-linejoin="round" stroke-width="70" d="m391-602-168 58 31 171 168-55-31-174z" transform="matrix(.792 0 0 .72 2665.1 1237.69)"/><path fill="#948FF5" d="M2905.08 817.39c-20.4 5.22-16.63 28.8-16.63 28.8s-36.63 4.14-35.84 41.4c-4.95 4.68-8.32 14.58-3.37 24.3 2.87 5.62 18.02 33.3 22.38 41.22 4.35 7.92 12.08 12.6 22.17 9.72 10.1-2.88 62.57-17.82 74.65-21.24 12.08-3.42 15.84-14.22 16.63-19.98.8-5.76 4.16-33.48 5.15-47.16.99-13.68-4.55-20.88-12.87-23.58-11.09-32.76-46.53-17.1-46.53-17.1s-4.64-21.78-25.74-16.38z"/><path fill="#FFFEFE" d="M2906.34 822c-13.47 3.69-16.5 16.99-11.4 27.54-19.56 4.75-37.97 9.25-37.22 39.07-4.46 4.22-8.28 12.77-3.82 21.52 2.58 5.06 17.21 32.86 21.13 39.99 3.92 7.13 10.08 10.26 19.17 7.67 9.1-2.6 62.27-17.84 73.14-20.92 10.88-3.08 12.68-12.8 13.4-17.99.7-5.19 3.54-31.58 4.43-43.9.9-12.31-3.7-17.53-11.19-19.96-9.3-29.9-34.84-18.91-47.04-15.04.51-10-6.42-21.87-20.6-17.99z"/><path fill="#A7A0FF" d="M2907.85 830.53c-5.34 1.26-8.12 6.48-7.32 11.7.58 3.85 4.15 8.82 10.69 7.02 6.53-1.8 7.92-7.74 7.13-11.7-.8-3.96-5.15-8.28-10.5-7.02z"/><path fill="#5C6CFC" d="M2944.88 844.03c-12.48 3.06-45.64 13.24-62.37 17.82-18.42 5.04-20.6 23.22-12.48 38.52 6.14 11.56 37.82 5.04 51.48 2.52 13.67-2.52 45.35-18 46.14-34.92.79-16.92-10.3-27-22.77-23.94z"/><path fill="#A7A0FF" d="M2921.71 863.29c-4.75-3.6-9.9-3.06-13.26 2.7l-20.4 34.92s-10.89-4.14-17.42-6.84c-6.54-2.7-13.47 3.78-9.9 11.16 3.2 6.64 18.09 33.63 20.4 38.52 2.37 5.04 5.34 7.56 13.26 5.4 7.92-2.16 62.17-18 69.5-20.16 7.32-2.16 8.11-5.58 8.9-10.44.8-4.86 3.97-39.42 4.36-47.7.4-8.28-8.51-9.36-12.27-4.5a1096.9 1096.9 0 0 1-13.67 16.38s-25.57-16.47-29.5-19.44z"/><path fill="#BFAFFF" d="M2901.12 893.89c-2.77 4.5-6.93 10.8-10.5 16.56-6.92-3.96-11.87-.54-9.3 5.22 1.68 3.75 9.3 19.62 10.1 21.42.79 1.8 1.78 3.78 5.15 2.88 3.36-.9 8.11-2.34 13.66-3.96 2.92-.86 3.56-2.7 3.17-6.12-.4-3.42-4.36-30.6-4.95-34.74-.6-4.14-4.56-5.76-7.33-1.26z"/><path fill="#AFB5FF" d="M2964.48 881.1c-3.76 3.97-5.94 6.3-6.34 12.79-.4 6.48-1.38 20.52-1.58 23.76-.2 3.24 1.19 4.32 5.74 3.24 4.56-1.08 5.35-1.98 5.55-5.58.3-5.4 2.37-28.26 2.77-32.76.4-4.5-2.38-5.4-6.14-1.44z"/><path fill="#5C6CFC" d="M2923.89 893.17c-3.37-1.8-4.55-1.62-6.53 1.08-1.98 2.7-6.74 10.98-8.72 14.04-1.98 3.06-.59 5.22 1.79 6.84 2.37 1.62 8.31 5.58 11.08 7.38 2.78 1.8 5.55 1.44 7.13-.9 1.59-2.34 7.13-12.24 8.32-14.4a4.54 4.54 0 0 0-1.19-5.94c-1.78-1.26-8.51-6.3-11.88-8.1z"/></g><g style="display:block"><path fill="url(#i)" d="M661.25 481.5c-13.4 19.98-2.25 46.25 10 56.75s39.25 33.75 44.5 38.5 10.75 8 20.75 3 33.77-18.01 49-26.75c15.25-8.75 29.38-27.46 20.5-52.5-14-39.5-64-30.5-72.5-16-23.75-31.75-58.5-23.5-72.25-3z" transform="translate(2766 1449.85)"/><path fill="none" d="M3427.25 1931.35c-13.4 19.98-2.25 46.25 10 56.75s39.25 33.75 44.5 38.5 10.75 8 20.75 3 33.77-18 49-26.75c15.25-8.75 29.38-27.45 20.5-52.5-14-39.5-64-30.5-72.5-16-23.75-31.75-58.5-23.5-72.25-3z"/><path fill="#FA8697" d="M3538 1933.1c-9.25 1.5-11.5 10.25-9.25 18.5s7.5 13.75 15.75 13.25 11-7.5 11.25-16.75-8.5-16.5-17.75-15z"/><path fill="none" d="M3538 1933.1c-9.25 1.5-11.5 10.25-9.25 18.5s7.5 13.75 15.75 13.25 11-7.5 11.25-16.75-8.5-16.5-17.75-15z"/></g></g></svg>