<svg xmlns="http://www.w3.org/2000/svg" xmlns:xlink="http://www.w3.org/1999/xlink" width="1080" height="1080" style="width:100%;height:100%;transform:translate3d(0,0,0);content-visibility:visible"><defs><clipPath id="C"><path d="M0 0h1080v1080H0z"/></clipPath><clipPath id="D"><path d="M0 0h1080v1080H0z"/></clipPath><clipPath id="P"><path d="M0 0h1080v1080H0z"/></clipPath><clipPath id="p"><path fill="#fff" d="m712 344-152.5 34.5L681 588l169.5-144.5s-43-74.25-39.35-85.56c3.6-11.14-56.45-16.5-56.45-16.5L712 344"/></clipPath><clipPath id="ae"><path d="M0 0h1080v1080H0z"/></clipPath><clipPath id="ab"><path d="M0 0h1080v1080H0z"/></clipPath><clipPath id="q"><path d="M0 0h1080v1080H0z"/></clipPath><clipPath id="r"><path d="M0 0h1080v1080H0z"/></clipPath><clipPath id="s"><path d="M0 0h1080v1080H0z"/></clipPath><clipPath id="t"><path d="M0 0h1080v1080H0z"/></clipPath><clipPath id="u"><path d="M0 0h1080v1080H0z"/></clipPath><clipPath id="v"><path d="M0 0h1080v1080H0z"/></clipPath><clipPath id="W"><path d="M0 0h1080v1080H0z"/></clipPath><clipPath id="U"><path d="M0 0h1080v1080H0z"/></clipPath><clipPath id="w"><path d="M0 0h1080v1080H0z"/></clipPath><clipPath id="S"><path d="M0 0h1080v1080H0z"/></clipPath><clipPath id="R"><path d="M0 0h1080v1080H0z"/></clipPath><clipPath id="Q"><path d="M0 0h1080v1080H0z"/></clipPath><clipPath id="E"><path d="M0 0h1080v1080H0z"/></clipPath><clipPath id="M"><path d="M0 0h1080v1080H0z"/></clipPath><clipPath id="x"><path d="M0 0h1080v1080H0z"/></clipPath><clipPath id="N"><path d="M0 0h1080v1080H0z"/></clipPath><clipPath id="y"><path d="M0 0h1080v1080H0z"/></clipPath><clipPath id="z"><path d="M0 0h1080v1080H0z"/></clipPath><clipPath id="A"><path d="M0 0h1080v1080H0z"/></clipPath><clipPath id="B"><path d="M0 0h1080v1080H0z"/></clipPath><clipPath id="H"><path d="M0 0h1080v1080H0z"/></clipPath><clipPath id="G"><path d="M0 0h1080v1080H0z"/></clipPath><clipPath id="F"><path d="M0 0h1080v1080H0z"/></clipPath><mask id="af" mask-type="alpha"><use xlink:href="#a"/></mask><mask id="ac" mask-type="alpha"><use xlink:href="#b"/></mask><mask id="aa" mask-type="alpha"><use xlink:href="#c"/></mask><mask id="Z" mask-type="alpha"><use xlink:href="#d"/></mask><mask id="Y" mask-type="alpha"><use xlink:href="#e"/></mask><mask id="X" mask-type="alpha"><use xlink:href="#f"/></mask><mask id="V" mask-type="alpha"><use xlink:href="#g"/></mask><mask id="T" mask-type="alpha"><use xlink:href="#h"/></mask><mask id="ag" mask-type="alpha"><use xlink:href="#i"/></mask><mask id="ad" mask-type="alpha"><use xlink:href="#j"/></mask><mask id="O" mask-type="alpha"><use xlink:href="#k"/></mask><mask id="L" mask-type="alpha"><use xlink:href="#l"/></mask><mask id="K" mask-type="alpha"><use xlink:href="#m"/></mask><mask id="J" mask-type="alpha"><use xlink:href="#n"/></mask><mask id="I" mask-type="alpha"><use xlink:href="#o"/></mask><g id="a" clip-path="url(#p)" style="display:block" transform="matrix(1.01 0 0 1.01 -6.48 -4.11)"><path fill="#55AFF9" d="M626.1 273.15c3.72-7.76 8.8-16.63 22.27-17.88 16.5-1.53 38.3-.09 56.67 8.1 32.51 14.49 45.71 24.73 57.69 43.18 6.05 9.32 5.37 16.9 1.35 26.74-4.8 11.77-90.76 195.89-95.8 206.01-5.6 11.21-10.85 14.82-27.5 14.66-16.58-.16-98.65-44.15-107.44-52.77-6.9-6.78-6.57-15.07-1.68-25.3 5.33-11.17 94.45-202.74 94.45-202.74z"/></g><g id="b" clip-path="url(#q)" style="display:block" transform="rotate(-6.21 665.73 209.03)"><path fill="#881B1B" d="M11.38-1.78c.73 1.84.23 3.5-1.13 4.57C8.72 4 6.43 3.94 5.54 3.15A3.05 3.05 0 0 1 4.4.63c.05-.63.3-1.45.91-2.3.64-.86 1.81-1.22 2.78-1.5 1.06-.3 2.62-.3 3.28 1.39z" style="display:block" transform="rotate(1.15 -11278.73 38254.67) scale(1.04)"/></g><g id="c" clip-path="url(#r)" style="display:block" transform="rotate(-15.28 777.93 208.53)"><path fill="#E08E70" d="M29.62-24.95c22.05 26.16 22.66 54.93 9 69.01C19.8 63.49-14.02 56.38-36.55 33.62c-22.04-22.27-24.02-56.07-1.4-71.38 16.99-11.51 45.53-13.36 67.57 12.8z" style="display:block" transform="rotate(18.25 -214.77 2437.17) scale(1.04)"/></g><g id="d" fill="#F0F2F8" clip-path="url(#s)" style="display:block" transform="rotate(6.22 893.04 278.14)"><path d="M-5.03-7.68c-4.99 4.32-9.03 10.15-8.43 14.98.6 4.77 6.32 10.33 11.52 9.94 3.3-.25 3.66-4.32 8.3-8.5 4.17-3.73 11.61-5.43 12.56-10.1 1.33-6.59-3.95-12.11-12.84-11.27-4.28.41-7.54 1.85-11.1 4.95z" style="display:block" transform="rotate(22.75 -203.02 1885.03) scale(1.04)"/><path d="M-11.43-2.2a21.39 21.39 0 0 0 3.84 16.94c3.06 4.31 10.38 6.7 14.87 3.13 2.85-2.26 1.13-9.05 3.05-15.66 1.76-6.06 6.48-9.33 4.46-14.16-2.86-6.82-11.1-8.64-18.64-2.32-4.9 4.11-6.66 6.95-7.58 12.06z" style="display:block" transform="rotate(37.75 69.92 1203.28) scale(1.04)"/></g><g id="e" clip-path="url(#t)" style="display:block" transform="rotate(-15.28 777.93 208.53)"><path fill="#E08E70" d="M29.62-24.95c22.05 26.16 22.66 54.93 9 69.01C19.8 63.49-14.02 56.38-36.55 33.62c-22.04-22.27-24.02-56.07-1.4-71.38 16.99-11.51 45.53-13.36 67.57 12.8z" style="display:block" transform="rotate(18.25 -214.77 2437.17) scale(1.04)"/></g><g id="f" fill="#F0F2F8" clip-path="url(#u)" style="display:block" transform="rotate(6.22 893.04 278.14)"><path d="M-5.03-7.68c-4.99 4.32-9.03 10.15-8.43 14.98.6 4.77 6.32 10.33 11.52 9.94 3.3-.25 3.66-4.32 8.3-8.5 4.17-3.73 11.61-5.43 12.56-10.1 1.33-6.59-3.95-12.11-12.84-11.27-4.28.41-7.54 1.85-11.1 4.95z" style="display:block" transform="rotate(22.75 -203.02 1885.03) scale(1.04)"/><path d="M-11.43-2.2a21.39 21.39 0 0 0 3.84 16.94c3.06 4.31 10.38 6.7 14.87 3.13 2.85-2.26 1.13-9.05 3.05-15.66 1.76-6.06 6.48-9.33 4.46-14.16-2.86-6.82-11.1-8.64-18.64-2.32-4.9 4.11-6.66 6.95-7.58 12.06z" style="display:block" transform="rotate(37.75 69.92 1203.28) scale(1.04)"/></g><g id="g" clip-path="url(#v)" style="display:block" transform="rotate(-15.28 777.93 208.53)"><path fill="#E08E70" d="M29.62-24.95c22.05 26.16 22.66 54.93 9 69.01C19.8 63.49-14.02 56.38-36.55 33.62c-22.04-22.27-24.02-56.07-1.4-71.38 16.99-11.51 45.53-13.36 67.57 12.8z" style="display:block" transform="rotate(18.25 -214.77 2437.17) scale(1.04)"/></g><g id="h" clip-path="url(#w)" style="display:block" transform="rotate(2.96 758.16 257.8)"><path fill="#E37BDC" d="M74 0A74 74 0 1 1-74 0 74 74 0 0 1 74 0z" style="display:block" transform="matrix(1.04 0 0 1.04 757.28 185.72)"/></g><g id="k" clip-path="url(#x)" style="display:block" transform="rotate(14.17 302.43 489.55)"><path fill="#4AAF22" d="M293.15 515.87c-7.31-1.96-10 12.16-47.54 15.14-1.12.09-3.07 2.2-3.82 5.17-1.07 4.3.42 10.43 10.58 15.04 8.25 3.74 34.79 2.14 46.33-.86 9.12-2.37 16.04-8.38 11.76-16.67-3.77-7.33-9.71-15.8-17.31-17.82z" style="display:block" transform="rotate(-2.33 -310.64 1159.55) scale(1.04)"/></g><g id="l" fill="#F0F2F8" clip-path="url(#y)" style="display:block" transform="rotate(2.42 245.57 575.02)"><path d="M-18.92 7.62c-.04 3.8 3.33 10.85 7.67 11 4.34.15 14.96.34 18.5.46 4.33.15 10.06-5.46 10.4-10.47.22-3.54 1.04-17.43 1.27-23.9.06-1.8-1.97-3.27-3.77-3.33-5.78-.2-15.22-.46-18.82-.46-7.4 0-14.04 7.35-14.38 12.32-.25 3.66-.82 10.52-.87 14.38z" style="display:block" transform="rotate(-6.52 4151.8 -3351.05) scale(1.04)"/><path d="M18.31 9.56c-.14 2.9-3.91 11.12-8.29 10.97-4.37-.15-15.07-.7-18.64-.82-4.37-.15-10.11-6.4-9.93-11.7.17-5 .9-18.69 1.14-25.54.06-1.9 1.74-3.07 3.55-3 5.84.2 14.72.24 18.34.5 6.34.44 14.27 9.23 14.07 14.93-.13 3.88-.04 10.59-.24 14.66z" style="display:block" transform="rotate(-6.52 4132.44 -2971.76) scale(1.04)"/></g><g id="m" fill="#F0F2F8" clip-path="url(#z)" style="display:block" transform="rotate(2.42 245.57 575.02)"><path d="M-18.92 7.62c-.04 3.8 3.33 10.85 7.67 11 4.34.15 14.96.34 18.5.46 4.33.15 10.06-5.46 10.4-10.47.22-3.54 1.04-17.43 1.27-23.9.06-1.8-1.97-3.27-3.77-3.33-5.78-.2-15.22-.46-18.82-.46-7.4 0-14.04 7.35-14.38 12.32-.25 3.66-.82 10.52-.87 14.38z" style="display:block" transform="rotate(-6.52 4151.8 -3351.05) scale(1.04)"/><path d="M18.31 9.56c-.14 2.9-3.91 11.12-8.29 10.97-4.37-.15-15.07-.7-18.64-.82-4.37-.15-10.11-6.4-9.93-11.7.17-5 .9-18.69 1.14-25.54.06-1.9 1.74-3.07 3.55-3 5.84.2 14.72.24 18.34.5 6.34.44 14.27 9.23 14.07 14.93-.13 3.88-.04 10.59-.24 14.66z" style="display:block" transform="rotate(-6.52 4132.44 -2971.76) scale(1.04)"/></g><g id="n" fill="#F0F2F8" clip-path="url(#A)" style="display:block" transform="rotate(2.42 245.57 575.02)"><path d="M-18.92 7.62c-.04 3.8 3.33 10.85 7.67 11 4.34.15 14.96.34 18.5.46 4.33.15 10.06-5.46 10.4-10.47.22-3.54 1.04-17.43 1.27-23.9.06-1.8-1.97-3.27-3.77-3.33-5.78-.2-15.22-.46-18.82-.46-7.4 0-14.04 7.35-14.38 12.32-.25 3.66-.82 10.52-.87 14.38z" style="display:block" transform="rotate(-6.52 4151.8 -3351.05) scale(1.04)"/><path d="M18.31 9.56c-.14 2.9-3.91 11.12-8.29 10.97-4.37-.15-15.07-.7-18.64-.82-4.37-.15-10.11-6.4-9.93-11.7.17-5 .9-18.69 1.14-25.54.06-1.9 1.74-3.07 3.55-3 5.84.2 14.72.24 18.34.5 6.34.44 14.27 9.23 14.07 14.93-.13 3.88-.04 10.59-.24 14.66z" style="display:block" transform="rotate(-6.52 4132.44 -2971.76) scale(1.04)"/></g><g id="o" fill="#F0F2F8" clip-path="url(#B)" style="display:block" transform="rotate(2.42 245.57 575.02)"><path d="M-18.92 7.62c-.04 3.8 3.33 10.85 7.67 11 4.34.15 14.96.34 18.5.46 4.33.15 10.06-5.46 10.4-10.47.22-3.54 1.04-17.43 1.27-23.9.06-1.8-1.97-3.27-3.77-3.33-5.78-.2-15.22-.46-18.82-.46-7.4 0-14.04 7.35-14.38 12.32-.25 3.66-.82 10.52-.87 14.38z" style="display:block" transform="rotate(-6.52 4151.8 -3351.05) scale(1.04)"/><path d="M18.31 9.56c-.14 2.9-3.91 11.12-8.29 10.97-4.37-.15-15.07-.7-18.64-.82-4.37-.15-10.11-6.4-9.93-11.7.17-5 .9-18.69 1.14-25.54.06-1.9 1.74-3.07 3.55-3 5.84.2 14.72.24 18.34.5 6.34.44 14.27 9.23 14.07 14.93-.13 3.88-.04 10.59-.24 14.66z" style="display:block" transform="rotate(-6.52 4132.44 -2971.76) scale(1.04)"/></g><path id="j" fill="#F28CED" d="M9.75 68.25C2.87 64.59-134.5 35-57.01-32.27c23.22-20.15 66.63-11.6 68.38-11.85C29-46.76 43.5-41.76 61.13-33.88 78.75-26 96.63-11 99.63.76 98.38 4 113.6 23.65 113.75 61.5c.25 63-45.25 38-104 6.75z" style="display:block" transform="translate(540 540)"/><path id="i" fill="#10021B" d="M34.78-26.7v53.4h-69.56v-53.4h69.56z" style="display:block" transform="matrix(0 0 0 0 581.28 554.9)"/></defs><g clip-path="url(#C)"><g clip-path="url(#D)" style="display:block"><path fill="#3067E2" d="M29.2 123.94c-.34.35-48.58 5.31-48.58 5.31l.42-75.46 46.2-.94 1.97 71.1z" style="display:block" transform="matrix(1.04 0 0 1.04 769.9 289.05)"/><g clip-path="url(#E)" style="display:block"><path fill="#A56FFF" d="M-59.57 23.77c9.95-11.34 25.06-27.25 33.61-35.4 14.39-13.72 35.8-16.32 49.93-5.18 15.95 12.59 35.6 37.4 35.6 37.4l-119.14 3.18z" style="display:block" transform="matrix(1.04 0 0 1.04 372.4 615.15)"/><path fill="#A56FFF" d="M-83.35 55.06c26.32 16.4 145.06 23.6 164.96 25.31-.64-12.2-3.21-87.45-5.54-105.7-4.5-35.31-30.38-57.17-62.27-58-33.17-.85-47.74 9.56-62.27 29.32-16.05 21.83-24.6 70.12-34.88 109.07z" style="display:block" transform="rotate(-4.1 6620.14 -5338.16) scale(1.04)"/><path fill="#593F86" d="M5.67-55.4C7.46-47.63 16.4-3.47 19 14.23c2.58 17.7 8.55 45.75 8.55 45.75l-38.2.2s2.87-31.51.6-46.74c-5.96-40.18-12.53-56.89-17.5-73.6l33.22 4.78z" style="display:block" transform="rotate(-.5 65298.1 -48362.8) scale(1.04)"/><g clip-path="url(#F)" style="display:block"><path fill="#F38DEE" d="M1 75.5c-75 4-366.25 34.5-370 38.38a22.17 22.17 0 0 0-6.25 13.87c-.38 5.13-3.13 51.75-3.38 56.38-.25 4.62 1 11 3.63 14.5S-172.68 383.03-167.87 387c10.62 8.75 29.62 9.88 48.37 4.88 21.85-5.83 369.5-108.63 380.63-112 11.12-3.38 13.12-13.75 14-21.25.87-7.5 7.9-45.77 8.75-52.13.5-3.75 0-4.25-2.63-6.88C278.62 197 76 71.5 1 75.5z" style="display:block" transform="translate(540 540)"/><g style="display:block"><path fill="#FFB7E3" d="M582.63 593.38C569.3 595.2 207.25 644.32 188 646.75c-23.75 3-24.5 17.75-10.5 31.75S363.06 846.7 379.25 862c13.5 12.75 32.5 13.5 47.25 8.5 19.42-6.58 378.53-110.67 388-114.75C829 749.5 826.38 739 805.75 724c-11.45-8.33-175.92-116.79-187.13-124.75-9.5-6.75-17.75-8.38-36-5.88z"/><path fill="#FFF" d="M579.33 600.65c-12.8 1.76-360.87 48.98-379.38 51.32-22.83 2.88-24.1 11.43-11.13 24.4 13.46 13.45 182.98 158.57 197.45 171.4 13.23 11.73 23.48 13.73 42.68 7.92 18.86-5.7 364.6-103.66 374-106.81 10.8-3.63 11.8-9.38-10.04-22.65-11.63-7.07-171.16-113.73-181.14-120.55-9.25-6.33-14.9-7.43-32.44-5.03z"/><path fill="#58CC02" d="M261.75 666.13c-4.88.62-25.62 4.4-30.25 5.12-8 1.25-6.75 6-2.63 9.5 5.73 4.86 154.06 130.04 162.88 137.75 6 5.25 14.25 7 19.25 5.5s25.75-7.25 33-9.75 5.75-7-1-13.25-154.04-125.58-159.38-129.88c-6.37-5.12-13.12-6.12-21.87-5z"/></g><path fill="#2E67E2" d="M-96.88 94.5c-4.13.36-8.5.95-13.5 1.5-8 .88 4.75 12.75 13.25 12.13a128.5 128.5 0 0 0 14.75-1.88c6.85-1.27-5.65-12.52-14.5-11.75z" style="display:block" transform="translate(540.75 540.5)"/><path fill="#1FA5F3" d="M-90.63 92.75c-4.12.5-24.29 4.17-29.25 5-9.75 1.63 6 13.88 17.88 11.88a1305.2 1305.2 0 0 0 27-5c8.75-1.75-5.13-13.13-15.63-11.88z" style="display:block" transform="translate(564 557.5)"/><path fill="#3068E2" d="M-74 89.13c-6.63.87-57.04 11.67-62 12.5-9.75 1.62 6 13.87 17.88 11.87 7.82-1.32 53.8-11.22 59.75-12.5 8.74-1.88-5.15-13.26-15.63-11.88z" style="display:block" transform="translate(584.88 574.25)"/><path fill="#1FA5F3" d="M-85.75 91.63c-6.63.87-26.86 5.1-31.75 6.25-9.13 2.12 6 13.87 17.88 11.87 7.82-1.32 23.55-4.97 29.5-6.25 8.75-1.88-5.15-13.26-15.63-11.88z" style="display:block" transform="translate(606.63 592.75)"/><path fill="#3068E2" d="M-69.25 88c-6.63.88-60.98 13.11-65.88 14.25-9.12 2.13 6 13.88 17.88 11.88 7.83-1.32 57.68-12.98 63.63-14.25C-44.88 98-58.77 86.6-69.25 88z" style="display:block" transform="translate(630.88 611)"/><path fill="#1FA5F3" d="M-42.25 81.5c-6.53 1.42-111.23 25.36-116.13 26.5-9.12 2.13 6 13.88 17.88 11.88 7.83-1.32 108-24.9 113.88-26.5 9.12-2.5-5.25-14.13-15.63-11.88z" style="display:block" transform="translate(655.13 631.5)"/><path fill="#3068E2" d="M-84.38 91.88c-6.53 1.41-22.98 4.48-27.87 5.62-9.13 2.13 6 13.88 17.88 11.88a325.7 325.7 0 0 0 25.62-5.63c9.13-2.5-5.25-14.13-15.63-11.88z" style="display:block" transform="translate(681.63 651.75)"/><path fill="#3068E2" d="M-92.13 93.75c-6.54 1.37-4 .88-11.62 2.63-9.13 2.1 6.15 14.63 17.88 11.87a97.7 97.7 0 0 0 9.37-2.63c9.38-3.25-7.25-13.62-15.63-11.87z" style="display:block" transform="translate(709.38 671.75)"/><g style="display:block"><path fill="#D7E8E5" d="M591.86 623.49c-2.22 1.2-2.49 3.51.39 5.63 8.53 6.31 103.35 72.3 124.13 85.5 12 7.63 18.16 6.85 21.13 4.75 2.99-2.12 1.62-5.75-7.51-11.87-8.8-5.91-110.13-73.5-123-81.88-3.9-2.53-10.75-4.5-15.14-2.13zm0 0c-2.22 1.2-2.49 3.51.39 5.63 8.53 6.31 62.63 43.88 82.38 57.5 11.7 8.08 18.16 6.85 21.13 4.75 2.99-2.12 1.62-5.75-7.51-11.87-8.8-5.91-68.38-45.5-81.25-53.88-3.9-2.53-10.75-4.5-15.14-2.13z"/><path fill="#58CC02" d="M591.86 623.49c-2.22 1.2-2.49 3.51.39 5.63 8.53 6.31 62.63 43.88 82.38 57.5 11.7 8.08 18.16 6.85 21.13 4.75 2.99-2.12 1.62-5.75-7.51-11.87-8.8-5.91-68.38-45.5-81.25-53.88-3.9-2.53-10.75-4.5-15.14-2.13z"/></g></g><g clip-path="url(#G)" style="display:block" transform="translate(-7 -11)"><path fill="#58CC02" d="M19.92 0a19.92 19.92 0 1 1-39.84 0 19.92 19.92 0 0 1 39.84 0z" style="display:block" transform="translate(234.82 315.24) scale(1.25218)"/></g><path fill="#593F86" d="M72.87 10.51c-2.79 4.98-21.58 18.1-47.18 19.02-29.74 1.07-83.55-15.1-96.21-54.18 5.97-6.76 15.37-19.06 24.23-26.62 10.5 13.39 35.14 34.61 57.05 42.7C28.22-2.13 41.46 3.1 66.83-4.18c1.2 3.78 6.04 14.7 6.04 14.7z" style="display:block" transform="rotate(-.49 61360.6 -38659.9) scale(1.04)"/><path fill="#593F86" d="M12.28-63.35C19.24-55 52.85-2.29 57.43 3.08c4.57 5.37 6.36 20.1-1.8 22.88-8.15 2.78-32.81 11.33-42.36 14.32-9.55 2.98-18.04 9-21.68 17.5-2.39 5.57-5.96 5.57-10.34 5.57-4.22 0-45.69-4.21-42.37-16.5 2-7.37 41.97-22.48 60.47-31.04 18.5-8.55 0-70.4 1-70.8.99-.4 11.93-8.36 11.93-8.36z" style="display:block" transform="rotate(-.5 67151.26 -47417.35) scale(1.04)"/><path fill="#FFC4B4" d="M28.89 66.95c10.78.42 22.21-8.58 22.87-18.58.64-10 3.63-60.54 4.15-69.63.52-9.1-11.4-44.2-44.69-45.6-27.67-1.17-49.1 8.31-51.18 19.61-1.25 6.76-15.07 86.26-15.85 92.37-.78 6.1 2.34 12.08 10.78 13 8.44.9 64.05 8.44 73.92 8.83z" style="display:block" transform="rotate(-4.1 6519.3 -5436.28) scale(1.04)"/><path fill="#A56FFF" d="M-9.96-66.67c5.62 32-10.68 123.1-10.84 128.53-.16 5.44 3.1 6.45 4.7 6.58 9.34.81 20.6-4.9 27.08-9.62a5.43 5.43 0 0 0 2.22-4.64c-.7-16.26-4.5-87.9-6.01-99.77-1.6-12.64-2.4-16.48-5.28-21.92-2.88-5.43-11.87.84-11.87.84z" style="display:block" transform="rotate(-4.1 6939.42 -6358.77) scale(1.04)"/><g fill="#F0F2F8" clip-path="url(#H)" style="display:block" transform="rotate(2.42 245.57 575.02)"><path d="M-18.92 7.62c-.04 3.8 3.33 10.85 7.67 11 4.34.15 14.96.34 18.5.46 4.33.15 10.06-5.46 10.4-10.47.22-3.54 1.04-17.43 1.27-23.9.06-1.8-1.97-3.27-3.77-3.33-5.78-.2-15.22-.46-18.82-.46-7.4 0-14.04 7.35-14.38 12.32-.25 3.66-.82 10.52-.87 14.38z" style="display:block" transform="rotate(-6.52 4151.8 -3351.05) scale(1.04)"/><path d="M18.31 9.56c-.14 2.9-3.91 11.12-8.29 10.97-4.37-.15-15.07-.7-18.64-.82-4.37-.15-10.11-6.4-9.93-11.7.17-5 .9-18.69 1.14-25.54.06-1.9 1.74-3.07 3.55-3 5.84.2 14.72.24 18.34.5 6.34.44 14.27 9.23 14.07 14.93-.13 3.88-.04 10.59-.24 14.66z" style="display:block" transform="rotate(-6.52 4132.44 -2971.76) scale(1.04)"/></g><g mask="url(#I)" style="display:block"><path fill="none" d="m439.04 379.77 7.66 103.72-103.72 7.66-7.66-103.72 103.72-7.66z"/><path fill="#F0F2F8" d="m402.4 461.58-.44-10.59"/><path fill="none" stroke="#3D3D3D" stroke-linecap="round" stroke-linejoin="round" stroke-width="13.52" d="m402.4 461.58-.44-10.59"/></g><g mask="url(#J)" style="display:block"><path fill="none" d="m444.03 379.94 7.44 103.73-103.74 7.44-7.43-103.73 103.73-7.44z"/><path fill="#F0F2F8" d="m368.43 461.74-.42-10.6"/><path fill="none" stroke="#3D3D3D" stroke-linecap="round" stroke-linejoin="round" stroke-width="13.52" d="m368.43 461.74-.42-10.6"/></g><g mask="url(#K)" style="display:block"><path fill="#A56FFF" d="m392.07 463.96 40.85-1.34s14.41-29.69 1.48-28.76l-38.98 2.8c-5.9.41-3.07 27.54-3.35 27.3z"/></g><g mask="url(#L)" style="display:block"><path fill="#A56FFF" d="M388.57 463.72c-9.7.27-31.25.8-34.96.9-3.7.1-1.65-27.21.69-31.45 2.34-4.25 12.21-1.08 16.26-1.38 4.05-.3 19.8.93 18.75 13.12-1.05 12.2-.74 18.8-.74 18.8z"/></g><path fill="#FFC4B4" d="M427.43 466.69c-5.7 1.31-10.04 3.23-14.92 8-4.9 4.77 8.18 14.34 19.1 9.76 10.91-4.58 16.9-14.2 14.23-15.82-4.2-2.52-11.7-3.49-18.4-1.94z" style="display:block" transform="rotate(-4.1 244.37 839.34) scale(1.04)"/><path fill="none" stroke="#FA907E" stroke-linecap="round" stroke-linejoin="round" stroke-width="4" d="M-7.3 2.9C-3.81-.92.45-2.73 7.3-2.9" style="display:block" transform="rotate(-21.1 1518.1 -883.5) scale(1.04)"/><path fill="#A56FFF" d="M42.77 27.5s-24.27 9.54-56.96 5.76c-23.4-2.7-29.5-24.7-28.55-41.24l-.2-15.04s4.66-3.89 32.85-4.01c28.2-.14 51.69 13.3 52.86 54.53z" style="display:block" transform="rotate(-4.1 5916.68 -5611.32) scale(1.04)"/><path fill="#FFC4B4" d="M14.7 0a14.7 14.7 0 1 1-29.4 0 14.7 14.7 0 0 1 29.4 0z" style="display:block" transform="rotate(-4.1 6498.79 -6184.58) scale(1.04)"/><path fill="#FA907E" d="M2.37-8.04C-.6-6.38-6.2-1.44-6.3 1.64c-.12 3.58 2.57 6.4 6.35 6.4 4.34 0 6.25-4.03 6.25-6.45s-2.38-7.7-3.93-9.63z" style="display:block" transform="rotate(-4.1 6855.89 -5182.66) scale(1.04)"/><path fill="#A56FFF" d="M31.84-65.52C30.15-46.02 11.72 59.03 11.18 63.37c-.7 5.62-2.39 10.2-7.24 9.35-4.1-.71-21.5-4.1-34.4-19.06a5.8 5.8 0 0 1-1.39-4.58C-30.3 38.03-19.64-1.37-14.7-17.44-11.17-28.99-2.75-53.08 9.21-64.3c6.7-6.3 23.82-14.9 22.63-1.21z" style="display:block" transform="rotate(-4.1 6715.64 -4589.3) scale(1.04)"/><g clip-path="url(#M)" style="display:block" transform="rotate(-.49 424.66 568)"><path fill="none" stroke="#F7AFB1" stroke-linecap="round" stroke-linejoin="round" stroke-width="13" d="M4.3-3.1C2.27-.7-1.52 1.76-4.3 3.1" style="display:block" transform="rotate(11.84 -2126.59 1566.26) scale(1.04)"/><path fill="none" stroke="#F7AFB1" stroke-linecap="round" stroke-linejoin="round" stroke-width="11" d="M-2.26-.7C-.72-.31 1.39.42 2.26.7" style="display:block" transform="rotate(11.84 -2095.47 1420.24) scale(1.04)"/><path fill="none" stroke="#F7AFB1" stroke-linecap="round" stroke-linejoin="round" stroke-width="11" d="M-2.14-.08c1.59 0 3.37.1 4.28.16" style="display:block" transform="rotate(11.84 -2155.92 1419.29) scale(1.04)"/><path fill="none" stroke="#F7AFB1" stroke-linecap="round" stroke-linejoin="round" stroke-width="11" d="M2.64-.99C1.74-.7-1.24.64-2.64 1" style="display:block" transform="rotate(11.84 -2207.6 1385.47) scale(1.04)"/><path fill="#E4F5FF" d="M-1.84-49.45c7.36 0 15.41 1.03 15.53 9.66.12 8.4.69 23.47.69 26 0 2.53 1.15 8.05 2.88 10.47 1.72 2.41 8.05 9.2 14.95 14.49 6.9 5.3 10.24 12.08 10.24 18.52 0 3.68-3.92 13.66-23.12 17.25-14.15 2.65-25.77 3.23-39.8 1.62-12.16-1.4-21.9-7.14-21.98-14.27-.11-9.66 3.7-15.78 11.5-22.89C-24.6 5.65-20.67 1.7-18.51-.9c2.88-3.46 3-7.03 3-12.78 0-4.94-2.2-24.04-2.2-26.34 0-8.17 9.1-9.43 15.88-9.43z" style="display:block" transform="rotate(11.84 -2268.19 1495.92) scale(1.04)"/><g clip-path="url(#N)" style="display:block" transform="rotate(14.17 302.43 489.55)"><path fill="#4AAF22" d="M293.15 515.87c-7.31-1.96-10 12.16-47.54 15.14-1.12.09-3.07 2.2-3.82 5.17-1.07 4.3.42 10.43 10.58 15.04 8.25 3.74 34.79 2.14 46.33-.86 9.12-2.37 16.04-8.38 11.76-16.67-3.77-7.33-9.71-15.8-17.31-17.82z" style="display:block" transform="rotate(-2.33 -310.64 1159.55) scale(1.04)"/></g><g mask="url(#O)" style="display:block"><path fill="#58CC02" d="M257.5 486.01c-13.2-3.4-16.3 4.7-20.5 8.66-6.47 6.12-22.08 14.62-15.85 20.07 11.99 10.45 38.8 6.43 49.2 2.26 4.74-1.88 15.42-5.28 11.3-12.86-4.12-7.52-10.94-14.72-24.15-18.13z"/></g></g></g><g clip-path="url(#P)" style="display:block"><g clip-path="url(#Q)" style="display:block"><path fill="#F38DEE" d="M4.8-35.07c-16.5.24-42.64 9-49.92 9.24-2.43 1.7-7.89 7.03-7.89 24.5 0 15.76 5.1 27.9 8.74 30.32H53V-29S4.43-35.07 4.8-35.07z" style="display:block" transform="rotate(-20.52 1294.04 -1503.98) scale(1.04)"/><path fill="none" stroke="#FF86D0" stroke-linecap="round" stroke-linejoin="round" stroke-width="26" d="M-.91-9.76C4.98-4.66 4.07 5.7.91 9.76" style="display:block" transform="rotate(-120.57 373.63 40.9) scale(1.04)"/></g><path fill="#F38DEE" d="m258-230-72 8-30.5 110 93-41 9.5-77z" style="display:block" transform="translate(540 540)"/><g style="display:block"><path fill="#9CD9FF" d="M670.48 635.93c2.41 2.42 58.95 38.56 58.95 38.56L836.7 449.87l-78.22 10.06s-85.49 162.87-87.44 166.5c-1.96 3.64-1.96 8.1-.56 9.5z"/><path fill="#55AFF9" d="M766.84 700.16c3.01-.6 4.82-2.11 7.53-6.33 2.72-4.22 98.9-192.36 107.04-217.09 8.14-24.72 1.3-44.08-7-53.67-8.68-10.04-20.77-18.82-34.66-19.32-8.49-.3-135.63 11.15-135.63 11.15l-7.2 59.6s121.48-17.9 128.01-18.96c4.98-1.02 7.14 1.42 5.81 4.89-10.78 28.63-98.89 201.24-100.99 205.96-2.41 5.43-2.1 10.25-.3 10.85 1.8.6 37.39 22.92 37.39 22.92z"/><path fill="#088DE3" d="M793.24 569.08c11.37-23.05 31.39-50.03 51.98-56.11 9.81-2.75 17.27-.2 21.58 1.37 4.32 1.57 31.4 12.36 35.32 14.13 3.92 1.76-67.3 163.61-74.75 161.06-7.45-2.55-37.67-17.07-42.37-20.4-4.71-3.34-10.69-9.81-10.99-19.62-.59-19.22 4.12-49.83 19.23-80.43z"/><path fill="#264AA0" d="M823.76 589.72c-20.97 41.18-27.4 86.2-.65 98.23 23.89 10.72 57.36-14.85 76.62-58.88 18.8-42.99 28.1-88.41 5.44-99.32-28.28-13.6-57.72 13.42-81.41 59.97z"/></g><g clip-path="url(#R)" style="display:block"><path fill="none" stroke="#FF86D0" stroke-linecap="round" stroke-linejoin="round" stroke-width="26" d="m-12.4 4.32 24.8-8.64" style="display:block" transform="rotate(-16.38 2172.74 -2300.32) scale(1.04)"/><path fill="#F38DEE" d="M252-216.5c0 6-3 11.15-6 15.15s-44.5 47-51.5 54.5-11.02 22.92 3.63 37.57c9.42 9.42 21 7.11 28.5.11s44.87-46.33 44.87-46.33-19.5-67-19.5-61z" style="display:block" transform="rotate(.35 -87345.39 88787.5)"/><path fill="#F38DEE" d="M740.85 391.1c-5.53 3.97-8.22 6.7-10.34 14.79-1.38 5.26-16.25 63.1-16.93 68.57-.68 5.45.18 10.6 6.54 12.15 6.36 1.55 31.44 6.46 36.87 7.39 5.43.93 9.46-3.1 10.57-8 1.12-4.9 14.2-75.65 14.88-81.11.69-5.46-2.82-14.9-10.65-16.1-8.07-1.25-24.59-2.23-30.94 2.32z" style="display:block"/></g><path fill="#3067E2" d="M-19.03-22.1v-8.02s48.29-32.85 48.64-33.2l-2.4 92.37s-15.23 7.8-46.24 2.86v-54" style="display:block" transform="rotate(.09 -178742.02 477274.32) scale(1.04)"/><path fill="#C2E2F6" d="M20.26 38.62S33.32 1.7 22.04-.1c-13.82-2.2-35.2-21.29-35.2-21.29l-8.4 35.49 41.82 24.52z" style="display:block" transform="matrix(1.04 0 0 1.04 770.54 297.7)"/><path fill="#C2E2F6" d="M-20.2-93.82c-2.45 7.16-2.4 13.9-4.02 32.35-4.17 47.38-9.74 132.6-9.74 148.6C-4.95 93.4 25.72 73.46 29.3 51.25c-2.72-32.6-14.52-116.1-16.6-133.48-.82-6.8-10.46-12.9-14.32-13.97-3.86-1.06-13.87-1.17-18.58 2.38z" style="display:block" transform="rotate(.09 -212075.82 508988.78) scale(1.04)"/><g clip-path="url(#S)" style="display:block" transform="rotate(2.96 758.16 257.8)"><path fill="#E37BDC" d="M74 0A74 74 0 1 1-74 0 74 74 0 0 1 74 0z" style="display:block" transform="matrix(1.04 0 0 1.04 757.28 185.72)"/></g><g mask="url(#T)" style="display:block"><path fill="#FFB7E3" d="M817.77 121.4c4.88 26.28-2.36 65.48-10.39 79.64-8.48 14.98-42.16 49.89-128.85 54.76-86.69 4.88-34.6-130.82 16.82-154.3 63.51-28.98 117.72-5.4 122.42 19.9z"/></g><g clip-path="url(#U)" style="display:block" transform="rotate(-15.28 777.93 208.53)"><path fill="#E08E70" d="M29.62-24.95c22.05 26.16 22.66 54.93 9 69.01C19.8 63.49-14.02 56.38-36.55 33.62c-22.04-22.27-24.02-56.07-1.4-71.38 16.99-11.51 45.53-13.36 67.57 12.8z" style="display:block" transform="rotate(18.25 -214.77 2437.17) scale(1.04)"/></g><g mask="url(#V)" style="display:block"><g fill="#F0F2F8" clip-path="url(#W)" transform="rotate(6.22 893.04 278.14)"><path d="M-5.03-7.68c-4.99 4.32-9.03 10.15-8.43 14.98.6 4.77 6.32 10.33 11.52 9.94 3.3-.25 3.66-4.32 8.3-8.5 4.17-3.73 11.61-5.43 12.56-10.1 1.33-6.59-3.95-12.11-12.84-11.27-4.28.41-7.54 1.85-11.1 4.95z" style="display:block" transform="rotate(22.75 -203.02 1885.03) scale(1.04)"/><path d="M-11.43-2.2a21.39 21.39 0 0 0 3.84 16.94c3.06 4.31 10.38 6.7 14.87 3.13 2.85-2.26 1.13-9.05 3.05-15.66 1.76-6.06 6.48-9.33 4.46-14.16-2.86-6.82-11.1-8.64-18.64-2.32-4.9 4.11-6.66 6.95-7.58 12.06z" style="display:block" transform="rotate(37.75 69.92 1203.28) scale(1.04)"/></g></g><g mask="url(#X)" style="display:block"><path fill="#10021B" d="m749.66 207.03-1.74-5.68a7.1 7.1 0 1 1 13.6-4.16l1.73 5.67a7.1 7.1 0 1 1-13.6 4.16z"/><path fill="#F0F2F8" d="m747.41 198.87-.62-2.02a2.53 2.53 0 1 1 4.83-1.48l.63 2.02a2.53 2.53 0 1 1-4.83 1.48z"/></g><g fill="#E08E70" mask="url(#Y)" style="display:block"><path d="M776.75 189.5c-5.28-1.34-12-.46-19.41 4.3-3.85 2.46-12.07 8.28-12.01 13.93.06 5.64 8.28 17.37 8.28 17.37l32.67-7.66s-4.24-26.6-9.53-27.94z"/><path d="M782.45 196.58c-3.6-3.81-17.4-5.74-24.45-1.54-6.4 3.8-13.42 11.6-13.8 17.86-.36 5.63-7.36-33.45-7.36-33.45l39.84-11.84s12.66 36.26 5.77 28.97z"/></g><path fill="none" stroke="#9E4D31" stroke-linecap="round" stroke-linejoin="round" stroke-width="3" d="M-8.43 8.62C-4.88.48 0-5.8 8.43-8.62" style="display:block" transform="rotate(2.97 -3385.3 14753.08) scale(1.04)"/><g mask="url(#Z)" style="display:block"><path fill="#10021B" d="m712.06 220.24-3.43-6.16a8.45 8.45 0 1 1 14.77-8.23l3.43 6.16a8.45 8.45 0 1 1-14.77 8.23z"/><path fill="#F0F2F8" d="m706.45 210.58-1.3-2.34a3.2 3.2 0 1 1 5.6-3.12l1.3 2.34a3.2 3.2 0 0 1-5.6 3.12z"/></g><g mask="url(#aa)" style="display:block"><path fill="#E08E70" d="M746.01 223.31c-5.44-.3-13.1 2.6-21 6.9-4.12 2.24-11.91 8.11-11.57 11.83.53 5.62 14.4 20.5 14.4 20.5l30.6-13.75s-6.99-25.17-12.43-25.48zm-13.83-36.34c-5.22-3.33-14.93-3.28-24.18 1.98-7 4-9.83 13.1-9.02 19.32.73 5.6-14.73-30.58-14.73-30.58l36.85-19.23s19.53 33.9 11.08 28.51z"/></g><path fill="#9E4D31" d="M-3.2-7C-1.83-5.37 2.03-2.27 4.23.27c1.26 1.46-.24 5.64-2.75 6.49-2.55.87-6.16-.75-6.16-3.03C-4.7.99-3.53-5.01-3.2-7z" style="display:block" transform="rotate(2.97 -3848.2 14483.22) scale(1.06)"/><path fill="#10021B" d="M-46.72 5.05c-.62 4.21 4.3 16.44 16.95 20.42 12.31 3.34 26.13 2.68 44.13-5.48 11.7-5.31 29.34-22.95 34.29-38.36-6.7-4.04-25.25-11.02-40.48-5.25-15.84 6-25.2 19.24-29.21 22.47C-24.57 1.69-33.78 4-39.54.32c-3.37-2.16-6.77 1.98-7.18 4.73z" style="display:block" transform="rotate(7.37 -967.58 5622.67) scale(1.04)"/><g clip-path="url(#ab)" style="display:block" transform="rotate(-6.21 665.73 209.03)"><path fill="#881B1B" d="M11.38-1.78c.73 1.84.23 3.5-1.13 4.57C8.72 4 6.43 3.94 5.54 3.15A3.05 3.05 0 0 1 4.4.63c.05-.63.3-1.45.91-2.3.64-.86 1.81-1.22 2.78-1.5 1.06-.3 2.62-.3 3.28 1.39z" style="display:block" transform="rotate(1.15 -11278.73 38254.67) scale(1.04)"/></g><g mask="url(#ac)" style="display:block"><path fill="#B12E2E" d="M770.77 246.15c-.9-6.76-.71-14.24 2.35-20.38 3.06-6.13 8.21-10.8 15.15-12.46 6.95-1.65 7.14 16.42 3.35 25.37-3.8 8.96-20.85 7.47-20.85 7.47z"/></g><path fill="#264AA0" d="M-42.17.56c2.17-4.54 8.63-18.78 11.9-24.65 1.62-2.92 5.54-6.18 9.51-7.35 5.84-1.73 22.1-1.88 33.84 1.94C27.35-24.85 36-17.28 41.2-5.6c2.05 5.19.43 11.95-.94 14.53-2.25 4.25-14.9 22.23-15.88 23.64C23.4 33.97-42.17.56-42.17.56z" style="display:block" transform="matrix(1.04 0 0 1.04 715.54 257.23)"/><path fill="#F09172" d="M-14.56-18.65c4.41-2.61 13.7-4.33 19.44 2.1C9.75-11.1 12.53-7.37 15.77.17c2.75 6.43 3.9 13.76.86 17.66-3.48 4.45-15.04 4.42-20.18-1.59 0 0-6.36-6.44-11.24-13.38-4.88-6.93-4.92-18.47.23-21.52z" style="display:block" transform="matrix(1.04 0 0 1.04 745.47 278.2)"/><g style="display:block"><path fill="#55AFF9" d="M626.1 273.15c3.72-7.76 8.8-16.63 22.27-17.88 16.5-1.53 38.3-.09 56.67 8.1 32.51 14.49 45.71 24.73 57.69 43.18 6.05 9.32 5.37 16.9 1.35 26.74-4.8 11.77-90.76 195.89-95.8 206.01-5.6 11.21-10.85 14.82-27.5 14.66-16.58-.16-41.23-7-61.07-16.55-17.77-8.54-37.58-27.6-46.37-36.22-6.9-6.78-6.57-15.07-1.68-25.3 5.33-11.17 94.45-202.74 94.45-202.74z"/><path fill="#9CD9FF" d="M662.88 546.9c-5.75 12.54-47.14 9.27-83.31-9.43-32.82-16.97-56.48-39.56-50.73-52.1 5.76-12.54 40.43-8.93 77.45 8.06 37.01 17 62.35 40.94 56.6 53.48z"/></g><g mask="url(#ad)" style="display:block"><path fill="#264AA0" d="m539.22 519.93 91.28 42.1s26.1-54.02 27.75-58.3c2.16-5.58-10.15-21.7-38.08-35.8-24.58-12.4-47.47-13.32-50.77-8.75-3.83 5.29-30.18 60.75-30.18 60.75z"/><path fill="#088DE3" d="M630.4 562.24c-7.46 15.72-48.76 3.65-59.48-4.16-15-10.92-34.95-32.29-32-37.74 2.71-5 28.5-2 52.07 9.58 32.5 15.97 41.97 26.95 39.42 32.32z"/><path fill="#C2E2F6" d="M543.24 525.45c-.63 6.44 1.83 12.6 13.84 23.4 12.73 11.43 23.29 13.4 35.46 16.16-13.64-5.74-36.95-19.62-40-39.7-2.5-.06-7.48.05-9.3.14z"/><path fill="#FFF" d="M589.86 535.5c19.18 9.07 28.04 19.04 31.26 22.71 3.22 3.67 1.07 4.81.03 5.75-3.24 2.9-22.22 4.18-30.3.4-19.2-9-26.37-15.91-31.54-23.4-5.18-7.5-6.67-12.47-6.77-15.65 5.64.1 20.68 2.32 37.32 10.19z"/></g><g clip-path="url(#ae)" mask="url(#af)" style="display:block"><path fill="none" stroke="#FF86D0" stroke-linecap="round" stroke-linejoin="round" stroke-width="26" d="m-12.4 4.32 24.8-8.64" style="display:block" transform="rotate(-16.38 2172.74 -2300.32) scale(1.04)"/><path fill="#F38DEE" d="M252-216.5c0 6-3 11.15-6 15.15s-44.5 47-51.5 54.5-11.02 22.92 3.63 37.57c9.42 9.42 21 7.11 28.5.11s44.87-46.33 44.87-46.33-19.5-67-19.5-61z" style="display:block" transform="rotate(.35 -87345.39 88787.5)"/><path fill="#F38DEE" d="M740.85 391.1c-5.53 3.97-8.22 6.7-10.34 14.79-1.38 5.26-16.25 63.1-16.93 68.57-.68 5.45.18 10.6 6.54 12.15 6.36 1.55 31.44 6.46 36.87 7.39 5.43.93 9.46-3.1 10.57-8 1.12-4.9 14.2-75.65 14.88-81.11.69-5.46-2.82-14.9-10.65-16.1-8.07-1.25-24.59-2.23-30.94 2.32z" style="display:block"/></g><g mask="url(#ag)" style="display:block"><path fill="#10021B" d="M581.28 554.9z"/></g></g></g></g></svg>