<svg xmlns="http://www.w3.org/2000/svg" xmlns:xlink="http://www.w3.org/1999/xlink" width="1080" height="1080" style="width:100%;height:100%;transform:translate3d(0,0,0);content-visibility:visible"><defs><mask id="bZ" mask-type="alpha"><use xlink:href="#a"/></mask><mask id="bY" mask-type="alpha"><use xlink:href="#b"/></mask><mask id="bX" mask-type="alpha"><use xlink:href="#c"/></mask><mask id="bV" mask-type="alpha"><use xlink:href="#d"/></mask><mask id="bU" mask-type="alpha"><use xlink:href="#e"/></mask><mask id="bT" mask-type="alpha"><use xlink:href="#f"/></mask><mask id="bR" mask-type="alpha"><use xlink:href="#g"/></mask><mask id="bQ" mask-type="alpha"><use xlink:href="#h"/></mask><mask id="bN" mask-type="alpha"><use xlink:href="#i"/></mask><mask id="bM" mask-type="alpha"><use xlink:href="#j"/></mask><mask id="bJ" mask-type="alpha"><use xlink:href="#k"/></mask><mask id="bI" mask-type="alpha"><use xlink:href="#l"/></mask><mask id="bH" mask-type="alpha"><use xlink:href="#m"/></mask><mask id="bG" mask-type="alpha"><use xlink:href="#n"/></mask><mask id="bC" mask-type="alpha"><use xlink:href="#o"/></mask><mask id="bB" mask-type="alpha"><use xlink:href="#p"/></mask><mask id="bA" mask-type="alpha"><use xlink:href="#q"/></mask><mask id="by" mask-type="alpha"><use xlink:href="#r"/></mask><mask id="bx" mask-type="alpha"><use xlink:href="#s"/></mask><mask id="bw" mask-type="alpha"><use xlink:href="#t"/></mask><mask id="bu" mask-type="alpha"><use xlink:href="#u"/></mask><mask id="bt" mask-type="alpha"><use xlink:href="#v"/></mask><mask id="bq" mask-type="alpha"><use xlink:href="#w"/></mask><mask id="bp" mask-type="alpha"><use xlink:href="#x"/></mask><mask id="bm" mask-type="alpha"><use xlink:href="#y"/></mask><mask id="bl" mask-type="alpha"><use xlink:href="#z"/></mask><mask id="bk" mask-type="alpha"><use xlink:href="#A"/></mask><mask id="bj" mask-type="alpha"><use xlink:href="#B"/></mask><mask id="bf" mask-type="alpha"><use xlink:href="#C"/></mask><mask id="be" mask-type="alpha"><use xlink:href="#D"/></mask><mask id="bd" mask-type="alpha"><use xlink:href="#E"/></mask><mask id="bb" mask-type="alpha"><use xlink:href="#F"/></mask><mask id="ba" mask-type="alpha"><use xlink:href="#G"/></mask><mask id="aZ" mask-type="alpha"><use xlink:href="#H"/></mask><mask id="aX" mask-type="alpha"><use xlink:href="#I"/></mask><mask id="aW" mask-type="alpha"><use xlink:href="#J"/></mask><mask id="aT" mask-type="alpha"><use xlink:href="#K"/></mask><mask id="aS" mask-type="alpha"><use xlink:href="#L"/></mask><mask id="aP" mask-type="alpha"><use xlink:href="#M"/></mask><mask id="aO" mask-type="alpha"><use xlink:href="#N"/></mask><mask id="aN" mask-type="alpha"><use xlink:href="#O"/></mask><mask id="aM" mask-type="alpha"><use xlink:href="#P"/></mask><mask id="aI" mask-type="alpha"><use xlink:href="#Q"/></mask><mask id="aH" mask-type="alpha"><use xlink:href="#R"/></mask><mask id="aG" mask-type="alpha"><use xlink:href="#S"/></mask><mask id="aE" mask-type="alpha"><use xlink:href="#T"/></mask><mask id="aD" mask-type="alpha"><use xlink:href="#U"/></mask><mask id="aC" mask-type="alpha"><use xlink:href="#V"/></mask><mask id="aA" mask-type="alpha"><use xlink:href="#W"/></mask><mask id="az" mask-type="alpha"><use xlink:href="#X"/></mask><mask id="aw" mask-type="alpha"><use xlink:href="#Y"/></mask><mask id="av" mask-type="alpha"><use xlink:href="#Z"/></mask><mask id="as" mask-type="alpha"><use xlink:href="#aa"/></mask><mask id="ar" mask-type="alpha"><use xlink:href="#ab"/></mask><mask id="aq" mask-type="alpha"><use xlink:href="#ac"/></mask><mask id="ap" mask-type="alpha"><use xlink:href="#ad"/></mask><mask id="an" mask-type="alpha"><use xlink:href="#ae"/></mask><mask id="aj" mask-type="alpha"><use xlink:href="#ag"/></mask><clipPath id="ah"><path d="M0 0h1080v1080H0z"/></clipPath><clipPath id="bF"><path d="M0 0h1080v1080H0z"/></clipPath><clipPath id="cb"><path d="M0 0h1080v1080H0z"/></clipPath><clipPath id="ca"><path d="M0 0h1080v1080H0z"/></clipPath><clipPath id="bW"><path d="M0 0h1080v1080H0z"/></clipPath><clipPath id="bS"><path d="M0 0h1080v1080H0z"/></clipPath><clipPath id="bO"><path d="M0 0h1080v1080H0z"/></clipPath><clipPath id="bK"><path d="M0 0h1080v1080H0z"/></clipPath><clipPath id="bi"><path d="M0 0h1080v1080H0z"/></clipPath><clipPath id="bE"><path d="M0 0h1080v1080H0z"/></clipPath><clipPath id="bD"><path d="M0 0h1080v1080H0z"/></clipPath><clipPath id="bz"><path d="M0 0h1080v1080H0z"/></clipPath><clipPath id="bv"><path d="M0 0h1080v1080H0z"/></clipPath><clipPath id="br"><path d="M0 0h1080v1080H0z"/></clipPath><clipPath id="bn"><path d="M0 0h1080v1080H0z"/></clipPath><clipPath id="aL"><path d="M0 0h1080v1080H0z"/></clipPath><clipPath id="bh"><path d="M0 0h1080v1080H0z"/></clipPath><clipPath id="bg"><path d="M0 0h1080v1080H0z"/></clipPath><clipPath id="bc"><path d="M0 0h1080v1080H0z"/></clipPath><clipPath id="aY"><path d="M0 0h1080v1080H0z"/></clipPath><clipPath id="aU"><path d="M0 0h1080v1080H0z"/></clipPath><clipPath id="aQ"><path d="M0 0h1080v1080H0z"/></clipPath><clipPath id="ao"><path d="M0 0h1080v1080H0z"/></clipPath><clipPath id="aK"><path d="M0 0h1080v1080H0z"/></clipPath><clipPath id="aJ"><path d="M0 0h1080v1080H0z"/></clipPath><clipPath id="aF"><path d="M0 0h1080v1080H0z"/></clipPath><clipPath id="aB"><path d="M0 0h1080v1080H0z"/></clipPath><clipPath id="ax"><path d="M0 0h1080v1080H0z"/></clipPath><clipPath id="at"><path d="M0 0h1080v1080H0z"/></clipPath><clipPath id="am"><path d="M0 0h1080v1080H0z"/></clipPath><clipPath id="ai"><path d="M0 0h1080v1080H0z"/></clipPath><clipPath id="ak"><path d="M0 0h1080v1080H0z"/></clipPath><g id="a" style="display:block"><path fill="red" d="M577.66 197.494c-38.16-1.41-79.66 39.59-74.84 90.53 3.57 37.68 31.82 74.59 41.5 160.82 9.68 86.24 5.68 177.74 159.18 183.12 105.91 3.71 226-96.38 235.6-216.22 6.56-81.83-32.1-161.16-56-215.32-12.85-29.11-29.59-64.65-72.81-68.52-53.79-4.82-77.79 56.68-116.25 66.69-21.46 5.58-45.91 1.51-116.38-1.1z"/></g><g id="d" style="display:block"><path fill="red" d="M577.66 197.494c-38.16-1.41-79.66 39.59-74.84 90.53 3.57 37.68 31.82 74.59 41.5 160.82 9.68 86.24 5.68 177.74 159.18 183.12 105.91 3.71 226-96.38 235.6-216.22 6.56-81.83-32.1-161.16-56-215.32-12.85-29.11-29.59-64.65-72.81-68.52-53.79-4.82-77.79 56.68-116.25 66.69-21.46 5.58-45.91 1.51-116.38-1.1z"/></g><g id="g" style="display:block"><path fill="red" d="M577.66 197.494c-38.16-1.41-79.66 39.59-74.84 90.53 3.57 37.68 31.82 74.59 41.5 160.82 9.68 86.24 5.68 177.74 159.18 183.12 105.91 3.71 226-96.38 235.6-216.22 6.56-81.83-32.1-161.16-56-215.32-12.85-29.11-29.59-64.65-72.81-68.52-53.79-4.82-77.79 56.68-116.25 66.69-21.46 5.58-45.91 1.51-116.38-1.1z"/></g><g id="h" style="display:block"><path fill="red" d="M577.66 197.494c-38.16-1.41-79.66 39.59-74.84 90.53 3.57 37.68 31.82 74.59 41.5 160.82 9.68 86.24 5.68 177.74 159.18 183.12 105.91 3.71 226-96.38 235.6-216.22 6.56-81.83-32.1-161.16-56-215.32-12.85-29.11-29.59-64.65-72.81-68.52-53.79-4.82-77.79 56.68-116.25 66.69-21.46 5.58-45.91 1.51-116.38-1.1z"/></g><g id="i" style="display:block"><path fill="red" d="M577.66 197.494c-38.16-1.41-79.66 39.59-74.84 90.53 3.57 37.68 31.82 74.59 41.5 160.82 9.68 86.24 5.68 177.74 159.18 183.12 105.91 3.71 226-96.38 235.6-216.22 6.56-81.83-32.1-161.16-56-215.32-12.85-29.11-29.59-64.65-72.81-68.52-53.79-4.82-77.79 56.68-116.25 66.69-21.46 5.58-45.91 1.51-116.38-1.1z"/></g><g id="j" style="display:block"><path fill="red" d="M883.2 285.854c-9.76-11.61-27.31-11.44-35.66.38-30.34 42.92-28.09 104.17 8.96 148.28 37.04 44.11 96.98 56.9 144.5 34.42 13.08-6.18 16.29-23.44 6.53-35.05L883.2 285.854z"/></g><g id="k" style="display:block"><path fill="red" d="M408.42 472.704c-13.75 8.28-16.46 26.65-5.5 37.33 39.86 38.82 104.26 46.58 156.48 15.14 52.23-31.43 75.51-91.97 59.86-145.36-4.31-14.7-21.81-20.89-35.56-12.62l-175.28 105.51zm474.78-186.85c-9.76-11.61-27.31-11.44-35.66.38-30.34 42.92-28.09 104.17 8.96 148.28 37.04 44.11 96.98 56.9 144.5 34.42 13.08-6.18 16.29-23.44 6.53-35.05L883.2 285.854zm-305.54-88.36c-38.16-1.41-79.66 39.59-74.84 90.53 3.57 37.68 31.82 74.59 41.5 160.82 9.68 86.24 5.68 177.74 159.18 183.12 105.91 3.71 226-96.38 235.6-216.22 6.56-81.83-32.1-161.16-56-215.32-12.85-29.11-29.59-64.65-72.81-68.52-53.79-4.82-77.79 56.68-116.25 66.69-21.46 5.58-45.91 1.51-116.38-1.1z"/></g><g id="o" style="display:block"><path fill="red" d="M577.66 197.41C539.5 196 498 237 502.82 287.94c3.57 37.68 31.82 74.59 41.5 160.82C554 535 550 626.5 703.5 631.88c105.91 3.71 226-96.38 235.6-216.22 6.56-81.83-32.1-161.16-56-215.32-12.85-29.11-29.59-64.65-72.81-68.52-53.79-4.82-77.79 56.68-116.25 66.69-21.46 5.58-45.91 1.51-116.38-1.1z"/></g><g id="r" style="display:block"><path fill="red" d="M577.66 197.41C539.5 196 498 237 502.82 287.94c3.57 37.68 31.82 74.59 41.5 160.82C554 535 550 626.5 703.5 631.88c105.91 3.71 226-96.38 235.6-216.22 6.56-81.83-32.1-161.16-56-215.32-12.85-29.11-29.59-64.65-72.81-68.52-53.79-4.82-77.79 56.68-116.25 66.69-21.46 5.58-45.91 1.51-116.38-1.1z"/></g><g id="u" style="display:block"><path fill="red" d="M577.66 197.41C539.5 196 498 237 502.82 287.94c3.57 37.68 31.82 74.59 41.5 160.82C554 535 550 626.5 703.5 631.88c105.91 3.71 226-96.38 235.6-216.22 6.56-81.83-32.1-161.16-56-215.32-12.85-29.11-29.59-64.65-72.81-68.52-53.79-4.82-77.79 56.68-116.25 66.69-21.46 5.58-45.91 1.51-116.38-1.1z"/></g><g id="v" style="display:block"><path fill="red" d="M577.66 197.41C539.5 196 498 237 502.82 287.94c3.57 37.68 31.82 74.59 41.5 160.82C554 535 550 626.5 703.5 631.88c105.91 3.71 226-96.38 235.6-216.22 6.56-81.83-32.1-161.16-56-215.32-12.85-29.11-29.59-64.65-72.81-68.52-53.79-4.82-77.79 56.68-116.25 66.69-21.46 5.58-45.91 1.51-116.38-1.1z"/></g><g id="w" style="display:block"><path fill="red" d="M577.66 197.41C539.5 196 498 237 502.82 287.94c3.57 37.68 31.82 74.59 41.5 160.82C554 535 550 626.5 703.5 631.88c105.91 3.71 226-96.38 235.6-216.22 6.56-81.83-32.1-161.16-56-215.32-12.85-29.11-29.59-64.65-72.81-68.52-53.79-4.82-77.79 56.68-116.25 66.69-21.46 5.58-45.91 1.51-116.38-1.1z"/></g><g id="x" style="display:block"><path fill="red" d="M884.21 285.87c-9.62-11.73-27.17-11.76-35.66-.05-30.85 42.57-29.32 103.84 7.2 148.38 36.53 44.54 96.31 58.04 144.1 36.13 13.15-6.03 16.55-23.25 6.94-34.98L884.21 285.87z"/></g><g id="y" style="display:block"><path fill="red" d="M409.1 474.74c-13.69 8.38-16.27 26.77-5.22 37.37 40.15 38.51 104.6 45.79 156.58 13.97 51.99-31.83 74.82-92.54 58.77-145.81-4.41-14.66-21.96-20.73-35.65-12.35L409.1 474.74zm475.11-188.87c-9.62-11.73-27.17-11.76-35.66-.05-30.85 42.57-29.32 103.84 7.2 148.38 36.53 44.54 96.31 58.04 144.1 36.13 13.15-6.03 16.55-23.25 6.94-34.98L884.21 285.87zm-306.55-88.46C539.5 196 498 237 502.82 287.94c3.57 37.68 31.82 74.59 41.5 160.82C554 535 550 626.5 703.5 631.88c105.91 3.71 226-96.38 235.6-216.22 6.56-81.83-32.1-161.16-56-215.32-12.85-29.11-29.59-64.65-72.81-68.52-53.79-4.82-77.79 56.68-116.25 66.69-21.46 5.58-45.91 1.51-116.38-1.1z"/></g><g id="C" style="display:block"><path fill="red" d="M577.66 198.91c-38.16-1.41-79.66 39.59-74.84 90.53 3.57 37.68 31.82 74.59 41.5 160.82C554 536.5 550 628 703.5 633.38c105.91 3.71 226-96.38 235.6-216.22 6.56-81.83-32.1-161.16-56-215.32-12.85-29.11-29.59-64.65-72.81-68.52-53.79-4.82-77.79 56.68-116.25 66.69-21.46 5.58-45.91 1.51-116.38-1.1z"/></g><g id="F" style="display:block"><path fill="red" d="M577.66 198.91c-38.16-1.41-79.66 39.59-74.84 90.53 3.57 37.68 31.82 74.59 41.5 160.82C554 536.5 550 628 703.5 633.38c105.91 3.71 226-96.38 235.6-216.22 6.56-81.83-32.1-161.16-56-215.32-12.85-29.11-29.59-64.65-72.81-68.52-53.79-4.82-77.79 56.68-116.25 66.69-21.46 5.58-45.91 1.51-116.38-1.1z"/></g><g id="I" style="display:block"><path fill="red" d="M577.66 198.91c-38.16-1.41-79.66 39.59-74.84 90.53 3.57 37.68 31.82 74.59 41.5 160.82C554 536.5 550 628 703.5 633.38c105.91 3.71 226-96.38 235.6-216.22 6.56-81.83-32.1-161.16-56-215.32-12.85-29.11-29.59-64.65-72.81-68.52-53.79-4.82-77.79 56.68-116.25 66.69-21.46 5.58-45.91 1.51-116.38-1.1z"/></g><g id="J" style="display:block"><path fill="red" d="M577.66 198.91c-38.16-1.41-79.66 39.59-74.84 90.53 3.57 37.68 31.82 74.59 41.5 160.82C554 536.5 550 628 703.5 633.38c105.91 3.71 226-96.38 235.6-216.22 6.56-81.83-32.1-161.16-56-215.32-12.85-29.11-29.59-64.65-72.81-68.52-53.79-4.82-77.79 56.68-116.25 66.69-21.46 5.58-45.91 1.51-116.38-1.1z"/></g><g id="K" style="display:block"><path fill="red" d="M577.66 198.91c-38.16-1.41-79.66 39.59-74.84 90.53 3.57 37.68 31.82 74.59 41.5 160.82C554 536.5 550 628 703.5 633.38c105.91 3.71 226-96.38 235.6-216.22 6.56-81.83-32.1-161.16-56-215.32-12.85-29.11-29.59-64.65-72.81-68.52-53.79-4.82-77.79 56.68-116.25 66.69-21.46 5.58-45.91 1.51-116.38-1.1z"/></g><g id="L" style="display:block"><path fill="red" d="M883.2 287.27c-9.76-11.61-27.31-11.44-35.66.38-30.34 42.92-28.09 104.17 8.96 148.28 37.04 44.11 96.98 56.9 144.5 34.42 13.08-6.18 16.29-23.44 6.53-35.05L883.2 287.27z"/></g><g id="M" style="display:block"><path fill="red" d="M408.42 474.12c-13.75 8.28-16.47 26.65-5.5 37.33 39.86 38.82 104.25 46.58 156.48 15.14 52.22-31.43 75.5-91.97 59.86-145.36-4.31-14.7-21.81-20.89-35.56-12.62L408.42 474.12zM883.2 287.27c-9.76-11.61-27.31-11.44-35.66.38-30.34 42.92-28.09 104.17 8.96 148.28 37.04 44.11 96.98 56.9 144.5 34.42 13.08-6.18 16.29-23.44 6.53-35.05L883.2 287.27zm-305.54-88.36c-38.16-1.41-79.66 39.59-74.84 90.53 3.57 37.68 31.82 74.59 41.5 160.82C554 536.5 550 628 703.5 633.38c105.91 3.71 226-96.38 235.6-216.22 6.56-81.83-32.1-161.16-56-215.32-12.85-29.11-29.59-64.65-72.81-68.52-53.79-4.82-77.79 56.68-116.25 66.69-21.46 5.58-45.91 1.51-116.38-1.1z"/></g><g id="Q" style="display:block"><path fill="red" d="M577.66 197.41C539.5 196 498 237 502.82 287.94c3.57 37.68 31.82 74.59 41.5 160.82C554 535 550 626.5 703.5 631.88c105.91 3.71 226-96.38 235.6-216.22 6.56-81.83-32.1-161.16-56-215.32-12.85-29.11-29.59-64.65-72.81-68.52-53.79-4.82-77.79 56.68-116.25 66.69-21.46 5.58-45.91 1.51-116.38-1.1z"/></g><g id="T" style="display:block"><path fill="red" d="M577.66 197.41C539.5 196 498 237 502.82 287.94c3.57 37.68 31.82 74.59 41.5 160.82C554 535 550 626.5 703.5 631.88c105.91 3.71 226-96.38 235.6-216.22 6.56-81.83-32.1-161.16-56-215.32-12.85-29.11-29.59-64.65-72.81-68.52-53.79-4.82-77.79 56.68-116.25 66.69-21.46 5.58-45.91 1.51-116.38-1.1z"/></g><g id="W" style="display:block"><path fill="red" d="M577.66 197.41C539.5 196 498 237 502.82 287.94c3.57 37.68 31.82 74.59 41.5 160.82C554 535 550 626.5 703.5 631.88c105.91 3.71 226-96.38 235.6-216.22 6.56-81.83-32.1-161.16-56-215.32-12.85-29.11-29.59-64.65-72.81-68.52-53.79-4.82-77.79 56.68-116.25 66.69-21.46 5.58-45.91 1.51-116.38-1.1z"/></g><g id="X" style="display:block"><path fill="red" d="M577.66 197.41C539.5 196 498 237 502.82 287.94c3.57 37.68 31.82 74.59 41.5 160.82C554 535 550 626.5 703.5 631.88c105.91 3.71 226-96.38 235.6-216.22 6.56-81.83-32.1-161.16-56-215.32-12.85-29.11-29.59-64.65-72.81-68.52-53.79-4.82-77.79 56.68-116.25 66.69-21.46 5.58-45.91 1.51-116.38-1.1z"/></g><g id="Y" style="display:block"><path fill="red" d="M577.66 197.41C539.5 196 498 237 502.82 287.94c3.57 37.68 31.82 74.59 41.5 160.82C554 535 550 626.5 703.5 631.88c105.91 3.71 226-96.38 235.6-216.22 6.56-81.83-32.1-161.16-56-215.32-12.85-29.11-29.59-64.65-72.81-68.52-53.79-4.82-77.79 56.68-116.25 66.69-21.46 5.58-45.91 1.51-116.38-1.1z"/></g><g id="Z" style="display:block"><path fill="red" d="M883.22 285.77c-9.75-11.62-27.29-11.45-35.65.36-30.36 42.92-28.13 104.17 8.91 148.29 37.03 44.12 96.97 56.93 144.49 34.47 13.09-6.18 16.29-23.43 6.54-35.05L883.22 285.77z"/></g><g id="aa" style="display:block"><path fill="red" d="M408.46 472.7c-13.75 8.28-16.46 26.66-5.48 37.33 39.87 38.8 104.27 46.54 156.48 15.08 52.21-31.46 75.46-92.01 59.8-145.39-4.32-14.7-21.83-20.89-35.57-12.6L408.46 472.7zm474.76-186.93c-9.75-11.62-27.29-11.45-35.65.36-30.36 42.92-28.13 104.17 8.91 148.29 37.03 44.12 96.97 56.93 144.49 34.47 13.09-6.18 16.29-23.43 6.54-35.05L883.22 285.77zm-305.56-88.36C539.5 196 498 237 502.82 287.94c3.57 37.68 31.82 74.59 41.5 160.82C554 535 550 626.5 703.5 631.88c105.91 3.71 226-96.38 235.6-216.22 6.56-81.83-32.1-161.16-56-215.32-12.85-29.11-29.59-64.65-72.81-68.52-53.79-4.82-77.79 56.68-116.25 66.69-21.46 5.58-45.91 1.51-116.38-1.1z"/></g><path id="e" fill="#C6FFFD" d="M0-41.5c-18.225 0-33 14.775-33 33v17c0 18.225 14.775 33 33 33s33-14.775 33-33v-17c0-18.225-14.775-33-33-33z" style="display:block" transform="matrix(1.4 0 0 1.6 875.2 298.375)"/><path id="f" fill="#C6FFFD" d="M0-41.5c-18.225 0-33 14.775-33 33v17c0 18.225 14.775 33 33 33s33-14.775 33-33v-17c0-18.225-14.775-33-33-33z" style="display:block" transform="matrix(1.6 0 0 1.6 699.7 299.375)"/><path id="l" fill="#E619DF" d="M30.661 1.744 5.321 30.246c-8.834 9.936-24.051 10.83-33.987 1.996-9.936-8.834-10.829-24.05-1.995-33.986l25.34-28.502c8.834-9.936 24.051-10.83 33.987-1.996 9.936 8.834 10.829 24.05 1.995 33.986z" style="display:block" transform="translate(593.641 683.053)"/><path id="p" fill="#C6FFFD" d="M0-41.5c-18.225 0-33 14.775-33 33v17c0 18.225 14.775 33 33 33s33-14.775 33-33v-17c0-18.225-14.775-33-33-33z" style="display:block" transform="matrix(1.4 0 0 1.6 875.2 298.375)"/><path id="q" fill="#C6FFFD" d="M0-41.5c-18.225 0-33 14.775-33 33v17c0 18.225 14.775 33 33 33s33-14.775 33-33v-17c0-18.225-14.775-33-33-33z" style="display:block" transform="matrix(1.6 0 0 1.6 699.7 299.375)"/><path id="A" fill="#E619DF" d="M30.661 1.744 5.321 30.246c-8.834 9.936-24.051 10.83-33.987 1.996-9.936-8.834-10.829-24.05-1.995-33.986l25.34-28.502c8.834-9.936 24.051-10.83 33.987-1.996 9.936 8.834 10.829 24.05 1.995 33.986z" style="display:block" transform="rotate(-.166 237926.867 -190190.892)"/><path id="B" fill="#E619DF" d="M30.661 1.744 5.321 30.246c-8.834 9.936-24.051 10.83-33.987 1.996-9.936-8.834-10.829-24.05-1.995-33.986l25.34-28.502c8.834-9.936 24.051-10.83 33.987-1.996 9.936 8.834 10.829 24.05 1.995 33.986z" style="display:block" transform="rotate(-.308 126812.833 -110182.018)"/><path id="G" fill="#C6FFFD" d="M0-41.5c-18.225 0-33 14.775-33 33v17c0 18.225 14.775 33 33 33s33-14.775 33-33v-17c0-18.225-14.775-33-33-33z" style="display:block" transform="matrix(1.4 0 0 1.6 875.2 298.375)"/><path id="H" fill="#C6FFFD" d="M0-41.5c-18.225 0-33 14.775-33 33v17c0 18.225 14.775 33 33 33s33-14.775 33-33v-17c0-18.225-14.775-33-33-33z" style="display:block" transform="matrix(1.6 0 0 1.6 699.7 299.375)"/><path id="N" fill="#E619DF" d="M30.661 1.744 5.321 30.246c-8.834 9.936-24.051 10.83-33.987 1.996-9.936-8.834-10.829-24.05-1.995-33.986l25.34-28.502c8.834-9.936 24.051-10.83 33.987-1.996 9.936 8.834 10.829 24.05 1.995 33.986z" style="display:block" transform="translate(592.041 683.053)"/><path id="U" fill="#C6FFFD" d="M0-41.5c-18.225 0-33 14.775-33 33v17c0 18.225 14.775 33 33 33s33-14.775 33-33v-17c0-18.225-14.775-33-33-33z" style="display:block" transform="matrix(1.4 0 0 1.6 875.2 298.375)"/><path id="V" fill="#C6FFFD" d="M0-41.5c-18.225 0-33 14.775-33 33v17c0 18.225 14.775 33 33 33s33-14.775 33-33v-17c0-18.225-14.775-33-33-33z" style="display:block" transform="matrix(1.6 0 0 1.6 699.7 299.375)"/><path id="ab" fill="#E619DF" d="M30.661 1.744 5.321 30.246c-8.834 9.936-24.051 10.83-33.987 1.996-9.936-8.834-10.829-24.05-1.995-33.986l25.34-28.502c8.834-9.936 24.051-10.83 33.987-1.996 9.936 8.834 10.829 24.05 1.995 33.986z" style="display:block" transform="translate(594.041 683.053)"/><path id="ag" fill="url(#af)" d="M-128.343 1.667c5.24 24.65 22.366 43.792 44.31 52.944l96.737 53.853c11.492 6.397 25.952 3.206 33.684-7.435L112.751 9.7c14.022-16.971 20.459-39.697 15.592-62.593-8.57-40.32-48.946-65.9-90.182-57.135C17.09-105.549-.128-92.969-10.786-76.357c-16.493-10.841-37.34-15.331-58.411-10.852-41.236 8.765-67.716 48.556-59.146 88.876z" style="display:block" transform="matrix(.1545 .10356 -.09878 .14738 328.439 400.1)"/><radialGradient id="bP" cx="101.484" cy="-275.32" r="532.385" fx="101.484" fy="-275.32" gradientUnits="userSpaceOnUse" spreadMethod="pad"><stop offset="0%" stop-color="#26FF55"/><stop offset="30%" stop-color="#26C5AA"/><stop offset="60%" stop-color="#268AFF"/><stop offset="75%" stop-color="#916FFF"/><stop offset="90%" stop-color="#FC55FF"/></radialGradient><radialGradient id="bL" cx="101.484" cy="-275.32" r="532.385" fx="101.484" fy="-275.32" gradientUnits="userSpaceOnUse" spreadMethod="pad"><stop offset="0%" stop-color="#26FF55"/><stop offset="30%" stop-color="#26C5AA"/><stop offset="60%" stop-color="#268AFF"/><stop offset="75%" stop-color="#916FFF"/><stop offset="90%" stop-color="#FC55FF"/></radialGradient><radialGradient id="bs" cx="101.484" cy="-275.32" r="532.385" fx="101.484" fy="-275.32" gradientUnits="userSpaceOnUse" spreadMethod="pad"><stop offset="0%" stop-color="#26FF55"/><stop offset="30%" stop-color="#26C5AA"/><stop offset="60%" stop-color="#268AFF"/><stop offset="75%" stop-color="#916FFF"/><stop offset="90%" stop-color="#FC55FF"/></radialGradient><radialGradient id="bo" cx="101.484" cy="-275.32" r="532.385" fx="101.484" fy="-275.32" gradientUnits="userSpaceOnUse" spreadMethod="pad"><stop offset="0%" stop-color="#26FF55"/><stop offset="30%" stop-color="#26C5AA"/><stop offset="60%" stop-color="#268AFF"/><stop offset="75%" stop-color="#916FFF"/><stop offset="90%" stop-color="#FC55FF"/></radialGradient><radialGradient id="aV" cx="101.484" cy="-275.32" r="532.385" fx="101.484" fy="-275.32" gradientUnits="userSpaceOnUse" spreadMethod="pad"><stop offset="0%" stop-color="#26FF55"/><stop offset="30%" stop-color="#26C5AA"/><stop offset="60%" stop-color="#268AFF"/><stop offset="75%" stop-color="#916FFF"/><stop offset="90%" stop-color="#FC55FF"/></radialGradient><radialGradient id="aR" cx="101.484" cy="-275.32" r="532.385" fx="101.484" fy="-275.32" gradientUnits="userSpaceOnUse" spreadMethod="pad"><stop offset="0%" stop-color="#26FF55"/><stop offset="30%" stop-color="#26C5AA"/><stop offset="60%" stop-color="#268AFF"/><stop offset="75%" stop-color="#916FFF"/><stop offset="90%" stop-color="#FC55FF"/></radialGradient><radialGradient id="ay" cx="101.484" cy="-275.32" r="532.385" fx="101.484" fy="-275.32" gradientUnits="userSpaceOnUse" spreadMethod="pad"><stop offset="0%" stop-color="#26FF55"/><stop offset="30%" stop-color="#26C5AA"/><stop offset="60%" stop-color="#268AFF"/><stop offset="75%" stop-color="#916FFF"/><stop offset="90%" stop-color="#FC55FF"/></radialGradient><radialGradient id="au" cx="101.484" cy="-275.32" r="532.385" fx="101.484" fy="-275.32" gradientUnits="userSpaceOnUse" spreadMethod="pad"><stop offset="0%" stop-color="#26FF55"/><stop offset="30%" stop-color="#26C5AA"/><stop offset="60%" stop-color="#268AFF"/><stop offset="75%" stop-color="#916FFF"/><stop offset="90%" stop-color="#FC55FF"/></radialGradient><radialGradient id="al" cx="101.484" cy="-275.32" r="532.385" fx="101.484" fy="-275.32" gradientUnits="userSpaceOnUse" spreadMethod="pad"><stop offset="0%" stop-color="#26FF55"/><stop offset="30%" stop-color="#26C5AA"/><stop offset="60%" stop-color="#268AFF"/><stop offset="75%" stop-color="#916FFF"/><stop offset="90%" stop-color="#FC55FF"/></radialGradient><linearGradient id="af" x1="-184.04" x2="-165.527" y1="-392.518" y2="-636.055" gradientUnits="userSpaceOnUse" spreadMethod="pad"><stop offset="0%" stop-color="#26F663"/><stop offset="30%" stop-color="#26C0B1"/><stop offset="60%" stop-color="#268AFF"/><stop offset="77%" stop-color="#916FFF"/><stop offset="94%" stop-color="#FC55FF"/></linearGradient></defs><g clip-path="url(#ah)"><g clip-path="url(#ai)" style="display:block"><path fill="#4B387F" d="M299.995 341.389c-57.534 21.454-235.134 79.219-283.742 94.846-10.922 3.511-22.193 2.393-32.551.856-36.64-5.438-66.116-32.744-77.825-71.982l-151.432-583.782c-4.158-13.934-5.41-27.979-4.143-41.413 3.913-41.471 31.832-77.123 72.373-85.74L95.797-453.787c33.859.008 103.131 31.39 118.15 81.72l141.999 545.15 12.28 41.152c16.994 56.948-12.327 106.308-68.231 127.154z" style="display:block" transform="rotate(39 -410.602 664.387) scale(.2)"/><path fill="#6F56A5" d="M219.197 361.781c-48.104 18.188-249.037 87.447-300.998 98.365-51.961 10.918-89.159-29.033-104.178-79.363L-334.241-195.11c-16.994-56.948 3.138-107.206 68.231-127.153 65.994-20.224 222.804-85.187 283.533-97.091 60.729-11.904 97.392 18.345 112.411 68.675l157.494 585.306c16.994 56.948-17.631 108.022-68.231 127.154z" style="display:block" transform="rotate(39 -403.585 677.79) scale(.2)"/><path fill="#354593" d="M-167.721 383.353c-11.796-36.522-133.282-531.344-149.096-584.87-15.814-53.526 16.947-91.474 52.306-104.193 15.18-5.46 283.289-97.585 289.963-99.081 49.028-10.992 80.777 32.007 88.214 57.972 9.064 31.535 150.874 578.235 153.792 586.695 15.917 46.147-15.01 89.601-52.998 102.344-38.536 12.927-249.945 85.988-287.628 97.994-45.783 14.587-82.757-20.34-94.553-56.861z" style="display:block" transform="rotate(39 -403.585 677.79) scale(.2)"/><g style="display:block"><path fill="none" stroke="#FFF" stroke-width="50" d="M-128.343 1.667c5.24 24.65 22.366 43.792 44.31 52.944l96.737 53.853c11.492 6.397 25.952 3.206 33.684-7.435L112.751 9.7c14.022-16.971 20.459-39.697 15.592-62.593-8.57-40.32-48.946-65.9-90.182-57.135C17.09-105.549-.128-92.969-10.786-76.357c-16.493-10.841-37.34-15.331-58.411-10.852-41.236 8.765-67.716 48.556-59.146 88.876z" transform="matrix(.1545 .10356 -.09878 .14738 328.439 400.1)"/></g><g mask="url(#aj)" style="display:block"><g clip-path="url(#ak)" transform="matrix(.07374 .02566 -.02293 .07138 288.347 356.608)"><path fill="url(#al)" d="M373-373v746h-746v-746h746z" style="display:block" transform="translate(712.852 452.203)"/></g></g><g style="display:block"><path fill="#FEFEFE" d="M330.1 404.413c1.418 3.127 5.1 4.643 8.226 3.386 3.125-1.258 4.508-4.812 3.09-7.94-1.418-3.127-5.1-4.643-8.226-3.385l-5.658 2.277 2.567 5.662zm6.975.627c-1.603.645-3.492-.132-4.219-1.736l-1.317-2.904 2.902-1.168c1.603-.644 3.491.133 4.219 1.736.727 1.604.017 3.427-1.585 4.072z"/><path fill="#FEFEFE" d="M325.65 402.582c-3.126 1.257-6.809-.259-8.227-3.386-1.418-3.127-.034-6.682 3.09-7.94 3.126-1.257 6.809.259 8.227 3.386l2.567 5.663-5.658 2.277zm-5.47-4.495c.727 1.603 2.616 2.38 4.218 1.736l2.902-1.168-1.317-2.904c-.727-1.603-2.616-2.38-4.218-1.736-1.603.645-2.312 2.468-1.585 4.072z"/></g></g><g clip-path="url(#am)" style="display:block"><path fill="#FFF" d="M-29.114 4.883c-1.215-.43-1.323-2.244-.153-2.806C-24.866-.054-17.42-4.117-13.4-8.838c4.435-5.207 7.454-14.655 8.919-20.058.321-1.275 2.225-1.481 2.838-.306C.912-24.249 5.86-15.708 11.225-11.593c5.047 3.882 13.066 6.16 17.703 7.222 1.234.283 1.589 2.038.546 2.748-4.174 2.821-11.57 8.209-15.62 13.597-3.93 5.17-7.458 13.105-9.124 17.125-.422 1.037-1.858 1.192-2.513.271-2.55-3.688-7.938-11.03-13.059-15.235-5.045-4.171-13.485-7.542-18.272-9.252z" style="display:block" transform="rotate(6.665 -5727.707 9159.75)"/><path fill="#FFF" d="M-29.354 3.162c-1.188-.502-1.149-2.321.029-2.811 4.506-1.869 12.186-5.492 16.489-9.97 4.721-4.939 8.273-14.192 10.041-19.499.432-1.256 2.348-1.353 2.892-.145 2.245 5.097 6.68 13.913 11.791 18.334 4.79 4.172 12.684 6.915 17.28 8.244 1.207.354 1.454 2.129.367 2.775-4.349 2.574-12.016 7.52-16.386 12.661-4.214 4.93-8.204 12.644-10.101 16.562-.497 1.012-1.944 1.083-2.531.124-2.349-3.83-7.262-11.475-12.127-15.973-4.824-4.459-13.033-8.318-17.744-10.302z" style="display:block" transform="scale(.7839) rotate(22.682 -638.248 1474.638)"/><path fill="#26F663" d="M-18.652 4.069c-.983-.315-1.122-1.78-.235-2.273C-15.984.215-11.51-2.534-9.11-5.59c2.652-3.379 4.353-9.249 5.223-12.929.24-1.034 1.777-1.262 2.324-.343 1.88 3.26 5.18 8.359 8.673 10.807 3.223 2.312 8.25 3.593 11.38 4.22 1.006.198 1.355 1.605.519 2.218C16.27.426 11.893 3.987 9.436 7.48c-2.326 3.37-4.379 8.411-5.428 11.209-.299.844-1.479 1.018-2.037.301-1.857-2.456-5.444-6.898-8.802-9.438-3.28-2.492-8.531-4.432-11.821-5.483z" style="display:block" transform="rotate(1.603 -7328.564 15073.738) scale(.99398)"/></g><path fill="#FFF" d="M-365.75-179.75c-88.226 19.257-140 96.25-143.25 188-1.552 43.811-6 185.298 171.5 292.878 44.688 27.085 170.415 79.782 294.33 86.302C81.708 394 237.128 383.443 365.5 270.64 521 134 523-30 495.125-105.5c1.5 0-661.875 73.5-661.875 74.5C-153 48-169.765 86.114-202 109.849-278.5 166.176-389 147-431 70c-53.789-98.614-8.5-212.5 94-233.5 40.911-8.382 85.5 3.5 126.25 22.875-32.75-35.875-105.75-49.875-155-39.125z" style="display:block" transform="translate(541 540)"/><path fill="#FFF" d="M-184.721-79.659c6 8.118 19.163 24.182 23.376 52.092 5.226 30.229-3.145 48.147-8.697 73.367 34.206 17.78 45.294-148.761-14.679-125.459z" style="display:block" transform="rotate(43.421 -718.298 953.963)"/><path fill="#FFF" d="M478.05 169.077c33.738-100.11 32.994-191.711 14.54-272.456-15.214-65.227-45.34-129.46-75.797-163.964-65.626 4.082 16.174 469.54 61.256 436.42z" style="display:block" transform="rotate(87.986 58.967 509.818)"/><path fill="#FFF" d="M517.858 42.777c7.01-46.186 5.813-87.641-9.222-133.835-14.442-44.218-35.631-66.452-54.749-79.648-52.845 3.035 41.108 245.597 63.97 213.483z" style="display:block" transform="rotate(15 -1469.21 2270.395)"/><g clip-path="url(#aL)" style="display:block"><g style="display:block"><path fill="none" stroke="#FFF" stroke-width="50.3" d="M408.42 474.12c-13.75 8.28-16.47 26.65-5.5 37.33 39.86 38.82 104.25 46.58 156.48 15.14 52.22-31.43 75.5-91.97 59.86-145.36-4.31-14.7-21.81-20.89-35.56-12.62L408.42 474.12zM883.2 287.27c-9.76-11.61-27.31-11.44-35.66.38-30.34 42.92-28.09 104.17 8.96 148.28 37.04 44.11 96.98 56.9 144.5 34.42 13.08-6.18 16.29-23.44 6.53-35.05L883.2 287.27zm-305.54-88.36c-38.16-1.41-79.66 39.59-74.84 90.53 3.57 37.68 31.82 74.59 41.5 160.82C554 536.5 550 628 703.5 633.38c105.91 3.71 226-96.38 235.6-216.22 6.56-81.83-32.1-161.16-56-215.32-12.85-29.11-29.59-64.65-72.81-68.52-53.79-4.82-77.79 56.68-116.25 66.69-21.46 5.58-45.91 1.51-116.38-1.1z"/></g><path fill="#E619DF" d="M30.661 1.744 5.321 30.246c-8.834 9.936-24.051 10.83-33.987 1.996-9.936-8.834-10.829-24.05-1.995-33.986l25.34-28.502c8.834-9.936 24.051-10.83 33.987-1.996 9.936 8.834 10.829 24.05 1.995 33.986z" style="display:block" transform="translate(592.041 683.053)"/><g mask="url(#aO)" style="display:block"><path fill="none" stroke="#AF04AF" stroke-miterlimit="10" stroke-width="12" d="m583.61 691.961-25.34 28.502c-8.834 9.936-24.051 10.83-33.987 1.996-9.936-8.834-10.829-24.05-1.995-33.986l25.34-28.502c8.834-9.936 24.051-10.83 33.987-1.996 9.936 8.834 10.829 24.05 1.995 33.986z"/></g><path fill="#E619DF" d="M30.661 1.744 5.321 30.246c-8.834 9.936-24.051 10.83-33.987 1.996-9.936-8.834-10.829-24.05-1.995-33.986l25.34-28.502c8.834-9.936 24.051-10.83 33.987-1.996 9.936 8.834 10.829 24.05 1.995 33.986z" style="display:block" transform="translate(552.949 690.217)"/><g mask="url(#aP)" style="display:block"><g clip-path="url(#aQ)" transform="translate(0 1.5)"><path fill="url(#aR)" d="M373-373v746h-746v-746h746z" style="display:block" transform="translate(712.852 452.203)"/></g></g><g mask="url(#aS)" style="display:block"><path fill="none" stroke="#1E65FA" stroke-width="13.12" d="M577.66 198.914C539.5 197.5 498 238.5 502.82 289.444c3.566 37.678 31.82 74.583 41.5 160.82 9.679 86.235 5.679 177.736 159.18 183.115 105.907 3.711 226.001-96.378 235.6-216.22C945.655 335.331 907 256 883.1 201.837c-12.847-29.112-29.595-64.648-72.814-68.52C756.5 128.5 732.5 190 694.04 200.006c-21.458 5.582-45.909 1.518-116.38-1.092z"/></g><g mask="url(#aT)" style="display:block"><g clip-path="url(#aU)" transform="translate(0 1.5)"><path fill="url(#aV)" d="M373-373v746h-746v-746h746z" style="display:block" transform="translate(712.852 452.203)"/></g></g><g mask="url(#aW)" style="display:block"><path fill="none" stroke="#1E65FA" stroke-linecap="round" stroke-width="7.5" d="M594.554 491.081c-21.022 28.904-49.055 46.246-76.302 54.16-21.827 8.597-86.766 10.583-121.252-33.937"/></g><g mask="url(#aX)" style="display:block"><g clip-path="url(#aY)" transform="rotate(-18.475 861.359 230.127) scale(.95)"><path fill="none" stroke="#1E65FA" stroke-linecap="round" stroke-width="7.5" d="M118.75-320.25C100-309 86.25-283 83.5-272c-3.337 13.346.909 71.134 2 75.5 4 16 24.5 37 46 43 20.798 5.804 44 8 74.5-16" style="display:block" transform="translate(540 540)"/><path fill="none" stroke="#C6FFFD" stroke-linecap="round" stroke-width="7.5" d="M66.25-303.5c18.25 10.25 32.25 33.5 49.25 51 8.882 9.144 24.5 22 43 21.5" style="display:block" transform="translate(632.5 477.5)"/><path fill="none" stroke="#1E65FA" stroke-linecap="round" stroke-width="7.5" d="M99.75-272.5c-6.75 5.5-11.75 22-14 34.25" style="display:block" transform="translate(599 446.5)"/><path fill="none" stroke="#C6FFFD" stroke-linecap="round" stroke-width="7.5" d="M33.25-299c6.75 2 15.25 12.5 19 19.75" style="display:block" transform="translate(632 488)"/><path fill="none" stroke="#1E65FA" stroke-linecap="round" stroke-width="7.5" d="M93.75-268.5c-7 11.75-7.5 22.75-5.5 30.25" style="display:block" transform="translate(570.5 457.5)"/><path fill="none" stroke="#1E65FA" stroke-linecap="round" stroke-width="7.5" d="M85.5-196.5c4 16 24.5 37 46 43 20.798 5.804 44 8 74.5-16" style="display:block" transform="matrix(-.875 0 0 1 1014.063 539)"/><path fill="none" stroke="#C6FFFD" stroke-linecap="round" stroke-width="7.5" d="M118.75-320.25C100-309 86.25-283 83.5-272" style="display:block" transform="matrix(-.875 0 0 1 1017.343 539)"/><path fill="none" stroke="#C6FFFD" stroke-linecap="round" stroke-width="7.5" d="M93.75-268.5c-7 11.75-7.5 22.75-5.5 30.25" style="display:block" transform="matrix(-.875 0 0 1 990.875 456)"/><path fill="none" stroke="#1E65FA" stroke-linecap="round" stroke-width="7.5" d="M33.25-299c6.75 2 15.25 12.5 19 19.75" style="display:block" transform="matrix(-.875 0 0 1 935.75 486)"/><path fill="none" stroke="#C6FFFD" stroke-linecap="round" stroke-width="7.5" d="M99.75-272.5c-6.75 5.5-11.75 22-14 34.25" style="display:block" transform="matrix(-.875 0 0 1 965.063 445.5)"/><path fill="none" stroke="#1E65FA" stroke-linecap="round" stroke-width="7.5" d="M65.75-304.25C84-294 98.5-270 115.5-252.5c8.882 9.144 24.5 22 43 21.5" style="display:block" transform="matrix(-.875 0 0 1 934 476.5)"/><path fill="#C6FFFD" d="M0-41.5c-18.225 0-33 14.775-33 33v17c0 18.225 14.775 33 33 33s33-14.775 33-33v-17c0-18.225-14.775-33-33-33z" style="display:block" transform="matrix(1.6 0 0 1.6 699.7 299.375)"/><g mask="url(#aZ)" style="display:block"><path fill="#3B4CFF" d="M713.278 252.295c0 12.151-10.317 22-23.04 22v24.64c0 14.58 12.894 26.4 28.8 26.4 15.905 0 28.8-11.82 28.8-26.4v-29.92c0-14.58-12.895-26.4-28.8-26.4-2.648 0-5.213.327-7.65.942a21.085 21.085 0 0 1 1.89 8.738z"/></g><path fill="#C6FFFD" d="M0-41.5c-18.225 0-33 14.775-33 33v17c0 18.225 14.775 33 33 33s33-14.775 33-33v-17c0-18.225-14.775-33-33-33z" style="display:block" transform="matrix(1.4 0 0 1.6 875.2 298.375)"/><g mask="url(#ba)" style="display:block"><path fill="#3B4CFF" d="M857.815 251.501c0 11.912-9.218 21.57-20.588 21.57v22.168c0 14.891 11.521 26.961 25.736 26.961 14.214 0 25.736-12.07 25.736-26.961v-28.758c0-14.892-11.522-26.962-25.736-26.962-2.74 0-5.381.449-7.858 1.28a22.267 22.267 0 0 1 2.71 10.702z"/></g></g></g><path fill="none" stroke="#0455FF" stroke-linecap="round" stroke-miterlimit="10" stroke-width="8.195" d="m-36.661-35.431 19.996 53.876C-9.834 37.279 5.82 37.028 17.301 33.698c0 0 12.341-3.09 19.36-19.717" style="display:block" transform="rotate(-4.085 6049.714 -11037.382)"/><path fill="#0455FF" d="m-25.129-24.121 16.327 45.184c4.915 9.073 14.081 13.003 21.252 10.318 9.676-3.048 14.886-12.88 11.783-22.234L10.928-32.211l-36.057 8.09z" style="display:block" transform="rotate(-4.085 5894.048 -11042.934)"/><path fill="#C7FFFE" d="M-25.069-13.099C-6.975-19.182 12.28-23.345 25.047-1.055c.641.888-11.811 18.986-11.811 18.986C1.425-10.663-25.292-9.902-25.069-13.099z" style="display:block" transform="rotate(-4.085 5184.821 -11032.956)"/><path fill="none" stroke="#0354FF" stroke-linecap="round" stroke-width="7.5" d="M222.5-175c31.75-.5 48.75-3.25 51.75-4.5s13.206-13.525 15.25-17" style="display:block" transform="rotate(-4.085 8108.81 -7445.846)"/><g mask="url(#bf)" style="display:block"><g clip-path="url(#bg)" transform="rotate(-3.881 840.136 517.75)"><g style="display:block"><path fill="#1F66FB" d="M862.345 516.586c14.422-4.267 24.121-15.877 24.045-27.579-.02-3.057-3.539-4.93-7.152-3.861l-48.173 14.253c-3.613 1.069-5.547 4.556-3.9 7.131 6.304 9.86 20.758 14.323 35.18 10.056zM773.209 536.365c14.934-1.782 26.446-11.596 28.339-23.144.494-3.017-2.66-5.455-6.401-5.009l-49.883 5.952c-3.741.446-6.234 3.557-5.044 6.373 4.556 10.779 18.054 17.61 32.989 15.828zM827.895 566.47c14.658-3.368 25.055-14.357 25.702-26.042.169-3.052-3.227-5.139-6.899-4.295l-48.962 11.25c-3.672.844-5.817 4.205-4.333 6.877 5.683 10.23 19.833 15.578 34.492 12.21z"/></g></g></g></g></g></svg>