<svg xmlns="http://www.w3.org/2000/svg" xmlns:xlink="http://www.w3.org/1999/xlink" width="1080" height="1080" style="width:100%;height:100%;transform:translate3d(0,0,0);content-visibility:visible"><defs><clipPath id="c"><path d="M0 0h1080v1080H0z"/></clipPath><clipPath id="d"><path d="M0 0h1080v1080H0z"/></clipPath><clipPath id="e"><path d="M0 0h1080v1080H0z"/></clipPath><clipPath id="B"><path d="M0 0h1080v1080H0z"/></clipPath><clipPath id="C"><path d="M0 0h1080v1080H0z"/></clipPath><clipPath id="A"><path d="M0 0h1080v1080H0z"/></clipPath><clipPath id="r"><path d="M0 0h1080v1080H0z"/></clipPath><clipPath id="s"><path d="M0 0h1080v1080H0z"/></clipPath><clipPath id="u"><path d="M0 0h1080v1080H0z"/></clipPath><clipPath id="z"><path d="M0 0h1080v1080H0z"/></clipPath><clipPath id="y"><path d="M0 0h1080v1080H0z"/></clipPath><clipPath id="x"><path d="M0 0h1080v1080H0z"/></clipPath><clipPath id="w"><path d="M0 0h1080v1080H0z"/></clipPath><clipPath id="v"><path d="M0 0h1080v1080H0z"/></clipPath><clipPath id="o"><path d="M0 0h1080v1080H0z"/></clipPath><clipPath id="p"><path d="M0 0h1080v1080H0z"/></clipPath><clipPath id="q"><path d="M0 0h1080v1080H0z"/></clipPath><clipPath id="f"><path d="M0 0h1080v1080H0z"/></clipPath><clipPath id="n"><path d="M0 0h1080v1080H0z"/></clipPath><clipPath id="g"><path d="M0 0h1080v1080H0z"/></clipPath><clipPath id="i"><path d="M0 0h1080v1080H0z"/></clipPath><clipPath id="m"><path d="M0 0h1080v1080H0z"/></clipPath><clipPath id="l"><path d="M0 0h1080v1080H0z"/></clipPath><clipPath id="k"><path d="M0 0h1080v1080H0z"/></clipPath><clipPath id="j"><path d="M0 0h1080v1080H0z"/></clipPath><path id="a" fill="#FFF" d="M154.55 220.74a35.04 35.04 0 0 0 41.33-27.24l73.9-344.89c1.65-8.1-6.52-16.65-14.62-18.31L6.42-220.78c-11.13-2.29-25.38 1.21-32.45 10.1L-259.08 61.68a49.66 49.66 0 0 0-7.87 48.18A49.67 49.67 0 0 0-230 141.77l384.56 78.97z" style="display:block" transform="translate(286.67 628.87)"/><path id="b" fill="#FFF" d="M-152.82 221.25a35.04 35.04 0 0 1-41.51-26.96l-76.27-344.37c-1.72-8.1 6.4-16.7 14.49-18.41l248.38-52.8c11.11-2.36 25.39 1.04 32.52 9.89L259.71 59.33a49.66 49.66 0 0 1 8.2 48.13 49.67 49.67 0 0 1-36.72 32.17l-384.01 81.62z" style="display:block" transform="translate(792.11 679.55)"/><mask id="t" mask-type="alpha"><use xlink:href="#a"/></mask><mask id="h" mask-type="alpha"><use xlink:href="#b"/></mask></defs><g clip-path="url(#c)"><g clip-path="url(#d)" style="display:block"><g clip-path="url(#e)" style="display:block"><g clip-path="url(#f)" style="display:block" transform="matrix(.77 0 0 .77 124.2 124.2)"><g style="display:block"><path fill="#00448E" d="m1075.04 789.57-26.56 5.65a66.5 66.5 0 0 0-6.83-10.28l-204.43-270.8a45 45 0 0 0-44.38-15.77l-248.38 52.8a30 30 0 0 0-23.11 35.57l72.03 338.87a50 50 0 0 0 59.3 38.51l351.89-74.8c23.15-4.91 39.78-20.91 47.2-40.39l23.27-59.36z"/><path fill="#9ADFFF" d="m1026.35 831.75-384.01 81.63a50 50 0 0 1-59.3-38.52L511 536a30 30 0 0 1 23.1-35.58l248.38-52.8a45 45 0 0 1 44.39 15.77l236.55 263.99c30.43 37.73 10.33 94.3-37.08 104.38z"/><path fill="#FFF" d="M639.3 900.8a35.04 35.04 0 0 1-41.52-26.95l-76.26-344.38c-1.72-8.09 6.4-16.69 14.48-18.41l248.38-52.8c11.12-2.36 25.4 1.05 32.53 9.9l234.92 270.73a49.66 49.66 0 0 1 8.2 48.12 49.67 49.67 0 0 1-36.73 32.17l-384 81.62z"/></g><g clip-path="url(#g)" mask="url(#h)" style="display:block"><g clip-path="url(#i)" style="display:block"><g style="display:block"><path fill="none" stroke="#3DB9B8" stroke-linecap="round" stroke-miterlimit="10" stroke-width="10" d="M28.14 15.46c-.37-11.34-.08-35.73-.22-49.28" transform="matrix(.74834 0 0 .77695 628.36 808.85)"/><path fill="#CC348D" d="M649.94 796.06c5.6-.58 9.93-5.32 11.07-11.41.23-.01.46 0 .69-.03 7.02-.72 12.08-8.02 11.3-16.3-.8-8.29-7.13-14.42-14.16-13.7l-.58.1c-2.2-5.92-7.44-9.83-13.14-9.25-5.7.59-10.09 5.5-11.13 11.74-.2.01-.4 0-.6.03-7.02.72-12.08 8.02-11.29 16.3.79 8.28 7.13 14.41 14.15 13.7.23-.03.46-.08.68-.12 2.27 5.74 7.42 9.51 13.01 8.94zm-2.7-35.7c-6.41.34-11.36 5.37-11.07 11.23.29 5.85 5.72 10.32 12.12 9.98 6.4-.35 11.36-5.37 11.07-11.22-.3-5.86-5.72-10.33-12.13-9.99z"/><path fill="#FFF" d="M647.23 760.36c-6.4.34-11.36 5.37-11.07 11.23.3 5.85 5.72 10.32 12.13 9.98 6.4-.34 11.36-5.37 11.07-11.23-.3-5.85-5.72-10.32-12.13-9.98z"/></g><g clip-path="url(#j)" style="display:block"><path fill="#E6A000" d="M609.9 452.3c-.22-24.17-30.99-43.47-68.71-43.12-37.73.35-68.13 20.22-67.9 44.38.22 24.16 30.98 43.46 68.71 43.11 37.73-.35 68.13-20.22 67.9-44.38zm-.12-13.35-136.62 1.27.13 13.34 136.61-1.27-.12-13.34z"/><path fill="#FFC700" d="M609.78 438.95c.22 24.16-30.18 44.03-67.9 44.38-37.73.35-68.5-18.95-68.72-43.11-.22-24.17 30.18-44.04 67.9-44.39 37.73-.35 68.5 18.96 68.72 43.12z"/><path fill="#FFE700" d="M554.98 475.5c10.04-1.46 19.33-4.47 27.12-8.84 1.66-.93 1.9-3.03.5-4.26l-63-55.66a3.3 3.3 0 0 0-3.05-.65 69.98 69.98 0 0 0-19.21 8.53 51.59 51.59 0 0 0-4.62 3.38 2.55 2.55 0 0 0-.07 3.97l59.75 52.78c.68.6 1.63.88 2.58.74zm30.16-61.7c-11.7-7.33-27.33-11.29-44.01-11.13l-1.2.01c-2.69.06-3.99 3-2.07 4.7l54.04 47.73c1.33 1.17 3.54 1.01 4.6-.37 3.77-4.9 5.74-10.25 5.69-15.72-.09-9.41-6.14-18.37-17.05-25.21z"/></g><g clip-path="url(#k)" style="display:block"><path fill="#E6A000" d="M662.88 480.55c-.24-25.2-32.34-45.35-71.7-44.98-39.37.36-71.1 21.1-70.86 46.3.23 25.22 32.33 45.36 71.7 45 39.37-.37 71.09-21.1 70.86-46.32zm-.13-13.92-142.56 1.32.13 13.93 142.56-1.33-.13-13.92z"/><path fill="#FFC700" d="M662.75 466.63c.23 25.21-31.5 45.95-70.86 46.31-39.36.37-71.47-19.77-71.7-44.99-.23-25.2 31.49-45.94 70.86-46.3 39.36-.37 71.46 19.77 71.7 44.98z"/><path fill="#FFE700" d="M605.56 504.77c10.48-1.52 20.17-4.67 28.3-9.22 1.74-.98 1.99-3.16.53-4.45l-65.74-58.08a3.4 3.4 0 0 0-3.18-.67 73.02 73.02 0 0 0-20.06 8.9 53.83 53.83 0 0 0-4.8 3.52 2.66 2.66 0 0 0-.08 4.14l62.34 55.07c.7.63 1.7.93 2.7.79zm31.47-64.37c-12.2-7.66-28.51-11.8-45.92-11.63l-1.24.02c-2.81.06-4.17 3.12-2.17 4.9l56.4 49.8c1.38 1.23 3.69 1.06 4.8-.38 3.93-5.12 5.98-10.7 5.93-16.4-.1-9.83-6.41-19.17-17.8-26.31z"/></g><g clip-path="url(#l)" style="display:block"><path fill="#E6A000" d="M782.85 588.82c-.25-26.27-33.68-47.25-74.7-46.87-41 .38-74.04 21.98-73.8 48.24.25 26.27 33.69 47.25 74.7 46.87 41-.38 74.04-21.98 73.8-48.24zm-.14-14.5-148.5 1.37.14 14.5 148.5-1.37-.14-14.5z"/><path fill="#FFC700" d="M782.71 574.31c.25 26.27-32.8 47.86-73.8 48.24-41 .38-74.45-20.6-74.7-46.86-.24-26.26 32.8-47.86 73.82-48.24 41-.38 74.44 20.6 74.68 46.86z"/><path fill="#FFE700" d="M723.15 614.04c10.92-1.59 21-4.86 29.48-9.6 1.8-1.02 2.07-3.3.55-4.64l-68.48-60.5a3.58 3.58 0 0 0-3.32-.7 76.07 76.07 0 0 0-20.89 9.27 56.07 56.07 0 0 0-5.01 3.68 2.77 2.77 0 0 0-.08 4.3l64.94 57.37a3.5 3.5 0 0 0 2.8.82zm32.78-67.05c-12.71-7.98-29.7-12.28-47.84-12.11-.43 0-.86 0-1.3.02-2.92.06-4.33 3.25-2.25 5.09l58.75 51.89a3.53 3.53 0 0 0 5-.4c4.1-5.33 6.23-11.15 6.18-17.09-.1-10.23-6.68-19.96-18.54-27.4z"/></g><g clip-path="url(#m)" style="display:block"><path fill="#E6A000" d="M873.82 733.08c-.25-27.31-35.03-49.13-77.68-48.74-42.64.4-77 22.86-76.75 50.17.25 27.32 35.03 49.14 77.67 48.74 42.65-.4 77.01-22.86 76.76-50.17zm-.14-15.08-154.43 1.43.14 15.08 154.43-1.43-.14-15.08z"/><path fill="#FFC700" d="M873.68 718c.26 27.3-34.11 49.77-76.76 50.17-42.64.4-77.42-21.43-77.67-48.74-.26-27.31 34.1-49.78 76.75-50.17 42.65-.4 77.43 21.42 77.68 48.74z"/><path fill="#FFE700" d="M811.73 759.3c11.36-1.64 21.85-5.04 30.66-9.98a2.92 2.92 0 0 0 .58-4.82l-71.23-62.91a3.72 3.72 0 0 0-3.45-.74 79.1 79.1 0 0 0-21.72 9.64 58.32 58.32 0 0 0-5.21 3.83 2.88 2.88 0 0 0-.09 4.48l67.54 59.66c.77.68 1.86 1 2.92.85zm34.1-69.73c-13.23-8.3-30.9-12.76-49.75-12.59l-1.35.02c-3.04.07-4.51 3.38-2.35 5.3l61.1 53.97c1.5 1.32 4 1.14 5.2-.42 4.26-5.55 6.48-11.6 6.42-17.77-.1-10.64-6.94-20.77-19.28-28.5z"/></g></g></g><g clip-path="url(#n)" style="display:block"><g style="display:block"><path fill="none" stroke="#3DB9B8" stroke-linecap="round" stroke-miterlimit="10" stroke-width="7.65" d="M892.95 694.45c-.6-7.76 1.45-26.86 11.42-49.26"/><path fill="#CC348D" d="M900.58 653.19c5.12 2.28 11.12.46 15-4.05.2.1.4.22.6.31 6.43 2.86 14.27-.73 17.52-8.02 3.25-7.3.68-15.52-5.74-18.39-.18-.08-.37-.13-.55-.2.9-6.02-1.77-11.87-6.98-14.19-5.2-2.32-11.34-.4-15.2 4.3-.18-.1-.35-.2-.53-.27-6.42-2.87-14.26.72-17.51 8.02-3.25 7.29-.68 15.52 5.74 18.38.21.1.43.17.64.25-.76 5.9 1.9 11.58 7.01 13.86zM912 621.3c-6.3-.98-12.13 2.73-13 8.29-.86 5.55 3.55 10.86 9.87 11.84 6.3 1 12.13-2.72 12.99-8.28.87-5.56-3.55-10.86-9.86-11.85z"/><path fill="#FFF" d="M912 621.32c-6.31-.99-12.13 2.72-13 8.28-.86 5.56 3.55 10.86 9.87 11.85 6.3.98 12.12-2.73 13-8.29.86-5.56-3.56-10.86-9.87-11.84z"/></g><g style="display:block"><path fill="none" stroke="#3DB9B8" stroke-linecap="round" stroke-miterlimit="10" stroke-width="7.65" d="M905.06 694.94c-.24-5.88 4.36-27.81 21.52-32.58"/><path fill="#CC348D" d="M918.47 666.24c2.12 5.18 7.72 8 13.64 7.42l.22.65c2.67 6.51 10.82 9.33 18.2 6.3 7.4-3.03 11.22-10.76 8.56-17.26l-.26-.53c4.81-3.73 6.92-9.8 4.75-15.08-2.16-5.27-7.92-8.12-13.96-7.4-.07-.18-.12-.37-.2-.55-2.66-6.51-10.81-9.33-18.2-6.3-7.39 3.03-11.21 10.76-8.54 17.26.08.22.2.42.3.62-4.63 3.74-6.63 9.69-4.51 14.87zm30.27-15.17c-3.88-5.06-10.65-6.4-15.12-2.98-4.46 3.42-4.94 10.3-1.05 15.38 3.88 5.07 10.66 6.4 15.12 2.98 4.47-3.42 4.93-10.3 1.05-15.38z"/><path fill="#FFF" d="M948.74 651.08c-3.89-5.07-10.65-6.4-15.12-2.99-4.47 3.42-4.94 10.3-1.05 15.38 3.88 5.07 10.65 6.4 15.12 2.98 4.46-3.42 4.93-10.3 1.05-15.37z"/></g></g></g><g clip-path="url(#o)" style="display:block" transform="matrix(.77 0 0 .77 121.12 121.12)"><path fill="none" stroke="#CC348C" stroke-linecap="round" stroke-width="34" d="M229 251.28s8.98 10.3 19.07 11.91" style="display:block" transform="rotate(31 -323.34 1516.58)"/><path fill="none" stroke="#0084C2" stroke-linecap="round" stroke-width="42" d="M226.95 123.32s32.48 17.44 29.63 43.25" style="display:block" transform="rotate(29 -505.85 1482.48)"/><path fill="none" stroke="#0084C2" stroke-linecap="round" stroke-width="42" d="M204.6 134.57s42.2 55.5 74.53 94.93" style="display:block" transform="rotate(29 -540.71 1483.25)"/><path fill="none" stroke="#CC348C" stroke-linecap="round" stroke-width="34" d="M239.4 255.93s-12.7-1.2-25.07-8.2" style="display:block" transform="rotate(31 -457.68 1510.06)"/><path fill="#CC348D" d="M71.91 41.05a26 26 0 0 1-34.15 13.63L-34.2 13.61a26 26 0 0 1 20.5-47.78L58.29 6.9A26 26 0 0 1 71.9 41.05z" style="display:block" transform="rotate(-55.91 895.34 -529.44)"/><path fill="#0084C2" d="M96.64 0c0 53.37-43.27 96.63-96.64 96.63S-96.64 53.37-96.64 0-53.37-96.63 0-96.63 96.64-53.37 96.64 0z" style="display:block" transform="rotate(-8.91 4221.39 -4658.03)"/><path fill="#00448E" d="M-96.51 11.49C-93.98-39.62-51.74-80.28 0-80.28S93.98-39.62 96.51 11.5a95.56 95.56 0 0 1-2.1 15.67A110.45 110.45 0 0 1 0 80.11c-39.98 0-75-21.05-94.41-52.85a96.67 96.67 0 0 1-2.1-15.77z" style="display:block" transform="rotate(-8.91 4178.92 -4654.72)"/><path fill="#CC348D" d="m24 53.94.33-.13c-12.44 7.17-37.95 5.44-49.6-18.08l-1.22-19.65c8.31-12.96 12.67-6.16 25.1-13.34l1.14.89a26 26 0 0 1 35.52 9.52l-1.42 5.14c7.17 12.44 2.59 28.47-9.85 35.65z" style="display:block" transform="rotate(-127.91 560.32 44.64)"/><path fill="#CC348D" d="M-97.13 29.76c-.2-2.53.5-10.83.5-13.4 0-53.37 43.26-96.64 96.63-96.64S96.64-37 96.64 16.36c0 2.57.12 3.7-.08 6.22-18.7 33.39-55.21 57.5-96.54 57.5-41.11-.01-78.07-16.66-97.15-50.32z" style="display:block" transform="rotate(-8.91 4116.41 -4649.85)"/><path fill="#A71E6E" d="M806.74 604.93a3.82 3.82 0 0 1 4.35-3.2l7.74 1.19 2-7.56a3.82 3.82 0 0 1 7.39 1.96l-2.9 10.87a3.82 3.82 0 0 1-4.26 2.8l-11.13-1.71a3.82 3.82 0 0 1-3.2-4.35zm-32.34 10.7a3.82 3.82 0 0 1 4.94-2.17l9.4 3.66 6.43-7.77a3.82 3.82 0 0 1 5.88 4.86l-8.19 9.9a3.82 3.82 0 0 1-4.32 1.12l-11.97-4.65a3.82 3.82 0 0 1-2.18-4.95zm38.9-38.7a3.82 3.82 0 0 1 3.95-3.68l10.08.34 3.5-9.46a3.82 3.82 0 0 1 7.16 2.65l-4.45 12.05a3.82 3.82 0 0 1-3.71 2.49l-12.84-.44a3.82 3.82 0 0 1-3.69-3.95zm-29.22 13.22a3.82 3.82 0 0 1 4.6-2.83l9.81 2.33 5.3-8.58a3.82 3.82 0 0 1 6.5 4.02L803.54 596a3.82 3.82 0 0 1-4.14 1.71l-12.49-2.97a3.82 3.82 0 0 1-2.83-4.6zm-30.81 11.82a3.82 3.82 0 0 1 4.7-2.64l9.72 2.74 5.65-8.36a3.82 3.82 0 0 1 6.32 4.28l-7.2 10.64a3.82 3.82 0 0 1-4.19 1.53l-12.36-3.48a3.82 3.82 0 0 1-2.64-4.7z" style="display:block"/><g style="display:block"><path fill="#C6775C" d="M911.26 502.9c-2.05-7.25-7.76-12.46-14.68-15.1-7.66-2.93-16.8-2.69-24.03 1.46-13.78 7.9-19.03 18.19-7.28 40.44 5.26 9.97 18.71 19.28 32.5 11.38 15.16-8.69 18.28-21.22 13.49-38.18z"/><path fill="none" stroke="#C6775C" stroke-linecap="round" stroke-width="17.82" d="m871.44 495.86 3.29 11.89"/></g><g style="display:block"><path fill="none" stroke="#CC348D" stroke-linecap="round" stroke-width="42" d="M703.26 557.5c-11.84 25.92-14.72 38.77-16.69 65.68-1.24 23.3 2.04 50.9 2.96 75.58"/><path fill="#C6775C" d="M666.8 673.1c.16 1.16 1 29.2 1.3 30.07.24.5.95 18.22 22.94 16.9 20.49-1.45 20.05-18.3 20.05-18.3s-1.28-29.42-1.64-30.23c-1.1.37-41.48 1.17-42.64 1.57z"/></g><g style="display:block"><path fill="#0084C2" d="M826.65 424.6c6.18 50.46-30.28 91.28-80.66 97.44-50.38 6.17-95.6-24.64-101.79-75.11-6.18-50.47 29.66-96.39 80.04-102.56 50.38-6.17 96.23 29.75 102.41 80.22z"/><path fill="#006AAD" d="M778.57 354.62a92.78 92.78 0 0 1 8.27 4.97c4.07 11.33 8.59 25 7.64 38.7-1.3 18.93-10.16 38.48-19.65 49.87l-4.25-3.55c8.43-10.12 17.11-28.34 18.38-46.7 1.14-16.59-4.4-32.47-10.4-43.29z"/><path fill="#FFF" d="m-109.42 657 .26 2.13-.14.01-.26-2.12.14-.02z"/></g><path fill="#3D3D3D" d="M37.2 50.84a60.07 60.07 0 1 0-57.72-98.32 75.7 75.7 0 0 0-3.97-.12c-33.26 0-60.22 21.45-60.22 54.94 0 33.49 26.96 60.63 60.22 60.63a60 60 0 0 0 13.83-1.62l-.07.14 1.46-.48c2.22-.58 4.38-1.3 6.5-2.12L37.2 50.84z" style="display:block" transform="matrix(.99168 -.12142 .12165 .9935 771.94 530.56)"/><path fill="#C6775C" d="M-1.24 39.8c-25.68 0-41.07-8.3-49.25-13.12-2.56-1.5-5.43-5.1-5.43-8.07 0-.26.13-1.46.36-1.58C-21.94-.94 20.22-39.8 20.22-39.8s15.39 1.51 31.86 17.07c2.35 2.22 3.52 3.75 3.68 6.99.27 5.22.16 12.47-.03 18.58-.24 7.66-2.76 15.32-8.42 20.49-8.26 7.54-22.9 16.45-48.55 16.45z" style="display:block" transform="matrix(.99168 -.12142 .12165 .9935 762.39 475.25)"/><g style="display:block"><path fill="none" stroke="#3DB9B8" stroke-linecap="round" stroke-miterlimit="10" stroke-width="9" d="M53.28 19.1C5.4 5.12.68-5.8-22.62-21.22" transform="matrix(.73953 .98165 -.88167 .6642 879.4 484.58)"/><path fill="#CC348D" d="M884.87 477.34c7.44-.94 9.68-3.9 10.99-11.75.3-.02 3.98-3.32 4.3-3.36 9.34-1.18 15.82-10.74 14.48-21.35-1.34-10.61-10-18.26-19.35-17.07-.26.03-.51.1-.77.14-3.14-7.52-10.27-12.36-17.84-11.4-7.57.96-13.27 7.42-14.44 15.48-.26.02-.52.02-.79.05-9.34 1.19-15.83 10.74-14.49 21.35 1.34 10.61 10 18.26 19.35 17.08.3-.04.6-.11.9-.17 3.23 7.29 10.23 11.94 17.66 11zm-3.5-44.9c-8.54-.41-15.76 5.36-16.11 12.88-.35 7.53 6.27 13.97 14.83 14.37 8.55.41 15.75-5.36 16.12-12.89.35-7.52-6.29-13.96-14.83-14.36z"/><path fill="#FFF" d="M881.38 432.44c-8.55-.41-15.76 5.36-16.12 12.89-.36 7.53 6.28 13.96 14.83 14.36 8.54.4 15.76-5.36 16.12-12.9.35-7.52-6.28-13.95-14.83-14.35z"/></g><g style="display:block"><path fill="#C6775C" d="M878.1 489.81s7.18 13.92-.55 18.25c-7.72 4.32-14.55-3.34-14.75-10.73.08-3.25 3.47-4.17 3.47-4.17l8.08-3.3 3.75-.05zM910 509c8.97 26.8-18.73 33.34-18.73 33.34s-7.46-7.5-3.17-19.9c-5.48-1.14-7.84-7.2-5.7-13.15 2.14-5.95 4.16-6.9 12.19-7.96 8.03-1.07 11.5-4 15.41 7.68z"/><path fill="none" stroke="#9F543A" stroke-linecap="round" stroke-width="4.6" d="M895.9 502.1s-10.37-1.38-13.33 7.76c-2.16 6.68.9 10.72 4.02 13.7m6.44 13.49s-5.78-4.1-5.31-9.6c.46-5.5 5.32-13.04 12.58-10m-22.45-27.9c5.86 9.16 3.28 19-3.79 20.05-6.37.95-10.64-5.48-11.02-9"/></g><g clip-path="url(#p)" style="display:block" transform="matrix(.9773 -.20755 .20761 .97913 -85.25 196.73)"><path fill="#C6775C" d="M10.88 0a10.88 10.88 0 1 1-21.76 0 10.88 10.88 0 0 1 21.76 0z" style="display:block" transform="translate(800.84 479.89)"/><path fill="#C6775C" d="M10.88 0a10.88 10.88 0 1 1-21.76 0 10.88 10.88 0 0 1 21.76 0z" style="display:block" transform="translate(798.78 473.2)"/><path fill="#FFF" d="M-18.51-4.88a18.51 18.51 0 1 1 37.02 0v9.76a18.51 18.51 0 1 1-37.02 0v-9.76z" style="display:block" transform="translate(773.53 459.78)"/><path fill="#3D3D3D" d="M-1.52-12.1a6.74 6.74 0 0 1-6.53 5.04h-.17a9.1 9.1 0 0 0-.9 3.94V3.1a9.13 9.13 0 1 0 18.25 0v-6.22c0-5.7-5.15-9.93-10.65-8.98z" style="display:block" transform="translate(781.68 457.3)"/><path fill="#FFF" d="M-12.17.84c0-10.15 8.3-23.86 17.31-23.86 5.46 0 6.96 4.75 7.03 7.13V-.95c0 10.37-6.3 23.97-15.63 23.97-7.47 0-8.78-8.99-8.7-13.49V.83z" style="display:block" transform="translate(811.92 449.77)"/><path fill="#3D3D3D" d="M-6.73-1.1c2.89 0 5.23-2.94 5.23-6.57 0-1.18-.25-2.28-.68-3.24a8.77 8.77 0 0 1 5.28-1.94c3.3 0 4.2 2.87 4.24 4.3V.49c0 6.26-3.8 12.37-9.43 12.37-4.5 0-5.3-5.43-5.25-8.14V-.54l.01-.6c.2.02.4.04.6.04z" style="display:block" transform="translate(810.32 449.9)"/><g clip-path="url(#q)" style="display:block"><path fill="#262626" d="M-19.16-7.96a11.02 11.02 0 0 1 15.25-3.18 15 15 0 0 0 4.4 1.7c2.19.48 4.23.46 5.96-.12a11.02 11.02 0 0 1 7 20.9C.72 15.6-11.32 10.35-15.98 7.3a11.02 11.02 0 0 1-3.18-15.26z" style="display:block" transform="translate(789.73 507.18)"/><path fill="#FFF" d="M19.88 3.82a11.02 11.02 0 0 0-13.93-6.9c-1.72.57-3.77.59-5.95.1a15 15 0 0 1-4.4-1.69 11.02 11.02 0 0 0-15.26 3.19l-.22.37C-10 6.62 8.35 8.75 19.88 3.82z" style="display:block" transform="translate(790.22 500.7)"/></g><g opacity=".02" style="display:block"><path fill="none" stroke="#262626" stroke-linecap="round" stroke-width="7" d="M772.5 500.25S783 512 808.5 506" opacity="1"/></g></g></g><g clip-path="url(#r)" style="display:block" transform="matrix(.77 0 0 .77 124.2 124.2)"><g style="display:block"><path fill="#F48C03" d="M534 499.68 285.28 448.6A45 45 0 0 0 241 464.67L38.44 736.88a66.54 66.54 0 0 0-6.76 10.32l-26.6-5.46 23.68 59.2a64.43 64.43 0 0 0 47.48 40.07l352.4 72.37a50 50 0 0 0 59.03-38.92l69.7-339.36A30 30 0 0 0 534 499.68z"/><path fill="#FFB34A" d="M54.44 786.46 439 865.44a50 50 0 0 0 59.04-38.92l69.7-339.36a30 30 0 0 0-23.36-35.42l-248.74-51.08a45 45 0 0 0-44.27 16.07L16.64 682.33c-30.17 37.95-9.69 94.38 37.8 104.13z"/><path fill="#FFF" d="M440.09 849.29a35.04 35.04 0 0 0 41.32-27.25l73.9-344.89c1.66-8.1-6.52-16.65-14.62-18.31l-248.74-51.08c-11.13-2.29-25.38 1.21-32.45 10.1L26.45 690.22a49.66 49.66 0 0 0-7.87 48.19 49.67 49.67 0 0 0 36.94 31.91L440.1 849.3z"/></g><g clip-path="url(#s)" mask="url(#t)" style="display:block"><g clip-path="url(#u)" style="display:block"><g clip-path="url(#v)" style="display:block"><path fill="#7F7F7F" d="M302.42 912.88c-.3-32.68-41.94-58.78-93-58.3-51.05.47-92.19 27.34-91.88 60.01.3 32.68 41.93 58.78 92.98 58.31 51.06-.47 92.2-27.34 91.9-60.02zm-.17-18.04-184.88 1.7.17 18.05 184.88-1.71-.17-18.04z"/><path fill="#D8D8D8" d="M302.25 894.83c.3 32.68-40.84 59.55-91.9 60.03-51.05.47-92.68-25.64-92.98-58.31-.3-32.68 40.84-59.55 91.89-60.02 51.05-.47 92.69 25.63 92.99 58.3z"/><path fill="#D8D8D8" d="M228.09 944.26c13.6-1.97 26.15-6.04 36.7-11.95 2.25-1.26 2.58-4.1.69-5.76l-85.27-75.27a4.46 4.46 0 0 0-4.13-.88c-9.63 2.73-18.45 6.6-26 11.53a69.81 69.81 0 0 0-6.24 4.58 3.45 3.45 0 0 0-.1 5.36l80.85 71.38c.92.8 2.22 1.2 3.5 1zm40.81-83.43c-15.83-9.92-36.98-15.27-59.55-15.06-.54 0-1.08 0-1.62.02-3.64.08-5.4 4.05-2.8 6.34l73.13 64.56c1.8 1.59 4.79 1.37 6.22-.5 5.1-6.63 7.77-13.86 7.7-21.26-.12-12.73-8.31-24.84-23.08-34.1z"/></g><g clip-path="url(#w)" style="display:block"><path fill="#7F7F7F" d="M304.87 789.38c-.3-31.54-40.68-56.73-90.21-56.27-49.53.46-89.44 26.39-89.15 57.92.3 31.53 40.68 56.72 90.21 56.27 49.53-.46 89.45-26.4 89.15-57.92zm-.16-17.42-179.36 1.66.16 17.41 179.36-1.65-.16-17.42z"/><path fill="#D8D8D8" d="M304.7 771.96c.3 31.53-39.61 57.47-89.14 57.92-49.53.46-89.92-24.73-90.21-56.26-.3-31.53 39.62-57.47 89.15-57.92 49.53-.46 89.91 24.73 90.2 56.26z"/><path fill="#D8D8D8" d="M232.76 819.66c13.19-1.9 25.38-5.83 35.61-11.53 2.18-1.22 2.5-3.96.67-5.56l-82.72-72.64a4.34 4.34 0 0 0-4-.85 92.39 92.39 0 0 0-25.24 11.13 67.7 67.7 0 0 0-6.05 4.42 3.31 3.31 0 0 0-.1 5.17l78.44 68.88c.9.78 2.15 1.15 3.39.98zm39.6-80.5c-15.36-9.59-35.88-14.75-57.78-14.55-.53 0-1.05.01-1.57.03-3.53.07-5.24 3.9-2.72 6.11l70.95 62.3c1.75 1.54 4.65 1.33 6.04-.47 4.95-6.4 7.53-13.39 7.47-20.52-.12-12.29-8.07-23.97-22.4-32.9z"/></g><g clip-path="url(#x)" style="display:block"><path fill="#E6A000" d="M370.1 637.34c-.28-28.7-37.58-51.62-83.33-51.2-45.75.4-82.61 24-82.34 52.7.27 28.7 37.58 51.62 83.32 51.2 45.75-.4 82.62-24 82.34-52.7zm-.16-15.85L204.28 623l.15 15.85 165.66-1.5-.15-15.85z"/><path fill="#FFC700" d="M369.94 621.49c.28 28.7-36.59 52.3-82.34 52.7-45.74.42-83.05-22.5-83.32-51.2-.27-28.69 36.6-52.29 82.34-52.7 45.75-.42 83.05 22.5 83.32 51.2z"/><path fill="#FFE700" d="M303.49 664.9c12.18-1.74 23.44-5.31 32.89-10.5 2.02-1.1 2.3-3.6.62-5.06l-76.4-66.1a4.06 4.06 0 0 0-3.7-.77 85.76 85.76 0 0 0-23.3 10.13 62.5 62.5 0 0 0-5.6 4.01 2.99 2.99 0 0 0-.09 4.71L300.36 664a3.97 3.97 0 0 0 3.13.9zm36.57-73.27c-14.18-8.71-33.13-13.41-53.36-13.23l-1.45.02c-3.26.07-4.84 3.56-2.51 5.57l65.53 56.7c1.61 1.39 4.29 1.2 5.58-.44 4.57-5.83 6.95-12.18 6.9-18.67-.11-11.18-7.46-21.82-20.69-29.95z"/></g><g clip-path="url(#y)" style="display:block"><path fill="#E6A000" d="M457.71 507.03c-.21-21.93-30.07-39.45-66.7-39.13-36.6.31-66.12 18.35-65.9 40.28.22 21.93 30.08 39.46 66.7 39.14 36.61-.32 66.12-18.35 65.9-40.29zm-.12-12.1L325 496.06l.12 12.11 132.6-1.15-.12-12.1z"/><path fill="#FFC700" d="M457.6 494.92c.21 21.93-29.3 39.97-65.91 40.29-36.62.31-66.48-17.2-66.7-39.14-.22-21.93 29.3-39.97 65.9-40.29 36.63-.31 66.49 17.2 66.7 39.14z"/><path fill="#FFE700" d="M404.4 528.1c9.75-1.33 18.76-4.06 26.33-8.03 1.61-.84 1.85-2.74.5-3.86l-61.16-50.52a3.36 3.36 0 0 0-2.97-.6 70.35 70.35 0 0 0-18.65 7.75c-1.6.98-3.1 2-4.47 3.07a2.22 2.22 0 0 0-.07 3.6l57.99 47.9c.66.55 1.59.8 2.5.68zm29.28-56c-11.36-6.66-26.53-10.26-42.72-10.11l-1.16.01c-2.61.06-3.87 2.72-2.01 4.26l52.45 43.33c1.3 1.07 3.44.92 4.47-.33 3.66-4.46 5.57-9.31 5.52-14.27-.09-8.55-5.97-16.68-16.55-22.9z"/></g><g clip-path="url(#z)" style="display:block"><path fill="#E6A000" d="M513.84 426.86c-.14-12.36-18.76-22.24-41.6-22.06-22.84.18-41.25 10.34-41.11 22.7.13 12.37 18.76 22.25 41.6 22.07 22.84-.18 41.24-10.35 41.1-22.71zm-.08-6.83-82.7.65.07 6.83 82.7-.65-.07-6.83z"/><path fill="#FFC700" d="M513.76 420.03c.14 12.37-18.27 22.53-41.1 22.71-22.85.18-41.47-9.7-41.6-22.06-.14-12.36 18.26-22.53 41.1-22.71 22.84-.18 41.47 9.7 41.6 22.06z"/><path fill="#FFE700" d="M480.58 438.73a54.02 54.02 0 0 0 16.43-4.52c1-.47 1.15-1.55.3-2.18l-38.14-28.48a2.28 2.28 0 0 0-1.85-.33 46.55 46.55 0 0 0-11.63 4.36c-1 .56-1.94 1.13-2.8 1.73-.77.55-.79 1.47-.04 2.03l36.17 27.01c.41.3 1 .45 1.56.38zm18.26-31.56c-7.08-3.76-16.54-5.78-26.64-5.7h-.72c-1.63.03-2.42 1.54-1.26 2.4l32.72 24.43c.8.6 2.14.52 2.79-.19 2.28-2.5 3.47-5.24 3.44-8.04-.05-4.82-3.72-9.4-10.33-12.9z"/></g><path fill="none" stroke="#EBF3FF" stroke-miterlimit="10" stroke-width="30" d="M67.54 274.23C91.17 101.74 203.27-152.5 298.09-245.15M-249.4 235.3c71.33-158.8 231.9-422.34 470.78-474.58" style="display:block" transform="translate(285.53 611.35)"/></g></g></g><g fill="#D8D8D8" clip-path="url(#A)" style="display:block"><path d="M472 384.47A51.55 51.55 0 0 1 523.53 436 51.55 51.55 0 0 1 472 487.53 51.55 51.55 0 0 1 420.47 436 51.55 51.55 0 0 1 472 384.47zm95.88-124.5a33.27 33.27 0 0 1 33.26 33.25 33.27 33.27 0 0 1-33.26 33.26 33.27 33.27 0 0 1-33.26-33.26 33.27 33.27 0 0 1 33.26-33.25z"/><path d="M580.7 284.21a28.94 28.94 0 0 1 28.92 28.93 28.94 28.94 0 0 1-28.93 28.93 28.94 28.94 0 0 1-28.93-28.93 28.94 28.94 0 0 1 28.93-28.93z"/><path d="M544.07 308.28a42.25 42.25 0 0 1 42.23 42.23 42.25 42.25 0 0 1-42.23 42.22 42.25 42.25 0 0 1-42.23-42.22 42.25 42.25 0 0 1 42.23-42.23z"/><path d="M510.72 370.13c32.33 0 58.59 23.23 58.59 51.85 0 28.61-26.26 51.84-58.6 51.84-32.33 0-58.58-23.23-58.58-51.84 0-28.62 26.25-51.85 58.59-51.85z"/><path d="M479.68 376.12c32.33 0 58.58 23.23 58.58 51.85 0 28.61-26.25 51.85-58.58 51.85-32.34 0-58.6-23.24-58.6-51.85 0-28.62 26.26-51.85 58.6-51.85z"/></g><g clip-path="url(#B)" style="display:block" transform="matrix(.77 0 0 .77 124.2 124.2)"><g fill="#744007" style="display:block"><path d="M254.5 351.89 313.06 324l130.3 37.14 17.9 49.71-29.63-6.54-145.76-43.15-31.37-9.28z"/><path d="m294.75 372.37-8.06 48.6 115.96 25.77 20.16-56.53-128.06-17.84z"/></g><path fill="#FFF" d="M69.52 48.68A91.1 91.1 0 0 1-69.52-48.68 91.1 91.1 0 0 1 69.52 48.68z" style="display:block" transform="matrix(.993 -.17228 .17517 .9766 380.01 316.92)"/><g fill="#C86902" style="display:block"><path d="M311.14 351.87c-25.6 6.47-49.01 3.2-65.56-7.68a52.77 52.77 0 0 1-20.53-25.12c-1.35-3.44.88-7.1 4.5-8.01l17.93-4.53"/><path d="M311.14 351.87a106.43 106.43 0 0 1-21.71 3.23c-9.42.38-41.95-48.57-41.95-48.57l47.63-42.73 76.53 11.36-1.84 13.96c-26.88 15.03-49.63 45.42-53.13 61.32"/></g><g fill="#C86902" style="display:block"><path d="M367.55 254.8c-1.3 12.66-12.78 21.9-25.66 20.62l-71.67-7.1c-12.87-1.27-22.26-12.57-20.96-25.23 1.3-12.66 12.78-21.9 25.66-20.62l71.67 7.1c12.87 1.27 22.26 12.57 20.96 25.23z"/><path d="m292.25 261.62-.66 18.83 18.21-1.37 1.46-12.85-19.01-4.6z"/></g><path fill="#C86902" d="M0 58.96a23.24 23.24 0 0 1-23.24-23.24v-71.44a23.24 23.24 0 1 1 46.47 0v71.44A23.24 23.24 0 0 1 0 58.96z" style="display:block" transform="matrix(1.00663 .05762 -.05859 .99 270.3 280.75)"/><g fill="#C86902" style="display:block"><path d="M434.43 374.26c10.53 8.8 34.41 26.04 55.9 28.65a67.99 67.99 0 0 0 36.54-5.63c3.39-1.51 3.22-6.45.74-9.22l-11.04-16.56-22.16-33.26s-66.51 30.57-59.98 36.02z"/><path d="m430.28 279.9-6.24 12.76c-11.16 30.41-4.58 64.32 6.14 77.19 0 0 2.55 2.9 7.08 6.78 13.96 12.43 54.23-42.8 54.23-42.8l-10.07-15.13 2.42-20.17-26.75-14.38-26.8-4.26z"/></g><path fill="#C86902" d="M-42.56 40.8a23.24 23.24 0 0 0 32.86.7L41.86-7.96A23.24 23.24 0 1 0 9.7-41.5L-41.86 7.96a23.24 23.24 0 0 0-.7 32.85z" style="display:block" transform="matrix(.98282 -.22167 .2254 .96658 489.38 323.26)"/><g fill="#C86902" style="display:block"><path d="M416.06 273.16c-2.83 12.41 5.1 24.74 17.72 27.53l70.28 15.54c12.63 2.8 25.16-5 28-17.42 2.84-12.42-5.1-24.75-17.72-27.54l-70.28-15.54c-12.62-2.79-25.16 5.01-28 17.43z"/><path d="m467.95 304.86-.06 8.43 10.05 4.04 1.63-14.37-11.62 1.9z"/></g><path fill="#FFCBA3" d="M-19.82-24.1a30.06 30.06 0 0 1 49.24 34.5l-9.6 13.7a30.06 30.06 0 1 1-49.24-34.48l9.6-13.7z" style="display:block" transform="matrix(.993 -.17228 .17517 .9766 393.97 287.04)"/><path fill="#3D3D3D" d="M-46.5-25.34c20-28.58 37.64-56.46 66.22-36.44l22 15.4A63.19 63.19 0 1 1-30.76 57.14l-22-15.4c-28.59-20.02-13.76-38.5 6.26-67.08z" style="display:block" transform="matrix(.8914 -.46353 .47132 .87667 386.26 197.23)"/><path fill="#FFCBA3" d="M-73.85-51.71a68.54 68.54 0 0 1 95.46-16.83l35.4 24.78A68.55 68.55 0 0 1-21.6 68.54L-57 43.76a68.55 68.55 0 0 1-16.84-95.47z" style="display:block" transform="matrix(.8914 -.46353 .47132 .87667 398.7 239.12)"/><path fill="#FFCBA3" d="M-15.05-8.91c7.33-.78 22.6 4.83 30.1 8.48l-3.93 9.41-21.9-6.57-4.27-11.32z" style="display:block" transform="matrix(.8914 -.46353 .47132 .87667 420.98 285.73)"/><path fill="#FFCBA3" d="M11.04 7.73A13.48 13.48 0 1 1-11.04-7.73 13.48 13.48 0 0 1 11.04 7.73z" style="display:block" transform="matrix(.8914 -.46353 .47132 .87667 487.76 266.13)"/><g style="display:block"><path fill="#FFCBA3" d="M317.3 230.48a13.55 13.55 0 0 1-15.17 11.6 13.42 13.42 0 0 1-11.8-14.92 13.55 13.55 0 0 1 15.17-11.6 13.4 13.4 0 0 1 11.8 14.92z"/><path fill="#C86902" d="M310.45 244.17a7.46 7.46 0 0 1-8.36 6.39 7.4 7.4 0 0 1-6.5-8.22 7.46 7.46 0 0 1 8.36-6.38c4.1.5 7.01 4.18 6.5 8.21z"/></g><g fill="#D6C5B9" style="display:block"><path d="M454.91 183.04a39.83 39.83 0 0 0-4.63 14.24l-2.15 16.84c-2.81 22.14 13.15 42.33 35.67 45.1l3.1.39a67.62 67.62 0 0 0 1.86-9.34c3.55-27.89-10.61-53.94-33.85-67.23z"/><path d="M455.15 183.48a39.83 39.83 0 0 0-4.64 14.24l-2.14 16.83c-2.82 22.15 13.15 42.34 35.67 45.11l3.1.39a67.62 67.62 0 0 0 1.86-9.34c3.54-27.89-10.62-53.94-33.85-67.23zM313.5 208.33a67.98 67.98 0 0 0-2.97 9.06l2.9 1.13c21.07 8.29 44.98-1.8 53.4-22.52l6.4-15.76a39.74 39.74 0 0 0 2.94-14.67c-26.87.59-52.08 16.66-62.68 42.76z"/></g><g fill="#3D3D3D" style="display:block"><path d="M367.35 192.8c1.16-9.08 9.59-15.53 18.84-14.4l64.37 7.93a2.33 2.33 0 0 1 2.05 2.6c-2.15 16.9-17.83 28.9-35.02 26.78l-36.3-4.47a15.94 15.94 0 0 1-14.03-17.73l.1-.7z"/><path d="m450.56 195.57 4.53-12.5-10.97-8.64-45.73-11.1-25.1 12.56 77.27 19.68z"/></g><g style="display:block"><path fill="#3D3D3D" d="M312.81 125.5c5.17-24.76 22.93-38.42 46.2-35.98 23 2.4 40.29 23.13 38.88 46.32l-7.93 76.04-24.74-2.59c-32.31-3.37-56.6-32.43-54.61-65.02 0 0 2.03-18.36 2.2-18.77z"/><path fill="#515151" d="M312.64 126c5.22-25.47 23.36-38.96 46.35-36.49-16 12.54-44.88 41.51-31.94 100.5-8.6-6.4-17.48-28.25-16.43-45.5l2.02-18.52z"/></g><g clip-path="url(#C)" style="display:block" transform="matrix(.8914 -.46353 .47132 .87667 -146.84 231.4)"><path fill="#FFF" d="M-12.04-14.29c4.88-6.97 15.46-7.98 23.63-2.26 8.17 5.72 10.83 16 5.95 22.97l-5.5 7.87c-4.88 6.97-15.46 7.98-23.63 2.26-8.17-5.72-10.83-16-5.95-22.97l5.5-7.87z" style="display:block" transform="translate(441.46 268.01)"/><path fill="#3D3D3D" d="M-5.69-5.82c2.28 1.37 5.1.99 6.44-.93a4.2 4.2 0 0 0 .56-3.5c1.56.1 3.2.66 4.67 1.7 3.62 2.53 4.9 6.93 2.88 9.82l-4.62 6.6c-2.03 2.9-6.6 3.2-10.22.66C-9.6 6-10.88 1.6-8.86-1.29l3.17-4.53z" style="display:block" transform="translate(444.95 273.74)"/><path fill="#FFCBA3" d="M8.9 21.07S2.49 13.93-3.32 7.17c-4.6-5.34-11.46-17.56-11.46-17.56l2.44-2.85 2.87-2.73c4.89-6.97 11.71-3.36 19.88 2.36C18.57-7.9 21.23 2.77 16.35 9.74l-5.5 7.48-1.94 3.85z" style="display:block" transform="translate(444.65 262.07)"/><path fill="none" stroke="#E99B5F" stroke-linecap="round" stroke-miterlimit="10" stroke-width="5" d="M-.5 45.06c-4.89-3.18-21.14-20.43-25.87-36.7" style="display:block" transform="translate(454.14 235.87)"/><path fill="#FFF" d="M-12.04-14.28c4.88-6.97 15.46-7.99 23.63-2.27 8.17 5.72 10.83 16 5.95 22.97l-5.5 7.86c-4.88 6.97-15.46 7.99-23.63 2.27-8.16-5.72-10.83-16-5.95-22.97l5.5-7.86z" style="display:block" transform="translate(478.3 293.81)"/><path fill="#3D3D3D" d="M-5.67-5.83c2.23 1.2 4.9.79 6.2-1.07.7-.98.87-2.19.6-3.36 1.61.07 3.32.64 4.85 1.71C9.6-6 10.88-1.62 8.86 1.28l-4.62 6.6c-2.03 2.9-6.6 3.19-10.22.66C-9.6 6-10.88 1.6-8.86-1.3l3.19-4.54z" style="display:block" transform="translate(471.74 292.49)"/><path fill="#FFCBA3" d="M18.03 6.82c.02-.04 1.05-.56 1.07-.6l1-1.86c4.88-6.97-1.53-12.25-9.7-17.97-8.17-5.72-18.74-4.7-23.62 2.26l-5.5 7.87a5.1 5.1 0 0 0-.07.09S-10.73.88-4.95 4.92c5.77 4.05 22.98 1.9 22.98 1.9z" style="display:block" transform="translate(481.5 287.87)"/><path fill="none" stroke="#E99B5F" stroke-linecap="round" stroke-miterlimit="10" stroke-width="5" d="M-32.68 21.22c14.6 9.4 34.34 9.64 40.99 8.06" style="display:block" transform="translate(494.84 264.14)"/><path fill="#E89665" d="M5.07 5.51A6.7 6.7 0 0 1-6-2.05C-3.92-5.11 4.82-9.33 6.36-8.27 7.9-7.22 7.16 2.45 5.07 5.5z" style="display:block" transform="translate(447.7 297.27)"/><path fill="none" stroke="#E99B5F" stroke-linecap="round" stroke-width="5" d="M-91-223.5c5.25 5 16 .75 16 .75" style="display:block" transform="translate(540 540)"/></g><path fill="#FFB100" d="M-25.77 20.53a16.8 16.8 0 0 1 2.68-23.6L2.16-23.2A16.8 16.8 0 0 1 23.1 3.07L-2.16 23.2a16.8 16.8 0 0 1-23.6-2.67z" style="display:block" transform="matrix(1.0008 .12101 -.12305 .98426 290.24 439.73)"/><path fill="#744007" d="M-36.8-15.81a36.69 36.69 0 1 1 73.37 0l.24 35.3C35.9 37.84 22.02 52.5 3.79 52.5c-18.24 0-29.22-15-33.02-33.02l-7.58-35.3z" style="display:block" transform="matrix(.99295 -.17252 .17542 .97655 282.55 389.63)"/><path fill="#FFB100" d="M-.27 32.94A16.8 16.8 0 0 0 16.66 16.3l.27-32.3a16.8 16.8 0 0 0-33.59-.28l-.27 32.3A16.8 16.8 0 0 0-.27 32.94z" style="display:block" transform="matrix(.99304 -.17204 .17493 .97663 385.03 464.72)"/><path fill="#744007" d="M4.53 37.6c-16.23 8.66-34.8 9.9-46.51-4.08C-53.7 19.56-51.4-.49-37.91-12.99l27.19-22.5a36.69 36.69 0 1 1 47.16 56.2L4.54 37.6z" style="display:block" transform="matrix(.99321 -.17108 .17396 .9768 414.92 422.34)"/><path fill="#FFCBA3" d="M-13.98-8.07a9.32 9.32 0 0 0 3.4 12.73L1.26 11.5a9.32 9.32 0 1 0 9.32-16.15L-1.25-11.5a9.32 9.32 0 0 0-12.73 3.42z" style="display:block" transform="matrix(.99304 -.17204 .17493 .97663 289.22 310.25)"/><path fill="#D52D2D" d="m-23.89-41.5-7.88 17.23L-43.07.41A36.13 36.13 0 0 0-25.6 48.43l3.04 1.42a36.13 36.13 0 0 0 48.01-17.48l8.4-18.32 10.79-23.6C58.4-39.05-10.12-71.02-23.9-41.5z" style="display:block" transform="matrix(.99304 -.17204 .17493 .97663 330.36 479.53)"/><g style="display:block"><path fill="#AFAFAF" d="M299.45 567.38a6.94 6.94 0 0 1-9.06 4.97c-7.2-2.47-12.77-5.98-16.93-10.24a34.05 34.05 0 0 1-9.21-18.07 44.78 44.78 0 0 1 .04-15.25 47.13 47.13 0 0 1 1.48-6.15l.1-.3 46.09-169.07c1.85-6.78-2.39-14.74-8.01-18.5a46.7 46.7 0 0 0-9.39-4.82l-.51-.17-.1-.03h.01a6.77 6.77 0 0 1-4.92-6.3 6.92 6.92 0 0 1 8.94-6.72l-2 6.51 2-6.5h.05l.1.04a22.06 22.06 0 0 1 1.16.39 60.76 60.76 0 0 1 12.43 6.35c7.22 4.82 18.11 16.75 13.6 33.28l-46.15 169.28-6.68-1.76 6.68 1.76-.07.27-.09.24v.02l-.06.17-.26.86a33.65 33.65 0 0 0-.82 14.03c.7 3.85 2.3 7.7 5.55 11 2.46 2.52 6.1 4.98 11.56 6.85a6.78 6.78 0 0 1 4.47 7.86z"/><path fill="#4B4B4B" d="m240.58 296.71 54.18 16.11a9.5 9.5 0 0 1 6.47 11.88 9.71 9.71 0 0 1-12.07 6.36l-54.19-16.12a9.5 9.5 0 0 1-6.47-11.87 9.71 9.71 0 0 1 12.08-6.36z"/></g><path fill="#FFCBA3" d="m9-7.24-13.18-3.53A9.33 9.33 0 0 0-9 7.24l13.18 3.53A9.32 9.32 0 1 0 9-7.24z" style="display:block" transform="matrix(.99304 -.17204 .17493 .97663 445.88 353.36)"/><g style="display:block"><path fill="#AFAFAF" d="M305.92 568.84a6.92 6.92 0 0 1 7.87-4.6c5.68 1.06 10.09.72 13.5-.24a21.06 21.06 0 0 0 10.4-6.8 31.68 31.68 0 0 0 5.35-9.24 33.54 33.54 0 0 0 1.29-4.18l.04-.18v-.01l.05-.26.07-.27 6.68 1.76-6.68-1.76 46.15-169.28c4.5-16.53 20-21.5 28.71-22.13a61.33 61.33 0 0 1 13.99.62l.93.18.28.06.1.02h.04c0 .01.01.01-1.57 6.63l1.58-6.62a6.8 6.8 0 0 1 4.31 10.22 6.92 6.92 0 0 1-7.45 3.03h-.01.01l-.1-.02-.53-.1a47.3 47.3 0 0 0-10.58-.45c-6.78.49-14.5 5.3-16.35 12.08l-46.09 169.06-.06.32-.35 1.4a47.42 47.42 0 0 1-9.22 17.88 34.87 34.87 0 0 1-17.17 11.11c-5.77 1.64-12.37 1.94-19.87.53a6.81 6.81 0 0 1-5.32-8.76z"/><path fill="#4B4B4B" d="M501.24 375.06a9.7 9.7 0 0 1-11.64 7.1l-55.12-12.7a9.52 9.52 0 0 1-7.22-11.46 9.7 9.7 0 0 1 11.65-7.1l55.1 12.72a9.52 9.52 0 0 1 7.23 11.44z"/></g><path fill="#FFCBA3" d="M-21.06 10.64 1.97 23.5a13.65 13.65 0 0 0 18.57-5.25L26.3 7.93a13.65 13.65 0 0 0-5.25-18.57L-1.97-23.5a13.65 13.65 0 0 0-18.57 5.25l-5.77 10.33a13.65 13.65 0 0 0 5.25 18.57z" style="display:block" transform="matrix(.99304 -.17204 .17493 .97663 467.68 364.57)"/><path fill="#4B4B4B" d="m42.4-88.24-2.06-.96A24.51 24.51 0 0 0 7.77-77.34l-62.03 133A24.51 24.51 0 0 0-42.4 88.25l2.06.96A24.5 24.5 0 0 0-7.77 77.34l62.03-133A24.51 24.51 0 0 0 42.4-88.25z" style="display:block" transform="matrix(1.04958 -.18498 .17638 .96799 307.32 560.83)"/><g style="display:block"><path fill="#AFAFAF" d="M276.94 565.24a34.05 34.05 0 0 1-12.7-21.2 44.78 44.78 0 0 1 .05-15.25 47.13 47.13 0 0 1 1.48-6.15l.1-.3 46.09-169.07c1.85-6.78-2.39-14.74-8.01-18.5a46.7 46.7 0 0 0-9.39-4.82l-.51-.17-.1-.03h.01a6.77 6.77 0 0 1-4.92-6.3 6.92 6.92 0 0 1 8.94-6.72l-2 6.51 2-6.5h.05l.1.04a22.06 22.06 0 0 1 1.16.39 60.76 60.76 0 0 1 12.43 6.35c7.22 4.82 18.11 16.75 13.6 33.28l-46.15 169.28-6.68-1.76 6.68 1.76-.07.27-.09.24v.02l-.06.17-.26.86a33.65 33.65 0 0 0-.82 14.03 20.95 20.95 0 0 0 3.46 8.5c.6.86-3.97 15.4-4.39 15.07z"/><path fill="#4B4B4B" d="m240.58 296.71 54.18 16.11a9.5 9.5 0 0 1 6.47 11.88 9.71 9.71 0 0 1-12.07 6.36l-54.19-16.12a9.5 9.5 0 0 1-6.47-11.87 9.71 9.71 0 0 1 12.08-6.36z"/></g><path fill="#FFCBA3" d="m23.94 13.5 3.45-11.3a13.65 13.65 0 0 0-9.06-17.05L-6.9-22.56a13.65 13.65 0 0 0-17.04 9.06l-3.45 11.3a13.65 13.65 0 0 0 9.06 17.05L6.9 22.56a13.65 13.65 0 0 0 17.04-9.06z" style="display:block" transform="matrix(.99304 -.17204 .17493 .97663 264.65 311.35)"/><g style="display:block"><path fill="#FF4B4B" d="m298 423.77-4.81 18.92-6.9 27.1c-5.2 19.89 7.15 40.16 27.6 45.27l3.44.86c20.45 5.12 41.26-6.85 46.47-26.74l5.12-20.12 6.58-25.9c8.5-32.45-69-51.84-77.5-19.39zm58.36-90.57c-17.57.44-49.41 8.42-51.94 53.04 67.46 6.93 96.8 3.24 96.8 3.24s.51-52.31-44.86-56.29z"/><path fill="#FF4B4B" d="M356.59 352.6c26.67 2.73 46.74 19.81 44.8 38.11-1.94 18.3-25.17 30.94-51.84 28.2-26.67-2.73-46.75-19.82-44.8-38.12 1.94-18.3 25.17-30.93 51.84-28.2z"/><path fill="#DDF4FF" d="M386.58 394.48c-4.24 13.16-22.8 19.2-41.46 13.48-18.67-5.72-30.37-21.03-26.13-34.2 4.23-13.16 22.8-19.2 41.46-13.47 18.66 5.72 30.36 21.02 26.13 34.19z"/></g></g></g></g></g></svg>