<svg xmlns="http://www.w3.org/2000/svg" width="329" height="407" fill="none"><path fill="#AFAFAF" fill-rule="evenodd" d="M314.809 387.054H100.267c-5.246 0-9.704 4.181-9.704 9.668a9.664 9.664 0 0 0 9.704 9.668h214.542c5.246 0 9.704-4.18 9.704-9.668 0-5.487-4.458-9.668-9.704-9.668Z" clip-rule="evenodd" opacity=".3"/><path fill="#F49000" fill-rule="evenodd" d="M201.241 371.115c0-8.623-7.081-15.939-15.999-15.939h-25.44c-8.656 0-15.999 7.055-15.999 15.939 0 8.623 7.081 15.939 15.999 15.939h25.44c8.918 0 15.999-7.055 15.999-15.939ZM287.268 378.17c3.934-7.839.786-17.245-6.82-21.165l-15.474-7.839c-7.868-3.919-17.31-.784-21.244 6.794-3.935 7.839-.787 17.246 6.819 21.165l15.474 7.839c7.868 4.181 17.31 1.045 21.245-6.794Z" clip-rule="evenodd"/><path fill="#F49000" fill-rule="evenodd" d="M297.497 371.376c0-8.622-7.082-15.678-15.737-15.678h-4.983c-8.655 0-15.737 7.056-15.737 15.678 0 8.623 7.082 15.678 15.737 15.678h4.983c8.655 0 15.737-7.055 15.737-15.678Z" clip-rule="evenodd"/><path fill="#58CC02" d="m167.672 198.92 96.78-189.18c5.245-10.19 18.884-12.28 27.014-4.18 38.817 38.672 48.521 98.77 23.081 148.678-25.441 49.908-80.257 77.344-134.548 68.721-11.278-1.829-17.573-13.848-12.327-24.039ZM16.6 338.192l41.963-196.496c2.36-10.452 14.163-15.678 23.605-10.452 45.112 25.868 68.717 78.389 57.701 130.126-11.015 51.737-54.553 90.671-106.222 95.896-10.753 1.046-19.408-8.361-17.048-19.074Z"/><path fill="#58CC02" fill-rule="evenodd" d="M157.181 41.096c-22.819 26.13-39.604 41.808-50.358 47.034-10.49 5.226-33.046 8.623-67.142 10.19C17.125 99.366-.185 118.702.864 141.434c.262 5.488 1.573 10.975 4.196 15.94l55.603 113.403c29.637 60.621 103.074 85.705 164.185 56.179 60.848-29.527 86.027-102.429 56.389-162.789v-.261L225.11 49.98c-9.966-20.38-34.62-28.742-55.078-18.813-4.721 2.352-9.18 5.748-12.851 9.93Z" clip-rule="evenodd"/><path fill="#89E219" d="M227.469 233.934c-.262-1.568-1.836-2.352-3.41-1.829l-27.539 13.326c-1.573.784-1.836 2.613-.786 3.658 5.507 5.487 13.9 6.794 21.244 3.397 7.344-3.397 11.54-10.975 10.491-18.552Zm-51.406 22.21-27.539 13.326c-1.574.784-1.836 2.613-.787 3.658 5.508 5.488 13.901 6.794 21.244 3.397 7.344-3.658 11.54-11.235 10.491-18.813-.262-1.307-2.098-2.09-3.409-1.568Zm35.669 11.497-27.539 13.326c-1.573.784-1.836 2.613-.786 3.659 5.507 5.487 13.9 6.793 21.244 3.396 7.344-3.658 11.54-11.235 10.491-18.813-.262-1.306-2.098-2.352-3.41-1.568ZM153.77 66.704l-15.474 51.998c-.787 2.874 1.311 5.487 4.196 5.487 13.901-.523 25.965-9.929 29.9-23.517 3.934-13.587-1.312-28.22-12.852-35.797-2.36-1.568-4.983-.784-5.77 1.829Z"/><path fill="#89E219" fill-rule="evenodd" d="M141.444 107.989c-4.983 17.506-25.179 27.436-41.964 20.381 13.9 28.481 34.62 70.55 34.62 70.55 0-.261 13.901-7.055 42.227-20.381-10.229-20.904-22.032-44.421-34.883-70.55Z" clip-rule="evenodd"/><path fill="#89E219" d="m174.227 67.226-14.95 51.476c-.787 2.874 1.311 5.487 4.196 5.487 13.901-.523 25.966-9.929 29.9-23.517 3.934-13.587-1.311-27.959-12.852-35.798-2.36-1.829-5.507-.522-6.294 2.352ZM60.661 112.692l50.357 20.642c2.623 1.046 3.41 4.442 1.574 6.794-9.18 10.452-24.13 13.849-37.243 8.362-13.114-5.488-20.982-18.814-19.67-32.401 0-3.136 2.36-4.442 4.982-3.397Z"/><path fill="#89E219" d="m48.598 127.847 49.57 20.904c2.623 1.045 3.41 4.442 1.574 6.794-9.18 10.452-24.13 13.849-37.244 8.361-13.114-5.487-20.982-18.813-19.67-32.401 0-3.135 3.147-4.703 5.77-3.658Z"/><path fill="#89E219" fill-rule="evenodd" d="m167.932 80.03-3.41 1.567c-22.818 10.975-32.26 38.15-20.982 60.883l14.688 29.788c11.015 22.471 38.292 31.878 61.11 20.904l3.41-1.568c22.818-10.975 32.26-38.15 20.982-60.883l-14.688-29.788c-11.015-22.471-38.292-31.878-61.11-20.903ZM61.186 130.722l-3.41 1.567c-22.818 10.975-32.26 38.15-20.982 60.883l14.688 29.788c11.015 22.471 38.292 31.878 61.11 20.903l3.147-1.567c22.556-10.975 31.998-38.15 21.245-60.621l-14.425-30.05c-11.016-22.471-38.293-31.878-61.373-20.903 0 0 .262 0 0 0Z" clip-rule="evenodd"/><path fill="#fff" fill-rule="evenodd" d="M69.317 147.444c-16.785 8.101-23.604 28.221-15.474 44.682l8.917 18.03c8.131 16.723 28.326 23.517 45.112 15.416 16.786-8.1 23.605-28.22 15.474-44.681l-8.917-18.03c-8.393-16.462-28.588-23.517-45.112-15.417Z" clip-rule="evenodd"/><path fill="#4B4B4B" fill-rule="evenodd" d="M82.693 161.816c-7.869 3.919-11.016 13.326-7.344 21.165l7.606 15.416c3.934 7.839 13.376 10.975 21.244 7.317 7.869-3.92 11.016-13.326 7.344-21.165l-7.606-15.417c-3.672-8.1-13.114-11.236-21.244-7.316Z" clip-rule="evenodd"/><path fill="#fff" d="M75.612 182.458c5.504 0 9.967-4.445 9.967-9.929s-4.463-9.929-9.967-9.929c-5.504 0-9.966 4.445-9.966 9.929s4.462 9.929 9.966 9.929Z"/><path fill="#fff" fill-rule="evenodd" d="M176.852 94.923c-16.786 8.101-23.605 28.221-15.475 44.682l8.918 18.03c8.13 16.723 28.326 23.517 45.111 15.416 16.786-8.1 23.605-28.22 15.475-44.681l-8.918-18.03c-8.13-16.723-28.326-23.517-45.111-15.417Z" clip-rule="evenodd"/><path fill="#4B4B4B" fill-rule="evenodd" d="M180.785 114.782c-7.868 3.92-11.015 13.326-7.343 21.165l7.606 15.417c3.934 7.839 13.376 10.974 21.244 7.316 7.868-3.919 11.016-13.326 7.344-21.165l-7.606-15.417c-3.672-7.838-13.114-10.974-21.245-7.316Z" clip-rule="evenodd"/><path fill="#fff" d="M173.178 136.47c5.505 0 9.967-4.446 9.967-9.929 0-5.484-4.462-9.93-9.967-9.93-5.504 0-9.966 4.446-9.966 9.93 0 5.483 4.462 9.929 9.966 9.929Z"/><path fill="#F49000" d="M146.934 175.284c7.916-4.57 18.055-1.879 22.738 5.921l.077.133 13.798 23.9c4.549 7.878 1.886 18.138-6.163 22.786-7.916 4.569-18.189 1.956-22.815-6.055l-13.798-23.9c-4.414-7.955-1.675-18.082 6.163-22.785Z"/><path fill="#B66E28" d="M150.172 180.892c6.171-3.563 13.988-1.489 17.534 4.653l9.173 15.889c3.546 6.142 1.434 13.948-4.737 17.511-6.171 3.563-13.853 1.411-17.533-4.654l-9.174-15.888c-3.469-6.009-1.357-13.815 4.737-17.511Z"/><path fill="#FFC200" d="m156.647 192.108 17.468-14.358c.326-.366.44-.788.075-1.111-8.2-9.864-23.038-11.089-32.883-2.735-7.469 6.271-10.266 16.609-6.962 25.739.231.401.731.646.999.492l21.303-8.027Z"/><path fill="#FFDE00" d="M154.367 177.936c-.268.155-.537.31-.882.331a15.427 15.427 0 0 0-7.245 4.183c-1.378 1.33-3.471 1.113-4.798-.256-1.116-1.314-1.159-3.248-.049-4.423 2.948-2.948 6.571-5.04 10.464-6.041 1.841-.529 3.648.742 4.094 2.443.291 1.434-.242 2.988-1.584 3.763Z"/></svg>