<svg xmlns="http://www.w3.org/2000/svg" xmlns:xlink="http://www.w3.org/1999/xlink" width="1080" height="1080" style="width:100%;height:100%;transform:translate3d(0,0,0);content-visibility:visible"><defs><clipPath id="i"><path d="M0 0h1080v1080H0z"/></clipPath><clipPath id="n"><path d="M0 0h1080v1080H0z"/></clipPath><clipPath id="A"><path d="M0 0h1380v1380H0z"/></clipPath><clipPath id="e"><path d="M0 0h1380v1380H0z"/></clipPath><clipPath id="f"><path d="M0 0h1380v1380H0z"/></clipPath><clipPath id="B"><path d="M0 0h1380v1380H0z"/></clipPath><clipPath id="s"><path d="M0 0h1380v1380H0z"/></clipPath><clipPath id="x"><path d="M0 0h1380v1380H0z"/></clipPath><clipPath id="z"><path d="M0 0h1380v1380H0z"/></clipPath><clipPath id="y"><path d="M0 0h1380v1380H0z"/></clipPath><clipPath id="w"><path d="M0 0h1380v1380H0z"/></clipPath><clipPath id="v"><path d="M0 0h1380v1380H0z"/></clipPath><clipPath id="u"><path d="M0 0h1380v1380H0z"/></clipPath><clipPath id="t"><path d="M0 0h1380v1380H0z"/></clipPath><clipPath id="o"><path d="M0 0h1300v1300H0z"/></clipPath><clipPath id="r"><path d="M0 0h1180v1180H0z"/></clipPath><clipPath id="q"><path d="M0 0h1180v1180H0z"/></clipPath><clipPath id="p"><path d="M0 0h1180v1180H0z"/></clipPath><clipPath id="j"><path d="M0 0h1080v1080H0z"/></clipPath><clipPath id="g"><path d="M0 0h1080v1080H0z"/></clipPath><clipPath id="h"><path d="M0 0h1080v1080H0z"/></clipPath><clipPath id="k"><path d="M0 0h1080v1080H0z"/></clipPath><mask id="D" mask-type="alpha"><use xlink:href="#a"/></mask><mask id="C" mask-type="alpha"><use xlink:href="#b"/></mask><mask id="m" mask-type="alpha"><use xlink:href="#c"/></mask><mask id="l" mask-type="alpha"><use xlink:href="#d"/></mask><g id="a" clip-path="url(#e)" style="display:block"><path fill="#A41414" d="M-113.86-282.52c4.24-6.12 11.9-7.83 17.9-4.6 2.41.8 4.46 1.75 6.3 2.28 1.51.44 4.12.78 7.48.62 6.48-.72 13.36 4.53 14.78 11.76 1.44 7.42-4.03 14.6-11.23 16.28-15.39 3.53-25.4-2.16-31.7-6.81-6.05-4.48-7.77-13.4-3.53-19.53z" style="display:block" transform="rotate(4 -8723.07 10268.47) scale(.98467)"/></g><g id="b" clip-path="url(#f)" style="display:block"><path fill="#A41414" d="M-113.86-282.52c4.24-6.12 11.9-7.83 17.9-4.6 2.41.8 4.46 1.75 6.3 2.28 1.51.44 4.12.78 7.48.62 6.48-.72 13.36 4.53 14.78 11.76 1.44 7.42-4.03 14.6-11.23 16.28-15.39 3.53-25.4-2.16-31.7-6.81-6.05-4.48-7.77-13.4-3.53-19.53z" style="display:block" transform="rotate(4 -8723.07 10268.47) scale(.98467)"/></g><g id="c" clip-path="url(#g)" style="display:block" transform="rotate(-51.14 -79.87 1410.04) scale(3.3321)"><path fill="#58CC02" d="M-60.19-15.56C-62.44-41.7-57.92-57.78-43.4-61.1c6.46-1.48 13.81.2 18.98 2.5 3.9 1.73 11.14 2.36 18 .75 8.97-2.11 15.39-6.1 21.92-7.95 12.85-3.64 30.58 3.47 31.91 26.4 0 0-3.04 43.32-8.92 61.48C28.12 54.05-1 69.14-26.44 61.25c-22.88-7.1-40.4-30.02-32.83-52.53 1.67-4.95-.92-24.28-.92-24.28z" style="display:block" transform="rotate(63.61 -113.28 561.43) scale(.6)"/></g><g id="d" clip-path="url(#h)" style="display:block" transform="rotate(-51.14 -79.87 1410.04) scale(3.3321)"><path fill="#58CC02" d="M-60.19-15.56C-62.44-41.7-57.92-57.78-43.4-61.1c6.46-1.48 13.81.2 18.98 2.5 3.9 1.73 11.14 2.36 18 .75 8.97-2.11 15.39-6.1 21.92-7.95 12.85-3.64 30.58 3.47 31.91 26.4 0 0-3.04 43.32-8.92 61.48C28.12 54.05-1 69.14-26.44 61.25c-22.88-7.1-40.4-30.02-32.83-52.53 1.67-4.95-.92-24.28-.92-24.28z" style="display:block" transform="rotate(63.61 -113.28 561.43) scale(.6)"/></g></defs><g clip-path="url(#i)"><g clip-path="url(#j)" style="display:block"><path fill="none" stroke="#FF8D00" stroke-linecap="round" stroke-linejoin="round" stroke-width="30" d="M161 2s.28 2.08 0 21.5" style="display:block" transform="rotate(83.01 280.67 530.35) scale(.99963)"/><path fill="none" stroke="#FF8D00" stroke-linecap="round" stroke-linejoin="round" stroke-width="30" d="M161 2s.28 2.08 0 21.5" style="display:block" transform="rotate(86.14 285.33 443.02) scale(.99963)"/><path fill="#3DBE01" d="M13.3-40.2s-.4 17.48 2.54 41.68C18.62 24.4 27.28 36.2 27.28 36.2a6.25 6.25 0 0 1-6.06 8.13C.74 44-19.12 25.95-22.06 5c-2.93-20.94 7.88-41.1 26.36-50.04a6.32 6.32 0 0 1 9 4.84z" style="display:block" transform="matrix(1.36459 -1.5983 -1.52047 -1.29814 780.3 122)"/><path fill="#58CC02" d="M-3.34-39.79s-.2.34-.37.4C-4.2-38.14-8.33-26.5-14.4-3.55c-4.75 17.49-14.28 31.07-14.43 31.96a6.19 6.19 0 0 0 4.6 9c18.1 3.41 40.05-9.99 46.4-29.1 6.86-19.84-.88-37.69-15.97-50.46a6.09 6.09 0 0 0-9.55 2.35z" style="display:block" transform="matrix(.67645 1.88134 1.88134 -.67645 977.98 146.61)"/><g clip-path="url(#k)" style="display:block" transform="rotate(-51.14 -79.87 1410.04) scale(3.3321)"><path fill="#58CC02" d="M-60.19-15.56C-62.44-41.7-57.92-57.78-43.4-61.1c6.46-1.48 13.81.2 18.98 2.5 3.9 1.73 11.14 2.36 18 .75 8.97-2.11 15.39-6.1 21.92-7.95 12.85-3.64 30.58 3.47 31.91 26.4 0 0-3.04 43.32-8.92 61.48C28.12 54.05-1 69.14-26.44 61.25c-22.88-7.1-40.4-30.02-32.83-52.53 1.67-4.95-.92-24.28-.92-24.28z" style="display:block" transform="rotate(63.61 -113.28 561.43) scale(.6)"/></g><g fill="#89E219" mask="url(#l)" style="display:block"><path d="M858.34 106.93c-13.97 9.08-34.1 4.63-44.24-9.78-10.15-14.4-13.03 67.99-12.98 67.78.02-.1 6.82 1.38 20.4 4.42l19.66 4.44c20.76-50.62 26.48-72.91 17.16-66.86z"/><path d="M893.55 85.36s-12.96 5.92-20.69 10.73c-7.64 4.77-18.57 13.7-18.57 13.7-2 1.44-2 4.4 0 5.85a27.86 27.86 0 0 0 32.6-.17c9.85-7.12 15.9-17.1 12.24-28.31a3.63 3.63 0 0 0-5.58-1.8z"/><path d="m907.99 95.17-35.06 25.36a3.39 3.39 0 0 0 0 5.5 26.21 26.21 0 0 0 30.67-.16 25.97 25.97 0 0 0 9.64-29 3.41 3.41 0 0 0-5.25-1.7z"/><path d="M923 152.26a42.7 42.7 0 0 0-83.38-18.43l-4.54 20.54a42.7 42.7 0 0 0 83.39 18.43l4.54-20.54zm-160.2-50.58a153 153 0 0 0-4 10.52 63.62 63.62 0 0 0-.88 3.56l-4.55 20.55c-5.09 23.02 2.77 44.33 20.8 48.32 18.04 3.99 36.79-11.44 41.88-34.47l4.54-20.54c5.1-23.03-5.4-44.92-23.44-48.9-14.05-3.12-26.94 5.92-34.35 20.96z"/><path d="M820.14 67.87c-.68 3.07-7.36 38.05 13.23 42.6l-14.75 20.8-17.91-44.46-13.15 2c-3.28.94-9.05 1.65-8.07-3.56 1.9-10.12 11.87-16.75 15.48-15.95 1.87.41 1.74.97-1.22 10.88 7-12.37 14.63-14.8 18.28-16.33 4.58-1.93 9.49-2.21 8.1 4.02z"/><path d="M834.15 110.78c18.8 4.15 34.23-14.94 53.61-22.64l-7.92 14.91-22.24 15.8-19.18 8.72c-5.94-6.6-15.12-19.2-4.27-16.8z"/></g><path fill="#FFF" d="M-14.21-4.4c0-7.42 6.27-13.44 14.02-13.44 7.74 0 14.02 6.02 14.02 13.45v7.56c0 7.42-6.28 13.44-14.02 13.44-7.75 0-14.02-6.02-14.02-13.44V-4.4z" style="display:block" transform="matrix(-1.9521 -.4317 -.4317 1.9521 878.22 152.84)"/><path fill="#4B4B4B" d="M-6.96-2.01a5.57 5.57 0 0 0 4.83-8.34 6.95 6.95 0 0 1 9.1 6.64V3.7a6.96 6.96 0 0 1-13.93 0V-2z" style="display:block" transform="scale(-1.99926 1.99926) rotate(-9.47 253.84 2672.58)"/><path fill="#89E219" d="M865.13 108.6c-10.3 7.14-9.58 7.48-13.78 26.06 3.98-12.2 17.86-24.59 35.52-19.3 18.61 5.57 25.57 20.45 22.58 34.87 4.27-10.5 5.8-19.57-1.87-29.81-6.98-9.33-38.4-14.61-42.45-11.81zm33.3 76.67c.92-6.68-12.68 11.69-32.06 5.36-17.46-5.7-18.58-24.7-22.5-18.08-1.92 5.43-2.66 3.63 4.6 12.55 7.36 9.05 32.5 18.27 45.47 9.37 7.62-5.22 14.8-16.32 4.5-9.2z" style="display:block"/><path fill="#FFF" d="M-11.4-4.18c0-8.2 5.1-14.85 11.4-14.85 6.3 0 11.4 6.65 11.4 14.85v8.36c0 8.2-5.1 14.85-11.4 14.85-6.3 0-11.4-6.65-11.4-14.85v-8.36z" style="display:block" transform="scale(-1.9993 1.9993) rotate(-12.47 106.8 1834.14)"/><path fill="#4B4B4B" d="M-5.5-2.01c2.43 0 4.4-2.5 4.4-5.57 0-1-.21-1.95-.58-2.77.53-.21 1.1-.33 1.68-.33 3.04 0 5.5 3.12 5.5 6.97V3.7c0 3.85-2.46 6.97-5.5 6.97S-5.5 7.56-5.5 3.7V-2z" style="display:block" transform="scale(-1.9993 1.9993) rotate(-12.47 118.4 1840.71)"/><path fill="#89E219" d="M777.16 88.25c-10.3 7.13-9.57 7.47-13.78 26.05 3.98-12.21 17.86-24.6 35.52-19.3 18.62 5.56 25.57 20.45 22.58 34.86 4.27-10.5 5.8-19.57-1.87-29.8-6.98-9.33-38.4-14.61-42.45-11.81zm26.9 71.96c.92-6.68-9.14 14.88-25.66 10.06-15.27-4.46-16.02-12.69-18.22-19.66-1.93 5.44-6.94 5.2.32 14.12 7.37 9.06 27.7 14.73 40.67 5.83 7.63-5.23 13.2-17.47 2.89-10.35z" style="display:block"/><path fill="#F49000" d="M81.12 51.57a6.69 6.69 0 0 0-7.49 6.3l-.13 2.19a7.67 7.67 0 0 0 6.62 7.96h.03a6.87 6.87 0 0 0 7.73-6.18l.22-2.35a7.23 7.23 0 0 0-6.37-7.85l-.61-.07z" style="display:block" transform="matrix(-1.95213 -.43154 -.43154 1.95213 1005 87.06)"/><path fill="#B16900" d="M82.26 51.8c-2.93-.23-5.55 1.64-5.86 4.19-.32 2.55 1.91 4.82 4.97 5.07 3.06.25 5.68-1.62 5.86-4.18.18-2.56-2.05-4.83-4.97-5.07z" style="display:block" transform="matrix(-1.95213 -.43154 -.43154 1.95213 1005 87.06)"/><path fill="#FFB8D1" d="M75.73 65.28c-.08-.07-.7 3.83 1.06 5.98 2.14 2.62 6.04 1.43 6.04 1.43s.99-2.8-1.47-5.95c-1.95-2.5-5.55-1.38-5.63-1.46z" style="display:block" transform="matrix(-1.95213 -.43154 -.43154 1.95213 1007.5 63.45)"/><path fill="#FFC200" d="M10.37 2.9a.6.6 0 0 1-.38.69L5.54 5.26-9.84 3.48a.6.6 0 0 1-.51-.73 10.68 10.68 0 0 1 20.72.14z" style="display:block" transform="matrix(-1.9521 -.4317 -.4317 1.9521 822.76 163.08)"/><path fill="#FFDE00" d="M.04 1.29a5.9 5.9 0 0 0-1.4.17h-.02l-.01.01a1.55 1.55 0 0 1-1.23-2.84c.34-.14.73-.24 1.11-.31a8.97 8.97 0 0 1 2.92-.02c.37.07.76.16 1.13.3A1.55 1.55 0 0 1 1.5 1.5a5.43 5.43 0 0 0-1.46-.22z" style="display:block" transform="matrix(-1.9521 -.4317 -.4317 1.9521 824.1 158.47)"/><g mask="url(#m)" style="display:block"><path fill="#8EE000" d="m842.44 237.11-25.38-8.57c-1.36-.46-2.72.37-2.67 1.63.2 6.07 4.82 11.78 11.52 14.04 6.7 2.27 13.83.53 17.66-4.18.8-.98.22-2.46-1.13-2.92zm-44.31-14.91-25.38-8.57c-1.36-.46-2.71.36-2.67 1.62.21 6.05 4.84 11.74 11.54 14 6.7 2.27 13.83.54 17.65-4.15.8-.97.22-2.44-1.14-2.9zm14.97 28.74-25.37-8.57c-1.36-.46-2.73.4-2.7 1.68.17 6.2 4.76 11.98 11.47 14.25 6.7 2.26 13.85.44 17.73-4.4.8-1 .24-2.5-1.12-2.96z"/></g></g><g clip-path="url(#n)" style="display:block" transform="matrix(.95 0 0 .95 5 51)"><g clip-path="url(#o)" style="display:block" transform="matrix(.85 0 0 .85 -36.5 7.5)"><g clip-path="url(#p)" style="display:block" transform="translate(60 60)"><path fill="#58CC02" d="M-260-88c-4.49 1.86-6.96 8.01-8.7 15.5-1.74 7.48-2.74 16.3-4.3 23.5-1.66 7.7-3.98 15.62-4.97 22.41-.99 6.8-.66 12.45 2.97 15.59 2.4 2.07 8.22 2.9 14.78 3.3 6.56.39 13.87.35 19.22.7 14.7.95 25.6 1.49 36.5 2.01 10.9.53 21.8 1.06 36.5 1.99 5.2.33 12.75 1.37 19.6 1.81 6.85.44 13 .27 15.4-1.81 2.54-2.2 4.11-9.31 5.26-17.19 1.16-7.88 1.88-16.52 2.74-21.81.92-5.7 3.1-13.7 3.96-21.17.87-7.45.4-14.36-3.96-17.83-4.72-3.76-23.5-2.61-32-3-35.3-1.6-70.55-7.3-102-5-1.04.08-.57.82-1 1z" style="display:block" transform="translate(590.5 591)"/><g style="display:block"><path fill="#FFF" d="M331 504c-4.16 2.02-6.13 7.23-7.45 13.7-1.32 6.48-1.99 14.22-3.55 21.3-1.17 5.28-3.23 12.48-4.72 18.76-1.5 6.28-2.41 11.64-1.28 13.24 1.47 2.08 7.34 2.91 14.04 3.31 6.7.4 14.2.37 18.96.69 14.71 1 25.32 1.54 35.82 2.06S403.7 578.07 418 579c5.83.38 13.57 1.37 20.35 1.9 6.79.52 12.62.58 14.65-.9 4.49-3.27 5.5-24.83 7-34 1.29-7.88 8.82-29.24 4-35-2.88-3.45-24.59-2.57-32-3-34.18-2-70.5-7.17-100-5-1.09.08-.51.76-1 1z"/><path fill="none" stroke="#89E219" stroke-linejoin="round" stroke-width="9" d="M331 504c-4.16 2.02-6.13 7.23-7.45 13.7-1.32 6.48-1.99 14.22-3.55 21.3-1.17 5.28-3.23 12.48-4.72 18.76-1.5 6.28-2.41 11.64-1.28 13.24 1.47 2.08 7.34 2.91 14.04 3.31 6.7.4 14.2.37 18.96.69 14.71 1 25.32 1.54 35.82 2.06S403.7 578.07 418 579c5.83.38 13.57 1.37 20.35 1.9 6.79.52 12.62.58 14.65-.9 4.49-3.27 5.5-24.83 7-34 1.29-7.88 8.82-29.24 4-35-2.88-3.45-24.59-2.57-32-3-34.18-2-70.5-7.17-100-5-1.09.08-.51.76-1 1z"/></g><path fill="#89E219" d="M-255-78c-1.29.92-2.54 5.06-3.71 10.14C-259.9-62.77-261-56.73-262-52c-.45 2.1-1.87 8.38-3.1 14.24-1.22 5.87-2.25 11.32-1.9 11.76-.15-.19 1.96.66 4.55 1.25 2.6.6 5.67.94 7.45-.25.14-.1 2.29-9.57 3-13 1.88-9.02 9.01-38.15 7-40-1.85-1.7-8.08-1.37-10 0z" style="display:block" transform="translate(590 590)"/><path fill="#FF9600" d="M-209-70c-.87.08-1.92-.07-3.1-.16a13.7 13.7 0 0 0-3.9.16c-14.78 3.04-21.18 15.33-19.57 26.21C-233.95-32.9-224.3-23.42-207-26c5-.75 14-5.05 21.76-9.64C-177.5-40.24-171-45.11-171-47c0-3.07-2.52-3.84-5.16-4.83-2.63-1-5.37-2.21-5.84-6.17-.23-1.93 1.81-3.04 3.38-4.36 1.58-1.32 2.7-2.85.62-5.64-1.28-1.72-7.74-2.33-14.52-2.46-6.78-.13-13.9.24-16.48.46z" style="display:block" transform="translate(590 590)"/><path fill="#FFC800" d="M-218-57a15.49 15.49 0 0 0-5.63 2.65 8.8 8.8 0 0 0-2.76 3.56A8.55 8.55 0 0 0-227-47c.4 6.75 7 8.45 13.58 7.49 6.57-.96 13.12-4.59 13.42-8.49.26-3.26-3.23-5.79-7.28-7.36-4.06-1.57-8.69-2.19-10.72-1.64z" style="display:block" transform="translate(590 590)"/><path fill="#E1E1E1" d="M-139-72c-.94.42-2.23 3.7-3.56 8.42a199.99 199.99 0 0 0-3.87 17.03 170.95 170.95 0 0 0-2.4 17.05c-.35 4.74-.18 8.05.83 8.5 2.88 1.3 4.78-.12 6.1-2.92 1.3-2.81 2.02-7.01 2.54-11.3.52-4.28.85-8.64 1.36-11.78.92-5.65 2.81-12.85 3.4-18.16.59-5.31-.12-8.74-4.4-6.84z" style="display:block" transform="translate(590 590)"/><path fill="#81DE3A" d="M-139-72c-1.1.49-2.68 4.4-4.12 9.49a103.67 103.67 0 0 0-3.24 16.5c-.52 5.18-.27 9.26 1.36 10.01 3.16 1.45 4.83-.78 5.88-4.38 1.04-3.6 1.46-8.58 2.12-12.62.69-4.21 2.21-9.86 2.55-14 .34-4.15-.5-6.8-4.55-5z" style="display:block" transform="translate(590 590)"/></g><g clip-path="url(#q)" style="display:block" transform="translate(60 60)"><path fill="#58CC02" d="M-7-75c-.33.01-.66 0-1-.02A5.81 5.81 0 0 0-9-75c-13.61 1.8-27.26 6.12-40.81 11.08C-63.36-58.97-76.81-53.37-90-49a8245.92 8245.92 0 0 1-80.13 26.07A22784 22784 0 0 1-252 3c-9.01 2.84-25.88 6.97-41.06 12.7-15.18 5.74-28.67 13.07-30.94 22.3-3.04 12.38 6.94 33.2 11 48 5.46 19.92 8.42 31.26 13 48 6.53 23.85 12.8 78.9 37 85 11.44 2.88 31.2-5.6 44-10 86.94-29.87 165-57.46 253-87 13.06-4.38 34.04-10.13 38-19 9.24-20.68-9.27-49.33-15-63-9.6-22.9-22.28-53.45-32-76-7.53-17.47-11.84-39.83-32-39z" style="display:block" transform="translate(590.5 591)"/><g style="display:block"><path fill="#FFF" d="M579 521c-.31.04-.66 0-1-.04-.36-.03-.7-.05-1 .04-45.02 13.62-90.23 28.22-135.58 43.24C396.07 579.26 350.58 594.7 305 610c-6.35 2.13-14.09 4.24-20.5 7.14-6.4 2.9-11.49 6.58-12.5 11.86-2.03 10.56 6.72 31.18 10 43 8.37 30.17 14 51 23 83 3.23 11.46 6.66 33.4 16 37 10.92 4.2 31.93-5.9 44-10 85.25-28.98 166.8-56.96 252-87 11.16-3.93 35.84-7.2 39-18 3.4-11.63-8.47-31.12-13-42-10.56-25.37-21.9-50.78-33-77-7.5-17.72-10.74-39.76-31-37z"/><path fill="none" stroke="#89E219" stroke-linejoin="round" stroke-width="9" d="M579 521c-.31.04-.66 0-1-.04-.36-.03-.7-.05-1 .04-45.02 13.62-90.23 28.22-135.58 43.24C396.07 579.26 350.58 594.7 305 610c-6.35 2.13-14.09 4.24-20.5 7.14-6.4 2.9-11.49 6.58-12.5 11.86-2.03 10.56 6.72 31.18 10 43 8.37 30.17 14 51 23 83 3.23 11.46 6.66 33.4 16 37 10.92 4.2 31.93-5.9 44-10 85.25-28.98 166.8-56.96 252-87 11.16-3.93 35.84-7.2 39-18 3.4-11.63-8.47-31.12-13-42-10.56-25.37-21.9-50.78-33-77-7.5-17.72-10.74-39.76-31-37z"/></g><path fill="#89E219" d="M-275 37c-3.91.27-17.3 3.6-19 9-2.23 7.04 4.72 22.6 8 34 6.98 24.23 11.8 39.15 19 65 2.82 10.13 6.24 29.18 12 31 4.5 1.42 22.75-4.53 25-11 2-5.75-5.1-22.4-8-32-6.09-20.11-13.15-46.45-19-66-1.84-6.15-6.63-29.25-12-31-3.2-1.04-5.7.98-6 1z" style="display:block" transform="translate(590 590)"/><path fill="#FF9600" d="M-111-1c-4.6.55-9.26 2.17-14.07 4.1-4.8 1.92-9.76 4.14-14.93 5.9-11.08 3.77-22.32 7-32.42 10.93-10.1 3.93-19.06 8.55-25.58 15.07-18.17 18.17-21.2 42.4-12.68 61.85 8.53 19.44 28.61 34.11 56.68 33.15 37.93-1.3 55.34-28.67 72-54 3.9-5.94 21.92-27.84 20-37-1.57-7.51-10.08-7.15-18-9-4.97-1.17-20.29-2.94-22-6-2.35-4.2 9.26-13.98 3-23-2.76-3.98-7.02-2.6-12-2z" style="display:block" transform="translate(590 590)"/><path fill="#FFC800" d="M-167 51c-7.62 1.4-12.91 4.42-16.53 7.96A24.08 24.08 0 0 0-190 70c-3.93 14.87 3.53 24.63 14.24 28.43 10.71 3.79 24.68 1.6 33.76-7.43 3.58-3.56 13.07-11.74 15.75-15.75 9.95-14.86 9.44-16.87-7-22A70.44 70.44 0 0 0-167 51z" style="display:block" transform="translate(590 590)"/><path fill="#E1E1E1" d="M-17-47c-6.9 2.27-6.86 8.3-4.5 15.23 2.37 6.94 7.07 14.8 9.5 20.77C-7.75-.58-4.1 8.5-.47 17.57 3.17 26.63 6.8 35.67 11 46c3.3 8.1 6.86 24.96 13 27 5.49 1.83 11.86-1.37 13-3 4.49-6.42-4.76-23.25-8-31C20.07 17.6 11.49-1.62 4-20c-5.17-12.69-7.9-31.32-21-27z" style="display:block" transform="translate(590 590)"/><path fill="#81DE3A" d="M-17-47c-5.76 1.9-6.57 6.24-5.4 11.44 1.16 5.2 4.29 11.24 6.4 16.56 2.76 6.96 7.2 20.8 12.37 32.98C1.52 26.16 7.39 36.68 13 37c4.29.24 10.16-3.05 11-7C25.66 22.23 13.66 2.1 9-9 3.77-21.46-2.52-51.77-17-47z" style="display:block" transform="translate(590 590)"/></g><g clip-path="url(#r)" style="display:block" transform="translate(60 60)"><path fill="#58CC02" d="M126-69c-11.58 1.4-20.63 7.5-28.5 15.32C89.6-45.86 82.9-36.31 76-28 40.49 14.79 6.87 55.6-26.81 96.18A11384.47 11384.47 0 0 1-130 219c-5.61 6.57-13.07 14.68-19.28 22.72-6.2 8.04-11.15 16-11.72 22.28-1.03 11.29 5.35 36.26 12 45 4.9 6.43 19.44 13.19 31 19 56.35 28.33 115.28 57.44 169 84 21.07 10.42 45.85 28.18 69 32 39 6.44 45.07-18.52 61-45 59.07-98.17 116.69-192.2 174-288 8.23-13.76 23.19-33.71 28-50 3-10.13 6.22-29.91 3-40-5.54-17.36-36.87-22-58-29-46.82-15.5-85.57-27.75-131-43-19.22-6.45-49.4-20.62-71-18z" style="display:block" transform="translate(590.5 591)"/><g style="display:block"><path fill="#FFF" d="M716 527c-8.53 1.3-16.44 7.74-23.39 15.26-6.94 7.52-12.93 16.12-17.61 21.74-35.42 42.5-68.75 83.17-102.19 124S505.83 769.82 470 813c-5 6.03-13.05 13.69-19.57 21.76-6.52 8.08-11.52 16.56-10.43 24.24 1.6 11.23 19.7 17.82 30 23 73.1 36.76 143.67 70.04 216 104 13.27 6.23 25.34 14.54 42 10 14-3.82 24.25-27.25 34-43 61.76-99.77 117-190.45 178-289 6.16-9.96 29.58-37.06 27-51-2.67-14.44-40.31-21.7-57-27-44.13-14.03-83.27-26.86-127-41-17.84-5.77-46.99-21.04-67-18z"/><path fill="none" stroke="#89E219" stroke-linejoin="round" stroke-width="9" d="M716 527c-8.53 1.3-16.44 7.74-23.39 15.26-6.94 7.52-12.93 16.12-17.61 21.74-35.42 42.5-68.75 83.17-102.19 124S505.83 769.82 470 813c-5 6.03-13.05 13.69-19.57 21.76-6.52 8.08-11.52 16.56-10.43 24.24 1.6 11.23 19.7 17.82 30 23 73.1 36.76 143.67 70.04 216 104 13.27 6.23 25.34 14.54 42 10 14-3.82 24.25-27.25 34-43 61.76-99.77 117-190.45 178-289 6.16-9.96 29.58-37.06 27-51-2.67-14.44-40.31-21.7-57-27-44.13-14.03-83.27-26.86-127-41-17.84-5.77-46.99-21.04-67-18z"/></g><path fill="#89E219" d="M-81 230c-3.75.82-10.1 6.03-15.33 12.05-5.24 6.02-9.37 12.86-8.67 16.95 1.16 6.8 16.08 10.81 25 15 58.07 27.27 110.83 53.97 166 80 9.21 4.35 21.6 11.89 31 10 8.27-1.66 23.73-23.45 22-33-1.01-5.6-15.24-12.06-24-16-49.43-22.22-91.95-41.03-138-62-12.53-5.7-44.37-26-58-23z" style="display:block" transform="translate(590 590)"/><path fill="#A6A6A6" d="M86 62c-6.4 1.45-13.2 8.51-19.25 16.31C60.69 86.11 55.39 94.63 52 99c-5.2 6.7-10.76 12.63-16.12 18.68-5.36 6.05-10.5 12.2-14.88 19.32-33.6 54.65 22.15 105.76 78 110 61.82 4.69 118.75-28.55 118-81-.24-17.03-6.5-28.45-12-49-3.11-11.61-5.56-39.92-13-48-8.91-9.69-25-3.23-37 1-6.66 2.35-30.75 13.84-36 13-4.1-.65-9.35-9.3-13-13-4.67-4.74-9.68-10.34-20-8z" style="display:block" transform="translate(590 590)"/><path fill="#E1E1E1" d="M128 133c-.3.05-.66 0-1.01-.04s-.7-.06-.99.04c-11.99 4.21-30.24 8.88-44.61 16.9C67 157.95 56.49 169.34 60 187c7.4 37.34 83.2 32.6 88-4 1.05-8.02-1.45-16.88-3-26-2.29-13.43-2.05-26.33-17-24zm11-173c-2.84.47-6.04 1.27-8.43 2.8-2.39 1.54-3.97 3.81-3.57 7.2.3 2.56 3.8 4.87 8.23 6.88C139.65-21.11 145-19.38 149-18c44.87 15.55 83.65 28.45 127 43 10.95 3.67 48.42 19.23 49 1 .31-9.72-28.89-17-41-21-32-10.6-66.43-21.4-95-31-15.03-5.05-36.71-16.17-50-14z" style="display:block" transform="translate(590 590)"/><path fill="#81DE3A" d="M139-40c-5.69.93-12.8 3.22-12 10 .92 7.8 23.99 11.84 33 15 25.91 9.1 46 16.72 71 25 10.62 3.51 33.67 9.4 35-3 1.34-12.54-50.46-24.13-59-27-27.87-9.36-43.9-18.56-66-21-1.12-.12-1.6.93-2 1z" style="display:block" transform="translate(590 590)"/></g></g><g clip-path="url(#s)" style="display:block" transform="matrix(.85 0 0 .85 -70.5 -26.5)"><g clip-path="url(#t)" style="display:block" transform="translate(-3.4 -8.41) scale(1.0107)"><path fill="none" stroke="#FF4B4B" stroke-linecap="round" stroke-width="14" d="M-42.8 92.52c-5.75 11.04-5.54 15.7-1.53 18.28" style="display:block" transform="rotate(4.15 -8268.2 9707.94) scale(.97441)"/></g><g fill="#FFB100" style="display:block"><path d="m759.18 344.29-3.7.26 3.7-.26a3.7 3.7 0 0 0-3.95-3.43l-280.66 20a3.7 3.7 0 0 0-3.43 3.94l3.7-.26-3.7.26a49.93 49.93 0 0 0 53.36 46.26l188.42-13.42a49.93 49.93 0 0 0 46.26-53.35z"/><path d="M500.6 244.14c-2.39-14.91 5.06-30.63 15.51-38.02a214.5 214.5 0 0 1 21.09-12.99c11.92-6.95 25.62-11.13 39.06-14.3 45.07-10.59 80.85-9.17 101.85-8.32 14.12.58 25.56 10.87 30.19 24.23 24.8 71.51 36.44 183.66 36.44 183.66s-282.2 62.1-248.05-19.12c19.81-1.42 10.3-75.4 3.92-115.14z"/><path d="M556.49 208.45A45.3 45.3 0 1 0 631 156.9a45.3 45.3 0 0 0-74.51 51.56z"/><path d="M530.31 182.4c-2.64 16.14 5.9 32.83 21.43 41.12 15.52 8.29 34.15 6.12 46.13-5.04 2.49-2.32 1.82-6.43-1.33-8.1 0 0-41.71-28.3-46.56-28.24a24.41 24.41 0 0 1-12.18-3.15c-2.6-1.6-6.94.04-7.49 3.4z"/><path d="m534.28 182.79 12.63 5.72 6.97-14.1-3.18-.63c-2.4 4.29-5.66 8.9-13.93 4.98-1.28 2.7-2.33 3.7-2.5 4.03z"/></g><g clip-path="url(#u)" style="display:block" transform="rotate(1 784.74 460.27) scale(1.00017)"><path fill="#FFC6B7" d="M35.12.34c-1.38-13.18-2.24-25.16-5.18-31.87a541.97 541.97 0 0 0-4.26-9.62 230.23 230.23 0 0 1-33.1 6.03c-8.42.98-24.86 1.2-32.34 2.29l14.34 40.88s-5.56 34.96-9.24 49.5c-2 7.93-7 17.37-1.5 21.66 3.56 2.77 14.2.82 20.59-3.02 5.35-3.22 25.95-18.66 37.21-31.25C28.16 37.65 35.87 7.52 35.12.34z" style="display:block" transform="rotate(3.1 -11164.04 13018.08) scale(.98467)"/></g><g clip-path="url(#v)" style="display:block" transform="rotate(1 784.74 460.27) scale(1.00017)"><path fill="#D22121" d="M-43.56-12.98c-3.48 4.93-3 38.88 26.53 36.3C12.5 20.72 25.33 12.67 38.2 2.37c28.25-22.6 54.9-65.42 54.9-65.42l-92.67.81s-8.2 1.58-14.35 9.92c-8.8 11.9-25.69 33.73-29.65 39.34z" style="display:block" transform="rotate(3.1 -11164.03 13018.07) scale(.98467)"/></g><g clip-path="url(#w)" style="display:block" transform="rotate(1.01 784.73 460.23) scale(1.00017)"><path fill="none" stroke="#FF4B4B" stroke-linecap="round" stroke-width="37" d="M56.93 121.49c29.87-11.84 30.59-44.57 30.59-44.57" style="display:block" transform="rotate(3.1 -11164.05 13018.06) scale(.98467)"/></g><g clip-path="url(#x)" style="display:block" transform="rotate(.23 4279.75 2112.84) scale(.98543)"><path fill="#FFC6B7" d="M-1.85 67.26c-.83-6.13-6.5-30.5-7.25-41.48-24.4-7.02-32.12-16.74-35.94-29.54-3.09-10.32-.58-18.73-.58-18.73 11.03-14 27.22-27.76 39.88-35.22 13.06-7.69 28.5-13.45 40.95-8.8 13.25 4.95 22.82 18.9 25.35 31.22C66.43-6.7 75.45 53.25 76.42 58.3c10.23 53.49-70.74 64.81-78.27 8.97z" style="display:block" transform="rotate(3.87 -9187.75 10510.86) scale(.9994)"/></g><path fill="#D22121" d="M-121.24-21.21c1.68 14.3 13.07 38.3 34 50.75 18.19 10.82 35.63 16.33 74.29-3.58l5.63-8.32 5.05-7.48c-7.92-6.68-45.67-41.77-52.29-46.99-10.2-8.05-23.64-9.84-36.41-8.5-11.58-2.05-29.59-9.94-32.28-2.84-.66 5.51 1.1 19.17 2 26.96z" style="display:block" transform="rotate(4.1 -8335.05 9883.24) scale(.98483)"/><path fill="#FFC6B7" d="M133.12-232.45c1.6-5.86 20.52-6.93 26.38-5.33a11 11 0 1 1-5.8 21.2c-2.16-.58-23.87-6.78-25.24-8.35-2.35-2.68 4.66-7.52 4.66-7.52z" style="display:block" transform="rotate(146.2 395.61 87.2) scale(1.7602)"/><path fill="#D22121" d="M28.36-35.4c12.85-29.5-46.4-101.04-84.1-101.04A68.26 68.26 0 0 0-124-68.18c0 37.7 36.03 61.42 72.61 63.57 39.83 1.98 67.92-8.56 79.75-30.78z" style="display:block" transform="rotate(4.1 -8334.46 9878.47) scale(.98483)"/><path fill="#FF4B4B" d="m89.48-261.2.5 17.6c1.34 9.17 8.97 19.23 18.6 23.78l-30.78 7.04a35.11 35.11 0 0 1-4.59-70.08l33.92-4.28c-12.42 7.29-16.23 12.95-17.65 25.93z" style="display:block" transform="rotate(146.2 369.5 135.8) scale(1.44278)"/><path fill="#FF4B4B" d="M33.46-166.54a40.46 40.46 0 0 1-18.05-15.84c-11.75-19.14-7.7-47.99 12.8-57.14 35-15.63 100.75-35.96 121.34-42.58 21.38-6.86 43.21 10.82 47.14 32.92a40.65 40.65 0 0 1-32.92 47.14c-.08.02-73.97 21.68-92.44 33.03a40.61 40.61 0 0 1-37.87 2.47z" style="display:block" transform="matrix(.9833 .05497 -.05497 .9833 685.2 620.37)"/><path fill="#FF4B4B" d="M-170.92-101.76c-16.42-29.37 4.27-53.2 30.94-62.33 24.16-8.25 46.33-12.33 63.35-15.48l97.56-18.04c43.68-8.07 103.32 28.16 100.23 72.48l-.11 2.5C119.13-80.65 92.4-44.17 51.3-36.17L-37.72-7.86C-85.53-6-117.2-31.06-150.21-75.34l-20.7-26.42z" style="display:block" transform="matrix(.9833 .05497 -.05497 .9833 685.2 620.37)"/><path fill="#D22121" d="M-32.25-38.25-62.63-7.5l18.88 20.25 20.5-21.5-9-29.5z" style="display:block" transform="translate(687.66 619.27) scale(.98483)"/><path fill="#FFC6B7" d="M-146.3-184.88c-17.25-43.81-38.6-88.29-59.6-115.41l30.75-48.52 137.15-51c31.75 46.7 56.32 102.28 72.62 143.65 9.77 24.8 17.49 46.91 22.78 62.87a1031.01 1031.01 0 0 1 7.84 24.64l.47 1.6.14.48.08.26c0 .01 0 .02-93.32 27.29a40776.81 40776.81 0 0 0-93.32 27.28l-.02-.08-.25-.85-1.2-3.9c-1.1-3.53-2.77-8.83-4.98-15.5a1032.37 1032.37 0 0 0-19.13-52.81z" style="display:block" transform="rotate(14.6 -1978.35 2818.54) scale(.98483)"/><g style="display:block"><path fill="#FFB100" d="M527.62 218.16a28.2 28.2 0 0 1 32.49 23.13l4.05 24.07a28.2 28.2 0 0 1-55.62 9.35l-4.05-24.07a28.2 28.2 0 0 1 23.13-32.48z"/><path fill="#FFC6B7" d="M538.53 280.09c9.47-1.49 17.7 4.95 19.63 13.4 1.92 8.43-3.6 18.6-12.72 20.42-9.6 1.92-19.11-6.12-20.49-15.17-1.2-7.95 3.29-17.03 13.58-18.65z"/><path fill="#FF4B4B" d="M500.16 254.84c-1.52 1.95-5 6.73-4.6 11.03.36 3.87.46 8.82.92 13.33.47 4.67 7.2 6.75 9.52 4.06 2.32-2.7 30.62-41.54 30.62-41.54 23.89-22.99 41.56-20 72.67-25.66 21.05-2.84 45.2-4.23 67.1-5.53 21.69-1.47 32.78 2.42 39.6 6.25 2.35 1.32 4.75-.69 3.87-3.24-2.35-6.8-5.87-16.95-7.46-21.37-.25-.7-2.01-3.26-2.62-3.7-3.75-2.77-13.93-8.16-35.02-6.67-22.83 1.35-47.97 2.59-69.43 5.48-35.35 6.24-52.66 6.57-80.01 31.06 0 0-23.64 34.55-25.16 36.5z"/></g><path fill="#FFF" d="M-83-348.15a24.69 24.69 0 0 1 14.6-31.72 24.69 24.69 0 0 1 31.82 14.35l5.25 14.01a24.69 24.69 0 0 1-14.6 31.72 24.69 24.69 0 0 1-31.83-14.35L-83-348.15z" style="display:block" transform="rotate(15.3 -1917.45 2695.03) scale(.98483)"/><path fill="#EE9583" d="M-78.44-327.33c.33-.33 8.36 1.84 16.7 4.2 8.3 2.35 11.74 12.62 6.18 18.27-5.56 5.66-15.88 2.4-18.38-5.85-2.51-8.3-4.82-16.3-4.5-16.62z" style="display:block" transform="rotate(15.3 -1917.46 2695.03) scale(.98483)"/><path fill="#3D3D3D" d="M-73.64-351.54c4.65-1.74 7.1-6.69 5.46-11.06a8.01 8.01 0 0 0-.75-1.5c5.68-1.5 11.57 1.26 13.55 6.55l4.6 12.32c2.12 5.66-1.05 12.08-7.09 14.34-6.03 2.26-12.64-.5-14.76-6.17l-4.6-12.32a9.11 9.11 0 0 1-.45-1.58 9.5 9.5 0 0 0 4.04-.58z" style="display:block" transform="rotate(15.3 -1917.45 2695.03) scale(.98483)"/><path fill="#FFF" d="M-123.17-359.6a24.72 24.72 0 0 0-14.45 31.84l5.29 14.08a24.69 24.69 0 0 0 4.78 7.88 19.8 19.8 0 0 1 12.98-3.06l10.08 1.1a161 161 0 0 0 14.54.93 24.72 24.72 0 0 0 3.9-24.22l-5.28-14.08a24.72 24.72 0 0 0-31.84-14.46z" style="display:block" transform="rotate(15.3 -1917.45 2695.03) scale(.98483)"/><path fill="#3D3D3D" d="M-114.6-336.21c4.64-1.74 7.1-6.7 5.46-11.07a8.01 8.01 0 0 0-.76-1.5c5.69-1.5 11.58 1.26 13.55 6.55l4.6 12.32c2.13 5.66-1.04 12.08-7.08 14.34-6.03 2.26-12.64-.5-14.76-6.17l-4.6-12.31c-.2-.53-.35-1.06-.46-1.59 1.33.1 2.7-.07 4.04-.57z" style="display:block" transform="rotate(15.3 -1917.45 2695.03) scale(.98483)"/><path fill="#FF4B4B" d="M-120.86-110.67c.12.41 187.8-55.25 187.79-55.27 0 0-6.62-20.1-9.28-28.1-4.6-13.87-7.44-20.91-15.03-42.01-.86 3.11-27.2 30.12-68.63 45.16-69.58 25.26-113.77 22.5-113.77 22.5s1.85 5.45 5.37 16.06c4.16 12.58 13.3 40.84 13.55 41.66z" style="display:block" transform="rotate(14.6 -1978.35 2818.54) scale(.98483)"/><path fill="#FF4B4B" d="M-124.98-217.4c-16.5 0-85.3-4.9-105.34-5.3-4 12.75-21.12 82.4-21.62 92.4 4.5-3 12.94-2.2 12.94-2.2l127 40s3.52-124.9-12.98-124.9z" style="display:block" transform="rotate(-1.9 19007.33 -20466.82) scale(.98484)"/><path fill="#FFC6B7" d="m-200.12-120.5-.7-16.32a45.08 45.08 0 0 1 43.14-46.95l16.32-.7a45.08 45.08 0 0 1 46.96 43.13l.69 16.33a45.08 45.08 0 0 1-43.13 46.95l-16.33.7a45.08 45.08 0 0 1-46.95-43.14z" style="display:block" transform="rotate(142.5 61.57 292.14) scale(.58105)"/><path fill="#FFC6B7" d="M-166.26-199.4a19.8 19.8 0 0 1 11.87 37.8 19.81 19.81 0 1 1-11.87-37.8z" style="display:block" transform="rotate(142.5 61.57 292.14) scale(.58105)"/><path fill="#FF4B4B" d="M-113.1-136.84c4.88 28.1-13.72 54.75-35.4 58.57L-258.53-58.3a51.64 51.64 0 1 1-17.68-101.75l107.1-17.66c24.57-1.82 51.13 12.77 56 40.86z" style="display:block" transform="rotate(142.5 64.8 290.39) scale(.58105)"/><path fill="#FFC6B7" d="m141.22-280.74 9.07.05a25.02 25.02 0 0 1 24.9 25.14l-.06 9.07a25.02 25.02 0 0 1-25.14 24.9l-9.06-.05a25.02 25.02 0 0 1-24.9-25.14l.05-9.07a25.02 25.02 0 0 1 25.14-24.9z" style="display:block" transform="rotate(146.2 395.61 87.2) scale(1.7602)"/><path fill="#EBE3E3" d="M-27.75-183.26a4.7 4.7 0 0 1-1.68-5.64l4.64-11.36a4.7 4.7 0 0 1 5.02-2.87l35.42 5.16a4.7 4.7 0 0 1 3.67 6.42L8.53-165.14a4.7 4.7 0 0 1-7.01 2.09l-29.27-20.21z" style="display:block" transform="matrix(.97273 -.15395 .15395 .97273 721.48 587.95)"/><path fill="none" stroke="#EBE3E3" stroke-width="9.72" d="M-25.38-220.57s23.1 65.48 29.49 91.95c5.62 23.34 19.62 92.77 19.62 92.77" style="display:block" transform="matrix(.9833 .05497 -.05497 .9833 685.2 620.37)"/><g clip-path="url(#y)" style="display:block" transform="rotate(.23 4279.75 2112.84) scale(.98543)"><path fill="#FFC6B7" d="M-1.85 67.26c-.83-6.13-6.5-30.5-7.25-41.48-24.4-7.02-32.12-16.74-35.94-29.54-3.09-10.32-.58-18.73-.58-18.73 11.03-14 27.22-27.76 39.88-35.22 13.06-7.69 28.5-13.45 40.95-8.8 13.25 4.95 22.82 18.9 25.35 31.22C66.43-6.7 75.45 53.25 76.42 58.3c10.23 53.49-70.74 64.81-78.27 8.97z" style="display:block" transform="rotate(3.87 -9187.75 10510.86) scale(.9994)"/></g><g clip-path="url(#z)" style="display:block" transform="rotate(1.01 727.32 474.23) scale(1.00017)"><path fill="none" stroke="#FF4B4B" stroke-linecap="round" stroke-width="37" d="M56.93 121.49c29.87-11.84 30.59-44.57 30.59-44.57" style="display:block" transform="rotate(3.1 -11164.05 13018.06) scale(.98467)"/></g></g><g clip-path="url(#A)" style="display:block" transform="rotate(5 1292.67 -638.02) scale(.86889)"><g clip-path="url(#B)" style="display:block"><path fill="#A41414" d="M-113.86-282.52c4.24-6.12 11.9-7.83 17.9-4.6 2.41.8 4.46 1.75 6.3 2.28 1.51.44 4.12.78 7.48.62 6.48-.72 13.36 4.53 14.78 11.76 1.44 7.42-4.03 14.6-11.23 16.28-15.39 3.53-25.4-2.16-31.7-6.81-6.05-4.48-7.77-13.4-3.53-19.53z" style="display:block" transform="rotate(4 -8723.07 10268.47) scale(.98467)"/></g><g mask="url(#C)" style="display:block"><path fill="#FFF" d="m641.76 342.39-.16.02c-5.32.78-8.66.07-10.86-.76-2.39-.9-4.55-2.35-7.24-4.61a19.64 19.64 0 0 0-28.11 2.64 20.43 20.43 0 0 0-4.35 14.76 8.72 8.72 0 0 0 9.3 3.15l11.12-3.3a8.58 8.58 0 0 0 5.8-6.1 8.58 8.58 0 0 0 8.2 1.96l11.12-3.3a8.43 8.43 0 0 0 5.18-4.46z"/></g><g mask="url(#D)" style="display:block"><path fill="#E64340" d="m664.41 359.46.05.27c1.71 11.16-5.73 21.5-16.64 23.1-5.13.76-9.86.92-14.22.62 3.37-10.65 11.5-19.36 22.6-22.65 2.73-.8 5.48-1.25 8.21-1.34z"/></g></g></g></g></svg>