<svg xmlns="http://www.w3.org/2000/svg" xmlns:xlink="http://www.w3.org/1999/xlink" viewBox="0 0 1080 1080"><defs><mask id="bZ" mask-type="alpha"><use xlink:href="#a"/></mask><mask id="bY" mask-type="alpha"><use xlink:href="#b"/></mask><mask id="bX" mask-type="alpha"><use xlink:href="#c"/></mask><mask id="bV" mask-type="alpha"><use xlink:href="#d"/></mask><mask id="bU" mask-type="alpha"><use xlink:href="#e"/></mask><mask id="bT" mask-type="alpha"><use xlink:href="#f"/></mask><mask id="bR" mask-type="alpha"><use xlink:href="#g"/></mask><mask id="bQ" mask-type="alpha"><use xlink:href="#h"/></mask><mask id="bN" mask-type="alpha"><use xlink:href="#i"/></mask><mask id="bM" mask-type="alpha"><use xlink:href="#j"/></mask><mask id="bJ" mask-type="alpha"><use xlink:href="#k"/></mask><mask id="bI" mask-type="alpha"><use xlink:href="#l"/></mask><mask id="bH" mask-type="alpha"><use xlink:href="#m"/></mask><mask id="bG" mask-type="alpha"><use xlink:href="#n"/></mask><mask id="bC" mask-type="alpha"><use xlink:href="#o"/></mask><mask id="bB" mask-type="alpha"><use xlink:href="#p"/></mask><mask id="bA" mask-type="alpha"><use xlink:href="#q"/></mask><mask id="by" mask-type="alpha"><use xlink:href="#r"/></mask><mask id="bx" mask-type="alpha"><use xlink:href="#s"/></mask><mask id="bw" mask-type="alpha"><use xlink:href="#t"/></mask><mask id="bu" mask-type="alpha"><use xlink:href="#u"/></mask><mask id="bt" mask-type="alpha"><use xlink:href="#v"/></mask><mask id="bq" mask-type="alpha"><use xlink:href="#w"/></mask><mask id="bp" mask-type="alpha"><use xlink:href="#x"/></mask><mask id="bm" mask-type="alpha"><use xlink:href="#y"/></mask><mask id="bl" mask-type="alpha"><use xlink:href="#z"/></mask><mask id="bk" mask-type="alpha"><use xlink:href="#A"/></mask><mask id="bj" mask-type="alpha"><use xlink:href="#B"/></mask><mask id="bf" mask-type="alpha"><use xlink:href="#C"/></mask><mask id="be" mask-type="alpha"><use xlink:href="#D"/></mask><mask id="bd" mask-type="alpha"><use xlink:href="#E"/></mask><mask id="bb" mask-type="alpha"><use xlink:href="#F"/></mask><mask id="ba" mask-type="alpha"><use xlink:href="#G"/></mask><mask id="aZ" mask-type="alpha"><use xlink:href="#H"/></mask><mask id="aX" mask-type="alpha"><use xlink:href="#I"/></mask><mask id="aW" mask-type="alpha"><use xlink:href="#J"/></mask><mask id="aT" mask-type="alpha"><use xlink:href="#K"/></mask><mask id="aS" mask-type="alpha"><use xlink:href="#L"/></mask><mask id="aP" mask-type="alpha"><use xlink:href="#M"/></mask><mask id="aO" mask-type="alpha"><use xlink:href="#N"/></mask><mask id="aN" mask-type="alpha"><use xlink:href="#O"/></mask><mask id="aM" mask-type="alpha"><use xlink:href="#P"/></mask><mask id="aI" mask-type="alpha"><use xlink:href="#Q"/></mask><mask id="aH" mask-type="alpha"><use xlink:href="#R"/></mask><mask id="aG" mask-type="alpha"><use xlink:href="#S"/></mask><mask id="aE" mask-type="alpha"><use xlink:href="#T"/></mask><mask id="aD" mask-type="alpha"><use xlink:href="#U"/></mask><mask id="aC" mask-type="alpha"><use xlink:href="#V"/></mask><mask id="aA" mask-type="alpha"><use xlink:href="#W"/></mask><mask id="az" mask-type="alpha"><use xlink:href="#X"/></mask><mask id="aw" mask-type="alpha"><use xlink:href="#Y"/></mask><mask id="av" mask-type="alpha"><use xlink:href="#Z"/></mask><mask id="as" mask-type="alpha"><use xlink:href="#aa"/></mask><mask id="ar" mask-type="alpha"><use xlink:href="#ab"/></mask><mask id="aq" mask-type="alpha"><use xlink:href="#ac"/></mask><mask id="ap" mask-type="alpha"><use xlink:href="#ad"/></mask><mask id="an" mask-type="alpha"><use xlink:href="#ae"/></mask><mask id="aj" mask-type="alpha"><use xlink:href="#ag"/></mask><clipPath id="ah"><path d="M0 0h1080v1080H0z"/></clipPath><clipPath id="bF"><path d="M0 0h1080v1080H0z"/></clipPath><clipPath id="cb"><path d="M0 0h1080v1080H0z"/></clipPath><clipPath id="ca"><path d="M0 0h1080v1080H0z"/></clipPath><clipPath id="bW"><path d="M0 0h1080v1080H0z"/></clipPath><clipPath id="bS"><path d="M0 0h1080v1080H0z"/></clipPath><clipPath id="bO"><path d="M0 0h1080v1080H0z"/></clipPath><clipPath id="bK"><path d="M0 0h1080v1080H0z"/></clipPath><clipPath id="bi"><path d="M0 0h1080v1080H0z"/></clipPath><clipPath id="bE"><path d="M0 0h1080v1080H0z"/></clipPath><clipPath id="bD"><path d="M0 0h1080v1080H0z"/></clipPath><clipPath id="bz"><path d="M0 0h1080v1080H0z"/></clipPath><clipPath id="bv"><path d="M0 0h1080v1080H0z"/></clipPath><clipPath id="br"><path d="M0 0h1080v1080H0z"/></clipPath><clipPath id="bn"><path d="M0 0h1080v1080H0z"/></clipPath><clipPath id="aL"><path d="M0 0h1080v1080H0z"/></clipPath><clipPath id="bh"><path d="M0 0h1080v1080H0z"/></clipPath><clipPath id="bg"><path d="M0 0h1080v1080H0z"/></clipPath><clipPath id="bc"><path d="M0 0h1080v1080H0z"/></clipPath><clipPath id="aY"><path d="M0 0h1080v1080H0z"/></clipPath><clipPath id="aU"><path d="M0 0h1080v1080H0z"/></clipPath><clipPath id="aQ"><path d="M0 0h1080v1080H0z"/></clipPath><clipPath id="ao"><path d="M0 0h1080v1080H0z"/></clipPath><clipPath id="aK"><path d="M0 0h1080v1080H0z"/></clipPath><clipPath id="aJ"><path d="M0 0h1080v1080H0z"/></clipPath><clipPath id="aF"><path d="M0 0h1080v1080H0z"/></clipPath><clipPath id="aB"><path d="M0 0h1080v1080H0z"/></clipPath><clipPath id="ax"><path d="M0 0h1080v1080H0z"/></clipPath><clipPath id="at"><path d="M0 0h1080v1080H0z"/></clipPath><clipPath id="am"><path d="M0 0h1080v1080H0z"/></clipPath><clipPath id="ai"><path d="M0 0h1080v1080H0z"/></clipPath><clipPath id="ak"><path d="M0 0h1080v1080H0z"/></clipPath><radialGradient id="bP" gradientUnits="userSpaceOnUse" spreadMethod="pad"><stop/><stop/><stop/><stop/><stop/></radialGradient><radialGradient id="bL" gradientUnits="userSpaceOnUse" spreadMethod="pad"><stop/><stop/><stop/><stop/><stop/></radialGradient><radialGradient id="bs" gradientUnits="userSpaceOnUse" spreadMethod="pad"><stop/><stop/><stop/><stop/><stop/></radialGradient><radialGradient id="bo" gradientUnits="userSpaceOnUse" spreadMethod="pad"><stop/><stop/><stop/><stop/><stop/></radialGradient><radialGradient id="aV" gradientUnits="userSpaceOnUse" spreadMethod="pad"><stop/><stop/><stop/><stop/><stop/></radialGradient><radialGradient id="aR" gradientUnits="userSpaceOnUse" spreadMethod="pad"><stop/><stop/><stop/><stop/><stop/></radialGradient><radialGradient id="ay" gradientUnits="userSpaceOnUse" spreadMethod="pad"><stop/><stop/><stop/><stop/><stop/></radialGradient><radialGradient id="au" gradientUnits="userSpaceOnUse" spreadMethod="pad"><stop/><stop/><stop/><stop/><stop/></radialGradient><radialGradient id="al" cx="101.484" cy="-275.32" r="532.385" fx="101.484" fy="-275.32" gradientUnits="userSpaceOnUse" spreadMethod="pad"><stop offset="0%" stop-color="#26FF55"/><stop offset="30%" stop-color="#26C5AA"/><stop offset="60%" stop-color="#268AFF"/><stop offset="75%" stop-color="#916FFF"/><stop offset="90%" stop-color="#FC55FF"/></radialGradient><linearGradient id="af" x1="-184.04" x2="-165.527" y1="-392.518" y2="-636.055" gradientUnits="userSpaceOnUse" spreadMethod="pad"><stop offset="0%" stop-color="#26F663"/><stop offset="30%" stop-color="#26C0B1"/><stop offset="60%" stop-color="#268AFF"/><stop offset="77%" stop-color="#916FFF"/><stop offset="94%" stop-color="#FC55FF"/></linearGradient><path id="ag" fill="url(#af)" d="M-128.343 1.667c5.24 24.65 22.366 43.792 44.31 52.944l96.737 53.853c11.492 6.397 25.952 3.206 33.684-7.435L112.751 9.7c14.022-16.971 20.459-39.697 15.592-62.593-8.57-40.32-48.946-65.9-90.182-57.135C17.09-105.549-.128-92.969-10.786-76.357c-16.493-10.841-37.34-15.331-58.411-10.852-41.236 8.765-67.716 48.556-59.146 88.876z" style="display:block" transform="rotate(3 -9286.67 10931.784) scale(.98635)"/></defs><g clip-path="url(#ah)"><g clip-path="url(#ai)" style="display:block"><path fill="#4B387F" d="M255.282 356.686c-58.044 13.807-244.829 52.999-295.937 62.903-11.263 2.183-22.193 2.393-32.551.856-36.64-5.438-66.116-32.745-77.825-71.983l-172.482-577.995c-4.158-13.934-5.409-27.979-4.142-41.413 3.913-41.471 31.832-77.123 72.373-85.74l295.937-62.903c47.437-10.083 95.357 20.797 110.376 71.127L311.232 188.38l12.281 41.153c16.994 56.948-10.187 113.346-68.231 127.153z" style="display:block" transform="rotate(3 -10368.414 10119.614) scale(.98635)"/><path fill="#6F56A5" d="M255.282 356.686c-52.898 11.321-243.976 51.985-295.937 62.903-51.961 10.918-95.357-20.797-110.376-71.127l-172.482-577.995c-16.994-56.948 1.565-113.346 68.231-127.153 66.666-13.807 235.208-50.999 295.937-62.903 60.729-11.904 95.357 20.797 110.376 71.127l172.482 577.995c16.994 56.948-15.333 115.832-68.231 127.153z" style="display:block" transform="rotate(3 -9688.248 10784.877) scale(.98635)"/><path fill="#354593" d="M-132.82 343.029c-11.796-36.522-156.668-524.472-172.482-577.997-15.814-53.525 18.144-94.818 53.971-103.129 15.715-3.646 289.264-61.408 295.937-62.904 49.028-10.992 80.778 32.008 88.214 57.973 9.064 31.535 169.564 569.535 172.482 577.995 15.917 46.147-15.022 93.72-53.97 103.13-38.948 9.41-256.928 56.398-295.938 62.904-39.01 6.506-76.418-21.451-88.214-57.972z" style="display:block" transform="rotate(3 -9688.248 10784.877) scale(.98635)"/><g style="display:block"><path fill="none" stroke="#FFF" stroke-width="49.317499999999995" d="M432.895 496.025c3.888 24.551 19.77 44.29 40.912 54.437l92.506 58.04c10.989 6.893 25.397 4.497 33.562-5.585l70.082-86.534c14.688-15.992 22.201-38.045 18.59-60.849-6.36-40.157-44.81-67.438-85.88-60.933-20.987 3.324-38.596 14.827-49.951 30.64-15.686-11.53-35.989-17.03-56.975-13.705-41.07 6.505-69.207 44.332-62.846 84.49z"/></g><g mask="url(#aj)" style="display:block"><g clip-path="url(#ak)" transform="rotate(-12.32 2021.216 -994.773) scale(.41534)"><path fill="url(#al)" d="M373-373v746h-746v-746h746z" style="display:block" transform="translate(712.852 452.203)"/></g></g><g style="display:block"><path fill="#FEFEFE" d="M578.649 516.818c14.932 10.85 35.834 7.539 46.683-7.394 10.85-14.932 7.538-35.833-7.394-46.682-14.933-10.85-35.834-7.538-46.683 7.394l-19.644 27.038 27.038 19.644zm33.51-16.964c-5.564 7.658-16.282 9.356-23.94 3.792l-13.865-10.074 10.074-13.865c5.564-7.658 16.282-9.357 23.94-3.793 7.657 5.563 9.355 16.283 3.79 23.94z"/><path fill="#FEFEFE" d="M553.393 520.818c-10.85 14.933-31.75 18.244-46.682 7.394-14.933-10.849-18.244-31.75-7.394-46.682 10.849-14.932 31.75-18.243 46.682-7.394l27.038 19.644-19.644 27.038zm-37.113-5.778c7.658 5.564 18.378 3.866 23.94-3.791l10.075-13.866-13.866-10.075c-7.657-5.564-18.376-3.866-23.94 3.792-5.564 7.657-3.866 18.376 3.791 23.94z"/></g><path fill="#FFF" d="M-13.26-9.101c-.669-1.999 1.562-4.167 3.552-3.48 2.704.933 5.899 1.772 8.585 1.736 3.021-.045 6.728-1.245 9.82-2.512 2.008-.825 4.431 1.41 3.771 3.476-1.013 3.163-1.91 6.92-1.723 9.896.174 2.766 1.277 5.885 2.428 8.464.848 1.901-1.036 4.306-3.075 3.878-3.039-.638-6.732-1.192-9.753-.973-3.11.219-6.877 1.191-9.71 2.048-1.762.531-3.552-1.12-3.159-2.918.656-3.016 1.357-7.058 1.259-10.28-.085-2.905-1.022-6.417-1.995-9.335z" style="display:block" transform="matrix(0 0 0 0 659.438 667.463)"/><path fill="#26F663" d="M-19.601-23.11c-.326-2.151 2.325-3.815 4.137-2.615 4.515 2.994 11.181 6.862 16.924 7.991 6.381 1.254 15.272-.227 21.363-1.615 2.182-.5 4.092 2.191 2.901 4.087-3.302 5.27-7.612 13.114-8.545 19.468-.875 5.966.607 13.435 1.968 18.557.553 2.079-1.802 4.061-3.739 3.128-5.113-2.463-12.851-5.747-19.245-6.631-6.265-.866-14.478-.258-19.507.277-1.892.201-3.329-1.834-2.512-3.547 2.244-4.734 5.684-12.668 6.831-19.053 1.107-6.144.272-14.403-.576-20.047z" style="display:block" transform="matrix(0 0 0 0 718.195 675.345)"/><path fill="#E619DF" d="M-21.705-14.604c-.854-1.928 1.193-4.185 3.204-3.55 4.516 1.426 10.78 2.979 15.725 2.59 5.504-.434 12.379-3.576 17.204-6.152 1.915-1.023 4.413 1 3.811 3.086-1.51 5.231-3.147 12.556-2.456 17.963.648 5.067 3.475 10.797 5.802 14.811 1.045 1.803-.642 4.28-2.696 3.926-4.915-.846-11.937-1.705-17.372-.963-5.359.732-11.95 3.073-16.123 4.719-1.713.676-3.593-.846-3.287-2.662.773-4.584 1.735-11.873 1.21-17.402-.501-5.277-2.997-11.793-5.022-16.366z" style="display:block" transform="matrix(0 0 0 0 603.455 312.628)"/><path fill="#268AFF" d="M3.749-15.41c1.689-1.369 4.598-.006 4.673 2.167.097 2.801.451 5.985 1.412 8.417C10.918-2.08 13.27.885 15.502 3.293c1.522 1.642.249 4.8-1.986 4.927-3.256.186-6.97.682-9.622 1.881-2.464 1.115-4.927 3.175-6.902 5.12-1.531 1.508-4.546.568-4.885-1.555-.482-3.021-1.265-6.566-2.509-9.254-1.286-2.779-3.473-5.893-5.259-8.222-1.156-1.507-.215-3.837 1.663-4.121 3.03-.457 6.972-1.231 9.897-2.441 2.622-1.085 5.499-3.133 7.85-5.038z" style="display:block" transform="matrix(0 0 0 0 363.331 464.993)"/></g></g></svg>