<svg xmlns="http://www.w3.org/2000/svg" xmlns:xlink="http://www.w3.org/1999/xlink" width="645" height="486" style="width:100%;height:100%;transform:translate3d(0,0,0);content-visibility:visible"><defs><clipPath id="S"><path d="M0 0h645v486H0z"/></clipPath><clipPath id="bu"><path d="M0 0h645v486H0z"/></clipPath><clipPath id="bC"><path d="M0 0h632v620H0z"/></clipPath><clipPath id="bB"><path d="M0 0h208v296H0z"/></clipPath><clipPath id="bv"><path d="M0 0h440v476H0z"/></clipPath><clipPath id="bf"><path d="M0 0h645v486H0z"/></clipPath><clipPath id="bt"><path d="M0 0h632v620H0z"/></clipPath><clipPath id="bs"><path d="M0 0h208v296H0z"/></clipPath><clipPath id="br"><path d="M0 0h208v296H0z"/></clipPath><clipPath id="bq"><path d="M0 0h208v296H0z"/></clipPath><clipPath id="bk"><path d="M0 0h440v476H0z"/></clipPath><clipPath id="bg"><path d="M0 0h645v698H0z"/></clipPath><clipPath id="k"><path d="M0 0h645v698H0z"/></clipPath><clipPath id="aZ"><path d="M0 0h645v486H0z"/></clipPath><clipPath id="be"><path d="M0 0h632v620H0z"/></clipPath><clipPath id="bd"><path d="M0 0h208v296H0z"/></clipPath><clipPath id="ba"><path d="M0 0h645v698H0z"/></clipPath><clipPath id="aN"><path d="M0 0h645v486H0z"/></clipPath><clipPath id="aY"><path d="M0 0h632v620H0z"/></clipPath><clipPath id="aX"><path d="M0 0h208v296H0z"/></clipPath><clipPath id="aR"><path d="M0 0h440v476H0z"/></clipPath><clipPath id="aO"><path d="M0 0h645v698H0z"/></clipPath><clipPath id="aD"><path d="M0 0h645v486H0z"/></clipPath><clipPath id="aM"><path d="M0 0h632v620H0z"/></clipPath><clipPath id="aL"><path d="M0 0h208v296H0z"/></clipPath><clipPath id="aK"><path d="M0 0h208v296H0z"/></clipPath><clipPath id="aE"><path d="M0 0h440v476H0z"/></clipPath><clipPath id="ai"><path d="M0 0h645v486H0z"/></clipPath><clipPath id="aC"><path d="M0 0h632v620H0z"/></clipPath><clipPath id="aB"><path d="M0 0h208v296H0z"/></clipPath><clipPath id="av"><path d="M0 0h440v476H0z"/></clipPath><clipPath id="as"><path d="M0 0h632v620H0z"/></clipPath><clipPath id="at"><path d="M0 0h632v620H0z"/></clipPath><clipPath id="au"><path fill="#fff" d="m465.317 67.813-276.991 24.98s-44.884 175.099-18.98 157.262c29.673-20.432 142.898 1.726 196.993 21.69 54.095 19.964 98.978-203.932 98.978-203.932"/></clipPath><clipPath id="ap"><path d="M0 0h208v296H0z"/></clipPath><clipPath id="aq"><path d="M0 0h208v296H0z"/></clipPath><clipPath id="ar"><path fill="#fff" d="M127.794 131.308C29.286 206.787 53.017 252.65 53.017 252.65L99.92 354.683l114.935-141.892s-4.343-144.864-87.061-81.483"/></clipPath><clipPath id="aj"><path d="M0 0h440v476H0z"/></clipPath><clipPath id="T"><path d="M0 0h645v486H0z"/></clipPath><clipPath id="ah"><path d="M0 0h374v367H0z"/></clipPath><clipPath id="ag"><path d="M0 0h632v620H0z"/></clipPath><clipPath id="af"><path d="M0 0h208v296H0z"/></clipPath><clipPath id="ae"><path d="M0 0h208v296H0z"/></clipPath><clipPath id="ad"><path d="M0 0h645v486H0z"/></clipPath><clipPath id="W"><path d="M0 0h440v476H0z"/></clipPath><clipPath id="V"><path d="M0 0h208v296H0z"/></clipPath><clipPath id="U"><path d="M0 0h374v367H0z"/></clipPath><mask id="bA" mask-type="alpha"><use xlink:href="#a"/></mask><mask id="bz" mask-type="alpha"><use xlink:href="#b"/></mask><mask id="bx" mask-type="alpha"><use xlink:href="#c"/></mask><mask id="bw" mask-type="alpha"><use xlink:href="#d"/></mask><mask id="by" mask-type="alpha"><use xlink:href="#e"/></mask><mask id="bp" mask-type="alpha"><use xlink:href="#f"/></mask><mask id="bo" mask-type="alpha"><use xlink:href="#g"/></mask><mask id="bm" mask-type="alpha"><use xlink:href="#h"/></mask><mask id="bl" mask-type="alpha"><use xlink:href="#i"/></mask><mask id="bn" mask-type="alpha"><use xlink:href="#j"/></mask><mask id="bj" mask-type="alpha"><use xlink:href="#l"/></mask><mask id="bi" mask-type="alpha"><use xlink:href="#m"/></mask><mask id="bh" mask-type="alpha"><use xlink:href="#n"/></mask><mask id="bc" mask-type="alpha"><use xlink:href="#o"/></mask><mask id="bb" mask-type="alpha"><use xlink:href="#p"/></mask><mask id="aW" mask-type="alpha"><use xlink:href="#q"/></mask><mask id="aV" mask-type="alpha"><use xlink:href="#r"/></mask><mask id="aT" mask-type="alpha"><use xlink:href="#s"/></mask><mask id="aS" mask-type="alpha"><use xlink:href="#t"/></mask><mask id="aU" mask-type="alpha"><use xlink:href="#u"/></mask><mask id="aQ" mask-type="alpha"><use xlink:href="#v"/></mask><mask id="aP" mask-type="alpha"><use xlink:href="#w"/></mask><mask id="aJ" mask-type="alpha"><use xlink:href="#x"/></mask><mask id="aI" mask-type="alpha"><use xlink:href="#y"/></mask><mask id="aG" mask-type="alpha"><use xlink:href="#z"/></mask><mask id="aF" mask-type="alpha"><use xlink:href="#A"/></mask><mask id="aH" mask-type="alpha"><use xlink:href="#B"/></mask><mask id="aA" mask-type="alpha"><use xlink:href="#C"/></mask><mask id="az" mask-type="alpha"><use xlink:href="#D"/></mask><mask id="ax" mask-type="alpha"><use xlink:href="#E"/></mask><mask id="aw" mask-type="alpha"><use xlink:href="#F"/></mask><mask id="ay" mask-type="alpha"><use xlink:href="#G"/></mask><mask id="ao" mask-type="alpha"><use xlink:href="#H"/></mask><mask id="an" mask-type="alpha"><use xlink:href="#I"/></mask><mask id="al" mask-type="alpha"><use xlink:href="#J"/></mask><mask id="ak" mask-type="alpha"><use xlink:href="#K"/></mask><mask id="am" mask-type="alpha"><use xlink:href="#L"/></mask><mask id="ac" mask-type="alpha"><use xlink:href="#M"/></mask><mask id="ab" mask-type="alpha"><use xlink:href="#N"/></mask><mask id="aa" mask-type="alpha"><use xlink:href="#O"/></mask><mask id="Y" mask-type="alpha"><use xlink:href="#P"/></mask><mask id="X" mask-type="alpha"><use xlink:href="#Q"/></mask><mask id="Z" mask-type="alpha"><use xlink:href="#R"/></mask><path id="a" fill="#A96606" d="M25.066-5.497V5.497c0 12.693-10.307 23-23 23h-4.132c-12.693 0-23-10.307-23-23V-5.497c0-12.693 10.307-23 23-23h4.132c12.693 0 23 10.307 23 23z" style="display:block" transform="matrix(.75 0 0 .38346 222.902 244.205)"/><path id="b" fill="#FFF" d="M-1.871-15.593c7.624-1.22 14.356 5.066 13.663 12.755l-.733 8.136a11.474 11.474 0 0 1-9.385 10.26c-7.04 1.273-13.515-4.136-13.515-11.29v-8.169a11.841 11.841 0 0 1 9.97-11.692z" style="display:block" transform="matrix(4 0 0 4 307.365 207.989)"/><path id="e" fill="#FFF" d="M-1.871-15.593c7.624-1.22 14.356 5.066 13.663 12.755l-.733 8.136a11.474 11.474 0 0 1-9.385 10.26c-7.04 1.273-13.515-4.136-13.515-11.29v-8.169a11.841 11.841 0 0 1 9.97-11.692z" style="display:block" transform="matrix(4 0 0 4 307.365 207.989)"/><path id="c" fill="#FFF" d="M1.871-15.593c-7.624-1.22-14.356 5.066-13.663 12.755l.733 8.136a11.474 11.474 0 0 0 9.385 10.26c7.04 1.273 13.515-4.136 13.515-11.29v-8.169a11.841 11.841 0 0 0-9.97-11.692z" style="display:block" transform="matrix(4 0 0 4 136.635 207.989)"/><path id="d" fill="#FFF" d="M1.871-15.593c-7.624-1.22-14.356 5.066-13.663 12.755l.733 8.136a11.474 11.474 0 0 0 9.385 10.26c7.04 1.273 13.515-4.136 13.515-11.29v-8.169a11.841 11.841 0 0 0-9.97-11.692z" style="display:block" transform="matrix(4 0 0 4 136.635 207.989)"/><path id="N" fill="#A96606" d="M25.066-5.497V5.497c0 12.693-10.307 23-23 23h-4.132c-12.693 0-23-10.307-23-23V-5.497c0-12.693 10.307-23 23-23h4.132c12.693 0 23 10.307 23 23z" style="display:block" transform="matrix(.75 0 0 1.07904 222.902 262.685)"/><path id="O" fill="#FFF" d="M-1.871-15.593c7.624-1.22 14.356 5.066 13.663 12.755l-.733 8.136a11.474 11.474 0 0 1-9.385 10.26c-7.04 1.273-13.515-4.136-13.515-11.29v-8.169a11.841 11.841 0 0 1 9.97-11.692z" style="display:block" transform="matrix(4 0 0 4 307.365 207.989)"/><path id="R" fill="#FFF" d="M-1.871-15.593c7.624-1.22 14.356 5.066 13.663 12.755l-.733 8.136a11.474 11.474 0 0 1-9.385 10.26c-7.04 1.273-13.515-4.136-13.515-11.29v-8.169a11.841 11.841 0 0 1 9.97-11.692z" style="display:block" transform="matrix(4 0 0 4 307.365 207.989)"/><path id="P" fill="#FFF" d="M1.871-15.593c-7.624-1.22-14.356 5.066-13.663 12.755l.733 8.136a11.474 11.474 0 0 0 9.385 10.26c7.04 1.273 13.515-4.136 13.515-11.29v-8.169a11.841 11.841 0 0 0-9.97-11.692z" style="display:block" transform="matrix(4 0 0 4 136.635 207.989)"/><path id="Q" fill="#FFF" d="M1.871-15.593c-7.624-1.22-14.356 5.066-13.663 12.755l.733 8.136a11.474 11.474 0 0 0 9.385 10.26c7.04 1.273 13.515-4.136 13.515-11.29v-8.169a11.841 11.841 0 0 0-9.97-11.692z" style="display:block" transform="matrix(4 0 0 4 136.635 207.989)"/></defs><g clip-path="url(#S)"><g clip-path="url(#bu)" style="display:block"><g opacity=".3" style="display:block"><path fill="#AFAFAF" d="M324.881 483.286c107.664 0 194.944-67.96 194.944-151.788 0-83.828-87.28-151.788-194.944-151.788-107.664 0-194.944 67.96-194.944 151.788 0 83.828 87.28 151.788 194.944 151.788z" opacity="1"/></g><path fill="#58CC02" d="M0-46.177c-5.403 0-9.466-.919-13.344-2.302-3.54-1.262-6.927-2.469-11.037-2.469-13.78 0-18.197 15.459-18.02 20.538V5.764c0 35.299 28.709 44.831 42.401 45.184 13.692-.353 42.401-9.885 42.401-45.184V-30.41c.177-5.079-4.24-20.538-18.02-20.538-4.11 0-7.497 1.207-11.037 2.469C9.466-47.096 5.403-46.177 0-46.177z" style="display:block" transform="matrix(4.03068 0 0 3.96695 324.126 212.476)"/><g style="display:block"><path fill="#8EE000" d="m342.488 347.307 41.198-6.138c2.21-.327 3.98 1.301 3.504 3.219-2.3 9.213-11.15 16.661-22.036 18.281-10.886 1.62-21.092-2.986-25.345-11.224-.887-1.715.47-3.81 2.679-4.138z"/><path fill="#89E219" d="M344.685 373.127c-15.803-.083-21.802 0-37.803-.002-13.998 0 2 13.917 18 13.92 16.002.001 30.536-13.863 19.803-13.918z"/><path fill="#8EE000" d="m268.486 341.419 41.323 5.223c2.216.282 3.481 2.328 2.505 4.046-4.704 8.249-15.237 13.029-26.156 11.647-10.92-1.382-19.502-8.575-21.37-17.656-.39-1.89 1.482-3.542 3.698-3.26z"/></g><path fill="#F49000" d="M0-9.58a7.15 7.15 0 0 0-7.149 7.149v4.862a7.15 7.15 0 0 0 14.298 0v-4.862A7.15 7.15 0 0 0 0-9.58z" style="display:block" transform="rotate(-43.853 604.788 -102.603) scale(4)"/><path fill="#F49000" d="M0-9.58a7.15 7.15 0 0 0-7.149 7.149v4.862a7.15 7.15 0 0 0 14.298 0v-4.862A7.15 7.15 0 0 0 0-9.58z" style="display:block" transform="scale(-4 4) rotate(-51.878 46.966 157.618)"/><path fill="#58CC02" d="M170.5-27c-23 84 9.118 99.5-58.5 99.5-94.5 0-79.5 67-31.5 77.5 76 5 93-30 90-177z" style="display:block" transform="matrix(1.00763 -.00924 .00939 .9917 322.66 244.991)"/><path fill="none" stroke="#58A700" stroke-linecap="round" stroke-width="10" d="M153.543 63.923C147.85 70.475 136.44 72.5 112 72.5c-85.16 0-81.395 54.41-44.692 72.85" style="display:block" transform="matrix(1.00763 -.00924 .00939 .9917 327.688 243.953)"/><g clip-path="url(#bv)" style="display:block" transform="matrix(1.00767 0 0 .99174 100.8 7.962)"><path fill="#89E219" d="M9.372-13.906c-5.343 4.932-13.893 4.932-18.743 0-3.206-3.288-2.877 6.248.987 28.444h8.303c5.754-.082 8.631 0 8.631 0 0 .164 6.165-33.376.822-28.444z" style="display:block" transform="matrix(4 0 0 4 221.832 193.013)"/><path fill="#89E219" d="M-8.312 5.786 4.759-8.765c.74-.74 1.973-.657 2.384.329 2.548 4.357 1.973 9.865-1.48 13.729C2.21 9.157-3.215 10.307-7.819 8.252c-.904-.493-1.233-1.726-.493-2.466z" style="display:block" transform="matrix(4 0 0 4 316.573 135.621)"/><path fill="#89E219" d="M-8.312 5.748 4.759-8.72c.658-.74 1.891-.657 2.384.247 2.548 4.357 1.973 9.864-1.48 13.728C2.21 9.119-3.215 10.269-7.819 8.214c-.904-.493-1.233-1.726-.493-2.466z" style="display:block" transform="matrix(4 0 0 4 286.321 121.631)"/><path fill="#89E219" d="M8.32 5.748-4.997-8.72c-.74-.74-1.645-.657-2.22.247-2.466 4.357-1.891 9.864 1.562 13.728 3.453 3.864 8.878 5.014 13.482 2.959.904-.493 1.233-1.726.493-2.466z" style="display:block" transform="matrix(4 0 0 4 158.303 121.631)"/><path fill="#89E219" d="M8.312 5.786-4.677-8.765c-.74-.74-1.973-.657-2.466.329-2.548 4.357-1.973 9.865 1.48 13.729 3.453 3.864 8.878 5.014 13.482 2.959.904-.493 1.233-1.726.493-2.466z" style="display:block" transform="matrix(4 0 0 4 127.756 135.621)"/><path fill="#89E219" d="M-1.434-22.041c10.908-.904 19.919 8.391 18.676 19.266L16.098 7.226A16.782 16.782 0 0 1 .499 22.067c-9.671.62-17.855-7.056-17.855-16.747V-4.746c0-9.029 6.923-16.55 15.922-17.295z" style="display:block" transform="matrix(4 0 0 4 309.426 207.15)"/><path fill="#89E219" d="M1.434-22.041c-10.908-.904-19.919 8.391-18.676 19.266l1.144 10.001A16.782 16.782 0 0 0-.499 22.067c9.671.62 17.855-7.056 17.855-16.747V-4.746c0-9.029-6.923-16.55-15.922-17.295z" style="display:block" transform="matrix(4 0 0 4 134.574 207.15)"/><path fill="#FFF" d="M1.871-15.593c-7.624-1.22-14.356 5.066-13.663 12.755l.733 8.136a11.474 11.474 0 0 0 9.385 10.26c7.04 1.273 13.515-4.136 13.515-11.29v-8.169a11.841 11.841 0 0 0-9.97-11.692z" style="display:block" transform="matrix(4 0 0 4 136.635 207.989)"/><g mask="url(#bw)" style="display:block"><path fill="#4B4B4B" d="M147.439 167c-14.64 0-26.024 12.724-24.408 27.272l2.676 24.072c1.308 11.76 11.244 20.656 23.076 20.656 12.824 0 23.216-10.396 23.216-23.22v-24.22c0-13.564-10.996-24.56-24.56-24.56z"/></g><g mask="url(#bx)" style="display:block"><path fill="#FFF" d="M124.797 196.593c8.172 0 14.796-6.624 14.796-14.796s-6.624-14.796-14.796-14.796-14.796 6.624-14.796 14.796 6.624 14.796 14.796 14.796z"/></g><path fill="#FFF" d="M-1.871-15.593c7.624-1.22 14.356 5.066 13.663 12.755l-.733 8.136a11.474 11.474 0 0 1-9.385 10.26c-7.04 1.273-13.515-4.136-13.515-11.29v-8.169a11.841 11.841 0 0 1 9.97-11.692z" style="display:block" transform="matrix(4 0 0 4 307.365 207.989)"/><g mask="url(#by)" style="display:block"><path fill="#4B4B4B" d="M296.561 167c-13.564 0-24.56 10.996-24.56 24.56v24.22c0 12.824 10.392 23.22 23.216 23.22 11.832 0 21.768-8.896 23.076-20.656l2.676-24.072c1.616-14.548-9.768-27.272-24.408-27.272z"/></g><g mask="url(#bz)" style="display:block"><path fill="#FFF" d="M274.797 196.593c8.172 0 14.796-6.624 14.796-14.796s-6.624-14.796-14.796-14.796-14.796 6.624-14.796 14.796a14.77 14.77 0 0 0 5.56 11.56 14.745 14.745 0 0 0 9.236 3.236z"/></g><g style="display:block"><path fill="#F49000" d="M247.153 247.878c0-13.48-11.18-24.664-24.66-24.664s-24.66 11.184-24.66 24.664v7.888c0 13.48 11.18 24.664 24.66 24.664s24.66-11.184 24.66-24.664v-7.888z"/><path fill="#B06800" d="M240.499 240c0-7.932-8.164-14.508-18.008-14.508s-18.008 6.576-18.008 14.508v4.64c0 7.932 8.164 14.508 18.008 14.508s18.008-6.576 18.008-14.508V240z"/></g><path fill="#F49000" d="M24.103-7.369V7.369c0 13.302-10.8 24.103-24.103 24.103-13.302 0-24.103-10.8-24.103-24.103V-7.369c0-13.302 10.8-24.103 24.103-24.103 13.302 0 24.103 10.8 24.103 24.103z" style="display:block" transform="matrix(1.05117 0 0 .43 222.503 247.406)"/><path fill="#A96606" d="M25.066-5.497V5.497c0 12.693-10.307 23-23 23h-4.132c-12.693 0-23-10.307-23-23V-5.497c0-12.693 10.307-23 23-23h4.132c12.693 0 23 10.307 23 23z" style="display:block" transform="matrix(.75 0 0 .38346 222.902 244.205)"/><g mask="url(#bA)" style="display:block"><path fill="#FFCAFF" d="M222.114 248.93c10.82 0 19.605 3.229 19.605 7.205 0 3.977-8.785 7.206-19.605 7.206s-19.605-3.229-19.605-7.206c0-3.976 8.785-7.205 19.605-7.205z"/></g><path fill="#FFC200" d="M.164-4.816c-4.275 0-7.891 2.796-8.631 6.577v.328c0 .247.082.329.329.329L.273 4.827c.164 0 7.865-2.409 7.865-2.409.247.082.329-.082.329-.329v-.328C7.727-1.938 4.192-4.816.164-4.816z" style="display:block" transform="matrix(4 0 0 4 222.164 242.477)"/><path fill="none" stroke="#FFDE00" stroke-linecap="round" stroke-width="15.445" d="M-18.807 38.848c2.522-1.54 9.117-3.012 14.974-.122" style="display:block" transform="rotate(1.719 -6491.107 7927.82)"/></g><g clip-path="url(#bB)" style="display:block" transform="matrix(-.36371 -.51209 .52031 -.35796 376.654 433.586)"><path fill="#FFBEE5" d="M-7.109-12.343a4 4 0 0 0-4 4V8.343a4 4 0 0 0 4 4H7.109a4 4 0 0 0 4-4V-8.343a4 4 0 0 0-4-4H-7.109z" style="display:block" transform="matrix(4 0 0 4 105.436 220.833)"/><path fill="#FFEDBF" d="M-10.273-14.877a3.293 3.293 0 0 0-.836 2.192v37.832h22.218v-37.832c0-.809-.298-1.589-.836-2.192l-8.431-9.445a2.469 2.469 0 0 0-3.684 0l-8.431 9.445z" style="display:block" transform="matrix(4 0 0 4 105.436 128.088)"/><path fill="#FFDE32" d="M-11.109-17.703c0-.191.017-.379.049-.565l3.716 2.445c.516.34 1.18.361 1.717.056l4.815-2.731a1.644 1.644 0 0 1 1.624 0l4.815 2.731a1.645 1.645 0 0 0 1.717-.056l3.716-2.445c.032.186.049.374.049.565v36.415h-22.218v-36.415z" style="display:block" transform="matrix(4 0 0 4 105.436 148.159)"/><path fill="none" stroke="#FFC000" stroke-linecap="round" stroke-width="2.469" d="M0 9.265v-18.53" style="display:block" transform="matrix(4 0 0 4 86.51 148.061)"/><path fill="#606060" d="M-.023 2.377c1.57 0 3.03-.469 4.249-1.274L1.855-1.552a2.468 2.468 0 0 0-3.683 0l-2.398 2.686A7.687 7.687 0 0 0-.023 2.377z" style="display:block" transform="matrix(4 0 0 4 105.382 37.008)"/><path fill="#C4C4C4" d="M11.109-2.52h-22.218v5.04h22.218v-5.04z" style="display:block" transform="matrix(4 0 0 4 105.436 221.162)"/><path fill="none" stroke="#FFC000" stroke-linecap="round" stroke-width="2.469" d="M0 9.265v-18.53" style="display:block" transform="matrix(4 0 0 4 124.362 148.061)"/></g><g clip-path="url(#bC)" style="display:block" transform="matrix(.50368 .0123 -.0125 .49572 83.654 200.792)"><path fill="#D9D9D9" d="M-11.5-148c-38.5-4.5-39 29.5-39 29.5s93 45.5 93 17.5-15.5-42.5-54-47z" style="display:block" transform="translate(316 310)"/><path fill="#CD7900" d="M-103-128s-19.5-5.5-20.75 8.5C-124.749-108.317-105.5 25-100.5 67s4 56 14 62.5 85.5 17 85.5 17L116 169s20.5 5 19-12-16.5-232-16.5-232 3-16.5-22-21S-103-128-103-128z" style="display:block" transform="translate(316 310)"/></g><path fill="#58CC02" d="M-177-6.5c-56.5 151.5 34.647 166.835 57.609 159.526 18.891-6.013 24.276-21.826 25.891-31.513 2.5-15-27.5-28-54-47.5C-170.739 56.912-177 1.5-177-6.5z" style="display:block" transform="matrix(1.00763 .00924 -.00939 .9917 332.693 246.072)"/></g></g></svg>