<svg xmlns="http://www.w3.org/2000/svg" xmlns:xlink="http://www.w3.org/1999/xlink" width="916" height="939" style="width:100%;height:100%;transform:translate3d(0,0,0);content-visibility:visible"><defs><clipPath id="f"><path d="M0 0h916v939H0z"/></clipPath><clipPath id="H"><path d="M0 0h916v939H0z"/></clipPath><clipPath id="ad"><path d="M0 0h42v76H0z"/></clipPath><clipPath id="ac"><path d="M0 0h42v76H0z"/></clipPath><clipPath id="ab"><path d="M0 0h632v620H0z"/></clipPath><clipPath id="aa"><path d="M0 0h916v939H0z"/></clipPath><clipPath id="Z"><path d="M0 0h916v939H0z"/></clipPath><clipPath id="Y"><path d="M0 0h916v939H0z"/></clipPath><clipPath id="X"><path d="M0 0h916v939H0z"/></clipPath><clipPath id="W"><path d="M0 0h916v939H0z"/></clipPath><clipPath id="V"><path d="M0 0h834v773H0z"/></clipPath><clipPath id="M"><path d="M0 0h440v476H0z"/></clipPath><clipPath id="U"><path d="M0 0h440v476H0z"/></clipPath><clipPath id="T"><path d="M0 0h440v476H0z"/></clipPath><clipPath id="S"><path d="M0 0h440v476H0z"/></clipPath><clipPath id="L"><path d="M0 0h440v476H0z"/></clipPath><clipPath id="K"><path d="M0 0h440v476H0z"/></clipPath><clipPath id="J"><path d="M0 0h374v367H0z"/></clipPath><clipPath id="I"><path d="M0 0h374v367H0z"/></clipPath><clipPath id="g"><path d="M0 0h916v939H0z"/></clipPath><clipPath id="G"><path d="M0 0h1080v1920H0z"/></clipPath><clipPath id="F"><path d="M0 0h834v773H0z"/></clipPath><clipPath id="B"><path d="M0 0h440v476H0z"/></clipPath><clipPath id="E"><path d="M0 0h440v476H0z"/></clipPath><clipPath id="D"><path d="M0 0h440v476H0z"/></clipPath><clipPath id="C"><path d="M0 0h440v476H0z"/></clipPath><clipPath id="x"><path d="M0 0h440v476H0z"/></clipPath><clipPath id="A"><path d="M0 0h440v476H0z"/></clipPath><clipPath id="z"><path d="M0 0h440v476H0z"/></clipPath><clipPath id="y"><path d="M0 0h440v476H0z"/></clipPath><clipPath id="t"><path d="M0 0h440v476H0z"/></clipPath><clipPath id="w"><path d="M0 0h440v476H0z"/></clipPath><clipPath id="v"><path d="M0 0h440v476H0z"/></clipPath><clipPath id="u"><path d="M0 0h440v476H0z"/></clipPath><clipPath id="p"><path d="M0 0h440v476H0z"/></clipPath><clipPath id="s"><path d="M0 0h440v476H0z"/></clipPath><clipPath id="r"><path d="M0 0h440v476H0z"/></clipPath><clipPath id="q"><path d="M0 0h440v476H0z"/></clipPath><clipPath id="l"><path d="M0 0h440v476H0z"/></clipPath><clipPath id="o"><path d="M0 0h440v476H0z"/></clipPath><clipPath id="n"><path d="M0 0h440v476H0z"/></clipPath><clipPath id="m"><path d="M0 0h440v476H0z"/></clipPath><clipPath id="h"><path d="M0 0h440v476H0z"/></clipPath><clipPath id="k"><path d="M0 0h440v476H0z"/></clipPath><clipPath id="j"><path d="M0 0h440v476H0z"/></clipPath><clipPath id="i"><path d="M0 0h440v476H0z"/></clipPath><path id="a" fill="#A96606" d="M25.066-5.497V5.497c0 12.693-10.307 23-23 23h-4.132c-12.693 0-23-10.307-23-23V-5.497c0-12.693 10.307-23 23-23h4.132c12.693 0 23 10.307 23 23z" style="display:block" transform="matrix(.75 0 0 1.04337 222.902 261.737)"/><path id="b" fill="#FFF" d="M-1.871-15.593c7.624-1.22 14.356 5.066 13.663 12.755l-.733 8.136a11.474 11.474 0 0 1-9.385 10.26c-7.04 1.273-13.515-4.136-13.515-11.29v-8.169a11.841 11.841 0 0 1 9.97-11.692z" style="display:block" transform="matrix(4 0 0 4 307.365 207.989)"/><path id="e" fill="#FFF" d="M-1.871-15.593c7.624-1.22 14.356 5.066 13.663 12.755l-.733 8.136a11.474 11.474 0 0 1-9.385 10.26c-7.04 1.273-13.515-4.136-13.515-11.29v-8.169a11.841 11.841 0 0 1 9.97-11.692z" style="display:block" transform="matrix(4 0 0 4 307.365 207.989)"/><path id="c" fill="#FFF" d="M1.871-15.593c-7.624-1.22-14.356 5.066-13.663 12.755l.733 8.136a11.474 11.474 0 0 0 9.385 10.26c7.04 1.273 13.515-4.136 13.515-11.29v-8.169a11.841 11.841 0 0 0-9.97-11.692z" style="display:block" transform="matrix(4 0 0 4 136.635 207.989)"/><path id="d" fill="#FFF" d="M1.871-15.593c-7.624-1.22-14.356 5.066-13.663 12.755l.733 8.136a11.474 11.474 0 0 0 9.385 10.26c7.04 1.273 13.515-4.136 13.515-11.29v-8.169a11.841 11.841 0 0 0-9.97-11.692z" style="display:block" transform="matrix(4 0 0 4 136.635 207.989)"/><mask id="R" mask-type="alpha"><use xlink:href="#a"/></mask><mask id="Q" mask-type="alpha"><use xlink:href="#b"/></mask><mask id="O" mask-type="alpha"><use xlink:href="#c"/></mask><mask id="N" mask-type="alpha"><use xlink:href="#d"/></mask><mask id="P" mask-type="alpha"><use xlink:href="#e"/></mask></defs><g clip-path="url(#f)"><g class="1-4_02" clip-path="url(#H)" style="display:block"><g opacity=".3"><path fill="#AFAFAF" d="M0 37.947c26.916 0 48.736-16.99 48.736-37.947 0-20.957-21.82-37.947-48.736-37.947-26.916 0-48.736 16.99-48.736 37.947 0 20.957 21.82 37.947 48.736 37.947z" opacity="1" style="display:block" transform="matrix(3.12 0 0 3.12 448.687 816.778)"/></g><path fill="#58CC02" d="M0-46.177c-5.403 0-9.466-.919-13.344-2.302-3.54-1.262-6.927-2.469-11.037-2.469-13.78 0-18.197 15.459-18.02 20.538V5.764c0 35.299 28.709 44.831 42.401 45.184 13.692-.353 42.401-9.885 42.401-45.184V-30.41c.177-5.079-4.24-20.538-18.02-20.538-4.11 0-7.497 1.207-11.037 2.469C9.466-47.096 5.403-46.177 0-46.177z" style="display:block" transform="rotate(-9 4814.978 -2326.542) scale(3.12)"/><g style="display:block"><path fill="#58CC02" d="M251.847 733.663c-20.53 4.359-8.227 37.756 12.269 59.392 19.062 20.125 45.52 30.224 54.249 28.006l138.852.408-7.852-126.992s-176.988 34.826-197.518 39.186z"/></g><g clip-path="url(#J)" style="display:block" transform="scale(.4142) rotate(-17.077 5946.157 -73.635)"><path fill="#CD7900" d="M31.5-30.57v61.14c0 2.208-1.792 4-4 4h-55c-2.208 0-4-1.792-4-4v-61.14c0-2.208 1.792-4 4-4h55c2.208 0 4 1.792 4 4z" style="display:block" transform="matrix(4 0 0 4 184.864 201.935)"/><path fill="#FFF9EC" d="M22.73-26.14v52.28a1 1 0 0 1-1 1h-43.46a1 1 0 0 1-1-1v-52.28a1 1 0 0 1 1-1h43.46a1 1 0 0 1 1 1z" style="display:block" transform="matrix(4 0 0 4 185.704 191.334)"/><path fill="#D9D9D9" d="M18.104-4.779h-36.208v9.558h36.208v-9.558z" style="display:block" transform="matrix(4 0 0 4 184.399 81.115)"/><g style="display:block"><path fill="#D9D9D9" d="M209.184 48.975c0 13.665-11.095 24.76-24.76 24.76-13.665 0-24.76-11.095-24.76-24.76 0-13.665 11.095-24.76 24.76-24.76 13.665 0 24.76 11.095 24.76 24.76z"/><path fill="none" stroke="#D9D9D9" stroke-width="32" d="M209.184 48.975c0 13.665-11.095 24.76-24.76 24.76-13.665 0-24.76-11.095-24.76-24.76 0-13.665 11.095-24.76 24.76-24.76 13.665 0 24.76 11.095 24.76 24.76z"/></g></g><path fill="#58CC02" d="M-14.824 10.439C-17.636 16.55-5.091 21.65 4.03 18.811c7.638-2.378 17.334-7.52 18.436-10.188L53.21-27.958 12.938-47.826s-24.95 52.154-27.762 58.265z" style="display:block" transform="scale(-3.12 3.12) rotate(69.302 -252.147 -11.045)"/><g style="display:block"><path fill="#8EE000" d="m451.724 827.881 30.99-9.755c1.662-.522 3.225.516 3.092 2.051-.647 7.379-6.556 14.197-14.745 16.773-8.19 2.577-16.615.274-20.896-5.554-.892-1.213-.103-2.993 1.56-3.515z"/><path fill="#89E219" d="M456.568 847.505c-12.186 1.864-16.797 2.66-29.124 4.61-10.784 1.708 3.238 10.478 15.566 8.528 12.327-1.951 21.832-14.406 13.558-13.138z"/><path fill="#8EE000" d="m393.994 832.374 32.473-1.018c1.742-.053 2.966 1.369 2.423 2.811-2.617 6.93-10.148 11.897-18.73 12.165-8.58.267-16.07-4.227-18.616-10.995-.532-1.409.709-2.91 2.45-2.963z"/></g><g clip-path="url(#K)" style="display:block" transform="rotate(-9 3803.183 -1144.064) scale(.78)"><path fill="#89E219" d="M9.372-13.906c-5.343 4.932-13.893 4.932-18.743 0-3.206-3.288-2.877 6.248.987 28.444h8.303c5.754-.082 8.631 0 8.631 0 0 .164 6.165-33.376.822-28.444z" style="display:block" transform="matrix(4 0 0 4 221.832 193.013)"/><path fill="#89E219" d="M-8.312 5.786 4.759-8.765c.74-.74 1.973-.657 2.384.329 2.548 4.357 1.973 9.865-1.48 13.729C2.21 9.157-3.215 10.307-7.819 8.252c-.904-.493-1.233-1.726-.493-2.466z" style="display:block" transform="matrix(4 0 0 4 316.573 135.621)"/><path fill="#89E219" d="M-8.312 5.748 4.759-8.72c.658-.74 1.891-.657 2.384.247 2.548 4.357 1.973 9.864-1.48 13.728C2.21 9.119-3.215 10.269-7.819 8.214c-.904-.493-1.233-1.726-.493-2.466z" style="display:block" transform="matrix(4 0 0 4 286.321 121.631)"/><path fill="#89E219" d="M8.32 5.748-4.997-8.72c-.74-.74-1.645-.657-2.22.247-2.466 4.357-1.891 9.864 1.562 13.728 3.453 3.864 8.878 5.014 13.482 2.959.904-.493 1.233-1.726.493-2.466z" style="display:block" transform="matrix(4 0 0 4 158.303 121.631)"/><path fill="#89E219" d="M8.312 5.786-4.677-8.765c-.74-.74-1.973-.657-2.466.329-2.548 4.357-1.973 9.865 1.48 13.729 3.453 3.864 8.878 5.014 13.482 2.959.904-.493 1.233-1.726.493-2.466z" style="display:block" transform="matrix(4 0 0 4 127.756 135.621)"/><path fill="#89E219" d="M-1.434-22.041c10.908-.904 19.919 8.391 18.676 19.266L16.098 7.226A16.782 16.782 0 0 1 .499 22.067c-9.671.62-17.855-7.056-17.855-16.747V-4.746c0-9.029 6.923-16.55 15.922-17.295z" style="display:block" transform="matrix(4 0 0 4 309.426 207.15)"/><path fill="#89E219" d="M1.434-22.041c-10.908-.904-19.919 8.391-18.676 19.266l1.144 10.001A16.782 16.782 0 0 0-.499 22.067c9.671.62 17.855-7.056 17.855-16.747V-4.746c0-9.029-6.923-16.55-15.922-17.295z" style="display:block" transform="matrix(4 0 0 4 134.574 207.15)"/><g style="display:block"><path fill="#F49000" d="M247.153 247.878c0-13.48-11.18-24.664-24.66-24.664s-24.66 11.184-24.66 24.664v7.888c0 13.48 11.18 24.664 24.66 24.664s24.66-11.184 24.66-24.664v-7.888z"/><path fill="#B06800" d="M240.499 240c0-7.932-8.164-14.508-18.008-14.508s-18.008 6.576-18.008 14.508v4.64c0 7.932 8.164 14.508 18.008 14.508s18.008-6.576 18.008-14.508V240z"/></g><path fill="#F49000" d="M24.103-7.369V7.369c0 13.302-10.8 24.103-24.103 24.103-13.302 0-24.103-10.8-24.103-24.103V-7.369c0-13.302 10.8-24.103 24.103-24.103 13.302 0 24.103 10.8 24.103 24.103z" style="display:block" transform="matrix(1.05117 0 0 1.17 222.503 270.448)"/><path fill="#A96606" d="M25.066-5.497V5.497c0 12.693-10.307 23-23 23h-4.132c-12.693 0-23-10.307-23-23V-5.497c0-12.693 10.307-23 23-23h4.132c12.693 0 23 10.307 23 23z" style="display:block" transform="matrix(.75 0 0 1.04337 222.902 261.737)"/><path fill="#FFCAFF" d="M2.438 36.875c-11 0-15.25 6.937-15.25 6.937s4.187 9.876 15.187 9.876c12.25 0 15.75-9.563 15.75-9.563s-4.749-7.25-15.687-7.25z" style="display:block" transform="matrix(1 0 0 1 219.998 238)"/><g style="display:block"><path fill="none" stroke="#58A700" stroke-linecap="round" stroke-width="13" d="M179 223s0 0 0 0c0-16.557-13.443-30-30-30-16.557 0-30 13.443-30 30 0 0 0 0 0 0M324.031 223s0 0 0 0c0-16.557-13.443-30-30-30-16.557 0-30 13.443-30 30 0 0 0 0 0 0"/></g><path fill="#FFC200" d="M.164-4.816c-4.275 0-7.891 2.796-8.631 6.577v.328c0 .247.082.329.329.329L.273 4.827c.164 0 7.865-2.409 7.865-2.409.247.082.329-.082.329-.329v-.328C7.727-1.938 4.192-4.816.164-4.816z" style="display:block" transform="matrix(4 0 0 4 222.164 242.477)"/><path fill="none" stroke="#FFDE00" stroke-linecap="round" stroke-width="15.445" d="M-18.807 38.848c2.522-1.54 9.117-3.012 14.974-.122" style="display:block" transform="rotate(1.719 -6491.107 7927.82)"/></g><path fill="#F49000" d="M0-9.58a7.15 7.15 0 0 0-7.149 7.149v4.862a7.15 7.15 0 0 0 14.298 0v-4.862A7.15 7.15 0 0 0 0-9.58z" style="display:block" transform="rotate(-63.853 875.61 143.12) scale(3.12)"/><path fill="#F49000" d="M0-9.58a7.15 7.15 0 0 0-7.149 7.149v4.862a7.15 7.15 0 0 0 14.298 0v-4.862A7.15 7.15 0 0 0 0-9.58z" style="display:block" transform="scale(-3.12 3.12) rotate(-58.853 160.67 287.992)"/><g clip-path="url(#W)" style="display:block" transform="matrix(.75 0 0 .75 154.5 197.375)"><path fill="#FFE977" d="M0-100s3.83 45.848 28.991 71.009C54.152-3.831 100 0 100 0S54.152 3.83 28.991 28.991C3.831 54.152 0 100 0 100s-3.83-45.848-28.991-71.009C-54.152 3.831-100 0-100 0s45.848-3.83 71.009-28.991C-3.831-54.152 0-100 0-100z" style="display:block" transform="matrix(.42718 0 0 .42718 582 513.5)"/></g><g clip-path="url(#X)" style="display:block" transform="matrix(.75 0 0 .75 246.5 339.375)"><path fill="#FFE977" d="M0-100s3.83 45.848 28.991 71.009C54.152-3.831 100 0 100 0S54.152 3.83 28.991 28.991C3.831 54.152 0 100 0 100s-3.83-45.848-28.991-71.009C-54.152 3.831-100 0-100 0s45.848-3.83 71.009-28.991C-3.831-54.152 0-100 0-100z" style="display:block" transform="matrix(.4691 0 0 .4691 582 513.5)"/></g><g clip-path="url(#Y)" style="display:block" transform="matrix(.46 0 0 .46 385.32 549.53)"><path fill="#FFE977" d="M0-100s3.83 45.848 28.991 71.009C54.152-3.831 100 0 100 0S54.152 3.83 28.991 28.991C3.831 54.152 0 100 0 100s-3.83-45.848-28.991-71.009C-54.152 3.831-100 0-100 0s45.848-3.83 71.009-28.991C-3.831-54.152 0-100 0-100z" style="display:block" transform="matrix(.00567 0 0 .00567 582 513.5)"/></g><g clip-path="url(#Z)" style="display:block" transform="matrix(.46 0 0 .46 -156.68 533.53)"><path fill="#FFE977" d="M0-100s3.83 45.848 28.991 71.009C54.152-3.831 100 0 100 0S54.152 3.83 28.991 28.991C3.831 54.152 0 100 0 100s-3.83-45.848-28.991-71.009C-54.152 3.831-100 0-100 0s45.848-3.83 71.009-28.991C-3.831-54.152 0-100 0-100z" style="display:block" transform="matrix(0 0 0 0 582 513.5)"/></g><g clip-path="url(#aa)" style="display:block" transform="matrix(.64 0 0 .64 -235.12 331.02)"><path fill="#FFE977" d="M0-100s3.83 45.848 28.991 71.009C54.152-3.831 100 0 100 0S54.152 3.83 28.991 28.991C3.831 54.152 0 100 0 100s-3.83-45.848-28.991-71.009C-54.152 3.831-100 0-100 0s45.848-3.83 71.009-28.991C-3.831-54.152 0-100 0-100z" style="display:block" transform="matrix(0 0 0 0 582 513.5)"/></g><g clip-path="url(#ac)" style="display:block" transform="rotate(14.655 -2026.23 2576.653) scale(2.307)"><path fill="#FFBEE5" d="M-7.109-12.343a4 4 0 0 0-4 4V8.343a4 4 0 0 0 4 4H7.109a4 4 0 0 0 4-4V-8.343a4 4 0 0 0-4-4H-7.109z" style="display:block" transform="translate(21.109 55.333)"/><path fill="#FFEDBF" d="M-10.273-14.877a3.293 3.293 0 0 0-.836 2.192v37.832h22.218v-37.832c0-.809-.298-1.589-.836-2.192l-8.431-9.445a2.469 2.469 0 0 0-3.684 0l-8.431 9.445z" style="display:block" transform="translate(21.109 32.147)"/><path fill="#FFDE32" d="M-11.109-17.703c0-.191.017-.379.049-.565l3.716 2.445c.516.34 1.18.361 1.717.056l4.815-2.731a1.644 1.644 0 0 1 1.624 0l4.815 2.731a1.645 1.645 0 0 0 1.717-.056l3.716-2.445c.032.186.049.374.049.565v36.415h-22.218v-36.415z" style="display:block" transform="translate(21.109 37.165)"/><path fill="none" stroke="#FFC000" stroke-linecap="round" stroke-width="2.469" d="M0 9.265v-18.53" style="display:block" transform="translate(16.377 37.14)"/><path fill="#606060" d="M-.023 2.377c1.57 0 3.03-.469 4.249-1.274L1.855-1.552a2.468 2.468 0 0 0-3.683 0l-2.398 2.686A7.687 7.687 0 0 0-.023 2.377z" style="display:block" transform="translate(21.095 9.377)"/><path fill="#C4C4C4" d="M11.109-2.52h-22.218v5.04h22.218v-5.04z" style="display:block" transform="translate(21.109 55.415)"/><path fill="none" stroke="#FFC000" stroke-linecap="round" stroke-width="2.469" d="M0 9.265v-18.53" style="display:block" transform="translate(25.841 37.14)"/></g></g></g></svg>