<svg xmlns="http://www.w3.org/2000/svg" xmlns:xlink="http://www.w3.org/1999/xlink" viewBox="0 0 1080 1080"><defs><linearGradient id="a" x1="-142.457" x2="141.191" y1="-144.758" y2="147.93" gradientUnits="userSpaceOnUse" spreadMethod="pad"><stop offset="0%" stop-color="#FFC100"/><stop offset="50%" stop-color="#FFB200"/><stop offset="100%" stop-color="#FFA300"/></linearGradient><linearGradient id="e" x1="-142.457" x2="141.191" y1="-144.758" y2="147.93" gradientUnits="userSpaceOnUse" spreadMethod="pad"><stop offset="0%" stop-color="#FFC100"/><stop offset="50%" stop-color="#FFB200"/><stop offset="100%" stop-color="#FFA300"/></linearGradient><clipPath id="c"><path d="M0 0h1080v1080H0z"/></clipPath><clipPath id="d"><path d="M0 0h1080v1080H0z"/></clipPath><mask id="g"><path fill="#fff" d="M0 0h1080v1080H0z"/><path d="m-120.003 21.34 107.741-38.095c5.601-2.15 11.67 1.793 11.988 7.785C1.25 19.823-14.634 48.78-42.24 59.373c-27.607 10.593-58.569 2.188-76.71-20.229-3.775-4.664-6.653-15.655-1.053-17.804"/><path d="m67.009-109.019-73.54 88.725c-3.935 4.529-2.307 11.581 3.216 13.928C23.22 4.914 55.997-.201 75.393-22.52c19.396-22.318 23.212-55.163 8.353-79.877-3.093-5.143-12.801-11.15-16.737-6.622M115.529 1.568c-6.74-1.461-12.887 5.326-14.345 12.067l-.018.084-5.798 19.127c-1.422 6.812 4.382 13.904 13.971 16.216 6.705 1.617 13.387-2.824 14.844-9.565.006-.029.013-.057.018-.086l4.048-19.375c1.423-6.813-1.499-16.036-12.72-18.468"/><path d="M-83.457-55.372c20.644-4.398 33.914-8.663 39.811-12.792 5.859-4.102 14.262-14.948 25.21-32.536 7.32-11.762 22.788-15.361 34.55-8.041a25.094 25.094 0 0 1 7.292 6.908l49.603 65.568C96.618-2.548 84.923 44.056 51.207 67.665 17.489 91.275-30.848 84.716-54.457 50.999L-83.526 3.298c-7.946-11.348-20.438-46.738-9.09-54.685a25.12 25.12 0 0 1 9.159-3.985M-32.191 105.388c.789-6.85 8.484-9.863 15.317-8.927l.087.012 19.091-.176c6.889.992 12.185 11.358 11.241 18.252-.937 6.834-7.234 11.614-14.067 10.678l-.087-.012-19.591-2.823c-6.889-.994-13.3-5.642-11.991-17.004"/></mask><mask id="f" mask-type="alpha"><use xlink:href="#b"/></mask><path id="b" fill="url(#a)" d="m-17.59-194.75-23.559 19.16a13.943 13.943 0 0 1-11.006 2.952l-29.985-4.817c-13.042-2.097-25.762 5.249-30.468 17.587l-10.82 28.382a13.92 13.92 0 0 1-8.054 8.055l-28.381 10.825c-12.338 4.7-19.683 17.42-17.587 30.462l4.817 29.985a13.93 13.93 0 0 1-2.952 11.006l-19.161 23.562A27.824 27.824 0 0 0-201-.216v.432a27.815 27.815 0 0 0 6.254 17.371l19.161 23.565a13.926 13.926 0 0 1 2.952 11.001l-4.817 29.985c-2.096 13.043 5.249 25.758 17.587 30.468l28.381 10.815a13.97 13.97 0 0 1 8.054 8.06l10.82 28.381c4.706 12.339 17.426 19.684 30.468 17.593l29.985-4.822a13.958 13.958 0 0 1 11.006 2.952l23.559 19.161A27.827 27.827 0 0 0-.219 201h.438a27.83 27.83 0 0 0 17.371-6.254l23.559-19.161a13.935 13.935 0 0 1 11.001-2.952l29.99 4.822c13.041 2.091 25.757-5.254 30.463-17.593l10.819-28.381a13.997 13.997 0 0 1 8.06-8.06l28.381-10.815c12.333-4.71 19.683-17.425 17.582-30.468l-4.811-29.985a13.922 13.922 0 0 1 2.951-11.001l19.161-23.565A27.823 27.823 0 0 0 201 .216v-.432a27.832 27.832 0 0 0-6.254-17.375l-19.161-23.562a13.926 13.926 0 0 1-2.951-11.006l4.811-29.985c2.101-13.042-5.249-25.762-17.582-30.462l-28.381-10.825a13.947 13.947 0 0 1-8.06-8.055l-10.819-28.382c-4.706-12.338-17.422-19.684-30.463-17.587l-29.99 4.817a13.92 13.92 0 0 1-11.001-2.952L17.59-194.75A27.82 27.82 0 0 0-.003-201a27.816 27.816 0 0 0-17.587 6.25z" style="display:block" transform="translate(540 540)"/></defs><g clip-path="url(#c)"><g style="display:block"><path fill="#FF9700" d="M559 865.25c-.342-8.552-71.25.75-71.25.75S203.052 929.372 204 947.375c.375 7.125 3.172 8.253 10.625 14.5 8.5 7.125 21.125 19.75 33.875 16.25s262-66.875 286.75-73.625c15.57-4.246 20.125-8.25 21.59-19.442.756-5.772 2.285-16.683 2.16-19.808z"/><path fill="#FFB34A" d="m419.643 618.034 137.493 240.52c4.18 7.71 2.24 20.072-11.522 23.736L227.382 962.59c-12.632 3.41-22.684-6.436-23.535-16.023l-6.414-281.994c-.76-9.565 3.52-19.197 12.504-20.736l188.971-38.307c9.793-.677 15.812 3.871 20.735 12.505z"/><path fill="#FFF" d="m412.475 625.818 130.119 225.228c3.906 7.204-3.358 17.253-11.935 19.377L234.33 945.226c-10.08 2.524-21.08-2.977-21.876-11.935l-5.994-265.853c-.71-8.938 3.29-17.938 11.685-19.376l174.954-33.93c9.15-.633 14.776 3.618 19.376 11.686z"/><path fill="#88E92D" d="m506.03 817.563 11.25 19.056c4.095 7.632-2.43 13.64-9.609 15.459L239.93 920.146c-7.179 1.82-15.179-1.022-15.513-9.496l-.624-22.805c-.041-6.845 3.803-11.265 10.982-13.085l255.118-63.943c7.18-1.82 12.108.809 16.138 6.746z"/></g><path fill="#A05A39" d="M17.427 0c0 6.27-5.09 11.361-11.36 11.361H-6.067c-6.27 0-11.361-5.09-11.361-11.361 0-6.27 5.09-11.361 11.36-11.361H6.067c6.27 0 11.361 5.09 11.361 11.361z" style="display:block" transform="translate(304.928 660.544)"/><path fill="#A05A39" d="M34.835 0c0 9.517-7.726 17.243-17.243 17.243h-35.184c-9.517 0-17.243-7.726-17.243-17.243s7.726-17.243 17.243-17.243h35.184c9.517 0 17.243 7.726 17.243 17.243z" style="display:block" transform="rotate(-143 256.743 268.721)"/><g style="display:block"><path fill="#B06C4C" d="M342.525 610.463c2.625 9.154-2.668 18.704-11.822 21.33l-40.839 11.637c-9.154 2.624-18.703-2.67-21.328-11.824s2.668-18.704 11.822-21.328l40.839-11.637c9.154-2.625 18.703 2.668 21.328 11.822z"/><path fill="#A05A39" d="M342.525 610.463c2.625 9.154-2.169 19.08-11.323 21.704l-40.838 11.637c-9.154 2.625-19.203-3.044-21.828-12.198 4.963 2.144 9.168 3.297 18.322.672l40.838-11.637c9.155-2.625 12.803-3.766 14.829-10.178z"/></g><path fill="#FF4B4B" d="M8.691-7.04V7.04c0 4.797-3.894 8.691-8.691 8.691-4.797 0-8.691-3.894-8.691-8.691V-7.04c0-4.797 3.894-8.691 8.691-8.691 4.797 0 8.691 3.894 8.691 8.691z" style="display:block" transform="rotate(-4 11489.284 -5230.038)"/><g style="display:block"><path fill="#4CC5FF" d="m406.301 752.154 1.365 10.913c1.43 11.424-6.686 21.86-18.11 23.29-11.424 1.428-21.86-6.687-23.29-18.111l-1.364-10.913c-1.43-11.424 6.686-21.86 18.11-23.29 11.424-1.428 21.86 6.687 23.29 18.111z"/><path fill="#1CB0F6" d="M372.288 624.658c18.355 0 33.258 14.904 33.258 33.259s-14.903 33.259-33.258 33.259c-18.355 0-33.259-14.904-33.259-33.259s14.904-33.259 33.259-33.259z"/><path fill="#1CB0F6" d="M404.5 651.75c-1-14-67.625-.5-64.125 14S365.131 752.605 369 765.5c2.625 8.75 13.337 10.186 20.875 8.75 7.875-1.5 16.25-7.25 16.125-19.625-.126-12.509-.5-88.875-1.5-102.875z"/></g><path fill="#FF4B4B" d="M8.691-7.04V7.04c0 4.797-3.894 8.691-8.691 8.691-4.797 0-8.691-3.894-8.691-8.691V-7.04c0-4.797 3.894-8.691 8.691-8.691 4.797 0 8.691 3.894 8.691 8.691z" style="display:block" transform="rotate(66 -448.221 591.628)"/><g style="display:block"><path fill="#4CC5FF" d="m308.008 749.208-6.288 9.023c-6.582 9.446-19.596 11.772-29.042 5.19-9.446-6.583-11.771-19.597-5.189-29.043l6.288-9.023c6.582-9.446 19.596-11.771 29.042-5.189 9.446 6.582 11.77 19.596 5.189 29.042z"/><path fill="#1CB0F6" d="M368.042 631.701c13.641 12.282 14.744 33.33 2.462 46.97s-33.33 14.744-46.97 2.462c-13.641-12.282-14.744-33.33-2.462-46.97 12.282-13.641 33.33-14.744 46.97-2.462z"/><path fill="#1CB0F6" d="M373.853 673.388c8.624-11.073-49.92-45.622-57.022-32.504-7.102 13.118-39.72 81.11-45.474 93.283-3.904 8.259 3.096 16.493 9.659 20.47 6.856 4.155 16.927 5.486 25.115-3.794 8.276-9.38 59.097-66.382 67.722-77.455z"/></g><g style="display:block"><path fill="#1CB0F6" d="M359.157 622.131c25.369 0 45.934 9.565 45.934 34.934s-20.565 43.434-45.934 43.434c-25.369 0-45.934-18.065-45.934-43.434 0-25.369 20.565-34.934 45.934-34.934z"/><path fill="#FF4B4B" d="M359.7 614.212c22.891 0 37.356-2.71 36.95 8.949-.9 25.84-18.558 41.45-41.45 41.45-22.892 0-41.825-10.736-42.2-40.574-.146-11.663 23.807-9.825 46.7-9.825z"/><path fill="#1CB0F6" d="m336.458 645.875-.354 20.282h-9.858l.354-20.282h9.858zM372.799 649.875l-2.132 20.282h-9.858l2.132-20.282h9.858z"/></g><g style="display:block"><path fill="#FDB02A" d="M398.682 618.43c2.286 15.182-13.807 32.946-24.482 33.77l-21.416 1.704c-17.783.222-42.408-8.653-42.074-25.46.27-13.569 10.415-27.194 27.294-29.27l27.916-4.204c16.152-2.432 30.475 8.279 32.762 23.46z"/><path fill="#FDB02A" d="m382.5 576.25-56 18 1.25 13.25 56-5.25-1.25-26z"/></g><g style="display:block"><path fill="#3D3D3D" d="m363.404 418.885 34.744 7.794c11.22 2.518 18.286 13.672 15.77 24.892l-7.105 31.664c-2.517 11.22-13.671 18.287-24.891 15.77l-34.745-7.795c-11.22-2.518-18.286-13.672-15.769-24.892l7.104-31.664c2.517-11.22 13.671-18.287 24.892-15.77zM254.605 460.874l34.744 7.795c11.22 2.517 18.287 13.67 15.77 24.891l-7.104 31.664c-2.518 11.22-13.672 18.287-24.892 15.77l-34.744-7.795c-11.22-2.517-18.287-13.671-15.77-24.892l7.104-31.664c2.517-11.22 13.671-18.287 24.892-15.77z"/><path fill="#3D3D3D" d="m340.61 416.174 25.406 57.929c4.619 10.531-.182 22.831-10.713 27.45L301.3 525.238c-10.531 4.619-22.831-.182-27.45-10.713l-25.406-57.929c-4.619-10.53.182-22.831 10.713-27.45l54.004-23.685c10.53-4.618 22.831.182 27.45 10.713z"/></g><g style="display:block"><path fill="#A05A39" d="M340.54 475.47c-5.97 1.855-.97 1.768-7.676 4.385-6.705 2.618-53.796 105.26-50.758 114.529 4.357 13.3 18.491 13.679 28.455 11.505 5.805-1.267 68.927-19.081 77.87-22.488 8.941-3.406 30.746-14.789 27.502-28.734-3.244-13.946-18.526-72.938-21.17-81.143-2.643-8.205-48.255.092-54.224 1.947z"/><path fill="#B06C4C" d="m354.88 484.837 25.368 76.977c2.195 6.663-1.426 13.845-8.09 16.041l-73.935 24.366c-6.663 2.196-13.844-1.426-16.04-8.089l-21.643-64.04c-2.196-6.663 19.557-35.165 26.22-37.36l52.079-15.984c6.663-2.196 13.844 1.426 16.04 8.089z"/><path fill="#FDB02A" d="M391.804 468.7s-67.555-2.571-98.21 17.467c-30.655 20.038-35.897 34.881-35.897 34.881l9.77 29.71s5.075-17.217 11.606-29.833c6.53-12.616 14.471-23.256 14.471-23.256s25.707-2.699 47.721-2.083c22.014.616 61.683 9.925 61.683 9.925L391.804 468.7z"/><path fill="#FDB02A" d="M256.91 482.049s4.138 9.394 13.402 13.264c11.756 4.91 20.38-2.28 20.38-2.28s-7.663-12.84-19.299-13.495c-11.635-.654-14.483 2.51-14.483 2.51z"/><path fill="#FDB02A" d="M277.173 462.2s-4.599 9.177-1.673 18.782c3.714 12.187 14.751 14.244 14.751 14.244s5.005-14.09-1.91-23.47c-6.914-9.38-11.168-9.556-11.168-9.556z"/></g><g style="display:block"><path fill="#FFF" d="M340.054 514.483c-3.427-7.347-15.388-9.22-22.736-5.793-7.347 3.426-10.526 12.16-7.1 19.507l3.988 8.553c3.427 7.347 12.16 10.526 19.508 7.1 7.347-3.426 13.754-13.467 10.328-20.814l-3.988-8.553zM304.98 531.014c-3.426-7.348-12.16-10.526-19.508-7.1-7.347 3.426-10.526 12.16-7.1 19.507l3.988 8.553c3.427 7.347 12.16 10.526 19.508 7.1 7.347-3.426 10.526-12.16 7.1-19.507l-3.988-8.553z"/><path fill="#3D3D3D" d="M332.584 519.989a5.337 5.337 0 0 1-7.53-5.515 6.553 6.553 0 0 0-5.176 9.28l3.324 7.126a6.553 6.553 0 1 0 11.878-5.54l-2.496-5.351zM303.508 535.304a5.337 5.337 0 0 1-7.414-5.737 6.55 6.55 0 0 0-5.38 9.296l3.486 7.474a6.55 6.55 0 0 0 11.871-5.536l-2.563-5.497z"/><path fill="#B06C4C" d="M285.023 565.694c6.352-3.694 18.602-5.944 27.748-1.601 0 0-2.646 5.907-10.845 7.405-9.044 1.653-16.051-1.123-16.903-5.804zM325.188 553.813c1.033-9.858 10.974-17.966 22.998-20.1l1.28 8.78c-9.237 6.853-25.101 19.17-24.278 11.32z"/><path fill="#86401F" d="M323.835 550.713a4.98 4.98 0 0 0-6.619-2.41l-3.8 1.772a4.98 4.98 0 1 0 4.209 9.028l3.8-1.773a4.98 4.98 0 0 0 2.41-6.617z"/><path fill="#86401F" d="M321.36 550.375a4.837 4.837 0 0 1-8.769 4.09c-1.129-2.422.454-9.999.636-10.084.183-.085 7.004 3.573 8.133 5.994z"/><path fill="#884727" d="M338.772 545.41a2.396 2.396 0 0 0-2.54 2.246c-.219 3.562-3.132 10.642-10.747 14.193a2.398 2.398 0 0 0 2.026 4.346c9.474-4.418 13.2-13.243 13.507-18.245a2.397 2.397 0 0 0-2.246-2.54z"/><path fill="#B06C4C" d="M346.325 517.665c-5.03-10.786-17.851-15.453-28.638-10.423l-31.897 15.094c-10.787 5.03-15.453 17.852-10.423 28.639l1.527 3.275 33.497-15.62 37.462-17.69-1.528-3.275z"/><path fill="#884727" d="M298.609 531.942a2.621 2.621 0 0 0-3.484-1.268l-13.134 6.282a2.621 2.621 0 0 0 2.216 4.751l13.134-6.281a2.621 2.621 0 0 0 1.268-3.484zM330.94 507.421c-11.68-1.281-19.86 5.78-22.584 9.602a2.424 2.424 0 0 0 3.949 2.814c2.049-2.875 8.69-8.629 18.107-7.596a2.424 2.424 0 0 0 .529-4.82z"/></g><path fill="#B06C4C" d="M34.835 0c0 9.523-6.536 19.289-16.935 22.53l-31.622 9.558C-35.905 37.693-47.288 17.767-47.288.102s12.014-39.284 33.566-31.985l32.653 11.704C28.292-16.379 34.835-9.523 34.835 0z" style="display:block" transform="rotate(138 100.016 365.59) scale(1.47106 1)"/><g style="display:block"><path fill="#B06C4C" d="M291.018 344.115s-6.937 39.118 17.314 82.29c30.668 54.595 75.436 82.64 75.436 82.64l15.34-131.994-108.09-32.936z"/><path fill="#B06C4C" d="M347.852 295.105c31.42 0 56.93 25.51 56.93 56.93 0 31.42-25.51 56.93-56.93 56.93-31.42 0-56.93-25.51-56.93-56.93 0-31.42 25.51-56.93 56.93-56.93zM842.37 538.6s-1.746-23.226-11.483-51.527c-14.279-41.505-35.761-71.293-35.761-71.293l-64.024 106.163L842.37 538.6z"/><path fill="#B06C4C" d="M784.683 485.473c31.42 0 56.93 25.51 56.93 56.93 0 31.42-25.51 56.93-56.93 56.93-31.42 0-56.93-25.51-56.93-56.93 0-31.42 25.51-56.93 56.93-56.93zM841.114 256.25s-17.931-6.114-69.028-11.457c-43.654-4.566-63.162-2.28-63.162-2.28L782.632 350l58.482-93.75z"/><path fill="#B06C4C" d="M824.706 254.083c31.42 0 56.93 25.51 56.93 56.93 0 31.42-25.51 56.93-56.93 56.93-31.42 0-56.93-25.51-56.93-56.93 0-31.42 25.51-56.93 56.93-56.93zM671.124 100c31.42 0 56.93 25.511 56.93 56.931 0 31.42-25.51 56.93-56.93 56.93-31.42 0-56.93-25.51-56.93-56.93 0-31.42 25.51-56.93 56.93-56.93z"/><path fill="#B06C4C" d="M639.125 109.75s-21.25 9-58.625 44.25c-31.931 30.115-38 47-38 47L671 213l-31.875-103.25z"/></g><g clip-path="url(#d)" style="display:block" transform="matrix(1.21 0 0 1.21 -66.4 -240.4)"><path fill="url(#e)" d="m-17.59-194.75-23.559 19.16a13.943 13.943 0 0 1-11.006 2.952l-29.985-4.817c-13.042-2.097-25.762 5.249-30.468 17.587l-10.82 28.382a13.92 13.92 0 0 1-8.054 8.055l-28.381 10.825c-12.338 4.7-19.683 17.42-17.587 30.462l4.817 29.985a13.93 13.93 0 0 1-2.952 11.006l-19.161 23.562A27.824 27.824 0 0 0-201-.216v.432a27.815 27.815 0 0 0 6.254 17.371l19.161 23.565a13.926 13.926 0 0 1 2.952 11.001l-4.817 29.985c-2.096 13.043 5.249 25.758 17.587 30.468l28.381 10.815a13.97 13.97 0 0 1 8.054 8.06l10.82 28.381c4.706 12.339 17.426 19.684 30.468 17.593l29.985-4.822a13.958 13.958 0 0 1 11.006 2.952l23.559 19.161A27.827 27.827 0 0 0-.219 201h.438a27.83 27.83 0 0 0 17.371-6.254l23.559-19.161a13.935 13.935 0 0 1 11.001-2.952l29.99 4.822c13.041 2.091 25.757-5.254 30.463-17.593l10.819-28.381a13.997 13.997 0 0 1 8.06-8.06l28.381-10.815c12.333-4.71 19.683-17.425 17.582-30.468l-4.811-29.985a13.922 13.922 0 0 1 2.951-11.001l19.161-23.565A27.823 27.823 0 0 0 201 .216v-.432a27.832 27.832 0 0 0-6.254-17.375l-19.161-23.562a13.926 13.926 0 0 1-2.951-11.006l4.811-29.985c2.101-13.042-5.249-25.762-17.582-30.462l-28.381-10.825a13.947 13.947 0 0 1-8.06-8.055l-10.819-28.382c-4.706-12.338-17.422-19.684-30.463-17.587l-29.99 4.817a13.92 13.92 0 0 1-11.001-2.952L17.59-194.75A27.82 27.82 0 0 0-.003-201a27.816 27.816 0 0 0-17.587 6.25z" style="display:block" transform="translate(540 540)"/><g style="display:block"><path fill="#FFF" d="m421.746 559.84 104.491-40.096c5.601-2.15 11.67 1.794 11.988 7.786 1.524 28.793-15.86 55.75-43.466 66.343-27.607 10.593-58.568 2.188-76.709-20.229-3.775-4.664-1.904-11.655 3.696-13.804z"/><path fill="#FFF" d="m604.884 431.606-73.415 84.474c-3.935 4.529-2.307 11.582 3.216 13.929 26.535 11.28 57.812 4.165 77.208-18.154 19.396-22.318 22.087-54.288 7.228-79.002-3.093-5.143-10.301-5.775-14.237-1.247zM654.029 540.568c-6.741-1.457-13.387 2.826-14.845 9.567l-.018.085-4.048 19.376c-1.422 6.812 2.919 13.497 9.721 14.967 6.741 1.458 13.387-2.825 14.844-9.566.006-.029.013-.057.018-.086l4.048-19.375c1.423-6.813-2.918-13.497-9.72-14.968z"/><path fill="#FFF" d="M454.793 480.878c20.644-4.398 33.914-8.663 39.811-12.792 5.859-4.102 14.262-14.948 25.21-32.536 7.32-11.762 22.788-15.361 34.55-8.041a25.094 25.094 0 0 1 7.292 6.908l44.603 63.7c23.609 33.717 15.414 80.189-18.302 103.798-33.718 23.61-80.19 15.415-103.799-18.302l-44.684-63.815c-7.946-11.348-5.188-26.988 6.16-34.935a25.12 25.12 0 0 1 9.159-3.985zM507.184 643.388c.936-6.832 7.234-11.613 14.067-10.677l.087.012 19.591 2.824c6.889.992 11.685 7.358 10.741 14.252-.937 6.834-7.234 11.614-14.067 10.678l-.087-.012-19.591-2.823c-6.889-.994-11.685-7.359-10.741-14.254z"/></g></g><g style="display:block"><path fill="#B06C4C" d="M671.124 100c31.42 0 56.93 25.511 56.93 56.931 0 31.42-25.51 56.93-56.93 56.93-31.42 0-56.93-25.51-56.93-56.93 0-31.42 25.51-56.93 56.93-56.93z"/><path fill="#B06C4C" d="M639.125 109.75s-37.215 21.241-47.323 35.043c.508 9.523 15.753 27.533 39.036 51.301C651.162 216.842 671 213 671 213l-31.875-103.25z"/></g></g></svg>