<svg xmlns="http://www.w3.org/2000/svg" width="40" height="40" viewBox="0 0 40 40" fill="none"><g id="40x40"><g id="school"><g id="Group 8 Copy 2"><g id="Group"><path id="Rectangle 51" d="M23.1994 32.4619H16.8005C16.2799 32.4619 15.8579 32.8839 15.8579 33.4045V35.3427C15.8579 35.8633 16.2799 36.2853 16.8005 36.2853H23.1994C23.7199 36.2853 24.1419 35.8633 24.1419 35.3427V33.4045C24.1419 32.8839 23.7199 32.4619 23.1994 32.4619Z" fill="#9069CD"/><path id="Rectangle 42" fill-rule="evenodd" clip-rule="evenodd" d="M1.88509 3.78711H38.1149C39.156 3.78711 40 4.63109 40 5.6722V33.4449C40 34.486 39.156 35.33 38.1149 35.33H1.88509C0.843984 35.33 0 34.486 0 33.4449L0 5.6722C0 4.63109 0.843984 3.78711 1.88509 3.78711Z" fill="#9069CD"/><path id="Rectangle 51_2" d="M22.4895 30.3115H17.5107C16.9901 30.3115 16.5681 30.7335 16.5681 31.2541V32.4755C16.5681 32.996 16.9901 33.418 17.5107 33.418H22.4895C23.01 33.418 23.432 32.996 23.432 32.4755V31.2541C23.432 30.7335 23.01 30.3115 22.4895 30.3115Z" fill="#D2E4E8"/><path id="Rectangle 50" fill-rule="evenodd" clip-rule="evenodd" d="M2.60352 26.0107H37.6331V31.2812C37.6331 31.8017 37.2111 32.2237 36.6906 32.2237H20.1188H14.6741H3.54606C3.02551 32.2237 2.60352 31.8017 2.60352 31.2812V26.0107Z" fill="#D2E4E8"/><path id="Combined Shape" fill-rule="evenodd" clip-rule="evenodd" d="M37.6331 28.8776H23.4172C21.5953 28.8776 20.1183 30.3545 20.1183 32.1765C20.1183 30.3545 18.6413 28.8776 16.8194 28.8776H2.60352V5.92399C2.60352 5.40344 3.02551 4.98145 3.54606 4.98145H16.8194C18.6413 4.98145 20.1183 6.45842 20.1183 8.28035C20.1183 6.45842 21.5953 4.98145 23.4172 4.98145H36.6906C37.2111 4.98145 37.6331 5.40344 37.6331 5.92399V28.8776Z" fill="white"/><path id="Rectangle" d="M17.0446 7.37134H5.20398C4.81356 7.37134 4.49707 7.68783 4.49707 8.07825V8.81508C4.49707 9.20549 4.81356 9.52199 5.20398 9.52199H17.0446C17.435 9.52199 17.7515 9.20549 17.7515 8.81508V8.07825C17.7515 7.68783 17.435 7.37134 17.0446 7.37134Z" fill="#D2E4E8"/><path id="Rectangle Copy 2" d="M17.0446 17.1689H5.20398C4.81356 17.1689 4.49707 17.4854 4.49707 17.8759V18.6127C4.49707 19.0031 4.81356 19.3196 5.20398 19.3196H17.0446C17.435 19.3196 17.7515 19.0031 17.7515 18.6127V17.8759C17.7515 17.4854 17.435 17.1689 17.0446 17.1689Z" fill="#D2E4E8"/><path id="Rectangle Copy" d="M14.441 12.3894H5.20398C4.81356 12.3894 4.49707 12.7059 4.49707 13.0963V13.8331C4.49707 14.2236 4.81356 14.5401 5.20398 14.5401H14.441C14.8315 14.5401 15.148 14.2236 15.148 13.8331V13.0963C15.148 12.7059 14.8315 12.3894 14.441 12.3894Z" fill="#D2E4E8"/><path id="Rectangle Copy 3" d="M14.441 21.9482H5.20398C4.81356 21.9482 4.49707 22.2647 4.49707 22.6552V23.392C4.49707 23.7824 4.81356 24.0989 5.20398 24.0989H14.441C14.8315 24.0989 15.148 23.7824 15.148 23.392V22.6552C15.148 22.2647 14.8315 21.9482 14.441 21.9482Z" fill="#D2E4E8"/><path id="Rectangle 49" fill-rule="evenodd" clip-rule="evenodd" d="M8.28088 2.83105H13.731C14.1214 2.83105 14.4379 3.14755 14.4379 3.53796V20.7491C14.4379 21.1395 14.1214 21.456 13.731 21.456C13.6018 21.456 13.4752 21.4206 13.3647 21.3537L11.2672 20.0832C11.0353 19.9428 10.7436 19.9473 10.5162 20.0948L8.66565 21.2955C8.33813 21.508 7.90036 21.4147 7.68786 21.0872C7.61353 20.9727 7.57397 20.839 7.57397 20.7025V3.53796C7.57397 3.14755 7.89047 2.83105 8.28088 2.83105V2.83105Z" fill="#FF4B4B"/><path id="Rectangle_2" d="M35.2695 7.37134H23.4288C23.0384 7.37134 22.7219 7.68783 22.7219 8.07825V8.81508C22.7219 9.20549 23.0384 9.52199 23.4288 9.52199H35.2695C35.6599 9.52199 35.9764 9.20549 35.9764 8.81508V8.07825C35.9764 7.68783 35.6599 7.37134 35.2695 7.37134Z" fill="#D2E4E8"/><path id="Rectangle Copy 2_2" d="M35.2695 17.1689H23.4288C23.0384 17.1689 22.7219 17.4854 22.7219 17.8759V18.6127C22.7219 19.0031 23.0384 19.3196 23.4288 19.3196H35.2695C35.6599 19.3196 35.9764 19.0031 35.9764 18.6127V17.8759C35.9764 17.4854 35.6599 17.1689 35.2695 17.1689Z" fill="#D2E4E8"/><path id="Rectangle Copy_2" d="M32.6659 12.3894H23.4288C23.0384 12.3894 22.7219 12.7059 22.7219 13.0963V13.8331C22.7219 14.2236 23.0384 14.5401 23.4288 14.5401H32.6659C33.0563 14.5401 33.3728 14.2236 33.3728 13.8331V13.0963C33.3728 12.7059 33.0563 12.3894 32.6659 12.3894Z" fill="#D2E4E8"/><path id="Rectangle Copy 3_2" d="M32.6659 21.9482H23.4288C23.0384 21.9482 22.7219 22.2647 22.7219 22.6552V23.392C22.7219 23.7824 23.0384 24.0989 23.4288 24.0989H32.6659C33.0563 24.0989 33.3728 23.7824 33.3728 23.392V22.6552C33.3728 22.2647 33.0563 21.9482 32.6659 21.9482Z" fill="#D2E4E8"/></g></g></g></g></svg>