<svg xmlns="http://www.w3.org/2000/svg" width="82" height="66"><g fill="none" fill-rule="evenodd"><path fill="#EEE" stroke="#FFF" stroke-width="4" d="M63.437 4H18.563c-4.935 0-6.696.585-8.493 1.545a10.877 10.877 0 0 0-4.525 4.525C4.585 11.867 4 13.628 4 18.563v28.874c0 4.935.585 6.696 1.545 8.493a10.877 10.877 0 0 0 4.525 4.525c1.797.96 3.558 1.545 8.493 1.545h44.874c4.935 0 6.696-.585 8.493-1.545a10.877 10.877 0 0 0 4.525-4.525c.96-1.797 1.545-3.558 1.545-8.493V18.563c0-4.935-.585-6.696-1.545-8.493a10.877 10.877 0 0 0-4.525-4.525C70.133 4.585 68.372 4 63.437 4Z"/><path fill="#FF4B4B" d="M18.563 6h44.874c4.368 0 5.953.455 7.55 1.309a8.905 8.905 0 0 1 3.704 3.704c.172.322.328.643.467.987H6.842c.139-.344.295-.665.467-.987a8.905 8.905 0 0 1 3.704-3.704C12.61 6.455 14.195 6 18.563 6ZM75.997 18c.002.182.003.37.003.563V24H6v-5.437c0-.193 0-.38.003-.563h69.994ZM76 30v6H6v-6zM76 47.437c0 .193 0 .38-.003.563H6.003C6 47.818 6 47.63 6 47.437V42h70v5.437ZM75.158 54c-.139.344-.295.665-.467.987a8.905 8.905 0 0 1-3.704 3.704C69.39 59.545 67.805 60 63.437 60H18.563c-4.368 0-5.953-.455-7.55-1.309a8.905 8.905 0 0 1-3.704-3.704A10.18 10.18 0 0 1 6.842 54h68.316Z"/><path fill="#1CB0F6" d="M18.563 6H41v24H6V18.563c0-4.368.455-5.953 1.309-7.55a8.905 8.905 0 0 1 3.704-3.704C12.61 6.455 14.195 6 18.563 6Z"/><path fill="#FFF" fill-rule="nonzero" d="m33.806 15.602-1.275.67a.82.82 0 0 1-1.19-.863l.244-1.42a.417.417 0 0 0-.12-.37l-1.031-1.005a.82.82 0 0 1 .454-1.398l1.426-.207a.417.417 0 0 0 .313-.228l.638-1.292a.82.82 0 0 1 1.47 0l.638 1.292c.06.123.178.208.313.228l1.426.207a.82.82 0 0 1 .454 1.398l-1.031 1.006a.417.417 0 0 0-.12.368l.243 1.42a.82.82 0 0 1-1.189.865l-1.275-.671a.417.417 0 0 0-.388 0ZM33.806 25.602l-1.275.67a.82.82 0 0 1-1.19-.863l.244-1.42a.417.417 0 0 0-.12-.37l-1.031-1.005a.82.82 0 0 1 .454-1.398l1.426-.207a.417.417 0 0 0 .313-.228l.638-1.292a.82.82 0 0 1 1.47 0l.638 1.292c.06.123.178.208.313.228l1.426.207a.82.82 0 0 1 .454 1.398l-1.031 1.006a.417.417 0 0 0-.12.368l.243 1.42a.82.82 0 0 1-1.189.865l-1.275-.671a.417.417 0 0 0-.388 0ZM23.806 15.602l-1.275.67a.82.82 0 0 1-1.19-.863l.244-1.42a.417.417 0 0 0-.12-.37l-1.031-1.005a.82.82 0 0 1 .454-1.398l1.426-.207a.417.417 0 0 0 .313-.228l.638-1.292a.82.82 0 0 1 1.47 0l.638 1.292c.06.123.178.208.313.228l1.426.207a.82.82 0 0 1 .454 1.398l-1.031 1.006a.417.417 0 0 0-.12.368l.243 1.42a.82.82 0 0 1-1.189.865l-1.275-.671a.417.417 0 0 0-.388 0ZM23.806 25.602l-1.275.67a.82.82 0 0 1-1.19-.863l.244-1.42a.417.417 0 0 0-.12-.37l-1.031-1.005a.82.82 0 0 1 .454-1.398l1.426-.207a.417.417 0 0 0 .313-.228l.638-1.292a.82.82 0 0 1 1.47 0l.638 1.292c.06.123.178.208.313.228l1.426.207a.82.82 0 0 1 .454 1.398l-1.031 1.006a.417.417 0 0 0-.12.368l.243 1.42a.82.82 0 0 1-1.189.865l-1.275-.671a.417.417 0 0 0-.388 0ZM13.806 15.602l-1.275.67a.82.82 0 0 1-1.19-.863l.244-1.42a.417.417 0 0 0-.12-.37l-1.031-1.005a.82.82 0 0 1 .454-1.398l1.426-.207a.417.417 0 0 0 .313-.228l.638-1.292a.82.82 0 0 1 1.47 0l.638 1.292c.06.123.178.208.313.228l1.426.207a.82.82 0 0 1 .454 1.398l-1.031 1.006a.417.417 0 0 0-.12.368l.243 1.42a.82.82 0 0 1-1.189.865l-1.275-.671a.417.417 0 0 0-.388 0ZM13.806 25.602l-1.275.67a.82.82 0 0 1-1.19-.863l.244-1.42a.417.417 0 0 0-.12-.37l-1.031-1.005a.82.82 0 0 1 .454-1.398l1.426-.207a.417.417 0 0 0 .313-.228l.638-1.292a.82.82 0 0 1 1.47 0l.638 1.292c.06.123.178.208.313.228l1.426.207a.82.82 0 0 1 .454 1.398l-1.031 1.006a.417.417 0 0 0-.12.368l.243 1.42a.82.82 0 0 1-1.189.865l-1.275-.671a.417.417 0 0 0-.388 0Z"/></g></svg>