<svg xmlns="http://www.w3.org/2000/svg" width="40" height="40" viewBox="0 0 40 40" fill="none"><g clip-path="url(#clip0_8543_571)"><g clip-path="url(#clip1_8543_571)"><mask id="mask0_8543_571" style="mask-type:alpha" maskUnits="userSpaceOnUse" x="-3" y="4" width="44" height="34"><path d="M40.4644 4H-3V37.3333H40.4644V4Z" fill="white"/></mask><g mask="url(#mask0_8543_571)"><path d="M8.10014 36.6463L21.6824 30.0158C22.3296 29.6998 22.5981 28.9191 22.2821 28.272C22.1886 28.0803 22.0494 27.9145 21.8768 27.7891L8.5402 18.0995C7.9576 17.6762 7.14216 17.8053 6.71887 18.3879C6.59349 18.5605 6.51236 18.7612 6.48259 18.9724L4.37373 33.9389C4.17277 35.3651 5.16602 36.6842 6.59221 36.8851C7.10743 36.9577 7.63257 36.8745 8.10014 36.6463Z" fill="url(#paint0_linear_8543_571)"/><mask id="mask1_8543_571" style="mask-type:alpha" maskUnits="userSpaceOnUse" x="4" y="17" width="19" height="20"><path d="M8.10014 36.6463L21.6824 30.0158C22.3296 29.6998 22.5981 28.9191 22.2821 28.272C22.1886 28.0803 22.0494 27.9145 21.8768 27.7891L8.5402 18.0995C7.9576 17.6762 7.14216 17.8053 6.71887 18.3879C6.59349 18.5605 6.51236 18.7612 6.48259 18.9724L4.37373 33.9389C4.17277 35.3651 5.16602 36.6842 6.59221 36.8851C7.10743 36.9577 7.63257 36.8745 8.10014 36.6463Z" fill="url(#paint1_linear_8543_571)"/></mask><g mask="url(#mask1_8543_571)"><rect x="2.52515" y="16.9014" width="2.94127" height="22.0685" transform="rotate(-11.162 2.52515 16.9014)" fill="#FFC700"/><rect x="8.08081" y="15.7903" width="2.94127" height="22.0685" transform="rotate(-11.162 8.08081 15.7903)" fill="#FFC700"/><rect x="13.6362" y="15.7903" width="2.94127" height="22.0685" transform="rotate(-11.162 13.6362 15.7903)" fill="#FFC700"/></g><path d="M25.27 6.86554C25.27 6.86554 27.5403 8.8517 26.1751 10.3749C24.8099 11.8981 22.4674 9.07994 21.2075 10.9521C19.9475 12.8242 24.0962 15.1664 22.7388 16.9496C21.3813 18.7329 18.7451 16.0488 17.6391 17.6726C16.5331 19.2964 18.6961 20.7866 18.6961 20.7866" stroke="#CA94FF" stroke-width="2.17322" stroke-linecap="round"/><path d="M37.0063 24.4697C33.5017 19.866 26.9071 20.202 23.9077 25.1215" stroke="#14D4F4" stroke-width="2.17322" stroke-linecap="round"/><path d="M8.16724 5.05566C13.1499 6.21584 14.696 12.1909 12.4134 16.7093" stroke="#FF82BD" stroke-width="2.17322" stroke-linecap="round"/><path d="M31.2482 11.8972L29.0611 13.3176C28.6584 13.579 28.544 14.1174 28.8055 14.5201L30.2258 16.7072C30.4873 17.1098 31.0257 17.2243 31.4283 16.9628L33.6155 15.5425C34.0181 15.281 34.1325 14.7426 33.8711 14.34L32.4507 12.1528C32.1892 11.7502 31.6509 11.6357 31.2482 11.8972Z" fill="#FF82BD"/><path d="M38.4746 16.6955L37.1804 16.5366C36.7039 16.4781 36.2702 16.817 36.2117 17.2935L36.0528 18.5877C35.9943 19.0642 36.3331 19.4979 36.8096 19.5564L38.1039 19.7153C38.5804 19.7739 39.0141 19.435 39.0726 18.9585L39.2315 17.6643C39.29 17.1877 38.9512 16.754 38.4746 16.6955Z" fill="#CA94FF"/><path d="M7.03371 9.98048L5.3711 9.47217C4.91198 9.33181 4.42601 9.59021 4.28564 10.0493L3.77733 11.7119C3.63696 12.171 3.89536 12.657 4.35448 12.7974L6.01709 13.3057C6.4762 13.4461 6.96218 13.1877 7.10255 12.7286L7.61086 11.0659C7.75122 10.6068 7.49283 10.1208 7.03371 9.98048Z" fill="#CA94FF"/><path d="M3.3264 18.8718L2.19716 18.2198C1.78139 17.9798 1.24974 18.1222 1.00969 18.538L0.357725 19.6672C0.117678 20.083 0.260133 20.6146 0.675907 20.8547L1.80515 21.5067C2.22092 21.7467 2.75257 21.6043 2.99262 21.1885L3.64458 20.0592C3.88463 19.6435 3.74217 19.1118 3.3264 18.8718Z" fill="#FF82BD"/><path d="M30.8849 28.1608L29.6379 27.7795C29.1788 27.6392 28.6929 27.8976 28.5525 28.3567L28.1713 29.6037C28.0309 30.0628 28.2893 30.5487 28.7484 30.6891L29.9954 31.0703C30.4545 31.2107 30.9405 30.9523 31.0808 30.4932L31.4621 29.2462C31.6024 28.7871 31.344 28.3011 30.8849 28.1608Z" fill="#FFC300"/><path d="M35.0003 5.76494L33.8385 5.17297C33.4107 4.95501 32.8873 5.12509 32.6693 5.55286L32.0773 6.71467C31.8594 7.14244 32.0295 7.66591 32.4572 7.88387L33.619 8.47584C34.0468 8.6938 34.5703 8.52371 34.7882 8.09595L35.3802 6.93413C35.5982 6.50636 35.4281 5.9829 35.0003 5.76494Z" fill="#FFC300"/><path d="M19.1247 5.64399L18.1259 4.80584C17.7581 4.49724 17.2098 4.54521 16.9012 4.91298L16.063 5.91185C15.7544 6.27963 15.8024 6.82794 16.1702 7.13654L17.1691 7.97469C17.5368 8.28329 18.0851 8.23532 18.3937 7.86754L19.2319 6.86867C19.5405 6.5009 19.4925 5.95259 19.1247 5.64399Z" fill="#14D4F4"/><line x1="7.82039" y1="17.6587" x2="21.8842" y2="28.9097" stroke="#E0AF00" stroke-width="3.33333" stroke-linecap="round"/></g></g></g><defs><linearGradient id="paint0_linear_8543_571" x1="13.1463" y1="42.0244" x2="10.9212" y2="17.0272" gradientUnits="userSpaceOnUse"><stop stop-color="#FFE600"/><stop offset="1" stop-color="#FFD300"/></linearGradient><linearGradient id="paint1_linear_8543_571" x1="13.1463" y1="42.0244" x2="10.9212" y2="17.0272" gradientUnits="userSpaceOnUse"><stop stop-color="#FFE600"/><stop offset="1" stop-color="#FFD300"/></linearGradient><clipPath id="clip0_8543_571"><rect width="40" height="40" fill="white"/></clipPath><clipPath id="clip1_8543_571"><rect width="40" height="40" fill="white"/></clipPath></defs></svg>