<svg xmlns="http://www.w3.org/2000/svg" width="40" height="40" fill="none"><path fill="url(#a)" d="M26.506 14.35c-5.073 0-6.557.005-6.845.029-1.041.087-1.69.25-2.395.602-.544.27-.973.583-1.396 1.022-.771.8-1.239 1.785-1.408 2.956-.082.568-.106.684-.11 3.586-.003.968 0 2.24 0 3.949 0 5.069.005 6.551.029 6.839.084 1.013.243 1.65.58 2.348a5.119 5.119 0 0 0 3.317 2.71c.501.129 1.055.2 1.765.234.3.013 3.368.022 6.437.022 3.07 0 6.138-.004 6.432-.019.822-.038 1.3-.102 1.828-.239a5.088 5.088 0 0 0 3.318-2.716c.33-.68.497-1.342.573-2.302.016-.21.023-3.547.023-6.88 0-3.334-.007-6.666-.024-6.875-.077-.976-.244-1.632-.584-2.325a4.817 4.817 0 0 0-1.04-1.426c-.804-.768-1.788-1.235-2.96-1.404-.567-.082-.68-.106-3.585-.111h-3.955Z"/><path fill="url(#b)" d="M26.506 14.35c-5.073 0-6.557.005-6.845.029-1.041.087-1.69.25-2.395.602-.544.27-.973.583-1.396 1.022-.771.8-1.239 1.785-1.408 2.956-.082.568-.106.684-.11 3.586-.003.968 0 2.24 0 3.949 0 5.069.005 6.551.029 6.839.084 1.013.243 1.65.58 2.348a5.119 5.119 0 0 0 3.317 2.71c.501.129 1.055.2 1.765.234.3.013 3.368.022 6.437.022 3.07 0 6.138-.004 6.432-.019.822-.038 1.3-.102 1.828-.239a5.088 5.088 0 0 0 3.318-2.716c.33-.68.497-1.342.573-2.302.016-.21.023-3.547.023-6.88 0-3.334-.007-6.666-.024-6.875-.077-.976-.244-1.632-.584-2.325a4.817 4.817 0 0 0-1.04-1.426c-.804-.768-1.788-1.235-2.96-1.404-.567-.082-.68-.106-3.585-.111h-3.955Z"/><path fill="#fff" d="M26.5 17.527c-2.436 0-2.742.011-3.699.055-.955.043-1.607.195-2.177.416-.59.23-1.091.536-1.59 1.035-.499.499-.805 1-1.035 1.59-.223.57-.374 1.222-.417 2.177-.043.957-.054 1.263-.054 3.7 0 2.436.01 2.741.054 3.698.044.955.195 1.607.417 2.178.23.59.536 1.09 1.035 1.589.498.5.999.806 1.588 1.035.571.222 1.223.374 2.178.417.957.044 1.263.054 3.7.054 2.436 0 2.741-.01 3.698-.054.955-.043 1.608-.195 2.179-.416a4.39 4.39 0 0 0 1.588-1.036c.5-.499.806-1 1.036-1.59.22-.57.372-1.222.416-2.177.043-.957.055-1.262.055-3.698 0-2.437-.012-2.743-.055-3.7-.044-.955-.196-1.607-.416-2.178a4.404 4.404 0 0 0-1.036-1.589c-.499-.499-.998-.806-1.589-1.035-.572-.221-1.224-.373-2.18-.416-.956-.044-1.26-.055-3.698-.055h.002Zm-.804 1.617h.804c2.396 0 2.68.009 3.626.052.875.04 1.35.186 1.666.309.419.163.717.357 1.03.67.315.315.51.614.672 1.033.123.316.27.79.31 1.665.042.946.052 1.23.052 3.624 0 2.395-.01 2.679-.053 3.625-.04.875-.186 1.35-.309 1.665a2.774 2.774 0 0 1-.671 1.03 2.774 2.774 0 0 1-1.031.672c-.316.123-.791.27-1.666.31-.946.042-1.23.051-3.626.051-2.395 0-2.68-.009-3.625-.052-.875-.04-1.35-.187-1.666-.31a2.779 2.779 0 0 1-1.032-.67 2.782 2.782 0 0 1-.671-1.031c-.123-.316-.27-.791-.31-1.666-.042-.946-.05-1.23-.05-3.626s.008-2.678.05-3.624c.04-.875.187-1.35.31-1.666a2.78 2.78 0 0 1 .671-1.032 2.785 2.785 0 0 1 1.032-.671c.316-.123.791-.27 1.666-.31.828-.037 1.148-.048 2.82-.05v.002Zm5.594 1.49a1.076 1.076 0 1 0 0 2.154 1.076 1.076 0 0 0 0-2.154Zm-4.79 1.258a4.608 4.608 0 1 0 .001 9.215 4.608 4.608 0 0 0 0-9.215Zm0 1.617a2.99 2.99 0 1 1 0 5.981 2.99 2.99 0 0 1 0-5.981Z"/><path fill="#1977F3" d="M13.999 27.003C21.179 27.003 27 21.182 27 14 27 6.821 21.18 1 13.999 1 6.819 1 .997 6.82.997 14.001c0 7.18 5.821 13.002 13.002 13.002Z"/><path fill="#fff" d="m19.06 17.76.575-3.759H16.03v-2.439c0-1.027.503-2.03 2.119-2.03h1.64v-3.2s-1.488-.255-2.91-.255c-2.97 0-4.912 1.8-4.912 5.06V14H8.665v3.76h3.302v9.085a13.291 13.291 0 0 0 4.063 0V17.76h3.03Z"/><defs><radialGradient id="a" cx="0" cy="0" r="1" gradientTransform="matrix(0 -24.0803 22.4027 0 20.806 40.519)" gradientUnits="userSpaceOnUse"><stop stop-color="#FD5"/><stop offset=".1" stop-color="#FD5"/><stop offset=".5" stop-color="#FF543E"/><stop offset="1" stop-color="#C837AB"/></radialGradient><radialGradient id="b" cx="0" cy="0" r="1" gradientTransform="matrix(2.11331 10.5546 -43.51755 8.71336 10.28 16.1)" gradientUnits="userSpaceOnUse"><stop stop-color="#3771C8"/><stop offset=".128" stop-color="#3771C8"/><stop offset="1" stop-color="#60F" stop-opacity="0"/></radialGradient></defs></svg>