<svg xmlns="http://www.w3.org/2000/svg" width="172" height="74" fill="none"><path fill="#602B7A" d="M51.29 38.28c-2.031 0-3.74-.693-5.125-2.078-1.385-1.385-2.078-3.124-2.078-5.218 0-2.093.693-3.832 2.078-5.217 1.385-1.385 3.094-2.078 5.125-2.078 2.032 0 3.74.693 5.126 2.078 1.385 1.385 2.077 3.124 2.077 5.217 0 2.094-.692 3.833-2.078 5.218-1.385 1.385-3.093 2.078-5.125 2.078ZM73.76 35.925c1.416 1.385 3.171 2.078 5.264 2.078 2.093 0 3.833-.693 5.218-2.078 1.416-1.385 2.124-3.11 2.124-5.171 0-2.063-.708-3.787-2.124-5.172-1.385-1.385-3.125-2.078-5.218-2.078s-3.847.693-5.263 2.078c-1.386 1.385-2.078 3.11-2.078 5.171 0 2.063.692 3.787 2.078 5.172ZM140.752 38.372c-2.093 0-3.832-.693-5.217-2.078-1.386-1.416-2.078-3.186-2.078-5.31 0-2.124.692-3.878 2.078-5.263 1.385-1.416 3.124-2.124 5.217-2.124 2.093 0 3.833.708 5.218 2.124 1.385 1.385 2.077 3.14 2.077 5.263 0 2.124-.692 3.894-2.077 5.31-1.385 1.385-3.125 2.078-5.218 2.078Z"/><path fill="#602B7A" fill-rule="evenodd" d="M0 0h171.676v58.324H47.136l-15.221 15.22-15.221-15.22H0V0Zm99.566 15.978c.862 0 1.6-.308 2.216-.923.646-.647.97-1.4.97-2.263 0-.862-.308-1.6-.924-2.216a3.003 3.003 0 0 0-2.262-.97c-.893 0-1.647.324-2.263.97a3.023 3.023 0 0 0-.923 2.216c0 .862.308 1.616.923 2.263.647.615 1.4.923 2.263.923Zm2.493 3.463h-4.987v23.087h4.987V19.44ZM37.497 37.45H24.338V10.207h-5.31v32.32h18.47V37.45Zm5.159 2.17c2.37 2.34 5.248 3.509 8.634 3.509 3.417 0 6.295-1.17 8.635-3.51 2.37-2.339 3.555-5.217 3.555-8.634 0-3.416-1.185-6.295-3.555-8.634-2.34-2.34-5.218-3.509-8.635-3.509-3.386 0-6.264 1.17-8.634 3.51-2.37 2.338-3.555 5.217-3.555 8.633 0 3.417 1.185 6.295 3.555 8.635Zm43.71-20.178h4.894v22.025c0 3.509-1.154 6.202-3.463 8.08-2.309 1.877-5.11 2.816-8.403 2.816-5.326 0-8.973-1.862-10.943-5.587l4.294-2.493c1.2 2.37 3.447 3.555 6.741 3.555 2.155 0 3.832-.569 5.033-1.708 1.231-1.108 1.847-2.663 1.847-4.663v-2.817c-1.878 2.678-4.556 4.017-8.034 4.017-3.263 0-6.018-1.154-8.265-3.463-2.247-2.34-3.37-5.156-3.37-8.45 0-3.293 1.123-6.094 3.37-8.403 2.247-2.34 5.002-3.509 8.265-3.509 3.478 0 6.156 1.339 8.034 4.017v-3.417Zm41.891 23.087h-5.956l-9.465-10.666v10.666h-4.987V10.207h4.987v19.438l8.957-10.204h6.095L117.73 30.754l10.527 11.774Zm24.777-23.087h-4.987v3.279c-1.877-2.586-4.571-3.879-8.08-3.879-3.17 0-5.879 1.17-8.126 3.51-2.247 2.338-3.371 5.217-3.371 8.633 0 3.386 1.124 6.264 3.371 8.635 2.247 2.34 4.956 3.509 8.126 3.509 3.509 0 6.203-1.308 8.08-3.925v3.325h4.987V19.44Z" clip-rule="evenodd"/></svg>