<svg xmlns="http://www.w3.org/2000/svg" width="40" height="37" viewBox="0 0 40 37" fill="none"><g id="Friendly" clip-path="url(#clip0_8543_647)"><g id="Friendly_2"><path id="Rectangle Copy 130" fill-rule="evenodd" clip-rule="evenodd" d="M27.0637 10.856C31.3694 10.856 35.1276 13.8134 36.1947 18.0414L39.2136 30.0023C39.898 32.7139 38.2841 35.4744 35.6088 36.1681C35.2039 36.2731 34.7876 36.3262 34.3696 36.3262H19.7578C16.9964 36.3262 14.7578 34.0573 14.7578 31.2583C14.7578 30.8347 14.8102 30.4127 14.9138 30.0023L17.9327 18.0414C18.9998 13.8134 22.7581 10.856 27.0637 10.856Z" fill="#363636"/><path id="Rectangle Copy 130_2" fill-rule="evenodd" clip-rule="evenodd" d="M27.0634 14.1311C31.3853 14.1311 34.8888 17.6822 34.8888 22.0627V26.0952C34.8888 30.4757 31.3853 34.0268 27.0634 34.0268C22.7416 34.0268 19.238 30.4757 19.238 26.0952V22.0627C19.238 17.6822 22.7416 14.1311 27.0634 14.1311Z" fill="#A56644"/><path id="Path" d="M31.3651 11.9827C31.6207 11.9827 31.828 12.1927 31.828 12.4518C31.828 16.3095 28.7426 19.4368 24.9365 19.4368H17.7937C17.538 19.4368 17.3308 19.2267 17.3308 18.9676V12.4518C17.3308 12.1927 17.538 11.9827 17.7937 11.9827H31.3651Z" fill="#363636"/><path id="Path_2" d="M30.127 25.2188C30.3826 25.2188 30.5898 25.4288 30.5898 25.6879V26.1994C30.5898 28.1733 29.011 29.7736 27.0635 29.7736C25.1159 29.7736 23.5371 28.1733 23.5371 26.1994V25.6879C23.5371 25.4288 23.7443 25.2188 24 25.2188H30.127Z" fill="white"/><path id="Rectangle Copy 132" d="M30.2861 20.9536C30.2861 20.4383 29.8739 20.0205 29.3655 20.0205C28.857 20.0205 28.4448 20.4383 28.4448 20.9536V22.8658C28.4448 23.3812 28.857 23.799 29.3655 23.799C29.8739 23.799 30.2861 23.3812 30.2861 22.8658V20.9536Z" fill="#7B482D"/><path id="Rectangle Copy 133" d="M25.6828 20.9536C25.6828 20.4383 25.2706 20.0205 24.7622 20.0205C24.2537 20.0205 23.8416 20.4383 23.8416 20.9536V22.8658C23.8416 23.3812 24.2537 23.799 24.7622 23.799C25.2706 23.799 25.6828 23.3812 25.6828 22.8658V20.9536Z" fill="#7B482D"/><path id="Oval Copy 23" d="M35.6508 25.6882C37.1762 25.6882 38.4127 24.4195 38.4127 22.8544C38.4127 21.2893 37.1762 20.0205 35.6508 20.0205C34.1255 20.0205 32.8889 21.2893 32.8889 22.8544C32.8889 24.4195 34.1255 25.6882 35.6508 25.6882Z" fill="#A56644"/><path id="Oval Copy 24" d="M18.476 25.6882C20.0014 25.6882 21.2379 24.4195 21.2379 22.8544C21.2379 21.2893 20.0014 20.0205 18.476 20.0205C16.9507 20.0205 15.7141 21.2893 15.7141 22.8544C15.7141 24.4195 16.9507 25.6882 18.476 25.6882Z" fill="#A56644"/><path id="Path_3" d="M12.3239 0.254883C17.266 0.254883 21.2724 4.31568 21.2724 9.32493V13.4933C21.2724 13.7524 21.0652 13.9624 20.8096 13.9624L6.55997 13.9607L4.92626 13.8177C4.74588 13.802 4.59113 13.681 4.5302 13.5082L3.19912 9.73314L3.17212 9.57526V9.32493C3.17212 4.31568 7.17853 0.254883 12.1207 0.254883H12.3239Z" fill="#FFD900"/><path id="Oval Copy 18" d="M20.8093 17.1862C22.3346 17.1862 23.5712 15.9463 23.5712 14.4169C23.5712 12.8875 22.3346 11.6477 20.8093 11.6477C19.2839 11.6477 18.0474 12.8875 18.0474 14.4169C18.0474 15.9463 19.2839 17.1862 20.8093 17.1862Z" fill="#FFAD92"/><path id="Oval Copy 19" d="M3.63471 17.1862C5.16006 17.1862 6.39661 15.9463 6.39661 14.4169C6.39661 12.8875 5.16006 11.6477 3.63471 11.6477C2.10935 11.6477 0.872803 12.8875 0.872803 14.4169C0.872803 15.9463 2.10935 17.1862 3.63471 17.1862Z" fill="#FFAD92"/><path id="Rectangle Copy 126" fill-rule="evenodd" clip-rule="evenodd" d="M8.25363 6H16.1901C18.3204 6 20.0473 7.75034 20.0473 9.9095V17.4077C20.0473 21.7883 16.5437 25.3394 12.2219 25.3394C7.90003 25.3394 4.39648 21.7883 4.39648 17.4077V9.9095C4.39648 7.75034 6.12339 6 8.25363 6Z" fill="#FFAD92"/><path id="Rectangle Copy 128" d="M15.4445 12.5808C15.4445 12.0655 15.0324 11.6477 14.5239 11.6477C14.0155 11.6477 13.6033 12.0655 13.6033 12.5808V14.4069C13.6033 14.9222 14.0155 15.34 14.5239 15.34C15.0324 15.34 15.4445 14.9222 15.4445 14.4069V12.5808Z" fill="#C97356"/><path id="Rectangle Copy 129" d="M10.8413 12.5808C10.8413 12.0655 10.4291 11.6477 9.92063 11.6477C9.41218 11.6477 9 12.0655 9 12.5808V14.4069C9 14.9222 9.41218 15.34 9.92063 15.34C10.4291 15.34 10.8413 14.9222 10.8413 14.4069V12.5808Z" fill="#C97356"/><path id="Path_4" d="M16.3651 4.71704C16.6207 4.71704 16.828 4.92708 16.828 5.18618C16.828 9.52369 13.3588 13.0399 9.0794 13.0399H8.00004C3.72062 13.0399 0.251465 9.52369 0.251465 5.18618C0.251465 4.92708 0.458693 4.71704 0.714322 4.71704H16.3651Z" fill="#FFD900"/><path id="Path_5" d="M8.6074 17.888C8.32846 17.6053 8.32846 17.1469 8.6074 16.8641C8.88635 16.5814 9.33861 16.5814 9.61756 16.8641C11.0123 18.2778 13.2736 18.2778 14.6683 16.8641C14.9473 16.5814 15.3995 16.5814 15.6785 16.8641C15.9574 17.1469 15.9574 17.6053 15.6785 17.888C13.7258 19.8671 10.56 19.8671 8.6074 17.888Z" fill="#DE8A6E"/></g></g><defs><clipPath id="clip0_8543_647"><rect width="40" height="36.9231" fill="white"/></clipPath></defs></svg>