<svg xmlns="http://www.w3.org/2000/svg" width="40" height="40" fill="none"><path fill="#25F4EE" d="M16.408 16.178v-1.403c-.487-.077-.979-.12-1.472-.127a10.912 10.912 0 0 0-6.255 19.87 10.9 10.9 0 0 1 7.727-18.34Z"/><path fill="#25F4EE" d="M16.672 32.069a4.99 4.99 0 0 0 4.98-4.772V3.507h4.346A8.153 8.153 0 0 1 25.87 2h-5.945v23.768a4.99 4.99 0 0 1-4.978 4.806 5.058 5.058 0 0 1-2.3-.575 4.991 4.991 0 0 0 4.024 2.07Zm17.444-20.49v-1.323c-1.6 0-3.164-.471-4.496-1.357a8.244 8.244 0 0 0 4.496 2.68Z"/><path fill="#FE2C55" d="M29.62 8.9a8.186 8.186 0 0 1-2.036-5.405h-1.586a8.233 8.233 0 0 0 3.622 5.404ZM14.936 20.592a4.99 4.99 0 0 0-2.3 9.406 4.979 4.979 0 0 1 4.037-7.9c.499.007.994.085 1.471.231v-6.049a10.418 10.418 0 0 0-1.471-.115h-.265v4.6a5.11 5.11 0 0 0-1.472-.173Z"/><path fill="#FE2C55" d="M34.116 11.578v4.6a14.11 14.11 0 0 1-8.245-2.68v12.086c-.012 6.03-4.905 10.912-10.935 10.912a10.82 10.82 0 0 1-6.255-1.978 10.912 10.912 0 0 0 18.904-7.428V15.04a14.132 14.132 0 0 0 8.255 2.644v-5.922a8.43 8.43 0 0 1-1.724-.184Z"/><path fill="#000" d="M25.871 25.584V13.498a14.108 14.108 0 0 0 8.256 2.644v-4.6A8.244 8.244 0 0 1 29.62 8.9a8.234 8.234 0 0 1-3.623-5.404h-4.346v23.802a4.99 4.99 0 0 1-9.027 2.725 4.99 4.99 0 0 1 2.3-9.406c.5.005.995.082 1.472.23v-4.6A10.9 10.9 0 0 0 8.67 34.645a10.82 10.82 0 0 0 6.267 1.852c6.03 0 10.922-4.882 10.935-10.913Z"/></svg>