<svg xmlns="http://www.w3.org/2000/svg" width="40" height="40" viewBox="0 0 40 40" fill="none"><g id="40x40"><g id="offline"><g id="Group"><path id="Rectangle-14" fill-rule="evenodd" clip-rule="evenodd" d="M4.11396 23.8017L15.5781 23.9968L10.3749 29.1999L3.32619 24.9546C3.19565 24.876 3.15356 24.7065 3.23218 24.5759C3.24374 24.5568 3.25759 24.539 3.27344 24.5232L3.91417 23.8825C3.96707 23.8296 4.03917 23.8004 4.11396 23.8017Z" fill="#1899D6"/><path id="Mask" fill-rule="evenodd" clip-rule="evenodd" d="M32.0719 32.7228C32.0905 33.4779 31.7987 34.2076 31.2646 34.7418L30.2231 35.7833C30.2006 35.8058 30.1762 35.8263 30.1501 35.8446C29.9008 36.0198 29.5566 35.9597 29.3814 35.7103L21.3169 24.2316L31.6086 13.9399L32.0719 32.7228Z" fill="#1899D6"/><path id="Mask_2" fill-rule="evenodd" clip-rule="evenodd" d="M7.44802 8.09874L26.2308 8.56208L15.9392 18.8537L4.46047 10.7892C4.2111 10.614 4.15097 10.2699 4.32617 10.0205C4.34447 9.99445 4.36499 9.97003 4.3875 9.94752L5.429 8.90602C5.96313 8.3719 6.69288 8.08011 7.44802 8.09874Z" fill="#1899D6"/><path id="Mask_3" fill-rule="evenodd" clip-rule="evenodd" d="M16.2424 35.9302C16.2437 36.0049 16.2145 36.0771 16.1616 36.1299L15.5209 36.7707C15.5051 36.7865 15.4874 36.8004 15.4682 36.8119C15.3376 36.8906 15.1681 36.8485 15.0895 36.7179L10.8442 29.6692L16.0474 24.4661L16.2424 35.9302Z" fill="#1899D6"/><path id="Mask_4" fill-rule="evenodd" clip-rule="evenodd" d="M26.7575 5.98152C28.1599 4.57916 33.2858 1.46403 35.9424 4.12064C38.599 6.77726 35.5789 12.0597 34.2074 13.4313L19.2102 28.4284C17.153 30.4857 13.8176 30.4857 11.7604 28.4284C9.70323 26.3712 9.70323 23.0358 11.7604 20.9786L26.7575 5.98152Z" fill="#E5E5E5"/><path id="Rectangle-6" d="M29.5423 6.25101L33.6725 10.3812C33.7802 10.489 33.9549 10.489 34.0627 10.3812L34.5504 9.89348C34.9275 9.51636 34.9275 8.90492 34.5504 8.5278L31.3957 5.37307C31.0186 4.99594 30.4071 4.99594 30.03 5.37307L29.5423 5.86081C29.4345 5.96856 29.4345 6.14326 29.5423 6.25101Z" fill="#1899D6"/><path id="Rectangle-16" fill-rule="evenodd" clip-rule="evenodd" d="M16.0969 24.1103C16.4942 24.5077 16.4942 25.1519 16.0969 25.5492L11.0949 30.5512C10.6975 30.9486 10.0533 30.9486 9.65599 30.5512C9.25865 30.1539 9.25865 29.5097 9.65599 29.1123L14.658 24.1103C15.0553 23.713 15.6995 23.713 16.0969 24.1103Z" fill="#1899D6"/></g></g></g></svg>