<svg xmlns="http://www.w3.org/2000/svg" width="40" height="40" fill="none"><g clip-path="url(#a)"><path fill="red" d="m20.856 33.757-8.22-.15c-2.66-.052-5.329.052-7.938-.49-3.97-.81-4.25-4.779-4.544-8.108-.406-4.681-.249-9.447.516-14.089.432-2.605 2.132-4.159 4.76-4.328 8.874-.614 17.806-.54 26.66-.255.935.027 1.877.17 2.799.333 4.551.797 4.662 5.295 4.957 9.082.294 3.825.17 7.67-.392 11.47-.451 3.147-1.315 5.785-4.958 6.04-4.564.332-9.024.6-13.6.515 0-.02-.027-.02-.04-.02Zm-4.832-7.965c3.44-1.972 6.813-3.91 10.233-5.869-3.446-1.972-6.813-3.91-10.233-5.87v11.74Z"/><path fill="#fff" d="M16.024 25.792c3.44-1.972 6.813-3.91 10.233-5.869-3.446-1.972-6.813-3.91-10.233-5.87v11.74Z"/></g><defs><clipPath id="a"><path fill="#fff" d="M0 0h40v40H0z"/></clipPath></defs></svg>