<svg xmlns="http://www.w3.org/2000/svg" width="147" height="210" x="441" fill="none" viewBox="0 0 146 307"><g clip-path="url(#a)"><path fill="#FFC6B7" d="m124.63 137.79 4.51 5.772a4.74 4.74 0 0 0 6.654.817l5.772-4.51a4.74 4.74 0 0 0 .817-6.653l-4.51-5.773a4.74 4.74 0 0 0-6.653-.817l-5.773 4.51a4.741 4.741 0 0 0-.817 6.654z"/><path fill="#FFC6B7" d="M129.98 150.26a8.187 8.187 0 0 1-4.893-10.494l1.977-5.431a8.189 8.189 0 0 1 15.387 5.601l-1.977 5.431a8.188 8.188 0 0 1-10.494 4.893z"/><path fill="#2FE3FF" d="M124.46 165.46a8.187 8.187 0 0 1-4.893-10.494l5.869-16.125 15.387 5.6-5.869 16.125a8.189 8.189 0 0 1-10.494 4.894z"/><path fill="#2FE3FF" d="M134.26 156.4a8.187 8.187 0 0 0-10.407-5.075l-15.843 5.455a8.188 8.188 0 0 0 5.331 15.483l15.843-5.456a8.187 8.187 0 0 0 5.076-10.407z"/><path fill="#2FE3FF" d="m30.424 173.51 73.316-10.304a8.187 8.187 0 0 1 9.247 6.968l.09.64a8.186 8.186 0 0 1-6.968 9.247l-73.316 10.304a8.187 8.187 0 0 1-9.247-6.968l-.09-.64a8.187 8.187 0 0 1 6.968-9.247z"/><path fill="#535353" d="M70.684 259.24a5.063 5.063 0 0 1 1.489-7.004l12.287-7.979a5.063 5.063 0 1 1 5.515 8.493l-12.287 7.979a5.063 5.063 0 0 1-7.004-1.489zM43 216.37a5.062 5.062 0 0 1 2.912 6.541l-5.25 13.678a5.064 5.064 0 0 1-9.454-3.629l5.25-13.678A5.062 5.062 0 0 1 43 216.37z"/><path fill="#FF9600" d="M60.797 90.89c6.953-.977 13.38 3.882 14.359 10.847l.266 1.892-25.176 3.539-.266-1.893c-.979-6.965 3.864-13.408 10.817-14.385z"/><path fill="#FF9600" d="M75.853 101.39c7.422-1.043 12.607-7.812 11.581-15.117s-7.877-12.382-15.299-11.339c-7.425 1.044-12.611 7.812-11.584 15.118s7.877 12.383 15.302 11.339z"/><path fill="#FFC6B7" d="m87.043 99.603-47.792 6.717c-8.955 1.258-15.195 9.538-13.936 18.494l13.044 92.811c1.259 8.955 9.539 15.194 18.494 13.936l47.792-6.717c8.955-1.258 15.195-9.539 13.936-18.494l-13.043-92.811c-1.259-8.955-9.539-15.195-18.494-13.936z"/><path fill="#FFB67A" fill-rule="evenodd" d="m41.29 106.03 2.653 18.876c.745 5.302-2.95 10.205-8.252 10.95l-8.654 1.216-1.723-12.261c-1.259-8.955 4.98-17.235 13.936-18.494l2.04-.287z" clip-rule="evenodd"/><path fill="#0084C2" fill-rule="evenodd" d="m112.97 166.45 5.607 39.898c1.259 8.956-4.981 17.236-13.936 18.494l-47.792 6.717c-8.955 1.259-17.236-4.981-18.494-13.936l-5.607-39.898 80.223-11.275z" clip-rule="evenodd"/><path fill="#2FE3FF" fill-rule="evenodd" d="m111.44 155.57 4.288 30.51-80.222 11.275-4.288-30.511 80.222-11.274z" clip-rule="evenodd"/><path fill="#FFC6B7" d="M101.1 137.44a7.217 7.217 0 1 0-2.01-14.295 7.218 7.218 0 0 0 2.01 14.295zM28.285 147.25a7.218 7.218 0 1 0-2.01-14.296 7.218 7.218 0 0 0 2.01 14.296z"/><path fill="#fff" d="M57.864 110.96c5.556-.781 10.693 3.09 11.474 8.646l.86 6.119c.78 5.556-3.09 10.693-8.646 11.474s-10.693-3.09-11.474-8.646l-.86-6.119c-.78-5.556 3.09-10.693 8.646-11.474z"/><path fill="#3D3D3D" d="M59.458 116.54a4.56 4.56 0 0 1 5.151 3.881l.797 5.673a4.561 4.561 0 0 1-9.032 1.269l-.746-5.304a3.663 3.663 0 0 0 3.146-5.369c.22-.067.449-.117.684-.15z"/><path fill="#fff" d="M79.767 107.88c-5.556.781-9.427 5.918-8.646 11.474l.86 6.119c.78 5.556 5.918 9.427 11.474 8.646s9.427-5.918 8.646-11.474l-.86-6.119c-.78-5.556-5.918-9.427-11.474-8.646z"/><path fill="#3D3D3D" d="M78.47 114.15a4.635 4.635 0 0 0-.858.206 3.662 3.662 0 0 1-2.97 5.33l.744 5.288a4.562 4.562 0 0 0 9.032-1.269l-.797-5.673a4.562 4.562 0 0 0-5.151-3.882z"/><path fill="#FFC6B7" d="M39.922 133.69c10.957-1.599 20.923-.321 29.843 3.849l.27.128-1.942 4.086c-8.072-3.836-17.125-5.051-27.212-3.63l-.306.044-.653-4.477z"/><path fill="#EE9583" d="M65.65 141.32a1.077 1.077 0 0 1 1.516.153c2.312 2.829 4.976 3.448 8.292 1.927a1.077 1.077 0 0 1 .898 1.958c-4.207 1.93-7.926 1.066-10.859-2.522a1.078 1.078 0 0 1 .153-1.516zM76.849 138.8a3.99 3.99 0 0 0 1.644-5.398c-1.036-1.948-7.005-4.684-7.005-4.684s-1.07 6.478-.034 8.426a3.99 3.99 0 0 0 5.395 1.656z"/><path fill="#FFC6B7" d="m8.727 186.43-5.089 5.27a4.74 4.74 0 0 0 .117 6.702l5.27 5.089a4.74 4.74 0 0 0 6.702-.117l5.089-5.269a4.74 4.74 0 0 0-.117-6.703l-5.27-5.089a4.74 4.74 0 0 0-6.702.117z"/><path fill="#FFC6B7" d="M15.634 179.14a8.187 8.187 0 0 1 5.613 10.127l-1.593 5.555a8.186 8.186 0 0 1-10.127 5.613 8.186 8.186 0 0 1-5.613-10.126l1.593-5.556a8.187 8.187 0 0 1 10.127-5.613z"/><path fill="#2FE3FF" d="M19.324 164.5a8.187 8.187 0 0 1 5.79 10.027l-4.442 16.575-15.817-4.238 4.441-16.575a8.188 8.188 0 0 1 10.027-5.789z"/><path fill="#2FE3FF" d="M42.787 175.9a8.188 8.188 0 0 1-9.247 6.968l-16.593-2.332a8.188 8.188 0 0 1 2.279-16.215l16.593 2.332a8.187 8.187 0 0 1 6.968 9.247zM110.37 155.96l1.912-.608 1.94 16.408-1.295.699-2.557-16.499z"/><path fill="#2FE3FF" d="m33.854 190.17 2.547-.385-1.274-23.28-6.146 1.317 4.873 22.348z"/><path fill="#fff" d="M87.765 164.52a2.296 2.296 0 0 0-2.576 1.905l-.009.059-.717 5.253a5.993 5.993 0 0 1-3.302 4.572l-.085.041a2.295 2.295 0 1 0 1.954 4.154 10.585 10.585 0 0 0 5.966-8.036l.016-.11.717-5.253a2.296 2.296 0 0 0-1.964-2.585zM78.178 166.25a2.296 2.296 0 0 1 1.132 2.998l-.024.053-2.07 4.429a6.183 6.183 0 0 1-5.33 3.56 1.503 1.503 0 0 0-1.286.843l-.023.05-.756 1.711a2.295 2.295 0 0 1-4.222-1.803l.023-.054.757-1.711a6.094 6.094 0 0 1 5.216-3.618l.09-.004a1.593 1.593 0 0 0 1.347-.866l.025-.051 2.07-4.429a2.295 2.295 0 0 1 2.998-1.132l.053.024z"/><rect width="53.688" height="8.183" x="46.594" y="270.04" fill="#AFAFAF" opacity=".3" rx="4.091"/></g></svg>