<svg xmlns="http://www.w3.org/2000/svg" width="147" height="210" x="735" viewBox="0 0 147 307"><path fill="#FF86D0" fill-rule="evenodd" d="M63.195 265.5a4.778 4.778 0 0 1 4.778-4.778h18.46a4.778 4.778 0 1 1 0 9.556h-18.46a4.778 4.778 0 0 1-4.778-4.778zM15.865 177.64a4.778 4.778 0 0 1 .824-6.707l14.546-11.365a4.778 4.778 0 0 1 5.883 7.53L22.57 178.463a4.778 4.778 0 0 1-6.707-.823z" clip-rule="evenodd"/><path fill="#1CB0F6" fill-rule="evenodd" d="m70.309 120.79 17.751 5.739a6.17 6.17 0 0 1 4.167 4.744l2.165 11.667a6.17 6.17 0 0 1-7.15 7.198l-23.477-4.193a6.169 6.169 0 0 1-4.857-7.732l3.68-13.176a6.17 6.17 0 0 1 7.6-4.282l.12.035z" clip-rule="evenodd"/><path fill="#FFB7E3" fill-rule="evenodd" d="M71.449 147.95c16.225 0 29.379 13.108 29.379 29.277a29.39 29.39 0 0 1-.385 4.75v-.035c0 .436-.046.872-.138 1.298l-14.661 68.069a5.897 5.897 0 0 1-5.765 4.655H64.53a5.897 5.897 0 0 1-5.765-7.139l7.01-32.544c-6.33 4.623-15.241 3.513-20.228-2.646l-13.199-16.299c-5.146-6.354-4.166-15.676 2.188-20.822a14.732 14.732 0 0 1 7.8-3.223c1.928-14.308 14.228-25.341 29.114-25.341z" clip-rule="evenodd"/><path fill="#FFA1DA" fill-rule="evenodd" d="m72.444 178.43.142.027 8.075 2.022a1.234 1.234 0 0 1-.458 2.421l-.142-.027-1.717-.43.134 1.004.12.966.074.635c1.15 10.001.763 17.354-1.209 22.111-1.874 4.521-5.188 7.666-9.184 10.229l-.3.192-.304.189-.306.187-.308.185-.31.183-.313.181-.157.091-.316.178-.158.089-.32.177-.32.174-.03.016.637-2.957c.172-.097.343-.195.513-.295l.254-.152c.464-.28.92-.573 1.367-.88l.242-.169c2.977-2.099 5.489-4.835 7.034-8.563 1.785-4.306 2.143-11.316 1.026-20.978l-.076-.641-.04-.323-.082-.652-.043-.33-.088-.663-.046-.335a1.23 1.23 0 0 1 .025-.471l-3.874-.971a1.233 1.233 0 0 1 .458-2.42zm-30.15-4.876c-.11 7.928 1.245 14.032 4.023 18.324a1.234 1.234 0 0 1-2.071 1.341c-3.048-4.708-4.508-11.197-4.422-19.457a14.701 14.701 0 0 1 2.446-.471c.017.085.025.173.024.263z" clip-rule="evenodd"/><path fill="#FF86D0" fill-rule="evenodd" d="m61.127 144.79 30.821 5.4-.918 5.206-30.652-5.303.748-5.303z" clip-rule="evenodd"/><path fill="#FFB7E3" fill-rule="evenodd" d="m70.763 146.48 4.205.737-1.436 6.499-4.204-.741 1.435-6.495zM85.375 149.04l4.205.741-1.418 6.403-4.205-.742 1.418-6.402z" clip-rule="evenodd"/><path fill="#1CB0F6" fill-rule="evenodd" d="m92.946 118.71 32.662 11.246a8.637 8.637 0 0 1-5.623 16.331l-32.662-11.246a8.637 8.637 0 0 1 5.623-16.331z" clip-rule="evenodd"/><path fill="#FFB7E3" fill-rule="evenodd" d="M85.361 116.39h9.87a4.935 4.935 0 0 1 4.934 4.935v11.103a4.935 4.935 0 0 1-4.934 4.935h-9.87a4.935 4.935 0 0 1-4.935-4.935v-11.103a4.935 4.935 0 0 1 4.935-4.935z" clip-rule="evenodd"/><path fill="#FFB7E3" fill-rule="evenodd" d="m100.98 121.14-5.605-.392a3.457 3.457 0 0 0-3.685 3.738l1.64 19.476a3.456 3.456 0 0 0 3.203 3.158l8.592.601a3.457 3.457 0 0 0 3.605-4.239l-4.627-19.685a3.456 3.456 0 0 0-3.123-2.657z" clip-rule="evenodd"/><path fill="#FFB7E3" fill-rule="evenodd" d="M67.952 34.961c25.04 0 45.338 20.299 45.338 45.338v4.88c0 25.04-20.298 45.339-45.338 45.339-25.04 0-45.338-20.3-45.338-45.34V80.3c0-25.04 20.299-45.338 45.338-45.338z" clip-rule="evenodd"/><path fill="#FF9BD8" fill-rule="evenodd" d="M100.6 92.414a2.135 2.135 0 0 1 1 2.849c-9.157 19.055-26.514 30.792-53.966 30.456a45.272 45.272 0 0 1-6.995-4.35 2.11 2.11 0 0 1 1.036-.183c29.299 2.177 46.978-8.84 56.077-27.772a2.135 2.135 0 0 1 2.849-1z" clip-rule="evenodd"/><path fill="#E18E70" fill-rule="evenodd" d="M57.994 46.804c19.159-5.494 39.143 5.584 44.637 24.743 5.493 19.159-5.584 39.143-24.743 44.637S38.745 110.6 33.251 91.441s5.584-39.143 24.743-44.637z" clip-rule="evenodd"/><path fill="#3D3D3D" fill-rule="evenodd" d="m77.185 46.605-.071.134C71.505 57.203 61.34 73.03 37.528 79.431c-1.712.46-3.96.527-5.645.371.703-15.035 10.84-28.62 26.11-32.998a35.92 35.92 0 0 1 19.192-.2z" clip-rule="evenodd"/><path fill="#fff" fill-rule="evenodd" d="M58.661 87.44c5.998-1.72 9.466-7.976 7.746-13.974S58.431 64 52.433 65.72c-5.998 1.72-9.466 7.976-7.746 13.974 1.72 5.998 7.976 9.466 13.974 7.746z" clip-rule="evenodd"/><path fill="#fff" fill-rule="evenodd" d="M78.938 81.625c5.998-1.72 9.466-7.976 7.746-13.974-1.72-5.998-7.976-9.466-13.974-7.746-5.998 1.72-9.466 7.976-7.746 13.974 1.72 5.998 7.976 9.466 13.974 7.746z" clip-rule="evenodd"/><path fill="#3D3D3D" fill-rule="evenodd" d="M78.433 79.863a9.466 9.466 0 1 0-5.219-18.198 9.466 9.466 0 0 0 5.22 18.198z" clip-rule="evenodd"/><path fill="#fff" fill-rule="evenodd" d="m75.502 70.993.657-.475c2.623-1.877 4.727-3.22 3.09-5.471-1.726-2.378-5.412-2.644-8.232-.596-2.82 2.049-3.705 5.637-1.978 8.014 1.683 2.316 3.75.517 6.463-1.472zM81.046 75.303a2.443 2.443 0 1 0-1.347-4.696 2.443 2.443 0 0 0 1.347 4.696z" clip-rule="evenodd"/><path fill="#3D3D3D" fill-rule="evenodd" d="M58.155 85.678a9.466 9.466 0 0 0 6.49-11.708 9.466 9.466 0 1 0-6.49 11.708z" clip-rule="evenodd"/><path fill="#fff" fill-rule="evenodd" d="m55.007 76.965.87-.632c2.623-1.877 4.727-3.219 3.09-5.471-1.727-2.377-5.412-2.644-8.232-.595s-3.705 5.636-1.978 8.013c1.639 2.256 3.641.609 6.25-1.315zM60.765 81.118a2.443 2.443 0 1 0-1.347-4.696 2.443 2.443 0 0 0 1.347 4.696z" clip-rule="evenodd"/><path fill="#E18E70" d="M88.597 69.356c-7.578 2.527-13.052 7.689-16.227 15.266a3.794 3.794 0 1 0 6.998 2.932c2.338-5.58 6.149-9.173 11.63-11a3.794 3.794 0 1 0-2.4-7.198z"/><path fill="#9E4D31" fill-rule="evenodd" d="M69.489 86.689c1.67-.479 2.633-2.232 2.15-3.917s-4.65-4.8-4.65-4.8l-.16.433c-.446 1.227-1.634 4.724-1.238 6.102.483 1.684 2.228 2.66 3.898 2.182z" clip-rule="evenodd"/><path fill="#881B1B" fill-rule="evenodd" d="M65.933 89.504c1.385.584 2.845.656 4.381.215 1.565-.448 2.796-1.31 3.693-2.585a1.11 1.11 0 0 1 1.975.333l2.693 9.39a6.014 6.014 0 1 1-11.563 3.315l-2.678-9.339a1.11 1.11 0 0 1 1.499-1.329z" clip-rule="evenodd"/><path fill="#B12E2E" fill-rule="evenodd" d="M72.615 97.536a5.831 5.831 0 0 1 6.205 2.019 6.015 6.015 0 0 1-10.398 2.982 5.831 5.831 0 0 1 4.193-5.001z" clip-rule="evenodd"/><path fill="#3D3D3D" fill-rule="evenodd" d="m25.856 67.39.497.01c7.879.218 10.374-4.558 13.23-8.105 1.905-2.365 5.017-1.262 9.336 3.308l-7.608 8.645-12.909.293-.933-.417c-5.54-2.531-6.078-3.776-1.613-3.734z" clip-rule="evenodd"/><path fill="#3D3D3D" d="m20.538 66.472 22.719 3.784a1.805 1.805 0 0 1 1.28 2.62c-2.75 5.189-8.612 8.068-14.545 7.015-5.933-1.054-10.463-5.778-11.285-11.601-.17-1.212.628-2.032 1.832-1.818z"/><path fill="#1CB0F6" fill-rule="evenodd" d="m71.239 120.58 26.143 13.901a8.636 8.636 0 1 1-8.109 15.25l-26.143-13.9a8.637 8.637 0 0 1 8.11-15.251z" clip-rule="evenodd"/><path fill="#1CB0F6" fill-rule="evenodd" d="m86.42 138.15 12.337-21.368a8.635 8.635 0 0 1 11.797-3.161 8.634 8.634 0 0 1 3.161 11.796l-12.337 21.369a8.636 8.636 0 0 1-14.958-8.636z" clip-rule="evenodd"/><path fill="#1CB0F6" fill-rule="evenodd" d="m114.92 141.02-8.033-23.33a8.635 8.635 0 0 1 5.354-10.977 8.636 8.636 0 0 1 10.977 5.354l8.033 23.33a8.636 8.636 0 1 1-16.331 5.623z" clip-rule="evenodd"/><path fill="#E18E70" fill-rule="evenodd" d="M110.65 89.245c7.154 0 12.954 5.8 12.954 12.953 0 7.155-5.8 12.954-12.954 12.954s-12.954-5.799-12.954-12.954c0-7.154 5.8-12.953 12.954-12.953z" clip-rule="evenodd"/><path fill="#E18E70" fill-rule="evenodd" d="M118.05 92.946c7.154 0 12.953 5.8 12.953 12.954 0 7.154-5.799 12.953-12.953 12.953-7.155 0-12.954-5.799-12.954-12.953 0-7.155 5.799-12.954 12.954-12.954z" clip-rule="evenodd"/><rect width="62.47" height="8.183" x="44.59" y="270.04" fill="#AFAFAF" opacity=".3" rx="4.091"/></svg>