<svg xmlns="http://www.w3.org/2000/svg" width="147" height="210" x="1323" fill="none" viewBox="0 0 146 307"><g clip-path="url(#a)"><path fill="#A56644" fill-rule="evenodd" d="M58.172 31.972h29.17c13.487 0 24.98 9.776 27.124 23.072l26.53 164.48c2.578 15.982-8.306 31.024-24.31 33.598a29.414 29.414 0 0 1-4.667.373H33.496c-16.21 0-29.35-13.123-29.35-29.31 0-1.561.125-3.119.373-4.661l26.53-164.48c2.145-13.297 13.637-23.072 27.124-23.072z" clip-rule="evenodd"/><path fill="#fff" fill-rule="evenodd" d="M82.014 43.673c4.444 0 8.046 3.597 8.046 8.035v4.887c0 4.437-3.602 8.034-8.046 8.034-4.444 0-8.046-3.597-8.046-8.034v-4.887c0-4.438 3.602-8.035 8.046-8.035z" clip-rule="evenodd"/><path fill="#3D3D3D" fill-rule="evenodd" d="M80.671 48.328a3.61 3.61 0 0 1 3.612 3.607v4.53c0 1.993-1.617 3.608-3.612 3.608s-3.612-1.615-3.612-3.607v-4.53a3.61 3.61 0 0 1 3.612-3.608z" clip-rule="evenodd"/><path fill="#fff" fill-rule="evenodd" d="M76.674 52.364c-1.602 0-2.901-1.297-2.901-2.897s1.299-2.897 2.901-2.897c1.602 0 2.9 1.297 2.9 2.897s-1.298 2.897-2.9 2.897zM62.538 43.673c4.444 0 8.046 3.597 8.046 8.035v4.887c0 4.437-3.603 8.034-8.046 8.034-4.444 0-8.046-3.597-8.046-8.034v-4.887c0-4.438 3.602-8.035 8.046-8.035z" clip-rule="evenodd"/><path fill="#3D3D3D" fill-rule="evenodd" d="M64.807 48.328a3.61 3.61 0 0 1 3.612 3.607v4.53a3.61 3.61 0 0 1-3.612 3.608 3.61 3.61 0 0 1-3.612-3.607v-4.53a3.61 3.61 0 0 1 3.612-3.608z" clip-rule="evenodd"/><path fill="#fff" fill-rule="evenodd" d="M61.319 52.023c-1.602 0-2.9-1.297-2.9-2.897s1.298-2.897 2.9-2.897 2.9 1.297 2.9 2.897-1.298 2.897-2.9 2.897z" clip-rule="evenodd"/><path fill="#A56644" fill-rule="evenodd" d="M71.965 37.244h23.484v13.577H71.965V37.244zM85.049 60.701c12.287 0 22.248 9.947 22.248 22.217s-9.96 22.217-22.248 22.217c-12.287 0-22.248-9.947-22.248-22.217s9.96-22.217 22.248-22.217z" clip-rule="evenodd"/><path fill="#E5A259" fill-rule="evenodd" d="M72.923 65.485c6.785 0 12.286 5.493 12.286 12.269V105.7c0 6.777-5.5 12.27-12.286 12.27s-12.286-5.493-12.286-12.27V77.754c0-6.776 5.5-12.269 12.286-12.269z" clip-rule="evenodd"/><path fill="#3D3D3D" fill-rule="evenodd" d="M71.215 65.485h2.73a3.752 3.752 0 0 1 3.754 3.749c0 2.07-1.68 3.749-3.754 3.749h-2.73a3.752 3.752 0 0 1-3.754-3.75c0-2.07 1.68-3.748 3.754-3.748z" clip-rule="evenodd"/><path fill="#A56644" fill-rule="evenodd" d="M74.715 264.32a5.903 5.903 0 0 1 5.907-5.898h18.732a5.903 5.903 0 0 1 5.907 5.898 5.903 5.903 0 0 1-5.907 5.899H80.622a5.903 5.903 0 0 1-5.907-5.899zM41.379 264.32a5.903 5.903 0 0 1 5.907-5.898h18.73a5.903 5.903 0 0 1 5.908 5.898 5.903 5.903 0 0 1-5.907 5.899H47.286a5.903 5.903 0 0 1-5.907-5.899z" clip-rule="evenodd"/><path fill="#BB7149" d="M68.218 157.46a18.6 18.6 0 0 0-3.576 21.319 2.145 2.145 0 0 0 3.441.576l22.06-22.029a2.139 2.139 0 0 0-.576-3.437c-7.093-3.453-15.682-2.088-21.35 3.571z"/><path fill="#BB7149" d="M54.177 153.89a2.139 2.139 0 0 0-.576 3.437l22.06 22.029a2.145 2.145 0 0 0 3.441-.576 18.6 18.6 0 0 0-3.576-21.319c-5.667-5.659-14.256-7.024-21.35-3.571z"/><path fill="#BB7149" d="M78.312 163.16c-4.503 1.205-7.742 5.021-8.132 9.475a2.142 2.142 0 0 0 2.69 2.254l16.028-4.289a2.139 2.139 0 0 0 1.2-3.294c-2.567-3.663-7.283-5.351-11.786-4.146z"/><path fill="#BB7149" d="M54.037 167.31a2.139 2.139 0 0 0 1.2 3.294l16.029 4.289a2.142 2.142 0 0 0 2.69-2.254c-.39-4.454-3.63-8.27-8.132-9.475s-9.22.483-11.787 4.146z"/><path fill="#2FE3FF" fill-rule="evenodd" d="M16.497 128.76h110.9a3.294 3.294 0 0 1 3.254 2.763l3.592 22.044a3.293 3.293 0 0 1-3.254 3.821H13.109a3.294 3.294 0 0 1-3.259-3.791l3.38-22.043a3.295 3.295 0 0 1 3.259-2.794z" clip-rule="evenodd"/><path fill="#2FE3FF" fill-rule="evenodd" d="M41.336 124.67h16.103a4.942 4.942 0 0 1 4.888 5.688l-8.547 55.559a4.943 4.943 0 0 1-4.888 4.188H32.789a4.942 4.942 0 0 1-4.888-5.688l8.547-55.558a4.943 4.943 0 0 1 4.888-4.189z" clip-rule="evenodd"/><path fill="#A56644" fill-rule="evenodd" d="M38.583 17.844a5.908 5.908 0 0 1 7.443 3.787l.764 2.348a5.897 5.897 0 0 1-3.792 7.433 5.909 5.909 0 0 1-7.443-3.787l-.764-2.348a5.897 5.897 0 0 1 3.792-7.433zM123.67 32.279a5.894 5.894 0 0 1-2.302 8.019l-2.163 1.197a5.912 5.912 0 0 1-8.03-2.3 5.895 5.895 0 0 1 2.303-8.018l2.162-1.197a5.91 5.91 0 0 1 8.03 2.299z" clip-rule="evenodd"/><rect width="92.936" height="8.183" x="26.656" y="270.04" fill="#AFAFAF" opacity=".3" rx="4.091"/></g><defs><clipPath id="a"><path fill="#fff" d="M.273 0h145.7v306.16H.273z"/></clipPath></defs></svg>