<svg xmlns="http://www.w3.org/2000/svg" width="147" height="210" x="882" viewBox="0 0 145 307"><path fill="#593F86" fill-rule="evenodd" d="M69.918 265.02a4.896 4.896 0 0 1 4.896-4.897h14.59a4.896 4.896 0 0 1 0 9.793h-14.59a4.896 4.896 0 0 1-4.896-4.896z" clip-rule="evenodd"/><path fill="#593F86" fill-rule="evenodd" d="M53.879 265.02a4.896 4.896 0 0 1 4.896-4.897h14.59a4.896 4.896 0 0 1 0 9.793h-14.59a4.896 4.896 0 0 1-4.896-4.896z" clip-rule="evenodd"/><path fill="#A570FF" fill-rule="evenodd" d="M76.602 54.496c19.356 0 35.832 14.09 38.836 33.211l9.013 57.363a1.95 1.95 0 0 1-1.927 2.253H34.747a1.95 1.95 0 0 1-1.938-2.168l6.425-57.251c2.135-19.025 18.223-33.409 37.368-33.409z" clip-rule="evenodd"/><path fill="#593F86" fill-rule="evenodd" d="M65.442 130.22h16.043c.69 0 1.25.56 1.25 1.25v60.419c0 .691-.56 1.25-1.25 1.25H65.442a1.25 1.25 0 0 1-1.25-1.25V131.47c0-.69.56-1.25 1.25-1.25z" clip-rule="evenodd"/><path fill="#FFC6B7" fill-rule="evenodd" d="m111.14 89.45 2.873.302a7.41 7.41 0 1 1-1.55 14.74l-2.872-.302a7.41 7.41 0 1 1 1.549-14.74z" clip-rule="evenodd"/><path fill="#FFC6B7" fill-rule="evenodd" d="M83.744 60.433c16.271 1.71 28.662 15.366 28.788 31.726l.205 26.514c.067 8.767-6.985 15.929-15.752 15.996-.595.005-1.19-.024-1.782-.086l-39.753-4.178c-8.719-.917-15.044-8.728-14.128-17.447.08-.751.212-1.495.396-2.227l6.427-25.45c4.036-15.983 19.205-26.57 35.6-24.847z" clip-rule="evenodd"/><path fill="#A570FF" fill-rule="evenodd" d="M83.744 58.438c15.477 1.627 29.07 15.868 30.467 31.335l-24.285-2.552C77.072 85.87 67.748 74.355 69.098 61.5l.191-1.821c4.512-1.329 9.426-1.77 14.454-1.242z" clip-rule="evenodd"/><path fill="#fff" fill-rule="evenodd" d="M80.212 96.127a9.878 9.878 0 0 0-.369 1.83l-.715 6.803a4.791 4.791 0 0 0 4.265 5.266l5.004.526c5.396.567 10.23-3.347 10.797-8.743l.383-3.646c-.165-2.227-17.385-5.944-19.365-2.036z" clip-rule="evenodd"/><path fill="#3D3D3D" fill-rule="evenodd" d="M98.414 96.75a4.41 4.41 0 1 1-8.772-.922l8.772.922z" clip-rule="evenodd"/><path fill="#A570FF" fill-rule="evenodd" d="M80.211 96.128c1.325-4.378 5.578-7.355 10.285-6.928l.143.014 8.526.896a1.25 1.25 0 0 1 1.117 1.328l-.004.046-.702 6.68-19.365-2.036z" clip-rule="evenodd"/><path fill="#fff" fill-rule="evenodd" d="M77.384 95.916a9.88 9.88 0 0 1-.027 1.78l-.693 6.595a5 5 0 0 1-5.496 4.45l-4.796-.504c-5.396-.567-9.31-5.401-8.743-10.796l.497-4.732c.196-1.864 17.288-.983 19.258 3.207z" clip-rule="evenodd"/><path fill="#3D3D3D" fill-rule="evenodd" d="M76.832 94.481a4.41 4.41 0 0 1-8.772-.922l8.772.922z" clip-rule="evenodd"/><path fill="#A570FF" fill-rule="evenodd" d="m60.089 86.003 8.527.896c4.794.504 8.418 4.376 8.77 9.018L58.003 93.88l.711-6.764a1.25 1.25 0 0 1 1.374-1.113z" clip-rule="evenodd"/><path fill="#FFC6B7" fill-rule="evenodd" d="M95.063 107.89c8.994.946 15.804 8.185 16.511 16.882-2.344 5.765-7.979 9.849-14.589 9.9-.595.004-1.19-.025-1.782-.087l-19.5-2.049a18.436 18.436 0 0 1-.979-8.176c1.068-10.164 10.174-17.538 20.34-16.47z" clip-rule="evenodd"/><path fill="#EE9583" d="M83.283 120.97c3.392-5.14 6.835-7.013 10.118-4.918a1.287 1.287 0 1 1-1.385 2.17c-1.74-1.111-3.866.045-6.584 4.166a1.287 1.287 0 0 1-2.15-1.418z"/><path fill="#EE9583" fill-rule="evenodd" d="M76.5 115.8c2.174.228 4.121-1.339 4.348-3.501s-3.172-7.689-3.172-7.689l-.54.586c-1.196 1.328-3.983 4.581-4.161 6.275-.228 2.162 1.35 4.1 3.525 4.329z" clip-rule="evenodd"/><path fill="#A570FF" fill-rule="evenodd" d="m53.57 65.127 2.04-1.974 11.272-4.684a2.34 2.34 0 0 1 3.239 2.16v71.3a1.95 1.95 0 0 1-1.95 1.95H38.94a2.34 2.34 0 0 1-2.322-2.63l5.369-42.93A39.003 39.003 0 0 1 53.57 65.127zM65.442 177.72h16.043c.69 0 1.25.56 1.25 1.25v73.756c0 .69-.56 1.25-1.25 1.25H65.442c-.69 0-1.25-.56-1.25-1.25V178.97c0-.69.56-1.25 1.25-1.25z" clip-rule="evenodd"/><path fill="#593F86" fill-rule="evenodd" d="M73.137 138.14h.88c3.2 0 6.194 1.575 8.007 4.212l18.74 27.258a7.403 7.403 0 0 1-6.1 11.596H52.489a7.402 7.402 0 0 1-6.1-11.596l18.74-27.258a9.718 9.718 0 0 1 8.008-4.212z" clip-rule="evenodd"/><path fill="#FFC6B7" fill-rule="evenodd" d="m60.433 164.18 10.434 3.797a4.319 4.319 0 0 1-2.954 8.116l-10.434-3.798a4.318 4.318 0 0 1 2.954-8.115z" clip-rule="evenodd"/><path fill="#FFC6B7" fill-rule="evenodd" d="M63.52 164.28a4.318 4.318 0 0 1 5.925-1.478l9.518 5.719a4.318 4.318 0 1 1-4.448 7.402l-9.518-5.718a4.318 4.318 0 0 1-1.477-5.925z" clip-rule="evenodd"/><rect width="62.128" height="8.183" x="41.457" y="270.04" fill="#AFAFAF" opacity=".3" rx="4.091"/></svg>