<svg xmlns="http://www.w3.org/2000/svg" width="147" height="210" x="588" viewBox="0 0 147 307"><path fill="#FFC6B7" fill-rule="evenodd" d="M64.017 202.33a8.99 8.99 0 0 1 6.358 11.012l-5.563 20.763a8.991 8.991 0 0 1-17.37-4.654l5.563-20.763a8.99 8.99 0 0 1 11.012-6.358z" clip-rule="evenodd"/><path fill="#FFC6B7" fill-rule="evenodd" d="M53.526 224.41a8.991 8.991 0 0 1 11.012 6.358l3.648 13.613a8.992 8.992 0 0 1-17.37 4.655l-3.648-13.613a8.992 8.992 0 0 1 6.358-11.013zM85.878 202.33a8.991 8.991 0 0 0-6.358 11.012l5.563 20.763a8.991 8.991 0 1 0 17.37-4.654l-5.563-20.763a8.99 8.99 0 0 0-11.012-6.358z" clip-rule="evenodd"/><path fill="#FFC6B7" fill-rule="evenodd" d="M96.371 224.41a8.991 8.991 0 0 0-11.012 6.358l-3.648 13.613a8.992 8.992 0 0 0 17.37 4.655l3.648-13.613a8.992 8.992 0 0 0-6.358-11.013z" clip-rule="evenodd"/><path fill="#FF4B4B" fill-rule="evenodd" d="M45.599 259.61h19.268a4.955 4.955 0 1 1 0 9.909H45.599a4.954 4.954 0 1 1 0-9.909zM85.755 259.61h19.268a4.955 4.955 0 0 1 0 9.909H85.755a4.954 4.954 0 1 1 0-9.909zM29.556 142.74h90.151c5.99 0 11.342 3.74 13.403 9.365l6.316 17.242c3.432 9.37-1.381 19.748-10.751 23.181a18.077 18.077 0 0 1-6.215 1.102H26.802c-9.979 0-18.068-8.089-18.068-18.068 0-2.12.373-4.224 1.102-6.215l6.316-17.242a14.274 14.274 0 0 1 13.403-9.365z" clip-rule="evenodd"/><path fill="#FFB100" stroke="#FFB100" stroke-linejoin="round" stroke-width="1.651" d="M22.465 126.46a.826.826 0 0 0-.826.836l.005.377v.01c.211 8.583 7.235 15.476 15.868 15.476h72.85c8.766 0 15.873-7.107 15.873-15.873a.826.826 0 0 0-.826-.826H22.47z"/><path fill="#FFB100" fill-rule="evenodd" d="M49.988 56.771h48.444c8.513 0 15.414 6.901 15.414 15.414v57.436H34.573V72.185c0-8.513 6.901-15.414 15.414-15.414z" clip-rule="evenodd"/><path fill="#FF4B4B" fill-rule="evenodd" d="M44.366 145.04h60.605c9.02 0 16.332 7.312 16.332 16.331 0 1.212-.135 2.42-.402 3.601l-8.877 39.27a16.332 16.332 0 0 1-15.93 12.73h-42.85a16.332 16.332 0 0 1-15.93-12.73l-8.877-39.27c-1.99-8.797 3.53-17.542 12.328-19.53a16.281 16.281 0 0 1 3.6-.402z" clip-rule="evenodd"/><path fill="#D22121" fill-rule="evenodd" d="m114.43 193.61-2.403 10.631a16.331 16.331 0 0 1-15.93 12.73h-42.85a16.332 16.332 0 0 1-15.93-12.73l-2.403-10.631h79.516z" clip-rule="evenodd"/><path fill="#D22121" fill-rule="evenodd" d="m51.259 208.79 21.635 4.995c.691.159 1.122.849.963 1.54l-2.725 11.801a1.284 1.284 0 0 1-1.54.962l-21.635-4.994a1.285 1.285 0 0 1-.963-1.541l2.724-11.8c.16-.692.85-1.123 1.541-.963zM97.943 208.79l-21.635 4.995a1.284 1.284 0 0 0-.963 1.54l2.725 11.801c.16.691.85 1.122 1.54.962l21.634-4.994c.691-.16 1.122-.85.963-1.541l-2.724-11.8a1.284 1.284 0 0 0-1.54-.963z" clip-rule="evenodd"/><path fill="#FFC6B7" fill-rule="evenodd" d="M54.391 67.415h38.352c8.006 0 14.497 6.49 14.497 14.497v62.758H39.894V81.912c0-8.006 6.49-14.497 14.497-14.497z" clip-rule="evenodd"/><path fill="#fff" fill-rule="evenodd" d="M64.289 76.871a8.652 8.652 0 0 1 8.652 8.652v5.263a8.652 8.652 0 0 1-17.304 0v-5.263a8.652 8.652 0 0 1 8.652-8.652zM84.656 76.871a8.652 8.652 0 0 1 8.652 8.652v5.263a8.652 8.652 0 0 1-17.304 0v-5.263a8.652 8.652 0 0 1 8.652-8.652z" clip-rule="evenodd"/><path fill="#3D3D3D" fill-rule="evenodd" d="M66.677 82.009a3.884 3.884 0 0 1 3.884 3.884v4.88a3.884 3.884 0 0 1-7.768 0v-4.88c0-.084.002-.168.008-.251a2.844 2.844 0 0 0 3.19-3.572c.223-.04.452-.061.686-.061zM82.275 81.956a3.884 3.884 0 0 1 3.884 3.884v4.88a3.884 3.884 0 1 1-7.768 0v-4.88c0-.084.002-.168.008-.251a2.844 2.844 0 0 0 3.191-3.572c.222-.04.45-.061.685-.061z" clip-rule="evenodd"/><path fill="#FFC6B7" fill-rule="evenodd" d="M89.226 92.021c7.311 0 13.822 3.426 18.014 8.76v28.274c-4.192 5.335-10.703 8.76-18.014 8.76a22.797 22.797 0 0 1-14.188-4.923 22.793 22.793 0 0 1-14.187 4.924c-9.357 0-17.404-5.613-20.956-13.656v-18.483c3.552-8.043 11.599-13.656 20.956-13.656a22.8 22.8 0 0 1 14.188 4.924 22.796 22.796 0 0 1 14.187-4.924z" clip-rule="evenodd"/><path fill="#FFB100" fill-rule="evenodd" d="M46.868 72.277v10.827a7.615 7.615 0 0 1-7.314 7.61l-.058-9.202c0-5.157 2.693-9.685 6.75-12.255.4.926.622 1.947.622 3.02zm60.77 9.235-.057 9.137A7.617 7.617 0 0 1 101 83.104V72.277c0-.926.165-1.813.468-2.634a14.48 14.48 0 0 1 6.17 11.868z" clip-rule="evenodd"/><path fill="#702323" d="M57.433 100.42a6.817 6.817 0 0 1 8.12 3.191c1.024 1.411 2.516 2.727 4.606 3.188l.337.038.463.044a6.817 6.817 0 0 1-1.3 13.57c-8.278-.724-14.271-4.525-16.554-11.418a6.816 6.816 0 0 1 4.328-8.613z"/><path fill="#fff" d="M65.551 103.61c1.025 1.411 2.517 2.727 4.607 3.188l.337.038.463.044.108.012a3.59 3.59 0 0 1-2.344.865h-2.806c-1.48 0-2.752-.89-3.309-2.165a3.606 3.606 0 0 1-3.307 2.165h-2.807a3.61 3.61 0 0 1-3.489-2.684 6.817 6.817 0 0 1 12.547-1.463z"/><path fill="#B23232" d="M74.237 113.18c.975 0 1.924.114 2.833.327a6.816 6.816 0 0 1-7.41 6.942c-2.18-.191-4.201-.595-6.039-1.213a12.324 12.324 0 0 1 10.616-6.056z"/><path fill="#F3A577" fill-rule="evenodd" d="M74.408 104.12a3.853 3.853 0 0 0 3.853-3.852c0-2.127-3.853-7.158-3.853-7.158l-.486.658c-1.036 1.434-3.367 4.845-3.367 6.5a3.853 3.853 0 0 0 3.853 3.852z" clip-rule="evenodd"/><circle cx="36.865" cy="92.646" r="7.432" fill="#FFC6B7"/><circle cx="110.82" cy="92.646" r="7.432" fill="#FFC6B7"/><path fill="#FF4B4B" fill-rule="evenodd" d="M34.76 64.111h78.892a2.386 2.386 0 0 1 2.386 2.385v4.955a2.386 2.386 0 0 1-2.386 2.386H34.76a2.386 2.386 0 0 1-2.386-2.386v-4.955a2.385 2.385 0 0 1 2.386-2.385z" clip-rule="evenodd"/><path fill="#FFB100" fill-rule="evenodd" d="M74.21 38.972c9.121 0 16.515 7.394 16.515 16.515S83.331 72.002 74.21 72.002s-16.515-7.394-16.515-16.515 7.394-16.515 16.515-16.515z" clip-rule="evenodd"/><path fill="#FFB100" d="m56.885 43.332 15.786 17.201c.828.922.52 2.384-.61 2.888-5.425 2.42-11.898 1.057-15.98-3.487-4.082-4.545-4.758-11.14-1.79-16.295.618-1.073 1.766-1.228 2.594-.306z"/><path fill="#FF4B4B" fill-rule="evenodd" d="M38.796 136.23h69.914c1.115 0 2.018.903 2.018 2.018v6.973a2.018 2.018 0 0 1-2.018 2.019H38.796a2.019 2.019 0 0 1-2.019-2.019v-6.973c0-1.115.904-2.018 2.019-2.018z" clip-rule="evenodd"/><path fill="#EBE3E3" fill-rule="evenodd" d="M72.008 135.86h4.955v57.817h-4.955V135.86z" clip-rule="evenodd"/><path fill="#EBE3E3" fill-rule="evenodd" d="M72.247 135.86h4.477c.678 0 1.268.464 1.427 1.124l2.963 12.294a1.468 1.468 0 0 1-1.428 1.812H69.284a1.468 1.468 0 0 1-1.427-1.812l2.963-12.294a1.467 1.467 0 0 1 1.427-1.124z" clip-rule="evenodd"/><path fill="#FFB100" fill-rule="evenodd" d="M34.576 120.37c0 1.456-.02 5.284-4.22 5.284 2.726 2.665 3.01 2.332 3.01 2.332l1.961-1.038.534-4.405s-1.285-3.629-1.285-2.173zM113.84 120.27l.006.56c.036 1.672.407 4.821 4.217 4.821l-.67.644c-1.396 1.318-2.176 1.881-2.34 1.688l-1.962-1.038-.534-4.405.341-.933c.603-1.589.917-2.035.942-1.337z" clip-rule="evenodd"/><path fill="#FFC6B7" fill-rule="evenodd" d="m18.855 136.69 12.316 1.402a11.943 11.943 0 0 1 10.592 11.866v2.367c0 6.596-5.347 11.943-11.942 11.943h-8.636c-6.596 0-11.942-5.347-11.942-11.943v-7.054a8.636 8.636 0 0 1 9.613-8.581z" clip-rule="evenodd"/><path fill="#FFC6B7" fill-rule="evenodd" d="M9.179 150.35h20.134a5.823 5.823 0 1 1 0 11.646H9.179a5.823 5.823 0 1 1 0-11.646z" clip-rule="evenodd"/><path fill="#FF4B4B" fill-rule="evenodd" d="M121.84 161.11c11.583 0 20.973 9.39 20.973 20.973s-9.39 20.973-20.973 20.973-20.973-9.39-20.973-20.973 9.39-20.973 20.973-20.973z" clip-rule="evenodd"/><path fill="#FFC6B7" fill-rule="evenodd" d="m110.66 154.86-11.368 4.942a11.942 11.942 0 0 0-6.66 14.444l.692 2.264c1.929 6.307 8.605 9.857 14.912 7.929l8.258-2.525c6.308-1.929 9.857-8.605 7.93-14.912l-2.064-6.746a8.634 8.634 0 0 0-11.7-5.396z" clip-rule="evenodd"/><path fill="#FFC6B7" fill-rule="evenodd" d="m113.99 170.19 8.311-4.234a5.823 5.823 0 1 1 5.287 10.376l-8.31 4.235a5.823 5.823 0 0 1-5.288-10.377z" clip-rule="evenodd"/><path fill="#FF4B4B" fill-rule="evenodd" d="M8.768 162.07H38.97c.764 0 1.382.618 1.382 1.381v21.615c0 9.103-7.38 16.482-16.482 16.482-9.103 0-16.482-7.379-16.482-16.482v-21.615c0-.763.619-1.381 1.382-1.381z" clip-rule="evenodd"/><rect width="88.016" height="8.183" x="30.117" y="270.04" fill="#AFAFAF" opacity=".3" rx="4.091"/></svg>