<svg xmlns="http://www.w3.org/2000/svg" width="147" height="210" x="1176" fill="none" viewBox="0 0 147 307"><g clip-path="url(#a)"><path fill="#FF9500" fill-rule="evenodd" d="M56.164 265.39a4.894 4.894 0 0 1 4.898-4.891h25.034a4.894 4.894 0 0 1 4.898 4.891 4.895 4.895 0 0 1-4.898 4.891H61.062a4.895 4.895 0 0 1-4.898-4.891z" clip-rule="evenodd"/><path fill="#3D3D3D" d="M73.036 84.061c8.716 0 15.782-7.015 15.782-15.67 0-8.654-7.066-15.67-15.782-15.67s-15.782 7.016-15.782 15.67 7.066 15.67 15.782 15.67z"/><path fill="#FFCBA3" d="M129.54 211.95H17.06c-5.12 0-9.27 4.144-9.27 9.257 0 5.112 4.15 9.257 9.27 9.257h112.48c5.12 0 9.271-4.145 9.271-9.257 0-5.113-4.151-9.257-9.271-9.257z"/><path fill="#FFB100" d="M120.89 170.65H25.717c-13.311 0-24.102 10.776-24.102 24.069 0 13.292 10.791 24.068 24.102 24.068h95.173c13.311 0 24.102-10.776 24.102-24.068 0-13.293-10.791-24.069-24.102-24.069z"/><path fill="#FFB100" fill-rule="evenodd" d="M65.509 157.97h16.145c26.299 0 47.618 21.289 47.618 47.552v41.829a5.727 5.727 0 0 1-5.73 5.723h-99.92a5.727 5.727 0 0 1-5.73-5.723v-41.829c0-26.263 21.32-47.552 47.617-47.552z" clip-rule="evenodd"/><path fill="#FF9500" fill-rule="evenodd" d="M129.27 205.52v37.227H94.804a4.351 4.351 0 0 1-4.354-4.348v-67.75l23.576-.001c9.376 8.684 15.244 21.094 15.244 34.872zm-74.375-34.871v67.75a4.351 4.351 0 0 1-4.354 4.348H17.888V205.52c0-13.778 5.869-26.188 15.245-34.872l21.761.001z" clip-rule="evenodd"/><path fill="#fff" d="M72.258 202.4c2.473 0 4.477-2.002 4.477-4.471s-2.004-4.471-4.477-4.471-4.477 2.002-4.477 4.471 2.004 4.471 4.477 4.471zM74.305 170.02c0-5.352-4.345-9.691-9.705-9.691s-9.705 4.339-9.705 9.691v6.549c0 5.352 4.345 9.691 9.705 9.691s9.705-4.339 9.705-9.691v-6.549z"/><path fill="#fff" d="M90.449 170.02c0-5.352-4.345-9.691-9.705-9.691s-9.705 4.339-9.705 9.691v6.549c0 5.352 4.345 9.691 9.705 9.691s9.705-4.339 9.705-9.691v-6.549z"/><path fill="#3D3D3D" fill-rule="evenodd" d="M54.114 87.865h37.609c18.001 0 32.594 14.573 32.594 32.549s-14.593 32.549-32.594 32.549H54.114c-18.001 0-32.594-14.573-32.594-32.549s14.593-32.549 32.594-32.549z" clip-rule="evenodd"/><path fill="#CAC9C9" fill-rule="evenodd" d="M91.723 152.96H54.114c-16.606 0-30.312-12.401-32.336-28.435h102.28c-2.025 16.034-15.73 28.435-32.336 28.435z" clip-rule="evenodd"/><path fill="#FFCBA3" fill-rule="evenodd" d="M73.308 100.36c22.292 0 40.362 18.046 40.362 40.306v30.161H32.945v-30.161c0-22.26 18.071-40.306 40.362-40.306z" clip-rule="evenodd"/><path fill="#3D3D3D" d="M104.33 97.466H45.374v9.6h58.956v-9.6z"/><path fill="#fff" fill-rule="evenodd" d="M63.855 116.3c4.649 0 8.417 3.763 8.417 8.405v5.186c0 4.643-3.768 8.406-8.417 8.406s-8.417-3.763-8.417-8.406v-5.186c0-4.642 3.768-8.405 8.417-8.405z" clip-rule="evenodd"/><path fill="#fff" d="M92.206 124.71c0-4.642-3.768-8.405-8.417-8.405s-8.417 3.763-8.417 8.405v5.186c0 4.643 3.768 8.406 8.417 8.406s8.417-3.763 8.417-8.406v-5.186z"/><path fill="#FFCBA3" fill-rule="evenodd" d="M52.044 133.88c9.468.657 15.987 2.084 19.557 4.282s.564 8.56-9.02 19.086L46.57 143.522l5.474-9.642z" clip-rule="evenodd"/><path fill="#E89665" fill-rule="evenodd" d="M73.851 141.49c2.254 0 4.082-1.844 4.082-4.119s-4.082-7.656-4.082-7.656-4.082 5.381-4.082 7.656 1.828 4.119 4.082 4.119z" clip-rule="evenodd"/><path fill="#3D3D3D" fill-rule="evenodd" d="M66.158 121.22a3.788 3.788 0 0 1 3.791 3.786v4.755c0 2.091-1.697 3.786-3.791 3.786s-3.79-1.695-3.79-3.786v-4.755l.007-.245a2.774 2.774 0 0 0 3.114-3.482c.217-.038.44-.059.669-.059zM81.916 121.22a3.788 3.788 0 0 1 3.791 3.786v4.755a3.788 3.788 0 0 1-3.791 3.786 3.788 3.788 0 0 1-3.79-3.786v-4.755c0-.137.006-.272.02-.405a2.774 2.774 0 0 0 3.681-3.378l.089-.003z" clip-rule="evenodd"/><path fill="#FFCBA3" fill-rule="evenodd" d="M52.356 126.88h20.586c3.273 0 1.765-9.373-3.442-12.516-3.997-2.413-11.57.85-12.349.85-1.193 0-2.791 3.889-4.795 11.666z" clip-rule="evenodd"/><path fill="#FFCBA3" fill-rule="evenodd" d="M71.582 125.65h20.586c3.273 0 1.765-9.012-3.442-12.154-3.997-2.412-11.57.85-12.349.85-1.193 0-2.792 3.768-4.795 11.304z" clip-rule="evenodd"/><path fill="#3D3D3D" d="M71.199 117.56a19.794 19.794 0 0 1 17.872-5.371 2.777 2.777 0 0 1-1.038 5.456l-.062-.011a14.225 14.225 0 0 0-12.948 3.963l-.101.104-.619.642c-.507.525-1.2.83-1.927.849l-.076.001H56.675a2.779 2.779 0 0 1-2.781-2.777 2.779 2.779 0 0 1 2.719-2.776l.062-.001H71.12l.078-.079z"/><path fill="#F3A577" d="M100.44 126.17a.894.894 0 0 1 .728 1.634l-.039.017-4.61 1.918 4.629 2.055a.894.894 0 0 1 .471 1.141l-.016.04a.896.896 0 0 1-1.142.47l-.04-.016-6.53-2.899a.894.894 0 0 1-.021-1.625l.04-.017 6.53-2.718zM45.806 126.17a.896.896 0 0 0-.728 1.634l.04.017 4.61 1.918-4.63 2.055a.895.895 0 0 0-.471 1.141l.016.04c.195.438.7.642 1.142.47l.04-.016 6.53-2.899a.894.894 0 0 0 .021-1.625l-.04-.017-6.53-2.718z"/><path fill="#3D3D3D" fill-rule="evenodd" d="M34.741 99.64h8.02c4.698 0 8.507 3.804 8.507 8.495v8.009c0 4.692-3.809 8.495-8.507 8.495h-8.02c-4.698 0-8.507-3.803-8.507-8.495v-8.01c0-4.69 3.809-8.494 8.507-8.494zM103.85 98.734h6.932c4.698 0 8.507 3.804 8.507 8.495v8.915c0 4.692-3.809 8.495-8.507 8.495h-6.932c-4.698 0-8.506-3.803-8.506-8.495v-8.915c0-4.691 3.808-8.495 8.506-8.495z" clip-rule="evenodd"/><path fill="#E89665" d="M66.07 150.71c-2.06-.533-3.91.112-5.37 1.835a1.161 1.161 0 0 0 .138 1.638 1.165 1.165 0 0 0 1.64-.137c.897-1.06 1.84-1.388 3.008-1.086 1.193.309 2.623 1.275 4.252 2.915l.193.197c.161.166.324.338.49.517a1.164 1.164 0 0 0 1.713-1.574l-.327-.349-.217-.225-.215-.219c-1.896-1.907-3.65-3.084-5.305-3.512z"/><path fill="#F7B286" d="M74.686 162.99c.416-.266.97-.145 1.237.271s.145.969-.272 1.235c-4.829 3.087-9.74 3.087-14.57 0a.893.893 0 1 1 .965-1.506c4.24 2.71 8.399 2.71 12.64 0z"/><rect width="62.557" height="8.183" x="42.144" y="270.04" fill="#AFAFAF" opacity=".3" rx="4.091"/></g></svg>