<svg xmlns="http://www.w3.org/2000/svg" width="147" height="210" fill="none" viewBox="0 0 146 307"><path fill="#3D3D3D" d="M54.863 40.83h54.063v33.078H54.863z"/><path fill="#3D3D3D" d="M64.654 69.329c-4.737 4.518-12.239 4.341-16.757-.395l-12.92-13.545c-4.518-4.737-4.341-12.24.395-16.757l14.246-13.59c4.737-4.518 12.24-4.34 16.757.396l12.92 13.545c4.519 4.737 4.341 12.239-.395 16.757L64.654 69.329zM104.43 69.083c4.737 4.518 12.24 4.341 16.758-.395l12.92-13.545c4.518-4.737 4.341-12.24-.395-16.757l-14.246-13.59c-4.737-4.518-12.239-4.34-16.758.396l-12.92 13.545c-4.518 4.737-4.341 12.239.395 16.757l14.246 13.589z"/><path fill="#3D3D3D" d="M60.859 21.832c0-6.546 5.306-11.852 11.852-11.852H95.6c6.546 0 11.852 5.306 11.852 11.852v20.755c0 6.546-5.306 11.852-11.852 11.852H72.711c-6.546 0-11.852-5.306-11.852-11.852V21.832z"/><path fill="#FDB02A" d="M70.504 130.26h26.799v15.633H70.504z"/><path fill="#A46648" d="M109.82 69.952a9.079 9.079 0 0 1 9.079 9.08v41.536c0 5.892-4.776 10.668-10.668 10.668H60.745c-5.892 0-10.668-4.776-10.668-10.668V79.031a9.08 9.08 0 0 1 9.08-9.079h50.663z"/><rect width="17.525" height="22.984" x="64.633" y="83.006" fill="#fff" rx="8.762"/><rect width="17.525" height="22.984" x="87.117" y="83.006" fill="#fff" rx="8.762"/><path fill="#3D3D3D" fill-rule="evenodd" d="M73.043 93.634a3.16 3.16 0 0 0 2.493-5.102 3.879 3.879 0 0 1 4.612 3.81v4.883a3.879 3.879 0 0 1-7.757 0v-3.658c.21.044.428.067.652.067zM89.129 93.634a3.16 3.16 0 0 0 2.6-4.956 3.879 3.879 0 0 1 5.156 3.663v4.884a3.878 3.878 0 0 1-7.756 0v-3.591z" clip-rule="evenodd"/><path fill="#86401F" d="M81.684 105.97a2.865 2.865 0 0 0 5.73 0c0-1.582-2.746-5.252-2.865-5.252-.12 0-2.865 3.67-2.865 5.252z"/><path fill="#FDB02A" d="M82.398 64.794c.624-7.296 7.044-12.705 14.34-12.082l-.318 3.726c-.624 7.296-7.044 12.705-14.34 12.082l.318-3.726z"/><path fill="#FDB02A" d="M72.633 56.308c.624 7.296 7.044 12.705 14.34 12.082l-.318-3.726c-.624-7.296-7.044-12.705-14.34-12.081l.318 3.726z"/><rect width="67.301" height="17.333" fill="#A46648" rx="8.666" transform="scale(1 -1) rotate(69.159 181.8 -59.661)"/><path fill="#1CB0F6" d="M67.35 253.68a4.199 4.199 0 0 1-4.085 3.228H45.957c-2.752 0-4.76-2.604-4.06-5.266l20.605-78.428a8.838 8.838 0 0 1 8.548-6.593h13.084a3.093 3.093 0 0 1 3.01 3.809l-19.795 83.25z"/><path fill="#1CB0F6" d="M79.209 252.72a4.2 4.2 0 0 0 4.198 4.195h18.524a4.199 4.199 0 0 0 4.197-4.306l-2.015-78.963a8.839 8.839 0 0 0-8.836-8.613H83.323c-2.32 0-4.2 1.882-4.198 4.202l.084 83.485z"/><path fill="#FF4B4B" d="M67.953 160.88h31.903v6.7H67.953z"/><path fill="#FDB02A" d="M62.848 155c0-9.614 7.794-17.407 17.408-17.407h8.892c9.614 0 17.408 7.793 17.408 17.407a6.838 6.838 0 0 1-6.838 6.839h-30.03a6.839 6.839 0 0 1-6.84-6.839z"/><rect width="8.521" height="5.899" x="80.297" y="103.82" fill="#86401F" rx="2.95"/><rect width="25.842" height="8.295" x="83.906" y="261.7" fill="#FF4B4B" rx="4.147"/><rect width="25.842" height="8.295" x="32.223" y="261.7" fill="#FF4B4B" rx="4.147"/><path fill="#3CC0FF" d="M76.246 167.58h6.7v18.111c0 1.098-.89 1.988-1.989 1.988h-2.722a1.988 1.988 0 0 1-1.989-1.988V167.58z"/><path fill="#FDB02A" d="M45.816 66.675h39.982v3.92l-36.013 19.02-3.97-22.94z"/><path fill="#FDB02A" d="M122.83 66.675H82.848v3.92l36.012 19.02 3.97-22.94z"/><path fill="#1CB0F6" d="M70.824 161.84h3.509v5.743h-3.509zM86.777 161.84h3.509v7.019h-3.509z"/><path fill="#A46648" d="M80.558 108.76c-3.022-5.032-10.387-6.895-17.374-5.032l1.51 5.032c6.673 1.367 18.27 4.008 15.864 0z"/><path stroke="#884727" stroke-linecap="round" stroke-width="1.967" d="M73.984 110.62c1.213 2.233 3.917 5.093 9.5 5.093"/><circle cx="49.926" cy="97.235" r="7.816" fill="#A46648"/><rect width="34.085" height="17.333" fill="#A46648" rx="8.666" transform="scale(-1 1) rotate(-15.159 490.462 542.701)"/><rect width="32.725" height="17.187" fill="#A46648" rx="8.593" transform="scale(-1 1) rotate(49.953 -208.537 -50.814)"/><path fill="#A46648" d="M61.894 90.92a8.839 8.839 0 0 1 8.839-8.839H97.72a8.838 8.838 0 0 1 8.838 8.839v6.156H61.895V90.92z"/><rect width="14.676" height="3.19" x="86.777" y="88.462" fill="#884727" rx="1.595"/><path stroke="#884727" stroke-linecap="round" stroke-linejoin="round" stroke-width="1.989" d="M81.868 86.259c-1.931-1.483-7.237-3.828-13.011-1.347"/><rect width="20.375" height="12.47" x="101.12" y="158.57" fill="#A46648" rx="6.235" transform="rotate(33.946 101.12 158.57)"/><circle cx="118.52" cy="96.916" r="7.816" fill="#A46648"/><rect width="1.595" height="4.147" x="80.074" y="191.19" fill="#0395DB" rx=".798" transform="rotate(90 80.074 191.19)"/><path fill="#4CC5FF" d="M77.24 246.78a1.326 1.326 0 0 1 1.325-1.358h27.974c.72 0 1.308.574 1.326 1.294l.254 10.429a1.326 1.326 0 0 1-1.325 1.358H78.82c-.72 0-1.308-.574-1.325-1.294l-.254-10.429zM41.256 246.44a1.326 1.326 0 0 1 1.287-1.009h27.55c.86 0 1.492.807 1.287 1.643l-2.567 10.429a1.326 1.326 0 0 1-1.287 1.009H39.977c-.86 0-1.493-.807-1.287-1.643l2.566-10.429z"/><path stroke="#995332" stroke-linecap="round" stroke-width="1.105" d="M99.535 157.37c.792-.804 2.92-2.504 5.105-2.871"/><path fill="#0395DB" fill-rule="evenodd" d="m79.778 200.72-2.176 10.75.711-19.424a.89.89 0 1 1 1.78.065l-.315 8.609z" clip-rule="evenodd"/><rect width="88.016" height="8.183" x="26.742" y="270.04" fill="#AFAFAF" opacity=".3" rx="4.091"/></svg>