<svg xmlns="http://www.w3.org/2000/svg" width="147" height="210" x="1029" fill="none" viewBox="0 0 147 307"><g clip-path="url(#a)"><rect width="106.18" height="8.183" x="25.137" y="270.04" fill="#AFAFAF" opacity=".3" rx="4.091"/><path fill="#744007" fill-rule="evenodd" d="M91.733 189.84h23.434a4.148 4.148 0 0 1 4.147 4.148v60.131a4.147 4.147 0 0 1-4.147 4.147H91.733a4.147 4.147 0 0 1-4.147-4.147v-60.131a4.148 4.148 0 0 1 4.147-4.148z" clip-rule="evenodd"/><path fill="#744007" fill-rule="evenodd" d="m66.116 188.44 22.635 6.065a4.148 4.148 0 0 1 2.933 5.08l-14.772 55.128a4.147 4.147 0 0 1-5.08 2.933l-22.635-6.065a4.148 4.148 0 0 1-2.932-5.08l14.772-55.128a4.149 4.149 0 0 1 5.08-2.933z" clip-rule="evenodd"/><path fill="#FFB100" d="M121.1 261.64H95.363a4.237 4.237 0 1 0 0 8.475H121.1a4.238 4.238 0 0 0 0-8.475zM60.909 261.64H35.171a4.237 4.237 0 1 0 0 8.475h25.738a4.238 4.238 0 0 0 0-8.475z"/><path fill="#FFCBA3" d="M130.07 104.99a7.934 7.934 0 1 0 0-15.868 7.934 7.934 0 1 0 0 15.868z"/><path fill="#3D3D3D" d="M86.971 98.163c14.762 0 26.728-11.967 26.728-26.728 0-14.762-11.966-26.728-26.728-26.728H62.063c-14.762 0-26.728 11.967-26.728 26.728 0 14.762 11.967 26.728 26.728 26.728h24.908z"/><mask id="a" width="92" height="56" x="40" y="70" mask-type="alpha" maskUnits="userSpaceOnUse"><path fill="#fff" d="M104.45 70.321H67.618c-14.938 0-27.048 12.11-27.048 27.048v1.535c0 14.938 12.11 27.048 27.048 27.048h36.832c14.938 0 27.048-12.11 27.048-27.048v-1.535c0-14.938-12.11-27.048-27.048-27.048z"/></mask><g mask="url(#a)"><path fill="#FFCBA3" d="M104.45 70.321H67.618c-14.938 0-27.048 12.11-27.048 27.048v1.535c0 14.938 12.11 27.048 27.048 27.048h36.832c14.938 0 27.048-12.11 27.048-27.048v-1.535c0-14.938-12.11-27.048-27.048-27.048z"/><path fill="#C4C4C4" d="M158.9 70.188c0-12.598-10.213-22.811-22.811-22.811s-22.811 10.213-22.811 22.811v1.97c0 12.599 10.213 22.812 22.811 22.812S158.9 84.757 158.9 72.159v-1.971z" opacity=".689"/></g><path fill="#D8D8D8" fill-rule="evenodd" d="M52.52 177.54h66.896v16.246H52.52V177.54z" clip-rule="evenodd"/><path fill="#E99B5F" fill-rule="evenodd" d="M84.409 76.359a8.984 8.984 0 0 1 8.984 8.984v5.543a8.984 8.984 0 1 1-17.968 0v-5.543a8.984 8.984 0 0 1 8.984-8.984z" clip-rule="evenodd"/><path fill="#fff" fill-rule="evenodd" d="M84.409 79.608a8.984 8.984 0 0 1 8.984 8.984v5.543a8.984 8.984 0 1 1-17.968 0v-5.543a8.984 8.984 0 0 1 8.984-8.984z" clip-rule="evenodd"/><path fill="#3D3D3D" fill-rule="evenodd" d="M85.015 84.96a4.046 4.046 0 0 1 4.046 4.046v5.082a4.046 4.046 0 0 1-8.092 0v-5.082a4.046 4.046 0 0 1 4.046-4.046z" clip-rule="evenodd"/><path fill="#E99B5F" fill-rule="evenodd" d="M105.68 76.359a8.984 8.984 0 0 0-8.983 8.984v5.543a8.984 8.984 0 0 0 17.967 0v-5.543a8.984 8.984 0 0 0-8.984-8.984z" clip-rule="evenodd"/><path fill="#fff" fill-rule="evenodd" d="M105.68 79.608a8.984 8.984 0 0 0-8.983 8.984v5.543a8.984 8.984 0 0 0 17.967 0v-5.543a8.984 8.984 0 0 0-8.984-8.984z" clip-rule="evenodd"/><path fill="#fff" d="M83.604 89.357a3.154 3.154 0 1 1 0-6.308 3.154 3.154 0 0 1 0 6.308z"/><mask id="b" width="9" height="15" x="97" y="84" mask-type="alpha" maskUnits="userSpaceOnUse"><path fill="#fff" d="M101.83 84.96a4.046 4.046 0 0 0-4.046 4.046v5.082a4.046 4.046 0 0 0 8.092 0v-5.082a4.046 4.046 0 0 0-4.046-4.046z"/></mask><g mask="url(#b)"><path fill="#3D3D3D" d="M101.83 84.96a4.046 4.046 0 0 0-4.046 4.046v5.082a4.046 4.046 0 1 0 8.092 0v-5.082a4.046 4.046 0 0 0-4.046-4.046z"/><path fill="#fff" d="M99.511 89.356a3.25 3.25 0 1 0 0-6.5 3.25 3.25 0 0 0 0 6.5z"/></g><path fill="#E99B5F" fill-rule="evenodd" d="M105.62 77.964a8.952 8.952 0 0 0-8.952 8.952v2.898h17.904v-2.898a8.952 8.952 0 0 0-8.952-8.952zM84.407 77.964a8.952 8.952 0 0 0-8.952 8.952v2.898H93.36v-2.898a8.952 8.952 0 0 0-8.952-8.952zM95.709 107.32a3.786 3.786 0 0 0 3.787-3.785c0-2.09-3.787-7.034-3.787-7.034s-3.787 4.944-3.787 7.034a3.785 3.785 0 0 0 3.787 3.785z" clip-rule="evenodd"/><mask id="c" width="80" height="80" x="46" y="134" mask-type="alpha" maskUnits="userSpaceOnUse"><path fill="#fff" d="M85.68 213.86c21.904 0 39.66-17.756 39.66-39.66s-17.756-39.66-39.66-39.66c-21.904 0-39.66 17.756-39.66 39.66s17.757 39.66 39.66 39.66z"/></mask><g mask="url(#c)"><path fill="#fff" d="M85.68 213.86c21.904 0 39.66-17.756 39.66-39.66s-17.756-39.66-39.66-39.66c-21.904 0-39.66 17.756-39.66 39.66s17.757 39.66 39.66 39.66z"/><path fill="#744007" d="M134.71 219.59H33.6v-45.872h101.11v45.872z"/></g><path fill="#FFCBA3" fill-rule="evenodd" d="M71.527 120.45h28.963v17.247c0 7.997-6.483 14.481-14.481 14.481s-14.482-6.484-14.482-14.481V120.45z" clip-rule="evenodd"/><path fill="#3D3D3D" d="M88.016 73.882v-1.89c0-11.618-9.418-21.036-21.036-21.036H56.298c-11.618 0-21.036 9.418-21.036 21.036v1.89c0 11.618 9.418 21.036 21.036 21.036H66.98c11.618 0 21.036-9.418 21.036-21.036z"/><path fill="#C86902" fill-rule="evenodd" d="M71.442 137.22v108.373H44.874a2.867 2.867 0 0 1-2.867-2.867V178.791c0-19.206 12.29-35.541 29.434-41.571z" clip-rule="evenodd"/><path fill="#FFCBA3" d="M43.266 104.99a7.934 7.934 0 1 0 0-15.868 7.934 7.934 0 1 0 0 15.868z"/><path fill="#C86902" d="M44.17 109.26a3.787 3.787 0 1 0 0-7.573 3.787 3.787 0 0 0 0 7.573z"/><path fill="#fff" fill-rule="evenodd" d="M100.49 245.59h3.441a2.868 2.868 0 0 0 2.867-2.867v-63.935c0-19.206-2.634-35.542-6.308-41.571v108.37z" clip-rule="evenodd"/><path fill="#744007" fill-rule="evenodd" d="M99.73 173.72h7.072v73.778H99.73V173.72z" clip-rule="evenodd"/><path fill="#C86902" fill-rule="evenodd" d="M71.251 245.59h3.44a2.867 2.867 0 0 0 2.867-2.867v-63.935c0-19.206-2.633-35.542-6.307-41.571v108.37z" clip-rule="evenodd"/><path fill="#B45E00" fill-rule="evenodd" d="m73.834 195.64-26.08 9.96v6.262a8.115 8.115 0 0 0 8.78 8.087l9.852-.811a8.115 8.115 0 0 0 7.448-8.087V195.64z" clip-rule="evenodd"/><path fill="#C86902" d="m66.015 165-12.709 16.266c-3.38 4.326-9.626 5.093-13.951 1.713-4.325-3.379-5.092-9.625-1.713-13.951l12.709-16.266c3.38-4.326 9.626-5.093 13.951-1.713 4.325 3.379 5.092 9.625 1.713 13.951z"/><path fill="#C86902" d="m19.152 159.36 13.167 21.071c2.909 4.655 9.04 6.071 13.696 3.162 4.655-2.909 6.07-9.04 3.162-13.695L36.01 148.826c-2.909-4.655-9.04-6.071-13.696-3.162-4.655 2.909-6.07 9.04-3.162 13.696z"/><path fill="#FFCBA3" d="m26.573 162.89-5.921-.206c-5.486-.192-9.778-4.794-9.587-10.28s4.794-9.778 10.28-9.586l5.922.207c5.486.191 9.778 4.794 9.586 10.279-.192 5.486-4.794 9.778-10.28 9.586z"/><path fill="#FFCBA3" d="m25.16 150.55-20.248-.707a3.727 3.727 0 0 1 .26-7.45l20.248.707a3.727 3.727 0 0 1-.26 7.45z"/><path fill="#FFCBA3" d="m26.113 151.8.487-13.944a3.727 3.727 0 1 1 7.45.26l-.487 13.944a3.727 3.727 0 1 1-7.45-.26zM81.39 129.85l-1.159.669c-6.17 3.562-8.285 11.453-4.722 17.623l1.53 2.649c3.562 6.171 11.452 8.285 17.623 4.722l1.159-.669c6.17-3.562 8.285-11.453 4.722-17.624l-1.529-2.648c-3.563-6.171-11.453-8.285-17.624-4.722z"/><path fill="#B23131" d="M76.93 104.1c3.047-1.022 6.318.481 7.592 3.381.814 1.007 1.906 1.914 3.337 2.365.377.065.79.119 1.24.158l.102.01c3.352.349 5.814 3.352 5.517 6.756-.301 3.44-3.304 5.986-6.708 5.688-7.513-.657-12.95-4.137-15.016-10.456-1.07-3.276.691-6.814 3.936-7.902z"/><path fill="#FF4B4B" d="M78.77 113.03a8.851 8.851 0 0 1 8.835 9.393c-6.296-.643-11.089-3.309-13.59-8.009a8.814 8.814 0 0 1 4.755-1.384z"/><path fill="#C86902" fill-rule="evenodd" d="M105.97 148.99c-4.3 4.153-4.42 11.006-.267 15.307l20.163 23.48c4.153 4.3 11.006 4.42 15.306.267 4.301-4.153 4.42-11.006.267-15.306l-23.842-24.691c-4.153-4.3-7.326-3.21-11.627.943z" clip-rule="evenodd"/><path fill="#C86902" fill-rule="evenodd" d="M115.34 146.04c8.821 7.892 15.859 19.363 15.859 32.131l-.145 1.017-.138.987-.13.957-.122.927-.115.897-.108.866-.081.672-.095.813-.087.782-.079.753-.072.722-.065.692-.024.269-.044.522-.039.503-.018.245-.024.357-.015.233-.02.339-.012.221-.016.321-.009.209-.011.303-.006.196-.006.286-.003.184-.003.267v43.969a6.64 6.64 0 0 1-6.641 6.641h-22.37v-105.9a43.081 43.081 0 0 1 14.639 8.614z" clip-rule="evenodd"/><path fill="#FFCBA3" fill-rule="evenodd" d="m114.5 185.85.915-.528c5.177-2.99 11.798-1.216 14.787 3.962 2.989 5.177 1.215 11.798-3.962 14.787l-.915.528c-5.177 2.989-11.798 1.215-14.787-3.962-2.989-5.178-1.215-11.798 3.962-14.787z" clip-rule="evenodd"/><path fill="#C86902" fill-rule="evenodd" d="m130.5 200.39-15.834-14.765 11.464-12.294c4.077-4.372 10.927-4.612 15.3-.534 4.372 4.077 4.611 10.927.534 15.299L130.5 200.39z" clip-rule="evenodd"/><path fill="#B45E00" fill-rule="evenodd" d="m104.41 191.54 25.458 9.722v6.113a7.921 7.921 0 0 1-8.571 7.894l-9.616-.792a7.921 7.921 0 0 1-7.271-7.894V191.54z" clip-rule="evenodd"/><path fill="#FFCBA3" fill-rule="evenodd" d="m107.3 191.07 4.272-3.104a3.785 3.785 0 0 1 4.448 6.124l-4.272 3.104a3.785 3.785 0 0 1-4.448-6.124z" clip-rule="evenodd"/></g></svg>