<svg xmlns="http://www.w3.org/2000/svg" width="147" height="210" x="294" fill="none" viewBox="0 0 147 307"><g clip-path="url(#a)"><path fill="#DA8E74" fill-rule="evenodd" d="M145.75 140.04a8.018 8.018 0 0 1-5.84 9.721l-14.365 3.582a8.02 8.02 0 0 1-3.88-15.562l14.365-3.582a8.019 8.019 0 0 1 9.72 5.841z" clip-rule="evenodd"/><path fill="#DA8E74" fill-rule="evenodd" d="M125.56 134.86a9.154 9.154 0 0 0 9.226 9.072l-1.212 23.134c-.281 5.36-4.854 9.478-10.214 9.197s-9.477-4.854-9.196-10.214l1.242-23.711a8.484 8.484 0 0 1 8.917-8.028l1.233.064.004.486z" clip-rule="evenodd"/><path fill="#FFAADE" fill-rule="evenodd" d="m134.1 157.06-.848 16.167c-.281 5.361-4.853 9.478-10.213 9.197s-9.478-4.854-9.197-10.214l.847-16.167 19.411 1.017z" clip-rule="evenodd"/><path fill="#FFAADE" fill-rule="evenodd" d="M133.16 173.86c-.561 5.338-5.343 9.21-10.681 8.649l-24.839-2.61c-5.338-.562-9.21-5.344-8.65-10.682.562-5.338 5.344-9.21 10.682-8.649l24.84 2.611c5.338.561 9.21 5.343 8.649 10.681z" clip-rule="evenodd"/><path fill="#DA8E74" fill-rule="evenodd" d="M117.9 142.24a3.567 3.567 0 0 1-.176-5.042l5.231-5.61a3.569 3.569 0 0 1 5.042-.176 3.569 3.569 0 0 1 .176 5.042l-5.232 5.61a3.567 3.567 0 0 1-5.041.176z" clip-rule="evenodd"/><path fill="#FFAADE" fill-rule="evenodd" d="M20.303 166.74a12.338 12.338 0 0 1 15.763-5.651l31.547 13.401c7.071 3.004 9.707 11.67 5.505 18.102L58 215.732a12.336 12.336 0 0 1-12.7 5.36l-32.194-6.305c-8.089-1.584-12.38-10.502-8.568-17.811l15.765-30.236z" clip-rule="evenodd"/><path fill="#3D3D3D" fill-rule="evenodd" d="M39.009 57.344c12.583-1.545 24.211 5.782 28.609 17.077l-.045-.084c2.795 5.447 7.71 7.516 14.667 6.77l.446-.051c.124-.015.243-.028.359-.038l.21-.032.395-.052c11.467-1.408 21.9 6.711 23.303 18.135 1.403 11.423-6.757 21.825-18.224 23.233a20.891 20.891 0 0 1-14.86-3.829l.306 2.487c1.81 14.735-8.546 28.16-23.195 30.2l-.652.084c-14.09 1.73-26.984-7.665-29.868-21.3-9.098-1.317-16.554-8.548-17.725-18.079-1.165-9.494 4.274-18.283 12.727-21.789l-.3-2.449c-1.81-14.735 8.546-28.16 23.195-30.2l.651-.083z" clip-rule="evenodd"/><circle cx="102.66" cy="116.96" r="7.614" fill="#DA8E74" transform="rotate(-7 102.66 116.96)"/><path fill="#DA8E74" fill-rule="evenodd" d="M52.894 87.94c25.374-3.115 48.468 14.929 51.584 40.302l8.987 73.191c3.115 25.373-14.929 48.468-40.302 51.584-25.374 3.115-48.469-14.928-51.584-40.302l-8.987-73.191C9.477 114.151 27.52 91.056 52.894 87.94z" clip-rule="evenodd"/><path fill="#3D3D3D" fill-rule="evenodd" d="m28.148 102.39 1.612 13.126c.762 6.206-3.652 11.855-9.858 12.617a11.273 11.273 0 0 1-7.097-1.464c1.658-10.547 6.925-20.068 14.633-27.071.347.877.59 1.812.71 2.792zm73.1 13.619.177.434c-4.816-.808-8.734-4.694-9.36-9.788l-.657-5.363a46.145 46.145 0 0 1 9.738 14.475l.102.242z" clip-rule="evenodd"/><path fill="#2BE69C" fill-rule="evenodd" d="m111.94 189.06 1.519 12.376c3.116 25.374-14.928 48.469-40.302 51.584s-48.469-14.928-51.584-40.302l-1.52-12.376 91.886-11.282z" clip-rule="evenodd"/><path fill="#BB7057" d="M47.634 114.62a14.27 14.27 0 0 1 10.911 4.261c.748.763.238 2.052-.83 2.097-3.2.133-6.332 1.175-9.409 3.142a1.234 1.234 0 0 1-1.329-2.079c2.404-1.537 4.865-2.577 7.377-3.114l.27-.054-.026-.018a11.798 11.798 0 0 0-6.435-1.784l-.404.014-1.131.057a1.234 1.234 0 0 1-.269-2.449l.143-.015 1.132-.058z"/><path fill="#FFAADE" fill-rule="evenodd" d="m16.672 172.77 91.886-11.282 3.37 27.446-91.886 11.283-3.37-27.447z" clip-rule="evenodd"/><path fill="#DA8E74" fill-rule="evenodd" d="m71.89 181.13 11.147-16.913-26.054 3.199 14.908 13.714z" clip-rule="evenodd"/><path fill="#A56644" fill-rule="evenodd" d="m20.039 200.18 91.886-11.282 1.27 10.342-91.886 11.282-1.27-10.342z" clip-rule="evenodd"/><path fill="#2BE69C" fill-rule="evenodd" d="m43.496 197.3 6.563-.806 1.856 15.116-6.563.805-1.856-15.115zM96.199 190.83l6.564-.806 1.855 15.116-6.563.806-1.856-15.116z" clip-rule="evenodd"/><path fill="#fff" fill-rule="evenodd" d="M65.136 110.49a9.448 9.448 0 0 1 18.755-2.303l.7 5.704a9.448 9.448 0 0 1-18.755 2.303l-.7-5.704z" clip-rule="evenodd"/><path fill="#3D3D3D" fill-rule="evenodd" d="M68.365 110.5a4.242 4.242 0 0 1 8.42-1.034l.65 5.288a4.242 4.242 0 1 1-8.42 1.034l-.65-5.288z" clip-rule="evenodd"/><path fill="#DA8E74" fill-rule="evenodd" d="m58.305 100.96 27.734-3.406 1.66 13.525-27.732 3.405-1.661-13.524z" clip-rule="evenodd"/><path fill="#3D3D3D" fill-rule="evenodd" d="m49.789 138.39 34.209-4.2 2.051 16.707-34.209 4.2-2.051-16.707z" clip-rule="evenodd"/><path fill="#DA8E74" fill-rule="evenodd" d="M60.105 154.22c6.13-4.908 11.389-4 16.284-2s-1.762 10.571-1.762 10.571l-10.105 1.241s-10.546-4.905-4.417-9.812z" clip-rule="evenodd"/><path fill="#3D3D3D" fill-rule="evenodd" d="M65.876 145.49c-5.755-3.737-7.39-11.431-3.653-17.185 3.737-5.755 11.431-7.39 17.186-3.653l9.075 5.893c5.754 3.737 7.39 11.431 3.653 17.186-3.737 5.754-11.431 7.39-17.186 3.653l-9.075-5.894z" clip-rule="evenodd"/><path fill="#3D3D3D" fill-rule="evenodd" d="M68.605 145.16c4.68-5.018 4.405-12.88-.613-17.559-5.018-4.68-12.88-4.405-17.56.613l-7.379 7.914c-4.68 5.018-4.405 12.879.614 17.558 5.018 4.68 12.88 4.405 17.559-.613l7.38-7.913z" clip-rule="evenodd"/><path fill="#DA8E74" fill-rule="evenodd" d="M68.723 151.85a4.319 4.319 0 0 1 2.089-5.739l3.354-1.564a4.318 4.318 0 1 1 3.65 7.827l-3.355 1.564a4.318 4.318 0 0 1-5.738-2.088z" clip-rule="evenodd"/><path fill="#DA8E74" fill-rule="evenodd" d="M63.943 158.28a4.318 4.318 0 0 1-1.477-5.925l8.26-13.747a4.318 4.318 0 1 1 7.402 4.447l-8.26 13.748a4.318 4.318 0 0 1-5.925 1.477z" clip-rule="evenodd"/><circle cx="67.129" cy="124.55" r="6.011" fill="#DA8E74" transform="rotate(-7 67.129 124.55)"/><path fill="#3D3D3D" d="m47.373 100.75.148-.176A5.551 5.551 0 1 1 56.2 107.5c-3.096 3.88-7.671 5.92-13.29 6.194a5.552 5.552 0 0 1-.802-11.072l.26-.018c2.492-.122 4.036-.761 5.006-1.854zM69.446 91.808c5.1-.4 9.375.219 12.811 2.048a5.552 5.552 0 0 1-4.97 9.926l-.248-.125c-1.322-.704-3.56-1.028-6.725-.78a5.552 5.552 0 0 1-1.128-11.043l.26-.026z"/><circle cx="8.783" cy="128.48" r="7.614" fill="#DA8E74" transform="rotate(-7 8.783 128.48)"/><path fill="#1CB0F6" fill-rule="evenodd" d="M96.085 270.18a6.012 6.012 0 0 1-2.294-11.802l14.162-2.753a6.011 6.011 0 1 1 2.294 11.802l-14.162 2.753zM48.371 270.14a6.011 6.011 0 1 1 0-12.023h14.427a6.012 6.012 0 0 1 0 12.023H48.371z" clip-rule="evenodd"/><path fill="#FFAADE" fill-rule="evenodd" d="M131.6 99.444c2.514 1.173 3.658 4.042 2.554 6.41-.626 1.343-1.842 2.236-3.236 2.542l-6.812 1.942a2.014 2.014 0 0 1-2.293-.923l-.085-.163-2.938-6.305c-.8-1.319-.963-2.95-.289-4.393 1.103-2.367 4.037-3.336 6.551-2.163a5.167 5.167 0 0 1 2.666 2.836 5.15 5.15 0 0 1 3.882.217z" clip-rule="evenodd"/><path fill="#FFAADE" fill-rule="evenodd" d="M125.15 72.27c1.757-.31 3.416.77 3.705 2.411a2.915 2.915 0 0 1-.6 2.317l-.162.19-2.878 3.516c-.371.454-.993.6-1.522.377l-.142-.07-3.864-2.214c-.906-.396-1.59-1.188-1.767-2.188-.289-1.641.9-3.223 2.657-3.533a3.332 3.332 0 0 1 2.447.504 3.33 3.33 0 0 1 2.126-1.31z" clip-rule="evenodd" opacity=".463"/><path fill="#3D3D3D" fill-rule="evenodd" d="m11.785 121.43 2.097 1.328 13.633-22.931-1.996-3.335-13.735 24.938zM98.741 110.37l-.388.332-6.895-9.125-.212-1.282 9.01 8.174-1.515 1.901z" clip-rule="evenodd"/><rect width="88.016" height="8.183" x="30.211" y="270.04" fill="#AFAFAF" opacity=".3" rx="4.091"/></g></svg>