<svg xmlns="http://www.w3.org/2000/svg" width="147" height="210" x="147" viewBox="0 0 147 307"><path fill="#CC348D" fill-rule="evenodd" d="M50.195 264.48a5.662 5.662 0 0 1 5.661-5.662h34.17a5.662 5.662 0 0 1 0 11.323h-34.17a5.661 5.661 0 0 1-5.661-5.661zM19.206 147.77l18.624-12.095c5.429-3.525 12.687-1.983 16.213 3.446s1.982 12.687-3.446 16.213l-18.624 12.094c-5.429 3.526-12.687 1.983-16.213-3.446-3.526-5.428-1.983-12.687 3.446-16.212zM127.94 147.77l-18.624-12.095c-5.429-3.525-12.688-1.983-16.213 3.446s-1.982 12.687 3.446 16.213l18.624 12.094c5.43 3.526 12.688 1.983 16.213-3.446 3.525-5.428 1.983-12.687-3.446-16.212z" clip-rule="evenodd"/><path fill="#CC348D" fill-rule="evenodd" d="M73.478 124.42h.202c24.845 0 44.986 20.141 44.986 44.985 0 24.597-19.74 44.583-44.242 44.98l-.946.006c-24.845 0-44.986-20.141-44.986-44.986 0-24.844 20.141-44.985 44.986-44.985z" clip-rule="evenodd"/><path fill="#00448E" fill-rule="evenodd" d="M117.33 180.32H29.823a44.885 44.885 0 0 1-1.189-7.279h89.883a44.95 44.95 0 0 1-1.188 7.279z" clip-rule="evenodd"/><path fill="#0084C2" fill-rule="evenodd" d="m74.426 214.39-.946.006c-21.728 0-39.86-15.405-44.065-35.889h88.333c-4.158 20.25-21.924 35.536-43.321 35.883z" clip-rule="evenodd"/><path fill="#0084C2" d="M72.57 103.52c22.779 0 41.246-18.466 41.246-41.246 0-22.779-18.466-41.245-41.246-41.245S31.325 39.495 31.325 62.274c0 22.779 18.466 41.246 41.245 41.246z"/><path fill="#006AAD" fill-rule="evenodd" d="M93.574 26.768c1.163.69 2.29 1.435 3.376 2.232L63.405 55.416l-2.377-3.018 32.546-25.63z" clip-rule="evenodd"/><path fill="#C6775C" fill-rule="evenodd" d="m46.488 61.365 26.673-18.827L99.46 61.365v59.013H46.488V61.365z" clip-rule="evenodd"/><path fill="#fff" fill-rule="evenodd" d="M61.279 57.5a9.533 9.533 0 0 1 9.533 9.533v5.798c0 5.265-4.268 9.533-9.533 9.533s-9.533-4.268-9.533-9.533v-5.798A9.533 9.533 0 0 1 61.28 57.5zM84.529 57.5a9.533 9.533 0 0 1 9.533 9.533v5.798c0 5.265-4.268 9.533-9.533 9.533s-9.533-4.268-9.533-9.533v-5.798A9.533 9.533 0 0 1 84.53 57.5z" clip-rule="evenodd"/><path fill="#3D3D3D" fill-rule="evenodd" d="M63.909 64.394a4.28 4.28 0 0 1 4.28 4.28v5.375a4.28 4.28 0 1 1-8.56 0v-5.375l.007-.251a3.134 3.134 0 0 0 3.326-3.924c.305-.069.622-.105.947-.105zM81.784 64.46a4.28 4.28 0 0 1 4.28 4.28v5.375a4.28 4.28 0 0 1-8.56 0V68.74l.007-.251a3.134 3.134 0 0 0 3.326-3.924c.305-.069.622-.105.947-.105z" clip-rule="evenodd"/><path fill="#C6775C" d="M52.09 71.144c4.259-.373 14.788 1.35 20.091 5.035a5.207 5.207 0 0 1-5.712 8.704l-.231-.152c-1.607-1.117-4.543-2.047-8.1-2.628a48.214 48.214 0 0 0-4-.481l-.53-.038-.473-.028-.41-.018.273-.02a5.207 5.207 0 1 1-.908-10.374z"/><path fill="#C6775C" d="M93.104 73.612c-4.259-.373-14.788 1.35-20.091 5.035a5.207 5.207 0 0 0 5.712 8.704l.231-.152c1.607-1.117 4.542-2.047 8.1-2.628a48.214 48.214 0 0 1 4-.481l.53-.038.473-.028.41-.018-.273-.02a5.207 5.207 0 1 0 .908-10.374z"/><path fill="#A71E6E" d="M48.694 139.18a2.143 2.143 0 0 1 2.878-.139l.153.139 4.005 4.006 4.007-4.006a2.143 2.143 0 0 1 2.878-.139l.153.139c.787.788.834 2.036.139 2.878l-.14.153-5.52 5.521a2.143 2.143 0 0 1-2.879.139l-.153-.139-5.521-5.521a2.143 2.143 0 0 1 0-3.031zM66.081 139.18a2.143 2.143 0 0 1 2.878-.139l.153.139 4.006 4.005 4.006-4.005a2.143 2.143 0 0 1 2.878-.139l.153.139c.787.788.834 2.036.139 2.878l-.14.153-5.52 5.521a2.143 2.143 0 0 1-2.879.139l-.153-.139-5.521-5.521a2.143 2.143 0 0 1 0-3.031zM83.468 139.18a2.143 2.143 0 0 1 2.878-.139l.153.139 4.006 4.005 4.006-4.005a2.143 2.143 0 0 1 2.878-.139l.153.139c.787.788.834 2.036.139 2.878l-.14.153-5.52 5.521a2.143 2.143 0 0 1-2.879.139l-.153-.139-5.521-5.521a2.143 2.143 0 0 1 0-3.031zM57.186 152.12a2.143 2.143 0 0 1 2.878-.139l.153.139 4.005 4.006 4.007-4.006a2.143 2.143 0 0 1 2.878-.139l.153.139c.787.788.834 2.036.139 2.878l-.14.153-5.52 5.521a2.143 2.143 0 0 1-2.879.139l-.153-.139-5.521-5.521a2.143 2.143 0 0 1 0-3.031zM74.573 152.12a2.143 2.143 0 0 1 2.878-.139l.153.139 4.005 4.006 4.007-4.006a2.143 2.143 0 0 1 2.878-.139l.153.139c.787.788.834 2.036.139 2.878l-.14.153-5.52 5.521a2.143 2.143 0 0 1-2.879.139l-.153-.139-5.521-5.521a2.143 2.143 0 0 1 0-3.031z"/><path fill="#0084C2" fill-rule="evenodd" d="M61.905 205.54h21.431c1.117 0 2.022.905 2.022 2.021v43.065a2.022 2.022 0 0 1-2.022 2.022H61.905a2.022 2.022 0 0 1-2.022-2.022v-43.065c0-1.116.905-2.021 2.022-2.021z" clip-rule="evenodd"/><path fill="#3D3D3D" fill-rule="evenodd" d="M56.548 80.689h34.066c13.372 0 24.212 10.84 24.212 24.212s-10.84 24.212-24.212 24.212H56.548c-13.372 0-24.212-10.84-24.212-24.212s10.84-24.212 24.212-24.212z" clip-rule="evenodd"/><path fill="#fff" stroke="#3D3D3D" stroke-width="5.883" d="M55.031 80.811a9.485 9.485 0 0 1 7.373-1.16 9.736 9.736 0 0 1 5.985 4.468c.86 1.378 2.398 1.858 4.485 1.977l.136.009c2.64.192 4.977 1.447 6.616 3.344a9.99 9.99 0 0 1 2.416 7.02 9.85 9.85 0 0 1-3.148 6.794 9.505 9.505 0 0 1-7.025 2.525c-8.585-.493-15.725-4.295-20.012-11.468a10.012 10.012 0 0 1-1.16-7.41c.572-2.46 2.067-4.684 4.334-6.1z"/><path fill="#C6775C" d="M72.845 83.882a5.56 5.56 0 1 0 0-11.12 5.56 5.56 0 0 0 0 11.12z"/><path fill="#C6775C" fill-rule="evenodd" d="m62.459 134.97-8.278-12.274a6.785 6.785 0 0 1 1.83-9.419 6.785 6.785 0 0 1 9.42 1.831l8.279 12.273a6.786 6.786 0 0 1-11.251 7.589z" clip-rule="evenodd"/><path fill="#C6775C" fill-rule="evenodd" d="m84.837 134.97 8.279-12.274a6.785 6.785 0 0 0-1.831-9.419 6.785 6.785 0 0 0-9.42 1.831l-8.279 12.273a6.786 6.786 0 0 0 11.251 7.589z" clip-rule="evenodd"/><path fill="#CC348D" fill-rule="evenodd" d="m31.573 139.86 17.589-11.423c5.429-3.525 12.687-1.982 16.213 3.447 3.525 5.428 1.982 12.687-3.446 16.212l-17.59 11.423c-5.428 3.525-12.686 1.983-16.212-3.446s-1.983-12.687 3.446-16.213zM115.57 139.86l-17.589-11.423c-5.429-3.525-12.687-1.982-16.213 3.447-3.525 5.428-1.982 12.687 3.446 16.212l17.59 11.423c5.428 3.525 12.687 1.983 16.212-3.446 3.526-5.429 1.983-12.687-3.446-16.213z" clip-rule="evenodd"/><rect width="88.016" height="8.183" x="29.633" y="270.04" fill="#AFAFAF" opacity=".3" rx="4.091"/></svg>